  0
SECTION
  2
HEADER
  9
$MEASUREMENT
  70
  1
  9
$INSUNITS
  70
  4
  0
ENDSEC
  0
SECTION
  2
TABLES
  0
TABLE
  2
LTYPE
 70
     1
  0
LTYPE
  2
CONTINUOUS
 70
    64
  3
Ausgezogene Linie
 72
    65
 73
     0
 40
0.0
  0
ENDTAB
  0
TABLE
  2
LAYER
 70
     3
  0
LAYER
  2
Contour
 70
    64
 62
     7
  6
CONTINUOUS
  0
LAYER
  2
Gravure
 70
    64
 62
     7
  6
CONTINUOUS
  0
LAYER
  2
Points de référence
 70
    64
 62
     1
  6
CONTINUOUS
  0
ENDTAB
  0
TABLE
  2
STYLE
 70
     1
  0
STYLE
  2
TXT
 70
    64
 40
0.0
 41
1.0
 50
0.0
 71
     0
 42
3.500000
  3
TXT
  0
ENDTAB
  0
ENDSEC
  0
SECTION
  2
BLOCKS
  0
ENDSEC
  0
SECTION
  2
ENTITIES
  0
LINE
  8
Contour
 62
   7
 39
0.100
  6
CONTINUOUS
 10
220.00000
 20
78.00000
 30
 0
 11
220.00000
 21
0.00000
  0
LINE
  8
Contour
 62
   7
 39
0.100
  6
CONTINUOUS
 10
220.00000
 20
0.00000
 30
 0
 11
0.00000
 21
0.00000
  0
LINE
  8
Contour
 62
   7
 39
0.100
  6
CONTINUOUS
 10
0.00000
 20
0.00000
 30
 0
 11
0.00000
 21
78.00000
  0
LINE
  8
Contour
 62
   7
 39
0.100
  6
CONTINUOUS
 10
0.00000
 20
78.00000
 30
 0
 11
220.00000
 21
78.00000
  0
LINE
  8
Gravure
 62
   7
 39
0.400
  6
CONTINUOUS
 10
111.94841
 20
59.70202
 30
 0
 11
113.16906
 21
56.33597
  0
LINE
  8
Gravure
 62
   7
 39
0.400
  6
CONTINUOUS
 10
113.16906
 20
56.33597
 30
 0
 11
113.35401
 21
56.33597
  0
LINE
  8
Gravure
 62
   7
 39
0.400
  6
CONTINUOUS
 10
113.35401
 20
56.33597
 30
 0
 11
112.09636
 21
59.70202
  0
LINE
  8
Gravure
 62
   7
 39
0.400
  6
CONTINUOUS
 10
112.09636
 20
59.70202
 30
 0
 11
111.94841
 21
59.70202
  0
LINE
  8
Gravure
 62
   7
 39
0.400
  6
CONTINUOUS
 10
111.94841
 20
59.70202
 30
 0
 11
110.69076
 21
56.33597
  0
LINE
  8
Gravure
 62
   7
 39
0.400
  6
CONTINUOUS
 10
110.69076
 20
56.33597
 30
 0
 11
110.50581
 21
56.33597
  0
LINE
  8
Gravure
 62
   7
 39
0.400
  6
CONTINUOUS
 10
110.50581
 20
56.33597
 30
 0
 11
111.76346
 21
59.70202
  0
LINE
  8
Gravure
 62
   7
 39
0.400
  6
CONTINUOUS
 10
111.76346
 20
59.70202
 30
 0
 11
113.02110
 21
56.22500
  0
LINE
  8
Gravure
 62
   7
 39
0.400
  6
CONTINUOUS
 10
113.02110
 20
56.22500
 30
 0
 11
113.57595
 21
56.22500
  0
LINE
  8
Gravure
 62
   7
 39
0.400
  6
CONTINUOUS
 10
113.57595
 20
56.22500
 30
 0
 11
112.24432
 21
59.77600
  0
LINE
  8
Gravure
 62
   7
 39
0.400
  6
CONTINUOUS
 10
112.24432
 20
59.77600
 30
 0
 11
111.61550
 21
59.77600
  0
LINE
  8
Gravure
 62
   7
 39
0.400
  6
CONTINUOUS
 10
111.61550
 20
59.77600
 30
 0
 11
110.28387
 21
56.22500
  0
LINE
  8
Gravure
 62
   7
 39
0.400
  6
CONTINUOUS
 10
110.28387
 20
56.22500
 30
 0
 11
110.83872
 21
56.22500
  0
LINE
  8
Gravure
 62
   7
 39
0.400
  6
CONTINUOUS
 10
110.83872
 20
56.22500
 30
 0
 11
111.91142
 21
59.18417
  0
LINE
  8
Gravure
 62
   7
 39
0.400
  6
CONTINUOUS
 10
111.91142
 20
59.18417
 30
 0
 11
111.24560
 21
57.40867
  0
LINE
  8
Gravure
 62
   7
 39
0.400
  6
CONTINUOUS
 10
111.24560
 20
57.40867
 30
 0
 11
112.61422
 21
57.40867
  0
LINE
  8
Gravure
 62
   7
 39
0.400
  6
CONTINUOUS
 10
112.61422
 20
57.40867
 30
 0
 11
112.65121
 21
57.29770
  0
LINE
  8
Gravure
 62
   7
 39
0.400
  6
CONTINUOUS
 10
112.65121
 20
57.29770
 30
 0
 11
111.17163
 21
57.29770
  0
LINE
  8
Gravure
 62
   7
 39
0.400
  6
CONTINUOUS
 10
111.17163
 20
57.29770
 30
 0
 11
111.13464
 21
57.14974
  0
LINE
  8
Gravure
 62
   7
 39
0.400
  6
CONTINUOUS
 10
111.13464
 20
57.14974
 30
 0
 11
112.72519
 21
57.14974
  0
LINE
  8
Gravure
 62
   7
 39
0.400
  6
CONTINUOUS
 10
112.72519
 20
57.14974
 30
 0
 11
112.72519
 21
57.03877
  0
LINE
  8
Gravure
 62
   7
 39
0.400
  6
CONTINUOUS
 10
112.72519
 20
57.03877
 30
 0
 11
111.13464
 21
57.03877
  0
LINE
  8
Gravure
 62
   7
 39
0.400
  6
CONTINUOUS
 10
117.38506
 20
58.88925
 30
 0
 11
117.23710
 21
58.88925
  0
LINE
  8
Gravure
 62
   7
 39
0.400
  6
CONTINUOUS
 10
117.23710
 20
58.88925
 30
 0
 11
117.05216
 21
59.18517
  0
ARC
  8
Gravure
 62
   7
 39
0.400
  6
CONTINUOUS
 10
116.15783
 20
58.38794
 30
 0
 40
1.19808
 50
41.71467
 51
142.86655
  0
ARC
  8
Gravure
 62
   7
 39
0.400
  6
CONTINUOUS
 10
116.89101
 20
58.00150
 30
 0
 40
2.02036
 50
146.68431
 51
213.31569
  0
ARC
  8
Gravure
 62
   7
 39
0.400
  6
CONTINUOUS
 10
116.15960
 20
57.57152
 30
 0
 40
1.17376
 50
215.38625
 51
322.36715
  0
LINE
  8
Gravure
 62
   7
 39
0.400
  6
CONTINUOUS
 10
117.08915
 20
56.85482
 30
 0
 11
117.34807
 21
57.29870
  0
LINE
  8
Gravure
 62
   7
 39
0.400
  6
CONTINUOUS
 10
117.34807
 20
57.29870
 30
 0
 11
117.49603
 21
57.29870
  0
ARC
  8
Gravure
 62
   7
 39
0.400
  6
CONTINUOUS
 10
115.77664
 20
57.97257
 30
 0
 40
1.84673
 50
324.18070
 51
338.59838
  0
ARC
  8
Gravure
 62
   7
 39
0.400
  6
CONTINUOUS
 10
116.16441
 20
57.59264
 30
 0
 40
1.31246
 50
212.27455
 51
327.72545
  0
ARC
  8
Gravure
 62
   7
 39
0.400
  6
CONTINUOUS
 10
116.54897
 20
58.00150
 30
 0
 40
1.86123
 50
143.40100
 51
216.59900
  0
ARC
  8
Gravure
 62
   7
 39
0.400
  6
CONTINUOUS
 10
116.16441
 20
58.41036
 30
 0
 40
1.31246
 50
32.27455
 51
147.72545
  0
ARC
  8
Gravure
 62
   7
 39
0.400
  6
CONTINUOUS
 10
116.17547
 20
58.08063
 30
 0
 40
1.50632
 50
34.15066
 51
43.16896
  0
LINE
  8
Gravure
 62
   7
 39
0.400
  6
CONTINUOUS
 10
117.42205
 20
58.92624
 30
 0
 11
117.68098
 21
58.77828
  0
LINE
  8
Gravure
 62
   7
 39
0.400
  6
CONTINUOUS
 10
117.68098
 20
58.77828
 30
 0
 11
117.16313
 21
58.77828
  0
ARC
  8
Gravure
 62
   7
 39
0.400
  6
CONTINUOUS
 10
116.16441
 20
58.41566
 30
 0
 40
1.06251
 50
19.95543
 51
160.04457
  0
ARC
  8
Gravure
 62
   7
 39
0.400
  6
CONTINUOUS
 10
117.34048
 20
58.00150
 30
 0
 40
2.30935
 50
160.34455
 51
199.65545
  0
ARC
  8
Gravure
 62
   7
 39
0.400
  6
CONTINUOUS
 10
116.16441
 20
57.58734
 30
 0
 40
1.06251
 50
199.95543
 51
340.04457
  0
ARC
  8
Gravure
 62
   7
 39
0.400
  6
CONTINUOUS
 10
114.83336
 20
57.88576
 30
 0
 40
2.42173
 50
344.15931
 51
347.76820
  0
LINE
  8
Gravure
 62
   7
 39
0.400
  6
CONTINUOUS
 10
117.20011
 20
57.37268
 30
 0
 11
117.71797
 21
57.37268
  0
ARC
  8
Gravure
 62
   7
 39
0.400
  6
CONTINUOUS
 10
115.70259
 20
58.01047
 30
 0
 40
2.11389
 50
324.43057
 51
342.43933
  0
ARC
  8
Gravure
 62
   7
 39
0.400
  6
CONTINUOUS
 10
116.16441
 20
57.71178
 30
 0
 40
1.56471
 50
216.50955
 51
323.49045
  0
ARC
  8
Gravure
 62
   7
 39
0.400
  6
CONTINUOUS
 10
116.55044
 20
58.00150
 30
 0
 40
2.04736
 50
143.40100
 51
216.59900
  0
ARC
  8
Gravure
 62
   7
 39
0.400
  6
CONTINUOUS
 10
116.16441
 20
58.29122
 30
 0
 40
1.56471
 50
36.50955
 51
143.49045
  0
ARC
  8
Gravure
 62
   7
 39
0.400
  6
CONTINUOUS
 10
115.79688
 20
57.97668
 30
 0
 40
2.04754
 50
23.04760
 51
37.46528
  0
LINE
  8
Gravure
 62
   7
 39
0.400
  6
CONTINUOUS
 10
110.87577
 20
37.51707
 30
 0
 11
110.87577
 21
34.48393
  0
LINE
  8
Gravure
 62
   7
 39
0.400
  6
CONTINUOUS
 10
110.87577
 20
34.48393
 30
 0
 11
111.80051
 21
34.48393
  0
ARC
  8
Gravure
 62
   7
 39
0.400
  6
CONTINUOUS
 10
111.65735
 20
35.80811
 30
 0
 40
1.33190
 50
276.17031
 51
320.71555
  0
ARC
  8
Gravure
 62
   7
 39
0.400
  6
CONTINUOUS
 10
111.18073
 20
36.01899
 30
 0
 40
1.83956
 50
325.03525
 51
394.96475
  0
ARC
  8
Gravure
 62
   7
 39
0.400
  6
CONTINUOUS
 10
111.74356
 20
36.29977
 30
 0
 40
1.22092
 50
39.30724
 51
85.58713
  0
LINE
  8
Gravure
 62
   7
 39
0.400
  6
CONTINUOUS
 10
111.83750
 20
37.51707
 30
 0
 11
110.87577
 21
37.51707
  0
LINE
  8
Gravure
 62
   7
 39
0.400
  6
CONTINUOUS
 10
110.87577
 20
37.51707
 30
 0
 11
110.69082
 21
37.62804
  0
LINE
  8
Gravure
 62
   7
 39
0.400
  6
CONTINUOUS
 10
110.69082
 20
37.62804
 30
 0
 11
111.80051
 21
37.62804
  0
ARC
  8
Gravure
 62
   7
 39
0.400
  6
CONTINUOUS
 10
111.76261
 20
36.35009
 30
 0
 40
1.27852
 50
38.56848
 51
88.30142
  0
ARC
  8
Gravure
 62
   7
 39
0.400
  6
CONTINUOUS
 10
111.40917
 20
36.01899
 30
 0
 40
1.76170
 50
-39.82125
 51
39.82125
  0
ARC
  8
Gravure
 62
   7
 39
0.400
  6
CONTINUOUS
 10
111.72271
 20
35.66941
 30
 0
 40
1.29878
 50
273.43429
 51
323.16723
  0
LINE
  8
Gravure
 62
   7
 39
0.400
  6
CONTINUOUS
 10
111.80051
 20
34.37296
 30
 0
 11
110.69082
 21
34.37296
  0
LINE
  8
Gravure
 62
   7
 39
0.400
  6
CONTINUOUS
 10
110.69082
 20
34.37296
 30
 0
 11
110.69082
 21
37.62804
  0
LINE
  8
Gravure
 62
   7
 39
0.400
  6
CONTINUOUS
 10
110.69082
 20
37.62804
 30
 0
 11
110.50588
 21
37.77600
  0
LINE
  8
Gravure
 62
   7
 39
0.400
  6
CONTINUOUS
 10
110.50588
 20
37.77600
 30
 0
 11
111.80051
 21
37.77600
  0
ARC
  8
Gravure
 62
   7
 39
0.400
  6
CONTINUOUS
 10
111.79669
 20
36.31993
 30
 0
 40
1.45607
 50
40.11664
 51
89.84958
  0
ARC
  8
Gravure
 62
   7
 39
0.400
  6
CONTINUOUS
 10
111.40186
 20
36.00050
 30
 0
 40
1.96386
 50
-39.82125
 51
39.82125
  0
ARC
  8
Gravure
 62
   7
 39
0.400
  6
CONTINUOUS
 10
111.79669
 20
35.68107
 30
 0
 40
1.45607
 50
270.15042
 51
319.88336
  0
LINE
  8
Gravure
 62
   7
 39
0.400
  6
CONTINUOUS
 10
111.80051
 20
34.22500
 30
 0
 11
110.50588
 21
34.22500
  0
LINE
  8
Gravure
 62
   7
 39
0.400
  6
CONTINUOUS
 10
110.50588
 20
34.22500
 30
 0
 11
110.50588
 21
37.77600
  0
LINE
  8
Gravure
 62
   7
 39
0.400
  6
CONTINUOUS
 10
110.50588
 20
37.77600
 30
 0
 11
111.06072
 21
37.40610
  0
LINE
  8
Gravure
 62
   7
 39
0.400
  6
CONTINUOUS
 10
111.06072
 20
37.40610
 30
 0
 11
111.80051
 21
37.40610
  0
ARC
  8
Gravure
 62
   7
 39
0.400
  6
CONTINUOUS
 10
111.80102
 20
36.43172
 30
 0
 40
0.97438
 50
18.46236
 51
90.02987
  0
ARC
  8
Gravure
 62
   7
 39
0.400
  6
CONTINUOUS
 10
110.60382
 20
36.01899
 30
 0
 40
2.24070
 50
-18.77830
 51
18.77830
  0
ARC
  8
Gravure
 62
   7
 39
0.400
  6
CONTINUOUS
 10
111.77536
 20
35.58777
 30
 0
 40
0.99319
 50
271.45108
 51
343.01859
  0
LINE
  8
Gravure
 62
   7
 39
0.400
  6
CONTINUOUS
 10
111.80051
 20
34.59490
 30
 0
 11
111.06072
 21
34.59490
  0
LINE
  8
Gravure
 62
   7
 39
0.400
  6
CONTINUOUS
 10
111.06072
 20
34.59490
 30
 0
 11
111.06072
 21
37.40610
  0
LINE
  8
Gravure
 62
   7
 39
0.400
  6
CONTINUOUS
 10
117.16406
 20
36.88825
 30
 0
 11
117.01610
 21
36.88825
  0
LINE
  8
Gravure
 62
   7
 39
0.400
  6
CONTINUOUS
 10
117.01610
 20
36.88825
 30
 0
 11
116.83116
 21
37.18417
  0
ARC
  8
Gravure
 62
   7
 39
0.400
  6
CONTINUOUS
 10
115.93683
 20
36.38694
 30
 0
 40
1.19808
 50
41.71467
 51
142.86655
  0
ARC
  8
Gravure
 62
   7
 39
0.400
  6
CONTINUOUS
 10
116.67001
 20
36.00050
 30
 0
 40
2.02036
 50
146.68431
 51
213.31569
  0
ARC
  8
Gravure
 62
   7
 39
0.400
  6
CONTINUOUS
 10
115.93860
 20
35.57052
 30
 0
 40
1.17376
 50
215.38625
 51
322.36715
  0
LINE
  8
Gravure
 62
   7
 39
0.400
  6
CONTINUOUS
 10
116.86815
 20
34.85382
 30
 0
 11
117.12707
 21
35.29770
  0
LINE
  8
Gravure
 62
   7
 39
0.400
  6
CONTINUOUS
 10
117.12707
 20
35.29770
 30
 0
 11
117.27503
 21
35.29770
  0
ARC
  8
Gravure
 62
   7
 39
0.400
  6
CONTINUOUS
 10
115.55564
 20
35.97157
 30
 0
 40
1.84673
 50
324.18070
 51
338.59838
  0
ARC
  8
Gravure
 62
   7
 39
0.400
  6
CONTINUOUS
 10
115.94341
 20
35.59164
 30
 0
 40
1.31246
 50
212.27455
 51
327.72545
  0
ARC
  8
Gravure
 62
   7
 39
0.400
  6
CONTINUOUS
 10
116.32797
 20
36.00050
 30
 0
 40
1.86123
 50
143.40100
 51
216.59900
  0
ARC
  8
Gravure
 62
   7
 39
0.400
  6
CONTINUOUS
 10
115.94341
 20
36.40936
 30
 0
 40
1.31246
 50
32.27455
 51
147.72545
  0
ARC
  8
Gravure
 62
   7
 39
0.400
  6
CONTINUOUS
 10
115.95447
 20
36.07963
 30
 0
 40
1.50632
 50
34.15066
 51
43.16896
  0
LINE
  8
Gravure
 62
   7
 39
0.400
  6
CONTINUOUS
 10
117.20105
 20
36.92524
 30
 0
 11
117.45998
 21
36.77728
  0
LINE
  8
Gravure
 62
   7
 39
0.400
  6
CONTINUOUS
 10
117.45998
 20
36.77728
 30
 0
 11
116.94213
 21
36.77728
  0
ARC
  8
Gravure
 62
   7
 39
0.400
  6
CONTINUOUS
 10
115.94341
 20
36.41466
 30
 0
 40
1.06251
 50
19.95543
 51
160.04457
  0
ARC
  8
Gravure
 62
   7
 39
0.400
  6
CONTINUOUS
 10
117.11948
 20
36.00050
 30
 0
 40
2.30935
 50
160.34455
 51
199.65545
  0
ARC
  8
Gravure
 62
   7
 39
0.400
  6
CONTINUOUS
 10
115.94341
 20
35.58634
 30
 0
 40
1.06251
 50
199.95543
 51
340.04457
  0
ARC
  8
Gravure
 62
   7
 39
0.400
  6
CONTINUOUS
 10
114.61236
 20
35.88476
 30
 0
 40
2.42173
 50
344.15931
 51
347.76820
  0
LINE
  8
Gravure
 62
   7
 39
0.400
  6
CONTINUOUS
 10
116.97911
 20
35.37168
 30
 0
 11
117.49697
 21
35.37168
  0
ARC
  8
Gravure
 62
   7
 39
0.400
  6
CONTINUOUS
 10
115.48159
 20
36.00947
 30
 0
 40
2.11389
 50
324.43057
 51
342.43933
  0
ARC
  8
Gravure
 62
   7
 39
0.400
  6
CONTINUOUS
 10
115.94341
 20
35.71078
 30
 0
 40
1.56471
 50
216.50955
 51
323.49045
  0
ARC
  8
Gravure
 62
   7
 39
0.400
  6
CONTINUOUS
 10
116.32944
 20
36.00050
 30
 0
 40
2.04736
 50
143.40100
 51
216.59900
  0
ARC
  8
Gravure
 62
   7
 39
0.400
  6
CONTINUOUS
 10
115.94341
 20
36.29022
 30
 0
 40
1.56471
 50
36.50955
 51
143.49045
  0
ARC
  8
Gravure
 62
   7
 39
0.400
  6
CONTINUOUS
 10
115.57588
 20
35.97568
 30
 0
 40
2.04754
 50
23.04760
 51
37.46528
  0
LINE
  8
Gravure
 62
   7
 39
0.400
  6
CONTINUOUS
 10
123.51683
 20
59.59105
 30
 0
 11
125.84718
 21
59.59105
  0
LINE
  8
Gravure
 62
   7
 39
0.400
  6
CONTINUOUS
 10
125.84718
 20
59.59105
 30
 0
 11
125.84718
 21
59.40610
  0
LINE
  8
Gravure
 62
   7
 39
0.400
  6
CONTINUOUS
 10
125.84718
 20
59.40610
 30
 0
 11
123.70178
 21
56.55791
  0
LINE
  8
Gravure
 62
   7
 39
0.400
  6
CONTINUOUS
 10
123.70178
 20
56.55791
 30
 0
 11
123.70178
 21
56.44694
  0
LINE
  8
Gravure
 62
   7
 39
0.400
  6
CONTINUOUS
 10
123.70178
 20
56.44694
 30
 0
 11
126.03212
 21
56.44694
  0
LINE
  8
Gravure
 62
   7
 39
0.400
  6
CONTINUOUS
 10
126.03212
 20
56.44694
 30
 0
 11
126.03212
 21
56.33597
  0
LINE
  8
Gravure
 62
   7
 39
0.400
  6
CONTINUOUS
 10
126.03212
 20
56.33597
 30
 0
 11
123.51683
 21
56.33597
  0
LINE
  8
Gravure
 62
   7
 39
0.400
  6
CONTINUOUS
 10
123.51683
 20
56.33597
 30
 0
 11
123.51683
 21
56.55791
  0
LINE
  8
Gravure
 62
   7
 39
0.400
  6
CONTINUOUS
 10
123.51683
 20
56.55791
 30
 0
 11
125.66223
 21
59.44309
  0
LINE
  8
Gravure
 62
   7
 39
0.400
  6
CONTINUOUS
 10
125.66223
 20
59.44309
 30
 0
 11
125.95815
 21
59.70202
  0
LINE
  8
Gravure
 62
   7
 39
0.400
  6
CONTINUOUS
 10
125.95815
 20
59.70202
 30
 0
 11
125.44029
 21
59.40610
  0
LINE
  8
Gravure
 62
   7
 39
0.400
  6
CONTINUOUS
 10
125.44029
 20
59.40610
 30
 0
 11
123.36888
 21
56.63189
  0
LINE
  8
Gravure
 62
   7
 39
0.400
  6
CONTINUOUS
 10
123.36888
 20
56.63189
 30
 0
 11
123.36888
 21
56.22500
  0
LINE
  8
Gravure
 62
   7
 39
0.400
  6
CONTINUOUS
 10
123.36888
 20
56.22500
 30
 0
 11
126.14309
 21
56.22500
  0
LINE
  8
Gravure
 62
   7
 39
0.400
  6
CONTINUOUS
 10
126.14309
 20
56.22500
 30
 0
 11
126.14309
 21
56.59490
  0
LINE
  8
Gravure
 62
   7
 39
0.400
  6
CONTINUOUS
 10
126.14309
 20
56.59490
 30
 0
 11
123.96071
 21
56.59490
  0
LINE
  8
Gravure
 62
   7
 39
0.400
  6
CONTINUOUS
 10
123.96071
 20
56.59490
 30
 0
 11
123.81275
 21
56.52092
  0
LINE
  8
Gravure
 62
   7
 39
0.400
  6
CONTINUOUS
 10
123.81275
 20
56.52092
 30
 0
 11
123.96071
 21
56.59490
  0
LINE
  8
Gravure
 62
   7
 39
0.400
  6
CONTINUOUS
 10
123.96071
 20
56.59490
 30
 0
 11
126.03212
 21
59.33212
  0
LINE
  8
Gravure
 62
   7
 39
0.400
  6
CONTINUOUS
 10
126.03212
 20
59.33212
 30
 0
 11
126.03212
 21
59.77600
  0
LINE
  8
Gravure
 62
   7
 39
0.400
  6
CONTINUOUS
 10
126.03212
 20
59.77600
 30
 0
 11
123.44285
 21
59.77600
  0
LINE
  8
Gravure
 62
   7
 39
0.400
  6
CONTINUOUS
 10
123.44285
 20
59.77600
 30
 0
 11
123.44285
 21
59.40610
  0
LINE
  8
Gravure
 62
   7
 39
0.400
  6
CONTINUOUS
 10
123.44285
 20
59.40610
 30
 0
 11
125.44029
 21
59.40610
  0
LINE
  8
Gravure
 62
   7
 39
0.400
  6
CONTINUOUS
 10
127.54874
 20
58.22244
 30
 0
 11
127.77068
 21
59.51707
  0
LINE
  8
Gravure
 62
   7
 39
0.400
  6
CONTINUOUS
 10
127.77068
 20
59.51707
 30
 0
 11
129.47220
 21
59.51707
  0
LINE
  8
Gravure
 62
   7
 39
0.400
  6
CONTINUOUS
 10
129.47220
 20
59.51707
 30
 0
 11
129.47220
 21
59.66503
  0
LINE
  8
Gravure
 62
   7
 39
0.400
  6
CONTINUOUS
 10
129.47220
 20
59.66503
 30
 0
 11
127.62272
 21
59.66503
  0
LINE
  8
Gravure
 62
   7
 39
0.400
  6
CONTINUOUS
 10
127.62272
 20
59.66503
 30
 0
 11
127.36379
 21
58.03749
  0
LINE
  8
Gravure
 62
   7
 39
0.400
  6
CONTINUOUS
 10
127.36379
 20
58.03749
 30
 0
 11
127.65971
 21
58.03749
  0
ARC
  8
Gravure
 62
   7
 39
0.400
  6
CONTINUOUS
 10
128.51919
 20
57.40310
 30
 0
 40
1.06825
 50
-22.06631
 51
143.56866
  0
ARC
  8
Gravure
 62
   7
 39
0.400
  6
CONTINUOUS
 10
128.46682
 20
57.42015
 30
 0
 40
1.12319
 50
266.56369
 51
338.13120
  0
ARC
  8
Gravure
 62
   7
 39
0.400
  6
CONTINUOUS
 10
128.47303
 20
57.72228
 30
 0
 40
1.42520
 50
213.87961
 51
267.04282
  0
LINE
  8
Gravure
 62
   7
 39
0.400
  6
CONTINUOUS
 10
127.28981
 20
56.92780
 30
 0
 11
127.51175
 21
56.92780
  0
ARC
  8
Gravure
 62
   7
 39
0.400
  6
CONTINUOUS
 10
128.38471
 20
57.44842
 30
 0
 40
1.01641
 50
210.81112
 51
355.66992
  0
ARC
  8
Gravure
 62
   7
 39
0.400
  6
CONTINUOUS
 10
128.47739
 20
57.43691
 30
 0
 40
0.92314
 50
355.94773
 51
471.39862
  0
ARC
  8
Gravure
 62
   7
 39
0.400
  6
CONTINUOUS
 10
128.38839
 20
57.67870
 30
 0
 40
0.66557
 50
111.86006
 51
158.13994
  0
ARC
  8
Gravure
 62
   7
 39
0.400
  6
CONTINUOUS
 10
128.41435
 20
57.39033
 30
 0
 40
0.83774
 50
3.78685
 51
140.20483
  0
ARC
  8
Gravure
 62
   7
 39
0.400
  6
CONTINUOUS
 10
128.40639
 20
57.39316
 30
 0
 40
0.84551
 50
-157.95099
 51
3.55953
  0
LINE
  8
Gravure
 62
   7
 39
0.400
  6
CONTINUOUS
 10
127.62272
 20
57.07576
 30
 0
 11
127.06788
 21
57.07576
  0
ARC
  8
Gravure
 62
   7
 39
0.400
  6
CONTINUOUS
 10
128.26413
 20
57.53920
 30
 0
 40
1.28289
 50
201.17661
 51
229.89875
  0
ARC
  8
Gravure
 62
   7
 39
0.400
  6
CONTINUOUS
 10
128.43649
 20
57.65950
 30
 0
 40
1.48692
 50
227.80410
 51
312.19590
  0
ARC
  8
Gravure
 62
   7
 39
0.400
  6
CONTINUOUS
 10
128.61565
 20
57.40867
 30
 0
 40
1.18130
 50
313.92991
 51
406.07009
  0
ARC
  8
Gravure
 62
   7
 39
0.400
  6
CONTINUOUS
 10
128.58445
 20
57.41764
 30
 0
 40
1.19683
 50
44.69622
 51
135.30378
  0
LINE
  8
Gravure
 62
   7
 39
0.400
  6
CONTINUOUS
 10
127.73369
 20
58.25943
 30
 0
 11
127.95562
 21
59.40610
  0
LINE
  8
Gravure
 62
   7
 39
0.400
  6
CONTINUOUS
 10
127.95562
 20
59.40610
 30
 0
 11
129.62016
 21
59.40610
  0
LINE
  8
Gravure
 62
   7
 39
0.400
  6
CONTINUOUS
 10
129.62016
 20
59.40610
 30
 0
 11
129.62016
 21
59.77600
  0
LINE
  8
Gravure
 62
   7
 39
0.400
  6
CONTINUOUS
 10
129.62016
 20
59.77600
 30
 0
 11
127.51175
 21
59.77600
  0
LINE
  8
Gravure
 62
   7
 39
0.400
  6
CONTINUOUS
 10
127.51175
 20
59.77600
 30
 0
 11
127.17884
 21
57.92652
  0
LINE
  8
Gravure
 62
   7
 39
0.400
  6
CONTINUOUS
 10
127.17884
 20
57.92652
 30
 0
 11
127.77068
 21
57.92652
  0
ARC
  8
Gravure
 62
   7
 39
0.400
  6
CONTINUOUS
 10
133.38708
 20
58.00050
 30
 0
 40
2.32822
 50
152.56531
 51
207.43469
  0
ARC
  8
Gravure
 62
   7
 39
0.400
  6
CONTINUOUS
 10
132.17146
 20
57.40999
 30
 0
 40
0.97790
 50
209.54324
 51
330.45676
  0
ARC
  8
Gravure
 62
   7
 39
0.400
  6
CONTINUOUS
 10
130.95584
 20
58.00050
 30
 0
 40
2.32822
 50
332.56531
 51
387.43469
  0
ARC
  8
Gravure
 62
   7
 39
0.400
  6
CONTINUOUS
 10
132.17146
 20
58.61692
 30
 0
 40
0.96539
 50
28.20527
 51
151.79473
  0
LINE
  8
Gravure
 62
   7
 39
0.400
  6
CONTINUOUS
 10
131.32070
 20
59.07320
 30
 0
 11
131.39468
 21
58.92524
  0
ARC
  8
Gravure
 62
   7
 39
0.400
  6
CONTINUOUS
 10
133.65250
 20
58.00050
 30
 0
 40
2.43986
 50
157.72738
 51
202.27262
  0
ARC
  8
Gravure
 62
   7
 39
0.400
  6
CONTINUOUS
 10
132.17146
 20
57.39612
 30
 0
 40
0.84025
 50
202.41190
 51
337.58810
  0
ARC
  8
Gravure
 62
   7
 39
0.400
  6
CONTINUOUS
 10
130.69042
 20
58.00050
 30
 0
 40
2.43986
 50
337.72738
 51
382.27262
  0
ARC
  8
Gravure
 62
   7
 39
0.400
  6
CONTINUOUS
 10
132.17146
 20
58.60488
 30
 0
 40
0.84025
 50
22.41190
 51
157.58810
  0
LINE
  8
Gravure
 62
   7
 39
0.400
  6
CONTINUOUS
 10
131.39468
 20
58.92524
 30
 0
 11
131.13575
 21
58.99922
  0
ARC
  8
Gravure
 62
   7
 39
0.400
  6
CONTINUOUS
 10
132.17146
 20
58.54528
 30
 0
 40
1.13082
 50
23.66729
 51
156.33271
  0
ARC
  8
Gravure
 62
   7
 39
0.400
  6
CONTINUOUS
 10
131.28329
 20
58.00050
 30
 0
 40
2.16765
 50
-27.43469
 51
27.43469
  0
ARC
  8
Gravure
 62
   7
 39
0.400
  6
CONTINUOUS
 10
132.17146
 20
57.44221
 30
 0
 40
1.12546
 50
203.03732
 51
336.96268
  0
ARC
  8
Gravure
 62
   7
 39
0.400
  6
CONTINUOUS
 10
133.05962
 20
58.00050
 30
 0
 40
2.16765
 50
152.56531
 51
207.43469
  0
LINE
  8
Gravure
 62
   7
 39
0.400
  6
CONTINUOUS
 10
131.13575
 20
58.99922
 30
 0
 11
131.17274
 21
59.33212
  0
ARC
  8
Gravure
 62
   7
 39
0.400
  6
CONTINUOUS
 10
132.17146
 20
58.53232
 30
 0
 40
1.27950
 50
38.68866
 51
141.31134
  0
ARC
  8
Gravure
 62
   7
 39
0.400
  6
CONTINUOUS
 10
131.47908
 20
58.00050
 30
 0
 40
2.15245
 50
-38.21797
 51
38.21797
  0
ARC
  8
Gravure
 62
   7
 39
0.400
  6
CONTINUOUS
 10
132.17146
 20
57.46868
 30
 0
 40
1.27950
 50
218.68866
 51
321.31134
  0
ARC
  8
Gravure
 62
   7
 39
0.400
  6
CONTINUOUS
 10
132.86384
 20
58.00050
 30
 0
 40
2.15245
 50
141.78203
 51
218.21797
  0
LINE
  8
Gravure
 62
   7
 39
0.400
  6
CONTINUOUS
 10
124.58383
 20
37.59105
 30
 0
 11
126.91418
 21
37.59105
  0
LINE
  8
Gravure
 62
   7
 39
0.400
  6
CONTINUOUS
 10
126.91418
 20
37.59105
 30
 0
 11
126.91418
 21
37.40610
  0
LINE
  8
Gravure
 62
   7
 39
0.400
  6
CONTINUOUS
 10
126.91418
 20
37.40610
 30
 0
 11
124.76878
 21
34.55791
  0
LINE
  8
Gravure
 62
   7
 39
0.400
  6
CONTINUOUS
 10
124.76878
 20
34.55791
 30
 0
 11
124.76878
 21
34.44694
  0
LINE
  8
Gravure
 62
   7
 39
0.400
  6
CONTINUOUS
 10
124.76878
 20
34.44694
 30
 0
 11
127.09913
 21
34.44694
  0
LINE
  8
Gravure
 62
   7
 39
0.400
  6
CONTINUOUS
 10
127.09913
 20
34.44694
 30
 0
 11
127.09913
 21
34.33597
  0
LINE
  8
Gravure
 62
   7
 39
0.400
  6
CONTINUOUS
 10
127.09913
 20
34.33597
 30
 0
 11
124.58383
 21
34.33597
  0
LINE
  8
Gravure
 62
   7
 39
0.400
  6
CONTINUOUS
 10
124.58383
 20
34.33597
 30
 0
 11
124.58383
 21
34.55791
  0
LINE
  8
Gravure
 62
   7
 39
0.400
  6
CONTINUOUS
 10
124.58383
 20
34.55791
 30
 0
 11
126.72923
 21
37.44309
  0
LINE
  8
Gravure
 62
   7
 39
0.400
  6
CONTINUOUS
 10
126.72923
 20
37.44309
 30
 0
 11
127.02515
 21
37.70202
  0
LINE
  8
Gravure
 62
   7
 39
0.400
  6
CONTINUOUS
 10
127.02515
 20
37.70202
 30
 0
 11
126.50729
 21
37.40610
  0
LINE
  8
Gravure
 62
   7
 39
0.400
  6
CONTINUOUS
 10
126.50729
 20
37.40610
 30
 0
 11
124.43587
 21
34.63189
  0
LINE
  8
Gravure
 62
   7
 39
0.400
  6
CONTINUOUS
 10
124.43587
 20
34.63189
 30
 0
 11
124.43587
 21
34.22500
  0
LINE
  8
Gravure
 62
   7
 39
0.400
  6
CONTINUOUS
 10
124.43587
 20
34.22500
 30
 0
 11
127.21009
 21
34.22500
  0
LINE
  8
Gravure
 62
   7
 39
0.400
  6
CONTINUOUS
 10
127.21009
 20
34.22500
 30
 0
 11
127.21009
 21
34.59490
  0
LINE
  8
Gravure
 62
   7
 39
0.400
  6
CONTINUOUS
 10
127.21009
 20
34.59490
 30
 0
 11
125.02771
 21
34.59490
  0
LINE
  8
Gravure
 62
   7
 39
0.400
  6
CONTINUOUS
 10
125.02771
 20
34.59490
 30
 0
 11
124.87975
 21
34.52092
  0
LINE
  8
Gravure
 62
   7
 39
0.400
  6
CONTINUOUS
 10
124.87975
 20
34.52092
 30
 0
 11
125.02771
 21
34.59490
  0
LINE
  8
Gravure
 62
   7
 39
0.400
  6
CONTINUOUS
 10
125.02771
 20
34.59490
 30
 0
 11
127.09913
 21
37.33212
  0
LINE
  8
Gravure
 62
   7
 39
0.400
  6
CONTINUOUS
 10
127.09913
 20
37.33212
 30
 0
 11
127.09913
 21
37.77600
  0
LINE
  8
Gravure
 62
   7
 39
0.400
  6
CONTINUOUS
 10
127.09913
 20
37.77600
 30
 0
 11
124.50985
 21
37.77600
  0
LINE
  8
Gravure
 62
   7
 39
0.400
  6
CONTINUOUS
 10
124.50985
 20
37.77600
 30
 0
 11
124.50985
 21
37.40610
  0
LINE
  8
Gravure
 62
   7
 39
0.400
  6
CONTINUOUS
 10
124.50985
 20
37.40610
 30
 0
 11
126.50729
 21
37.40610
  0
LINE
  8
Gravure
 62
   7
 39
0.400
  6
CONTINUOUS
 10
128.83768
 20
36.66631
 30
 0
 11
128.28283
 21
36.11147
  0
LINE
  8
Gravure
 62
   7
 39
0.400
  6
CONTINUOUS
 10
128.28283
 20
36.11147
 30
 0
 11
128.28283
 21
35.88953
  0
LINE
  8
Gravure
 62
   7
 39
0.400
  6
CONTINUOUS
 10
128.28283
 20
35.88953
 30
 0
 11
128.83768
 21
35.33469
  0
LINE
  8
Gravure
 62
   7
 39
0.400
  6
CONTINUOUS
 10
128.83768
 20
35.33469
 30
 0
 11
128.91166
 21
35.07576
  0
LINE
  8
Gravure
 62
   7
 39
0.400
  6
CONTINUOUS
 10
128.91166
 20
35.07576
 30
 0
 11
128.91166
 21
35.44566
  0
LINE
  8
Gravure
 62
   7
 39
0.400
  6
CONTINUOUS
 10
128.91166
 20
35.44566
 30
 0
 11
128.35681
 21
36.00050
  0
LINE
  8
Gravure
 62
   7
 39
0.400
  6
CONTINUOUS
 10
128.35681
 20
36.00050
 30
 0
 11
128.91166
 21
36.55534
  0
LINE
  8
Gravure
 62
   7
 39
0.400
  6
CONTINUOUS
 10
128.91166
 20
36.55534
 30
 0
 11
128.91166
 21
36.92524
  0
LINE
  8
Gravure
 62
   7
 39
0.400
  6
CONTINUOUS
 10
128.91166
 20
36.92524
 30
 0
 11
128.17186
 21
36.18545
  0
LINE
  8
Gravure
 62
   7
 39
0.400
  6
CONTINUOUS
 10
128.17186
 20
36.18545
 30
 0
 11
128.17186
 21
35.81555
  0
LINE
  8
Gravure
 62
   7
 39
0.400
  6
CONTINUOUS
 10
128.17186
 20
35.81555
 30
 0
 11
128.91166
 21
35.07576
  0
LINE
  8
Gravure
 62
   7
 39
0.400
  6
CONTINUOUS
 10
130.31674
 20
36.22244
 30
 0
 11
130.53868
 21
37.51707
  0
LINE
  8
Gravure
 62
   7
 39
0.400
  6
CONTINUOUS
 10
130.53868
 20
37.51707
 30
 0
 11
132.24020
 21
37.51707
  0
LINE
  8
Gravure
 62
   7
 39
0.400
  6
CONTINUOUS
 10
132.24020
 20
37.51707
 30
 0
 11
132.24020
 21
37.66503
  0
LINE
  8
Gravure
 62
   7
 39
0.400
  6
CONTINUOUS
 10
132.24020
 20
37.66503
 30
 0
 11
130.39072
 21
37.66503
  0
LINE
  8
Gravure
 62
   7
 39
0.400
  6
CONTINUOUS
 10
130.39072
 20
37.66503
 30
 0
 11
130.13179
 21
36.03749
  0
LINE
  8
Gravure
 62
   7
 39
0.400
  6
CONTINUOUS
 10
130.13179
 20
36.03749
 30
 0
 11
130.42771
 21
36.03749
  0
ARC
  8
Gravure
 62
   7
 39
0.400
  6
CONTINUOUS
 10
131.28719
 20
35.40310
 30
 0
 40
1.06825
 50
-22.06631
 51
143.56866
  0
ARC
  8
Gravure
 62
   7
 39
0.400
  6
CONTINUOUS
 10
131.23482
 20
35.42015
 30
 0
 40
1.12319
 50
266.56369
 51
338.13120
  0
ARC
  8
Gravure
 62
   7
 39
0.400
  6
CONTINUOUS
 10
131.24103
 20
35.72228
 30
 0
 40
1.42520
 50
213.87961
 51
267.04282
  0
LINE
  8
Gravure
 62
   7
 39
0.400
  6
CONTINUOUS
 10
130.05781
 20
34.92780
 30
 0
 11
130.27975
 21
34.92780
  0
ARC
  8
Gravure
 62
   7
 39
0.400
  6
CONTINUOUS
 10
131.15271
 20
35.44842
 30
 0
 40
1.01641
 50
210.81112
 51
355.66992
  0
ARC
  8
Gravure
 62
   7
 39
0.400
  6
CONTINUOUS
 10
131.24539
 20
35.43691
 30
 0
 40
0.92314
 50
355.94773
 51
471.39862
  0
ARC
  8
Gravure
 62
   7
 39
0.400
  6
CONTINUOUS
 10
131.15639
 20
35.67870
 30
 0
 40
0.66557
 50
111.86006
 51
158.13994
  0
ARC
  8
Gravure
 62
   7
 39
0.400
  6
CONTINUOUS
 10
131.18235
 20
35.39033
 30
 0
 40
0.83774
 50
3.78685
 51
140.20483
  0
ARC
  8
Gravure
 62
   7
 39
0.400
  6
CONTINUOUS
 10
131.17439
 20
35.39316
 30
 0
 40
0.84551
 50
-157.95099
 51
3.55953
  0
LINE
  8
Gravure
 62
   7
 39
0.400
  6
CONTINUOUS
 10
130.39072
 20
35.07576
 30
 0
 11
129.83587
 21
35.07576
  0
ARC
  8
Gravure
 62
   7
 39
0.400
  6
CONTINUOUS
 10
131.03213
 20
35.53920
 30
 0
 40
1.28289
 50
201.17661
 51
229.89875
  0
ARC
  8
Gravure
 62
   7
 39
0.400
  6
CONTINUOUS
 10
131.20449
 20
35.65950
 30
 0
 40
1.48692
 50
227.80410
 51
312.19590
  0
ARC
  8
Gravure
 62
   7
 39
0.400
  6
CONTINUOUS
 10
131.38365
 20
35.40867
 30
 0
 40
1.18130
 50
313.92991
 51
406.07009
  0
ARC
  8
Gravure
 62
   7
 39
0.400
  6
CONTINUOUS
 10
131.35245
 20
35.41764
 30
 0
 40
1.19683
 50
44.69622
 51
135.30378
  0
LINE
  8
Gravure
 62
   7
 39
0.400
  6
CONTINUOUS
 10
130.50169
 20
36.25943
 30
 0
 11
130.72362
 21
37.40610
  0
LINE
  8
Gravure
 62
   7
 39
0.400
  6
CONTINUOUS
 10
130.72362
 20
37.40610
 30
 0
 11
132.38816
 21
37.40610
  0
LINE
  8
Gravure
 62
   7
 39
0.400
  6
CONTINUOUS
 10
132.38816
 20
37.40610
 30
 0
 11
132.38816
 21
37.77600
  0
LINE
  8
Gravure
 62
   7
 39
0.400
  6
CONTINUOUS
 10
132.38816
 20
37.77600
 30
 0
 11
130.27975
 21
37.77600
  0
LINE
  8
Gravure
 62
   7
 39
0.400
  6
CONTINUOUS
 10
130.27975
 20
37.77600
 30
 0
 11
129.94684
 21
35.92652
  0
LINE
  8
Gravure
 62
   7
 39
0.400
  6
CONTINUOUS
 10
129.94684
 20
35.92652
 30
 0
 11
130.53868
 21
35.92652
  0
ARC
  8
Gravure
 62
   7
 39
0.400
  6
CONTINUOUS
 10
118.26340
 20
7.37102
 30
 0
 40
1.33333
 50
33.66786
 51
146.33214
  0
ARC
  8
Gravure
 62
   7
 39
0.400
  6
CONTINUOUS
 10
117.87883
 20
7.00050
 30
 0
 40
1.86123
 50
-36.59900
 51
36.59900
  0
ARC
  8
Gravure
 62
   7
 39
0.400
  6
CONTINUOUS
 10
118.26340
 20
6.61060
 30
 0
 40
1.32268
 50
212.96891
 51
327.03109
  0
ARC
  8
Gravure
 62
   7
 39
0.400
  6
CONTINUOUS
 10
118.64796
 20
7.00050
 30
 0
 40
1.86123
 50
143.40100
 51
216.59900
  0
LINE
  8
Gravure
 62
   7
 39
0.400
  6
CONTINUOUS
 10
117.15371
 20
8.11019
 30
 0
 11
117.30167
 21
8.11019
  0
ARC
  8
Gravure
 62
   7
 39
0.400
  6
CONTINUOUS
 10
118.99000
 20
7.00050
 30
 0
 40
2.02036
 50
146.68431
 51
213.31569
  0
ARC
  8
Gravure
 62
   7
 39
0.400
  6
CONTINUOUS
 10
118.26340
 20
6.62164
 30
 0
 40
1.20790
 50
217.23138
 51
322.76862
  0
ARC
  8
Gravure
 62
   7
 39
0.400
  6
CONTINUOUS
 10
117.53680
 20
7.00050
 30
 0
 40
2.02036
 50
326.68431
 51
393.31569
  0
ARC
  8
Gravure
 62
   7
 39
0.400
  6
CONTINUOUS
 10
118.26340
 20
7.39830
 30
 0
 40
1.19654
 50
36.50955
 51
143.49045
  0
LINE
  8
Gravure
 62
   7
 39
0.400
  6
CONTINUOUS
 10
117.30167
 20
8.11019
 30
 0
 11
117.26468
 21
7.77728
  0
ARC
  8
Gravure
 62
   7
 39
0.400
  6
CONTINUOUS
 10
119.43947
 20
7.00050
 30
 0
 40
2.30935
 50
160.34455
 51
199.65545
  0
ARC
  8
Gravure
 62
   7
 39
0.400
  6
CONTINUOUS
 10
118.26340
 20
6.58634
 30
 0
 40
1.06251
 50
199.95543
 51
340.04457
  0
ARC
  8
Gravure
 62
   7
 39
0.400
  6
CONTINUOUS
 10
117.08732
 20
7.00050
 30
 0
 40
2.30935
 50
340.34455
 51
379.65545
  0
ARC
  8
Gravure
 62
   7
 39
0.400
  6
CONTINUOUS
 10
118.26340
 20
7.41466
 30
 0
 40
1.06251
 50
19.95543
 51
160.04457
  0
LINE
  8
Gravure
 62
   7
 39
0.400
  6
CONTINUOUS
 10
117.26468
 20
7.77728
 30
 0
 11
117.00575
 21
8.22116
  0
ARC
  8
Gravure
 62
   7
 39
0.400
  6
CONTINUOUS
 10
118.64943
 20
7.00050
 30
 0
 40
2.04736
 50
143.40100
 51
216.59900
  0
ARC
  8
Gravure
 62
   7
 39
0.400
  6
CONTINUOUS
 10
118.26340
 20
6.71078
 30
 0
 40
1.56471
 50
216.50955
 51
323.49045
  0
ARC
  8
Gravure
 62
   7
 39
0.400
  6
CONTINUOUS
 10
117.87737
 20
7.00050
 30
 0
 40
2.04736
 50
323.40100
 51
396.59900
  0
ARC
  8
Gravure
 62
   7
 39
0.400
  6
CONTINUOUS
 10
118.26340
 20
7.29022
 30
 0
 40
1.56471
 50
36.50955
 51
143.49045
  0
LINE
  8
Gravure
 62
   7
 39
0.400
  6
CONTINUOUS
 10
121.25976
 20
8.66503
 30
 0
 11
121.07481
 21
8.66503
  0
LINE
  8
Gravure
 62
   7
 39
0.400
  6
CONTINUOUS
 10
121.07481
 20
8.66503
 30
 0
 11
121.07481
 21
6.26071
  0
ARC
  8
Gravure
 62
   7
 39
0.400
  6
CONTINUOUS
 10
121.90115
 20
6.26553
 30
 0
 40
0.82635
 50
180.33465
 51
230.06759
  0
ARC
  8
Gravure
 62
   7
 39
0.400
  6
CONTINUOUS
 10
122.29547
 20
6.74096
 30
 0
 40
1.44402
 50
230.17875
 51
309.82125
  0
ARC
  8
Gravure
 62
   7
 39
0.400
  6
CONTINUOUS
 10
122.68979
 20
6.26553
 30
 0
 40
0.82635
 50
309.93241
 51
359.66535
  0
LINE
  8
Gravure
 62
   7
 39
0.400
  6
CONTINUOUS
 10
123.51613
 20
6.26071
 30
 0
 11
123.51613
 21
8.66503
  0
LINE
  8
Gravure
 62
   7
 39
0.400
  6
CONTINUOUS
 10
123.51613
 20
8.66503
 30
 0
 11
123.33118
 21
8.66503
  0
LINE
  8
Gravure
 62
   7
 39
0.400
  6
CONTINUOUS
 10
123.33118
 20
8.66503
 30
 0
 11
123.33118
 21
6.26071
  0
ARC
  8
Gravure
 62
   7
 39
0.400
  6
CONTINUOUS
 10
122.58042
 20
6.25563
 30
 0
 40
0.75077
 50
-56.18196
 51
0.38742
  0
ARC
  8
Gravure
 62
   7
 39
0.400
  6
CONTINUOUS
 10
122.31396
 20
6.64101
 30
 0
 40
1.21926
 50
235.85796
 51
304.14204
  0
ARC
  8
Gravure
 62
   7
 39
0.400
  6
CONTINUOUS
 10
122.09726
 20
6.33015
 30
 0
 40
0.84038
 50
184.74004
 51
236.19105
  0
LINE
  8
Gravure
 62
   7
 39
0.400
  6
CONTINUOUS
 10
121.25976
 20
6.26071
 30
 0
 11
121.25976
 21
8.66503
  0
LINE
  8
Gravure
 62
   7
 39
0.400
  6
CONTINUOUS
 10
121.25976
 20
8.66503
 30
 0
 11
121.44471
 21
8.77600
  0
LINE
  8
Gravure
 62
   7
 39
0.400
  6
CONTINUOUS
 10
121.44471
 20
8.77600
 30
 0
 11
120.88986
 21
8.77600
  0
LINE
  8
Gravure
 62
   7
 39
0.400
  6
CONTINUOUS
 10
120.88986
 20
8.77600
 30
 0
 11
120.88986
 21
6.26071
  0
ARC
  8
Gravure
 62
   7
 39
0.400
  6
CONTINUOUS
 10
121.86795
 20
6.26627
 30
 0
 40
0.97811
 50
180.32577
 51
236.89515
  0
ARC
  8
Gravure
 62
   7
 39
0.400
  6
CONTINUOUS
 10
122.29547
 20
6.95738
 30
 0
 40
1.79063
 50
237.51424
 51
302.48576
  0
ARC
  8
Gravure
 62
   7
 39
0.400
  6
CONTINUOUS
 10
122.72298
 20
6.26627
 30
 0
 40
0.97811
 50
303.10485
 51
359.67423
  0
LINE
  8
Gravure
 62
   7
 39
0.400
  6
CONTINUOUS
 10
123.70107
 20
6.26071
 30
 0
 11
123.70107
 21
8.77600
  0
LINE
  8
Gravure
 62
   7
 39
0.400
  6
CONTINUOUS
 10
123.70107
 20
8.77600
 30
 0
 11
123.14623
 21
8.77600
  0
LINE
  8
Gravure
 62
   7
 39
0.400
  6
CONTINUOUS
 10
123.14623
 20
8.77600
 30
 0
 11
123.14623
 21
6.26071
  0
ARC
  8
Gravure
 62
   7
 39
0.400
  6
CONTINUOUS
 10
122.49929
 20
6.26052
 30
 0
 40
0.64694
 50
-53.14665
 51
0.01655
  0
ARC
  8
Gravure
 62
   7
 39
0.400
  6
CONTINUOUS
 10
122.29547
 20
6.53979
 30
 0
 40
0.99266
 50
233.40100
 51
306.59900
  0
ARC
  8
Gravure
 62
   7
 39
0.400
  6
CONTINUOUS
 10
122.09165
 20
6.26052
 30
 0
 40
0.64694
 50
179.98345
 51
233.14665
  0
LINE
  8
Gravure
 62
   7
 39
0.400
  6
CONTINUOUS
 10
121.44471
 20
6.26071
 30
 0
 11
121.44471
 21
8.77600
  0
LINE
  8
Gravure
 62
   7
 39
0.400
  6
CONTINUOUS
 10
125.99349
 20
8.51707
 30
 0
 11
124.77283
 21
8.51707
  0
LINE
  8
Gravure
 62
   7
 39
0.400
  6
CONTINUOUS
 10
124.77283
 20
8.51707
 30
 0
 11
124.77283
 21
8.66503
  0
LINE
  8
Gravure
 62
   7
 39
0.400
  6
CONTINUOUS
 10
124.77283
 20
8.66503
 30
 0
 11
127.25114
 21
8.66503
  0
LINE
  8
Gravure
 62
   7
 39
0.400
  6
CONTINUOUS
 10
127.25114
 20
8.66503
 30
 0
 11
127.25114
 21
8.51707
  0
LINE
  8
Gravure
 62
   7
 39
0.400
  6
CONTINUOUS
 10
127.25114
 20
8.51707
 30
 0
 11
126.10446
 21
8.51707
  0
LINE
  8
Gravure
 62
   7
 39
0.400
  6
CONTINUOUS
 10
126.10446
 20
8.51707
 30
 0
 11
126.10446
 21
5.29898
  0
LINE
  8
Gravure
 62
   7
 39
0.400
  6
CONTINUOUS
 10
126.10446
 20
5.29898
 30
 0
 11
125.91951
 21
5.29898
  0
LINE
  8
Gravure
 62
   7
 39
0.400
  6
CONTINUOUS
 10
125.91951
 20
5.29898
 30
 0
 11
125.91951
 21
8.51707
  0
LINE
  8
Gravure
 62
   7
 39
0.400
  6
CONTINUOUS
 10
125.91951
 20
8.51707
 30
 0
 11
125.73456
 21
8.40610
  0
LINE
  8
Gravure
 62
   7
 39
0.400
  6
CONTINUOUS
 10
125.73456
 20
8.40610
 30
 0
 11
124.62488
 21
8.40610
  0
LINE
  8
Gravure
 62
   7
 39
0.400
  6
CONTINUOUS
 10
124.62488
 20
8.40610
 30
 0
 11
124.62488
 21
8.77600
  0
LINE
  8
Gravure
 62
   7
 39
0.400
  6
CONTINUOUS
 10
124.62488
 20
8.77600
 30
 0
 11
127.39909
 21
8.77600
  0
LINE
  8
Gravure
 62
   7
 39
0.400
  6
CONTINUOUS
 10
127.39909
 20
8.77600
 30
 0
 11
127.39909
 21
8.40610
  0
LINE
  8
Gravure
 62
   7
 39
0.400
  6
CONTINUOUS
 10
127.39909
 20
8.40610
 30
 0
 11
126.28941
 21
8.40610
  0
LINE
  8
Gravure
 62
   7
 39
0.400
  6
CONTINUOUS
 10
126.28941
 20
8.40610
 30
 0
 11
126.28941
 21
5.22500
  0
LINE
  8
Gravure
 62
   7
 39
0.400
  6
CONTINUOUS
 10
126.28941
 20
5.22500
 30
 0
 11
125.73456
 21
5.22500
  0
LINE
  8
Gravure
 62
   7
 39
0.400
  6
CONTINUOUS
 10
125.73456
 20
5.22500
 30
 0
 11
125.73456
 21
8.40610
  0
LINE
  8
Gravure
 62
   7
 39
0.400
  6
CONTINUOUS
 10
148.02676
 20
8.51707
 30
 0
 11
148.02676
 21
5.40995
  0
LINE
  8
Gravure
 62
   7
 39
0.400
  6
CONTINUOUS
 10
148.02676
 20
5.40995
 30
 0
 11
147.84181
 21
5.40995
  0
LINE
  8
Gravure
 62
   7
 39
0.400
  6
CONTINUOUS
 10
147.84181
 20
5.40995
 30
 0
 11
147.84181
 21
8.62804
  0
LINE
  8
Gravure
 62
   7
 39
0.400
  6
CONTINUOUS
 10
147.84181
 20
8.62804
 30
 0
 11
149.21043
 21
8.62804
  0
ARC
  8
Gravure
 62
   7
 39
0.400
  6
CONTINUOUS
 10
149.16386
 20
7.66631
 30
 0
 40
0.96286
 50
-87.22816
 51
87.22816
  0
LINE
  8
Gravure
 62
   7
 39
0.400
  6
CONTINUOUS
 10
149.21043
 20
6.70458
 30
 0
 11
148.02676
 21
6.70458
  0
LINE
  8
Gravure
 62
   7
 39
0.400
  6
CONTINUOUS
 10
148.02676
 20
6.70458
 30
 0
 11
148.21171
 21
6.92652
  0
LINE
  8
Gravure
 62
   7
 39
0.400
  6
CONTINUOUS
 10
148.21171
 20
6.92652
 30
 0
 11
149.02548
 21
6.92652
  0
ARC
  8
Gravure
 62
   7
 39
0.400
  6
CONTINUOUS
 10
149.02548
 20
7.66631
 30
 0
 40
0.73979
 50
270.00000
 51
450.00000
  0
LINE
  8
Gravure
 62
   7
 39
0.400
  6
CONTINUOUS
 10
149.02548
 20
8.40610
 30
 0
 11
148.21171
 21
8.40610
  0
LINE
  8
Gravure
 62
   7
 39
0.400
  6
CONTINUOUS
 10
148.21171
 20
8.40610
 30
 0
 11
148.21171
 21
6.92652
  0
LINE
  8
Gravure
 62
   7
 39
0.400
  6
CONTINUOUS
 10
148.21171
 20
6.92652
 30
 0
 11
148.21171
 21
6.81555
  0
LINE
  8
Gravure
 62
   7
 39
0.400
  6
CONTINUOUS
 10
148.21171
 20
6.81555
 30
 0
 11
149.24742
 21
6.81555
  0
ARC
  8
Gravure
 62
   7
 39
0.400
  6
CONTINUOUS
 10
149.09552
 20
7.66132
 30
 0
 40
0.85930
 50
280.18161
 51
444.79749
  0
LINE
  8
Gravure
 62
   7
 39
0.400
  6
CONTINUOUS
 10
149.17344
 20
8.51707
 30
 0
 11
148.02676
 21
8.51707
  0
LINE
  8
Gravure
 62
   7
 39
0.400
  6
CONTINUOUS
 10
148.02676
 20
8.51707
 30
 0
 11
147.65686
 21
8.77600
  0
LINE
  8
Gravure
 62
   7
 39
0.400
  6
CONTINUOUS
 10
147.65686
 20
8.77600
 30
 0
 11
149.21043
 21
8.77600
  0
ARC
  8
Gravure
 62
   7
 39
0.400
  6
CONTINUOUS
 10
149.21043
 20
7.66631
 30
 0
 40
1.10969
 50
-90.00000
 51
90.00000
  0
LINE
  8
Gravure
 62
   7
 39
0.400
  6
CONTINUOUS
 10
149.21043
 20
6.55663
 30
 0
 11
148.21171
 21
6.55663
  0
LINE
  8
Gravure
 62
   7
 39
0.400
  6
CONTINUOUS
 10
148.21171
 20
6.55663
 30
 0
 11
148.21171
 21
5.22500
  0
LINE
  8
Gravure
 62
   7
 39
0.400
  6
CONTINUOUS
 10
148.21171
 20
5.22500
 30
 0
 11
147.65686
 21
5.22500
  0
LINE
  8
Gravure
 62
   7
 39
0.400
  6
CONTINUOUS
 10
147.65686
 20
5.22500
 30
 0
 11
147.65686
 21
8.77600
  0
LINE
  8
Gravure
 62
   7
 39
0.400
  6
CONTINUOUS
 10
151.61477
 20
7.63032
 30
 0
 11
151.61477
 21
5.29998
  0
LINE
  8
Gravure
 62
   7
 39
0.400
  6
CONTINUOUS
 10
151.61477
 20
5.29998
 30
 0
 11
151.42982
 21
5.29998
  0
LINE
  8
Gravure
 62
   7
 39
0.400
  6
CONTINUOUS
 10
151.42982
 20
5.29998
 30
 0
 11
151.42982
 21
7.63032
  0
LINE
  8
Gravure
 62
   7
 39
0.400
  6
CONTINUOUS
 10
151.42982
 20
7.63032
 30
 0
 11
151.61477
 21
7.63032
  0
LINE
  8
Gravure
 62
   7
 39
0.400
  6
CONTINUOUS
 10
151.61477
 20
7.63032
 30
 0
 11
151.61477
 21
6.63160
  0
LINE
  8
Gravure
 62
   7
 39
0.400
  6
CONTINUOUS
 10
151.61477
 20
6.63160
 30
 0
 11
151.83671
 21
7.14946
  0
ARC
  8
Gravure
 62
   7
 39
0.400
  6
CONTINUOUS
 10
152.57241
 20
6.82711
 30
 0
 40
0.80322
 50
89.70818
 51
156.33956
  0
LINE
  8
Gravure
 62
   7
 39
0.400
  6
CONTINUOUS
 10
152.57650
 20
7.63032
 30
 0
 11
152.68747
 21
7.77828
  0
LINE
  8
Gravure
 62
   7
 39
0.400
  6
CONTINUOUS
 10
152.68747
 20
7.77828
 30
 0
 11
152.68747
 21
7.44538
  0
ARC
  8
Gravure
 62
   7
 39
0.400
  6
CONTINUOUS
 10
152.57972
 20
6.65486
 30
 0
 40
0.79783
 50
82.23857
 51
109.18262
  0
ARC
  8
Gravure
 62
   7
 39
0.400
  6
CONTINUOUS
 10
152.57899
 20
6.63511
 30
 0
 40
0.81627
 50
108.67857
 51
180.24608
  0
LINE
  8
Gravure
 62
   7
 39
0.400
  6
CONTINUOUS
 10
151.76273
 20
6.63160
 30
 0
 11
151.76273
 21
5.22600
  0
LINE
  8
Gravure
 62
   7
 39
0.400
  6
CONTINUOUS
 10
151.76273
 20
5.22600
 30
 0
 11
151.28186
 21
5.22600
  0
LINE
  8
Gravure
 62
   7
 39
0.400
  6
CONTINUOUS
 10
151.28186
 20
5.22600
 30
 0
 11
151.28186
 21
7.74129
  0
LINE
  8
Gravure
 62
   7
 39
0.400
  6
CONTINUOUS
 10
151.28186
 20
7.74129
 30
 0
 11
151.76273
 21
7.74129
  0
LINE
  8
Gravure
 62
   7
 39
0.400
  6
CONTINUOUS
 10
151.76273
 20
7.74129
 30
 0
 11
151.76273
 21
7.14946
  0
ARC
  8
Gravure
 62
   7
 39
0.400
  6
CONTINUOUS
 10
152.49924
 20
7.03256
 30
 0
 40
0.74573
 50
89.74765
 51
170.98142
  0
LINE
  8
Gravure
 62
   7
 39
0.400
  6
CONTINUOUS
 10
152.50252
 20
7.77828
 30
 0
 11
152.68747
 21
7.77828
  0
LINE
  8
Gravure
 62
   7
 39
0.400
  6
CONTINUOUS
 10
154.16772
 20
6.59561
 30
 0
 11
155.75827
 21
6.59561
  0
ARC
  8
Gravure
 62
   7
 39
0.400
  6
CONTINUOUS
 10
154.72628
 20
6.57602
 30
 0
 40
1.03218
 50
1.08780
 51
47.36769
  0
ARC
  8
Gravure
 62
   7
 39
0.400
  6
CONTINUOUS
 10
154.83163
 20
6.72151
 30
 0
 40
0.85405
 50
45.95649
 51
130.34829
  0
ARC
  8
Gravure
 62
   7
 39
0.400
  6
CONTINUOUS
 10
155.20577
 20
6.48465
 30
 0
 40
1.28358
 50
136.24170
 51
223.75830
  0
ARC
  8
Gravure
 62
   7
 39
0.400
  6
CONTINUOUS
 10
154.83660
 20
6.20380
 30
 0
 40
0.82438
 50
227.40818
 51
308.64195
  0
ARC
  8
Gravure
 62
   7
 39
0.400
  6
CONTINUOUS
 10
154.46736
 20
6.62888
 30
 0
 40
1.38716
 50
309.59025
 51
320.40975
  0
LINE
  8
Gravure
 62
   7
 39
0.400
  6
CONTINUOUS
 10
155.53633
 20
5.74485
 30
 0
 11
155.72128
 21
5.74485
  0
ARC
  8
Gravure
 62
   7
 39
0.400
  6
CONTINUOUS
 10
154.83820
 20
6.33877
 30
 0
 40
1.06422
 50
192.15179
 51
326.07715
  0
ARC
  8
Gravure
 62
   7
 39
0.400
  6
CONTINUOUS
 10
155.34187
 20
6.48465
 30
 0
 40
1.58774
 50
166.52798
 51
193.47202
  0
ARC
  8
Gravure
 62
   7
 39
0.400
  6
CONTINUOUS
 10
154.79704
 20
6.65311
 30
 0
 40
1.01932
 50
54.54021
 51
168.60240
  0
ARC
  8
Gravure
 62
   7
 39
0.400
  6
CONTINUOUS
 10
154.76979
 20
6.48622
 30
 0
 40
1.17343
 50
-0.07692
 51
58.18613
  0
LINE
  8
Gravure
 62
   7
 39
0.400
  6
CONTINUOUS
 10
155.94322
 20
6.48465
 30
 0
 11
154.09374
 21
6.48465
  0
LINE
  8
Gravure
 62
   7
 39
0.400
  6
CONTINUOUS
 10
154.09374
 20
6.48465
 30
 0
 11
154.09374
 21
6.70658
  0
LINE
  8
Gravure
 62
   7
 39
0.400
  6
CONTINUOUS
 10
154.09374
 20
6.70658
 30
 0
 11
155.57332
 21
6.70658
  0
ARC
  8
Gravure
 62
   7
 39
0.400
  6
CONTINUOUS
 10
154.21992
 20
6.46204
 30
 0
 40
1.37532
 50
10.24201
 51
31.83301
  0
ARC
  8
Gravure
 62
   7
 39
0.400
  6
CONTINUOUS
 10
154.83353
 20
6.84631
 30
 0
 40
0.65133
 50
31.58481
 51
148.41519
  0
ARC
  8
Gravure
 62
   7
 39
0.400
  6
CONTINUOUS
 10
155.41874
 20
6.48465
 30
 0
 40
1.33927
 50
148.34769
 51
211.65231
  0
ARC
  8
Gravure
 62
   7
 39
0.400
  6
CONTINUOUS
 10
154.83219
 20
6.12632
 30
 0
 40
0.65194
 50
211.89666
 51
335.48612
  0
LINE
  8
Gravure
 62
   7
 39
0.400
  6
CONTINUOUS
 10
155.42536
 20
5.85582
 30
 0
 11
155.94322
 21
5.85582
  0
ARC
  8
Gravure
 62
   7
 39
0.400
  6
CONTINUOUS
 10
154.70983
 20
6.52533
 30
 0
 40
1.40339
 50
309.91510
 51
331.50609
  0
ARC
  8
Gravure
 62
   7
 39
0.400
  6
CONTINUOUS
 10
154.85203
 20
6.35838
 30
 0
 40
1.18409
 50
230.17875
 51
309.82125
  0
ARC
  8
Gravure
 62
   7
 39
0.400
  6
CONTINUOUS
 10
154.96786
 20
6.48465
 30
 0
 40
1.35528
 50
130.16395
 51
229.83605
  0
ARC
  8
Gravure
 62
   7
 39
0.400
  6
CONTINUOUS
 10
154.83353
 20
6.63310
 30
 0
 40
1.15521
 50
50.17875
 51
129.82125
  0
ARC
  8
Gravure
 62
   7
 39
0.400
  6
CONTINUOUS
 10
154.63511
 20
6.40684
 30
 0
 40
1.45607
 50
0.15042
 51
49.88336
  0
LINE
  8
Gravure
 62
   7
 39
0.400
  6
CONTINUOUS
 10
156.09118
 20
6.41067
 30
 0
 11
154.09374
 21
6.41067
  0
LINE
  8
Gravure
 62
   7
 39
0.400
  6
CONTINUOUS
 10
157.42276
 20
7.59533
 30
 0
 11
158.12556
 21
5.52392
  0
LINE
  8
Gravure
 62
   7
 39
0.400
  6
CONTINUOUS
 10
158.12556
 20
5.52392
 30
 0
 11
158.27352
 21
5.52392
  0
LINE
  8
Gravure
 62
   7
 39
0.400
  6
CONTINUOUS
 10
158.27352
 20
5.52392
 30
 0
 11
158.97632
 21
7.59533
  0
LINE
  8
Gravure
 62
   7
 39
0.400
  6
CONTINUOUS
 10
158.97632
 20
7.59533
 30
 0
 11
159.16127
 21
7.59533
  0
LINE
  8
Gravure
 62
   7
 39
0.400
  6
CONTINUOUS
 10
159.16127
 20
7.59533
 30
 0
 11
158.38449
 21
5.33897
  0
LINE
  8
Gravure
 62
   7
 39
0.400
  6
CONTINUOUS
 10
158.38449
 20
5.33897
 30
 0
 11
158.01459
 21
5.33897
  0
LINE
  8
Gravure
 62
   7
 39
0.400
  6
CONTINUOUS
 10
158.01459
 20
5.33897
 30
 0
 11
157.23781
 21
7.59533
  0
LINE
  8
Gravure
 62
   7
 39
0.400
  6
CONTINUOUS
 10
157.23781
 20
7.59533
 30
 0
 11
157.42276
 21
7.59533
  0
LINE
  8
Gravure
 62
   7
 39
0.400
  6
CONTINUOUS
 10
157.42276
 20
7.59533
 30
 0
 11
157.53373
 21
7.70630
  0
LINE
  8
Gravure
 62
   7
 39
0.400
  6
CONTINUOUS
 10
157.53373
 20
7.70630
 30
 0
 11
158.19954
 21
5.67188
  0
LINE
  8
Gravure
 62
   7
 39
0.400
  6
CONTINUOUS
 10
158.19954
 20
5.67188
 30
 0
 11
158.86535
 21
7.70630
  0
LINE
  8
Gravure
 62
   7
 39
0.400
  6
CONTINUOUS
 10
158.86535
 20
7.70630
 30
 0
 11
159.34622
 21
7.70630
  0
LINE
  8
Gravure
 62
   7
 39
0.400
  6
CONTINUOUS
 10
159.34622
 20
7.70630
 30
 0
 11
158.49546
 21
5.22800
  0
LINE
  8
Gravure
 62
   7
 39
0.400
  6
CONTINUOUS
 10
158.49546
 20
5.22800
 30
 0
 11
157.90363
 21
5.22800
  0
LINE
  8
Gravure
 62
   7
 39
0.400
  6
CONTINUOUS
 10
157.90363
 20
5.22800
 30
 0
 11
157.05286
 21
7.70630
  0
LINE
  8
Gravure
 62
   7
 39
0.400
  6
CONTINUOUS
 10
157.05286
 20
7.70630
 30
 0
 11
157.53373
 21
7.70630
  0
LINE
  8
Gravure
 62
   7
 39
0.400
  6
CONTINUOUS
 10
178.32282
 20
5.29898
 30
 0
 11
178.32282
 21
8.66503
  0
LINE
  8
Gravure
 62
   7
 39
0.400
  6
CONTINUOUS
 10
178.32282
 20
8.66503
 30
 0
 11
178.50777
 21
8.66503
  0
LINE
  8
Gravure
 62
   7
 39
0.400
  6
CONTINUOUS
 10
178.50777
 20
8.66503
 30
 0
 11
180.54220
 21
5.29898
  0
LINE
  8
Gravure
 62
   7
 39
0.400
  6
CONTINUOUS
 10
180.54220
 20
5.29898
 30
 0
 11
180.72715
 21
5.29898
  0
LINE
  8
Gravure
 62
   7
 39
0.400
  6
CONTINUOUS
 10
180.72715
 20
5.29898
 30
 0
 11
180.72715
 21
8.66503
  0
LINE
  8
Gravure
 62
   7
 39
0.400
  6
CONTINUOUS
 10
180.72715
 20
8.66503
 30
 0
 11
180.54220
 21
8.66503
  0
LINE
  8
Gravure
 62
   7
 39
0.400
  6
CONTINUOUS
 10
180.54220
 20
8.66503
 30
 0
 11
180.54220
 21
5.66887
  0
LINE
  8
Gravure
 62
   7
 39
0.400
  6
CONTINUOUS
 10
180.54220
 20
5.66887
 30
 0
 11
180.65317
 21
5.48393
  0
LINE
  8
Gravure
 62
   7
 39
0.400
  6
CONTINUOUS
 10
180.65317
 20
5.48393
 30
 0
 11
180.35725
 21
5.96479
  0
LINE
  8
Gravure
 62
   7
 39
0.400
  6
CONTINUOUS
 10
180.35725
 20
5.96479
 30
 0
 11
178.69272
 21
8.77600
  0
LINE
  8
Gravure
 62
   7
 39
0.400
  6
CONTINUOUS
 10
178.69272
 20
8.77600
 30
 0
 11
178.13788
 21
8.77600
  0
LINE
  8
Gravure
 62
   7
 39
0.400
  6
CONTINUOUS
 10
178.13788
 20
8.77600
 30
 0
 11
178.13788
 21
5.22500
  0
LINE
  8
Gravure
 62
   7
 39
0.400
  6
CONTINUOUS
 10
178.13788
 20
5.22500
 30
 0
 11
178.69272
 21
5.22500
  0
LINE
  8
Gravure
 62
   7
 39
0.400
  6
CONTINUOUS
 10
178.69272
 20
5.22500
 30
 0
 11
178.69272
 21
8.03621
  0
LINE
  8
Gravure
 62
   7
 39
0.400
  6
CONTINUOUS
 10
178.69272
 20
8.03621
 30
 0
 11
178.39680
 21
8.51707
  0
LINE
  8
Gravure
 62
   7
 39
0.400
  6
CONTINUOUS
 10
178.39680
 20
8.51707
 30
 0
 11
178.50777
 21
8.33213
  0
LINE
  8
Gravure
 62
   7
 39
0.400
  6
CONTINUOUS
 10
178.50777
 20
8.33213
 30
 0
 11
178.50777
 21
5.29898
  0
LINE
  8
Gravure
 62
   7
 39
0.400
  6
CONTINUOUS
 10
178.50777
 20
5.29898
 30
 0
 11
178.50777
 21
8.03621
  0
LINE
  8
Gravure
 62
   7
 39
0.400
  6
CONTINUOUS
 10
178.50777
 20
8.03621
 30
 0
 11
178.69272
 21
8.03621
  0
LINE
  8
Gravure
 62
   7
 39
0.400
  6
CONTINUOUS
 10
178.69272
 20
8.03621
 30
 0
 11
180.35725
 21
5.22500
  0
LINE
  8
Gravure
 62
   7
 39
0.400
  6
CONTINUOUS
 10
180.35725
 20
5.22500
 30
 0
 11
180.91209
 21
5.22500
  0
LINE
  8
Gravure
 62
   7
 39
0.400
  6
CONTINUOUS
 10
180.91209
 20
5.22500
 30
 0
 11
180.91209
 21
8.77600
  0
LINE
  8
Gravure
 62
   7
 39
0.400
  6
CONTINUOUS
 10
180.91209
 20
8.77600
 30
 0
 11
180.35725
 21
8.77600
  0
LINE
  8
Gravure
 62
   7
 39
0.400
  6
CONTINUOUS
 10
180.35725
 20
8.77600
 30
 0
 11
180.35725
 21
5.96479
  0
LINE
  8
Gravure
 62
   7
 39
0.400
  6
CONTINUOUS
 10
182.39172
 20
6.59461
 30
 0
 11
183.98227
 21
6.59461
  0
ARC
  8
Gravure
 62
   7
 39
0.400
  6
CONTINUOUS
 10
182.95028
 20
6.57502
 30
 0
 40
1.03218
 50
1.08780
 51
47.36769
  0
ARC
  8
Gravure
 62
   7
 39
0.400
  6
CONTINUOUS
 10
183.05563
 20
6.72051
 30
 0
 40
0.85405
 50
45.95649
 51
130.34829
  0
ARC
  8
Gravure
 62
   7
 39
0.400
  6
CONTINUOUS
 10
183.42977
 20
6.48365
 30
 0
 40
1.28358
 50
136.24170
 51
223.75830
  0
ARC
  8
Gravure
 62
   7
 39
0.400
  6
CONTINUOUS
 10
183.06060
 20
6.20280
 30
 0
 40
0.82438
 50
227.40818
 51
308.64195
  0
ARC
  8
Gravure
 62
   7
 39
0.400
  6
CONTINUOUS
 10
182.69136
 20
6.62788
 30
 0
 40
1.38716
 50
309.59025
 51
320.40975
  0
LINE
  8
Gravure
 62
   7
 39
0.400
  6
CONTINUOUS
 10
183.76033
 20
5.74385
 30
 0
 11
183.94528
 21
5.74385
  0
ARC
  8
Gravure
 62
   7
 39
0.400
  6
CONTINUOUS
 10
183.06220
 20
6.33777
 30
 0
 40
1.06422
 50
192.15179
 51
326.07715
  0
ARC
  8
Gravure
 62
   7
 39
0.400
  6
CONTINUOUS
 10
183.56587
 20
6.48365
 30
 0
 40
1.58774
 50
166.52798
 51
193.47202
  0
ARC
  8
Gravure
 62
   7
 39
0.400
  6
CONTINUOUS
 10
183.02104
 20
6.65211
 30
 0
 40
1.01932
 50
54.54021
 51
168.60240
  0
ARC
  8
Gravure
 62
   7
 39
0.400
  6
CONTINUOUS
 10
182.99379
 20
6.48522
 30
 0
 40
1.17343
 50
-0.07692
 51
58.18613
  0
LINE
  8
Gravure
 62
   7
 39
0.400
  6
CONTINUOUS
 10
184.16722
 20
6.48365
 30
 0
 11
182.31774
 21
6.48365
  0
LINE
  8
Gravure
 62
   7
 39
0.400
  6
CONTINUOUS
 10
182.31774
 20
6.48365
 30
 0
 11
182.31774
 21
6.70558
  0
LINE
  8
Gravure
 62
   7
 39
0.400
  6
CONTINUOUS
 10
182.31774
 20
6.70558
 30
 0
 11
183.79732
 21
6.70558
  0
ARC
  8
Gravure
 62
   7
 39
0.400
  6
CONTINUOUS
 10
182.44392
 20
6.46104
 30
 0
 40
1.37532
 50
10.24201
 51
31.83301
  0
ARC
  8
Gravure
 62
   7
 39
0.400
  6
CONTINUOUS
 10
183.05753
 20
6.84531
 30
 0
 40
0.65133
 50
31.58481
 51
148.41519
  0
ARC
  8
Gravure
 62
   7
 39
0.400
  6
CONTINUOUS
 10
183.64274
 20
6.48365
 30
 0
 40
1.33927
 50
148.34769
 51
211.65231
  0
ARC
  8
Gravure
 62
   7
 39
0.400
  6
CONTINUOUS
 10
183.05619
 20
6.12532
 30
 0
 40
0.65194
 50
211.89666
 51
335.48612
  0
LINE
  8
Gravure
 62
   7
 39
0.400
  6
CONTINUOUS
 10
183.64936
 20
5.85482
 30
 0
 11
184.16722
 21
5.85482
  0
ARC
  8
Gravure
 62
   7
 39
0.400
  6
CONTINUOUS
 10
182.93383
 20
6.52433
 30
 0
 40
1.40339
 50
309.91510
 51
331.50609
  0
ARC
  8
Gravure
 62
   7
 39
0.400
  6
CONTINUOUS
 10
183.07603
 20
6.35738
 30
 0
 40
1.18409
 50
230.17875
 51
309.82125
  0
ARC
  8
Gravure
 62
   7
 39
0.400
  6
CONTINUOUS
 10
183.19186
 20
6.48365
 30
 0
 40
1.35528
 50
130.16395
 51
229.83605
  0
ARC
  8
Gravure
 62
   7
 39
0.400
  6
CONTINUOUS
 10
183.05753
 20
6.63210
 30
 0
 40
1.15521
 50
50.17875
 51
129.82125
  0
ARC
  8
Gravure
 62
   7
 39
0.400
  6
CONTINUOUS
 10
182.85911
 20
6.40584
 30
 0
 40
1.45607
 50
0.15042
 51
49.88336
  0
LINE
  8
Gravure
 62
   7
 39
0.400
  6
CONTINUOUS
 10
184.31518
 20
6.40967
 30
 0
 11
182.31774
 21
6.40967
  0
LINE
  8
Gravure
 62
   7
 39
0.400
  6
CONTINUOUS
 10
185.68375
 20
7.55734
 30
 0
 11
187.38527
 21
5.33797
  0
LINE
  8
Gravure
 62
   7
 39
0.400
  6
CONTINUOUS
 10
187.38527
 20
5.33797
 30
 0
 11
187.23731
 21
5.33797
  0
LINE
  8
Gravure
 62
   7
 39
0.400
  6
CONTINUOUS
 10
187.23731
 20
5.33797
 30
 0
 11
185.53579
 21
7.55734
  0
LINE
  8
Gravure
 62
   7
 39
0.400
  6
CONTINUOUS
 10
185.53579
 20
7.55734
 30
 0
 11
185.68375
 21
7.55734
  0
LINE
  8
Gravure
 62
   7
 39
0.400
  6
CONTINUOUS
 10
185.68375
 20
7.55734
 30
 0
 11
185.79472
 21
7.63132
  0
LINE
  8
Gravure
 62
   7
 39
0.400
  6
CONTINUOUS
 10
185.79472
 20
7.63132
 30
 0
 11
187.64420
 21
5.22700
  0
LINE
  8
Gravure
 62
   7
 39
0.400
  6
CONTINUOUS
 10
187.64420
 20
5.22700
 30
 0
 11
187.16333
 21
5.22700
  0
LINE
  8
Gravure
 62
   7
 39
0.400
  6
CONTINUOUS
 10
187.16333
 20
5.22700
 30
 0
 11
185.31385
 21
7.63132
  0
LINE
  8
Gravure
 62
   7
 39
0.400
  6
CONTINUOUS
 10
185.31385
 20
7.63132
 30
 0
 11
185.79472
 21
7.63132
  0
LINE
  8
Gravure
 62
   7
 39
0.400
  6
CONTINUOUS
 10
187.34828
 20
7.55734
 30
 0
 11
185.64676
 21
5.33797
  0
LINE
  8
Gravure
 62
   7
 39
0.400
  6
CONTINUOUS
 10
185.64676
 20
5.33797
 30
 0
 11
185.46181
 21
5.33797
  0
LINE
  8
Gravure
 62
   7
 39
0.400
  6
CONTINUOUS
 10
185.46181
 20
5.33797
 30
 0
 11
187.20032
 21
7.55734
  0
LINE
  8
Gravure
 62
   7
 39
0.400
  6
CONTINUOUS
 10
187.20032
 20
7.55734
 30
 0
 11
187.34828
 21
7.55734
  0
LINE
  8
Gravure
 62
   7
 39
0.400
  6
CONTINUOUS
 10
187.34828
 20
7.55734
 30
 0
 11
187.57022
 21
7.63132
  0
LINE
  8
Gravure
 62
   7
 39
0.400
  6
CONTINUOUS
 10
187.57022
 20
7.63132
 30
 0
 11
185.72074
 21
5.22700
  0
LINE
  8
Gravure
 62
   7
 39
0.400
  6
CONTINUOUS
 10
185.72074
 20
5.22700
 30
 0
 11
185.23988
 21
5.22700
  0
LINE
  8
Gravure
 62
   7
 39
0.400
  6
CONTINUOUS
 10
185.23988
 20
5.22700
 30
 0
 11
187.08935
 21
7.63132
  0
LINE
  8
Gravure
 62
   7
 39
0.400
  6
CONTINUOUS
 10
187.08935
 20
7.63132
 30
 0
 11
187.57022
 21
7.63132
  0
LINE
  8
Gravure
 62
   7
 39
0.400
  6
CONTINUOUS
 10
189.04974
 20
8.66703
 30
 0
 11
189.23469
 21
8.66703
  0
LINE
  8
Gravure
 62
   7
 39
0.400
  6
CONTINUOUS
 10
189.23469
 20
8.66703
 30
 0
 11
189.23469
 21
5.92980
  0
ARC
  8
Gravure
 62
   7
 39
0.400
  6
CONTINUOUS
 10
189.67785
 20
5.92749
 30
 0
 40
0.44317
 50
179.70094
 51
274.88028
  0
LINE
  8
Gravure
 62
   7
 39
0.400
  6
CONTINUOUS
 10
189.71555
 20
5.48593
 30
 0
 11
189.71555
 21
5.33797
  0
LINE
  8
Gravure
 62
   7
 39
0.400
  6
CONTINUOUS
 10
189.71555
 20
5.33797
 30
 0
 11
189.56759
 21
5.33797
  0
ARC
  8
Gravure
 62
   7
 39
0.400
  6
CONTINUOUS
 10
189.56486
 20
5.85309
 30
 0
 40
0.51513
 50
179.69622
 51
270.30378
  0
LINE
  8
Gravure
 62
   7
 39
0.400
  6
CONTINUOUS
 10
189.04974
 20
5.85582
 30
 0
 11
189.04974
 21
8.66703
  0
LINE
  8
Gravure
 62
   7
 39
0.400
  6
CONTINUOUS
 10
189.04974
 20
8.66703
 30
 0
 11
188.90178
 21
8.77800
  0
LINE
  8
Gravure
 62
   7
 39
0.400
  6
CONTINUOUS
 10
188.90178
 20
8.77800
 30
 0
 11
189.38265
 21
8.77800
  0
LINE
  8
Gravure
 62
   7
 39
0.400
  6
CONTINUOUS
 10
189.38265
 20
8.77800
 30
 0
 11
189.38265
 21
5.92980
  0
ARC
  8
Gravure
 62
   7
 39
0.400
  6
CONTINUOUS
 10
189.71380
 20
5.92805
 30
 0
 40
0.33116
 50
179.69622
 51
270.30378
  0
LINE
  8
Gravure
 62
   7
 39
0.400
  6
CONTINUOUS
 10
189.71555
 20
5.59690
 30
 0
 11
189.86351
 21
5.59690
  0
LINE
  8
Gravure
 62
   7
 39
0.400
  6
CONTINUOUS
 10
189.86351
 20
5.59690
 30
 0
 11
189.86351
 21
5.22700
  0
LINE
  8
Gravure
 62
   7
 39
0.400
  6
CONTINUOUS
 10
189.86351
 20
5.22700
 30
 0
 11
189.56759
 21
5.22700
  0
ARC
  8
Gravure
 62
   7
 39
0.400
  6
CONTINUOUS
 10
189.56408
 20
5.88930
 30
 0
 40
0.66231
 50
179.69622
 51
270.30378
  0
LINE
  8
Gravure
 62
   7
 39
0.400
  6
CONTINUOUS
 10
188.90178
 20
5.89281
 30
 0
 11
188.90178
 21
8.77800
  0
LINE
  8
Gravure
 62
   7
 39
0.400
  6
CONTINUOUS
 10
188.64285
 20
7.52035
 30
 0
 11
189.75254
 21
7.52035
  0
LINE
  8
Gravure
 62
   7
 39
0.400
  6
CONTINUOUS
 10
189.75254
 20
7.52035
 30
 0
 11
189.86351
 21
7.66831
  0
LINE
  8
Gravure
 62
   7
 39
0.400
  6
CONTINUOUS
 10
189.86351
 20
7.66831
 30
 0
 11
189.86351
 21
7.37240
  0
LINE
  8
Gravure
 62
   7
 39
0.400
  6
CONTINUOUS
 10
189.86351
 20
7.37240
 30
 0
 11
188.56887
 21
7.37240
  0
LINE
  8
Gravure
 62
   7
 39
0.400
  6
CONTINUOUS
 10
188.56887
 20
7.37240
 30
 0
 11
188.56887
 21
7.66831
  0
LINE
  8
Gravure
 62
   7
 39
0.400
  6
CONTINUOUS
 10
188.56887
 20
7.66831
 30
 0
 11
189.86351
 21
7.66831
  0
LINE
  8
Gravure
 62
   7
 39
0.600
  6
CONTINUOUS
 10
156.77402
 20
48.73962
 30
 0
 11
155.32433
 21
47.28994
  0
LINE
  8
Gravure
 62
   7
 39
0.600
  6
CONTINUOUS
 10
155.32433
 20
47.28994
 30
 0
 11
155.32433
 21
46.71006
  0
LINE
  8
Gravure
 62
   7
 39
0.600
  6
CONTINUOUS
 10
155.32433
 20
46.71006
 30
 0
 11
156.77402
 21
45.26038
  0
LINE
  8
Gravure
 62
   7
 39
0.600
  6
CONTINUOUS
 10
156.77402
 20
45.26038
 30
 0
 11
156.96731
 21
44.58385
  0
LINE
  8
Gravure
 62
   7
 39
0.600
  6
CONTINUOUS
 10
156.96731
 20
44.58385
 30
 0
 11
156.96731
 21
45.55031
  0
LINE
  8
Gravure
 62
   7
 39
0.600
  6
CONTINUOUS
 10
156.96731
 20
45.55031
 30
 0
 11
155.51763
 21
47.00000
  0
LINE
  8
Gravure
 62
   7
 39
0.600
  6
CONTINUOUS
 10
155.51763
 20
47.00000
 30
 0
 11
156.96731
 21
48.44969
  0
LINE
  8
Gravure
 62
   7
 39
0.600
  6
CONTINUOUS
 10
156.96731
 20
48.44969
 30
 0
 11
156.96731
 21
49.41615
  0
LINE
  8
Gravure
 62
   7
 39
0.600
  6
CONTINUOUS
 10
156.96731
 20
49.41615
 30
 0
 11
155.03440
 21
47.48323
  0
LINE
  8
Gravure
 62
   7
 39
0.600
  6
CONTINUOUS
 10
155.03440
 20
47.48323
 30
 0
 11
155.03440
 21
46.51677
  0
LINE
  8
Gravure
 62
   7
 39
0.600
  6
CONTINUOUS
 10
155.03440
 20
46.51677
 30
 0
 11
156.96731
 21
44.58385
  0
LINE
  8
Gravure
 62
   7
 39
0.600
  6
CONTINUOUS
 10
177.22769
 20
48.73962
 30
 0
 11
178.67738
 21
47.28994
  0
LINE
  8
Gravure
 62
   7
 39
0.600
  6
CONTINUOUS
 10
178.67738
 20
47.28994
 30
 0
 11
178.67738
 21
46.71006
  0
LINE
  8
Gravure
 62
   7
 39
0.600
  6
CONTINUOUS
 10
178.67738
 20
46.71006
 30
 0
 11
177.22769
 21
45.26038
  0
LINE
  8
Gravure
 62
   7
 39
0.600
  6
CONTINUOUS
 10
177.22769
 20
45.26038
 30
 0
 11
177.03440
 21
44.58385
  0
LINE
  8
Gravure
 62
   7
 39
0.600
  6
CONTINUOUS
 10
177.03440
 20
44.58385
 30
 0
 11
178.96731
 21
46.51677
  0
LINE
  8
Gravure
 62
   7
 39
0.600
  6
CONTINUOUS
 10
178.96731
 20
46.51677
 30
 0
 11
178.96731
 21
47.48323
  0
LINE
  8
Gravure
 62
   7
 39
0.600
  6
CONTINUOUS
 10
178.96731
 20
47.48323
 30
 0
 11
177.03440
 21
49.41615
  0
LINE
  8
Gravure
 62
   7
 39
0.600
  6
CONTINUOUS
 10
177.03440
 20
49.41615
 30
 0
 11
177.03440
 21
48.44969
  0
LINE
  8
Gravure
 62
   7
 39
0.600
  6
CONTINUOUS
 10
177.03440
 20
48.44969
 30
 0
 11
178.48408
 21
47.00000
  0
LINE
  8
Gravure
 62
   7
 39
0.600
  6
CONTINUOUS
 10
178.48408
 20
47.00000
 30
 0
 11
177.03440
 21
45.55031
  0
LINE
  8
Gravure
 62
   7
 39
0.600
  6
CONTINUOUS
 10
177.03440
 20
45.55031
 30
 0
 11
177.03440
 21
44.58385
  0
LINE
  8
Gravure
 62
   7
 39
0.400
  6
CONTINUOUS
 10
160.34281
 20
37.66503
 30
 0
 11
162.56219
 21
37.66503
  0
LINE
  8
Gravure
 62
   7
 39
0.400
  6
CONTINUOUS
 10
162.56219
 20
37.66503
 30
 0
 11
162.56219
 21
37.51707
  0
LINE
  8
Gravure
 62
   7
 39
0.400
  6
CONTINUOUS
 10
162.56219
 20
37.51707
 30
 0
 11
160.52776
 21
37.51707
  0
LINE
  8
Gravure
 62
   7
 39
0.400
  6
CONTINUOUS
 10
160.52776
 20
37.51707
 30
 0
 11
160.52776
 21
36.18545
  0
LINE
  8
Gravure
 62
   7
 39
0.400
  6
CONTINUOUS
 10
160.52776
 20
36.18545
 30
 0
 11
162.41423
 21
36.18545
  0
LINE
  8
Gravure
 62
   7
 39
0.400
  6
CONTINUOUS
 10
162.41423
 20
36.18545
 30
 0
 11
162.41423
 21
36.03749
  0
LINE
  8
Gravure
 62
   7
 39
0.400
  6
CONTINUOUS
 10
162.41423
 20
36.03749
 30
 0
 11
160.52776
 21
36.03749
  0
LINE
  8
Gravure
 62
   7
 39
0.400
  6
CONTINUOUS
 10
160.52776
 20
36.03749
 30
 0
 11
160.52776
 21
34.48393
  0
LINE
  8
Gravure
 62
   7
 39
0.400
  6
CONTINUOUS
 10
160.52776
 20
34.48393
 30
 0
 11
162.59918
 21
34.48393
  0
LINE
  8
Gravure
 62
   7
 39
0.400
  6
CONTINUOUS
 10
162.59918
 20
34.48393
 30
 0
 11
162.59918
 21
34.33597
  0
LINE
  8
Gravure
 62
   7
 39
0.400
  6
CONTINUOUS
 10
162.59918
 20
34.33597
 30
 0
 11
160.34281
 21
34.33597
  0
LINE
  8
Gravure
 62
   7
 39
0.400
  6
CONTINUOUS
 10
160.34281
 20
34.33597
 30
 0
 11
160.34281
 21
37.66503
  0
LINE
  8
Gravure
 62
   7
 39
0.400
  6
CONTINUOUS
 10
160.34281
 20
37.66503
 30
 0
 11
160.15786
 21
37.77600
  0
LINE
  8
Gravure
 62
   7
 39
0.400
  6
CONTINUOUS
 10
160.15786
 20
37.77600
 30
 0
 11
160.15786
 21
34.22500
  0
LINE
  8
Gravure
 62
   7
 39
0.400
  6
CONTINUOUS
 10
160.15786
 20
34.22500
 30
 0
 11
160.71271
 21
34.59490
  0
LINE
  8
Gravure
 62
   7
 39
0.400
  6
CONTINUOUS
 10
160.71271
 20
34.59490
 30
 0
 11
162.67316
 21
34.59490
  0
LINE
  8
Gravure
 62
   7
 39
0.400
  6
CONTINUOUS
 10
162.67316
 20
34.59490
 30
 0
 11
162.67316
 21
34.22500
  0
LINE
  8
Gravure
 62
   7
 39
0.400
  6
CONTINUOUS
 10
162.67316
 20
34.22500
 30
 0
 11
160.15786
 21
34.22500
  0
LINE
  8
Gravure
 62
   7
 39
0.400
  6
CONTINUOUS
 10
160.15786
 20
34.22500
 30
 0
 11
160.71271
 21
34.59490
  0
LINE
  8
Gravure
 62
   7
 39
0.400
  6
CONTINUOUS
 10
160.71271
 20
34.59490
 30
 0
 11
160.71271
 21
35.92652
  0
LINE
  8
Gravure
 62
   7
 39
0.400
  6
CONTINUOUS
 10
160.71271
 20
35.92652
 30
 0
 11
162.48821
 21
35.92652
  0
LINE
  8
Gravure
 62
   7
 39
0.400
  6
CONTINUOUS
 10
162.48821
 20
35.92652
 30
 0
 11
162.48821
 21
36.29642
  0
LINE
  8
Gravure
 62
   7
 39
0.400
  6
CONTINUOUS
 10
162.48821
 20
36.29642
 30
 0
 11
160.71271
 21
36.29642
  0
LINE
  8
Gravure
 62
   7
 39
0.400
  6
CONTINUOUS
 10
160.71271
 20
36.29642
 30
 0
 11
160.71271
 21
37.40610
  0
LINE
  8
Gravure
 62
   7
 39
0.400
  6
CONTINUOUS
 10
160.71271
 20
37.40610
 30
 0
 11
162.67316
 21
37.40610
  0
LINE
  8
Gravure
 62
   7
 39
0.400
  6
CONTINUOUS
 10
162.67316
 20
37.40610
 30
 0
 11
162.67316
 21
37.77600
  0
LINE
  8
Gravure
 62
   7
 39
0.400
  6
CONTINUOUS
 10
162.67316
 20
37.77600
 30
 0
 11
160.15786
 21
37.77600
  0
LINE
  8
Gravure
 62
   7
 39
0.400
  6
CONTINUOUS
 10
160.15786
 20
37.77600
 30
 0
 11
160.71271
 21
37.40610
  0
LINE
  8
Gravure
 62
   7
 39
0.400
  6
CONTINUOUS
 10
160.71271
 20
37.40610
 30
 0
 11
160.15786
 21
37.77600
  0
LINE
  8
Gravure
 62
   7
 39
0.400
  6
CONTINUOUS
 10
163.96877
 20
36.55634
 30
 0
 11
163.96877
 21
34.29998
  0
LINE
  8
Gravure
 62
   7
 39
0.400
  6
CONTINUOUS
 10
163.96877
 20
34.29998
 30
 0
 11
163.78382
 21
34.29998
  0
LINE
  8
Gravure
 62
   7
 39
0.400
  6
CONTINUOUS
 10
163.78382
 20
34.29998
 30
 0
 11
163.78382
 21
36.55634
  0
LINE
  8
Gravure
 62
   7
 39
0.400
  6
CONTINUOUS
 10
163.78382
 20
36.55634
 30
 0
 11
163.96877
 21
36.55634
  0
LINE
  8
Gravure
 62
   7
 39
0.400
  6
CONTINUOUS
 10
163.96877
 20
36.55634
 30
 0
 11
164.11673
 21
36.66731
  0
LINE
  8
Gravure
 62
   7
 39
0.400
  6
CONTINUOUS
 10
164.11673
 20
36.66731
 30
 0
 11
164.11673
 21
34.22600
  0
LINE
  8
Gravure
 62
   7
 39
0.400
  6
CONTINUOUS
 10
164.11673
 20
34.22600
 30
 0
 11
163.63586
 21
34.22600
  0
LINE
  8
Gravure
 62
   7
 39
0.400
  6
CONTINUOUS
 10
163.63586
 20
34.22600
 30
 0
 11
163.63586
 21
36.66731
  0
LINE
  8
Gravure
 62
   7
 39
0.400
  6
CONTINUOUS
 10
163.63586
 20
36.66731
 30
 0
 11
164.11673
 21
36.66731
  0
LINE
  8
Gravure
 62
   7
 39
0.400
  6
CONTINUOUS
 10
164.11673
 20
36.66731
 30
 0
 11
164.11673
 21
36.14946
  0
ARC
  8
Gravure
 62
   7
 39
0.400
  6
CONTINUOUS
 10
164.95086
 20
35.89662
 30
 0
 40
0.87161
 50
42.22363
 51
163.13714
  0
ARC
  8
Gravure
 62
   7
 39
0.400
  6
CONTINUOUS
 10
164.87642
 20
35.81915
 30
 0
 40
0.97883
 50
-0.15220
 51
42.65321
  0
LINE
  8
Gravure
 62
   7
 39
0.400
  6
CONTINUOUS
 10
165.85524
 20
35.81655
 30
 0
 11
165.85524
 21
34.22600
  0
LINE
  8
Gravure
 62
   7
 39
0.400
  6
CONTINUOUS
 10
165.85524
 20
34.22600
 30
 0
 11
165.37437
 21
34.22600
  0
LINE
  8
Gravure
 62
   7
 39
0.400
  6
CONTINUOUS
 10
165.37437
 20
34.22600
 30
 0
 11
165.37437
 21
35.81655
  0
ARC
  8
Gravure
 62
   7
 39
0.400
  6
CONTINUOUS
 10
164.66848
 20
35.82105
 30
 0
 40
0.70591
 50
359.63481
 51
402.44021
  0
ARC
  8
Gravure
 62
   7
 39
0.400
  6
CONTINUOUS
 10
164.74555
 20
35.89196
 30
 0
 40
0.60118
 50
42.41033
 51
137.58967
  0
ARC
  8
Gravure
 62
   7
 39
0.400
  6
CONTINUOUS
 10
164.82263
 20
35.82105
 30
 0
 40
0.70591
 50
137.55979
 51
180.36519
  0
ARC
  8
Gravure
 62
   7
 39
0.400
  6
CONTINUOUS
 10
164.83631
 20
35.88656
 30
 0
 40
0.72298
 50
118.92577
 51
185.55715
  0
ARC
  8
Gravure
 62
   7
 39
0.400
  6
CONTINUOUS
 10
164.92359
 20
35.86841
 30
 0
 40
0.78400
 50
1.61662
 51
123.87272
  0
LINE
  8
Gravure
 62
   7
 39
0.400
  6
CONTINUOUS
 10
165.70728
 20
35.89053
 30
 0
 11
165.70728
 21
34.29998
  0
LINE
  8
Gravure
 62
   7
 39
0.400
  6
CONTINUOUS
 10
165.70728
 20
34.29998
 30
 0
 11
165.52233
 21
34.29998
  0
LINE
  8
Gravure
 62
   7
 39
0.400
  6
CONTINUOUS
 10
165.52233
 20
34.29998
 30
 0
 11
165.52233
 21
35.89053
  0
ARC
  8
Gravure
 62
   7
 39
0.400
  6
CONTINUOUS
 10
164.84565
 20
35.89072
 30
 0
 40
0.67669
 50
359.98432
 51
439.62682
  0
LINE
  8
Gravure
 62
   7
 39
0.400
  6
CONTINUOUS
 10
167.26174
 20
37.66603
 30
 0
 11
167.44669
 21
37.66603
  0
LINE
  8
Gravure
 62
   7
 39
0.400
  6
CONTINUOUS
 10
167.44669
 20
37.66603
 30
 0
 11
167.44669
 21
34.92880
  0
ARC
  8
Gravure
 62
   7
 39
0.400
  6
CONTINUOUS
 10
167.88985
 20
34.92649
 30
 0
 40
0.44317
 50
179.70094
 51
274.88028
  0
LINE
  8
Gravure
 62
   7
 39
0.400
  6
CONTINUOUS
 10
167.92755
 20
34.48493
 30
 0
 11
167.92755
 21
34.33697
  0
LINE
  8
Gravure
 62
   7
 39
0.400
  6
CONTINUOUS
 10
167.92755
 20
34.33697
 30
 0
 11
167.77959
 21
34.33697
  0
ARC
  8
Gravure
 62
   7
 39
0.400
  6
CONTINUOUS
 10
167.77686
 20
34.85209
 30
 0
 40
0.51513
 50
179.69622
 51
270.30378
  0
LINE
  8
Gravure
 62
   7
 39
0.400
  6
CONTINUOUS
 10
167.26174
 20
34.85482
 30
 0
 11
167.26174
 21
37.66603
  0
LINE
  8
Gravure
 62
   7
 39
0.400
  6
CONTINUOUS
 10
167.26174
 20
37.66603
 30
 0
 11
167.11378
 21
37.77700
  0
LINE
  8
Gravure
 62
   7
 39
0.400
  6
CONTINUOUS
 10
167.11378
 20
37.77700
 30
 0
 11
167.59465
 21
37.77700
  0
LINE
  8
Gravure
 62
   7
 39
0.400
  6
CONTINUOUS
 10
167.59465
 20
37.77700
 30
 0
 11
167.59465
 21
34.92880
  0
ARC
  8
Gravure
 62
   7
 39
0.400
  6
CONTINUOUS
 10
167.92580
 20
34.92705
 30
 0
 40
0.33116
 50
179.69622
 51
270.30378
  0
LINE
  8
Gravure
 62
   7
 39
0.400
  6
CONTINUOUS
 10
167.92755
 20
34.59590
 30
 0
 11
168.07551
 21
34.59590
  0
LINE
  8
Gravure
 62
   7
 39
0.400
  6
CONTINUOUS
 10
168.07551
 20
34.59590
 30
 0
 11
168.07551
 21
34.22600
  0
LINE
  8
Gravure
 62
   7
 39
0.400
  6
CONTINUOUS
 10
168.07551
 20
34.22600
 30
 0
 11
167.77959
 21
34.22600
  0
ARC
  8
Gravure
 62
   7
 39
0.400
  6
CONTINUOUS
 10
167.77608
 20
34.88830
 30
 0
 40
0.66231
 50
179.69622
 51
270.30378
  0
LINE
  8
Gravure
 62
   7
 39
0.400
  6
CONTINUOUS
 10
167.11378
 20
34.89181
 30
 0
 11
167.11378
 21
37.77700
  0
LINE
  8
Gravure
 62
   7
 39
0.400
  6
CONTINUOUS
 10
166.85485
 20
36.51935
 30
 0
 11
167.96454
 21
36.51935
  0
LINE
  8
Gravure
 62
   7
 39
0.400
  6
CONTINUOUS
 10
167.96454
 20
36.51935
 30
 0
 11
168.07551
 21
36.66731
  0
LINE
  8
Gravure
 62
   7
 39
0.400
  6
CONTINUOUS
 10
168.07551
 20
36.66731
 30
 0
 11
168.07551
 21
36.37140
  0
LINE
  8
Gravure
 62
   7
 39
0.400
  6
CONTINUOUS
 10
168.07551
 20
36.37140
 30
 0
 11
166.78088
 21
36.37140
  0
LINE
  8
Gravure
 62
   7
 39
0.400
  6
CONTINUOUS
 10
166.78088
 20
36.37140
 30
 0
 11
166.78088
 21
36.66731
  0
LINE
  8
Gravure
 62
   7
 39
0.400
  6
CONTINUOUS
 10
166.78088
 20
36.66731
 30
 0
 11
168.07551
 21
36.66731
  0
LINE
  8
Gravure
 62
   7
 39
0.400
  6
CONTINUOUS
 10
169.55472
 20
35.59461
 30
 0
 11
171.14527
 21
35.59461
  0
ARC
  8
Gravure
 62
   7
 39
0.400
  6
CONTINUOUS
 10
170.11328
 20
35.57502
 30
 0
 40
1.03218
 50
1.08780
 51
47.36769
  0
ARC
  8
Gravure
 62
   7
 39
0.400
  6
CONTINUOUS
 10
170.21863
 20
35.72051
 30
 0
 40
0.85405
 50
45.95649
 51
130.34829
  0
ARC
  8
Gravure
 62
   7
 39
0.400
  6
CONTINUOUS
 10
170.59277
 20
35.48365
 30
 0
 40
1.28358
 50
136.24170
 51
223.75830
  0
ARC
  8
Gravure
 62
   7
 39
0.400
  6
CONTINUOUS
 10
170.22360
 20
35.20280
 30
 0
 40
0.82438
 50
227.40818
 51
308.64195
  0
ARC
  8
Gravure
 62
   7
 39
0.400
  6
CONTINUOUS
 10
169.85436
 20
35.62788
 30
 0
 40
1.38716
 50
309.59025
 51
320.40975
  0
LINE
  8
Gravure
 62
   7
 39
0.400
  6
CONTINUOUS
 10
170.92333
 20
34.74385
 30
 0
 11
171.10828
 21
34.74385
  0
ARC
  8
Gravure
 62
   7
 39
0.400
  6
CONTINUOUS
 10
170.22520
 20
35.33777
 30
 0
 40
1.06422
 50
192.15179
 51
326.07715
  0
ARC
  8
Gravure
 62
   7
 39
0.400
  6
CONTINUOUS
 10
170.72887
 20
35.48365
 30
 0
 40
1.58774
 50
166.52798
 51
193.47202
  0
ARC
  8
Gravure
 62
   7
 39
0.400
  6
CONTINUOUS
 10
170.18404
 20
35.65211
 30
 0
 40
1.01932
 50
54.54021
 51
168.60240
  0
ARC
  8
Gravure
 62
   7
 39
0.400
  6
CONTINUOUS
 10
170.15679
 20
35.48522
 30
 0
 40
1.17343
 50
-0.07692
 51
58.18613
  0
LINE
  8
Gravure
 62
   7
 39
0.400
  6
CONTINUOUS
 10
171.33022
 20
35.48365
 30
 0
 11
169.48074
 21
35.48365
  0
LINE
  8
Gravure
 62
   7
 39
0.400
  6
CONTINUOUS
 10
169.48074
 20
35.48365
 30
 0
 11
169.48074
 21
35.70558
  0
LINE
  8
Gravure
 62
   7
 39
0.400
  6
CONTINUOUS
 10
169.48074
 20
35.70558
 30
 0
 11
170.96032
 21
35.70558
  0
ARC
  8
Gravure
 62
   7
 39
0.400
  6
CONTINUOUS
 10
169.60692
 20
35.46104
 30
 0
 40
1.37532
 50
10.24201
 51
31.83301
  0
ARC
  8
Gravure
 62
   7
 39
0.400
  6
CONTINUOUS
 10
170.22053
 20
35.84531
 30
 0
 40
0.65133
 50
31.58481
 51
148.41519
  0
ARC
  8
Gravure
 62
   7
 39
0.400
  6
CONTINUOUS
 10
170.80574
 20
35.48365
 30
 0
 40
1.33927
 50
148.34769
 51
211.65231
  0
ARC
  8
Gravure
 62
   7
 39
0.400
  6
CONTINUOUS
 10
170.21919
 20
35.12532
 30
 0
 40
0.65194
 50
211.89666
 51
335.48612
  0
LINE
  8
Gravure
 62
   7
 39
0.400
  6
CONTINUOUS
 10
170.81236
 20
34.85482
 30
 0
 11
171.33022
 21
34.85482
  0
ARC
  8
Gravure
 62
   7
 39
0.400
  6
CONTINUOUS
 10
170.09683
 20
35.52433
 30
 0
 40
1.40339
 50
309.91510
 51
331.50609
  0
ARC
  8
Gravure
 62
   7
 39
0.400
  6
CONTINUOUS
 10
170.23903
 20
35.35738
 30
 0
 40
1.18409
 50
230.17875
 51
309.82125
  0
ARC
  8
Gravure
 62
   7
 39
0.400
  6
CONTINUOUS
 10
170.35486
 20
35.48365
 30
 0
 40
1.35528
 50
130.16395
 51
229.83605
  0
ARC
  8
Gravure
 62
   7
 39
0.400
  6
CONTINUOUS
 10
170.22053
 20
35.63210
 30
 0
 40
1.15521
 50
50.17875
 51
129.82125
  0
ARC
  8
Gravure
 62
   7
 39
0.400
  6
CONTINUOUS
 10
170.02211
 20
35.40584
 30
 0
 40
1.45607
 50
0.15042
 51
49.88336
  0
LINE
  8
Gravure
 62
   7
 39
0.400
  6
CONTINUOUS
 10
171.47818
 20
35.40967
 30
 0
 11
169.48074
 21
35.40967
  0
LINE
  8
Gravure
 62
   7
 39
0.400
  6
CONTINUOUS
 10
172.77277
 20
36.63132
 30
 0
 11
172.77277
 21
34.30098
  0
LINE
  8
Gravure
 62
   7
 39
0.400
  6
CONTINUOUS
 10
172.77277
 20
34.30098
 30
 0
 11
172.58782
 21
34.30098
  0
LINE
  8
Gravure
 62
   7
 39
0.400
  6
CONTINUOUS
 10
172.58782
 20
34.30098
 30
 0
 11
172.58782
 21
36.63132
  0
LINE
  8
Gravure
 62
   7
 39
0.400
  6
CONTINUOUS
 10
172.58782
 20
36.63132
 30
 0
 11
172.77277
 21
36.63132
  0
LINE
  8
Gravure
 62
   7
 39
0.400
  6
CONTINUOUS
 10
172.77277
 20
36.63132
 30
 0
 11
172.77277
 21
35.63260
  0
LINE
  8
Gravure
 62
   7
 39
0.400
  6
CONTINUOUS
 10
172.77277
 20
35.63260
 30
 0
 11
172.99471
 21
36.15046
  0
ARC
  8
Gravure
 62
   7
 39
0.400
  6
CONTINUOUS
 10
173.73041
 20
35.82811
 30
 0
 40
0.80322
 50
89.70818
 51
156.33956
  0
LINE
  8
Gravure
 62
   7
 39
0.400
  6
CONTINUOUS
 10
173.73450
 20
36.63132
 30
 0
 11
173.84547
 21
36.77928
  0
LINE
  8
Gravure
 62
   7
 39
0.400
  6
CONTINUOUS
 10
173.84547
 20
36.77928
 30
 0
 11
173.84547
 21
36.44638
  0
ARC
  8
Gravure
 62
   7
 39
0.400
  6
CONTINUOUS
 10
173.73772
 20
35.65586
 30
 0
 40
0.79783
 50
82.23857
 51
109.18262
  0
ARC
  8
Gravure
 62
   7
 39
0.400
  6
CONTINUOUS
 10
173.73699
 20
35.63611
 30
 0
 40
0.81627
 50
108.67857
 51
180.24608
  0
LINE
  8
Gravure
 62
   7
 39
0.400
  6
CONTINUOUS
 10
172.92073
 20
35.63260
 30
 0
 11
172.92073
 21
34.22700
  0
LINE
  8
Gravure
 62
   7
 39
0.400
  6
CONTINUOUS
 10
172.92073
 20
34.22700
 30
 0
 11
172.43986
 21
34.22700
  0
LINE
  8
Gravure
 62
   7
 39
0.400
  6
CONTINUOUS
 10
172.43986
 20
34.22700
 30
 0
 11
172.43986
 21
36.74229
  0
LINE
  8
Gravure
 62
   7
 39
0.400
  6
CONTINUOUS
 10
172.43986
 20
36.74229
 30
 0
 11
172.92073
 21
36.74229
  0
LINE
  8
Gravure
 62
   7
 39
0.400
  6
CONTINUOUS
 10
172.92073
 20
36.74229
 30
 0
 11
172.92073
 21
36.15046
  0
ARC
  8
Gravure
 62
   7
 39
0.400
  6
CONTINUOUS
 10
173.65724
 20
36.03356
 30
 0
 40
0.74573
 50
89.74765
 51
170.98142
  0
LINE
  8
Gravure
 62
   7
 39
0.400
  6
CONTINUOUS
 10
173.66052
 20
36.77928
 30
 0
 11
173.84547
 21
36.77928
  0
LINE
  8
Gravure
 62
   7
 39
0.400
  6
CONTINUOUS
 10
45.26066
 20
72.62385
 30
 0
 11
47.16056
 21
67.38472
  0
LINE
  8
Gravure
 62
   7
 39
0.400
  6
CONTINUOUS
 10
47.16056
 20
67.38472
 30
 0
 11
47.44843
 21
67.38472
  0
LINE
  8
Gravure
 62
   7
 39
0.400
  6
CONTINUOUS
 10
47.44843
 20
67.38472
 30
 0
 11
45.49095
 21
72.62385
  0
LINE
  8
Gravure
 62
   7
 39
0.400
  6
CONTINUOUS
 10
45.49095
 20
72.62385
 30
 0
 11
45.26066
 21
72.62385
  0
LINE
  8
Gravure
 62
   7
 39
0.400
  6
CONTINUOUS
 10
45.26066
 20
72.62385
 30
 0
 11
43.30318
 21
67.38472
  0
LINE
  8
Gravure
 62
   7
 39
0.400
  6
CONTINUOUS
 10
43.30318
 20
67.38472
 30
 0
 11
43.01531
 21
67.38472
  0
LINE
  8
Gravure
 62
   7
 39
0.400
  6
CONTINUOUS
 10
43.01531
 20
67.38472
 30
 0
 11
44.97279
 21
72.62385
  0
LINE
  8
Gravure
 62
   7
 39
0.400
  6
CONTINUOUS
 10
44.97279
 20
72.62385
 30
 0
 11
46.93027
 21
67.21200
  0
LINE
  8
Gravure
 62
   7
 39
0.400
  6
CONTINUOUS
 10
46.93027
 20
67.21200
 30
 0
 11
47.79386
 21
67.21200
  0
LINE
  8
Gravure
 62
   7
 39
0.400
  6
CONTINUOUS
 10
47.79386
 20
67.21200
 30
 0
 11
45.72124
 21
72.73900
  0
LINE
  8
Gravure
 62
   7
 39
0.400
  6
CONTINUOUS
 10
45.72124
 20
72.73900
 30
 0
 11
44.74250
 21
72.73900
  0
LINE
  8
Gravure
 62
   7
 39
0.400
  6
CONTINUOUS
 10
44.74250
 20
72.73900
 30
 0
 11
42.66988
 21
67.21200
  0
LINE
  8
Gravure
 62
   7
 39
0.400
  6
CONTINUOUS
 10
42.66988
 20
67.21200
 30
 0
 11
43.53347
 21
67.21200
  0
LINE
  8
Gravure
 62
   7
 39
0.400
  6
CONTINUOUS
 10
43.53347
 20
67.21200
 30
 0
 11
45.20308
 21
71.81783
  0
LINE
  8
Gravure
 62
   7
 39
0.400
  6
CONTINUOUS
 10
45.20308
 20
71.81783
 30
 0
 11
44.16677
 21
69.05433
  0
LINE
  8
Gravure
 62
   7
 39
0.400
  6
CONTINUOUS
 10
44.16677
 20
69.05433
 30
 0
 11
46.29697
 21
69.05433
  0
LINE
  8
Gravure
 62
   7
 39
0.400
  6
CONTINUOUS
 10
46.29697
 20
69.05433
 30
 0
 11
46.35454
 21
68.88161
  0
LINE
  8
Gravure
 62
   7
 39
0.400
  6
CONTINUOUS
 10
46.35454
 20
68.88161
 30
 0
 11
44.05163
 21
68.88161
  0
LINE
  8
Gravure
 62
   7
 39
0.400
  6
CONTINUOUS
 10
44.05163
 20
68.88161
 30
 0
 11
43.99405
 21
68.65132
  0
LINE
  8
Gravure
 62
   7
 39
0.400
  6
CONTINUOUS
 10
43.99405
 20
68.65132
 30
 0
 11
46.46969
 21
68.65132
  0
LINE
  8
Gravure
 62
   7
 39
0.400
  6
CONTINUOUS
 10
46.46969
 20
68.65132
 30
 0
 11
46.46969
 21
68.47860
  0
LINE
  8
Gravure
 62
   7
 39
0.400
  6
CONTINUOUS
 10
46.46969
 20
68.47860
 30
 0
 11
43.99405
 21
68.47860
  0
LINE
  8
Gravure
 62
   7
 39
0.400
  6
CONTINUOUS
 10
49.80960
 20
70.95424
 30
 0
 11
49.80960
 21
67.32715
  0
LINE
  8
Gravure
 62
   7
 39
0.400
  6
CONTINUOUS
 10
49.80960
 20
67.32715
 30
 0
 11
49.52174
 21
67.32715
  0
LINE
  8
Gravure
 62
   7
 39
0.400
  6
CONTINUOUS
 10
49.52174
 20
67.32715
 30
 0
 11
49.52174
 21
70.95424
  0
LINE
  8
Gravure
 62
   7
 39
0.400
  6
CONTINUOUS
 10
49.52174
 20
70.95424
 30
 0
 11
49.80960
 21
70.95424
  0
LINE
  8
Gravure
 62
   7
 39
0.400
  6
CONTINUOUS
 10
49.80960
 20
70.95424
 30
 0
 11
49.80960
 21
69.39977
  0
LINE
  8
Gravure
 62
   7
 39
0.400
  6
CONTINUOUS
 10
49.80960
 20
69.39977
 30
 0
 11
50.15504
 21
70.20579
  0
ARC
  8
Gravure
 62
   7
 39
0.400
  6
CONTINUOUS
 10
51.30013
 20
69.70407
 30
 0
 40
1.25018
 50
89.70818
 51
156.33956
  0
LINE
  8
Gravure
 62
   7
 39
0.400
  6
CONTINUOUS
 10
51.30650
 20
70.95424
 30
 0
 11
51.47922
 21
71.18453
  0
LINE
  8
Gravure
 62
   7
 39
0.400
  6
CONTINUOUS
 10
51.47922
 20
71.18453
 30
 0
 11
51.47922
 21
70.66637
  0
ARC
  8
Gravure
 62
   7
 39
0.400
  6
CONTINUOUS
 10
51.31152
 20
69.43596
 30
 0
 40
1.24179
 50
82.23857
 51
109.18262
  0
ARC
  8
Gravure
 62
   7
 39
0.400
  6
CONTINUOUS
 10
51.31038
 20
69.40523
 30
 0
 40
1.27049
 50
108.67857
 51
180.24608
  0
LINE
  8
Gravure
 62
   7
 39
0.400
  6
CONTINUOUS
 10
50.03990
 20
69.39977
 30
 0
 11
50.03990
 21
67.21200
  0
LINE
  8
Gravure
 62
   7
 39
0.400
  6
CONTINUOUS
 10
50.03990
 20
67.21200
 30
 0
 11
49.29145
 21
67.21200
  0
LINE
  8
Gravure
 62
   7
 39
0.400
  6
CONTINUOUS
 10
49.29145
 20
67.21200
 30
 0
 11
49.29145
 21
71.12696
  0
LINE
  8
Gravure
 62
   7
 39
0.400
  6
CONTINUOUS
 10
49.29145
 20
71.12696
 30
 0
 11
50.03990
 21
71.12696
  0
LINE
  8
Gravure
 62
   7
 39
0.400
  6
CONTINUOUS
 10
50.03990
 20
71.12696
 30
 0
 11
50.03990
 21
70.20579
  0
ARC
  8
Gravure
 62
   7
 39
0.400
  6
CONTINUOUS
 10
51.18624
 20
70.02385
 30
 0
 40
1.16070
 50
89.74765
 51
170.98142
  0
LINE
  8
Gravure
 62
   7
 39
0.400
  6
CONTINUOUS
 10
51.19135
 20
71.18453
 30
 0
 11
51.47922
 21
71.18453
  0
LINE
  8
Gravure
 62
   7
 39
0.400
  6
CONTINUOUS
 10
53.20674
 20
72.56628
 30
 0
 11
53.49460
 21
72.56628
  0
LINE
  8
Gravure
 62
   7
 39
0.400
  6
CONTINUOUS
 10
53.49460
 20
72.56628
 30
 0
 11
53.49460
 21
67.32715
  0
LINE
  8
Gravure
 62
   7
 39
0.400
  6
CONTINUOUS
 10
53.49460
 20
67.32715
 30
 0
 11
53.20674
 21
67.32715
  0
LINE
  8
Gravure
 62
   7
 39
0.400
  6
CONTINUOUS
 10
53.20674
 20
67.32715
 30
 0
 11
53.20674
 21
72.56628
  0
LINE
  8
Gravure
 62
   7
 39
0.400
  6
CONTINUOUS
 10
53.20674
 20
72.56628
 30
 0
 11
52.97645
 21
72.73900
  0
LINE
  8
Gravure
 62
   7
 39
0.400
  6
CONTINUOUS
 10
52.97645
 20
72.73900
 30
 0
 11
52.97645
 21
67.21200
  0
LINE
  8
Gravure
 62
   7
 39
0.400
  6
CONTINUOUS
 10
52.97645
 20
67.21200
 30
 0
 11
53.72490
 21
67.21200
  0
LINE
  8
Gravure
 62
   7
 39
0.400
  6
CONTINUOUS
 10
53.72490
 20
67.21200
 30
 0
 11
53.72490
 21
70.09065
  0
ARC
  8
Gravure
 62
   7
 39
0.400
  6
CONTINUOUS
 10
55.16422
 20
69.60195
 30
 0
 40
1.52003
 50
18.75412
 51
161.24588
  0
ARC
  8
Gravure
 62
   7
 39
0.400
  6
CONTINUOUS
 10
53.72494
 20
69.11191
 30
 0
 40
3.04044
 50
-18.77830
 51
18.77830
  0
ARC
  8
Gravure
 62
   7
 39
0.400
  6
CONTINUOUS
 10
55.16422
 20
68.62187
 30
 0
 40
1.52003
 50
198.75412
 51
341.24588
  0
LINE
  8
Gravure
 62
   7
 39
0.400
  6
CONTINUOUS
 10
53.72490
 20
68.13317
 30
 0
 11
53.72490
 21
70.09065
  0
ARC
  8
Gravure
 62
   7
 39
0.400
  6
CONTINUOUS
 10
56.01103
 20
68.59069
 30
 0
 40
2.73428
 50
128.72193
 51
146.73069
  0
ARC
  8
Gravure
 62
   7
 39
0.400
  6
CONTINUOUS
 10
55.04090
 20
69.55696
 30
 0
 40
1.38198
 50
22.71677
 51
122.38886
  0
ARC
  8
Gravure
 62
   7
 39
0.400
  6
CONTINUOUS
 10
53.92601
 20
69.11191
 30
 0
 40
2.58233
 50
-22.27262
 51
22.27262
  0
ARC
  8
Gravure
 62
   7
 39
0.400
  6
CONTINUOUS
 10
55.07762
 20
68.65216
 30
 0
 40
1.34243
 50
234.63405
 51
337.25674
  0
ARC
  8
Gravure
 62
   7
 39
0.400
  6
CONTINUOUS
 10
54.91785
 20
68.86405
 30
 0
 40
1.44506
 50
244.71459
 51
289.25983
  0
ARC
  8
Gravure
 62
   7
 39
0.400
  6
CONTINUOUS
 10
54.84159
 20
68.79689
 30
 0
 40
1.40996
 50
293.08857
 51
344.53958
  0
ARC
  8
Gravure
 62
   7
 39
0.400
  6
CONTINUOUS
 10
53.66615
 20
69.11191
 30
 0
 40
2.62686
 50
344.75161
 51
375.24839
  0
ARC
  8
Gravure
 62
   7
 39
0.400
  6
CONTINUOUS
 10
54.84159
 20
69.42692
 30
 0
 40
1.40996
 50
15.46042
 51
66.91143
  0
ARC
  8
Gravure
 62
   7
 39
0.400
  6
CONTINUOUS
 10
54.93780
 20
69.77870
 30
 0
 40
1.04980
 50
64.21174
 51
159.39108
  0
ARC
  8
Gravure
 62
   7
 39
0.400
  6
CONTINUOUS
 10
54.87635
 20
69.69429
 30
 0
 40
1.02694
 50
26.23287
 51
153.76713
  0
ARC
  8
Gravure
 62
   7
 39
0.400
  6
CONTINUOUS
 10
53.64667
 20
69.11191
 30
 0
 40
2.38749
 50
-25.72550
 51
25.72550
  0
ARC
  8
Gravure
 62
   7
 39
0.400
  6
CONTINUOUS
 10
54.87635
 20
68.52952
 30
 0
 40
1.02694
 50
206.23287
 51
333.76713
  0
ARC
  8
Gravure
 62
   7
 39
0.400
  6
CONTINUOUS
 10
56.10604
 20
69.11191
 30
 0
 40
2.38749
 50
154.27450
 51
205.72550
  0
LINE
  8
Gravure
 62
   7
 39
0.400
  6
CONTINUOUS
 10
53.95519
 20
70.14822
 30
 0
 11
53.72490
 21
70.09065
  0
LINE
  8
Gravure
 62
   7
 39
0.400
  6
CONTINUOUS
 10
53.72490
 20
70.09065
 30
 0
 11
53.72490
 21
72.73900
  0
LINE
  8
Gravure
 62
   7
 39
0.400
  6
CONTINUOUS
 10
53.72490
 20
72.73900
 30
 0
 11
52.97645
 21
72.73900
  0
LINE
  8
Gravure
 62
   7
 39
0.400
  6
CONTINUOUS
 10
58.44617
 20
72.22084
 30
 0
 11
58.73403
 21
72.22084
  0
LINE
  8
Gravure
 62
   7
 39
0.400
  6
CONTINUOUS
 10
58.73403
 20
72.22084
 30
 0
 11
58.73403
 21
72.50871
  0
LINE
  8
Gravure
 62
   7
 39
0.400
  6
CONTINUOUS
 10
58.73403
 20
72.50871
 30
 0
 11
58.44617
 21
72.50871
  0
LINE
  8
Gravure
 62
   7
 39
0.400
  6
CONTINUOUS
 10
58.44617
 20
72.50871
 30
 0
 11
58.44617
 21
72.22084
  0
LINE
  8
Gravure
 62
   7
 39
0.400
  6
CONTINUOUS
 10
58.44617
 20
72.22084
 30
 0
 11
58.21587
 21
71.99055
  0
LINE
  8
Gravure
 62
   7
 39
0.400
  6
CONTINUOUS
 10
58.21587
 20
71.99055
 30
 0
 11
58.96432
 21
71.99055
  0
LINE
  8
Gravure
 62
   7
 39
0.400
  6
CONTINUOUS
 10
58.96432
 20
71.99055
 30
 0
 11
58.96432
 21
72.73900
  0
LINE
  8
Gravure
 62
   7
 39
0.400
  6
CONTINUOUS
 10
58.96432
 20
72.73900
 30
 0
 11
58.21587
 21
72.73900
  0
LINE
  8
Gravure
 62
   7
 39
0.400
  6
CONTINUOUS
 10
58.21587
 20
72.73900
 30
 0
 11
58.21587
 21
71.99055
  0
LINE
  8
Gravure
 62
   7
 39
0.400
  6
CONTINUOUS
 10
58.73403
 20
70.95424
 30
 0
 11
58.73403
 21
67.32715
  0
LINE
  8
Gravure
 62
   7
 39
0.400
  6
CONTINUOUS
 10
58.73403
 20
67.32715
 30
 0
 11
58.44617
 21
67.32715
  0
LINE
  8
Gravure
 62
   7
 39
0.400
  6
CONTINUOUS
 10
58.44617
 20
67.32715
 30
 0
 11
58.44617
 21
70.95424
  0
LINE
  8
Gravure
 62
   7
 39
0.400
  6
CONTINUOUS
 10
58.44617
 20
70.95424
 30
 0
 11
58.73403
 21
70.95424
  0
LINE
  8
Gravure
 62
   7
 39
0.400
  6
CONTINUOUS
 10
58.73403
 20
70.95424
 30
 0
 11
58.96432
 21
71.12696
  0
LINE
  8
Gravure
 62
   7
 39
0.400
  6
CONTINUOUS
 10
58.96432
 20
71.12696
 30
 0
 11
58.96432
 21
67.21200
  0
LINE
  8
Gravure
 62
   7
 39
0.400
  6
CONTINUOUS
 10
58.96432
 20
67.21200
 30
 0
 11
58.21587
 21
67.21200
  0
LINE
  8
Gravure
 62
   7
 39
0.400
  6
CONTINUOUS
 10
58.21587
 20
67.21200
 30
 0
 11
58.21587
 21
71.12696
  0
LINE
  8
Gravure
 62
   7
 39
0.400
  6
CONTINUOUS
 10
58.21587
 20
71.12696
 30
 0
 11
58.96432
 21
71.12696
  0
LINE
  8
Gravure
 62
   7
 39
0.400
  6
CONTINUOUS
 10
61.15232
 20
72.56728
 30
 0
 11
61.44019
 21
72.56728
  0
LINE
  8
Gravure
 62
   7
 39
0.400
  6
CONTINUOUS
 10
61.44019
 20
72.56728
 30
 0
 11
61.44019
 21
68.30689
  0
ARC
  8
Gravure
 62
   7
 39
0.400
  6
CONTINUOUS
 10
62.12995
 20
68.30329
 30
 0
 40
0.68978
 50
179.70094
 51
274.88028
  0
LINE
  8
Gravure
 62
   7
 39
0.400
  6
CONTINUOUS
 10
62.18864
 20
67.61601
 30
 0
 11
62.18864
 21
67.38572
  0
LINE
  8
Gravure
 62
   7
 39
0.400
  6
CONTINUOUS
 10
62.18864
 20
67.38572
 30
 0
 11
61.95834
 21
67.38572
  0
ARC
  8
Gravure
 62
   7
 39
0.400
  6
CONTINUOUS
 10
61.95409
 20
68.18749
 30
 0
 40
0.80178
 50
179.69622
 51
270.30378
  0
LINE
  8
Gravure
 62
   7
 39
0.400
  6
CONTINUOUS
 10
61.15232
 20
68.19174
 30
 0
 11
61.15232
 21
72.56728
  0
LINE
  8
Gravure
 62
   7
 39
0.400
  6
CONTINUOUS
 10
61.15232
 20
72.56728
 30
 0
 11
60.92203
 21
72.74000
  0
LINE
  8
Gravure
 62
   7
 39
0.400
  6
CONTINUOUS
 10
60.92203
 20
72.74000
 30
 0
 11
61.67048
 21
72.74000
  0
LINE
  8
Gravure
 62
   7
 39
0.400
  6
CONTINUOUS
 10
61.67048
 20
72.74000
 30
 0
 11
61.67048
 21
68.30689
  0
ARC
  8
Gravure
 62
   7
 39
0.400
  6
CONTINUOUS
 10
62.18590
 20
68.30415
 30
 0
 40
0.51543
 50
179.69622
 51
270.30378
  0
LINE
  8
Gravure
 62
   7
 39
0.400
  6
CONTINUOUS
 10
62.18864
 20
67.78873
 30
 0
 11
62.41893
 21
67.78873
  0
LINE
  8
Gravure
 62
   7
 39
0.400
  6
CONTINUOUS
 10
62.41893
 20
67.78873
 30
 0
 11
62.41893
 21
67.21300
  0
LINE
  8
Gravure
 62
   7
 39
0.400
  6
CONTINUOUS
 10
62.41893
 20
67.21300
 30
 0
 11
61.95834
 21
67.21300
  0
ARC
  8
Gravure
 62
   7
 39
0.400
  6
CONTINUOUS
 10
61.95288
 20
68.24385
 30
 0
 40
1.03086
 50
179.69622
 51
270.30378
  0
LINE
  8
Gravure
 62
   7
 39
0.400
  6
CONTINUOUS
 10
60.92203
 20
68.24931
 30
 0
 11
60.92203
 21
72.74000
  0
LINE
  8
Gravure
 62
   7
 39
0.400
  6
CONTINUOUS
 10
60.51902
 20
70.78252
 30
 0
 11
62.24621
 21
70.78252
  0
LINE
  8
Gravure
 62
   7
 39
0.400
  6
CONTINUOUS
 10
62.24621
 20
70.78252
 30
 0
 11
62.41893
 21
71.01281
  0
LINE
  8
Gravure
 62
   7
 39
0.400
  6
CONTINUOUS
 10
62.41893
 20
71.01281
 30
 0
 11
62.41893
 21
70.55223
  0
LINE
  8
Gravure
 62
   7
 39
0.400
  6
CONTINUOUS
 10
62.41893
 20
70.55223
 30
 0
 11
60.40387
 21
70.55223
  0
LINE
  8
Gravure
 62
   7
 39
0.400
  6
CONTINUOUS
 10
60.40387
 20
70.55223
 30
 0
 11
60.40387
 21
71.01281
  0
LINE
  8
Gravure
 62
   7
 39
0.400
  6
CONTINUOUS
 10
60.40387
 20
71.01281
 30
 0
 11
62.41893
 21
71.01281
  0
LINE
  8
Gravure
 62
   7
 39
0.400
  6
CONTINUOUS
 10
64.43460
 20
70.95624
 30
 0
 11
64.43460
 21
67.32915
  0
LINE
  8
Gravure
 62
   7
 39
0.400
  6
CONTINUOUS
 10
64.43460
 20
67.32915
 30
 0
 11
64.14674
 21
67.32915
  0
LINE
  8
Gravure
 62
   7
 39
0.400
  6
CONTINUOUS
 10
64.14674
 20
67.32915
 30
 0
 11
64.14674
 21
70.95624
  0
LINE
  8
Gravure
 62
   7
 39
0.400
  6
CONTINUOUS
 10
64.14674
 20
70.95624
 30
 0
 11
64.43460
 21
70.95624
  0
LINE
  8
Gravure
 62
   7
 39
0.400
  6
CONTINUOUS
 10
64.43460
 20
70.95624
 30
 0
 11
64.43460
 21
69.40177
  0
LINE
  8
Gravure
 62
   7
 39
0.400
  6
CONTINUOUS
 10
64.43460
 20
69.40177
 30
 0
 11
64.78004
 21
70.20779
  0
ARC
  8
Gravure
 62
   7
 39
0.400
  6
CONTINUOUS
 10
65.92513
 20
69.70607
 30
 0
 40
1.25018
 50
89.70818
 51
156.33956
  0
LINE
  8
Gravure
 62
   7
 39
0.400
  6
CONTINUOUS
 10
65.93150
 20
70.95624
 30
 0
 11
66.10422
 21
71.18653
  0
LINE
  8
Gravure
 62
   7
 39
0.400
  6
CONTINUOUS
 10
66.10422
 20
71.18653
 30
 0
 11
66.10422
 21
70.66837
  0
ARC
  8
Gravure
 62
   7
 39
0.400
  6
CONTINUOUS
 10
65.93652
 20
69.43796
 30
 0
 40
1.24179
 50
82.23857
 51
109.18262
  0
ARC
  8
Gravure
 62
   7
 39
0.400
  6
CONTINUOUS
 10
65.93538
 20
69.40723
 30
 0
 40
1.27049
 50
108.67857
 51
180.24608
  0
LINE
  8
Gravure
 62
   7
 39
0.400
  6
CONTINUOUS
 10
64.66490
 20
69.40177
 30
 0
 11
64.66490
 21
67.21400
  0
LINE
  8
Gravure
 62
   7
 39
0.400
  6
CONTINUOUS
 10
64.66490
 20
67.21400
 30
 0
 11
63.91645
 21
67.21400
  0
LINE
  8
Gravure
 62
   7
 39
0.400
  6
CONTINUOUS
 10
63.91645
 20
67.21400
 30
 0
 11
63.91645
 21
71.12896
  0
LINE
  8
Gravure
 62
   7
 39
0.400
  6
CONTINUOUS
 10
63.91645
 20
71.12896
 30
 0
 11
64.66490
 21
71.12896
  0
LINE
  8
Gravure
 62
   7
 39
0.400
  6
CONTINUOUS
 10
64.66490
 20
71.12896
 30
 0
 11
64.66490
 21
70.20779
  0
ARC
  8
Gravure
 62
   7
 39
0.400
  6
CONTINUOUS
 10
65.81124
 20
70.02585
 30
 0
 40
1.16070
 50
89.74765
 51
170.98142
  0
LINE
  8
Gravure
 62
   7
 39
0.400
  6
CONTINUOUS
 10
65.81635
 20
71.18653
 30
 0
 11
66.10422
 21
71.18653
  0
ARC
  8
Gravure
 62
   7
 39
0.400
  6
CONTINUOUS
 10
69.04943
 20
69.91127
 30
 0
 40
1.03096
 50
106.71531
 51
163.28469
  0
ARC
  8
Gravure
 62
   7
 39
0.400
  6
CONTINUOUS
 10
69.40519
 20
68.68876
 30
 0
 40
2.30416
 50
65.38410
 51
106.44466
  0
ARC
  8
Gravure
 62
   7
 39
0.400
  6
CONTINUOUS
 10
70.03489
 20
70.06451
 30
 0
 40
0.79115
 50
2.03776
 51
65.34238
  0
LINE
  8
Gravure
 62
   7
 39
0.400
  6
CONTINUOUS
 10
70.82553
 20
70.09265
 30
 0
 11
70.82553
 21
67.50186
  0
LINE
  8
Gravure
 62
   7
 39
0.400
  6
CONTINUOUS
 10
70.82553
 20
67.50186
 30
 0
 11
70.94068
 21
67.27157
  0
LINE
  8
Gravure
 62
   7
 39
0.400
  6
CONTINUOUS
 10
70.94068
 20
67.27157
 30
 0
 11
70.65281
 21
67.90487
  0
LINE
  8
Gravure
 62
   7
 39
0.400
  6
CONTINUOUS
 10
70.65281
 20
67.90487
 30
 0
 11
70.65281
 21
67.32915
  0
LINE
  8
Gravure
 62
   7
 39
0.400
  6
CONTINUOUS
 10
70.65281
 20
67.32915
 30
 0
 11
70.42252
 21
67.73216
  0
LINE
  8
Gravure
 62
   7
 39
0.400
  6
CONTINUOUS
 10
70.42252
 20
67.73216
 30
 0
 11
70.65281
 21
68.25031
  0
ARC
  8
Gravure
 62
   7
 39
0.400
  6
CONTINUOUS
 10
69.20489
 20
69.38085
 30
 0
 40
1.83701
 50
277.47226
 51
322.01750
  0
ARC
  8
Gravure
 62
   7
 39
0.400
  6
CONTINUOUS
 10
69.08681
 20
69.06772
 30
 0
 40
1.54995
 50
244.00436
 51
283.31526
  0
ARC
  8
Gravure
 62
   7
 39
0.400
  6
CONTINUOUS
 10
68.77107
 20
68.25031
 30
 0
 40
0.68093
 50
122.27455
 51
237.72545
  0
ARC
  8
Gravure
 62
   7
 39
0.400
  6
CONTINUOUS
 10
67.33843
 20
73.91038
 30
 0
 40
5.19551
 50
281.87415
 51
308.81820
  0
LINE
  8
Gravure
 62
   7
 39
0.400
  6
CONTINUOUS
 10
70.59524
 20
69.86235
 30
 0
 11
70.30738
 21
69.45934
  0
LINE
  8
Gravure
 62
   7
 39
0.400
  6
CONTINUOUS
 10
70.30738
 20
69.45934
 30
 0
 11
70.30738
 21
68.59575
  0
ARC
  8
Gravure
 62
   7
 39
0.400
  6
CONTINUOUS
 10
69.34174
 20
68.60032
 30
 0
 40
0.96565
 50
286.53111
 51
359.72910
  0
ARC
  8
Gravure
 62
   7
 39
0.400
  6
CONTINUOUS
 10
69.26185
 20
68.87725
 30
 0
 40
1.25387
 50
240.15022
 51
286.43011
  0
ARC
  8
Gravure
 62
   7
 39
0.400
  6
CONTINUOUS
 10
68.89324
 20
68.24284
 30
 0
 40
0.52017
 50
145.40495
 51
240.58429
  0
ARC
  8
Gravure
 62
   7
 39
0.400
  6
CONTINUOUS
 10
69.29099
 20
67.97099
 30
 0
 40
1.00194
 50
104.46174
 51
145.52230
  0
ARC
  8
Gravure
 62
   7
 39
0.400
  6
CONTINUOUS
 10
65.78881
 20
81.84874
 30
 0
 40
13.31091
 50
284.14095
 51
287.74984
  0
ARC
  8
Gravure
 62
   7
 39
0.400
  6
CONTINUOUS
 10
69.51492
 20
70.21487
 30
 0
 40
1.09490
 50
287.64431
 51
316.36645
  0
LINE
  8
Gravure
 62
   7
 39
0.400
  6
CONTINUOUS
 10
70.30738
 20
69.45934
 30
 0
 11
70.59524
 21
70.03507
  0
LINE
  8
Gravure
 62
   7
 39
0.400
  6
CONTINUOUS
 10
70.59524
 20
70.03507
 30
 0
 11
70.59524
 21
68.65332
  0
ARC
  8
Gravure
 62
   7
 39
0.400
  6
CONTINUOUS
 10
68.95394
 20
69.02276
 30
 0
 40
1.68237
 50
244.69200
 51
347.31469
  0
ARC
  8
Gravure
 62
   7
 39
0.400
  6
CONTINUOUS
 10
68.58720
 20
68.17659
 30
 0
 40
0.76123
 50
156.46084
 51
242.41923
  0
ARC
  8
Gravure
 62
   7
 39
0.400
  6
CONTINUOUS
 10
68.82707
 20
68.08526
 30
 0
 40
1.01768
 50
107.40722
 51
157.14016
  0
ARC
  8
Gravure
 62
   7
 39
0.400
  6
CONTINUOUS
 10
66.07223
 20
79.90103
 30
 0
 40
11.11809
 50
282.73231
 51
291.75061
  0
ARC
  8
Gravure
 62
   7
 39
0.400
  6
CONTINUOUS
 10
69.91862
 20
70.13798
 30
 0
 40
0.62640
 50
295.89972
 51
429.82509
  0
ARC
  8
Gravure
 62
   7
 39
0.400
  6
CONTINUOUS
 10
69.53014
 20
68.75081
 30
 0
 40
2.06557
 50
72.98259
 51
107.01741
  0
ARC
  8
Gravure
 62
   7
 39
0.400
  6
CONTINUOUS
 10
69.07210
 20
69.98427
 30
 0
 40
0.75601
 50
101.17181
 51
162.80262
  0
LINE
  8
Gravure
 62
   7
 39
0.400
  6
CONTINUOUS
 10
68.34990
 20
70.20779
 30
 0
 11
68.06203
 21
70.20779
  0
LINE
  8
Gravure
 62
   7
 39
0.400
  6
CONTINUOUS
 10
68.06203
 20
70.20779
 30
 0
 11
67.83174
 21
70.03507
  0
LINE
  8
Gravure
 62
   7
 39
0.400
  6
CONTINUOUS
 10
67.83174
 20
70.03507
 30
 0
 11
68.58019
 21
70.03507
  0
ARC
  8
Gravure
 62
   7
 39
0.400
  6
CONTINUOUS
 10
69.09769
 20
70.03188
 30
 0
 40
0.51751
 50
116.34231
 51
179.64692
  0
ARC
  8
Gravure
 62
   7
 39
0.400
  6
CONTINUOUS
 10
69.44378
 20
69.30074
 30
 0
 40
1.32638
 50
64.27450
 51
115.72550
  0
ARC
  8
Gravure
 62
   7
 39
0.400
  6
CONTINUOUS
 10
69.80555
 20
70.05462
 30
 0
 40
0.49019
 50
-78.37089
 51
64.12086
  0
LINE
  8
Gravure
 62
   7
 39
0.400
  6
CONTINUOUS
 10
69.90436
 20
69.57449
 30
 0
 11
68.75291
 21
69.34420
  0
ARC
  8
Gravure
 62
   7
 39
0.400
  6
CONTINUOUS
 10
69.07354
 20
67.70310
 30
 0
 40
1.67213
 50
101.05508
 51
135.08989
  0
ARC
  8
Gravure
 62
   7
 39
0.400
  6
CONTINUOUS
 10
68.60409
 20
68.17270
 30
 0
 40
1.00812
 50
135.15524
 51
251.98563
  0
ARC
  8
Gravure
 62
   7
 39
0.400
  6
CONTINUOUS
 10
68.98320
 20
69.35313
 30
 0
 40
2.24793
 50
252.10108
 51
287.89892
  0
ARC
  8
Gravure
 62
   7
 39
0.400
  6
CONTINUOUS
 10
69.41537
 20
67.99086
 30
 0
 40
0.81880
 50
288.41840
 51
341.58160
  0
ARC
  8
Gravure
 62
   7
 39
0.400
  6
CONTINUOUS
 10
71.66609
 20
68.07695
 30
 0
 40
1.51365
 50
193.16699
 51
214.75799
  0
LINE
  8
Gravure
 62
   7
 39
0.400
  6
CONTINUOUS
 10
70.42252
 20
67.21400
 30
 0
 11
71.28611
 21
67.21400
  0
ARC
  8
Gravure
 62
   7
 39
0.400
  6
CONTINUOUS
 10
71.35480
 20
67.44543
 30
 0
 40
0.24141
 50
180.27090
 51
253.46889
  0
LINE
  8
Gravure
 62
   7
 39
0.400
  6
CONTINUOUS
 10
71.11340
 20
67.44429
 30
 0
 11
71.11340
 21
69.91993
  0
ARC
  8
Gravure
 62
   7
 39
0.400
  6
CONTINUOUS
 10
70.03170
 20
69.94234
 30
 0
 40
1.08193
 50
358.81324
 51
422.11785
  0
ARC
  8
Gravure
 62
   7
 39
0.400
  6
CONTINUOUS
 10
69.44378
 20
68.86580
 30
 0
 40
2.30849
 50
61.71531
 51
118.28469
  0
ARC
  8
Gravure
 62
   7
 39
0.400
  6
CONTINUOUS
 10
68.81472
 20
70.03253
 30
 0
 40
0.98298
 50
118.22084
 51
179.85165
  0
LINE
  8
Gravure
 62
   7
 39
0.400
  6
CONTINUOUS
 10
73.30160
 20
70.95624
 30
 0
 11
73.30160
 21
67.32915
  0
LINE
  8
Gravure
 62
   7
 39
0.400
  6
CONTINUOUS
 10
73.30160
 20
67.32915
 30
 0
 11
73.01374
 21
67.32915
  0
LINE
  8
Gravure
 62
   7
 39
0.400
  6
CONTINUOUS
 10
73.01374
 20
67.32915
 30
 0
 11
73.01374
 21
70.95624
  0
LINE
  8
Gravure
 62
   7
 39
0.400
  6
CONTINUOUS
 10
73.01374
 20
70.95624
 30
 0
 11
73.30160
 21
70.95624
  0
LINE
  8
Gravure
 62
   7
 39
0.400
  6
CONTINUOUS
 10
73.30160
 20
70.95624
 30
 0
 11
73.30160
 21
69.40177
  0
LINE
  8
Gravure
 62
   7
 39
0.400
  6
CONTINUOUS
 10
73.30160
 20
69.40177
 30
 0
 11
73.64704
 21
70.20779
  0
ARC
  8
Gravure
 62
   7
 39
0.400
  6
CONTINUOUS
 10
74.79213
 20
69.70607
 30
 0
 40
1.25018
 50
89.70818
 51
156.33956
  0
LINE
  8
Gravure
 62
   7
 39
0.400
  6
CONTINUOUS
 10
74.79850
 20
70.95624
 30
 0
 11
74.97122
 21
71.18653
  0
LINE
  8
Gravure
 62
   7
 39
0.400
  6
CONTINUOUS
 10
74.97122
 20
71.18653
 30
 0
 11
74.97122
 21
70.66837
  0
ARC
  8
Gravure
 62
   7
 39
0.400
  6
CONTINUOUS
 10
74.80352
 20
69.43796
 30
 0
 40
1.24179
 50
82.23857
 51
109.18262
  0
ARC
  8
Gravure
 62
   7
 39
0.400
  6
CONTINUOUS
 10
74.80238
 20
69.40723
 30
 0
 40
1.27049
 50
108.67857
 51
180.24608
  0
LINE
  8
Gravure
 62
   7
 39
0.400
  6
CONTINUOUS
 10
73.53190
 20
69.40177
 30
 0
 11
73.53190
 21
67.21400
  0
LINE
  8
Gravure
 62
   7
 39
0.400
  6
CONTINUOUS
 10
73.53190
 20
67.21400
 30
 0
 11
72.78345
 21
67.21400
  0
LINE
  8
Gravure
 62
   7
 39
0.400
  6
CONTINUOUS
 10
72.78345
 20
67.21400
 30
 0
 11
72.78345
 21
71.12896
  0
LINE
  8
Gravure
 62
   7
 39
0.400
  6
CONTINUOUS
 10
72.78345
 20
71.12896
 30
 0
 11
73.53190
 21
71.12896
  0
LINE
  8
Gravure
 62
   7
 39
0.400
  6
CONTINUOUS
 10
73.53190
 20
71.12896
 30
 0
 11
73.53190
 21
70.20779
  0
ARC
  8
Gravure
 62
   7
 39
0.400
  6
CONTINUOUS
 10
74.67824
 20
70.02585
 30
 0
 40
1.16070
 50
89.74765
 51
170.98142
  0
LINE
  8
Gravure
 62
   7
 39
0.400
  6
CONTINUOUS
 10
74.68335
 20
71.18653
 30
 0
 11
74.97122
 21
71.18653
  0
LINE
  8
Gravure
 62
   7
 39
0.400
  6
CONTINUOUS
 10
77.04418
 20
70.95624
 30
 0
 11
78.25321
 21
67.38672
  0
LINE
  8
Gravure
 62
   7
 39
0.400
  6
CONTINUOUS
 10
78.25321
 20
67.38672
 30
 0
 11
79.46224
 21
70.95624
  0
LINE
  8
Gravure
 62
   7
 39
0.400
  6
CONTINUOUS
 10
79.46224
 20
70.95624
 30
 0
 11
79.75010
 21
70.95624
  0
LINE
  8
Gravure
 62
   7
 39
0.400
  6
CONTINUOUS
 10
79.75010
 20
70.95624
 30
 0
 11
78.19564
 21
66.63827
  0
ARC
  8
Gravure
 62
   7
 39
0.400
  6
CONTINUOUS
 10
77.45092
 20
66.91434
 30
 0
 40
0.79423
 50
269.73040
 51
339.65990
  0
LINE
  8
Gravure
 62
   7
 39
0.400
  6
CONTINUOUS
 10
77.44719
 20
66.12011
 30
 0
 11
77.04418
 21
66.12011
  0
LINE
  8
Gravure
 62
   7
 39
0.400
  6
CONTINUOUS
 10
77.04418
 20
66.12011
 30
 0
 11
77.04418
 21
66.35041
  0
LINE
  8
Gravure
 62
   7
 39
0.400
  6
CONTINUOUS
 10
77.04418
 20
66.35041
 30
 0
 11
77.33204
 21
66.35041
  0
ARC
  8
Gravure
 62
   7
 39
0.400
  6
CONTINUOUS
 10
77.32463
 20
67.08884
 30
 0
 40
0.73847
 50
270.57467
 51
378.99014
  0
LINE
  8
Gravure
 62
   7
 39
0.400
  6
CONTINUOUS
 10
78.02292
 20
67.32915
 30
 0
 11
76.75631
 21
70.95624
  0
LINE
  8
Gravure
 62
   7
 39
0.400
  6
CONTINUOUS
 10
76.75631
 20
70.95624
 30
 0
 11
77.04418
 21
70.95624
  0
LINE
  8
Gravure
 62
   7
 39
0.400
  6
CONTINUOUS
 10
77.04418
 20
70.95624
 30
 0
 11
77.21690
 21
71.12896
  0
LINE
  8
Gravure
 62
   7
 39
0.400
  6
CONTINUOUS
 10
77.21690
 20
71.12896
 30
 0
 11
78.25321
 21
67.96245
  0
LINE
  8
Gravure
 62
   7
 39
0.400
  6
CONTINUOUS
 10
78.25321
 20
67.96245
 30
 0
 11
79.28952
 21
71.12896
  0
LINE
  8
Gravure
 62
   7
 39
0.400
  6
CONTINUOUS
 10
79.28952
 20
71.12896
 30
 0
 11
80.03797
 21
71.12896
  0
LINE
  8
Gravure
 62
   7
 39
0.400
  6
CONTINUOUS
 10
80.03797
 20
71.12896
 30
 0
 11
78.48350
 21
66.63827
  0
ARC
  8
Gravure
 62
   7
 39
0.400
  6
CONTINUOUS
 10
77.50015
 20
66.99264
 30
 0
 40
1.04526
 50
270.25284
 51
340.18234
  0
LINE
  8
Gravure
 62
   7
 39
0.400
  6
CONTINUOUS
 10
77.50476
 20
65.94740
 30
 0
 11
76.81389
 21
65.94740
  0
LINE
  8
Gravure
 62
   7
 39
0.400
  6
CONTINUOUS
 10
76.81389
 20
65.94740
 30
 0
 11
76.81389
 21
66.52312
  0
LINE
  8
Gravure
 62
   7
 39
0.400
  6
CONTINUOUS
 10
76.81389
 20
66.52312
 30
 0
 11
77.27447
 21
66.52312
  0
ARC
  8
Gravure
 62
   7
 39
0.400
  6
CONTINUOUS
 10
77.25654
 20
67.08912
 30
 0
 40
0.56628
 50
271.81439
 51
378.79530
  0
LINE
  8
Gravure
 62
   7
 39
0.400
  6
CONTINUOUS
 10
77.79263
 20
67.27157
 30
 0
 11
76.46845
 21
71.12896
  0
LINE
  8
Gravure
 62
   7
 39
0.400
  6
CONTINUOUS
 10
76.46845
 20
71.12896
 30
 0
 11
77.21690
 21
71.12896
  0
LINE
  8
Gravure
 62
   7
 39
0.400
  6
CONTINUOUS
 10
86.66031
 20
72.56828
 30
 0
 11
86.89060
 21
72.56828
  0
LINE
  8
Gravure
 62
   7
 39
0.400
  6
CONTINUOUS
 10
86.89060
 20
72.56828
 30
 0
 11
88.27235
 21
67.84730
  0
LINE
  8
Gravure
 62
   7
 39
0.400
  6
CONTINUOUS
 10
88.27235
 20
67.84730
 30
 0
 11
88.50265
 21
67.84730
  0
LINE
  8
Gravure
 62
   7
 39
0.400
  6
CONTINUOUS
 10
88.50265
 20
67.84730
 30
 0
 11
89.71168
 21
72.45314
  0
LINE
  8
Gravure
 62
   7
 39
0.400
  6
CONTINUOUS
 10
89.71168
 20
72.45314
 30
 0
 11
90.22983
 21
72.45314
  0
LINE
  8
Gravure
 62
   7
 39
0.400
  6
CONTINUOUS
 10
90.22983
 20
72.45314
 30
 0
 11
91.43886
 21
67.84730
  0
LINE
  8
Gravure
 62
   7
 39
0.400
  6
CONTINUOUS
 10
91.43886
 20
67.84730
 30
 0
 11
91.72673
 21
67.84730
  0
LINE
  8
Gravure
 62
   7
 39
0.400
  6
CONTINUOUS
 10
91.72673
 20
67.84730
 30
 0
 11
93.10848
 21
72.56828
  0
LINE
  8
Gravure
 62
   7
 39
0.400
  6
CONTINUOUS
 10
93.10848
 20
72.56828
 30
 0
 11
93.33877
 21
72.56828
  0
LINE
  8
Gravure
 62
   7
 39
0.400
  6
CONTINUOUS
 10
93.33877
 20
72.56828
 30
 0
 11
91.84188
 21
67.50186
  0
LINE
  8
Gravure
 62
   7
 39
0.400
  6
CONTINUOUS
 10
91.84188
 20
67.50186
 30
 0
 11
91.32372
 21
67.50186
  0
LINE
  8
Gravure
 62
   7
 39
0.400
  6
CONTINUOUS
 10
91.32372
 20
67.50186
 30
 0
 11
90.11469
 21
72.16527
  0
LINE
  8
Gravure
 62
   7
 39
0.400
  6
CONTINUOUS
 10
90.11469
 20
72.16527
 30
 0
 11
89.88440
 21
72.16527
  0
LINE
  8
Gravure
 62
   7
 39
0.400
  6
CONTINUOUS
 10
89.88440
 20
72.16527
 30
 0
 11
88.67536
 21
67.50186
  0
LINE
  8
Gravure
 62
   7
 39
0.400
  6
CONTINUOUS
 10
88.67536
 20
67.50186
 30
 0
 11
88.15721
 21
67.50186
  0
LINE
  8
Gravure
 62
   7
 39
0.400
  6
CONTINUOUS
 10
88.15721
 20
67.50186
 30
 0
 11
86.66031
 21
72.56828
  0
LINE
  8
Gravure
 62
   7
 39
0.400
  6
CONTINUOUS
 10
86.66031
 20
72.56828
 30
 0
 11
86.37245
 21
72.74100
  0
LINE
  8
Gravure
 62
   7
 39
0.400
  6
CONTINUOUS
 10
86.37245
 20
72.74100
 30
 0
 11
87.12090
 21
72.74100
  0
LINE
  8
Gravure
 62
   7
 39
0.400
  6
CONTINUOUS
 10
87.12090
 20
72.74100
 30
 0
 11
88.38750
 21
68.19274
  0
LINE
  8
Gravure
 62
   7
 39
0.400
  6
CONTINUOUS
 10
88.38750
 20
68.19274
 30
 0
 11
89.53896
 21
72.74100
  0
LINE
  8
Gravure
 62
   7
 39
0.400
  6
CONTINUOUS
 10
89.53896
 20
72.74100
 30
 0
 11
90.40255
 21
72.74100
  0
LINE
  8
Gravure
 62
   7
 39
0.400
  6
CONTINUOUS
 10
90.40255
 20
72.74100
 30
 0
 11
91.55401
 21
68.19274
  0
LINE
  8
Gravure
 62
   7
 39
0.400
  6
CONTINUOUS
 10
91.55401
 20
68.19274
 30
 0
 11
92.87819
 21
72.74100
  0
LINE
  8
Gravure
 62
   7
 39
0.400
  6
CONTINUOUS
 10
92.87819
 20
72.74100
 30
 0
 11
93.62664
 21
72.74100
  0
LINE
  8
Gravure
 62
   7
 39
0.400
  6
CONTINUOUS
 10
93.62664
 20
72.74100
 30
 0
 11
92.01459
 21
67.21400
  0
LINE
  8
Gravure
 62
   7
 39
0.400
  6
CONTINUOUS
 10
92.01459
 20
67.21400
 30
 0
 11
91.15100
 21
67.21400
  0
LINE
  8
Gravure
 62
   7
 39
0.400
  6
CONTINUOUS
 10
91.15100
 20
67.21400
 30
 0
 11
89.99954
 21
71.70469
  0
LINE
  8
Gravure
 62
   7
 39
0.400
  6
CONTINUOUS
 10
89.99954
 20
71.70469
 30
 0
 11
88.84808
 21
67.21400
  0
LINE
  8
Gravure
 62
   7
 39
0.400
  6
CONTINUOUS
 10
88.84808
 20
67.21400
 30
 0
 11
87.98449
 21
67.21400
  0
LINE
  8
Gravure
 62
   7
 39
0.400
  6
CONTINUOUS
 10
87.98449
 20
67.21400
 30
 0
 11
86.37245
 21
72.74100
  0
ARC
  8
Gravure
 62
   7
 39
0.400
  6
CONTINUOUS
 10
96.57243
 20
69.91127
 30
 0
 40
1.03096
 50
106.71531
 51
163.28469
  0
ARC
  8
Gravure
 62
   7
 39
0.400
  6
CONTINUOUS
 10
96.92819
 20
68.68876
 30
 0
 40
2.30416
 50
65.38410
 51
106.44466
  0
ARC
  8
Gravure
 62
   7
 39
0.400
  6
CONTINUOUS
 10
97.55789
 20
70.06451
 30
 0
 40
0.79115
 50
2.03776
 51
65.34238
  0
LINE
  8
Gravure
 62
   7
 39
0.400
  6
CONTINUOUS
 10
98.34853
 20
70.09265
 30
 0
 11
98.34853
 21
67.50186
  0
LINE
  8
Gravure
 62
   7
 39
0.400
  6
CONTINUOUS
 10
98.34853
 20
67.50186
 30
 0
 11
98.46368
 21
67.27157
  0
LINE
  8
Gravure
 62
   7
 39
0.400
  6
CONTINUOUS
 10
98.46368
 20
67.27157
 30
 0
 11
98.17581
 21
67.90487
  0
LINE
  8
Gravure
 62
   7
 39
0.400
  6
CONTINUOUS
 10
98.17581
 20
67.90487
 30
 0
 11
98.17581
 21
67.32915
  0
LINE
  8
Gravure
 62
   7
 39
0.400
  6
CONTINUOUS
 10
98.17581
 20
67.32915
 30
 0
 11
97.94552
 21
67.73216
  0
LINE
  8
Gravure
 62
   7
 39
0.400
  6
CONTINUOUS
 10
97.94552
 20
67.73216
 30
 0
 11
98.17581
 21
68.25031
  0
ARC
  8
Gravure
 62
   7
 39
0.400
  6
CONTINUOUS
 10
96.72789
 20
69.38085
 30
 0
 40
1.83701
 50
277.47226
 51
322.01750
  0
ARC
  8
Gravure
 62
   7
 39
0.400
  6
CONTINUOUS
 10
96.60981
 20
69.06772
 30
 0
 40
1.54995
 50
244.00436
 51
283.31526
  0
ARC
  8
Gravure
 62
   7
 39
0.400
  6
CONTINUOUS
 10
96.29407
 20
68.25031
 30
 0
 40
0.68093
 50
122.27455
 51
237.72545
  0
ARC
  8
Gravure
 62
   7
 39
0.400
  6
CONTINUOUS
 10
94.86143
 20
73.91038
 30
 0
 40
5.19551
 50
281.87415
 51
308.81820
  0
LINE
  8
Gravure
 62
   7
 39
0.400
  6
CONTINUOUS
 10
98.11824
 20
69.86235
 30
 0
 11
97.83038
 21
69.45934
  0
LINE
  8
Gravure
 62
   7
 39
0.400
  6
CONTINUOUS
 10
97.83038
 20
69.45934
 30
 0
 11
97.83038
 21
68.59575
  0
ARC
  8
Gravure
 62
   7
 39
0.400
  6
CONTINUOUS
 10
96.86474
 20
68.60032
 30
 0
 40
0.96565
 50
286.53111
 51
359.72910
  0
ARC
  8
Gravure
 62
   7
 39
0.400
  6
CONTINUOUS
 10
96.78485
 20
68.87725
 30
 0
 40
1.25387
 50
240.15022
 51
286.43011
  0
ARC
  8
Gravure
 62
   7
 39
0.400
  6
CONTINUOUS
 10
96.41624
 20
68.24284
 30
 0
 40
0.52017
 50
145.40495
 51
240.58429
  0
ARC
  8
Gravure
 62
   7
 39
0.400
  6
CONTINUOUS
 10
96.81399
 20
67.97099
 30
 0
 40
1.00194
 50
104.46174
 51
145.52230
  0
ARC
  8
Gravure
 62
   7
 39
0.400
  6
CONTINUOUS
 10
93.31181
 20
81.84874
 30
 0
 40
13.31091
 50
284.14095
 51
287.74984
  0
ARC
  8
Gravure
 62
   7
 39
0.400
  6
CONTINUOUS
 10
97.03792
 20
70.21487
 30
 0
 40
1.09490
 50
287.64431
 51
316.36645
  0
LINE
  8
Gravure
 62
   7
 39
0.400
  6
CONTINUOUS
 10
97.83038
 20
69.45934
 30
 0
 11
98.11824
 21
70.03507
  0
LINE
  8
Gravure
 62
   7
 39
0.400
  6
CONTINUOUS
 10
98.11824
 20
70.03507
 30
 0
 11
98.11824
 21
68.65332
  0
ARC
  8
Gravure
 62
   7
 39
0.400
  6
CONTINUOUS
 10
96.47694
 20
69.02276
 30
 0
 40
1.68237
 50
244.69200
 51
347.31469
  0
ARC
  8
Gravure
 62
   7
 39
0.400
  6
CONTINUOUS
 10
96.11020
 20
68.17659
 30
 0
 40
0.76123
 50
156.46084
 51
242.41923
  0
ARC
  8
Gravure
 62
   7
 39
0.400
  6
CONTINUOUS
 10
96.35007
 20
68.08526
 30
 0
 40
1.01768
 50
107.40722
 51
157.14016
  0
ARC
  8
Gravure
 62
   7
 39
0.400
  6
CONTINUOUS
 10
93.59523
 20
79.90103
 30
 0
 40
11.11809
 50
282.73231
 51
291.75061
  0
ARC
  8
Gravure
 62
   7
 39
0.400
  6
CONTINUOUS
 10
97.44162
 20
70.13798
 30
 0
 40
0.62640
 50
295.89972
 51
429.82509
  0
ARC
  8
Gravure
 62
   7
 39
0.400
  6
CONTINUOUS
 10
97.05314
 20
68.75081
 30
 0
 40
2.06557
 50
72.98259
 51
107.01741
  0
ARC
  8
Gravure
 62
   7
 39
0.400
  6
CONTINUOUS
 10
96.59510
 20
69.98427
 30
 0
 40
0.75601
 50
101.17181
 51
162.80262
  0
LINE
  8
Gravure
 62
   7
 39
0.400
  6
CONTINUOUS
 10
95.87290
 20
70.20779
 30
 0
 11
95.58503
 21
70.20779
  0
LINE
  8
Gravure
 62
   7
 39
0.400
  6
CONTINUOUS
 10
95.58503
 20
70.20779
 30
 0
 11
95.35474
 21
70.03507
  0
LINE
  8
Gravure
 62
   7
 39
0.400
  6
CONTINUOUS
 10
95.35474
 20
70.03507
 30
 0
 11
96.10319
 21
70.03507
  0
ARC
  8
Gravure
 62
   7
 39
0.400
  6
CONTINUOUS
 10
96.62069
 20
70.03188
 30
 0
 40
0.51751
 50
116.34231
 51
179.64692
  0
ARC
  8
Gravure
 62
   7
 39
0.400
  6
CONTINUOUS
 10
96.96678
 20
69.30074
 30
 0
 40
1.32638
 50
64.27450
 51
115.72550
  0
ARC
  8
Gravure
 62
   7
 39
0.400
  6
CONTINUOUS
 10
97.32855
 20
70.05462
 30
 0
 40
0.49019
 50
-78.37089
 51
64.12086
  0
LINE
  8
Gravure
 62
   7
 39
0.400
  6
CONTINUOUS
 10
97.42736
 20
69.57449
 30
 0
 11
96.27591
 21
69.34420
  0
ARC
  8
Gravure
 62
   7
 39
0.400
  6
CONTINUOUS
 10
96.59654
 20
67.70310
 30
 0
 40
1.67213
 50
101.05508
 51
135.08989
  0
ARC
  8
Gravure
 62
   7
 39
0.400
  6
CONTINUOUS
 10
96.12709
 20
68.17270
 30
 0
 40
1.00812
 50
135.15524
 51
251.98563
  0
ARC
  8
Gravure
 62
   7
 39
0.400
  6
CONTINUOUS
 10
96.50620
 20
69.35313
 30
 0
 40
2.24793
 50
252.10108
 51
287.89892
  0
ARC
  8
Gravure
 62
   7
 39
0.400
  6
CONTINUOUS
 10
96.93837
 20
67.99086
 30
 0
 40
0.81880
 50
288.41840
 51
341.58160
  0
ARC
  8
Gravure
 62
   7
 39
0.400
  6
CONTINUOUS
 10
99.18909
 20
68.07695
 30
 0
 40
1.51365
 50
193.16699
 51
214.75799
  0
LINE
  8
Gravure
 62
   7
 39
0.400
  6
CONTINUOUS
 10
97.94552
 20
67.21400
 30
 0
 11
98.80911
 21
67.21400
  0
ARC
  8
Gravure
 62
   7
 39
0.400
  6
CONTINUOUS
 10
98.87780
 20
67.44543
 30
 0
 40
0.24141
 50
180.27090
 51
253.46889
  0
LINE
  8
Gravure
 62
   7
 39
0.400
  6
CONTINUOUS
 10
98.63640
 20
67.44429
 30
 0
 11
98.63640
 21
69.91993
  0
ARC
  8
Gravure
 62
   7
 39
0.400
  6
CONTINUOUS
 10
97.55470
 20
69.94234
 30
 0
 40
1.08193
 50
358.81324
 51
422.11785
  0
ARC
  8
Gravure
 62
   7
 39
0.400
  6
CONTINUOUS
 10
96.96678
 20
68.86580
 30
 0
 40
2.30849
 50
61.71531
 51
118.28469
  0
ARC
  8
Gravure
 62
   7
 39
0.400
  6
CONTINUOUS
 10
96.33772
 20
70.03253
 30
 0
 40
0.98298
 50
118.22084
 51
179.85165
  0
LINE
  8
Gravure
 62
   7
 39
0.400
  6
CONTINUOUS
 10
100.88218
 20
70.89867
 30
 0
 11
101.97606
 21
67.67458
  0
LINE
  8
Gravure
 62
   7
 39
0.400
  6
CONTINUOUS
 10
101.97606
 20
67.67458
 30
 0
 11
102.20635
 21
67.67458
  0
LINE
  8
Gravure
 62
   7
 39
0.400
  6
CONTINUOUS
 10
102.20635
 20
67.67458
 30
 0
 11
103.30024
 21
70.89867
  0
LINE
  8
Gravure
 62
   7
 39
0.400
  6
CONTINUOUS
 10
103.30024
 20
70.89867
 30
 0
 11
103.58810
 21
70.89867
  0
LINE
  8
Gravure
 62
   7
 39
0.400
  6
CONTINUOUS
 10
103.58810
 20
70.89867
 30
 0
 11
102.37907
 21
67.38672
  0
LINE
  8
Gravure
 62
   7
 39
0.400
  6
CONTINUOUS
 10
102.37907
 20
67.38672
 30
 0
 11
101.80334
 21
67.38672
  0
LINE
  8
Gravure
 62
   7
 39
0.400
  6
CONTINUOUS
 10
101.80334
 20
67.38672
 30
 0
 11
100.59431
 21
70.89867
  0
LINE
  8
Gravure
 62
   7
 39
0.400
  6
CONTINUOUS
 10
100.59431
 20
70.89867
 30
 0
 11
100.88218
 21
70.89867
  0
LINE
  8
Gravure
 62
   7
 39
0.400
  6
CONTINUOUS
 10
100.88218
 20
70.89867
 30
 0
 11
101.05490
 21
71.07139
  0
LINE
  8
Gravure
 62
   7
 39
0.400
  6
CONTINUOUS
 10
101.05490
 20
71.07139
 30
 0
 11
102.09121
 21
67.90487
  0
LINE
  8
Gravure
 62
   7
 39
0.400
  6
CONTINUOUS
 10
102.09121
 20
67.90487
 30
 0
 11
103.12752
 21
71.07139
  0
LINE
  8
Gravure
 62
   7
 39
0.400
  6
CONTINUOUS
 10
103.12752
 20
71.07139
 30
 0
 11
103.87597
 21
71.07139
  0
LINE
  8
Gravure
 62
   7
 39
0.400
  6
CONTINUOUS
 10
103.87597
 20
71.07139
 30
 0
 11
102.55179
 21
67.21400
  0
LINE
  8
Gravure
 62
   7
 39
0.400
  6
CONTINUOUS
 10
102.55179
 20
67.21400
 30
 0
 11
101.63063
 21
67.21400
  0
LINE
  8
Gravure
 62
   7
 39
0.400
  6
CONTINUOUS
 10
101.63063
 20
67.21400
 30
 0
 11
100.30645
 21
71.07139
  0
LINE
  8
Gravure
 62
   7
 39
0.400
  6
CONTINUOUS
 10
100.30645
 20
71.07139
 30
 0
 11
101.05490
 21
71.07139
  0
LINE
  8
Gravure
 62
   7
 39
0.400
  6
CONTINUOUS
 10
106.17947
 20
69.34420
 30
 0
 11
108.65510
 21
69.34420
  0
ARC
  8
Gravure
 62
   7
 39
0.400
  6
CONTINUOUS
 10
107.04885
 20
69.31370
 30
 0
 40
1.60654
 50
1.08780
 51
47.36769
  0
ARC
  8
Gravure
 62
   7
 39
0.400
  6
CONTINUOUS
 10
107.21282
 20
69.54014
 30
 0
 40
1.32930
 50
45.95649
 51
130.34829
  0
ARC
  8
Gravure
 62
   7
 39
0.400
  6
CONTINUOUS
 10
107.79516
 20
69.17148
 30
 0
 40
1.99785
 50
136.24170
 51
223.75830
  0
ARC
  8
Gravure
 62
   7
 39
0.400
  6
CONTINUOUS
 10
107.22056
 20
68.73435
 30
 0
 40
1.28311
 50
227.40818
 51
308.64195
  0
ARC
  8
Gravure
 62
   7
 39
0.400
  6
CONTINUOUS
 10
106.64585
 20
69.39597
 30
 0
 40
2.15906
 50
309.59025
 51
320.40975
  0
LINE
  8
Gravure
 62
   7
 39
0.400
  6
CONTINUOUS
 10
108.30967
 20
68.02002
 30
 0
 11
108.59753
 21
68.02002
  0
ARC
  8
Gravure
 62
   7
 39
0.400
  6
CONTINUOUS
 10
107.22305
 20
68.94443
 30
 0
 40
1.65642
 50
192.15179
 51
326.07715
  0
ARC
  8
Gravure
 62
   7
 39
0.400
  6
CONTINUOUS
 10
108.00699
 20
69.17148
 30
 0
 40
2.47125
 50
166.52798
 51
193.47202
  0
ARC
  8
Gravure
 62
   7
 39
0.400
  6
CONTINUOUS
 10
107.15898
 20
69.43368
 30
 0
 40
1.58653
 50
54.54021
 51
168.60240
  0
ARC
  8
Gravure
 62
   7
 39
0.400
  6
CONTINUOUS
 10
107.11656
 20
69.17393
 30
 0
 40
1.82641
 50
-0.07692
 51
58.18613
  0
LINE
  8
Gravure
 62
   7
 39
0.400
  6
CONTINUOUS
 10
108.94297
 20
69.17148
 30
 0
 11
106.06432
 21
69.17148
  0
LINE
  8
Gravure
 62
   7
 39
0.400
  6
CONTINUOUS
 10
106.06432
 20
69.17148
 30
 0
 11
106.06432
 21
69.51692
  0
LINE
  8
Gravure
 62
   7
 39
0.400
  6
CONTINUOUS
 10
106.06432
 20
69.51692
 30
 0
 11
108.36724
 21
69.51692
  0
ARC
  8
Gravure
 62
   7
 39
0.400
  6
CONTINUOUS
 10
106.26072
 20
69.13630
 30
 0
 40
2.14063
 50
10.24201
 51
31.83301
  0
ARC
  8
Gravure
 62
   7
 39
0.400
  6
CONTINUOUS
 10
107.21578
 20
69.73439
 30
 0
 40
1.01377
 50
31.58481
 51
148.41519
  0
ARC
  8
Gravure
 62
   7
 39
0.400
  6
CONTINUOUS
 10
108.12664
 20
69.17148
 30
 0
 40
2.08453
 50
148.34769
 51
211.65231
  0
ARC
  8
Gravure
 62
   7
 39
0.400
  6
CONTINUOUS
 10
107.21369
 20
68.61376
 30
 0
 40
1.01472
 50
211.89666
 51
335.48612
  0
LINE
  8
Gravure
 62
   7
 39
0.400
  6
CONTINUOUS
 10
108.13695
 20
68.19274
 30
 0
 11
108.94297
 21
68.19274
  0
ARC
  8
Gravure
 62
   7
 39
0.400
  6
CONTINUOUS
 10
107.02324
 20
69.23480
 30
 0
 40
2.18432
 50
309.91510
 51
331.50609
  0
ARC
  8
Gravure
 62
   7
 39
0.400
  6
CONTINUOUS
 10
107.24457
 20
68.97494
 30
 0
 40
1.84300
 50
230.17875
 51
309.82125
  0
ARC
  8
Gravure
 62
   7
 39
0.400
  6
CONTINUOUS
 10
107.42487
 20
69.17148
 30
 0
 40
2.10944
 50
130.16395
 51
229.83605
  0
ARC
  8
Gravure
 62
   7
 39
0.400
  6
CONTINUOUS
 10
107.21578
 20
69.40254
 30
 0
 40
1.79804
 50
50.17875
 51
129.82125
  0
ARC
  8
Gravure
 62
   7
 39
0.400
  6
CONTINUOUS
 10
106.90694
 20
69.05038
 30
 0
 40
2.26633
 50
0.15042
 51
49.88336
  0
LINE
  8
Gravure
 62
   7
 39
0.400
  6
CONTINUOUS
 10
109.17326
 20
69.05633
 30
 0
 11
106.06432
 21
69.05633
  0
LINE
  8
Gravure
 62
   7
 39
0.400
  6
CONTINUOUS
 10
110.72802
 20
70.89867
 30
 0
 11
112.45521
 21
70.89867
  0
LINE
  8
Gravure
 62
   7
 39
0.400
  6
CONTINUOUS
 10
112.45521
 20
70.89867
 30
 0
 11
112.62793
 21
71.12896
  0
LINE
  8
Gravure
 62
   7
 39
0.400
  6
CONTINUOUS
 10
112.62793
 20
71.12896
 30
 0
 11
112.62793
 21
70.66837
  0
LINE
  8
Gravure
 62
   7
 39
0.400
  6
CONTINUOUS
 10
112.62793
 20
70.66837
 30
 0
 11
110.61288
 21
70.66837
  0
LINE
  8
Gravure
 62
   7
 39
0.400
  6
CONTINUOUS
 10
110.61288
 20
70.66837
 30
 0
 11
110.61288
 21
71.12896
  0
LINE
  8
Gravure
 62
   7
 39
0.400
  6
CONTINUOUS
 10
110.61288
 20
71.12896
 30
 0
 11
112.62793
 21
71.12896
  0
LINE
  8
Gravure
 62
   7
 39
0.400
  6
CONTINUOUS
 10
112.62793
 20
71.12896
 30
 0
 11
111.64919
 21
71.12896
  0
LINE
  8
Gravure
 62
   7
 39
0.400
  6
CONTINUOUS
 10
111.64919
 20
71.12896
 30
 0
 11
111.64919
 21
71.64711
  0
LINE
  8
Gravure
 62
   7
 39
0.400
  6
CONTINUOUS
 10
111.64919
 20
71.64711
 30
 0
 11
111.64919
 21
67.38672
  0
LINE
  8
Gravure
 62
   7
 39
0.400
  6
CONTINUOUS
 10
111.64919
 20
67.38672
 30
 0
 11
111.36132
 21
67.38672
  0
LINE
  8
Gravure
 62
   7
 39
0.400
  6
CONTINUOUS
 10
111.36132
 20
67.38672
 30
 0
 11
111.36132
 21
71.76226
  0
ARC
  8
Gravure
 62
   7
 39
0.400
  6
CONTINUOUS
 10
112.16309
 20
71.76651
 30
 0
 40
0.80178
 50
89.69622
 51
180.30378
  0
LINE
  8
Gravure
 62
   7
 39
0.400
  6
CONTINUOUS
 10
112.16734
 20
72.56828
 30
 0
 11
112.39764
 21
72.56828
  0
LINE
  8
Gravure
 62
   7
 39
0.400
  6
CONTINUOUS
 10
112.39764
 20
72.56828
 30
 0
 11
112.39764
 21
72.33799
  0
ARC
  8
Gravure
 62
   7
 39
0.400
  6
CONTINUOUS
 10
112.33895
 20
71.65071
 30
 0
 40
0.68978
 50
85.11972
 51
180.29906
  0
LINE
  8
Gravure
 62
   7
 39
0.400
  6
CONTINUOUS
 10
111.64919
 20
71.64711
 30
 0
 11
111.87948
 21
71.64711
  0
LINE
  8
Gravure
 62
   7
 39
0.400
  6
CONTINUOUS
 10
111.87948
 20
71.64711
 30
 0
 11
111.87948
 21
67.21400
  0
LINE
  8
Gravure
 62
   7
 39
0.400
  6
CONTINUOUS
 10
111.87948
 20
67.21400
 30
 0
 11
111.13103
 21
67.21400
  0
LINE
  8
Gravure
 62
   7
 39
0.400
  6
CONTINUOUS
 10
111.13103
 20
67.21400
 30
 0
 11
111.13103
 21
71.70469
  0
ARC
  8
Gravure
 62
   7
 39
0.400
  6
CONTINUOUS
 10
112.16188
 20
71.71015
 30
 0
 40
1.03086
 50
89.69622
 51
180.30378
  0
LINE
  8
Gravure
 62
   7
 39
0.400
  6
CONTINUOUS
 10
112.16734
 20
72.74100
 30
 0
 11
112.62793
 21
72.74100
  0
LINE
  8
Gravure
 62
   7
 39
0.400
  6
CONTINUOUS
 10
112.62793
 20
72.74100
 30
 0
 11
112.62793
 21
72.16527
  0
LINE
  8
Gravure
 62
   7
 39
0.400
  6
CONTINUOUS
 10
112.62793
 20
72.16527
 30
 0
 11
112.39764
 21
72.16527
  0
ARC
  8
Gravure
 62
   7
 39
0.400
  6
CONTINUOUS
 10
112.39490
 20
71.64985
 30
 0
 40
0.51543
 50
89.69622
 51
180.30378
  0
ARC
  8
Gravure
 62
   7
 39
0.400
  6
CONTINUOUS
 10
116.61269
 20
69.20027
 30
 0
 40
1.98460
 50
137.02080
 51
222.97920
  0
ARC
  8
Gravure
 62
   7
 39
0.400
  6
CONTINUOUS
 10
116.08193
 20
68.78360
 30
 0
 40
1.31347
 50
225.46682
 51
314.53318
  0
ARC
  8
Gravure
 62
   7
 39
0.400
  6
CONTINUOUS
 10
115.55116
 20
69.20027
 30
 0
 40
1.98460
 50
317.02080
 51
402.97920
  0
ARC
  8
Gravure
 62
   7
 39
0.400
  6
CONTINUOUS
 10
116.08193
 20
69.47913
 30
 0
 40
1.41501
 50
49.38312
 51
130.61688
  0
LINE
  8
Gravure
 62
   7
 39
0.400
  6
CONTINUOUS
 10
115.16076
 20
70.55323
 30
 0
 11
114.58503
 21
70.03507
  0
ARC
  8
Gravure
 62
   7
 39
0.400
  6
CONTINUOUS
 10
116.31097
 20
69.17148
 30
 0
 40
1.92994
 50
153.41840
 51
206.58160
  0
ARC
  8
Gravure
 62
   7
 39
0.400
  6
CONTINUOUS
 10
116.08193
 20
68.92522
 30
 0
 40
1.61920
 50
202.41190
 51
337.58810
  0
ARC
  8
Gravure
 62
   7
 39
0.400
  6
CONTINUOUS
 10
115.85288
 20
69.17148
 30
 0
 40
1.92994
 50
333.41840
 51
386.58160
  0
ARC
  8
Gravure
 62
   7
 39
0.400
  6
CONTINUOUS
 10
116.08193
 20
69.35914
 30
 0
 40
1.64243
 50
24.30182
 51
155.69818
  0
LINE
  8
Gravure
 62
   7
 39
0.400
  6
CONTINUOUS
 10
114.58503
 20
70.03507
 30
 0
 11
114.41231
 21
70.20779
  0
ARC
  8
Gravure
 62
   7
 39
0.400
  6
CONTINUOUS
 10
116.08193
 20
69.26151
 30
 0
 40
1.91913
 50
29.54324
 51
150.45676
  0
ARC
  8
Gravure
 62
   7
 39
0.400
  6
CONTINUOUS
 10
115.89206
 20
69.17148
 30
 0
 40
2.12876
 50
-29.13153
 51
29.13153
  0
ARC
  8
Gravure
 62
   7
 39
0.400
  6
CONTINUOUS
 10
116.08193
 20
69.08145
 30
 0
 40
1.91913
 50
209.54324
 51
330.45676
  0
ARC
  8
Gravure
 62
   7
 39
0.400
  6
CONTINUOUS
 10
116.27179
 20
69.17148
 30
 0
 40
2.12876
 50
150.86847
 51
209.13153
  0
LINE
  8
Gravure
 62
   7
 39
0.400
  6
CONTINUOUS
 10
114.41231
 20
70.20779
 30
 0
 11
114.98804
 21
69.91993
  0
ARC
  8
Gravure
 62
   7
 39
0.400
  6
CONTINUOUS
 10
116.08193
 20
69.58580
 30
 0
 40
1.14378
 50
16.98546
 51
163.01454
  0
ARC
  8
Gravure
 62
   7
 39
0.400
  6
CONTINUOUS
 10
114.73041
 20
69.17148
 30
 0
 40
2.55738
 50
-17.01741
 51
17.01741
  0
ARC
  8
Gravure
 62
   7
 39
0.400
  6
CONTINUOUS
 10
116.08193
 20
68.75716
 30
 0
 40
1.14378
 50
196.98546
 51
343.01454
  0
ARC
  8
Gravure
 62
   7
 39
0.400
  6
CONTINUOUS
 10
117.43345
 20
69.17148
 30
 0
 40
2.55738
 50
162.98259
 51
197.01741
  0
LINE
  8
Gravure
 62
   7
 39
0.400
  6
CONTINUOUS
 10
120.05360
 20
70.95624
 30
 0
 11
120.05360
 21
67.32915
  0
LINE
  8
Gravure
 62
   7
 39
0.400
  6
CONTINUOUS
 10
120.05360
 20
67.32915
 30
 0
 11
119.76574
 21
67.32915
  0
LINE
  8
Gravure
 62
   7
 39
0.400
  6
CONTINUOUS
 10
119.76574
 20
67.32915
 30
 0
 11
119.76574
 21
70.95624
  0
LINE
  8
Gravure
 62
   7
 39
0.400
  6
CONTINUOUS
 10
119.76574
 20
70.95624
 30
 0
 11
120.05360
 21
70.95624
  0
LINE
  8
Gravure
 62
   7
 39
0.400
  6
CONTINUOUS
 10
120.05360
 20
70.95624
 30
 0
 11
120.05360
 21
69.40177
  0
LINE
  8
Gravure
 62
   7
 39
0.400
  6
CONTINUOUS
 10
120.05360
 20
69.40177
 30
 0
 11
120.39904
 21
70.20779
  0
ARC
  8
Gravure
 62
   7
 39
0.400
  6
CONTINUOUS
 10
121.54413
 20
69.70607
 30
 0
 40
1.25018
 50
89.70818
 51
156.33956
  0
LINE
  8
Gravure
 62
   7
 39
0.400
  6
CONTINUOUS
 10
121.55050
 20
70.95624
 30
 0
 11
121.72322
 21
71.18653
  0
LINE
  8
Gravure
 62
   7
 39
0.400
  6
CONTINUOUS
 10
121.72322
 20
71.18653
 30
 0
 11
121.72322
 21
70.66837
  0
ARC
  8
Gravure
 62
   7
 39
0.400
  6
CONTINUOUS
 10
121.55552
 20
69.43796
 30
 0
 40
1.24179
 50
82.23857
 51
109.18262
  0
ARC
  8
Gravure
 62
   7
 39
0.400
  6
CONTINUOUS
 10
121.55438
 20
69.40723
 30
 0
 40
1.27049
 50
108.67857
 51
180.24608
  0
LINE
  8
Gravure
 62
   7
 39
0.400
  6
CONTINUOUS
 10
120.28390
 20
69.40177
 30
 0
 11
120.28390
 21
67.21400
  0
LINE
  8
Gravure
 62
   7
 39
0.400
  6
CONTINUOUS
 10
120.28390
 20
67.21400
 30
 0
 11
119.53545
 21
67.21400
  0
LINE
  8
Gravure
 62
   7
 39
0.400
  6
CONTINUOUS
 10
119.53545
 20
67.21400
 30
 0
 11
119.53545
 21
71.12896
  0
LINE
  8
Gravure
 62
   7
 39
0.400
  6
CONTINUOUS
 10
119.53545
 20
71.12896
 30
 0
 11
120.28390
 21
71.12896
  0
LINE
  8
Gravure
 62
   7
 39
0.400
  6
CONTINUOUS
 10
120.28390
 20
71.12896
 30
 0
 11
120.28390
 21
70.20779
  0
ARC
  8
Gravure
 62
   7
 39
0.400
  6
CONTINUOUS
 10
121.43024
 20
70.02585
 30
 0
 40
1.16070
 50
89.74765
 51
170.98142
  0
LINE
  8
Gravure
 62
   7
 39
0.400
  6
CONTINUOUS
 10
121.43535
 20
71.18653
 30
 0
 11
121.72322
 21
71.18653
  0
LINE
  8
Gravure
 62
   7
 39
0.400
  6
CONTINUOUS
 10
123.68003
 20
70.95624
 30
 0
 11
123.68003
 21
67.32915
  0
LINE
  8
Gravure
 62
   7
 39
0.400
  6
CONTINUOUS
 10
123.68003
 20
67.32915
 30
 0
 11
123.44974
 21
67.32915
  0
LINE
  8
Gravure
 62
   7
 39
0.400
  6
CONTINUOUS
 10
123.44974
 20
67.32915
 30
 0
 11
123.44974
 21
70.95624
  0
LINE
  8
Gravure
 62
   7
 39
0.400
  6
CONTINUOUS
 10
123.44974
 20
70.95624
 30
 0
 11
123.68003
 21
70.95624
  0
LINE
  8
Gravure
 62
   7
 39
0.400
  6
CONTINUOUS
 10
123.68003
 20
70.95624
 30
 0
 11
123.68003
 21
69.57449
  0
LINE
  8
Gravure
 62
   7
 39
0.400
  6
CONTINUOUS
 10
123.68003
 20
69.57449
 30
 0
 11
123.96790
 21
70.20779
  0
ARC
  8
Gravure
 62
   7
 39
0.400
  6
CONTINUOUS
 10
124.95763
 20
69.77170
 30
 0
 40
1.08155
 50
81.40037
 51
156.22121
  0
ARC
  8
Gravure
 62
   7
 39
0.400
  6
CONTINUOUS
 10
124.86952
 20
69.69703
 30
 0
 40
1.17103
 50
-0.36179
 51
77.68141
  0
LINE
  8
Gravure
 62
   7
 39
0.400
  6
CONTINUOUS
 10
126.04052
 20
69.68964
 30
 0
 11
126.04052
 21
67.32915
  0
LINE
  8
Gravure
 62
   7
 39
0.400
  6
CONTINUOUS
 10
126.04052
 20
67.32915
 30
 0
 11
126.27081
 21
67.32915
  0
LINE
  8
Gravure
 62
   7
 39
0.400
  6
CONTINUOUS
 10
126.27081
 20
67.32915
 30
 0
 11
126.27081
 21
69.57449
  0
ARC
  8
Gravure
 62
   7
 39
0.400
  6
CONTINUOUS
 10
129.13998
 20
68.71564
 30
 0
 40
2.99495
 50
143.53440
 51
163.33549
  0
ARC
  8
Gravure
 62
   7
 39
0.400
  6
CONTINUOUS
 10
127.56595
 20
69.69034
 30
 0
 40
1.15975
 50
82.85843
 51
136.02164
  0
ARC
  8
Gravure
 62
   7
 39
0.400
  6
CONTINUOUS
 10
127.46030
 20
69.69703
 30
 0
 40
1.17103
 50
-0.36179
 51
77.68141
  0
LINE
  8
Gravure
 62
   7
 39
0.400
  6
CONTINUOUS
 10
128.63130
 20
69.68964
 30
 0
 11
128.63130
 21
67.32915
  0
LINE
  8
Gravure
 62
   7
 39
0.400
  6
CONTINUOUS
 10
128.63130
 20
67.32915
 30
 0
 11
128.86159
 21
67.32915
  0
LINE
  8
Gravure
 62
   7
 39
0.400
  6
CONTINUOUS
 10
128.86159
 20
67.32915
 30
 0
 11
128.86159
 21
69.68964
  0
ARC
  8
Gravure
 62
   7
 39
0.400
  6
CONTINUOUS
 10
127.23833
 20
69.53374
 30
 0
 40
1.63074
 50
5.48592
 51
50.03116
  0
ARC
  8
Gravure
 62
   7
 39
0.400
  6
CONTINUOUS
 10
127.61804
 20
70.05277
 30
 0
 40
0.98995
 50
47.57619
 51
127.21869
  0
ARC
  8
Gravure
 62
   7
 39
0.400
  6
CONTINUOUS
 10
129.28862
 20
68.64568
 30
 0
 40
3.15750
 50
135.94875
 51
162.89280
  0
ARC
  8
Gravure
 62
   7
 39
0.400
  6
CONTINUOUS
 10
124.81539
 20
69.65746
 30
 0
 40
1.45779
 50
356.73740
 51
418.36822
  0
ARC
  8
Gravure
 62
   7
 39
0.400
  6
CONTINUOUS
 10
124.99967
 20
69.80947
 30
 0
 40
1.23412
 50
61.95370
 51
111.68664
  0
ARC
  8
Gravure
 62
   7
 39
0.400
  6
CONTINUOUS
 10
125.32762
 20
69.65070
 30
 0
 40
1.52285
 50
120.98535
 51
158.54194
  0
LINE
  8
Gravure
 62
   7
 39
0.400
  6
CONTINUOUS
 10
123.91032
 20
70.20779
 30
 0
 11
123.91032
 21
71.12896
  0
LINE
  8
Gravure
 62
   7
 39
0.400
  6
CONTINUOUS
 10
123.91032
 20
71.12896
 30
 0
 11
123.21945
 21
71.12896
  0
LINE
  8
Gravure
 62
   7
 39
0.400
  6
CONTINUOUS
 10
123.21945
 20
71.12896
 30
 0
 11
123.21945
 21
67.21400
  0
LINE
  8
Gravure
 62
   7
 39
0.400
  6
CONTINUOUS
 10
123.21945
 20
67.21400
 30
 0
 11
123.91032
 21
67.21400
  0
LINE
  8
Gravure
 62
   7
 39
0.400
  6
CONTINUOUS
 10
123.91032
 20
67.21400
 30
 0
 11
123.91032
 21
69.68964
  0
ARC
  8
Gravure
 62
   7
 39
0.400
  6
CONTINUOUS
 10
124.99584
 20
69.68535
 30
 0
 40
1.08552
 50
121.51072
 51
179.77377
  0
ARC
  8
Gravure
 62
   7
 39
0.400
  6
CONTINUOUS
 10
124.86028
 20
69.91036
 30
 0
 40
0.82284
 50
58.34769
 51
121.65231
  0
ARC
  8
Gravure
 62
   7
 39
0.400
  6
CONTINUOUS
 10
124.72472
 20
69.68535
 30
 0
 40
1.08552
 50
0.22623
 51
58.48928
  0
LINE
  8
Gravure
 62
   7
 39
0.400
  6
CONTINUOUS
 10
125.81023
 20
69.68964
 30
 0
 11
125.81023
 21
67.21400
  0
LINE
  8
Gravure
 62
   7
 39
0.400
  6
CONTINUOUS
 10
125.81023
 20
67.21400
 30
 0
 11
126.50110
 21
67.21400
  0
LINE
  8
Gravure
 62
   7
 39
0.400
  6
CONTINUOUS
 10
126.50110
 20
67.21400
 30
 0
 11
126.50110
 21
69.68964
  0
ARC
  8
Gravure
 62
   7
 39
0.400
  6
CONTINUOUS
 10
127.58662
 20
69.68535
 30
 0
 40
1.08552
 50
121.51072
 51
179.77377
  0
ARC
  8
Gravure
 62
   7
 39
0.400
  6
CONTINUOUS
 10
127.45106
 20
69.91036
 30
 0
 40
0.82284
 50
58.34769
 51
121.65231
  0
ARC
  8
Gravure
 62
   7
 39
0.400
  6
CONTINUOUS
 10
127.31550
 20
69.68535
 30
 0
 40
1.08552
 50
0.22623
 51
58.48928
  0
LINE
  8
Gravure
 62
   7
 39
0.400
  6
CONTINUOUS
 10
128.40101
 20
69.68964
 30
 0
 11
128.40101
 21
67.21400
  0
LINE
  8
Gravure
 62
   7
 39
0.400
  6
CONTINUOUS
 10
128.40101
 20
67.21400
 30
 0
 11
129.09189
 21
67.21400
  0
LINE
  8
Gravure
 62
   7
 39
0.400
  6
CONTINUOUS
 10
129.09189
 20
67.21400
 30
 0
 11
129.09189
 21
69.68964
  0
ARC
  8
Gravure
 62
   7
 39
0.400
  6
CONTINUOUS
 10
127.50954
 20
69.69009
 30
 0
 40
1.58234
 50
359.98345
 51
413.14665
  0
ARC
  8
Gravure
 62
   7
 39
0.400
  6
CONTINUOUS
 10
127.73892
 20
69.98718
 30
 0
 40
1.20706
 50
53.40100
 51
126.59900
  0
ARC
  8
Gravure
 62
   7
 39
0.400
  6
CONTINUOUS
 10
128.00137
 20
69.67779
 30
 0
 40
1.61213
 50
127.53164
 51
165.08823
  0
ARC
  8
Gravure
 62
   7
 39
0.400
  6
CONTINUOUS
 10
124.88569
 20
69.67779
 30
 0
 40
1.61213
 50
14.91177
 51
52.46836
  0
ARC
  8
Gravure
 62
   7
 39
0.400
  6
CONTINUOUS
 10
125.14814
 20
69.98718
 30
 0
 40
1.20706
 50
53.40100
 51
126.59900
  0
ARC
  8
Gravure
 62
   7
 39
0.400
  6
CONTINUOUS
 10
125.27004
 20
69.82003
 30
 0
 40
1.41393
 50
126.52655
 51
164.08314
  0
LINE
  8
Gravure
 62
   7
 39
0.400
  6
CONTINUOUS
 10
139.68484
 20
71.41682
 30
 0
 11
139.39698
 21
71.87741
  0
ARC
  8
Gravure
 62
   7
 39
0.400
  6
CONTINUOUS
 10
138.03249
 20
70.54390
 30
 0
 40
1.90790
 50
44.34194
 51
142.52532
  0
ARC
  8
Gravure
 62
   7
 39
0.400
  6
CONTINUOUS
 10
139.14616
 20
69.97750
 30
 0
 40
3.14462
 50
146.68431
 51
213.31569
  0
ARC
  8
Gravure
 62
   7
 39
0.400
  6
CONTINUOUS
 10
138.05743
 20
69.42689
 30
 0
 40
1.93730
 50
217.39656
 51
338.31007
  0
LINE
  8
Gravure
 62
   7
 39
0.400
  6
CONTINUOUS
 10
139.85756
 20
68.71090
 30
 0
 11
140.14543
 21
67.38672
  0
LINE
  8
Gravure
 62
   7
 39
0.400
  6
CONTINUOUS
 10
140.14543
 20
67.38672
 30
 0
 11
140.14543
 21
69.63206
  0
LINE
  8
Gravure
 62
   7
 39
0.400
  6
CONTINUOUS
 10
140.14543
 20
69.63206
 30
 0
 11
138.47581
 21
69.63206
  0
LINE
  8
Gravure
 62
   7
 39
0.400
  6
CONTINUOUS
 10
138.47581
 20
69.63206
 30
 0
 11
138.47581
 21
69.40177
  0
LINE
  8
Gravure
 62
   7
 39
0.400
  6
CONTINUOUS
 10
138.47581
 20
69.40177
 30
 0
 11
140.03028
 21
69.40177
  0
LINE
  8
Gravure
 62
   7
 39
0.400
  6
CONTINUOUS
 10
140.03028
 20
69.40177
 30
 0
 11
140.03028
 21
69.22905
  0
ARC
  8
Gravure
 62
   7
 39
0.400
  6
CONTINUOUS
 10
136.01739
 20
69.87761
 30
 0
 40
4.06496
 50
336.40162
 51
350.81930
  0
ARC
  8
Gravure
 62
   7
 39
0.400
  6
CONTINUOUS
 10
138.01523
 20
69.40080
 30
 0
 40
2.07528
 50
213.66786
 51
326.33214
  0
ARC
  8
Gravure
 62
   7
 39
0.400
  6
CONTINUOUS
 10
138.61379
 20
69.97750
 30
 0
 40
2.89694
 50
143.40100
 51
216.59900
  0
ARC
  8
Gravure
 62
   7
 39
0.400
  6
CONTINUOUS
 10
138.01523
 20
70.58437
 30
 0
 40
2.05871
 50
32.96891
 51
147.03109
  0
ARC
  8
Gravure
 62
   7
 39
0.400
  6
CONTINUOUS
 10
137.66743
 20
70.07188
 30
 0
 40
2.64038
 50
29.18092
 51
38.19922
  0
LINE
  8
Gravure
 62
   7
 39
0.400
  6
CONTINUOUS
 10
139.97271
 20
71.35925
 30
 0
 11
140.37572
 21
71.18653
  0
LINE
  8
Gravure
 62
   7
 39
0.400
  6
CONTINUOUS
 10
140.37572
 20
71.18653
 30
 0
 11
139.56970
 21
71.18653
  0
ARC
  8
Gravure
 62
   7
 39
0.400
  6
CONTINUOUS
 10
138.01523
 20
70.62212
 30
 0
 40
1.65376
 50
19.95543
 51
160.04457
  0
ARC
  8
Gravure
 62
   7
 39
0.400
  6
CONTINUOUS
 10
139.84575
 20
69.97750
 30
 0
 40
3.59442
 50
160.34455
 51
199.65545
  0
ARC
  8
Gravure
 62
   7
 39
0.400
  6
CONTINUOUS
 10
138.02013
 20
69.33299
 30
 0
 40
1.65841
 50
199.90106
 51
269.83056
  0
ARC
  8
Gravure
 62
   7
 39
0.400
  6
CONTINUOUS
 10
138.02627
 20
69.46372
 30
 0
 40
1.78917
 50
269.64637
 51
352.46326
  0
LINE
  8
Gravure
 62
   7
 39
0.400
  6
CONTINUOUS
 10
139.79999
 20
69.22905
 30
 0
 11
138.36067
 21
69.22905
  0
LINE
  8
Gravure
 62
   7
 39
0.400
  6
CONTINUOUS
 10
138.36067
 20
69.22905
 30
 0
 11
138.36067
 21
69.80478
  0
LINE
  8
Gravure
 62
   7
 39
0.400
  6
CONTINUOUS
 10
138.36067
 20
69.80478
 30
 0
 11
140.37572
 21
69.80478
  0
LINE
  8
Gravure
 62
   7
 39
0.400
  6
CONTINUOUS
 10
140.37572
 20
69.80478
 30
 0
 11
140.37572
 21
67.21400
  0
LINE
  8
Gravure
 62
   7
 39
0.400
  6
CONTINUOUS
 10
140.37572
 20
67.21400
 30
 0
 11
139.97271
 21
67.21400
  0
LINE
  8
Gravure
 62
   7
 39
0.400
  6
CONTINUOUS
 10
139.97271
 20
67.21400
 30
 0
 11
139.74242
 21
68.02002
  0
ARC
  8
Gravure
 62
   7
 39
0.400
  6
CONTINUOUS
 10
138.02288
 20
69.16433
 30
 0
 40
2.06549
 50
269.78779
 51
326.35718
  0
ARC
  8
Gravure
 62
   7
 39
0.400
  6
CONTINUOUS
 10
138.01452
 20
69.54429
 30
 0
 40
2.44544
 50
216.85335
 51
270.01655
  0
ARC
  8
Gravure
 62
   7
 39
0.400
  6
CONTINUOUS
 10
138.61607
 20
69.97750
 30
 0
 40
3.18664
 50
143.40100
 51
216.59900
  0
ARC
  8
Gravure
 62
   7
 39
0.400
  6
CONTINUOUS
 10
138.01523
 20
70.42844
 30
 0
 40
2.43541
 50
36.50955
 51
143.49045
  0
ARC
  8
Gravure
 62
   7
 39
0.400
  6
CONTINUOUS
 10
137.44318
 20
69.93887
 30
 0
 40
3.18692
 50
23.04760
 51
37.46528
  0
LINE
  8
Gravure
 62
   7
 39
0.400
  6
CONTINUOUS
 10
142.67847
 20
69.34420
 30
 0
 11
145.15410
 21
69.34420
  0
ARC
  8
Gravure
 62
   7
 39
0.400
  6
CONTINUOUS
 10
143.54785
 20
69.31370
 30
 0
 40
1.60654
 50
1.08780
 51
47.36769
  0
ARC
  8
Gravure
 62
   7
 39
0.400
  6
CONTINUOUS
 10
143.71182
 20
69.54014
 30
 0
 40
1.32930
 50
45.95649
 51
130.34829
  0
ARC
  8
Gravure
 62
   7
 39
0.400
  6
CONTINUOUS
 10
144.29416
 20
69.17148
 30
 0
 40
1.99785
 50
136.24170
 51
223.75830
  0
ARC
  8
Gravure
 62
   7
 39
0.400
  6
CONTINUOUS
 10
143.71956
 20
68.73435
 30
 0
 40
1.28311
 50
227.40818
 51
308.64195
  0
ARC
  8
Gravure
 62
   7
 39
0.400
  6
CONTINUOUS
 10
143.14485
 20
69.39597
 30
 0
 40
2.15906
 50
309.59025
 51
320.40975
  0
LINE
  8
Gravure
 62
   7
 39
0.400
  6
CONTINUOUS
 10
144.80867
 20
68.02002
 30
 0
 11
145.09653
 21
68.02002
  0
ARC
  8
Gravure
 62
   7
 39
0.400
  6
CONTINUOUS
 10
143.72205
 20
68.94443
 30
 0
 40
1.65642
 50
192.15179
 51
326.07715
  0
ARC
  8
Gravure
 62
   7
 39
0.400
  6
CONTINUOUS
 10
144.50599
 20
69.17148
 30
 0
 40
2.47125
 50
166.52798
 51
193.47202
  0
ARC
  8
Gravure
 62
   7
 39
0.400
  6
CONTINUOUS
 10
143.65798
 20
69.43368
 30
 0
 40
1.58653
 50
54.54021
 51
168.60240
  0
ARC
  8
Gravure
 62
   7
 39
0.400
  6
CONTINUOUS
 10
143.61556
 20
69.17393
 30
 0
 40
1.82641
 50
-0.07692
 51
58.18613
  0
LINE
  8
Gravure
 62
   7
 39
0.400
  6
CONTINUOUS
 10
145.44197
 20
69.17148
 30
 0
 11
142.56332
 21
69.17148
  0
LINE
  8
Gravure
 62
   7
 39
0.400
  6
CONTINUOUS
 10
142.56332
 20
69.17148
 30
 0
 11
142.56332
 21
69.51692
  0
LINE
  8
Gravure
 62
   7
 39
0.400
  6
CONTINUOUS
 10
142.56332
 20
69.51692
 30
 0
 11
144.86624
 21
69.51692
  0
ARC
  8
Gravure
 62
   7
 39
0.400
  6
CONTINUOUS
 10
142.75972
 20
69.13630
 30
 0
 40
2.14063
 50
10.24201
 51
31.83301
  0
ARC
  8
Gravure
 62
   7
 39
0.400
  6
CONTINUOUS
 10
143.71478
 20
69.73439
 30
 0
 40
1.01377
 50
31.58481
 51
148.41519
  0
ARC
  8
Gravure
 62
   7
 39
0.400
  6
CONTINUOUS
 10
144.62564
 20
69.17148
 30
 0
 40
2.08453
 50
148.34769
 51
211.65231
  0
ARC
  8
Gravure
 62
   7
 39
0.400
  6
CONTINUOUS
 10
143.71269
 20
68.61376
 30
 0
 40
1.01472
 50
211.89666
 51
335.48612
  0
LINE
  8
Gravure
 62
   7
 39
0.400
  6
CONTINUOUS
 10
144.63595
 20
68.19274
 30
 0
 11
145.44197
 21
68.19274
  0
ARC
  8
Gravure
 62
   7
 39
0.400
  6
CONTINUOUS
 10
143.52224
 20
69.23480
 30
 0
 40
2.18432
 50
309.91510
 51
331.50609
  0
ARC
  8
Gravure
 62
   7
 39
0.400
  6
CONTINUOUS
 10
143.74357
 20
68.97494
 30
 0
 40
1.84300
 50
230.17875
 51
309.82125
  0
ARC
  8
Gravure
 62
   7
 39
0.400
  6
CONTINUOUS
 10
143.92387
 20
69.17148
 30
 0
 40
2.10944
 50
130.16395
 51
229.83605
  0
ARC
  8
Gravure
 62
   7
 39
0.400
  6
CONTINUOUS
 10
143.71478
 20
69.40254
 30
 0
 40
1.79804
 50
50.17875
 51
129.82125
  0
ARC
  8
Gravure
 62
   7
 39
0.400
  6
CONTINUOUS
 10
143.40594
 20
69.05038
 30
 0
 40
2.26633
 50
0.15042
 51
49.88336
  0
LINE
  8
Gravure
 62
   7
 39
0.400
  6
CONTINUOUS
 10
145.67226
 20
69.05633
 30
 0
 11
142.56332
 21
69.05633
  0
LINE
  8
Gravure
 62
   7
 39
0.400
  6
CONTINUOUS
 10
147.68660
 20
70.84109
 30
 0
 11
147.68660
 21
67.32915
  0
LINE
  8
Gravure
 62
   7
 39
0.400
  6
CONTINUOUS
 10
147.68660
 20
67.32915
 30
 0
 11
147.39874
 21
67.32915
  0
LINE
  8
Gravure
 62
   7
 39
0.400
  6
CONTINUOUS
 10
147.39874
 20
67.32915
 30
 0
 11
147.39874
 21
70.84109
  0
LINE
  8
Gravure
 62
   7
 39
0.400
  6
CONTINUOUS
 10
147.39874
 20
70.84109
 30
 0
 11
147.68660
 21
70.84109
  0
LINE
  8
Gravure
 62
   7
 39
0.400
  6
CONTINUOUS
 10
147.68660
 20
70.84109
 30
 0
 11
147.91690
 21
71.01381
  0
LINE
  8
Gravure
 62
   7
 39
0.400
  6
CONTINUOUS
 10
147.91690
 20
71.01381
 30
 0
 11
147.91690
 21
67.21400
  0
LINE
  8
Gravure
 62
   7
 39
0.400
  6
CONTINUOUS
 10
147.91690
 20
67.21400
 30
 0
 11
147.16845
 21
67.21400
  0
LINE
  8
Gravure
 62
   7
 39
0.400
  6
CONTINUOUS
 10
147.16845
 20
67.21400
 30
 0
 11
147.16845
 21
71.01381
  0
LINE
  8
Gravure
 62
   7
 39
0.400
  6
CONTINUOUS
 10
147.16845
 20
71.01381
 30
 0
 11
147.91690
 21
71.01381
  0
LINE
  8
Gravure
 62
   7
 39
0.400
  6
CONTINUOUS
 10
147.91690
 20
71.01381
 30
 0
 11
147.91690
 21
70.20779
  0
ARC
  8
Gravure
 62
   7
 39
0.400
  6
CONTINUOUS
 10
149.21519
 20
69.81426
 30
 0
 40
1.35663
 50
42.22363
 51
163.13714
  0
ARC
  8
Gravure
 62
   7
 39
0.400
  6
CONTINUOUS
 10
149.09932
 20
69.69368
 30
 0
 40
1.52351
 50
-0.15220
 51
42.65321
  0
LINE
  8
Gravure
 62
   7
 39
0.400
  6
CONTINUOUS
 10
150.62282
 20
69.68964
 30
 0
 11
150.62282
 21
67.21400
  0
LINE
  8
Gravure
 62
   7
 39
0.400
  6
CONTINUOUS
 10
150.62282
 20
67.21400
 30
 0
 11
149.87437
 21
67.21400
  0
LINE
  8
Gravure
 62
   7
 39
0.400
  6
CONTINUOUS
 10
149.87437
 20
67.21400
 30
 0
 11
149.87437
 21
69.68964
  0
ARC
  8
Gravure
 62
   7
 39
0.400
  6
CONTINUOUS
 10
148.77567
 20
69.69664
 30
 0
 40
1.09873
 50
359.63481
 51
402.44021
  0
ARC
  8
Gravure
 62
   7
 39
0.400
  6
CONTINUOUS
 10
148.89564
 20
69.80700
 30
 0
 40
0.93572
 50
42.41033
 51
137.58967
  0
ARC
  8
Gravure
 62
   7
 39
0.400
  6
CONTINUOUS
 10
149.01560
 20
69.69664
 30
 0
 40
1.09873
 50
137.55979
 51
180.36519
  0
ARC
  8
Gravure
 62
   7
 39
0.400
  6
CONTINUOUS
 10
149.03690
 20
69.79861
 30
 0
 40
1.12530
 50
118.92577
 51
185.55715
  0
ARC
  8
Gravure
 62
   7
 39
0.400
  6
CONTINUOUS
 10
149.17274
 20
69.77036
 30
 0
 40
1.22027
 50
1.61662
 51
123.87272
  0
LINE
  8
Gravure
 62
   7
 39
0.400
  6
CONTINUOUS
 10
150.39253
 20
69.80478
 30
 0
 11
150.39253
 21
67.32915
  0
LINE
  8
Gravure
 62
   7
 39
0.400
  6
CONTINUOUS
 10
150.39253
 20
67.32915
 30
 0
 11
150.10467
 21
67.32915
  0
LINE
  8
Gravure
 62
   7
 39
0.400
  6
CONTINUOUS
 10
150.10467
 20
67.32915
 30
 0
 11
150.10467
 21
69.80478
  0
ARC
  8
Gravure
 62
   7
 39
0.400
  6
CONTINUOUS
 10
149.05143
 20
69.80507
 30
 0
 40
1.05324
 50
359.98432
 51
439.62682
  0
LINE
  8
Gravure
 62
   7
 39
0.400
  6
CONTINUOUS
 10
152.92547
 20
69.34420
 30
 0
 11
155.40110
 21
69.34420
  0
ARC
  8
Gravure
 62
   7
 39
0.400
  6
CONTINUOUS
 10
153.79485
 20
69.31370
 30
 0
 40
1.60654
 50
1.08780
 51
47.36769
  0
ARC
  8
Gravure
 62
   7
 39
0.400
  6
CONTINUOUS
 10
153.95882
 20
69.54014
 30
 0
 40
1.32930
 50
45.95649
 51
130.34829
  0
ARC
  8
Gravure
 62
   7
 39
0.400
  6
CONTINUOUS
 10
154.54116
 20
69.17148
 30
 0
 40
1.99785
 50
136.24170
 51
223.75830
  0
ARC
  8
Gravure
 62
   7
 39
0.400
  6
CONTINUOUS
 10
153.96656
 20
68.73435
 30
 0
 40
1.28311
 50
227.40818
 51
308.64195
  0
ARC
  8
Gravure
 62
   7
 39
0.400
  6
CONTINUOUS
 10
153.39185
 20
69.39597
 30
 0
 40
2.15906
 50
309.59025
 51
320.40975
  0
LINE
  8
Gravure
 62
   7
 39
0.400
  6
CONTINUOUS
 10
155.05567
 20
68.02002
 30
 0
 11
155.34353
 21
68.02002
  0
ARC
  8
Gravure
 62
   7
 39
0.400
  6
CONTINUOUS
 10
153.96905
 20
68.94443
 30
 0
 40
1.65642
 50
192.15179
 51
326.07715
  0
ARC
  8
Gravure
 62
   7
 39
0.400
  6
CONTINUOUS
 10
154.75299
 20
69.17148
 30
 0
 40
2.47125
 50
166.52798
 51
193.47202
  0
ARC
  8
Gravure
 62
   7
 39
0.400
  6
CONTINUOUS
 10
153.90498
 20
69.43368
 30
 0
 40
1.58653
 50
54.54021
 51
168.60240
  0
ARC
  8
Gravure
 62
   7
 39
0.400
  6
CONTINUOUS
 10
153.86256
 20
69.17393
 30
 0
 40
1.82641
 50
-0.07692
 51
58.18613
  0
LINE
  8
Gravure
 62
   7
 39
0.400
  6
CONTINUOUS
 10
155.68897
 20
69.17148
 30
 0
 11
152.81032
 21
69.17148
  0
LINE
  8
Gravure
 62
   7
 39
0.400
  6
CONTINUOUS
 10
152.81032
 20
69.17148
 30
 0
 11
152.81032
 21
69.51692
  0
LINE
  8
Gravure
 62
   7
 39
0.400
  6
CONTINUOUS
 10
152.81032
 20
69.51692
 30
 0
 11
155.11324
 21
69.51692
  0
ARC
  8
Gravure
 62
   7
 39
0.400
  6
CONTINUOUS
 10
153.00672
 20
69.13630
 30
 0
 40
2.14063
 50
10.24201
 51
31.83301
  0
ARC
  8
Gravure
 62
   7
 39
0.400
  6
CONTINUOUS
 10
153.96178
 20
69.73439
 30
 0
 40
1.01377
 50
31.58481
 51
148.41519
  0
ARC
  8
Gravure
 62
   7
 39
0.400
  6
CONTINUOUS
 10
154.87264
 20
69.17148
 30
 0
 40
2.08453
 50
148.34769
 51
211.65231
  0
ARC
  8
Gravure
 62
   7
 39
0.400
  6
CONTINUOUS
 10
153.95969
 20
68.61376
 30
 0
 40
1.01472
 50
211.89666
 51
335.48612
  0
LINE
  8
Gravure
 62
   7
 39
0.400
  6
CONTINUOUS
 10
154.88295
 20
68.19274
 30
 0
 11
155.68897
 21
68.19274
  0
ARC
  8
Gravure
 62
   7
 39
0.400
  6
CONTINUOUS
 10
153.76924
 20
69.23480
 30
 0
 40
2.18432
 50
309.91510
 51
331.50609
  0
ARC
  8
Gravure
 62
   7
 39
0.400
  6
CONTINUOUS
 10
153.99057
 20
68.97494
 30
 0
 40
1.84300
 50
230.17875
 51
309.82125
  0
ARC
  8
Gravure
 62
   7
 39
0.400
  6
CONTINUOUS
 10
154.17087
 20
69.17148
 30
 0
 40
2.10944
 50
130.16395
 51
229.83605
  0
ARC
  8
Gravure
 62
   7
 39
0.400
  6
CONTINUOUS
 10
153.96178
 20
69.40254
 30
 0
 40
1.79804
 50
50.17875
 51
129.82125
  0
ARC
  8
Gravure
 62
   7
 39
0.400
  6
CONTINUOUS
 10
153.65294
 20
69.05038
 30
 0
 40
2.26633
 50
0.15042
 51
49.88336
  0
LINE
  8
Gravure
 62
   7
 39
0.400
  6
CONTINUOUS
 10
155.91926
 20
69.05633
 30
 0
 11
152.81032
 21
69.05633
  0
LINE
  8
Gravure
 62
   7
 39
0.400
  6
CONTINUOUS
 10
157.93360
 20
70.95624
 30
 0
 11
157.93360
 21
67.32915
  0
LINE
  8
Gravure
 62
   7
 39
0.400
  6
CONTINUOUS
 10
157.93360
 20
67.32915
 30
 0
 11
157.64574
 21
67.32915
  0
LINE
  8
Gravure
 62
   7
 39
0.400
  6
CONTINUOUS
 10
157.64574
 20
67.32915
 30
 0
 11
157.64574
 21
70.95624
  0
LINE
  8
Gravure
 62
   7
 39
0.400
  6
CONTINUOUS
 10
157.64574
 20
70.95624
 30
 0
 11
157.93360
 21
70.95624
  0
LINE
  8
Gravure
 62
   7
 39
0.400
  6
CONTINUOUS
 10
157.93360
 20
70.95624
 30
 0
 11
157.93360
 21
69.40177
  0
LINE
  8
Gravure
 62
   7
 39
0.400
  6
CONTINUOUS
 10
157.93360
 20
69.40177
 30
 0
 11
158.27904
 21
70.20779
  0
ARC
  8
Gravure
 62
   7
 39
0.400
  6
CONTINUOUS
 10
159.42413
 20
69.70607
 30
 0
 40
1.25018
 50
89.70818
 51
156.33956
  0
LINE
  8
Gravure
 62
   7
 39
0.400
  6
CONTINUOUS
 10
159.43050
 20
70.95624
 30
 0
 11
159.60322
 21
71.18653
  0
LINE
  8
Gravure
 62
   7
 39
0.400
  6
CONTINUOUS
 10
159.60322
 20
71.18653
 30
 0
 11
159.60322
 21
70.66837
  0
ARC
  8
Gravure
 62
   7
 39
0.400
  6
CONTINUOUS
 10
159.43552
 20
69.43796
 30
 0
 40
1.24179
 50
82.23857
 51
109.18262
  0
ARC
  8
Gravure
 62
   7
 39
0.400
  6
CONTINUOUS
 10
159.43438
 20
69.40723
 30
 0
 40
1.27049
 50
108.67857
 51
180.24608
  0
LINE
  8
Gravure
 62
   7
 39
0.400
  6
CONTINUOUS
 10
158.16390
 20
69.40177
 30
 0
 11
158.16390
 21
67.21400
  0
LINE
  8
Gravure
 62
   7
 39
0.400
  6
CONTINUOUS
 10
158.16390
 20
67.21400
 30
 0
 11
157.41545
 21
67.21400
  0
LINE
  8
Gravure
 62
   7
 39
0.400
  6
CONTINUOUS
 10
157.41545
 20
67.21400
 30
 0
 11
157.41545
 21
71.12896
  0
LINE
  8
Gravure
 62
   7
 39
0.400
  6
CONTINUOUS
 10
157.41545
 20
71.12896
 30
 0
 11
158.16390
 21
71.12896
  0
LINE
  8
Gravure
 62
   7
 39
0.400
  6
CONTINUOUS
 10
158.16390
 20
71.12896
 30
 0
 11
158.16390
 21
70.20779
  0
ARC
  8
Gravure
 62
   7
 39
0.400
  6
CONTINUOUS
 10
159.31024
 20
70.02585
 30
 0
 40
1.16070
 50
89.74765
 51
170.98142
  0
LINE
  8
Gravure
 62
   7
 39
0.400
  6
CONTINUOUS
 10
159.31535
 20
71.18653
 30
 0
 11
159.60322
 21
71.18653
  0
ARC
  8
Gravure
 62
   7
 39
0.400
  6
CONTINUOUS
 10
162.54743
 20
69.91127
 30
 0
 40
1.03096
 50
106.71531
 51
163.28469
  0
ARC
  8
Gravure
 62
   7
 39
0.400
  6
CONTINUOUS
 10
162.90319
 20
68.68876
 30
 0
 40
2.30416
 50
65.38410
 51
106.44466
  0
ARC
  8
Gravure
 62
   7
 39
0.400
  6
CONTINUOUS
 10
163.53289
 20
70.06451
 30
 0
 40
0.79115
 50
2.03776
 51
65.34238
  0
LINE
  8
Gravure
 62
   7
 39
0.400
  6
CONTINUOUS
 10
164.32353
 20
70.09265
 30
 0
 11
164.32353
 21
67.50186
  0
LINE
  8
Gravure
 62
   7
 39
0.400
  6
CONTINUOUS
 10
164.32353
 20
67.50186
 30
 0
 11
164.43868
 21
67.27157
  0
LINE
  8
Gravure
 62
   7
 39
0.400
  6
CONTINUOUS
 10
164.43868
 20
67.27157
 30
 0
 11
164.15081
 21
67.90487
  0
LINE
  8
Gravure
 62
   7
 39
0.400
  6
CONTINUOUS
 10
164.15081
 20
67.90487
 30
 0
 11
164.15081
 21
67.32915
  0
LINE
  8
Gravure
 62
   7
 39
0.400
  6
CONTINUOUS
 10
164.15081
 20
67.32915
 30
 0
 11
163.92052
 21
67.73216
  0
LINE
  8
Gravure
 62
   7
 39
0.400
  6
CONTINUOUS
 10
163.92052
 20
67.73216
 30
 0
 11
164.15081
 21
68.25031
  0
ARC
  8
Gravure
 62
   7
 39
0.400
  6
CONTINUOUS
 10
162.70289
 20
69.38085
 30
 0
 40
1.83701
 50
277.47226
 51
322.01750
  0
ARC
  8
Gravure
 62
   7
 39
0.400
  6
CONTINUOUS
 10
162.58481
 20
69.06772
 30
 0
 40
1.54995
 50
244.00436
 51
283.31526
  0
ARC
  8
Gravure
 62
   7
 39
0.400
  6
CONTINUOUS
 10
162.26907
 20
68.25031
 30
 0
 40
0.68093
 50
122.27455
 51
237.72545
  0
ARC
  8
Gravure
 62
   7
 39
0.400
  6
CONTINUOUS
 10
160.83643
 20
73.91038
 30
 0
 40
5.19551
 50
281.87415
 51
308.81820
  0
LINE
  8
Gravure
 62
   7
 39
0.400
  6
CONTINUOUS
 10
164.09324
 20
69.86235
 30
 0
 11
163.80537
 21
69.45934
  0
LINE
  8
Gravure
 62
   7
 39
0.400
  6
CONTINUOUS
 10
163.80537
 20
69.45934
 30
 0
 11
163.80537
 21
68.59575
  0
ARC
  8
Gravure
 62
   7
 39
0.400
  6
CONTINUOUS
 10
162.83974
 20
68.60032
 30
 0
 40
0.96565
 50
286.53111
 51
359.72910
  0
ARC
  8
Gravure
 62
   7
 39
0.400
  6
CONTINUOUS
 10
162.75985
 20
68.87725
 30
 0
 40
1.25387
 50
240.15022
 51
286.43011
  0
ARC
  8
Gravure
 62
   7
 39
0.400
  6
CONTINUOUS
 10
162.39124
 20
68.24284
 30
 0
 40
0.52017
 50
145.40495
 51
240.58429
  0
ARC
  8
Gravure
 62
   7
 39
0.400
  6
CONTINUOUS
 10
162.78899
 20
67.97099
 30
 0
 40
1.00194
 50
104.46174
 51
145.52230
  0
ARC
  8
Gravure
 62
   7
 39
0.400
  6
CONTINUOUS
 10
159.28681
 20
81.84874
 30
 0
 40
13.31091
 50
284.14095
 51
287.74984
  0
ARC
  8
Gravure
 62
   7
 39
0.400
  6
CONTINUOUS
 10
163.01292
 20
70.21487
 30
 0
 40
1.09490
 50
287.64431
 51
316.36645
  0
LINE
  8
Gravure
 62
   7
 39
0.400
  6
CONTINUOUS
 10
163.80537
 20
69.45934
 30
 0
 11
164.09324
 21
70.03507
  0
LINE
  8
Gravure
 62
   7
 39
0.400
  6
CONTINUOUS
 10
164.09324
 20
70.03507
 30
 0
 11
164.09324
 21
68.65332
  0
ARC
  8
Gravure
 62
   7
 39
0.400
  6
CONTINUOUS
 10
162.45194
 20
69.02276
 30
 0
 40
1.68237
 50
244.69200
 51
347.31469
  0
ARC
  8
Gravure
 62
   7
 39
0.400
  6
CONTINUOUS
 10
162.08520
 20
68.17659
 30
 0
 40
0.76123
 50
156.46084
 51
242.41923
  0
ARC
  8
Gravure
 62
   7
 39
0.400
  6
CONTINUOUS
 10
162.32507
 20
68.08526
 30
 0
 40
1.01768
 50
107.40722
 51
157.14016
  0
ARC
  8
Gravure
 62
   7
 39
0.400
  6
CONTINUOUS
 10
159.57023
 20
79.90103
 30
 0
 40
11.11809
 50
282.73231
 51
291.75061
  0
ARC
  8
Gravure
 62
   7
 39
0.400
  6
CONTINUOUS
 10
163.41662
 20
70.13798
 30
 0
 40
0.62640
 50
295.89972
 51
429.82509
  0
ARC
  8
Gravure
 62
   7
 39
0.400
  6
CONTINUOUS
 10
163.02814
 20
68.75081
 30
 0
 40
2.06557
 50
72.98259
 51
107.01741
  0
ARC
  8
Gravure
 62
   7
 39
0.400
  6
CONTINUOUS
 10
162.57010
 20
69.98427
 30
 0
 40
0.75601
 50
101.17181
 51
162.80262
  0
LINE
  8
Gravure
 62
   7
 39
0.400
  6
CONTINUOUS
 10
161.84790
 20
70.20779
 30
 0
 11
161.56003
 21
70.20779
  0
LINE
  8
Gravure
 62
   7
 39
0.400
  6
CONTINUOUS
 10
161.56003
 20
70.20779
 30
 0
 11
161.32974
 21
70.03507
  0
LINE
  8
Gravure
 62
   7
 39
0.400
  6
CONTINUOUS
 10
161.32974
 20
70.03507
 30
 0
 11
162.07819
 21
70.03507
  0
ARC
  8
Gravure
 62
   7
 39
0.400
  6
CONTINUOUS
 10
162.59569
 20
70.03188
 30
 0
 40
0.51751
 50
116.34231
 51
179.64692
  0
ARC
  8
Gravure
 62
   7
 39
0.400
  6
CONTINUOUS
 10
162.94178
 20
69.30074
 30
 0
 40
1.32638
 50
64.27450
 51
115.72550
  0
ARC
  8
Gravure
 62
   7
 39
0.400
  6
CONTINUOUS
 10
163.30355
 20
70.05462
 30
 0
 40
0.49019
 50
-78.37089
 51
64.12086
  0
LINE
  8
Gravure
 62
   7
 39
0.400
  6
CONTINUOUS
 10
163.40236
 20
69.57449
 30
 0
 11
162.25091
 21
69.34420
  0
ARC
  8
Gravure
 62
   7
 39
0.400
  6
CONTINUOUS
 10
162.57154
 20
67.70310
 30
 0
 40
1.67213
 50
101.05508
 51
135.08989
  0
ARC
  8
Gravure
 62
   7
 39
0.400
  6
CONTINUOUS
 10
162.10209
 20
68.17270
 30
 0
 40
1.00812
 50
135.15524
 51
251.98563
  0
ARC
  8
Gravure
 62
   7
 39
0.400
  6
CONTINUOUS
 10
162.48120
 20
69.35313
 30
 0
 40
2.24793
 50
252.10108
 51
287.89892
  0
ARC
  8
Gravure
 62
   7
 39
0.400
  6
CONTINUOUS
 10
162.91337
 20
67.99086
 30
 0
 40
0.81880
 50
288.41840
 51
341.58160
  0
ARC
  8
Gravure
 62
   7
 39
0.400
  6
CONTINUOUS
 10
165.16409
 20
68.07695
 30
 0
 40
1.51365
 50
193.16699
 51
214.75799
  0
LINE
  8
Gravure
 62
   7
 39
0.400
  6
CONTINUOUS
 10
163.92052
 20
67.21400
 30
 0
 11
164.78411
 21
67.21400
  0
ARC
  8
Gravure
 62
   7
 39
0.400
  6
CONTINUOUS
 10
164.85280
 20
67.44543
 30
 0
 40
0.24141
 50
180.27090
 51
253.46889
  0
LINE
  8
Gravure
 62
   7
 39
0.400
  6
CONTINUOUS
 10
164.61140
 20
67.44429
 30
 0
 11
164.61140
 21
69.91993
  0
ARC
  8
Gravure
 62
   7
 39
0.400
  6
CONTINUOUS
 10
163.52970
 20
69.94234
 30
 0
 40
1.08193
 50
358.81324
 51
422.11785
  0
ARC
  8
Gravure
 62
   7
 39
0.400
  6
CONTINUOUS
 10
162.94178
 20
68.86580
 30
 0
 40
2.30849
 50
61.71531
 51
118.28469
  0
ARC
  8
Gravure
 62
   7
 39
0.400
  6
CONTINUOUS
 10
162.31272
 20
70.03253
 30
 0
 40
0.98298
 50
118.22084
 51
179.85165
  0
LINE
  8
Gravure
 62
   7
 39
0.400
  6
CONTINUOUS
 10
166.97132
 20
72.56828
 30
 0
 11
167.25919
 21
72.56828
  0
LINE
  8
Gravure
 62
   7
 39
0.400
  6
CONTINUOUS
 10
167.25919
 20
72.56828
 30
 0
 11
167.25919
 21
68.30789
  0
ARC
  8
Gravure
 62
   7
 39
0.400
  6
CONTINUOUS
 10
167.94895
 20
68.30429
 30
 0
 40
0.68978
 50
179.70094
 51
274.88028
  0
LINE
  8
Gravure
 62
   7
 39
0.400
  6
CONTINUOUS
 10
168.00764
 20
67.61701
 30
 0
 11
168.00764
 21
67.38672
  0
LINE
  8
Gravure
 62
   7
 39
0.400
  6
CONTINUOUS
 10
168.00764
 20
67.38672
 30
 0
 11
167.77734
 21
67.38672
  0
ARC
  8
Gravure
 62
   7
 39
0.400
  6
CONTINUOUS
 10
167.77309
 20
68.18849
 30
 0
 40
0.80178
 50
179.69622
 51
270.30378
  0
LINE
  8
Gravure
 62
   7
 39
0.400
  6
CONTINUOUS
 10
166.97132
 20
68.19274
 30
 0
 11
166.97132
 21
72.56828
  0
LINE
  8
Gravure
 62
   7
 39
0.400
  6
CONTINUOUS
 10
166.97132
 20
72.56828
 30
 0
 11
166.74103
 21
72.74100
  0
LINE
  8
Gravure
 62
   7
 39
0.400
  6
CONTINUOUS
 10
166.74103
 20
72.74100
 30
 0
 11
167.48948
 21
72.74100
  0
LINE
  8
Gravure
 62
   7
 39
0.400
  6
CONTINUOUS
 10
167.48948
 20
72.74100
 30
 0
 11
167.48948
 21
68.30789
  0
ARC
  8
Gravure
 62
   7
 39
0.400
  6
CONTINUOUS
 10
168.00490
 20
68.30515
 30
 0
 40
0.51543
 50
179.69622
 51
270.30378
  0
LINE
  8
Gravure
 62
   7
 39
0.400
  6
CONTINUOUS
 10
168.00764
 20
67.78973
 30
 0
 11
168.23793
 21
67.78973
  0
LINE
  8
Gravure
 62
   7
 39
0.400
  6
CONTINUOUS
 10
168.23793
 20
67.78973
 30
 0
 11
168.23793
 21
67.21400
  0
LINE
  8
Gravure
 62
   7
 39
0.400
  6
CONTINUOUS
 10
168.23793
 20
67.21400
 30
 0
 11
167.77734
 21
67.21400
  0
ARC
  8
Gravure
 62
   7
 39
0.400
  6
CONTINUOUS
 10
167.77188
 20
68.24485
 30
 0
 40
1.03086
 50
179.69622
 51
270.30378
  0
LINE
  8
Gravure
 62
   7
 39
0.400
  6
CONTINUOUS
 10
166.74103
 20
68.25031
 30
 0
 11
166.74103
 21
72.74100
  0
LINE
  8
Gravure
 62
   7
 39
0.400
  6
CONTINUOUS
 10
166.33802
 20
70.78352
 30
 0
 11
168.06521
 21
70.78352
  0
LINE
  8
Gravure
 62
   7
 39
0.400
  6
CONTINUOUS
 10
168.06521
 20
70.78352
 30
 0
 11
168.23793
 21
71.01381
  0
LINE
  8
Gravure
 62
   7
 39
0.400
  6
CONTINUOUS
 10
168.23793
 20
71.01381
 30
 0
 11
168.23793
 21
70.55323
  0
LINE
  8
Gravure
 62
   7
 39
0.400
  6
CONTINUOUS
 10
168.23793
 20
70.55323
 30
 0
 11
166.22287
 21
70.55323
  0
LINE
  8
Gravure
 62
   7
 39
0.400
  6
CONTINUOUS
 10
166.22287
 20
70.55323
 30
 0
 11
166.22287
 21
71.01381
  0
LINE
  8
Gravure
 62
   7
 39
0.400
  6
CONTINUOUS
 10
166.22287
 20
71.01381
 30
 0
 11
168.23793
 21
71.01381
  0
ARC
  8
Gravure
 62
   7
 39
0.400
  6
CONTINUOUS
 10
172.22269
 20
69.20127
 30
 0
 40
1.98460
 50
137.02080
 51
222.97920
  0
ARC
  8
Gravure
 62
   7
 39
0.400
  6
CONTINUOUS
 10
171.69193
 20
68.78460
 30
 0
 40
1.31347
 50
225.46682
 51
314.53318
  0
ARC
  8
Gravure
 62
   7
 39
0.400
  6
CONTINUOUS
 10
171.16116
 20
69.20127
 30
 0
 40
1.98460
 50
317.02080
 51
402.97920
  0
ARC
  8
Gravure
 62
   7
 39
0.400
  6
CONTINUOUS
 10
171.69193
 20
69.48013
 30
 0
 40
1.41501
 50
49.38312
 51
130.61688
  0
LINE
  8
Gravure
 62
   7
 39
0.400
  6
CONTINUOUS
 10
170.77076
 20
70.55423
 30
 0
 11
170.19503
 21
70.03607
  0
ARC
  8
Gravure
 62
   7
 39
0.400
  6
CONTINUOUS
 10
171.92097
 20
69.17248
 30
 0
 40
1.92994
 50
153.41840
 51
206.58160
  0
ARC
  8
Gravure
 62
   7
 39
0.400
  6
CONTINUOUS
 10
171.69193
 20
68.92622
 30
 0
 40
1.61920
 50
202.41190
 51
337.58810
  0
ARC
  8
Gravure
 62
   7
 39
0.400
  6
CONTINUOUS
 10
171.46288
 20
69.17248
 30
 0
 40
1.92994
 50
333.41840
 51
386.58160
  0
ARC
  8
Gravure
 62
   7
 39
0.400
  6
CONTINUOUS
 10
171.69193
 20
69.36014
 30
 0
 40
1.64243
 50
24.30182
 51
155.69818
  0
LINE
  8
Gravure
 62
   7
 39
0.400
  6
CONTINUOUS
 10
170.19503
 20
70.03607
 30
 0
 11
170.02231
 21
70.20879
  0
ARC
  8
Gravure
 62
   7
 39
0.400
  6
CONTINUOUS
 10
171.69193
 20
69.26251
 30
 0
 40
1.91913
 50
29.54324
 51
150.45676
  0
ARC
  8
Gravure
 62
   7
 39
0.400
  6
CONTINUOUS
 10
171.50206
 20
69.17248
 30
 0
 40
2.12876
 50
-29.13153
 51
29.13153
  0
ARC
  8
Gravure
 62
   7
 39
0.400
  6
CONTINUOUS
 10
171.69193
 20
69.08245
 30
 0
 40
1.91913
 50
209.54324
 51
330.45676
  0
ARC
  8
Gravure
 62
   7
 39
0.400
  6
CONTINUOUS
 10
171.88179
 20
69.17248
 30
 0
 40
2.12876
 50
150.86847
 51
209.13153
  0
LINE
  8
Gravure
 62
   7
 39
0.400
  6
CONTINUOUS
 10
170.02231
 20
70.20879
 30
 0
 11
170.59804
 21
69.92093
  0
ARC
  8
Gravure
 62
   7
 39
0.400
  6
CONTINUOUS
 10
171.69193
 20
69.58680
 30
 0
 40
1.14378
 50
16.98546
 51
163.01454
  0
ARC
  8
Gravure
 62
   7
 39
0.400
  6
CONTINUOUS
 10
170.34041
 20
69.17248
 30
 0
 40
2.55738
 50
-17.01741
 51
17.01741
  0
ARC
  8
Gravure
 62
   7
 39
0.400
  6
CONTINUOUS
 10
171.69193
 20
68.75816
 30
 0
 40
1.14378
 50
196.98546
 51
343.01454
  0
ARC
  8
Gravure
 62
   7
 39
0.400
  6
CONTINUOUS
 10
173.04345
 20
69.17248
 30
 0
 40
2.55738
 50
162.98259
 51
197.01741
  0
LINE
  8
Gravure
 62
   7
 39
0.400
  6
CONTINUOUS
 10
175.66360
 20
70.95724
 30
 0
 11
175.66360
 21
67.33015
  0
LINE
  8
Gravure
 62
   7
 39
0.400
  6
CONTINUOUS
 10
175.66360
 20
67.33015
 30
 0
 11
175.37574
 21
67.33015
  0
LINE
  8
Gravure
 62
   7
 39
0.400
  6
CONTINUOUS
 10
175.37574
 20
67.33015
 30
 0
 11
175.37574
 21
70.95724
  0
LINE
  8
Gravure
 62
   7
 39
0.400
  6
CONTINUOUS
 10
175.37574
 20
70.95724
 30
 0
 11
175.66360
 21
70.95724
  0
LINE
  8
Gravure
 62
   7
 39
0.400
  6
CONTINUOUS
 10
175.66360
 20
70.95724
 30
 0
 11
175.66360
 21
69.40277
  0
LINE
  8
Gravure
 62
   7
 39
0.400
  6
CONTINUOUS
 10
175.66360
 20
69.40277
 30
 0
 11
176.00904
 21
70.20879
  0
ARC
  8
Gravure
 62
   7
 39
0.400
  6
CONTINUOUS
 10
177.15413
 20
69.70707
 30
 0
 40
1.25018
 50
89.70818
 51
156.33956
  0
LINE
  8
Gravure
 62
   7
 39
0.400
  6
CONTINUOUS
 10
177.16050
 20
70.95724
 30
 0
 11
177.33322
 21
71.18753
  0
LINE
  8
Gravure
 62
   7
 39
0.400
  6
CONTINUOUS
 10
177.33322
 20
71.18753
 30
 0
 11
177.33322
 21
70.66937
  0
ARC
  8
Gravure
 62
   7
 39
0.400
  6
CONTINUOUS
 10
177.16552
 20
69.43896
 30
 0
 40
1.24179
 50
82.23857
 51
109.18262
  0
ARC
  8
Gravure
 62
   7
 39
0.400
  6
CONTINUOUS
 10
177.16438
 20
69.40823
 30
 0
 40
1.27049
 50
108.67857
 51
180.24608
  0
LINE
  8
Gravure
 62
   7
 39
0.400
  6
CONTINUOUS
 10
175.89390
 20
69.40277
 30
 0
 11
175.89390
 21
67.21500
  0
LINE
  8
Gravure
 62
   7
 39
0.400
  6
CONTINUOUS
 10
175.89390
 20
67.21500
 30
 0
 11
175.14545
 21
67.21500
  0
LINE
  8
Gravure
 62
   7
 39
0.400
  6
CONTINUOUS
 10
175.14545
 20
67.21500
 30
 0
 11
175.14545
 21
71.12996
  0
LINE
  8
Gravure
 62
   7
 39
0.400
  6
CONTINUOUS
 10
175.14545
 20
71.12996
 30
 0
 11
175.89390
 21
71.12996
  0
LINE
  8
Gravure
 62
   7
 39
0.400
  6
CONTINUOUS
 10
175.89390
 20
71.12996
 30
 0
 11
175.89390
 21
70.20879
  0
ARC
  8
Gravure
 62
   7
 39
0.400
  6
CONTINUOUS
 10
177.04024
 20
70.02685
 30
 0
 40
1.16070
 50
89.74765
 51
170.98142
  0
LINE
  8
Gravure
 62
   7
 39
0.400
  6
CONTINUOUS
 10
177.04535
 20
71.18753
 30
 0
 11
177.33322
 21
71.18753
  0
LINE
  8
Gravure
 62
   154
 39
3.000
  6
CONTINUOUS
 10
221.00000
 20
27.64800
 30
 0
 11
-1.00000
 21
27.64800
  0
ARC
  8
Gravure
 62
   232
 39
1.500
  6
CONTINUOUS
 10
39.00000
 20
63.62100
 30
 0
 40
1.00000
 50
180.00000
 51
270.00000
  0
LINE
  8
Gravure
 62
   232
 39
1.500
  6
CONTINUOUS
 10
39.00000
 20
62.62100
 30
 0
 11
181.00000
 21
62.62100
  0
ARC
  8
Gravure
 62
   232
 39
1.500
  6
CONTINUOUS
 10
181.00000
 20
63.62100
 30
 0
 40
1.00000
 50
270.00000
 51
360.00000
  0
LINE
  8
Gravure
 62
   232
 39
1.500
  6
CONTINUOUS
 10
182.00000
 20
63.62100
 30
 0
 11
182.00000
 21
74.62100
  0
ARC
  8
Gravure
 62
   232
 39
1.500
  6
CONTINUOUS
 10
181.00000
 20
74.62100
 30
 0
 40
1.00000
 50
0.00000
 51
90.00000
  0
LINE
  8
Gravure
 62
   232
 39
1.500
  6
CONTINUOUS
 10
181.00000
 20
75.62100
 30
 0
 11
39.00000
 21
75.62100
  0
ARC
  8
Gravure
 62
   232
 39
1.500
  6
CONTINUOUS
 10
39.00000
 20
74.62100
 30
 0
 40
1.00000
 50
90.00000
 51
180.00000
  0
LINE
  8
Gravure
 62
   232
 39
1.500
  6
CONTINUOUS
 10
38.00000
 20
74.62100
 30
 0
 11
38.00000
 21
63.62100
  0
ARC
  8
Contour
 62
   7
 39
0.100
  6
CONTINUOUS
 10
30.50000
 20
18.50000
 30
 0
 40
1.50000
 50
180.00000
 51
270.00000
  0
LINE
  8
Contour
 62
   7
 39
0.100
  6
CONTINUOUS
 10
30.50000
 20
17.00000
 30
 0
 11
91.50000
 21
17.00000
  0
ARC
  8
Contour
 62
   7
 39
0.100
  6
CONTINUOUS
 10
91.50000
 20
18.50000
 30
 0
 40
1.50000
 50
270.00000
 51
360.00000
  0
LINE
  8
Contour
 62
   7
 39
0.100
  6
CONTINUOUS
 10
93.00000
 20
18.50000
 30
 0
 11
93.00000
 21
59.50000
  0
ARC
  8
Contour
 62
   7
 39
0.100
  6
CONTINUOUS
 10
91.50000
 20
59.50000
 30
 0
 40
1.50000
 50
0.00000
 51
90.00000
  0
LINE
  8
Contour
 62
   7
 39
0.100
  6
CONTINUOUS
 10
91.50000
 20
61.00000
 30
 0
 11
30.50000
 21
61.00000
  0
ARC
  8
Contour
 62
   7
 39
0.100
  6
CONTINUOUS
 10
30.50000
 20
59.50000
 30
 0
 40
1.50000
 50
90.00000
 51
180.00000
  0
LINE
  8
Contour
 62
   7
 39
0.100
  6
CONTINUOUS
 10
29.00000
 20
59.50000
 30
 0
 11
29.00000
 21
18.50000
  0
CIRCLE
  8
Contour
 62
   7
 39
0.100
  6
CONTINUOUS
 10
114.00000
 20
47.00000
 30
 0
 40
1.50000
  0
CIRCLE
  8
Contour
 62
   7
 39
0.100
  6
CONTINUOUS
 10
128.50000
 20
47.00000
 30
 0
 40
1.50000
  0
CIRCLE
  8
Contour
 62
   7
 39
0.100
  6
CONTINUOUS
 10
167.00000
 20
47.00000
 30
 0
 40
1.50000
  0
CIRCLE
  8
Contour
 62
   7
 39
0.100
  6
CONTINUOUS
 10
122.00000
 20
16.50000
 30
 0
 40
1.50000
  0
CIRCLE
  8
Contour
 62
   7
 39
0.100
  6
CONTINUOUS
 10
153.50000
 20
16.50000
 30
 0
 40
1.50000
  0
CIRCLE
  8
Contour
 62
   7
 39
0.100
  6
CONTINUOUS
 10
184.00000
 20
16.50000
 30
 0
 40
1.50000
  0
ENDSEC
  0
EOF
