<?xml version="1.0" standalone="no"?>
<!DOCTYPE svg PUBLIC "-//W3C//DTD SVG 1.1//EN" 
  "http://www.w3.org/Graphics/SVG/1.1/DTD/svg11.dtd">
<svg width="220.000mm" height="78.000mm" version="1.1"
     viewBox="0 0 220.000 78.000"
     xmlns="http://www.w3.org/2000/svg"  xmlns:xlink="http://www.w3.org/1999/xlink" 
     xmlns:fpd="http://www.schaeffer-ag.de">
  <desc>Ce schéma a été créé avec le Designer de faces avant en exportant le fichier 'awg.fpd'.</desc>
  <defs>
    <pattern id="revside-fill" x="1" y="1" width="2.200" height="2.200" patternUnits="userSpaceOnUse">
      <line x1="0" y1="0" x2="2.200" y2="2.200" style="stroke-width:0.220; stroke:black; stroke-dasharray:none;" />
      <line x1="0" y1="2.200" x2="2.200" y2="0" style="stroke-width:0.220; stroke:black; stroke-dasharray:none;" />
    </pattern>
    <pattern id="revside-fill-silver" x="1" y="1" width="2.200" height="2.200" patternUnits="userSpaceOnUse">
      <line x1="0" y1="0" x2="2.200" y2="2.200" style="stroke-width:0.220; stroke:#e0e0e0; stroke-dasharray:none;" />
      <line x1="0" y1="2.200" x2="2.200" y2="0" style="stroke-width:0.220; stroke:#e0e0e0; stroke-dasharray:none;" />
    </pattern>
  </defs>
<g transform="scale(1,-1) translate( -0.000, -78.000)" 
   fill-rule="evenodd"
   style="stroke-linecap:round; stroke-linejoin:round; stroke-opacity:1.0; stroke-opacity:1.0;">
<path d="
M220.000 78.000
L220.000 0.000
L0.000 0.000
L0.000 78.000
L220.000 78.000
" 
fill="#fafafa" fill-opacity="1.000000" vector-effect="non-scaling-stroke" stroke="#000000" stroke-width="0.100mm" stroke-opacity="1.000000" fpd:visible="front back" />
<path d="
M111.948 59.702
L113.169 56.336
L113.354 56.336
L112.096 59.702
L111.948 59.702
L110.691 56.336
L110.506 56.336
L111.763 59.702
L113.021 56.225
L113.576 56.225
L112.244 59.776
L111.615 59.776
L110.284 56.225
L110.839 56.225
L111.911 59.184
L111.246 57.409
L112.614 57.409
L112.651 57.298
L111.172 57.298
L111.135 57.150
L112.725 57.150
L112.725 57.039
L111.135 57.039
" 
fill="none" vector-effect="non-scaling-stroke" stroke="#000000" stroke-width="0.400mm" stroke-opacity="1.000000" fpd:visible="front" fpd:print_element="0" fpd:engraving_ral_9005="1" />
<path d="
M117.385 58.889
L117.237 58.889
L117.052 59.185
A1.198,1.198 0 0,1 115.203,59.111
A2.020,2.020 0 0,1 115.203,56.892
A1.174,1.174 0 0,1 117.089,56.855
L117.348 57.299
L117.496 57.299
A1.847,1.847 0 0,0 117.274,56.892
A1.312,1.312 0 0,0 115.055,56.892
A1.861,1.861 0 0,0 115.055,59.111
A1.312,1.312 0 0,0 117.274,59.111
A1.506,1.506 0 0,0 117.422,58.926
L117.681 58.778
L117.163 58.778
A1.063,1.063 0 0,1 115.166,58.778
A2.309,2.309 0 0,1 115.166,57.225
A1.063,1.063 0 0,1 117.163,57.225
A2.422,2.422 0 0,1 117.200,57.373
L117.718 57.373
A2.114,2.114 0 0,0 117.422,56.781
A1.565,1.565 0 0,0 114.907,56.781
A2.047,2.047 0 0,0 114.907,59.222
A1.565,1.565 0 0,0 117.422,59.222
A2.048,2.048 0 0,0 117.681,58.778
" 
fill="none" vector-effect="non-scaling-stroke" stroke="#000000" stroke-width="0.400mm" stroke-opacity="1.000000" fpd:visible="front" fpd:print_element="0" fpd:engraving_ral_9005="1" />
<path d="
M110.876 37.517
L110.876 34.484
L111.801 34.484
A1.332,1.332 0 0,1 112.688,34.965
A1.840,1.840 0 0,1 112.688,37.073
A1.221,1.221 0 0,1 111.838,37.517
L110.876 37.517
L110.691 37.628
L111.801 37.628
A1.279,1.279 0 0,0 112.762,37.147
A1.762,1.762 0 0,0 112.762,34.891
A1.299,1.299 0 0,0 111.801,34.373
L110.691 34.373
L110.691 37.628
L110.506 37.776
L111.801 37.776
A1.456,1.456 0 0,0 112.910,37.258
A1.964,1.964 0 0,0 112.910,34.743
A1.456,1.456 0 0,0 111.801,34.225
L110.506 34.225
L110.506 37.776
L111.061 37.406
L111.801 37.406
A0.974,0.974 0 0,0 112.725,36.740
A2.241,2.241 0 0,0 112.725,35.298
A0.993,0.993 0 0,0 111.801,34.595
L111.061 34.595
L111.061 37.406
" 
fill="none" vector-effect="non-scaling-stroke" stroke="#000000" stroke-width="0.400mm" stroke-opacity="1.000000" fpd:visible="front" fpd:print_element="0" fpd:engraving_ral_9005="1" />
<path d="
M117.164 36.888
L117.016 36.888
L116.831 37.184
A1.198,1.198 0 0,1 114.982,37.110
A2.020,2.020 0 0,1 114.982,34.891
A1.174,1.174 0 0,1 116.868,34.854
L117.127 35.298
L117.275 35.298
A1.847,1.847 0 0,0 117.053,34.891
A1.312,1.312 0 0,0 114.834,34.891
A1.861,1.861 0 0,0 114.834,37.110
A1.312,1.312 0 0,0 117.053,37.110
A1.506,1.506 0 0,0 117.201,36.925
L117.460 36.777
L116.942 36.777
A1.063,1.063 0 0,1 114.945,36.777
A2.309,2.309 0 0,1 114.945,35.224
A1.063,1.063 0 0,1 116.942,35.224
A2.422,2.422 0 0,1 116.979,35.372
L117.497 35.372
A2.114,2.114 0 0,0 117.201,34.780
A1.565,1.565 0 0,0 114.686,34.780
A2.047,2.047 0 0,0 114.686,37.221
A1.565,1.565 0 0,0 117.201,37.221
A2.048,2.048 0 0,0 117.460,36.777
" 
fill="none" vector-effect="non-scaling-stroke" stroke="#000000" stroke-width="0.400mm" stroke-opacity="1.000000" fpd:visible="front" fpd:print_element="0" fpd:engraving_ral_9005="1" />
<path d="
M123.517 59.591
L125.847 59.591
L125.847 59.406
L123.702 56.558
L123.702 56.447
L126.032 56.447
L126.032 56.336
L123.517 56.336
L123.517 56.558
L125.662 59.443
L125.958 59.702
L125.440 59.406
L123.369 56.632
L123.369 56.225
L126.143 56.225
L126.143 56.595
L123.961 56.595
L123.813 56.521
L123.961 56.595
L126.032 59.332
L126.032 59.776
L123.443 59.776
L123.443 59.406
L125.440 59.406
" 
fill="none" vector-effect="non-scaling-stroke" stroke="#000000" stroke-width="0.400mm" stroke-opacity="1.000000" fpd:visible="front" fpd:print_element="0" fpd:engraving_ral_9005="1" />
<path d="
M127.549 58.222
L127.771 59.517
L129.472 59.517
L129.472 59.665
L127.623 59.665
L127.364 58.037
L127.660 58.037
A1.068,1.068 0 0,0 129.509,57.002
A1.123,1.123 0 0,0 128.399,56.299
A1.425,1.425 0 0,0 127.290,56.928
L127.512 56.928
A1.016,1.016 0 0,1 129.398,57.372
A0.923,0.923 0 0,1 128.141,58.296
A0.666,0.666 0 0,1 127.771,57.927
A0.838,0.838 0 0,0 129.250,57.446
A0.846,0.846 0 0,0 127.623,57.076
L127.068 57.076
A1.283,1.283 0 0,1 127.438,56.558
A1.487,1.487 0 0,1 129.435,56.558
A1.181,1.181 0 0,1 129.435,58.259
A1.197,1.197 0 0,1 127.734,58.259
L127.956 59.406
L129.620 59.406
L129.620 59.776
L127.512 59.776
L127.179 57.927
L127.771 57.927
" 
fill="none" vector-effect="non-scaling-stroke" stroke="#000000" stroke-width="0.400mm" stroke-opacity="1.000000" fpd:visible="front" fpd:print_element="0" fpd:engraving_ral_9005="1" />
<path d="
M131.321 59.073
A2.328,2.328 0 0,1 131.321,56.928
A0.978,0.978 0 0,1 133.022,56.928
A2.328,2.328 0 0,1 133.022,59.073
A0.965,0.965 0 0,1 131.321,59.073
L131.395 58.925
A2.440,2.440 0 0,1 131.395,57.076
A0.840,0.840 0 0,1 132.948,57.076
A2.440,2.440 0 0,1 132.948,58.925
A0.840,0.840 0 0,1 131.395,58.925
L131.136 58.999
A1.131,1.131 0 0,0 133.207,58.999
A2.168,2.168 0 0,0 133.207,57.002
A1.125,1.125 0 0,0 131.136,57.002
A2.168,2.168 0 0,0 131.136,58.999
L131.173 59.332
A1.279,1.279 0 0,0 133.170,59.332
A2.152,2.152 0 0,0 133.170,56.669
A1.279,1.279 0 0,0 131.173,56.669
A2.152,2.152 0 0,0 131.173,59.332
" 
fill="none" vector-effect="non-scaling-stroke" stroke="#000000" stroke-width="0.400mm" stroke-opacity="1.000000" fpd:visible="front" fpd:print_element="0" fpd:engraving_ral_9005="1" />
<path d="
M124.584 37.591
L126.914 37.591
L126.914 37.406
L124.769 34.558
L124.769 34.447
L127.099 34.447
L127.099 34.336
L124.584 34.336
L124.584 34.558
L126.729 37.443
L127.025 37.702
L126.507 37.406
L124.436 34.632
L124.436 34.225
L127.210 34.225
L127.210 34.595
L125.028 34.595
L124.880 34.521
L125.028 34.595
L127.099 37.332
L127.099 37.776
L124.510 37.776
L124.510 37.406
L126.507 37.406
" 
fill="none" vector-effect="non-scaling-stroke" stroke="#000000" stroke-width="0.400mm" stroke-opacity="1.000000" fpd:visible="front" fpd:print_element="0" fpd:engraving_ral_9005="1" />
<path d="
M128.838 36.666
L128.283 36.111
L128.283 35.890
L128.838 35.335
L128.912 35.076
L128.912 35.446
L128.357 36.001
L128.912 36.555
L128.912 36.925
L128.172 36.185
L128.172 35.816
L128.912 35.076
" 
fill="none" vector-effect="non-scaling-stroke" stroke="#000000" stroke-width="0.400mm" stroke-opacity="1.000000" fpd:visible="front" fpd:print_element="0" fpd:engraving_ral_9005="1" />
<path d="
M130.317 36.222
L130.539 37.517
L132.240 37.517
L132.240 37.665
L130.391 37.665
L130.132 36.037
L130.428 36.037
A1.068,1.068 0 0,0 132.277,35.002
A1.123,1.123 0 0,0 131.167,34.299
A1.425,1.425 0 0,0 130.058,34.928
L130.280 34.928
A1.016,1.016 0 0,1 132.166,35.372
A0.923,0.923 0 0,1 130.909,36.296
A0.666,0.666 0 0,1 130.539,35.927
A0.838,0.838 0 0,0 132.018,35.446
A0.846,0.846 0 0,0 130.391,35.076
L129.836 35.076
A1.283,1.283 0 0,1 130.206,34.558
A1.487,1.487 0 0,1 132.203,34.558
A1.181,1.181 0 0,1 132.203,36.259
A1.197,1.197 0 0,1 130.502,36.259
L130.724 37.406
L132.388 37.406
L132.388 37.776
L130.280 37.776
L129.947 35.927
L130.539 35.927
" 
fill="none" vector-effect="non-scaling-stroke" stroke="#000000" stroke-width="0.400mm" stroke-opacity="1.000000" fpd:visible="front" fpd:print_element="0" fpd:engraving_ral_9005="1" />
<path d="
M117.154 8.110
A1.333,1.333 0 0,0 119.373,8.110
A1.861,1.861 0 0,0 119.373,5.891
A1.323,1.323 0 0,0 117.154,5.891
A1.861,1.861 0 0,0 117.154,8.110
L117.302 8.110
A2.020,2.020 0 0,1 117.302,5.891
A1.208,1.208 0 0,1 119.225,5.891
A2.020,2.020 0 0,1 119.225,8.110
A1.197,1.197 0 0,1 117.302,8.110
L117.265 7.777
A2.309,2.309 0 0,1 117.265,6.224
A1.063,1.063 0 0,1 119.262,6.224
A2.309,2.309 0 0,1 119.262,7.777
A1.063,1.063 0 0,1 117.265,7.777
L117.006 8.221
A2.047,2.047 0 0,1 117.006,5.780
A1.565,1.565 0 0,1 119.521,5.780
A2.047,2.047 0 0,1 119.521,8.221
A1.565,1.565 0 0,1 117.006,8.221
" 
fill="none" vector-effect="non-scaling-stroke" stroke="#000000" stroke-width="0.400mm" stroke-opacity="1.000000" fpd:visible="front" fpd:print_element="0" fpd:engraving_ral_9005="1" />
<path d="
M121.260 8.665
L121.075 8.665
L121.075 6.261
A0.826,0.826 0 0,1 121.371,5.632
A1.444,1.444 0 0,1 123.220,5.632
A0.826,0.826 0 0,1 123.516,6.261
L123.516 8.665
L123.331 8.665
L123.331 6.261
A0.751,0.751 0 0,0 122.998,5.632
A1.219,1.219 0 0,0 121.630,5.632
A0.840,0.840 0 0,0 121.260,6.261
L121.260 8.665
L121.445 8.776
L120.890 8.776
L120.890 6.261
A0.978,0.978 0 0,1 121.334,5.447
A1.791,1.791 0 0,1 123.257,5.447
A0.978,0.978 0 0,1 123.701,6.261
L123.701 8.776
L123.146 8.776
L123.146 6.261
A0.647,0.647 0 0,0 122.887,5.743
A0.993,0.993 0 0,0 121.704,5.743
A0.647,0.647 0 0,0 121.445,6.261
L121.445 8.776
" 
fill="none" vector-effect="non-scaling-stroke" stroke="#000000" stroke-width="0.400mm" stroke-opacity="1.000000" fpd:visible="front" fpd:print_element="0" fpd:engraving_ral_9005="1" />
<path d="
M125.993 8.517
L124.773 8.517
L124.773 8.665
L127.251 8.665
L127.251 8.517
L126.104 8.517
L126.104 5.299
L125.920 5.299
L125.920 8.517
L125.735 8.406
L124.625 8.406
L124.625 8.776
L127.399 8.776
L127.399 8.406
L126.289 8.406
L126.289 5.225
L125.735 5.225
L125.735 8.406
" 
fill="none" vector-effect="non-scaling-stroke" stroke="#000000" stroke-width="0.400mm" stroke-opacity="1.000000" fpd:visible="front" fpd:print_element="0" fpd:engraving_ral_9005="1" />
<path d="
M148.027 8.517
L148.027 5.410
L147.842 5.410
L147.842 8.628
L149.210 8.628
A0.963,0.963 0 0,0 149.210,6.705
L148.027 6.705
L148.212 6.927
L149.025 6.927
A0.740,0.740 0 0,1 149.025,8.406
L148.212 8.406
L148.212 6.927
L148.212 6.816
L149.247 6.816
A0.859,0.859 0 0,1 149.173,8.517
L148.027 8.517
L147.657 8.776
L149.210 8.776
A1.110,1.110 0 0,0 149.210,6.557
L148.212 6.557
L148.212 5.225
L147.657 5.225
L147.657 8.776
" 
fill="none" vector-effect="non-scaling-stroke" stroke="#000000" stroke-width="0.400mm" stroke-opacity="1.000000" fpd:visible="front" fpd:print_element="0" fpd:engraving_ral_9005="1" />
<path d="
M151.615 7.630
L151.615 5.300
L151.430 5.300
L151.430 7.630
L151.615 7.630
L151.615 6.632
L151.837 7.149
A0.803,0.803 0 0,0 152.577,7.630
L152.687 7.778
L152.687 7.445
A0.798,0.798 0 0,1 152.318,7.408
A0.816,0.816 0 0,1 151.763,6.632
L151.763 5.226
L151.282 5.226
L151.282 7.741
L151.763 7.741
L151.763 7.149
A0.746,0.746 0 0,0 152.503,7.778
L152.687 7.778
" 
fill="none" vector-effect="non-scaling-stroke" stroke="#000000" stroke-width="0.400mm" stroke-opacity="1.000000" fpd:visible="front" fpd:print_element="0" fpd:engraving_ral_9005="1" />
<path d="
M154.168 6.596
L155.758 6.596
A1.032,1.032 0 0,1 155.425,7.335
A0.854,0.854 0 0,1 154.279,7.372
A1.284,1.284 0 0,1 154.279,5.597
A0.824,0.824 0 0,1 155.351,5.560
A1.387,1.387 0 0,1 155.536,5.745
L155.721 5.745
A1.064,1.064 0 0,0 153.798,6.115
A1.588,1.588 0 0,0 153.798,6.855
A1.019,1.019 0 0,0 155.388,7.483
A1.173,1.173 0 0,0 155.943,6.485
L154.094 6.485
L154.094 6.707
L155.573 6.707
A1.375,1.375 0 0,1 155.388,7.187
A0.651,0.651 0 0,1 154.279,7.187
A1.339,1.339 0 0,1 154.279,5.782
A0.652,0.652 0 0,1 155.425,5.856
L155.943 5.856
A1.403,1.403 0 0,0 155.610,5.449
A1.184,1.184 0 0,0 154.094,5.449
A1.355,1.355 0 0,0 154.094,7.520
A1.155,1.155 0 0,0 155.573,7.520
A1.456,1.456 0 0,0 156.091,6.411
L154.094 6.411
" 
fill="none" vector-effect="non-scaling-stroke" stroke="#000000" stroke-width="0.400mm" stroke-opacity="1.000000" fpd:visible="front" fpd:print_element="0" fpd:engraving_ral_9005="1" />
<path d="
M157.423 7.595
L158.126 5.524
L158.274 5.524
L158.976 7.595
L159.161 7.595
L158.384 5.339
L158.015 5.339
L157.238 7.595
L157.423 7.595
L157.534 7.706
L158.200 5.672
L158.865 7.706
L159.346 7.706
L158.495 5.228
L157.904 5.228
L157.053 7.706
L157.534 7.706
" 
fill="none" vector-effect="non-scaling-stroke" stroke="#000000" stroke-width="0.400mm" stroke-opacity="1.000000" fpd:visible="front" fpd:print_element="0" fpd:engraving_ral_9005="1" />
<path d="
M178.323 5.299
L178.323 8.665
L178.508 8.665
L180.542 5.299
L180.727 5.299
L180.727 8.665
L180.542 8.665
L180.542 5.669
L180.653 5.484
L180.357 5.965
L178.693 8.776
L178.138 8.776
L178.138 5.225
L178.693 5.225
L178.693 8.036
L178.397 8.517
L178.508 8.332
L178.508 5.299
L178.508 8.036
L178.693 8.036
L180.357 5.225
L180.912 5.225
L180.912 8.776
L180.357 8.776
L180.357 5.965
" 
fill="none" vector-effect="non-scaling-stroke" stroke="#000000" stroke-width="0.400mm" stroke-opacity="1.000000" fpd:visible="front" fpd:print_element="0" fpd:engraving_ral_9005="1" />
<path d="
M182.392 6.595
L183.982 6.595
A1.032,1.032 0 0,1 183.649,7.334
A0.854,0.854 0 0,1 182.503,7.371
A1.284,1.284 0 0,1 182.503,5.596
A0.824,0.824 0 0,1 183.575,5.559
A1.387,1.387 0 0,1 183.760,5.744
L183.945 5.744
A1.064,1.064 0 0,0 182.022,6.114
A1.588,1.588 0 0,0 182.022,6.854
A1.019,1.019 0 0,0 183.612,7.482
A1.173,1.173 0 0,0 184.167,6.484
L182.318 6.484
L182.318 6.706
L183.797 6.706
A1.375,1.375 0 0,1 183.612,7.186
A0.651,0.651 0 0,1 182.503,7.186
A1.339,1.339 0 0,1 182.503,5.781
A0.652,0.652 0 0,1 183.649,5.855
L184.167 5.855
A1.403,1.403 0 0,0 183.834,5.448
A1.184,1.184 0 0,0 182.318,5.448
A1.355,1.355 0 0,0 182.318,7.519
A1.155,1.155 0 0,0 183.797,7.519
A1.456,1.456 0 0,0 184.315,6.410
L182.318 6.410
" 
fill="none" vector-effect="non-scaling-stroke" stroke="#000000" stroke-width="0.400mm" stroke-opacity="1.000000" fpd:visible="front" fpd:print_element="0" fpd:engraving_ral_9005="1" />
<path d="
M185.684 7.557
L187.385 5.338
L187.237 5.338
L185.536 7.557
L185.684 7.557
L185.795 7.631
L187.644 5.227
L187.163 5.227
L185.314 7.631
L185.795 7.631
" 
fill="none" vector-effect="non-scaling-stroke" stroke="#000000" stroke-width="0.400mm" stroke-opacity="1.000000" fpd:visible="front" fpd:print_element="0" fpd:engraving_ral_9005="1" />
<path d="
M187.348 7.557
L185.647 5.338
L185.462 5.338
L187.200 7.557
L187.348 7.557
L187.570 7.631
L185.721 5.227
L185.240 5.227
L187.089 7.631
L187.570 7.631
" 
fill="none" vector-effect="non-scaling-stroke" stroke="#000000" stroke-width="0.400mm" stroke-opacity="1.000000" fpd:visible="front" fpd:print_element="0" fpd:engraving_ral_9005="1" />
<path d="
M189.050 8.667
L189.235 8.667
L189.235 5.930
A0.443,0.443 0 0,1 189.716,5.486
L189.716 5.338
L189.568 5.338
A0.515,0.515 0 0,0 189.050,5.856
L189.050 8.667
L188.902 8.778
L189.383 8.778
L189.383 5.930
A0.331,0.331 0 0,1 189.716,5.597
L189.864 5.597
L189.864 5.227
L189.568 5.227
A0.662,0.662 0 0,0 188.902,5.893
L188.902 8.778
" 
fill="none" vector-effect="non-scaling-stroke" stroke="#000000" stroke-width="0.400mm" stroke-opacity="1.000000" fpd:visible="front" fpd:print_element="0" fpd:engraving_ral_9005="1" />
<path d="
M188.643 7.520
L189.753 7.520
L189.864 7.668
L189.864 7.372
L188.569 7.372
L188.569 7.668
L189.864 7.668
" 
fill="none" vector-effect="non-scaling-stroke" stroke="#000000" stroke-width="0.400mm" stroke-opacity="1.000000" fpd:visible="front" fpd:print_element="0" fpd:engraving_ral_9005="1" />
<path d="
M156.774 48.740
L155.324 47.290
L155.324 46.710
L156.774 45.260
L156.967 44.584
L156.967 45.550
L155.518 47.000
L156.967 48.450
L156.967 49.416
L155.034 47.483
L155.034 46.517
L156.967 44.584
" 
fill="none" vector-effect="non-scaling-stroke" stroke="#000000" stroke-width="0.600mm" stroke-opacity="1.000000" fpd:visible="front" fpd:print_element="0" fpd:engraving_ral_9005="1" />
<path d="
M177.228 48.740
L178.677 47.290
L178.677 46.710
L177.228 45.260
L177.034 44.584
L178.967 46.517
L178.967 47.483
L177.034 49.416
L177.034 48.450
L178.484 47.000
L177.034 45.550
L177.034 44.584
" 
fill="none" vector-effect="non-scaling-stroke" stroke="#000000" stroke-width="0.600mm" stroke-opacity="1.000000" fpd:visible="front" fpd:print_element="0" fpd:engraving_ral_9005="1" />
<path d="
M160.343 37.665
L162.562 37.665
L162.562 37.517
L160.528 37.517
L160.528 36.185
L162.414 36.185
L162.414 36.037
L160.528 36.037
L160.528 34.484
L162.599 34.484
L162.599 34.336
L160.343 34.336
L160.343 37.665
L160.158 37.776
L160.158 34.225
L160.713 34.595
L162.673 34.595
L162.673 34.225
L160.158 34.225
L160.713 34.595
L160.713 35.927
L162.488 35.927
L162.488 36.296
L160.713 36.296
L160.713 37.406
L162.673 37.406
L162.673 37.776
L160.158 37.776
L160.713 37.406
L160.158 37.776
" 
fill="none" vector-effect="non-scaling-stroke" stroke="#000000" stroke-width="0.400mm" stroke-opacity="1.000000" fpd:visible="front" fpd:print_element="0" fpd:engraving_ral_9005="1" />
<path d="
M163.969 36.556
L163.969 34.300
L163.784 34.300
L163.784 36.556
L163.969 36.556
L164.117 36.667
L164.117 34.226
L163.636 34.226
L163.636 36.667
L164.117 36.667
L164.117 36.149
A0.872,0.872 0 0,0 165.596,36.482
A0.979,0.979 0 0,0 165.855,35.817
L165.855 34.226
L165.374 34.226
L165.374 35.817
A0.706,0.706 0 0,1 165.189,36.297
A0.601,0.601 0 0,1 164.302,36.297
A0.706,0.706 0 0,1 164.117,35.817
A0.723,0.723 0 0,0 164.487,36.519
A0.784,0.784 0 0,0 165.707,35.891
L165.707 34.300
L165.522 34.300
L165.522 35.891
A0.677,0.677 0 0,1 164.967,36.556
" 
fill="none" vector-effect="non-scaling-stroke" stroke="#000000" stroke-width="0.400mm" stroke-opacity="1.000000" fpd:visible="front" fpd:print_element="0" fpd:engraving_ral_9005="1" />
<path d="
M167.262 37.666
L167.447 37.666
L167.447 34.929
A0.443,0.443 0 0,1 167.928,34.485
L167.928 34.337
L167.780 34.337
A0.515,0.515 0 0,0 167.262,34.855
L167.262 37.666
L167.114 37.777
L167.595 37.777
L167.595 34.929
A0.331,0.331 0 0,1 167.928,34.596
L168.076 34.596
L168.076 34.226
L167.780 34.226
A0.662,0.662 0 0,0 167.114,34.892
L167.114 37.777
" 
fill="none" vector-effect="non-scaling-stroke" stroke="#000000" stroke-width="0.400mm" stroke-opacity="1.000000" fpd:visible="front" fpd:print_element="0" fpd:engraving_ral_9005="1" />
<path d="
M166.855 36.519
L167.965 36.519
L168.076 36.667
L168.076 36.371
L166.781 36.371
L166.781 36.667
L168.076 36.667
" 
fill="none" vector-effect="non-scaling-stroke" stroke="#000000" stroke-width="0.400mm" stroke-opacity="1.000000" fpd:visible="front" fpd:print_element="0" fpd:engraving_ral_9005="1" />
<path d="
M169.555 35.595
L171.145 35.595
A1.032,1.032 0 0,1 170.812,36.334
A0.854,0.854 0 0,1 169.666,36.371
A1.284,1.284 0 0,1 169.666,34.596
A0.824,0.824 0 0,1 170.738,34.559
A1.387,1.387 0 0,1 170.923,34.744
L171.108 34.744
A1.064,1.064 0 0,0 169.185,35.114
A1.588,1.588 0 0,0 169.185,35.854
A1.019,1.019 0 0,0 170.775,36.482
A1.173,1.173 0 0,0 171.330,35.484
L169.481 35.484
L169.481 35.706
L170.960 35.706
A1.375,1.375 0 0,1 170.775,36.186
A0.651,0.651 0 0,1 169.666,36.186
A1.339,1.339 0 0,1 169.666,34.781
A0.652,0.652 0 0,1 170.812,34.855
L171.330 34.855
A1.403,1.403 0 0,0 170.997,34.448
A1.184,1.184 0 0,0 169.481,34.448
A1.355,1.355 0 0,0 169.481,36.519
A1.155,1.155 0 0,0 170.960,36.519
A1.456,1.456 0 0,0 171.478,35.410
L169.481 35.410
" 
fill="none" vector-effect="non-scaling-stroke" stroke="#000000" stroke-width="0.400mm" stroke-opacity="1.000000" fpd:visible="front" fpd:print_element="0" fpd:engraving_ral_9005="1" />
<path d="
M172.773 36.631
L172.773 34.301
L172.588 34.301
L172.588 36.631
L172.773 36.631
L172.773 35.633
L172.995 36.150
A0.803,0.803 0 0,0 173.734,36.631
L173.845 36.779
L173.845 36.446
A0.798,0.798 0 0,1 173.476,36.409
A0.816,0.816 0 0,1 172.921,35.633
L172.921 34.227
L172.440 34.227
L172.440 36.742
L172.921 36.742
L172.921 36.150
A0.746,0.746 0 0,0 173.661,36.779
L173.845 36.779
" 
fill="none" vector-effect="non-scaling-stroke" stroke="#000000" stroke-width="0.400mm" stroke-opacity="1.000000" fpd:visible="front" fpd:print_element="0" fpd:engraving_ral_9005="1" />
<path d="
M45.261 72.624
L47.161 67.385
L47.448 67.385
L45.491 72.624
L45.261 72.624
L43.303 67.385
L43.015 67.385
L44.973 72.624
L46.930 67.212
L47.794 67.212
L45.721 72.739
L44.743 72.739
L42.670 67.212
L43.533 67.212
L45.203 71.818
L44.167 69.054
L46.297 69.054
L46.355 68.882
L44.052 68.882
L43.994 68.651
L46.470 68.651
L46.470 68.479
L43.994 68.479
" 
fill="none" vector-effect="non-scaling-stroke" stroke="#000000" stroke-width="0.400mm" stroke-opacity="1.000000" fpd:visible="front" fpd:print_element="0" fpd:engraving_ral_9005="1" />
<path d="
M49.810 70.954
L49.810 67.327
L49.522 67.327
L49.522 70.954
L49.810 70.954
L49.810 69.400
L50.155 70.206
A1.250,1.250 0 0,0 51.306,70.954
L51.479 71.185
L51.479 70.666
A1.242,1.242 0 0,1 50.903,70.609
A1.270,1.270 0 0,1 50.040,69.400
L50.040 67.212
L49.291 67.212
L49.291 71.127
L50.040 71.127
L50.040 70.206
A1.161,1.161 0 0,0 51.191,71.185
L51.479 71.185
" 
fill="none" vector-effect="non-scaling-stroke" stroke="#000000" stroke-width="0.400mm" stroke-opacity="1.000000" fpd:visible="front" fpd:print_element="0" fpd:engraving_ral_9005="1" />
<path d="
M53.207 72.566
L53.495 72.566
L53.495 67.327
L53.207 67.327
L53.207 72.566
L52.976 72.739
L52.976 67.212
L53.725 67.212
L53.725 70.091
A1.520,1.520 0 0,0 56.604,70.091
A3.040,3.040 0 0,0 56.604,68.133
A1.520,1.520 0 0,0 53.725,68.133
L53.725 70.091
A2.734,2.734 0 0,0 54.301,70.724
A1.382,1.382 0 0,0 56.316,70.091
A2.582,2.582 0 0,0 56.316,68.133
A1.342,1.342 0 0,0 54.301,67.557
A1.445,1.445 0 0,1 55.395,67.500
A1.410,1.410 0 0,1 56.201,68.421
A2.627,2.627 0 0,1 56.201,69.803
A1.410,1.410 0 0,1 55.395,70.724
A1.050,1.050 0 0,1 53.955,70.148
A1.027,1.027 0 0,0 55.798,70.148
A2.387,2.387 0 0,0 55.798,68.076
A1.027,1.027 0 0,0 53.955,68.076
A2.387,2.387 0 0,0 53.955,70.148
L53.725 70.091
L53.725 72.739
L52.976 72.739
" 
fill="none" vector-effect="non-scaling-stroke" stroke="#000000" stroke-width="0.400mm" stroke-opacity="1.000000" fpd:visible="front" fpd:print_element="0" fpd:engraving_ral_9005="1" />
<path d="
M58.446 72.221
L58.734 72.221
L58.734 72.509
L58.446 72.509
L58.446 72.221
L58.216 71.991
L58.964 71.991
L58.964 72.739
L58.216 72.739
L58.216 71.991
" 
fill="none" vector-effect="non-scaling-stroke" stroke="#000000" stroke-width="0.400mm" stroke-opacity="1.000000" fpd:visible="front" fpd:print_element="0" fpd:engraving_ral_9005="1" />
<path d="
M58.734 70.954
L58.734 67.327
L58.446 67.327
L58.446 70.954
L58.734 70.954
L58.964 71.127
L58.964 67.212
L58.216 67.212
L58.216 71.127
L58.964 71.127
" 
fill="none" vector-effect="non-scaling-stroke" stroke="#000000" stroke-width="0.400mm" stroke-opacity="1.000000" fpd:visible="front" fpd:print_element="0" fpd:engraving_ral_9005="1" />
<path d="
M61.152 72.567
L61.440 72.567
L61.440 68.307
A0.690,0.690 0 0,1 62.189,67.616
L62.189 67.386
L61.958 67.386
A0.802,0.802 0 0,0 61.152,68.192
L61.152 72.567
L60.922 72.740
L61.670 72.740
L61.670 68.307
A0.515,0.515 0 0,1 62.189,67.789
L62.419 67.789
L62.419 67.213
L61.958 67.213
A1.031,1.031 0 0,0 60.922,68.249
L60.922 72.740
" 
fill="none" vector-effect="non-scaling-stroke" stroke="#000000" stroke-width="0.400mm" stroke-opacity="1.000000" fpd:visible="front" fpd:print_element="0" fpd:engraving_ral_9005="1" />
<path d="
M60.519 70.783
L62.246 70.783
L62.419 71.013
L62.419 70.552
L60.404 70.552
L60.404 71.013
L62.419 71.013
" 
fill="none" vector-effect="non-scaling-stroke" stroke="#000000" stroke-width="0.400mm" stroke-opacity="1.000000" fpd:visible="front" fpd:print_element="0" fpd:engraving_ral_9005="1" />
<path d="
M64.435 70.956
L64.435 67.329
L64.147 67.329
L64.147 70.956
L64.435 70.956
L64.435 69.402
L64.780 70.208
A1.250,1.250 0 0,0 65.931,70.956
L66.104 71.187
L66.104 70.668
A1.242,1.242 0 0,1 65.528,70.611
A1.270,1.270 0 0,1 64.665,69.402
L64.665 67.214
L63.916 67.214
L63.916 71.129
L64.665 71.129
L64.665 70.208
A1.161,1.161 0 0,0 65.816,71.187
L66.104 71.187
" 
fill="none" vector-effect="non-scaling-stroke" stroke="#000000" stroke-width="0.400mm" stroke-opacity="1.000000" fpd:visible="front" fpd:print_element="0" fpd:engraving_ral_9005="1" />
<path d="
M68.062 70.208
A1.031,1.031 0 0,0 68.753,70.899
A2.304,2.304 0 0,0 70.365,70.784
A0.791,0.791 0 0,0 70.826,70.093
L70.826 67.502
L70.941 67.272
L70.653 67.905
L70.653 67.329
L70.423 67.732
L70.653 68.250
A1.837,1.837 0 0,0 69.444,67.559
A1.550,1.550 0 0,0 68.407,67.675
A0.681,0.681 0 0,0 68.407,68.826
A5.196,5.196 0 0,1 70.595,69.862
L70.307 69.459
L70.307 68.596
A0.966,0.966 0 0,0 69.617,67.675
A1.254,1.254 0 0,0 68.638,67.790
A0.520,0.520 0 0,0 68.465,68.538
A1.002,1.002 0 0,0 69.041,68.941
A13.311,13.311 0 0,1 69.847,69.171
A1.095,1.095 0 0,1 70.307,69.459
L70.595 70.035
L70.595 68.653
A1.682,1.682 0 0,0 68.235,67.502
A0.761,0.761 0 0,0 67.889,68.481
A1.018,1.018 0 0,0 68.523,69.056
A11.118,11.118 0 0,1 70.192,69.574
A0.626,0.626 0 0,1 70.135,70.726
A2.066,2.066 0 0,1 68.926,70.726
A0.756,0.756 0 0,1 68.350,70.208
L68.062 70.208
L67.832 70.035
L68.580 70.035
A0.518,0.518 0 0,0 68.868,70.496
A1.326,1.326 0 0,0 70.020,70.496
A0.490,0.490 0 0,0 69.904,69.574
L68.753 69.344
A1.672,1.672 0 0,1 67.889,68.884
A1.008,1.008 0 0,1 68.292,67.214
A2.248,2.248 0 0,1 69.674,67.214
A0.819,0.819 0 0,1 70.192,67.732
A1.514,1.514 0 0,1 70.423,67.214
L71.286 67.214
A0.241,0.241 0 0,0 71.113,67.444
L71.113 69.920
A1.082,1.082 0 0,1 70.538,70.899
A2.308,2.308 0 0,1 68.350,70.899
A0.983,0.983 0 0,1 67.832,70.035
" 
fill="none" vector-effect="non-scaling-stroke" stroke="#000000" stroke-width="0.400mm" stroke-opacity="1.000000" fpd:visible="front" fpd:print_element="0" fpd:engraving_ral_9005="1" />
<path d="
M73.302 70.956
L73.302 67.329
L73.014 67.329
L73.014 70.956
L73.302 70.956
L73.302 69.402
L73.647 70.208
A1.250,1.250 0 0,0 74.798,70.956
L74.971 71.187
L74.971 70.668
A1.242,1.242 0 0,1 74.395,70.611
A1.270,1.270 0 0,1 73.532,69.402
L73.532 67.214
L72.783 67.214
L72.783 71.129
L73.532 71.129
L73.532 70.208
A1.161,1.161 0 0,0 74.683,71.187
L74.971 71.187
" 
fill="none" vector-effect="non-scaling-stroke" stroke="#000000" stroke-width="0.400mm" stroke-opacity="1.000000" fpd:visible="front" fpd:print_element="0" fpd:engraving_ral_9005="1" />
<path d="
M77.044 70.956
L78.253 67.387
L79.462 70.956
L79.750 70.956
L78.196 66.638
A0.794,0.794 0 0,0 77.447,66.120
L77.044 66.120
L77.044 66.350
L77.332 66.350
A0.738,0.738 0 0,1 78.023,67.329
L76.756 70.956
L77.044 70.956
L77.217 71.129
L78.253 67.962
L79.290 71.129
L80.038 71.129
L78.484 66.638
A1.045,1.045 0 0,0 77.505,65.947
L76.814 65.947
L76.814 66.523
L77.274 66.523
A0.566,0.566 0 0,1 77.793,67.272
L76.468 71.129
L77.217 71.129
" 
fill="none" vector-effect="non-scaling-stroke" stroke="#000000" stroke-width="0.400mm" stroke-opacity="1.000000" fpd:visible="front" fpd:print_element="0" fpd:engraving_ral_9005="1" />
<path d="
M86.660 72.568
L86.891 72.568
L88.272 67.847
L88.503 67.847
L89.712 72.453
L90.230 72.453
L91.439 67.847
L91.727 67.847
L93.108 72.568
L93.339 72.568
L91.842 67.502
L91.324 67.502
L90.115 72.165
L89.884 72.165
L88.675 67.502
L88.157 67.502
L86.660 72.568
L86.372 72.741
L87.121 72.741
L88.388 68.193
L89.539 72.741
L90.403 72.741
L91.554 68.193
L92.878 72.741
L93.627 72.741
L92.015 67.214
L91.151 67.214
L90.000 71.705
L88.848 67.214
L87.984 67.214
L86.372 72.741
" 
fill="none" vector-effect="non-scaling-stroke" stroke="#000000" stroke-width="0.400mm" stroke-opacity="1.000000" fpd:visible="front" fpd:print_element="0" fpd:engraving_ral_9005="1" />
<path d="
M95.585 70.208
A1.031,1.031 0 0,0 96.276,70.899
A2.304,2.304 0 0,0 97.888,70.784
A0.791,0.791 0 0,0 98.349,70.093
L98.349 67.502
L98.464 67.272
L98.176 67.905
L98.176 67.329
L97.946 67.732
L98.176 68.250
A1.837,1.837 0 0,0 96.967,67.559
A1.550,1.550 0 0,0 95.930,67.675
A0.681,0.681 0 0,0 95.930,68.826
A5.196,5.196 0 0,1 98.118,69.862
L97.830 69.459
L97.830 68.596
A0.966,0.966 0 0,0 97.139,67.675
A1.254,1.254 0 0,0 96.161,67.790
A0.520,0.520 0 0,0 95.988,68.538
A1.002,1.002 0 0,0 96.564,68.941
A13.311,13.311 0 0,1 97.370,69.171
A1.095,1.095 0 0,1 97.830,69.459
L98.118 70.035
L98.118 68.653
A1.682,1.682 0 0,0 95.758,67.502
A0.761,0.761 0 0,0 95.412,68.481
A1.018,1.018 0 0,0 96.046,69.056
A11.118,11.118 0 0,1 97.715,69.574
A0.626,0.626 0 0,1 97.658,70.726
A2.066,2.066 0 0,1 96.449,70.726
A0.756,0.756 0 0,1 95.873,70.208
L95.585 70.208
L95.355 70.035
L96.103 70.035
A0.518,0.518 0 0,0 96.391,70.496
A1.326,1.326 0 0,0 97.543,70.496
A0.490,0.490 0 0,0 97.427,69.574
L96.276 69.344
A1.672,1.672 0 0,1 95.412,68.884
A1.008,1.008 0 0,1 95.815,67.214
A2.248,2.248 0 0,1 97.197,67.214
A0.819,0.819 0 0,1 97.715,67.732
A1.514,1.514 0 0,1 97.946,67.214
L98.809 67.214
A0.241,0.241 0 0,0 98.636,67.444
L98.636 69.920
A1.082,1.082 0 0,1 98.061,70.899
A2.308,2.308 0 0,1 95.873,70.899
A0.983,0.983 0 0,1 95.355,70.035
" 
fill="none" vector-effect="non-scaling-stroke" stroke="#000000" stroke-width="0.400mm" stroke-opacity="1.000000" fpd:visible="front" fpd:print_element="0" fpd:engraving_ral_9005="1" />
<path d="
M100.882 70.899
L101.976 67.675
L102.206 67.675
L103.300 70.899
L103.588 70.899
L102.379 67.387
L101.803 67.387
L100.594 70.899
L100.882 70.899
L101.055 71.071
L102.091 67.905
L103.128 71.071
L103.876 71.071
L102.552 67.214
L101.631 67.214
L100.306 71.071
L101.055 71.071
" 
fill="none" vector-effect="non-scaling-stroke" stroke="#000000" stroke-width="0.400mm" stroke-opacity="1.000000" fpd:visible="front" fpd:print_element="0" fpd:engraving_ral_9005="1" />
<path d="
M106.179 69.344
L108.655 69.344
A1.607,1.607 0 0,1 108.137,70.496
A1.329,1.329 0 0,1 106.352,70.553
A1.998,1.998 0 0,1 106.352,67.790
A1.283,1.283 0 0,1 108.022,67.732
A2.159,2.159 0 0,1 108.310,68.020
L108.598 68.020
A1.656,1.656 0 0,0 105.604,68.596
A2.471,2.471 0 0,0 105.604,69.747
A1.587,1.587 0 0,0 108.079,70.726
A1.826,1.826 0 0,0 108.943,69.171
L106.064 69.171
L106.064 69.517
L108.367 69.517
A2.141,2.141 0 0,1 108.079,70.265
A1.014,1.014 0 0,1 106.352,70.265
A2.085,2.085 0 0,1 106.352,68.078
A1.015,1.015 0 0,1 108.137,68.193
L108.943 68.193
A2.184,2.184 0 0,0 108.425,67.559
A1.843,1.843 0 0,0 106.064,67.559
A2.109,2.109 0 0,0 106.064,70.784
A1.798,1.798 0 0,0 108.367,70.784
A2.266,2.266 0 0,0 109.173,69.056
L106.064 69.056
" 
fill="none" vector-effect="non-scaling-stroke" stroke="#000000" stroke-width="0.400mm" stroke-opacity="1.000000" fpd:visible="front" fpd:print_element="0" fpd:engraving_ral_9005="1" />
<path d="
M110.728 70.899
L112.455 70.899
L112.628 71.129
L112.628 70.668
L110.613 70.668
L110.613 71.129
L112.628 71.129
L111.649 71.129
L111.649 71.647
L111.649 67.387
L111.361 67.387
L111.361 71.762
A0.802,0.802 0 0,0 112.167,72.568
L112.398 72.568
L112.398 72.338
A0.690,0.690 0 0,1 111.649,71.647
L111.879 71.647
L111.879 67.214
L111.131 67.214
L111.131 71.705
A1.031,1.031 0 0,0 112.167,72.741
L112.628 72.741
L112.628 72.165
L112.398 72.165
A0.515,0.515 0 0,1 111.879,71.647
" 
fill="none" vector-effect="non-scaling-stroke" stroke="#000000" stroke-width="0.400mm" stroke-opacity="1.000000" fpd:visible="front" fpd:print_element="0" fpd:engraving_ral_9005="1" />
<path d="
M115.161 70.553
A1.985,1.985 0 0,1 115.161,67.847
A1.313,1.313 0 0,1 117.003,67.847
A1.985,1.985 0 0,1 117.003,70.553
A1.415,1.415 0 0,1 115.161,70.553
L114.585 70.035
A1.930,1.930 0 0,1 114.585,68.308
A1.619,1.619 0 0,1 117.579,68.308
A1.930,1.930 0 0,1 117.579,70.035
A1.642,1.642 0 0,1 114.585,70.035
L114.412 70.208
A1.919,1.919 0 0,0 117.752,70.208
A2.129,2.129 0 0,0 117.752,68.135
A1.919,1.919 0 0,0 114.412,68.135
A2.129,2.129 0 0,0 114.412,70.208
L114.988 69.920
A1.144,1.144 0 0,0 117.176,69.920
A2.557,2.557 0 0,0 117.176,68.423
A1.144,1.144 0 0,0 114.988,68.423
A2.557,2.557 0 0,0 114.988,69.920
" 
fill="none" vector-effect="non-scaling-stroke" stroke="#000000" stroke-width="0.400mm" stroke-opacity="1.000000" fpd:visible="front" fpd:print_element="0" fpd:engraving_ral_9005="1" />
<path d="
M120.054 70.956
L120.054 67.329
L119.766 67.329
L119.766 70.956
L120.054 70.956
L120.054 69.402
L120.399 70.208
A1.250,1.250 0 0,0 121.550,70.956
L121.723 71.187
L121.723 70.668
A1.242,1.242 0 0,1 121.147,70.611
A1.270,1.270 0 0,1 120.284,69.402
L120.284 67.214
L119.535 67.214
L119.535 71.129
L120.284 71.129
L120.284 70.208
A1.161,1.161 0 0,0 121.435,71.187
L121.723 71.187
" 
fill="none" vector-effect="non-scaling-stroke" stroke="#000000" stroke-width="0.400mm" stroke-opacity="1.000000" fpd:visible="front" fpd:print_element="0" fpd:engraving_ral_9005="1" />
<path d="
M123.680 70.956
L123.680 67.329
L123.450 67.329
L123.450 70.956
L123.680 70.956
L123.680 69.574
L123.968 70.208
A1.082,1.082 0 0,0 125.119,70.841
A1.171,1.171 0 0,0 126.041,69.690
L126.041 67.329
L126.271 67.329
L126.271 69.574
A2.995,2.995 0 0,0 126.731,70.496
A1.160,1.160 0 0,0 127.710,70.841
A1.171,1.171 0 0,0 128.631,69.690
L128.631 67.329
L128.862 67.329
L128.862 69.690
A1.631,1.631 0 0,1 128.286,70.784
A0.990,0.990 0 0,1 127.019,70.841
A3.158,3.158 0 0,1 126.271,69.574
A1.458,1.458 0 0,1 125.580,70.899
A1.234,1.234 0 0,1 124.544,70.956
A1.523,1.523 0 0,1 123.910,70.208
L123.910 71.129
L123.219 71.129
L123.219 67.214
L123.910 67.214
L123.910 69.690
A1.086,1.086 0 0,0 124.428,70.611
A0.823,0.823 0 0,0 125.292,70.611
A1.086,1.086 0 0,0 125.810,69.690
L125.810 67.214
L126.501 67.214
L126.501 69.690
A1.086,1.086 0 0,0 127.019,70.611
A0.823,0.823 0 0,0 127.883,70.611
A1.086,1.086 0 0,0 128.401,69.690
L128.401 67.214
L129.092 67.214
L129.092 69.690
A1.582,1.582 0 0,1 128.459,70.956
A1.207,1.207 0 0,1 127.019,70.956
A1.612,1.612 0 0,1 126.444,70.093
A1.612,1.612 0 0,1 125.868,70.956
A1.207,1.207 0 0,1 124.428,70.956
A1.414,1.414 0 0,1 123.910,70.208
" 
fill="none" vector-effect="non-scaling-stroke" stroke="#000000" stroke-width="0.400mm" stroke-opacity="1.000000" fpd:visible="front" fpd:print_element="0" fpd:engraving_ral_9005="1" />
<path d="
M139.685 71.417
L139.397 71.877
A1.908,1.908 0 0,1 136.518,71.705
A3.145,3.145 0 0,1 136.518,68.250
A1.937,1.937 0 0,1 139.858,68.711
L140.145 67.387
L140.145 69.632
L138.476 69.632
L138.476 69.402
L140.030 69.402
L140.030 69.229
A4.065,4.065 0 0,0 139.742,68.250
A2.075,2.075 0 0,0 136.288,68.250
A2.897,2.897 0 0,0 136.288,71.705
A2.059,2.059 0 0,0 139.742,71.705
A2.640,2.640 0 0,0 139.973,71.359
L140.376 71.187
L139.570 71.187
A1.654,1.654 0 0,1 136.461,71.187
A3.594,3.594 0 0,1 136.461,68.768
A1.658,1.658 0 0,1 138.015,67.675
A1.789,1.789 0 0,1 139.800,69.229
L138.361 69.229
L138.361 69.805
L140.376 69.805
L140.376 67.214
L139.973 67.214
L139.742 68.020
A2.065,2.065 0 0,0 138.015,67.099
A2.445,2.445 0 0,0 136.058,68.078
A3.187,3.187 0 0,0 136.058,71.877
A2.435,2.435 0 0,0 139.973,71.877
A3.187,3.187 0 0,0 140.376,71.187
" 
fill="none" vector-effect="non-scaling-stroke" stroke="#000000" stroke-width="0.400mm" stroke-opacity="1.000000" fpd:visible="front" fpd:print_element="0" fpd:engraving_ral_9005="1" />
<path d="
M142.678 69.344
L145.154 69.344
A1.607,1.607 0 0,1 144.636,70.496
A1.329,1.329 0 0,1 142.851,70.553
A1.998,1.998 0 0,1 142.851,67.790
A1.283,1.283 0 0,1 144.521,67.732
A2.159,2.159 0 0,1 144.809,68.020
L145.097 68.020
A1.656,1.656 0 0,0 142.103,68.596
A2.471,2.471 0 0,0 142.103,69.747
A1.587,1.587 0 0,0 144.578,70.726
A1.826,1.826 0 0,0 145.442,69.171
L142.563 69.171
L142.563 69.517
L144.866 69.517
A2.141,2.141 0 0,1 144.578,70.265
A1.014,1.014 0 0,1 142.851,70.265
A2.085,2.085 0 0,1 142.851,68.078
A1.015,1.015 0 0,1 144.636,68.193
L145.442 68.193
A2.184,2.184 0 0,0 144.924,67.559
A1.843,1.843 0 0,0 142.563,67.559
A2.109,2.109 0 0,0 142.563,70.784
A1.798,1.798 0 0,0 144.866,70.784
A2.266,2.266 0 0,0 145.672,69.056
L142.563 69.056
" 
fill="none" vector-effect="non-scaling-stroke" stroke="#000000" stroke-width="0.400mm" stroke-opacity="1.000000" fpd:visible="front" fpd:print_element="0" fpd:engraving_ral_9005="1" />
<path d="
M147.687 70.841
L147.687 67.329
L147.399 67.329
L147.399 70.841
L147.687 70.841
L147.917 71.014
L147.917 67.214
L147.168 67.214
L147.168 71.014
L147.917 71.014
L147.917 70.208
A1.357,1.357 0 0,0 150.220,70.726
A1.524,1.524 0 0,0 150.623,69.690
L150.623 67.214
L149.874 67.214
L149.874 69.690
A1.099,1.099 0 0,1 149.587,70.438
A0.936,0.936 0 0,1 148.205,70.438
A1.099,1.099 0 0,1 147.917,69.690
A1.125,1.125 0 0,0 148.493,70.784
A1.220,1.220 0 0,0 150.393,69.805
L150.393 67.329
L150.105 67.329
L150.105 69.805
A1.053,1.053 0 0,1 149.241,70.841
" 
fill="none" vector-effect="non-scaling-stroke" stroke="#000000" stroke-width="0.400mm" stroke-opacity="1.000000" fpd:visible="front" fpd:print_element="0" fpd:engraving_ral_9005="1" />
<path d="
M152.925 69.344
L155.401 69.344
A1.607,1.607 0 0,1 154.883,70.496
A1.329,1.329 0 0,1 153.098,70.553
A1.998,1.998 0 0,1 153.098,67.790
A1.283,1.283 0 0,1 154.768,67.732
A2.159,2.159 0 0,1 155.056,68.020
L155.344 68.020
A1.656,1.656 0 0,0 152.350,68.596
A2.471,2.471 0 0,0 152.350,69.747
A1.587,1.587 0 0,0 154.825,70.726
A1.826,1.826 0 0,0 155.689,69.171
L152.810 69.171
L152.810 69.517
L155.113 69.517
A2.141,2.141 0 0,1 154.825,70.265
A1.014,1.014 0 0,1 153.098,70.265
A2.085,2.085 0 0,1 153.098,68.078
A1.015,1.015 0 0,1 154.883,68.193
L155.689 68.193
A2.184,2.184 0 0,0 155.171,67.559
A1.843,1.843 0 0,0 152.810,67.559
A2.109,2.109 0 0,0 152.810,70.784
A1.798,1.798 0 0,0 155.113,70.784
A2.266,2.266 0 0,0 155.919,69.056
L152.810 69.056
" 
fill="none" vector-effect="non-scaling-stroke" stroke="#000000" stroke-width="0.400mm" stroke-opacity="1.000000" fpd:visible="front" fpd:print_element="0" fpd:engraving_ral_9005="1" />
<path d="
M157.934 70.956
L157.934 67.329
L157.646 67.329
L157.646 70.956
L157.934 70.956
L157.934 69.402
L158.279 70.208
A1.250,1.250 0 0,0 159.430,70.956
L159.603 71.187
L159.603 70.668
A1.242,1.242 0 0,1 159.027,70.611
A1.270,1.270 0 0,1 158.164,69.402
L158.164 67.214
L157.415 67.214
L157.415 71.129
L158.164 71.129
L158.164 70.208
A1.161,1.161 0 0,0 159.315,71.187
L159.603 71.187
" 
fill="none" vector-effect="non-scaling-stroke" stroke="#000000" stroke-width="0.400mm" stroke-opacity="1.000000" fpd:visible="front" fpd:print_element="0" fpd:engraving_ral_9005="1" />
<path d="
M161.560 70.208
A1.031,1.031 0 0,0 162.251,70.899
A2.304,2.304 0 0,0 163.863,70.784
A0.791,0.791 0 0,0 164.324,70.093
L164.324 67.502
L164.439 67.272
L164.151 67.905
L164.151 67.329
L163.921 67.732
L164.151 68.250
A1.837,1.837 0 0,0 162.942,67.559
A1.550,1.550 0 0,0 161.905,67.675
A0.681,0.681 0 0,0 161.905,68.826
A5.196,5.196 0 0,1 164.093,69.862
L163.805 69.459
L163.805 68.596
A0.966,0.966 0 0,0 163.114,67.675
A1.254,1.254 0 0,0 162.136,67.790
A0.520,0.520 0 0,0 161.963,68.538
A1.002,1.002 0 0,0 162.539,68.941
A13.311,13.311 0 0,1 163.345,69.171
A1.095,1.095 0 0,1 163.805,69.459
L164.093 70.035
L164.093 68.653
A1.682,1.682 0 0,0 161.733,67.502
A0.761,0.761 0 0,0 161.387,68.481
A1.018,1.018 0 0,0 162.021,69.056
A11.118,11.118 0 0,1 163.690,69.574
A0.626,0.626 0 0,1 163.633,70.726
A2.066,2.066 0 0,1 162.424,70.726
A0.756,0.756 0 0,1 161.848,70.208
L161.560 70.208
L161.330 70.035
L162.078 70.035
A0.518,0.518 0 0,0 162.366,70.496
A1.326,1.326 0 0,0 163.518,70.496
A0.490,0.490 0 0,0 163.402,69.574
L162.251 69.344
A1.672,1.672 0 0,1 161.387,68.884
A1.008,1.008 0 0,1 161.790,67.214
A2.248,2.248 0 0,1 163.172,67.214
A0.819,0.819 0 0,1 163.690,67.732
A1.514,1.514 0 0,1 163.921,67.214
L164.784 67.214
A0.241,0.241 0 0,0 164.611,67.444
L164.611 69.920
A1.082,1.082 0 0,1 164.036,70.899
A2.308,2.308 0 0,1 161.848,70.899
A0.983,0.983 0 0,1 161.330,70.035
" 
fill="none" vector-effect="non-scaling-stroke" stroke="#000000" stroke-width="0.400mm" stroke-opacity="1.000000" fpd:visible="front" fpd:print_element="0" fpd:engraving_ral_9005="1" />
<path d="
M166.971 72.568
L167.259 72.568
L167.259 68.308
A0.690,0.690 0 0,1 168.008,67.617
L168.008 67.387
L167.777 67.387
A0.802,0.802 0 0,0 166.971,68.193
L166.971 72.568
L166.741 72.741
L167.489 72.741
L167.489 68.308
A0.515,0.515 0 0,1 168.008,67.790
L168.238 67.790
L168.238 67.214
L167.777 67.214
A1.031,1.031 0 0,0 166.741,68.250
L166.741 72.741
" 
fill="none" vector-effect="non-scaling-stroke" stroke="#000000" stroke-width="0.400mm" stroke-opacity="1.000000" fpd:visible="front" fpd:print_element="0" fpd:engraving_ral_9005="1" />
<path d="
M166.338 70.784
L168.065 70.784
L168.238 71.014
L168.238 70.553
L166.223 70.553
L166.223 71.014
L168.238 71.014
" 
fill="none" vector-effect="non-scaling-stroke" stroke="#000000" stroke-width="0.400mm" stroke-opacity="1.000000" fpd:visible="front" fpd:print_element="0" fpd:engraving_ral_9005="1" />
<path d="
M170.771 70.554
A1.985,1.985 0 0,1 170.771,67.848
A1.313,1.313 0 0,1 172.613,67.848
A1.985,1.985 0 0,1 172.613,70.554
A1.415,1.415 0 0,1 170.771,70.554
L170.195 70.036
A1.930,1.930 0 0,1 170.195,68.309
A1.619,1.619 0 0,1 173.189,68.309
A1.930,1.930 0 0,1 173.189,70.036
A1.642,1.642 0 0,1 170.195,70.036
L170.022 70.209
A1.919,1.919 0 0,0 173.362,70.209
A2.129,2.129 0 0,0 173.362,68.136
A1.919,1.919 0 0,0 170.022,68.136
A2.129,2.129 0 0,0 170.022,70.209
L170.598 69.921
A1.144,1.144 0 0,0 172.786,69.921
A2.557,2.557 0 0,0 172.786,68.424
A1.144,1.144 0 0,0 170.598,68.424
A2.557,2.557 0 0,0 170.598,69.921
" 
fill="none" vector-effect="non-scaling-stroke" stroke="#000000" stroke-width="0.400mm" stroke-opacity="1.000000" fpd:visible="front" fpd:print_element="0" fpd:engraving_ral_9005="1" />
<path d="
M175.664 70.957
L175.664 67.330
L175.376 67.330
L175.376 70.957
L175.664 70.957
L175.664 69.403
L176.009 70.209
A1.250,1.250 0 0,0 177.161,70.957
L177.333 71.188
L177.333 70.669
A1.242,1.242 0 0,1 176.757,70.612
A1.270,1.270 0 0,1 175.894,69.403
L175.894 67.215
L175.145 67.215
L175.145 71.130
L175.894 71.130
L175.894 70.209
A1.161,1.161 0 0,0 177.045,71.188
L177.333 71.188
" 
fill="none" vector-effect="non-scaling-stroke" stroke="#000000" stroke-width="0.400mm" stroke-opacity="1.000000" fpd:visible="front" fpd:print_element="0" fpd:engraving_ral_9005="1" />
<path d="
M221.000 27.648
L-1.000 27.648
" 
fill="none" vector-effect="non-scaling-stroke" stroke="#003687" stroke-width="3.000mm" stroke-opacity="1.000000" fpd:visible="front" fpd:print_element="0" fpd:engraving_ral_5010="1" />
<path d="
M38.000 63.621
A1.000,1.000 0 0,1 39.000,62.621
L181.000 62.621
A1.000,1.000 0 0,1 182.000,63.621
L182.000 74.621
A1.000,1.000 0 0,1 181.000,75.621
L39.000 75.621
A1.000,1.000 0 0,1 38.000,74.621
L38.000 63.621
" 
fill="none" vector-effect="non-scaling-stroke" stroke="#b42041" stroke-width="1.500mm" stroke-opacity="1.000000" fpd:visible="front" fpd:print_element="0" fpd:engraving_ral_3027="1" />
<path d="
M29.000 18.500
A1.500,1.500 0 0,1 30.500,17.000
L91.500 17.000
A1.500,1.500 0 0,1 93.000,18.500
L93.000 59.500
A1.500,1.500 0 0,1 91.500,61.000
L30.500 61.000
A1.500,1.500 0 0,1 29.000,59.500
L29.000 18.500
" 
fill="#ffffff" fill-opacity="1.000000" vector-effect="non-scaling-stroke" stroke="#000000" stroke-width="0.100mm" stroke-opacity="1.000000" fpd:visible="front back" fpd:print_element="0" />
<path d="
M112.500 47.000
A1.500,1.500 0 1,0 115.500,47.000
A1.500,1.500 0 1,0 112.500,47.000
" 
fill="#ffffff" fill-opacity="1.000000" vector-effect="non-scaling-stroke" stroke="#000000" stroke-width="0.100mm" stroke-opacity="1.000000" fpd:visible="front back" fpd:print_element="0" />
<path d="
M127.000 47.000
A1.500,1.500 0 1,0 130.000,47.000
A1.500,1.500 0 1,0 127.000,47.000
" 
fill="#ffffff" fill-opacity="1.000000" vector-effect="non-scaling-stroke" stroke="#000000" stroke-width="0.100mm" stroke-opacity="1.000000" fpd:visible="front back" fpd:print_element="0" />
<path d="
M165.500 47.000
A1.500,1.500 0 1,0 168.500,47.000
A1.500,1.500 0 1,0 165.500,47.000
" 
fill="#ffffff" fill-opacity="1.000000" vector-effect="non-scaling-stroke" stroke="#000000" stroke-width="0.100mm" stroke-opacity="1.000000" fpd:visible="front back" fpd:print_element="0" />
<path d="
M120.500 16.500
A1.500,1.500 0 1,0 123.500,16.500
A1.500,1.500 0 1,0 120.500,16.500
" 
fill="#ffffff" fill-opacity="1.000000" vector-effect="non-scaling-stroke" stroke="#000000" stroke-width="0.100mm" stroke-opacity="1.000000" fpd:visible="front back" fpd:print_element="0" />
<path d="
M152.000 16.500
A1.500,1.500 0 1,0 155.000,16.500
A1.500,1.500 0 1,0 152.000,16.500
" 
fill="#ffffff" fill-opacity="1.000000" vector-effect="non-scaling-stroke" stroke="#000000" stroke-width="0.100mm" stroke-opacity="1.000000" fpd:visible="front back" fpd:print_element="0" />
<path d="
M182.500 16.500
A1.500,1.500 0 1,0 185.500,16.500
A1.500,1.500 0 1,0 182.500,16.500
" 
fill="#ffffff" fill-opacity="1.000000" vector-effect="non-scaling-stroke" stroke="#000000" stroke-width="0.100mm" stroke-opacity="1.000000" fpd:visible="front back" fpd:print_element="0" />
<path d="
M220.000 78.000
L220.000 0.000
L0.000 0.000
L0.000 78.000
L220.000 78.000
" 
fill="none" vector-effect="non-scaling-stroke" stroke="#000000" stroke-width="0.100mm" stroke-opacity="1.000000" fpd:visible="front back" />
</g>
</svg>
