<?xml version="1.0" encoding="UTF-8" standalone="no"?>
<svg
   xmlns:fpd="http://www.schaeffer-ag.de"
   xmlns:dc="http://purl.org/dc/elements/1.1/"
   xmlns:cc="http://creativecommons.org/ns#"
   xmlns:rdf="http://www.w3.org/1999/02/22-rdf-syntax-ns#"
   xmlns:svg="http://www.w3.org/2000/svg"
   xmlns="http://www.w3.org/2000/svg"
   xmlns:sodipodi="http://sodipodi.sourceforge.net/DTD/sodipodi-0.dtd"
   xmlns:inkscape="http://www.inkscape.org/namespaces/inkscape"
   inkscape:version="1.0 (4035a4fb49, 2020-05-01)"
   sodipodi:docname="front pane invertedl.svg"
   id="svg160"
   viewBox="0 0 220.000 78.000"
   version="1.1"
   height="78.000mm"
   width="220.000mm">
  <metadata
     id="metadata164">
    <rdf:RDF>
      <cc:Work
         rdf:about="">
        <dc:format>image/svg+xml</dc:format>
        <dc:type
           rdf:resource="http://purl.org/dc/dcmitype/StillImage" />
        <dc:title></dc:title>
      </cc:Work>
    </rdf:RDF>
  </metadata>
  <sodipodi:namedview
     inkscape:current-layer="svg160"
     inkscape:window-maximized="1"
     inkscape:window-y="-8"
     inkscape:window-x="-8"
     inkscape:cy="147.40157"
     inkscape:cx="415.74803"
     inkscape:zoom="1.4768561"
     showgrid="false"
     id="namedview162"
     inkscape:window-height="877"
     inkscape:window-width="1600"
     inkscape:pageshadow="2"
     inkscape:pageopacity="0"
     guidetolerance="10"
     gridtolerance="10"
     objecttolerance="10"
     borderopacity="1"
     bordercolor="#666666"
     pagecolor="#ffffff" />
  <desc
     id="desc2">Ce schéma a été créé avec le Designer de faces avant en exportant le fichier 'awg.fpd'.</desc>
  <defs
     id="defs14">
    <pattern
       patternUnits="userSpaceOnUse"
       height="2.200"
       width="2.200"
       y="1"
       x="1"
       id="revside-fill">
      <line
         id="line4"
         style="stroke-width:0.220; stroke:black; stroke-dasharray:none;"
         y2="2.200"
         x2="2.200"
         y1="0"
         x1="0" />
      <line
         id="line6"
         style="stroke-width:0.220; stroke:black; stroke-dasharray:none;"
         y2="0"
         x2="2.200"
         y1="2.200"
         x1="0" />
    </pattern>
    <pattern
       patternUnits="userSpaceOnUse"
       height="2.200"
       width="2.200"
       y="1"
       x="1"
       id="revside-fill-silver">
      <line
         id="line9"
         style="stroke-width:0.220; stroke:#e0e0e0; stroke-dasharray:none;"
         y2="2.200"
         x2="2.200"
         y1="0"
         x1="0" />
      <line
         id="line11"
         style="stroke-width:0.220; stroke:#e0e0e0; stroke-dasharray:none;"
         y2="0"
         x2="2.200"
         y1="2.200"
         x1="0" />
    </pattern>
  </defs>
  <g
     id="g158"
     style="stroke-linecap:round;stroke-linejoin:round;stroke-opacity:1"
     fill-rule="evenodd"
     transform="rotate(180,110,39)">
    <path
       id="path16"
       fpd:visible="front back"
       stroke-opacity="1"
       stroke-width="0.1mm"
       stroke="#000000"
       vector-effect="non-scaling-stroke"
       fill-opacity="1"
       fill="#fafafa"
       d="M 220,78 V 0 H 0 v 78 h 220" />
    <path
       id="path18"
       fpd:engraving_ral_9005="1"
       fpd:print_element="0"
       fpd:visible="front"
       stroke-opacity="1"
       stroke-width="0.4mm"
       stroke="#000000"
       vector-effect="non-scaling-stroke"
       fill="none"
       d="m 111.948,59.702 1.221,-3.366 h 0.185 l -1.258,3.366 h -0.148 l -1.257,-3.366 h -0.185 l 1.257,3.366 1.258,-3.477 h 0.555 l -1.332,3.551 h -0.629 l -1.331,-3.551 h 0.555 l 1.072,2.959 -0.665,-1.775 h 1.368 l 0.037,-0.111 h -1.479 l -0.037,-0.148 h 1.59 v -0.111 h -1.59" />
    <path
       id="path20"
       fpd:engraving_ral_9005="1"
       fpd:print_element="0"
       fpd:visible="front"
       stroke-opacity="1"
       stroke-width="0.4mm"
       stroke="#000000"
       vector-effect="non-scaling-stroke"
       fill="none"
       d="m 117.385,58.889 h -0.148 l -0.185,0.296 a 1.198,1.198 0 0 1 -1.849,-0.074 2.02,2.02 0 0 1 0,-2.219 1.174,1.174 0 0 1 1.886,-0.037 l 0.259,0.444 h 0.148 a 1.847,1.847 0 0 0 -0.222,-0.407 1.312,1.312 0 0 0 -2.219,0 1.861,1.861 0 0 0 0,2.219 1.312,1.312 0 0 0 2.219,0 1.506,1.506 0 0 0 0.148,-0.185 l 0.259,-0.148 h -0.518 a 1.063,1.063 0 0 1 -1.997,0 2.309,2.309 0 0 1 0,-1.553 1.063,1.063 0 0 1 1.997,0 2.422,2.422 0 0 1 0.037,0.148 h 0.518 a 2.114,2.114 0 0 0 -0.296,-0.592 1.565,1.565 0 0 0 -2.515,0 2.047,2.047 0 0 0 0,2.441 1.565,1.565 0 0 0 2.515,0 2.048,2.048 0 0 0 0.259,-0.444" />
    <path
       id="path22"
       fpd:engraving_ral_9005="1"
       fpd:print_element="0"
       fpd:visible="front"
       stroke-opacity="1"
       stroke-width="0.4mm"
       stroke="#000000"
       vector-effect="non-scaling-stroke"
       fill="none"
       d="m 110.876,37.517 v -3.033 h 0.925 a 1.332,1.332 0 0 1 0.887,0.481 1.84,1.84 0 0 1 0,2.108 1.221,1.221 0 0 1 -0.85,0.444 h -0.962 l -0.185,0.111 h 1.11 a 1.279,1.279 0 0 0 0.961,-0.481 1.762,1.762 0 0 0 0,-2.256 1.299,1.299 0 0 0 -0.961,-0.518 h -1.11 v 3.255 l -0.185,0.148 h 1.295 a 1.456,1.456 0 0 0 1.109,-0.518 1.964,1.964 0 0 0 0,-2.515 1.456,1.456 0 0 0 -1.109,-0.518 h -1.295 v 3.551 l 0.555,-0.37 h 0.74 a 0.974,0.974 0 0 0 0.924,-0.666 2.241,2.241 0 0 0 0,-1.442 0.993,0.993 0 0 0 -0.924,-0.703 h -0.74 v 2.811" />
    <path
       id="path24"
       fpd:engraving_ral_9005="1"
       fpd:print_element="0"
       fpd:visible="front"
       stroke-opacity="1"
       stroke-width="0.4mm"
       stroke="#000000"
       vector-effect="non-scaling-stroke"
       fill="none"
       d="m 117.164,36.888 h -0.148 l -0.185,0.296 a 1.198,1.198 0 0 1 -1.849,-0.074 2.02,2.02 0 0 1 0,-2.219 1.174,1.174 0 0 1 1.886,-0.037 l 0.259,0.444 h 0.148 a 1.847,1.847 0 0 0 -0.222,-0.407 1.312,1.312 0 0 0 -2.219,0 1.861,1.861 0 0 0 0,2.219 1.312,1.312 0 0 0 2.219,0 1.506,1.506 0 0 0 0.148,-0.185 l 0.259,-0.148 h -0.518 a 1.063,1.063 0 0 1 -1.997,0 2.309,2.309 0 0 1 0,-1.553 1.063,1.063 0 0 1 1.997,0 2.422,2.422 0 0 1 0.037,0.148 h 0.518 a 2.114,2.114 0 0 0 -0.296,-0.592 1.565,1.565 0 0 0 -2.515,0 2.047,2.047 0 0 0 0,2.441 1.565,1.565 0 0 0 2.515,0 2.048,2.048 0 0 0 0.259,-0.444" />
    <path
       id="path26"
       fpd:engraving_ral_9005="1"
       fpd:print_element="0"
       fpd:visible="front"
       stroke-opacity="1"
       stroke-width="0.4mm"
       stroke="#000000"
       vector-effect="non-scaling-stroke"
       fill="none"
       d="m 123.517,59.591 h 2.33 v -0.185 l -2.145,-2.848 v -0.111 h 2.33 v -0.111 h -2.515 v 0.222 l 2.145,2.885 0.296,0.259 -0.518,-0.296 -2.071,-2.774 v -0.407 h 2.774 v 0.37 h -2.182 l -0.148,-0.074 0.148,0.074 2.071,2.737 v 0.444 h -2.589 v -0.37 h 1.997" />
    <path
       id="path28"
       fpd:engraving_ral_9005="1"
       fpd:print_element="0"
       fpd:visible="front"
       stroke-opacity="1"
       stroke-width="0.4mm"
       stroke="#000000"
       vector-effect="non-scaling-stroke"
       fill="none"
       d="m 127.549,58.222 0.222,1.295 h 1.701 v 0.148 h -1.849 l -0.259,-1.628 h 0.296 a 1.068,1.068 0 0 0 1.849,-1.035 1.123,1.123 0 0 0 -1.11,-0.703 1.425,1.425 0 0 0 -1.109,0.629 h 0.222 a 1.016,1.016 0 0 1 1.886,0.444 0.923,0.923 0 0 1 -1.257,0.924 0.666,0.666 0 0 1 -0.37,-0.369 0.838,0.838 0 0 0 1.479,-0.481 0.846,0.846 0 0 0 -1.627,-0.37 h -0.555 a 1.283,1.283 0 0 1 0.37,-0.518 1.487,1.487 0 0 1 1.997,0 1.181,1.181 0 0 1 0,1.701 1.197,1.197 0 0 1 -1.701,0 l 0.222,1.147 h 1.664 v 0.37 h -2.108 l -0.333,-1.849 h 0.592" />
    <path
       id="path30"
       fpd:engraving_ral_9005="1"
       fpd:print_element="0"
       fpd:visible="front"
       stroke-opacity="1"
       stroke-width="0.4mm"
       stroke="#000000"
       vector-effect="non-scaling-stroke"
       fill="none"
       d="m 131.321,59.073 a 2.328,2.328 0 0 1 0,-2.145 0.978,0.978 0 0 1 1.701,0 2.328,2.328 0 0 1 0,2.145 0.965,0.965 0 0 1 -1.701,0 l 0.074,-0.148 a 2.44,2.44 0 0 1 0,-1.849 0.84,0.84 0 0 1 1.553,0 2.44,2.44 0 0 1 0,1.849 0.84,0.84 0 0 1 -1.553,0 l -0.259,0.074 a 1.131,1.131 0 0 0 2.071,0 2.168,2.168 0 0 0 0,-1.997 1.125,1.125 0 0 0 -2.071,0 2.168,2.168 0 0 0 0,1.997 l 0.037,0.333 a 1.279,1.279 0 0 0 1.997,0 2.152,2.152 0 0 0 0,-2.663 1.279,1.279 0 0 0 -1.997,0 2.152,2.152 0 0 0 0,2.663" />
    <path
       id="path32"
       fpd:engraving_ral_9005="1"
       fpd:print_element="0"
       fpd:visible="front"
       stroke-opacity="1"
       stroke-width="0.4mm"
       stroke="#000000"
       vector-effect="non-scaling-stroke"
       fill="none"
       d="m 124.584,37.591 h 2.33 v -0.185 l -2.145,-2.848 v -0.111 h 2.33 v -0.111 h -2.515 v 0.222 l 2.145,2.885 0.296,0.259 -0.518,-0.296 -2.071,-2.774 v -0.407 h 2.774 v 0.37 h -2.182 l -0.148,-0.074 0.148,0.074 2.071,2.737 v 0.444 h -2.589 v -0.37 h 1.997" />
    <path
       id="path34"
       fpd:engraving_ral_9005="1"
       fpd:print_element="0"
       fpd:visible="front"
       stroke-opacity="1"
       stroke-width="0.4mm"
       stroke="#000000"
       vector-effect="non-scaling-stroke"
       fill="none"
       d="m 128.838,36.666 -0.555,-0.555 V 35.89 l 0.555,-0.555 0.074,-0.259 v 0.37 l -0.555,0.555 0.555,0.554 v 0.37 l -0.74,-0.74 v -0.369 l 0.74,-0.74" />
    <path
       id="path36"
       fpd:engraving_ral_9005="1"
       fpd:print_element="0"
       fpd:visible="front"
       stroke-opacity="1"
       stroke-width="0.4mm"
       stroke="#000000"
       vector-effect="non-scaling-stroke"
       fill="none"
       d="m 130.317,36.222 0.222,1.295 h 1.701 v 0.148 h -1.849 l -0.259,-1.628 h 0.296 a 1.068,1.068 0 0 0 1.849,-1.035 1.123,1.123 0 0 0 -1.11,-0.703 1.425,1.425 0 0 0 -1.109,0.629 h 0.222 a 1.016,1.016 0 0 1 1.886,0.444 0.923,0.923 0 0 1 -1.257,0.924 0.666,0.666 0 0 1 -0.37,-0.369 0.838,0.838 0 0 0 1.479,-0.481 0.846,0.846 0 0 0 -1.627,-0.37 h -0.555 a 1.283,1.283 0 0 1 0.37,-0.518 1.487,1.487 0 0 1 1.997,0 1.181,1.181 0 0 1 0,1.701 1.197,1.197 0 0 1 -1.701,0 l 0.222,1.147 h 1.664 v 0.37 h -2.108 l -0.333,-1.849 h 0.592" />
    <path
       id="path38"
       fpd:engraving_ral_9005="1"
       fpd:print_element="0"
       fpd:visible="front"
       stroke-opacity="1"
       stroke-width="0.4mm"
       stroke="#000000"
       vector-effect="non-scaling-stroke"
       fill="none"
       d="m 117.154,8.11 a 1.333,1.333 0 0 0 2.219,0 1.861,1.861 0 0 0 0,-2.219 1.323,1.323 0 0 0 -2.219,0 1.861,1.861 0 0 0 0,2.219 h 0.148 a 2.02,2.02 0 0 1 0,-2.219 1.208,1.208 0 0 1 1.923,0 2.02,2.02 0 0 1 0,2.219 1.197,1.197 0 0 1 -1.923,0 l -0.037,-0.333 a 2.309,2.309 0 0 1 0,-1.553 1.063,1.063 0 0 1 1.997,0 2.309,2.309 0 0 1 0,1.553 1.063,1.063 0 0 1 -1.997,0 l -0.259,0.444 a 2.047,2.047 0 0 1 0,-2.441 1.565,1.565 0 0 1 2.515,0 2.047,2.047 0 0 1 0,2.441 1.565,1.565 0 0 1 -2.515,0" />
    <path
       id="path40"
       fpd:engraving_ral_9005="1"
       fpd:print_element="0"
       fpd:visible="front"
       stroke-opacity="1"
       stroke-width="0.4mm"
       stroke="#000000"
       vector-effect="non-scaling-stroke"
       fill="none"
       d="m 121.26,8.665 h -0.185 V 6.261 a 0.826,0.826 0 0 1 0.296,-0.629 1.444,1.444 0 0 1 1.849,0 0.826,0.826 0 0 1 0.296,0.629 v 2.404 h -0.185 V 6.261 a 0.751,0.751 0 0 0 -0.333,-0.629 1.219,1.219 0 0 0 -1.368,0 0.84,0.84 0 0 0 -0.37,0.629 v 2.404 l 0.185,0.111 H 120.89 V 6.261 a 0.978,0.978 0 0 1 0.444,-0.814 1.791,1.791 0 0 1 1.923,0 0.978,0.978 0 0 1 0.444,0.814 v 2.515 h -0.555 V 6.261 a 0.647,0.647 0 0 0 -0.259,-0.518 0.993,0.993 0 0 0 -1.183,0 0.647,0.647 0 0 0 -0.259,0.518 v 2.515" />
    <path
       id="path42"
       fpd:engraving_ral_9005="1"
       fpd:print_element="0"
       fpd:visible="front"
       stroke-opacity="1"
       stroke-width="0.4mm"
       stroke="#000000"
       vector-effect="non-scaling-stroke"
       fill="none"
       d="m 125.993,8.517 h -1.22 v 0.148 h 2.478 V 8.517 h -1.147 V 5.299 h -0.184 v 3.218 l -0.185,-0.111 h -1.11 v 0.37 h 2.774 v -0.37 h -1.11 V 5.225 h -0.554 v 3.181" />
    <path
       id="path44"
       fpd:engraving_ral_9005="1"
       fpd:print_element="0"
       fpd:visible="front"
       stroke-opacity="1"
       stroke-width="0.4mm"
       stroke="#000000"
       vector-effect="non-scaling-stroke"
       fill="none"
       d="M 148.027,8.517 V 5.41 h -0.185 v 3.218 h 1.368 a 0.963,0.963 0 0 0 0,-1.923 h -1.183 l 0.185,0.222 h 0.813 a 0.74,0.74 0 0 1 0,1.479 h -0.813 V 6.927 6.816 h 1.035 a 0.859,0.859 0 0 1 -0.074,1.701 h -1.146 l -0.37,0.259 h 1.553 a 1.11,1.11 0 0 0 0,-2.219 h -0.998 V 5.225 h -0.555 v 3.551" />
    <path
       id="path46"
       fpd:engraving_ral_9005="1"
       fpd:print_element="0"
       fpd:visible="front"
       stroke-opacity="1"
       stroke-width="0.4mm"
       stroke="#000000"
       vector-effect="non-scaling-stroke"
       fill="none"
       d="M 151.615,7.63 V 5.3 h -0.185 v 2.33 h 0.185 V 6.632 l 0.222,0.517 a 0.803,0.803 0 0 0 0.74,0.481 l 0.11,0.148 V 7.445 A 0.798,0.798 0 0 1 152.318,7.408 0.816,0.816 0 0 1 151.763,6.632 V 5.226 h -0.481 v 2.515 h 0.481 V 7.149 a 0.746,0.746 0 0 0 0.74,0.629 h 0.184" />
    <path
       id="path48"
       fpd:engraving_ral_9005="1"
       fpd:print_element="0"
       fpd:visible="front"
       stroke-opacity="1"
       stroke-width="0.4mm"
       stroke="#000000"
       vector-effect="non-scaling-stroke"
       fill="none"
       d="m 154.168,6.596 h 1.59 a 1.032,1.032 0 0 1 -0.333,0.739 0.854,0.854 0 0 1 -1.146,0.037 1.284,1.284 0 0 1 0,-1.775 0.824,0.824 0 0 1 1.072,-0.037 1.387,1.387 0 0 1 0.185,0.185 h 0.185 a 1.064,1.064 0 0 0 -1.923,0.37 1.588,1.588 0 0 0 0,0.74 1.019,1.019 0 0 0 1.59,0.628 1.173,1.173 0 0 0 0.555,-0.998 h -1.849 v 0.222 h 1.479 a 1.375,1.375 0 0 1 -0.185,0.48 0.651,0.651 0 0 1 -1.109,0 1.339,1.339 0 0 1 0,-1.405 0.652,0.652 0 0 1 1.146,0.074 h 0.518 a 1.403,1.403 0 0 0 -0.333,-0.407 1.184,1.184 0 0 0 -1.516,0 1.355,1.355 0 0 0 0,2.071 1.155,1.155 0 0 0 1.479,0 1.456,1.456 0 0 0 0.518,-1.109 h -1.997" />
    <path
       id="path50"
       fpd:engraving_ral_9005="1"
       fpd:print_element="0"
       fpd:visible="front"
       stroke-opacity="1"
       stroke-width="0.4mm"
       stroke="#000000"
       vector-effect="non-scaling-stroke"
       fill="none"
       d="m 157.423,7.595 0.703,-2.071 h 0.148 l 0.702,2.071 h 0.185 l -0.777,-2.256 h -0.369 l -0.777,2.256 h 0.185 l 0.111,0.111 0.666,-2.034 0.665,2.034 h 0.481 l -0.851,-2.478 h -0.591 l -0.851,2.478 h 0.481" />
    <path
       id="path52"
       fpd:engraving_ral_9005="1"
       fpd:print_element="0"
       fpd:visible="front"
       stroke-opacity="1"
       stroke-width="0.4mm"
       stroke="#000000"
       vector-effect="non-scaling-stroke"
       fill="none"
       d="m 178.323,5.299 v 3.366 h 0.185 l 2.034,-3.366 h 0.185 v 3.366 h -0.185 V 5.669 l 0.111,-0.185 -0.296,0.481 -1.664,2.811 h -0.555 V 5.225 h 0.555 v 2.811 l -0.296,0.481 0.111,-0.185 V 5.299 8.036 h 0.185 l 1.664,-2.811 h 0.555 v 3.551 h -0.555 V 5.965" />
    <path
       id="path54"
       fpd:engraving_ral_9005="1"
       fpd:print_element="0"
       fpd:visible="front"
       stroke-opacity="1"
       stroke-width="0.4mm"
       stroke="#000000"
       vector-effect="non-scaling-stroke"
       fill="none"
       d="m 182.392,6.595 h 1.59 a 1.032,1.032 0 0 1 -0.333,0.739 0.854,0.854 0 0 1 -1.146,0.037 1.284,1.284 0 0 1 0,-1.775 0.824,0.824 0 0 1 1.072,-0.037 1.387,1.387 0 0 1 0.185,0.185 h 0.185 a 1.064,1.064 0 0 0 -1.923,0.37 1.588,1.588 0 0 0 0,0.74 1.019,1.019 0 0 0 1.59,0.628 1.173,1.173 0 0 0 0.555,-0.998 h -1.849 v 0.222 h 1.479 a 1.375,1.375 0 0 1 -0.185,0.48 0.651,0.651 0 0 1 -1.109,0 1.339,1.339 0 0 1 0,-1.405 0.652,0.652 0 0 1 1.146,0.074 h 0.518 a 1.403,1.403 0 0 0 -0.333,-0.407 1.184,1.184 0 0 0 -1.516,0 1.355,1.355 0 0 0 0,2.071 1.155,1.155 0 0 0 1.479,0 1.456,1.456 0 0 0 0.518,-1.109 h -1.997" />
    <path
       id="path56"
       fpd:engraving_ral_9005="1"
       fpd:print_element="0"
       fpd:visible="front"
       stroke-opacity="1"
       stroke-width="0.4mm"
       stroke="#000000"
       vector-effect="non-scaling-stroke"
       fill="none"
       d="m 185.684,7.557 1.701,-2.219 h -0.148 l -1.701,2.219 h 0.148 l 0.111,0.074 1.849,-2.404 h -0.481 l -1.849,2.404 h 0.481" />
    <path
       id="path58"
       fpd:engraving_ral_9005="1"
       fpd:print_element="0"
       fpd:visible="front"
       stroke-opacity="1"
       stroke-width="0.4mm"
       stroke="#000000"
       vector-effect="non-scaling-stroke"
       fill="none"
       d="m 187.348,7.557 -1.701,-2.219 h -0.185 l 1.738,2.219 h 0.148 l 0.222,0.074 -1.849,-2.404 h -0.481 l 1.849,2.404 h 0.481" />
    <path
       id="path60"
       fpd:engraving_ral_9005="1"
       fpd:print_element="0"
       fpd:visible="front"
       stroke-opacity="1"
       stroke-width="0.4mm"
       stroke="#000000"
       vector-effect="non-scaling-stroke"
       fill="none"
       d="m 189.05,8.667 h 0.185 V 5.93 a 0.443,0.443 0 0 1 0.481,-0.444 V 5.338 h -0.148 a 0.515,0.515 0 0 0 -0.518,0.518 v 2.811 l -0.148,0.111 h 0.481 V 5.93 a 0.331,0.331 0 0 1 0.333,-0.333 h 0.148 v -0.37 h -0.296 a 0.662,0.662 0 0 0 -0.666,0.666 v 2.885" />
    <path
       id="path62"
       fpd:engraving_ral_9005="1"
       fpd:print_element="0"
       fpd:visible="front"
       stroke-opacity="1"
       stroke-width="0.4mm"
       stroke="#000000"
       vector-effect="non-scaling-stroke"
       fill="none"
       d="m 188.643,7.52 h 1.11 l 0.111,0.148 V 7.372 h -1.295 v 0.296 h 1.295" />
    <path
       id="path64"
       fpd:engraving_ral_9005="1"
       fpd:print_element="0"
       fpd:visible="front"
       stroke-opacity="1"
       stroke-width="0.6mm"
       stroke="#000000"
       vector-effect="non-scaling-stroke"
       fill="none"
       d="m 156.774,48.74 -1.45,-1.45 v -0.58 l 1.45,-1.45 0.193,-0.676 v 0.966 l -1.449,1.45 1.449,1.45 v 0.966 l -1.933,-1.933 v -0.966 l 1.933,-1.933" />
    <path
       id="path66"
       fpd:engraving_ral_9005="1"
       fpd:print_element="0"
       fpd:visible="front"
       stroke-opacity="1"
       stroke-width="0.6mm"
       stroke="#000000"
       vector-effect="non-scaling-stroke"
       fill="none"
       d="m 177.228,48.74 1.449,-1.45 v -0.58 l -1.449,-1.45 -0.194,-0.676 1.933,1.933 v 0.966 l -1.933,1.933 V 48.45 l 1.45,-1.45 -1.45,-1.45 v -0.966" />
    <path
       id="path68"
       fpd:engraving_ral_9005="1"
       fpd:print_element="0"
       fpd:visible="front"
       stroke-opacity="1"
       stroke-width="0.4mm"
       stroke="#000000"
       vector-effect="non-scaling-stroke"
       fill="none"
       d="m 160.343,37.665 h 2.219 v -0.148 h -2.034 v -1.332 h 1.886 v -0.148 h -1.886 v -1.553 h 2.071 v -0.148 h -2.256 v 3.329 l -0.185,0.111 v -3.551 l 0.555,0.37 h 1.96 v -0.37 h -2.515 l 0.555,0.37 v 1.332 h 1.775 v 0.369 h -1.775 v 1.11 h 1.96 v 0.37 h -2.515 l 0.555,-0.37 -0.555,0.37" />
    <path
       id="path70"
       fpd:engraving_ral_9005="1"
       fpd:print_element="0"
       fpd:visible="front"
       stroke-opacity="1"
       stroke-width="0.4mm"
       stroke="#000000"
       vector-effect="non-scaling-stroke"
       fill="none"
       d="M 163.969,36.556 V 34.3 h -0.185 v 2.256 h 0.185 l 0.148,0.111 v -2.441 h -0.481 v 2.441 h 0.481 v -0.518 a 0.872,0.872 0 0 0 1.479,0.333 0.979,0.979 0 0 0 0.259,-0.665 v -1.591 h -0.481 v 1.591 a 0.706,0.706 0 0 1 -0.185,0.48 0.601,0.601 0 0 1 -0.887,0 0.706,0.706 0 0 1 -0.185,-0.48 0.723,0.723 0 0 0 0.37,0.702 0.784,0.784 0 0 0 1.22,-0.628 V 34.3 h -0.185 v 1.591 a 0.677,0.677 0 0 1 -0.555,0.665" />
    <path
       id="path72"
       fpd:engraving_ral_9005="1"
       fpd:print_element="0"
       fpd:visible="front"
       stroke-opacity="1"
       stroke-width="0.4mm"
       stroke="#000000"
       vector-effect="non-scaling-stroke"
       fill="none"
       d="m 167.262,37.666 h 0.185 v -2.737 a 0.443,0.443 0 0 1 0.481,-0.444 v -0.148 h -0.148 a 0.515,0.515 0 0 0 -0.518,0.518 v 2.811 l -0.148,0.111 h 0.481 v -2.848 a 0.331,0.331 0 0 1 0.333,-0.333 h 0.148 v -0.37 h -0.296 a 0.662,0.662 0 0 0 -0.666,0.666 v 2.885" />
    <path
       id="path74"
       fpd:engraving_ral_9005="1"
       fpd:print_element="0"
       fpd:visible="front"
       stroke-opacity="1"
       stroke-width="0.4mm"
       stroke="#000000"
       vector-effect="non-scaling-stroke"
       fill="none"
       d="m 166.855,36.519 h 1.11 l 0.111,0.148 v -0.296 h -1.295 v 0.296 h 1.295" />
    <path
       id="path76"
       fpd:engraving_ral_9005="1"
       fpd:print_element="0"
       fpd:visible="front"
       stroke-opacity="1"
       stroke-width="0.4mm"
       stroke="#000000"
       vector-effect="non-scaling-stroke"
       fill="none"
       d="m 169.555,35.595 h 1.59 a 1.032,1.032 0 0 1 -0.333,0.739 0.854,0.854 0 0 1 -1.146,0.037 1.284,1.284 0 0 1 0,-1.775 0.824,0.824 0 0 1 1.072,-0.037 1.387,1.387 0 0 1 0.185,0.185 h 0.185 a 1.064,1.064 0 0 0 -1.923,0.37 1.588,1.588 0 0 0 0,0.74 1.019,1.019 0 0 0 1.59,0.628 1.173,1.173 0 0 0 0.555,-0.998 h -1.849 v 0.222 h 1.479 a 1.375,1.375 0 0 1 -0.185,0.48 0.651,0.651 0 0 1 -1.109,0 1.339,1.339 0 0 1 0,-1.405 0.652,0.652 0 0 1 1.146,0.074 h 0.518 a 1.403,1.403 0 0 0 -0.333,-0.407 1.184,1.184 0 0 0 -1.516,0 1.355,1.355 0 0 0 0,2.071 1.155,1.155 0 0 0 1.479,0 1.456,1.456 0 0 0 0.518,-1.109 h -1.997" />
    <path
       id="path78"
       fpd:engraving_ral_9005="1"
       fpd:print_element="0"
       fpd:visible="front"
       stroke-opacity="1"
       stroke-width="0.4mm"
       stroke="#000000"
       vector-effect="non-scaling-stroke"
       fill="none"
       d="m 172.773,36.631 v -2.33 h -0.185 v 2.33 h 0.185 v -0.998 l 0.222,0.517 a 0.803,0.803 0 0 0 0.739,0.481 l 0.111,0.148 v -0.333 a 0.798,0.798 0 0 1 -0.369,-0.037 0.816,0.816 0 0 1 -0.555,-0.776 v -1.406 h -0.481 v 2.515 h 0.481 V 36.15 a 0.746,0.746 0 0 0 0.74,0.629 h 0.184" />
    <path
       id="path80"
       fpd:engraving_ral_9005="1"
       fpd:print_element="0"
       fpd:visible="front"
       stroke-opacity="1"
       stroke-width="0.4mm"
       stroke="#000000"
       vector-effect="non-scaling-stroke"
       fill="none"
       d="m 45.261,72.624 1.9,-5.239 h 0.287 l -1.957,5.239 h -0.23 l -1.958,-5.239 h -0.288 l 1.958,5.239 1.957,-5.412 h 0.864 l -2.073,5.527 H 44.743 L 42.67,67.212 h 0.863 l 1.67,4.606 -1.036,-2.764 h 2.13 l 0.058,-0.172 h -2.303 l -0.058,-0.231 h 2.476 v -0.172 h -2.476" />
    <path
       id="path82"
       fpd:engraving_ral_9005="1"
       fpd:print_element="0"
       fpd:visible="front"
       stroke-opacity="1"
       stroke-width="0.4mm"
       stroke="#000000"
       vector-effect="non-scaling-stroke"
       fill="none"
       d="m 49.81,70.954 v -3.627 h -0.288 v 3.627 H 49.81 V 69.4 l 0.345,0.806 a 1.25,1.25 0 0 0 1.151,0.748 l 0.173,0.231 V 70.666 A 1.242,1.242 0 0 1 50.903,70.609 1.27,1.27 0 0 1 50.04,69.4 v -2.188 h -0.749 v 3.915 h 0.749 v -0.921 a 1.161,1.161 0 0 0 1.151,0.979 h 0.288" />
    <path
       id="path84"
       fpd:engraving_ral_9005="1"
       fpd:print_element="0"
       fpd:visible="front"
       stroke-opacity="1"
       stroke-width="0.4mm"
       stroke="#000000"
       vector-effect="non-scaling-stroke"
       fill="none"
       d="m 53.207,72.566 h 0.288 v -5.239 h -0.288 v 5.239 l -0.231,0.173 v -5.527 h 0.749 v 2.879 a 1.52,1.52 0 0 0 2.879,0 3.04,3.04 0 0 0 0,-1.958 1.52,1.52 0 0 0 -2.879,0 v 1.958 a 2.734,2.734 0 0 0 0.576,0.633 1.382,1.382 0 0 0 2.015,-0.633 2.582,2.582 0 0 0 0,-1.958 1.342,1.342 0 0 0 -2.015,-0.576 1.445,1.445 0 0 1 1.094,-0.057 1.41,1.41 0 0 1 0.806,0.921 2.627,2.627 0 0 1 0,1.382 1.41,1.41 0 0 1 -0.806,0.921 1.05,1.05 0 0 1 -1.44,-0.576 1.027,1.027 0 0 0 1.843,0 2.387,2.387 0 0 0 0,-2.072 1.027,1.027 0 0 0 -1.843,0 2.387,2.387 0 0 0 0,2.072 l -0.23,-0.057 v 2.648 h -0.749" />
    <path
       id="path86"
       fpd:engraving_ral_9005="1"
       fpd:print_element="0"
       fpd:visible="front"
       stroke-opacity="1"
       stroke-width="0.4mm"
       stroke="#000000"
       vector-effect="non-scaling-stroke"
       fill="none"
       d="m 58.446,72.221 h 0.288 v 0.288 h -0.288 v -0.288 l -0.23,-0.23 h 0.748 v 0.748 h -0.748 v -0.748" />
    <path
       id="path88"
       fpd:engraving_ral_9005="1"
       fpd:print_element="0"
       fpd:visible="front"
       stroke-opacity="1"
       stroke-width="0.4mm"
       stroke="#000000"
       vector-effect="non-scaling-stroke"
       fill="none"
       d="m 58.734,70.954 v -3.627 h -0.288 v 3.627 h 0.288 l 0.23,0.173 v -3.915 h -0.748 v 3.915 h 0.748" />
    <path
       id="path90"
       fpd:engraving_ral_9005="1"
       fpd:print_element="0"
       fpd:visible="front"
       stroke-opacity="1"
       stroke-width="0.4mm"
       stroke="#000000"
       vector-effect="non-scaling-stroke"
       fill="none"
       d="m 61.152,72.567 h 0.288 v -4.26 a 0.69,0.69 0 0 1 0.749,-0.691 v -0.23 h -0.231 a 0.802,0.802 0 0 0 -0.806,0.806 v 4.375 l -0.23,0.173 h 0.748 v -4.433 a 0.515,0.515 0 0 1 0.519,-0.518 h 0.23 v -0.576 h -0.461 a 1.031,1.031 0 0 0 -1.036,1.036 v 4.491" />
    <path
       id="path92"
       fpd:engraving_ral_9005="1"
       fpd:print_element="0"
       fpd:visible="front"
       stroke-opacity="1"
       stroke-width="0.4mm"
       stroke="#000000"
       vector-effect="non-scaling-stroke"
       fill="none"
       d="m 60.519,70.783 h 1.727 l 0.173,0.23 v -0.461 h -2.015 v 0.461 h 2.015" />
    <path
       id="path94"
       fpd:engraving_ral_9005="1"
       fpd:print_element="0"
       fpd:visible="front"
       stroke-opacity="1"
       stroke-width="0.4mm"
       stroke="#000000"
       vector-effect="non-scaling-stroke"
       fill="none"
       d="m 64.435,70.956 v -3.627 h -0.288 v 3.627 h 0.288 v -1.554 l 0.345,0.806 a 1.25,1.25 0 0 0 1.151,0.748 l 0.173,0.231 v -0.519 a 1.242,1.242 0 0 1 -0.576,-0.057 1.27,1.27 0 0 1 -0.863,-1.209 v -2.188 h -0.749 v 3.915 h 0.749 v -0.921 a 1.161,1.161 0 0 0 1.151,0.979 h 0.288" />
    <path
       id="path96"
       fpd:engraving_ral_9005="1"
       fpd:print_element="0"
       fpd:visible="front"
       stroke-opacity="1"
       stroke-width="0.4mm"
       stroke="#000000"
       vector-effect="non-scaling-stroke"
       fill="none"
       d="m 68.062,70.208 a 1.031,1.031 0 0 0 0.691,0.691 2.304,2.304 0 0 0 1.612,-0.115 0.791,0.791 0 0 0 0.461,-0.691 v -2.591 l 0.115,-0.23 -0.288,0.633 v -0.576 l -0.23,0.403 0.23,0.518 a 1.837,1.837 0 0 0 -1.209,-0.691 1.55,1.55 0 0 0 -1.037,0.116 0.681,0.681 0 0 0 0,1.151 5.196,5.196 0 0 1 2.188,1.036 l -0.288,-0.403 v -0.863 a 0.966,0.966 0 0 0 -0.69,-0.921 1.254,1.254 0 0 0 -0.979,0.115 0.52,0.52 0 0 0 -0.173,0.748 1.002,1.002 0 0 0 0.576,0.403 13.311,13.311 0 0 1 0.806,0.23 1.095,1.095 0 0 1 0.46,0.288 l 0.288,0.576 v -1.382 a 1.682,1.682 0 0 0 -2.36,-1.151 0.761,0.761 0 0 0 -0.346,0.979 1.018,1.018 0 0 0 0.634,0.575 11.118,11.118 0 0 1 1.669,0.518 0.626,0.626 0 0 1 -0.057,1.152 2.066,2.066 0 0 1 -1.209,0 0.756,0.756 0 0 1 -0.576,-0.518 h -0.288 l -0.23,-0.173 h 0.748 a 0.518,0.518 0 0 0 0.288,0.461 1.326,1.326 0 0 0 1.152,0 0.49,0.49 0 0 0 -0.116,-0.922 l -1.151,-0.23 a 1.672,1.672 0 0 1 -0.864,-0.46 1.008,1.008 0 0 1 0.403,-1.67 2.248,2.248 0 0 1 1.382,0 0.819,0.819 0 0 1 0.518,0.518 1.514,1.514 0 0 1 0.231,-0.518 h 0.863 a 0.241,0.241 0 0 0 -0.173,0.23 v 2.476 a 1.082,1.082 0 0 1 -0.575,0.979 2.308,2.308 0 0 1 -2.188,0 0.983,0.983 0 0 1 -0.518,-0.864" />
    <path
       id="path98"
       fpd:engraving_ral_9005="1"
       fpd:print_element="0"
       fpd:visible="front"
       stroke-opacity="1"
       stroke-width="0.4mm"
       stroke="#000000"
       vector-effect="non-scaling-stroke"
       fill="none"
       d="m 73.302,70.956 v -3.627 h -0.288 v 3.627 h 0.288 v -1.554 l 0.345,0.806 a 1.25,1.25 0 0 0 1.151,0.748 l 0.173,0.231 v -0.519 a 1.242,1.242 0 0 1 -0.576,-0.057 1.27,1.27 0 0 1 -0.863,-1.209 v -2.188 h -0.749 v 3.915 h 0.749 v -0.921 a 1.161,1.161 0 0 0 1.151,0.979 h 0.288" />
    <path
       id="path100"
       fpd:engraving_ral_9005="1"
       fpd:print_element="0"
       fpd:visible="front"
       stroke-opacity="1"
       stroke-width="0.4mm"
       stroke="#000000"
       vector-effect="non-scaling-stroke"
       fill="none"
       d="m 77.044,70.956 1.209,-3.569 1.209,3.569 H 79.75 L 78.196,66.638 A 0.794,0.794 0 0 0 77.447,66.12 h -0.403 v 0.23 h 0.288 a 0.738,0.738 0 0 1 0.691,0.979 l -1.267,3.627 h 0.288 l 0.173,0.173 1.036,-3.167 1.037,3.167 h 0.748 l -1.554,-4.491 a 1.045,1.045 0 0 0 -0.979,-0.691 h -0.691 v 0.576 h 0.46 a 0.566,0.566 0 0 1 0.519,0.749 l -1.325,3.857 h 0.749" />
    <path
       id="path102"
       fpd:engraving_ral_9005="1"
       fpd:print_element="0"
       fpd:visible="front"
       stroke-opacity="1"
       stroke-width="0.4mm"
       stroke="#000000"
       vector-effect="non-scaling-stroke"
       fill="none"
       d="m 86.66,72.568 h 0.231 l 1.381,-4.721 h 0.231 l 1.209,4.606 h 0.518 l 1.209,-4.606 h 0.288 l 1.381,4.721 h 0.231 l -1.497,-5.066 h -0.518 l -1.209,4.663 h -0.231 l -1.209,-4.663 h -0.518 l -1.497,5.066 -0.288,0.173 h 0.749 l 1.267,-4.548 1.151,4.548 h 0.864 l 1.151,-4.548 1.324,4.548 h 0.749 L 92.015,67.214 H 91.151 L 90,71.705 88.848,67.214 h -0.864 l -1.612,5.527" />
    <path
       id="path104"
       fpd:engraving_ral_9005="1"
       fpd:print_element="0"
       fpd:visible="front"
       stroke-opacity="1"
       stroke-width="0.4mm"
       stroke="#000000"
       vector-effect="non-scaling-stroke"
       fill="none"
       d="m 95.585,70.208 a 1.031,1.031 0 0 0 0.691,0.691 2.304,2.304 0 0 0 1.612,-0.115 0.791,0.791 0 0 0 0.461,-0.691 v -2.591 l 0.115,-0.23 -0.288,0.633 v -0.576 l -0.23,0.403 0.23,0.518 a 1.837,1.837 0 0 0 -1.209,-0.691 1.55,1.55 0 0 0 -1.037,0.116 0.681,0.681 0 0 0 0,1.151 5.196,5.196 0 0 1 2.188,1.036 L 97.83,69.459 v -0.863 a 0.966,0.966 0 0 0 -0.691,-0.921 1.254,1.254 0 0 0 -0.978,0.115 0.52,0.52 0 0 0 -0.173,0.748 1.002,1.002 0 0 0 0.576,0.403 13.311,13.311 0 0 1 0.806,0.23 1.095,1.095 0 0 1 0.46,0.288 l 0.288,0.576 v -1.382 a 1.682,1.682 0 0 0 -2.36,-1.151 0.761,0.761 0 0 0 -0.346,0.979 1.018,1.018 0 0 0 0.634,0.575 11.118,11.118 0 0 1 1.669,0.518 0.626,0.626 0 0 1 -0.057,1.152 2.066,2.066 0 0 1 -1.209,0 0.756,0.756 0 0 1 -0.576,-0.518 h -0.288 l -0.23,-0.173 h 0.748 a 0.518,0.518 0 0 0 0.288,0.461 1.326,1.326 0 0 0 1.152,0 0.49,0.49 0 0 0 -0.116,-0.922 l -1.151,-0.23 a 1.672,1.672 0 0 1 -0.864,-0.46 1.008,1.008 0 0 1 0.403,-1.67 2.248,2.248 0 0 1 1.382,0 0.819,0.819 0 0 1 0.518,0.518 1.514,1.514 0 0 1 0.231,-0.518 h 0.863 a 0.241,0.241 0 0 0 -0.173,0.23 v 2.476 a 1.082,1.082 0 0 1 -0.575,0.979 2.308,2.308 0 0 1 -2.188,0 0.983,0.983 0 0 1 -0.518,-0.864" />
    <path
       id="path106"
       fpd:engraving_ral_9005="1"
       fpd:print_element="0"
       fpd:visible="front"
       stroke-opacity="1"
       stroke-width="0.4mm"
       stroke="#000000"
       vector-effect="non-scaling-stroke"
       fill="none"
       d="m 100.882,70.899 1.094,-3.224 h 0.23 l 1.094,3.224 h 0.288 l -1.209,-3.512 h -0.576 l -1.209,3.512 h 0.288 l 0.173,0.172 1.036,-3.166 1.037,3.166 h 0.748 l -1.324,-3.857 h -0.921 l -1.325,3.857 h 0.749" />
    <path
       id="path108"
       fpd:engraving_ral_9005="1"
       fpd:print_element="0"
       fpd:visible="front"
       stroke-opacity="1"
       stroke-width="0.4mm"
       stroke="#000000"
       vector-effect="non-scaling-stroke"
       fill="none"
       d="m 106.179,69.344 h 2.476 a 1.607,1.607 0 0 1 -0.518,1.152 1.329,1.329 0 0 1 -1.785,0.057 1.998,1.998 0 0 1 0,-2.763 1.283,1.283 0 0 1 1.67,-0.058 2.159,2.159 0 0 1 0.288,0.288 h 0.288 a 1.656,1.656 0 0 0 -2.994,0.576 2.471,2.471 0 0 0 0,1.151 1.587,1.587 0 0 0 2.475,0.979 1.826,1.826 0 0 0 0.864,-1.555 h -2.879 v 0.346 h 2.303 a 2.141,2.141 0 0 1 -0.288,0.748 1.014,1.014 0 0 1 -1.727,0 2.085,2.085 0 0 1 0,-2.187 1.015,1.015 0 0 1 1.785,0.115 h 0.806 a 2.184,2.184 0 0 0 -0.518,-0.634 1.843,1.843 0 0 0 -2.361,0 2.109,2.109 0 0 0 0,3.225 1.798,1.798 0 0 0 2.303,0 2.266,2.266 0 0 0 0.806,-1.728 h -3.109" />
    <path
       id="path110"
       fpd:engraving_ral_9005="1"
       fpd:print_element="0"
       fpd:visible="front"
       stroke-opacity="1"
       stroke-width="0.4mm"
       stroke="#000000"
       vector-effect="non-scaling-stroke"
       fill="none"
       d="m 110.728,70.899 h 1.727 l 0.173,0.23 v -0.461 h -2.015 v 0.461 h 2.015 -0.979 v 0.518 -4.26 h -0.288 v 4.375 a 0.802,0.802 0 0 0 0.806,0.806 h 0.231 v -0.23 a 0.69,0.69 0 0 1 -0.749,-0.691 h 0.23 v -4.433 h -0.748 v 4.491 a 1.031,1.031 0 0 0 1.036,1.036 h 0.461 v -0.576 h -0.23 a 0.515,0.515 0 0 1 -0.519,-0.518" />
    <path
       id="path112"
       fpd:engraving_ral_9005="1"
       fpd:print_element="0"
       fpd:visible="front"
       stroke-opacity="1"
       stroke-width="0.4mm"
       stroke="#000000"
       vector-effect="non-scaling-stroke"
       fill="none"
       d="m 115.161,70.553 a 1.985,1.985 0 0 1 0,-2.706 1.313,1.313 0 0 1 1.842,0 1.985,1.985 0 0 1 0,2.706 1.415,1.415 0 0 1 -1.842,0 l -0.576,-0.518 a 1.93,1.93 0 0 1 0,-1.727 1.619,1.619 0 0 1 2.994,0 1.93,1.93 0 0 1 0,1.727 1.642,1.642 0 0 1 -2.994,0 l -0.173,0.173 a 1.919,1.919 0 0 0 3.34,0 2.129,2.129 0 0 0 0,-2.073 1.919,1.919 0 0 0 -3.34,0 2.129,2.129 0 0 0 0,2.073 l 0.576,-0.288 a 1.144,1.144 0 0 0 2.188,0 2.557,2.557 0 0 0 0,-1.497 1.144,1.144 0 0 0 -2.188,0 2.557,2.557 0 0 0 0,1.497" />
    <path
       id="path114"
       fpd:engraving_ral_9005="1"
       fpd:print_element="0"
       fpd:visible="front"
       stroke-opacity="1"
       stroke-width="0.4mm"
       stroke="#000000"
       vector-effect="non-scaling-stroke"
       fill="none"
       d="m 120.054,70.956 v -3.627 h -0.288 v 3.627 h 0.288 v -1.554 l 0.345,0.806 a 1.25,1.25 0 0 0 1.151,0.748 l 0.173,0.231 v -0.519 a 1.242,1.242 0 0 1 -0.576,-0.057 1.27,1.27 0 0 1 -0.863,-1.209 v -2.188 h -0.749 v 3.915 h 0.749 v -0.921 a 1.161,1.161 0 0 0 1.151,0.979 h 0.288" />
    <path
       id="path116"
       fpd:engraving_ral_9005="1"
       fpd:print_element="0"
       fpd:visible="front"
       stroke-opacity="1"
       stroke-width="0.4mm"
       stroke="#000000"
       vector-effect="non-scaling-stroke"
       fill="none"
       d="m 123.68,70.956 v -3.627 h -0.23 v 3.627 h 0.23 v -1.382 l 0.288,0.634 a 1.082,1.082 0 0 0 1.151,0.633 1.171,1.171 0 0 0 0.922,-1.151 v -2.361 h 0.23 v 2.245 a 2.995,2.995 0 0 0 0.46,0.922 1.16,1.16 0 0 0 0.979,0.345 1.171,1.171 0 0 0 0.921,-1.151 v -2.361 h 0.231 v 2.361 a 1.631,1.631 0 0 1 -0.576,1.094 0.99,0.99 0 0 1 -1.267,0.057 3.158,3.158 0 0 1 -0.748,-1.267 1.458,1.458 0 0 1 -0.691,1.325 1.234,1.234 0 0 1 -1.036,0.057 1.523,1.523 0 0 1 -0.634,-0.748 v 0.921 h -0.691 v -3.915 h 0.691 v 2.476 a 1.086,1.086 0 0 0 0.518,0.921 0.823,0.823 0 0 0 0.864,0 1.086,1.086 0 0 0 0.518,-0.921 v -2.476 h 0.691 v 2.476 a 1.086,1.086 0 0 0 0.518,0.921 0.823,0.823 0 0 0 0.864,0 1.086,1.086 0 0 0 0.518,-0.921 v -2.476 h 0.691 v 2.476 a 1.582,1.582 0 0 1 -0.633,1.266 1.207,1.207 0 0 1 -1.44,0 1.612,1.612 0 0 1 -0.575,-0.863 1.612,1.612 0 0 1 -0.576,0.863 1.207,1.207 0 0 1 -1.44,0 1.414,1.414 0 0 1 -0.518,-0.748" />
    <path
       id="path118"
       fpd:engraving_ral_9005="1"
       fpd:print_element="0"
       fpd:visible="front"
       stroke-opacity="1"
       stroke-width="0.4mm"
       stroke="#000000"
       vector-effect="non-scaling-stroke"
       fill="none"
       d="m 139.685,71.417 -0.288,0.46 a 1.908,1.908 0 0 1 -2.879,-0.172 3.145,3.145 0 0 1 0,-3.455 1.937,1.937 0 0 1 3.34,0.461 l 0.287,-1.324 v 2.245 h -1.669 v -0.23 h 1.554 v -0.173 a 4.065,4.065 0 0 0 -0.288,-0.979 2.075,2.075 0 0 0 -3.454,0 2.897,2.897 0 0 0 0,3.455 2.059,2.059 0 0 0 3.454,0 2.64,2.64 0 0 0 0.231,-0.346 l 0.403,-0.172 h -0.806 a 1.654,1.654 0 0 1 -3.109,0 3.594,3.594 0 0 1 0,-2.419 1.658,1.658 0 0 1 1.554,-1.093 1.789,1.789 0 0 1 1.785,1.554 h -1.439 v 0.576 h 2.015 v -2.591 h -0.403 l -0.231,0.806 a 2.065,2.065 0 0 0 -1.727,-0.921 2.445,2.445 0 0 0 -1.957,0.979 3.187,3.187 0 0 0 0,3.799 2.435,2.435 0 0 0 3.915,0 3.187,3.187 0 0 0 0.403,-0.69" />
    <path
       id="path120"
       fpd:engraving_ral_9005="1"
       fpd:print_element="0"
       fpd:visible="front"
       stroke-opacity="1"
       stroke-width="0.4mm"
       stroke="#000000"
       vector-effect="non-scaling-stroke"
       fill="none"
       d="m 142.678,69.344 h 2.476 a 1.607,1.607 0 0 1 -0.518,1.152 1.329,1.329 0 0 1 -1.785,0.057 1.998,1.998 0 0 1 0,-2.763 1.283,1.283 0 0 1 1.67,-0.058 2.159,2.159 0 0 1 0.288,0.288 h 0.288 a 1.656,1.656 0 0 0 -2.994,0.576 2.471,2.471 0 0 0 0,1.151 1.587,1.587 0 0 0 2.475,0.979 1.826,1.826 0 0 0 0.864,-1.555 h -2.879 v 0.346 h 2.303 a 2.141,2.141 0 0 1 -0.288,0.748 1.014,1.014 0 0 1 -1.727,0 2.085,2.085 0 0 1 0,-2.187 1.015,1.015 0 0 1 1.785,0.115 h 0.806 a 2.184,2.184 0 0 0 -0.518,-0.634 1.843,1.843 0 0 0 -2.361,0 2.109,2.109 0 0 0 0,3.225 1.798,1.798 0 0 0 2.303,0 2.266,2.266 0 0 0 0.806,-1.728 h -3.109" />
    <path
       id="path122"
       fpd:engraving_ral_9005="1"
       fpd:print_element="0"
       fpd:visible="front"
       stroke-opacity="1"
       stroke-width="0.4mm"
       stroke="#000000"
       vector-effect="non-scaling-stroke"
       fill="none"
       d="m 147.687,70.841 v -3.512 h -0.288 v 3.512 h 0.288 l 0.23,0.173 v -3.8 h -0.749 v 3.8 h 0.749 v -0.806 a 1.357,1.357 0 0 0 2.303,0.518 1.524,1.524 0 0 0 0.403,-1.036 v -2.476 h -0.749 v 2.476 a 1.099,1.099 0 0 1 -0.287,0.748 0.936,0.936 0 0 1 -1.382,0 1.099,1.099 0 0 1 -0.288,-0.748 1.125,1.125 0 0 0 0.576,1.094 1.22,1.22 0 0 0 1.9,-0.979 v -2.476 h -0.288 v 2.476 a 1.053,1.053 0 0 1 -0.864,1.036" />
    <path
       id="path124"
       fpd:engraving_ral_9005="1"
       fpd:print_element="0"
       fpd:visible="front"
       stroke-opacity="1"
       stroke-width="0.4mm"
       stroke="#000000"
       vector-effect="non-scaling-stroke"
       fill="none"
       d="m 152.925,69.344 h 2.476 a 1.607,1.607 0 0 1 -0.518,1.152 1.329,1.329 0 0 1 -1.785,0.057 1.998,1.998 0 0 1 0,-2.763 1.283,1.283 0 0 1 1.67,-0.058 2.159,2.159 0 0 1 0.288,0.288 h 0.288 a 1.656,1.656 0 0 0 -2.994,0.576 2.471,2.471 0 0 0 0,1.151 1.587,1.587 0 0 0 2.475,0.979 1.826,1.826 0 0 0 0.864,-1.555 h -2.879 v 0.346 h 2.303 a 2.141,2.141 0 0 1 -0.288,0.748 1.014,1.014 0 0 1 -1.727,0 2.085,2.085 0 0 1 0,-2.187 1.015,1.015 0 0 1 1.785,0.115 h 0.806 a 2.184,2.184 0 0 0 -0.518,-0.634 1.843,1.843 0 0 0 -2.361,0 2.109,2.109 0 0 0 0,3.225 1.798,1.798 0 0 0 2.303,0 2.266,2.266 0 0 0 0.806,-1.728 h -3.109" />
    <path
       id="path126"
       fpd:engraving_ral_9005="1"
       fpd:print_element="0"
       fpd:visible="front"
       stroke-opacity="1"
       stroke-width="0.4mm"
       stroke="#000000"
       vector-effect="non-scaling-stroke"
       fill="none"
       d="m 157.934,70.956 v -3.627 h -0.288 v 3.627 h 0.288 v -1.554 l 0.345,0.806 a 1.25,1.25 0 0 0 1.151,0.748 l 0.173,0.231 v -0.519 a 1.242,1.242 0 0 1 -0.576,-0.057 1.27,1.27 0 0 1 -0.863,-1.209 v -2.188 h -0.749 v 3.915 h 0.749 v -0.921 a 1.161,1.161 0 0 0 1.151,0.979 h 0.288" />
    <path
       id="path128"
       fpd:engraving_ral_9005="1"
       fpd:print_element="0"
       fpd:visible="front"
       stroke-opacity="1"
       stroke-width="0.4mm"
       stroke="#000000"
       vector-effect="non-scaling-stroke"
       fill="none"
       d="m 161.56,70.208 a 1.031,1.031 0 0 0 0.691,0.691 2.304,2.304 0 0 0 1.612,-0.115 0.791,0.791 0 0 0 0.461,-0.691 v -2.591 l 0.115,-0.23 -0.288,0.633 v -0.576 l -0.23,0.403 0.23,0.518 a 1.837,1.837 0 0 0 -1.209,-0.691 1.55,1.55 0 0 0 -1.037,0.116 0.681,0.681 0 0 0 0,1.151 5.196,5.196 0 0 1 2.188,1.036 l -0.288,-0.403 v -0.863 a 0.966,0.966 0 0 0 -0.691,-0.921 1.254,1.254 0 0 0 -0.978,0.115 0.52,0.52 0 0 0 -0.173,0.748 1.002,1.002 0 0 0 0.576,0.403 13.311,13.311 0 0 1 0.806,0.23 1.095,1.095 0 0 1 0.46,0.288 l 0.288,0.576 v -1.382 a 1.682,1.682 0 0 0 -2.36,-1.151 0.761,0.761 0 0 0 -0.346,0.979 1.018,1.018 0 0 0 0.634,0.575 11.118,11.118 0 0 1 1.669,0.518 0.626,0.626 0 0 1 -0.057,1.152 2.066,2.066 0 0 1 -1.209,0 0.756,0.756 0 0 1 -0.576,-0.518 h -0.288 l -0.23,-0.173 h 0.748 a 0.518,0.518 0 0 0 0.288,0.461 1.326,1.326 0 0 0 1.152,0 0.49,0.49 0 0 0 -0.116,-0.922 l -1.151,-0.23 a 1.672,1.672 0 0 1 -0.864,-0.46 1.008,1.008 0 0 1 0.403,-1.67 2.248,2.248 0 0 1 1.382,0 0.819,0.819 0 0 1 0.518,0.518 1.514,1.514 0 0 1 0.231,-0.518 h 0.863 a 0.241,0.241 0 0 0 -0.173,0.23 v 2.476 a 1.082,1.082 0 0 1 -0.575,0.979 2.308,2.308 0 0 1 -2.188,0 0.983,0.983 0 0 1 -0.518,-0.864" />
    <path
       id="path130"
       fpd:engraving_ral_9005="1"
       fpd:print_element="0"
       fpd:visible="front"
       stroke-opacity="1"
       stroke-width="0.4mm"
       stroke="#000000"
       vector-effect="non-scaling-stroke"
       fill="none"
       d="m 166.971,72.568 h 0.288 v -4.26 a 0.69,0.69 0 0 1 0.749,-0.691 v -0.23 h -0.231 a 0.802,0.802 0 0 0 -0.806,0.806 v 4.375 l -0.23,0.173 h 0.748 v -4.433 a 0.515,0.515 0 0 1 0.519,-0.518 h 0.23 v -0.576 h -0.461 a 1.031,1.031 0 0 0 -1.036,1.036 v 4.491" />
    <path
       id="path132"
       fpd:engraving_ral_9005="1"
       fpd:print_element="0"
       fpd:visible="front"
       stroke-opacity="1"
       stroke-width="0.4mm"
       stroke="#000000"
       vector-effect="non-scaling-stroke"
       fill="none"
       d="m 166.338,70.784 h 1.727 l 0.173,0.23 v -0.461 h -2.015 v 0.461 h 2.015" />
    <path
       id="path134"
       fpd:engraving_ral_9005="1"
       fpd:print_element="0"
       fpd:visible="front"
       stroke-opacity="1"
       stroke-width="0.4mm"
       stroke="#000000"
       vector-effect="non-scaling-stroke"
       fill="none"
       d="m 170.771,70.554 a 1.985,1.985 0 0 1 0,-2.706 1.313,1.313 0 0 1 1.842,0 1.985,1.985 0 0 1 0,2.706 1.415,1.415 0 0 1 -1.842,0 l -0.576,-0.518 a 1.93,1.93 0 0 1 0,-1.727 1.619,1.619 0 0 1 2.994,0 1.93,1.93 0 0 1 0,1.727 1.642,1.642 0 0 1 -2.994,0 l -0.173,0.173 a 1.919,1.919 0 0 0 3.34,0 2.129,2.129 0 0 0 0,-2.073 1.919,1.919 0 0 0 -3.34,0 2.129,2.129 0 0 0 0,2.073 l 0.576,-0.288 a 1.144,1.144 0 0 0 2.188,0 2.557,2.557 0 0 0 0,-1.497 1.144,1.144 0 0 0 -2.188,0 2.557,2.557 0 0 0 0,1.497" />
    <path
       id="path136"
       fpd:engraving_ral_9005="1"
       fpd:print_element="0"
       fpd:visible="front"
       stroke-opacity="1"
       stroke-width="0.4mm"
       stroke="#000000"
       vector-effect="non-scaling-stroke"
       fill="none"
       d="M 175.664,70.957 V 67.33 h -0.288 v 3.627 h 0.288 v -1.554 l 0.345,0.806 a 1.25,1.25 0 0 0 1.152,0.748 l 0.172,0.231 v -0.519 a 1.242,1.242 0 0 1 -0.576,-0.057 1.27,1.27 0 0 1 -0.863,-1.209 v -2.188 h -0.749 v 3.915 h 0.749 v -0.921 a 1.161,1.161 0 0 0 1.151,0.979 h 0.288" />
    <path
       id="path138"
       fpd:engraving_ral_5010="1"
       fpd:print_element="0"
       fpd:visible="front"
       stroke-opacity="1"
       stroke-width="3mm"
       stroke="#003687"
       vector-effect="non-scaling-stroke"
       fill="none"
       d="M 221,27.648 H -1" />
    <path
       id="path140"
       fpd:engraving_ral_3027="1"
       fpd:print_element="0"
       fpd:visible="front"
       stroke-opacity="1"
       stroke-width="1.5mm"
       stroke="#b42041"
       vector-effect="non-scaling-stroke"
       fill="none"
       d="m 38,63.621 a 1,1 0 0 1 1,-1 h 142 a 1,1 0 0 1 1,1 v 11 a 1,1 0 0 1 -1,1 H 39 a 1,1 0 0 1 -1,-1 v -11" />
    <path
       id="path142"
       fpd:print_element="0"
       fpd:visible="front back"
       stroke-opacity="1"
       stroke-width="0.1mm"
       stroke="#000000"
       vector-effect="non-scaling-stroke"
       fill-opacity="1"
       fill="#ffffff"
       d="M 29,18.5 A 1.5,1.5 0 0 1 30.5,17 h 61 a 1.5,1.5 0 0 1 1.5,1.5 v 41 A 1.5,1.5 0 0 1 91.5,61 h -61 A 1.5,1.5 0 0 1 29,59.5 v -41" />
    <path
       id="path144"
       fpd:print_element="0"
       fpd:visible="front back"
       stroke-opacity="1"
       stroke-width="0.1mm"
       stroke="#000000"
       vector-effect="non-scaling-stroke"
       fill-opacity="1"
       fill="#ffffff"
       d="m 112.5,47 a 1.5,1.5 0 1 0 3,0 1.5,1.5 0 1 0 -3,0" />
    <path
       id="path146"
       fpd:print_element="0"
       fpd:visible="front back"
       stroke-opacity="1"
       stroke-width="0.1mm"
       stroke="#000000"
       vector-effect="non-scaling-stroke"
       fill-opacity="1"
       fill="#ffffff"
       d="m 127,47 a 1.5,1.5 0 1 0 3,0 1.5,1.5 0 1 0 -3,0" />
    <path
       id="path148"
       fpd:print_element="0"
       fpd:visible="front back"
       stroke-opacity="1"
       stroke-width="0.1mm"
       stroke="#000000"
       vector-effect="non-scaling-stroke"
       fill-opacity="1"
       fill="#ffffff"
       d="m 165.5,47 a 1.5,1.5 0 1 0 3,0 1.5,1.5 0 1 0 -3,0" />
    <path
       id="path150"
       fpd:print_element="0"
       fpd:visible="front back"
       stroke-opacity="1"
       stroke-width="0.1mm"
       stroke="#000000"
       vector-effect="non-scaling-stroke"
       fill-opacity="1"
       fill="#ffffff"
       d="m 120.5,16.5 a 1.5,1.5 0 1 0 3,0 1.5,1.5 0 1 0 -3,0" />
    <path
       id="path152"
       fpd:print_element="0"
       fpd:visible="front back"
       stroke-opacity="1"
       stroke-width="0.1mm"
       stroke="#000000"
       vector-effect="non-scaling-stroke"
       fill-opacity="1"
       fill="#ffffff"
       d="m 152,16.5 a 1.5,1.5 0 1 0 3,0 1.5,1.5 0 1 0 -3,0" />
    <path
       id="path154"
       fpd:print_element="0"
       fpd:visible="front back"
       stroke-opacity="1"
       stroke-width="0.1mm"
       stroke="#000000"
       vector-effect="non-scaling-stroke"
       fill-opacity="1"
       fill="#ffffff"
       d="m 182.5,16.5 a 1.5,1.5 0 1 0 3,0 1.5,1.5 0 1 0 -3,0" />
    <path
       id="path156"
       fpd:visible="front back"
       stroke-opacity="1"
       stroke-width="0.1mm"
       stroke="#000000"
       vector-effect="non-scaling-stroke"
       fill="none"
       d="M 220,78 V 0 H 0 v 78 h 220" />
  </g>
</svg>
