G04 #@! TF.GenerationSoftware,KiCad,Pcbnew,(5.1.12)-1*
G04 #@! TF.CreationDate,2021-12-12T15:41:07+01:00*
G04 #@! TF.ProjectId,AWG,4157472e-6b69-4636-9164-5f7063625858,rev?*
G04 #@! TF.SameCoordinates,Original*
G04 #@! TF.FileFunction,Legend,Bot*
G04 #@! TF.FilePolarity,Positive*
%FSLAX46Y46*%
G04 Gerber Fmt 4.6, Leading zero omitted, Abs format (unit mm)*
G04 Created by KiCad (PCBNEW (5.1.12)-1) date 2021-12-12 15:41:07*
%MOMM*%
%LPD*%
G01*
G04 APERTURE LIST*
%ADD10C,0.120000*%
%ADD11C,0.150000*%
%ADD12C,1.600000*%
%ADD13R,1.600000X1.600000*%
%ADD14O,2.190000X1.740000*%
%ADD15R,4.000000X1.400000*%
%ADD16R,4.000000X1.500000*%
%ADD17O,1.740000X2.190000*%
%ADD18O,1.905000X2.000000*%
%ADD19R,1.905000X2.000000*%
%ADD20O,3.500000X3.500000*%
%ADD21C,2.340000*%
%ADD22C,4.000000*%
%ADD23O,1.700000X1.700000*%
%ADD24R,1.700000X1.700000*%
%ADD25O,1.800000X1.800000*%
%ADD26O,1.500000X1.500000*%
%ADD27C,6.400000*%
%ADD28C,0.800000*%
%ADD29C,0.254000*%
%ADD30C,0.100000*%
G04 APERTURE END LIST*
D10*
X211355000Y-70111252D02*
X211355000Y-69588748D01*
X212825000Y-70111252D02*
X212825000Y-69588748D01*
X211355000Y-64508748D02*
X211355000Y-65031252D01*
X212825000Y-64508748D02*
X212825000Y-65031252D01*
X246221248Y-91775000D02*
X246743752Y-91775000D01*
X246221248Y-90305000D02*
X246743752Y-90305000D01*
X262266248Y-92845000D02*
X262788752Y-92845000D01*
X262266248Y-94315000D02*
X262788752Y-94315000D01*
X245988748Y-67445000D02*
X246511252Y-67445000D01*
X245988748Y-68915000D02*
X246511252Y-68915000D01*
X262498748Y-71455000D02*
X263021252Y-71455000D01*
X262498748Y-69985000D02*
X263021252Y-69985000D01*
X196261252Y-113735000D02*
X195738748Y-113735000D01*
X196261252Y-112265000D02*
X195738748Y-112265000D01*
X199265000Y-107738748D02*
X199265000Y-108261252D01*
X200735000Y-107738748D02*
X200735000Y-108261252D01*
X200735000Y-102738748D02*
X200735000Y-103261252D01*
X199265000Y-102738748D02*
X199265000Y-103261252D01*
X200776248Y-99795000D02*
X201298752Y-99795000D01*
X200776248Y-98325000D02*
X201298752Y-98325000D01*
X200738748Y-97255000D02*
X201261252Y-97255000D01*
X200738748Y-95785000D02*
X201261252Y-95785000D01*
X167477500Y-97254724D02*
X167477500Y-96745276D01*
X168522500Y-97254724D02*
X168522500Y-96745276D01*
X164522500Y-77254724D02*
X164522500Y-76745276D01*
X163477500Y-77254724D02*
X163477500Y-76745276D01*
D11*
X214127142Y-69683333D02*
X214174761Y-69635714D01*
X214222380Y-69492857D01*
X214222380Y-69397619D01*
X214174761Y-69254761D01*
X214079523Y-69159523D01*
X213984285Y-69111904D01*
X213793809Y-69064285D01*
X213650952Y-69064285D01*
X213460476Y-69111904D01*
X213365238Y-69159523D01*
X213270000Y-69254761D01*
X213222380Y-69397619D01*
X213222380Y-69492857D01*
X213270000Y-69635714D01*
X213317619Y-69683333D01*
X213555714Y-70540476D02*
X214222380Y-70540476D01*
X213174761Y-70302380D02*
X213889047Y-70064285D01*
X213889047Y-70683333D01*
X210767142Y-64603333D02*
X210814761Y-64555714D01*
X210862380Y-64412857D01*
X210862380Y-64317619D01*
X210814761Y-64174761D01*
X210719523Y-64079523D01*
X210624285Y-64031904D01*
X210433809Y-63984285D01*
X210290952Y-63984285D01*
X210100476Y-64031904D01*
X210005238Y-64079523D01*
X209910000Y-64174761D01*
X209862380Y-64317619D01*
X209862380Y-64412857D01*
X209910000Y-64555714D01*
X209957619Y-64603333D01*
X209862380Y-65508095D02*
X209862380Y-65031904D01*
X210338571Y-64984285D01*
X210290952Y-65031904D01*
X210243333Y-65127142D01*
X210243333Y-65365238D01*
X210290952Y-65460476D01*
X210338571Y-65508095D01*
X210433809Y-65555714D01*
X210671904Y-65555714D01*
X210767142Y-65508095D01*
X210814761Y-65460476D01*
X210862380Y-65365238D01*
X210862380Y-65127142D01*
X210814761Y-65031904D01*
X210767142Y-64984285D01*
X248077738Y-93077142D02*
X248125357Y-93124761D01*
X248268214Y-93172380D01*
X248363452Y-93172380D01*
X248506309Y-93124761D01*
X248601547Y-93029523D01*
X248649166Y-92934285D01*
X248696785Y-92743809D01*
X248696785Y-92600952D01*
X248649166Y-92410476D01*
X248601547Y-92315238D01*
X248506309Y-92220000D01*
X248363452Y-92172380D01*
X248268214Y-92172380D01*
X248125357Y-92220000D01*
X248077738Y-92267619D01*
X247125357Y-93172380D02*
X247696785Y-93172380D01*
X247411071Y-93172380D02*
X247411071Y-92172380D01*
X247506309Y-92315238D01*
X247601547Y-92410476D01*
X247696785Y-92458095D01*
X246506309Y-92172380D02*
X246411071Y-92172380D01*
X246315833Y-92220000D01*
X246268214Y-92267619D01*
X246220595Y-92362857D01*
X246172976Y-92553333D01*
X246172976Y-92791428D01*
X246220595Y-92981904D01*
X246268214Y-93077142D01*
X246315833Y-93124761D01*
X246411071Y-93172380D01*
X246506309Y-93172380D01*
X246601547Y-93124761D01*
X246649166Y-93077142D01*
X246696785Y-92981904D01*
X246744404Y-92791428D01*
X246744404Y-92553333D01*
X246696785Y-92362857D01*
X246649166Y-92267619D01*
X246601547Y-92220000D01*
X246506309Y-92172380D01*
X245553928Y-92172380D02*
X245458690Y-92172380D01*
X245363452Y-92220000D01*
X245315833Y-92267619D01*
X245268214Y-92362857D01*
X245220595Y-92553333D01*
X245220595Y-92791428D01*
X245268214Y-92981904D01*
X245315833Y-93077142D01*
X245363452Y-93124761D01*
X245458690Y-93172380D01*
X245553928Y-93172380D01*
X245649166Y-93124761D01*
X245696785Y-93077142D01*
X245744404Y-92981904D01*
X245792023Y-92791428D01*
X245792023Y-92553333D01*
X245744404Y-92362857D01*
X245696785Y-92267619D01*
X245649166Y-92220000D01*
X245553928Y-92172380D01*
X244887261Y-92172380D02*
X244268214Y-92172380D01*
X244601547Y-92553333D01*
X244458690Y-92553333D01*
X244363452Y-92600952D01*
X244315833Y-92648571D01*
X244268214Y-92743809D01*
X244268214Y-92981904D01*
X244315833Y-93077142D01*
X244363452Y-93124761D01*
X244458690Y-93172380D01*
X244744404Y-93172380D01*
X244839642Y-93124761D01*
X244887261Y-93077142D01*
X264122738Y-95617142D02*
X264170357Y-95664761D01*
X264313214Y-95712380D01*
X264408452Y-95712380D01*
X264551309Y-95664761D01*
X264646547Y-95569523D01*
X264694166Y-95474285D01*
X264741785Y-95283809D01*
X264741785Y-95140952D01*
X264694166Y-94950476D01*
X264646547Y-94855238D01*
X264551309Y-94760000D01*
X264408452Y-94712380D01*
X264313214Y-94712380D01*
X264170357Y-94760000D01*
X264122738Y-94807619D01*
X263170357Y-95712380D02*
X263741785Y-95712380D01*
X263456071Y-95712380D02*
X263456071Y-94712380D01*
X263551309Y-94855238D01*
X263646547Y-94950476D01*
X263741785Y-94998095D01*
X262551309Y-94712380D02*
X262456071Y-94712380D01*
X262360833Y-94760000D01*
X262313214Y-94807619D01*
X262265595Y-94902857D01*
X262217976Y-95093333D01*
X262217976Y-95331428D01*
X262265595Y-95521904D01*
X262313214Y-95617142D01*
X262360833Y-95664761D01*
X262456071Y-95712380D01*
X262551309Y-95712380D01*
X262646547Y-95664761D01*
X262694166Y-95617142D01*
X262741785Y-95521904D01*
X262789404Y-95331428D01*
X262789404Y-95093333D01*
X262741785Y-94902857D01*
X262694166Y-94807619D01*
X262646547Y-94760000D01*
X262551309Y-94712380D01*
X261598928Y-94712380D02*
X261503690Y-94712380D01*
X261408452Y-94760000D01*
X261360833Y-94807619D01*
X261313214Y-94902857D01*
X261265595Y-95093333D01*
X261265595Y-95331428D01*
X261313214Y-95521904D01*
X261360833Y-95617142D01*
X261408452Y-95664761D01*
X261503690Y-95712380D01*
X261598928Y-95712380D01*
X261694166Y-95664761D01*
X261741785Y-95617142D01*
X261789404Y-95521904D01*
X261837023Y-95331428D01*
X261837023Y-95093333D01*
X261789404Y-94902857D01*
X261741785Y-94807619D01*
X261694166Y-94760000D01*
X261598928Y-94712380D01*
X260408452Y-95045714D02*
X260408452Y-95712380D01*
X260646547Y-94664761D02*
X260884642Y-95379047D01*
X260265595Y-95379047D01*
X247845238Y-70217142D02*
X247892857Y-70264761D01*
X248035714Y-70312380D01*
X248130952Y-70312380D01*
X248273809Y-70264761D01*
X248369047Y-70169523D01*
X248416666Y-70074285D01*
X248464285Y-69883809D01*
X248464285Y-69740952D01*
X248416666Y-69550476D01*
X248369047Y-69455238D01*
X248273809Y-69360000D01*
X248130952Y-69312380D01*
X248035714Y-69312380D01*
X247892857Y-69360000D01*
X247845238Y-69407619D01*
X246892857Y-70312380D02*
X247464285Y-70312380D01*
X247178571Y-70312380D02*
X247178571Y-69312380D01*
X247273809Y-69455238D01*
X247369047Y-69550476D01*
X247464285Y-69598095D01*
X246273809Y-69312380D02*
X246178571Y-69312380D01*
X246083333Y-69360000D01*
X246035714Y-69407619D01*
X245988095Y-69502857D01*
X245940476Y-69693333D01*
X245940476Y-69931428D01*
X245988095Y-70121904D01*
X246035714Y-70217142D01*
X246083333Y-70264761D01*
X246178571Y-70312380D01*
X246273809Y-70312380D01*
X246369047Y-70264761D01*
X246416666Y-70217142D01*
X246464285Y-70121904D01*
X246511904Y-69931428D01*
X246511904Y-69693333D01*
X246464285Y-69502857D01*
X246416666Y-69407619D01*
X246369047Y-69360000D01*
X246273809Y-69312380D01*
X245321428Y-69312380D02*
X245226190Y-69312380D01*
X245130952Y-69360000D01*
X245083333Y-69407619D01*
X245035714Y-69502857D01*
X244988095Y-69693333D01*
X244988095Y-69931428D01*
X245035714Y-70121904D01*
X245083333Y-70217142D01*
X245130952Y-70264761D01*
X245226190Y-70312380D01*
X245321428Y-70312380D01*
X245416666Y-70264761D01*
X245464285Y-70217142D01*
X245511904Y-70121904D01*
X245559523Y-69931428D01*
X245559523Y-69693333D01*
X245511904Y-69502857D01*
X245464285Y-69407619D01*
X245416666Y-69360000D01*
X245321428Y-69312380D01*
X244654761Y-69312380D02*
X243988095Y-69312380D01*
X244416666Y-70312380D01*
X264355238Y-72757142D02*
X264402857Y-72804761D01*
X264545714Y-72852380D01*
X264640952Y-72852380D01*
X264783809Y-72804761D01*
X264879047Y-72709523D01*
X264926666Y-72614285D01*
X264974285Y-72423809D01*
X264974285Y-72280952D01*
X264926666Y-72090476D01*
X264879047Y-71995238D01*
X264783809Y-71900000D01*
X264640952Y-71852380D01*
X264545714Y-71852380D01*
X264402857Y-71900000D01*
X264355238Y-71947619D01*
X263402857Y-72852380D02*
X263974285Y-72852380D01*
X263688571Y-72852380D02*
X263688571Y-71852380D01*
X263783809Y-71995238D01*
X263879047Y-72090476D01*
X263974285Y-72138095D01*
X262783809Y-71852380D02*
X262688571Y-71852380D01*
X262593333Y-71900000D01*
X262545714Y-71947619D01*
X262498095Y-72042857D01*
X262450476Y-72233333D01*
X262450476Y-72471428D01*
X262498095Y-72661904D01*
X262545714Y-72757142D01*
X262593333Y-72804761D01*
X262688571Y-72852380D01*
X262783809Y-72852380D01*
X262879047Y-72804761D01*
X262926666Y-72757142D01*
X262974285Y-72661904D01*
X263021904Y-72471428D01*
X263021904Y-72233333D01*
X262974285Y-72042857D01*
X262926666Y-71947619D01*
X262879047Y-71900000D01*
X262783809Y-71852380D01*
X261831428Y-71852380D02*
X261736190Y-71852380D01*
X261640952Y-71900000D01*
X261593333Y-71947619D01*
X261545714Y-72042857D01*
X261498095Y-72233333D01*
X261498095Y-72471428D01*
X261545714Y-72661904D01*
X261593333Y-72757142D01*
X261640952Y-72804761D01*
X261736190Y-72852380D01*
X261831428Y-72852380D01*
X261926666Y-72804761D01*
X261974285Y-72757142D01*
X262021904Y-72661904D01*
X262069523Y-72471428D01*
X262069523Y-72233333D01*
X262021904Y-72042857D01*
X261974285Y-71947619D01*
X261926666Y-71900000D01*
X261831428Y-71852380D01*
X260926666Y-72280952D02*
X261021904Y-72233333D01*
X261069523Y-72185714D01*
X261117142Y-72090476D01*
X261117142Y-72042857D01*
X261069523Y-71947619D01*
X261021904Y-71900000D01*
X260926666Y-71852380D01*
X260736190Y-71852380D01*
X260640952Y-71900000D01*
X260593333Y-71947619D01*
X260545714Y-72042857D01*
X260545714Y-72090476D01*
X260593333Y-72185714D01*
X260640952Y-72233333D01*
X260736190Y-72280952D01*
X260926666Y-72280952D01*
X261021904Y-72328571D01*
X261069523Y-72376190D01*
X261117142Y-72471428D01*
X261117142Y-72661904D01*
X261069523Y-72757142D01*
X261021904Y-72804761D01*
X260926666Y-72852380D01*
X260736190Y-72852380D01*
X260640952Y-72804761D01*
X260593333Y-72757142D01*
X260545714Y-72661904D01*
X260545714Y-72471428D01*
X260593333Y-72376190D01*
X260640952Y-72328571D01*
X260736190Y-72280952D01*
X197595238Y-111677142D02*
X197642857Y-111724761D01*
X197785714Y-111772380D01*
X197880952Y-111772380D01*
X198023809Y-111724761D01*
X198119047Y-111629523D01*
X198166666Y-111534285D01*
X198214285Y-111343809D01*
X198214285Y-111200952D01*
X198166666Y-111010476D01*
X198119047Y-110915238D01*
X198023809Y-110820000D01*
X197880952Y-110772380D01*
X197785714Y-110772380D01*
X197642857Y-110820000D01*
X197595238Y-110867619D01*
X196642857Y-111772380D02*
X197214285Y-111772380D01*
X196928571Y-111772380D02*
X196928571Y-110772380D01*
X197023809Y-110915238D01*
X197119047Y-111010476D01*
X197214285Y-111058095D01*
X196023809Y-110772380D02*
X195928571Y-110772380D01*
X195833333Y-110820000D01*
X195785714Y-110867619D01*
X195738095Y-110962857D01*
X195690476Y-111153333D01*
X195690476Y-111391428D01*
X195738095Y-111581904D01*
X195785714Y-111677142D01*
X195833333Y-111724761D01*
X195928571Y-111772380D01*
X196023809Y-111772380D01*
X196119047Y-111724761D01*
X196166666Y-111677142D01*
X196214285Y-111581904D01*
X196261904Y-111391428D01*
X196261904Y-111153333D01*
X196214285Y-110962857D01*
X196166666Y-110867619D01*
X196119047Y-110820000D01*
X196023809Y-110772380D01*
X194738095Y-111772380D02*
X195309523Y-111772380D01*
X195023809Y-111772380D02*
X195023809Y-110772380D01*
X195119047Y-110915238D01*
X195214285Y-111010476D01*
X195309523Y-111058095D01*
X193785714Y-111772380D02*
X194357142Y-111772380D01*
X194071428Y-111772380D02*
X194071428Y-110772380D01*
X194166666Y-110915238D01*
X194261904Y-111010476D01*
X194357142Y-111058095D01*
X205395238Y-107157142D02*
X205442857Y-107204761D01*
X205585714Y-107252380D01*
X205680952Y-107252380D01*
X205823809Y-107204761D01*
X205919047Y-107109523D01*
X205966666Y-107014285D01*
X206014285Y-106823809D01*
X206014285Y-106680952D01*
X205966666Y-106490476D01*
X205919047Y-106395238D01*
X205823809Y-106300000D01*
X205680952Y-106252380D01*
X205585714Y-106252380D01*
X205442857Y-106300000D01*
X205395238Y-106347619D01*
X204442857Y-107252380D02*
X205014285Y-107252380D01*
X204728571Y-107252380D02*
X204728571Y-106252380D01*
X204823809Y-106395238D01*
X204919047Y-106490476D01*
X205014285Y-106538095D01*
X203823809Y-106252380D02*
X203728571Y-106252380D01*
X203633333Y-106300000D01*
X203585714Y-106347619D01*
X203538095Y-106442857D01*
X203490476Y-106633333D01*
X203490476Y-106871428D01*
X203538095Y-107061904D01*
X203585714Y-107157142D01*
X203633333Y-107204761D01*
X203728571Y-107252380D01*
X203823809Y-107252380D01*
X203919047Y-107204761D01*
X203966666Y-107157142D01*
X204014285Y-107061904D01*
X204061904Y-106871428D01*
X204061904Y-106633333D01*
X204014285Y-106442857D01*
X203966666Y-106347619D01*
X203919047Y-106300000D01*
X203823809Y-106252380D01*
X202538095Y-107252380D02*
X203109523Y-107252380D01*
X202823809Y-107252380D02*
X202823809Y-106252380D01*
X202919047Y-106395238D01*
X203014285Y-106490476D01*
X203109523Y-106538095D01*
X202157142Y-106347619D02*
X202109523Y-106300000D01*
X202014285Y-106252380D01*
X201776190Y-106252380D01*
X201680952Y-106300000D01*
X201633333Y-106347619D01*
X201585714Y-106442857D01*
X201585714Y-106538095D01*
X201633333Y-106680952D01*
X202204761Y-107252380D01*
X201585714Y-107252380D01*
X205395238Y-103157142D02*
X205442857Y-103204761D01*
X205585714Y-103252380D01*
X205680952Y-103252380D01*
X205823809Y-103204761D01*
X205919047Y-103109523D01*
X205966666Y-103014285D01*
X206014285Y-102823809D01*
X206014285Y-102680952D01*
X205966666Y-102490476D01*
X205919047Y-102395238D01*
X205823809Y-102300000D01*
X205680952Y-102252380D01*
X205585714Y-102252380D01*
X205442857Y-102300000D01*
X205395238Y-102347619D01*
X204442857Y-103252380D02*
X205014285Y-103252380D01*
X204728571Y-103252380D02*
X204728571Y-102252380D01*
X204823809Y-102395238D01*
X204919047Y-102490476D01*
X205014285Y-102538095D01*
X203823809Y-102252380D02*
X203728571Y-102252380D01*
X203633333Y-102300000D01*
X203585714Y-102347619D01*
X203538095Y-102442857D01*
X203490476Y-102633333D01*
X203490476Y-102871428D01*
X203538095Y-103061904D01*
X203585714Y-103157142D01*
X203633333Y-103204761D01*
X203728571Y-103252380D01*
X203823809Y-103252380D01*
X203919047Y-103204761D01*
X203966666Y-103157142D01*
X204014285Y-103061904D01*
X204061904Y-102871428D01*
X204061904Y-102633333D01*
X204014285Y-102442857D01*
X203966666Y-102347619D01*
X203919047Y-102300000D01*
X203823809Y-102252380D01*
X202538095Y-103252380D02*
X203109523Y-103252380D01*
X202823809Y-103252380D02*
X202823809Y-102252380D01*
X202919047Y-102395238D01*
X203014285Y-102490476D01*
X203109523Y-102538095D01*
X202204761Y-102252380D02*
X201585714Y-102252380D01*
X201919047Y-102633333D01*
X201776190Y-102633333D01*
X201680952Y-102680952D01*
X201633333Y-102728571D01*
X201585714Y-102823809D01*
X201585714Y-103061904D01*
X201633333Y-103157142D01*
X201680952Y-103204761D01*
X201776190Y-103252380D01*
X202061904Y-103252380D01*
X202157142Y-103204761D01*
X202204761Y-103157142D01*
X207595238Y-99357142D02*
X207642857Y-99404761D01*
X207785714Y-99452380D01*
X207880952Y-99452380D01*
X208023809Y-99404761D01*
X208119047Y-99309523D01*
X208166666Y-99214285D01*
X208214285Y-99023809D01*
X208214285Y-98880952D01*
X208166666Y-98690476D01*
X208119047Y-98595238D01*
X208023809Y-98500000D01*
X207880952Y-98452380D01*
X207785714Y-98452380D01*
X207642857Y-98500000D01*
X207595238Y-98547619D01*
X206642857Y-99452380D02*
X207214285Y-99452380D01*
X206928571Y-99452380D02*
X206928571Y-98452380D01*
X207023809Y-98595238D01*
X207119047Y-98690476D01*
X207214285Y-98738095D01*
X206023809Y-98452380D02*
X205928571Y-98452380D01*
X205833333Y-98500000D01*
X205785714Y-98547619D01*
X205738095Y-98642857D01*
X205690476Y-98833333D01*
X205690476Y-99071428D01*
X205738095Y-99261904D01*
X205785714Y-99357142D01*
X205833333Y-99404761D01*
X205928571Y-99452380D01*
X206023809Y-99452380D01*
X206119047Y-99404761D01*
X206166666Y-99357142D01*
X206214285Y-99261904D01*
X206261904Y-99071428D01*
X206261904Y-98833333D01*
X206214285Y-98642857D01*
X206166666Y-98547619D01*
X206119047Y-98500000D01*
X206023809Y-98452380D01*
X204738095Y-99452380D02*
X205309523Y-99452380D01*
X205023809Y-99452380D02*
X205023809Y-98452380D01*
X205119047Y-98595238D01*
X205214285Y-98690476D01*
X205309523Y-98738095D01*
X203833333Y-98452380D02*
X204309523Y-98452380D01*
X204357142Y-98928571D01*
X204309523Y-98880952D01*
X204214285Y-98833333D01*
X203976190Y-98833333D01*
X203880952Y-98880952D01*
X203833333Y-98928571D01*
X203785714Y-99023809D01*
X203785714Y-99261904D01*
X203833333Y-99357142D01*
X203880952Y-99404761D01*
X203976190Y-99452380D01*
X204214285Y-99452380D01*
X204309523Y-99404761D01*
X204357142Y-99357142D01*
X207595238Y-96357142D02*
X207642857Y-96404761D01*
X207785714Y-96452380D01*
X207880952Y-96452380D01*
X208023809Y-96404761D01*
X208119047Y-96309523D01*
X208166666Y-96214285D01*
X208214285Y-96023809D01*
X208214285Y-95880952D01*
X208166666Y-95690476D01*
X208119047Y-95595238D01*
X208023809Y-95500000D01*
X207880952Y-95452380D01*
X207785714Y-95452380D01*
X207642857Y-95500000D01*
X207595238Y-95547619D01*
X206642857Y-96452380D02*
X207214285Y-96452380D01*
X206928571Y-96452380D02*
X206928571Y-95452380D01*
X207023809Y-95595238D01*
X207119047Y-95690476D01*
X207214285Y-95738095D01*
X206023809Y-95452380D02*
X205928571Y-95452380D01*
X205833333Y-95500000D01*
X205785714Y-95547619D01*
X205738095Y-95642857D01*
X205690476Y-95833333D01*
X205690476Y-96071428D01*
X205738095Y-96261904D01*
X205785714Y-96357142D01*
X205833333Y-96404761D01*
X205928571Y-96452380D01*
X206023809Y-96452380D01*
X206119047Y-96404761D01*
X206166666Y-96357142D01*
X206214285Y-96261904D01*
X206261904Y-96071428D01*
X206261904Y-95833333D01*
X206214285Y-95642857D01*
X206166666Y-95547619D01*
X206119047Y-95500000D01*
X206023809Y-95452380D01*
X204738095Y-96452380D02*
X205309523Y-96452380D01*
X205023809Y-96452380D02*
X205023809Y-95452380D01*
X205119047Y-95595238D01*
X205214285Y-95690476D01*
X205309523Y-95738095D01*
X204404761Y-95452380D02*
X203738095Y-95452380D01*
X204166666Y-96452380D01*
X144533333Y-81652380D02*
X144533333Y-82366666D01*
X144580952Y-82509523D01*
X144676190Y-82604761D01*
X144819047Y-82652380D01*
X144914285Y-82652380D01*
X143580952Y-81652380D02*
X144057142Y-81652380D01*
X144104761Y-82128571D01*
X144057142Y-82080952D01*
X143961904Y-82033333D01*
X143723809Y-82033333D01*
X143628571Y-82080952D01*
X143580952Y-82128571D01*
X143533333Y-82223809D01*
X143533333Y-82461904D01*
X143580952Y-82557142D01*
X143628571Y-82604761D01*
X143723809Y-82652380D01*
X143961904Y-82652380D01*
X144057142Y-82604761D01*
X144104761Y-82557142D01*
X169882380Y-96357142D02*
X169406190Y-96023809D01*
X169882380Y-95785714D02*
X168882380Y-95785714D01*
X168882380Y-96166666D01*
X168930000Y-96261904D01*
X168977619Y-96309523D01*
X169072857Y-96357142D01*
X169215714Y-96357142D01*
X169310952Y-96309523D01*
X169358571Y-96261904D01*
X169406190Y-96166666D01*
X169406190Y-95785714D01*
X168882380Y-96690476D02*
X168882380Y-97309523D01*
X169263333Y-96976190D01*
X169263333Y-97119047D01*
X169310952Y-97214285D01*
X169358571Y-97261904D01*
X169453809Y-97309523D01*
X169691904Y-97309523D01*
X169787142Y-97261904D01*
X169834761Y-97214285D01*
X169882380Y-97119047D01*
X169882380Y-96833333D01*
X169834761Y-96738095D01*
X169787142Y-96690476D01*
X168882380Y-97642857D02*
X168882380Y-98261904D01*
X169263333Y-97928571D01*
X169263333Y-98071428D01*
X169310952Y-98166666D01*
X169358571Y-98214285D01*
X169453809Y-98261904D01*
X169691904Y-98261904D01*
X169787142Y-98214285D01*
X169834761Y-98166666D01*
X169882380Y-98071428D01*
X169882380Y-97785714D01*
X169834761Y-97690476D01*
X169787142Y-97642857D01*
X165882380Y-76357142D02*
X165406190Y-76023809D01*
X165882380Y-75785714D02*
X164882380Y-75785714D01*
X164882380Y-76166666D01*
X164930000Y-76261904D01*
X164977619Y-76309523D01*
X165072857Y-76357142D01*
X165215714Y-76357142D01*
X165310952Y-76309523D01*
X165358571Y-76261904D01*
X165406190Y-76166666D01*
X165406190Y-75785714D01*
X164882380Y-76690476D02*
X164882380Y-77309523D01*
X165263333Y-76976190D01*
X165263333Y-77119047D01*
X165310952Y-77214285D01*
X165358571Y-77261904D01*
X165453809Y-77309523D01*
X165691904Y-77309523D01*
X165787142Y-77261904D01*
X165834761Y-77214285D01*
X165882380Y-77119047D01*
X165882380Y-76833333D01*
X165834761Y-76738095D01*
X165787142Y-76690476D01*
X165215714Y-78166666D02*
X165882380Y-78166666D01*
X164834761Y-77928571D02*
X165549047Y-77690476D01*
X165549047Y-78309523D01*
%LPC*%
G36*
G01*
X212565000Y-71475000D02*
X211615000Y-71475000D01*
G75*
G02*
X211365000Y-71225000I0J250000D01*
G01*
X211365000Y-70550000D01*
G75*
G02*
X211615000Y-70300000I250000J0D01*
G01*
X212565000Y-70300000D01*
G75*
G02*
X212815000Y-70550000I0J-250000D01*
G01*
X212815000Y-71225000D01*
G75*
G02*
X212565000Y-71475000I-250000J0D01*
G01*
G37*
G36*
G01*
X212565000Y-69400000D02*
X211615000Y-69400000D01*
G75*
G02*
X211365000Y-69150000I0J250000D01*
G01*
X211365000Y-68475000D01*
G75*
G02*
X211615000Y-68225000I250000J0D01*
G01*
X212565000Y-68225000D01*
G75*
G02*
X212815000Y-68475000I0J-250000D01*
G01*
X212815000Y-69150000D01*
G75*
G02*
X212565000Y-69400000I-250000J0D01*
G01*
G37*
G36*
G01*
X211615000Y-65220000D02*
X212565000Y-65220000D01*
G75*
G02*
X212815000Y-65470000I0J-250000D01*
G01*
X212815000Y-66145000D01*
G75*
G02*
X212565000Y-66395000I-250000J0D01*
G01*
X211615000Y-66395000D01*
G75*
G02*
X211365000Y-66145000I0J250000D01*
G01*
X211365000Y-65470000D01*
G75*
G02*
X211615000Y-65220000I250000J0D01*
G01*
G37*
G36*
G01*
X211615000Y-63145000D02*
X212565000Y-63145000D01*
G75*
G02*
X212815000Y-63395000I0J-250000D01*
G01*
X212815000Y-64070000D01*
G75*
G02*
X212565000Y-64320000I-250000J0D01*
G01*
X211615000Y-64320000D01*
G75*
G02*
X211365000Y-64070000I0J250000D01*
G01*
X211365000Y-63395000D01*
G75*
G02*
X211615000Y-63145000I250000J0D01*
G01*
G37*
D12*
X244040000Y-108189063D03*
D13*
X240840000Y-112030937D03*
D12*
X242440000Y-108860000D03*
D13*
X242440000Y-111360000D03*
D12*
X263700000Y-111990937D03*
D13*
X266900000Y-108149063D03*
D12*
X265300000Y-111320000D03*
D13*
X265300000Y-108820000D03*
G36*
G01*
X246932500Y-91515000D02*
X246932500Y-90565000D01*
G75*
G02*
X247182500Y-90315000I250000J0D01*
G01*
X247857500Y-90315000D01*
G75*
G02*
X248107500Y-90565000I0J-250000D01*
G01*
X248107500Y-91515000D01*
G75*
G02*
X247857500Y-91765000I-250000J0D01*
G01*
X247182500Y-91765000D01*
G75*
G02*
X246932500Y-91515000I0J250000D01*
G01*
G37*
G36*
G01*
X244857500Y-91515000D02*
X244857500Y-90565000D01*
G75*
G02*
X245107500Y-90315000I250000J0D01*
G01*
X245782500Y-90315000D01*
G75*
G02*
X246032500Y-90565000I0J-250000D01*
G01*
X246032500Y-91515000D01*
G75*
G02*
X245782500Y-91765000I-250000J0D01*
G01*
X245107500Y-91765000D01*
G75*
G02*
X244857500Y-91515000I0J250000D01*
G01*
G37*
G36*
G01*
X260902500Y-94055000D02*
X260902500Y-93105000D01*
G75*
G02*
X261152500Y-92855000I250000J0D01*
G01*
X261827500Y-92855000D01*
G75*
G02*
X262077500Y-93105000I0J-250000D01*
G01*
X262077500Y-94055000D01*
G75*
G02*
X261827500Y-94305000I-250000J0D01*
G01*
X261152500Y-94305000D01*
G75*
G02*
X260902500Y-94055000I0J250000D01*
G01*
G37*
G36*
G01*
X262977500Y-94055000D02*
X262977500Y-93105000D01*
G75*
G02*
X263227500Y-92855000I250000J0D01*
G01*
X263902500Y-92855000D01*
G75*
G02*
X264152500Y-93105000I0J-250000D01*
G01*
X264152500Y-94055000D01*
G75*
G02*
X263902500Y-94305000I-250000J0D01*
G01*
X263227500Y-94305000D01*
G75*
G02*
X262977500Y-94055000I0J250000D01*
G01*
G37*
X242440000Y-91040000D03*
D12*
X242440000Y-88540000D03*
D13*
X240840000Y-91710937D03*
D12*
X244040000Y-87869063D03*
D13*
X265300000Y-87230000D03*
D12*
X265300000Y-89730000D03*
D13*
X266900000Y-86559063D03*
D12*
X263700000Y-90400937D03*
G36*
G01*
X244625000Y-68655000D02*
X244625000Y-67705000D01*
G75*
G02*
X244875000Y-67455000I250000J0D01*
G01*
X245550000Y-67455000D01*
G75*
G02*
X245800000Y-67705000I0J-250000D01*
G01*
X245800000Y-68655000D01*
G75*
G02*
X245550000Y-68905000I-250000J0D01*
G01*
X244875000Y-68905000D01*
G75*
G02*
X244625000Y-68655000I0J250000D01*
G01*
G37*
G36*
G01*
X246700000Y-68655000D02*
X246700000Y-67705000D01*
G75*
G02*
X246950000Y-67455000I250000J0D01*
G01*
X247625000Y-67455000D01*
G75*
G02*
X247875000Y-67705000I0J-250000D01*
G01*
X247875000Y-68655000D01*
G75*
G02*
X247625000Y-68905000I-250000J0D01*
G01*
X246950000Y-68905000D01*
G75*
G02*
X246700000Y-68655000I0J250000D01*
G01*
G37*
G36*
G01*
X263210000Y-71195000D02*
X263210000Y-70245000D01*
G75*
G02*
X263460000Y-69995000I250000J0D01*
G01*
X264135000Y-69995000D01*
G75*
G02*
X264385000Y-70245000I0J-250000D01*
G01*
X264385000Y-71195000D01*
G75*
G02*
X264135000Y-71445000I-250000J0D01*
G01*
X263460000Y-71445000D01*
G75*
G02*
X263210000Y-71195000I0J250000D01*
G01*
G37*
G36*
G01*
X261135000Y-71195000D02*
X261135000Y-70245000D01*
G75*
G02*
X261385000Y-69995000I250000J0D01*
G01*
X262060000Y-69995000D01*
G75*
G02*
X262310000Y-70245000I0J-250000D01*
G01*
X262310000Y-71195000D01*
G75*
G02*
X262060000Y-71445000I-250000J0D01*
G01*
X261385000Y-71445000D01*
G75*
G02*
X261135000Y-71195000I0J250000D01*
G01*
G37*
X239100000Y-64329063D03*
D13*
X235900000Y-68170937D03*
D12*
X237500000Y-65000000D03*
D13*
X237500000Y-67500000D03*
X270000000Y-64370000D03*
D12*
X270000000Y-66870000D03*
D13*
X271600000Y-63699063D03*
D12*
X268400000Y-67540937D03*
G36*
G01*
X197625000Y-112525000D02*
X197625000Y-113475000D01*
G75*
G02*
X197375000Y-113725000I-250000J0D01*
G01*
X196700000Y-113725000D01*
G75*
G02*
X196450000Y-113475000I0J250000D01*
G01*
X196450000Y-112525000D01*
G75*
G02*
X196700000Y-112275000I250000J0D01*
G01*
X197375000Y-112275000D01*
G75*
G02*
X197625000Y-112525000I0J-250000D01*
G01*
G37*
G36*
G01*
X195550000Y-112525000D02*
X195550000Y-113475000D01*
G75*
G02*
X195300000Y-113725000I-250000J0D01*
G01*
X194625000Y-113725000D01*
G75*
G02*
X194375000Y-113475000I0J250000D01*
G01*
X194375000Y-112525000D01*
G75*
G02*
X194625000Y-112275000I250000J0D01*
G01*
X195300000Y-112275000D01*
G75*
G02*
X195550000Y-112525000I0J-250000D01*
G01*
G37*
G36*
G01*
X199525000Y-108450000D02*
X200475000Y-108450000D01*
G75*
G02*
X200725000Y-108700000I0J-250000D01*
G01*
X200725000Y-109375000D01*
G75*
G02*
X200475000Y-109625000I-250000J0D01*
G01*
X199525000Y-109625000D01*
G75*
G02*
X199275000Y-109375000I0J250000D01*
G01*
X199275000Y-108700000D01*
G75*
G02*
X199525000Y-108450000I250000J0D01*
G01*
G37*
G36*
G01*
X199525000Y-106375000D02*
X200475000Y-106375000D01*
G75*
G02*
X200725000Y-106625000I0J-250000D01*
G01*
X200725000Y-107300000D01*
G75*
G02*
X200475000Y-107550000I-250000J0D01*
G01*
X199525000Y-107550000D01*
G75*
G02*
X199275000Y-107300000I0J250000D01*
G01*
X199275000Y-106625000D01*
G75*
G02*
X199525000Y-106375000I250000J0D01*
G01*
G37*
G36*
G01*
X199525000Y-101375000D02*
X200475000Y-101375000D01*
G75*
G02*
X200725000Y-101625000I0J-250000D01*
G01*
X200725000Y-102300000D01*
G75*
G02*
X200475000Y-102550000I-250000J0D01*
G01*
X199525000Y-102550000D01*
G75*
G02*
X199275000Y-102300000I0J250000D01*
G01*
X199275000Y-101625000D01*
G75*
G02*
X199525000Y-101375000I250000J0D01*
G01*
G37*
G36*
G01*
X199525000Y-103450000D02*
X200475000Y-103450000D01*
G75*
G02*
X200725000Y-103700000I0J-250000D01*
G01*
X200725000Y-104375000D01*
G75*
G02*
X200475000Y-104625000I-250000J0D01*
G01*
X199525000Y-104625000D01*
G75*
G02*
X199275000Y-104375000I0J250000D01*
G01*
X199275000Y-103700000D01*
G75*
G02*
X199525000Y-103450000I250000J0D01*
G01*
G37*
G36*
G01*
X201487500Y-99535000D02*
X201487500Y-98585000D01*
G75*
G02*
X201737500Y-98335000I250000J0D01*
G01*
X202412500Y-98335000D01*
G75*
G02*
X202662500Y-98585000I0J-250000D01*
G01*
X202662500Y-99535000D01*
G75*
G02*
X202412500Y-99785000I-250000J0D01*
G01*
X201737500Y-99785000D01*
G75*
G02*
X201487500Y-99535000I0J250000D01*
G01*
G37*
G36*
G01*
X199412500Y-99535000D02*
X199412500Y-98585000D01*
G75*
G02*
X199662500Y-98335000I250000J0D01*
G01*
X200337500Y-98335000D01*
G75*
G02*
X200587500Y-98585000I0J-250000D01*
G01*
X200587500Y-99535000D01*
G75*
G02*
X200337500Y-99785000I-250000J0D01*
G01*
X199662500Y-99785000D01*
G75*
G02*
X199412500Y-99535000I0J250000D01*
G01*
G37*
G36*
G01*
X201450000Y-96995000D02*
X201450000Y-96045000D01*
G75*
G02*
X201700000Y-95795000I250000J0D01*
G01*
X202375000Y-95795000D01*
G75*
G02*
X202625000Y-96045000I0J-250000D01*
G01*
X202625000Y-96995000D01*
G75*
G02*
X202375000Y-97245000I-250000J0D01*
G01*
X201700000Y-97245000D01*
G75*
G02*
X201450000Y-96995000I0J250000D01*
G01*
G37*
G36*
G01*
X199375000Y-96995000D02*
X199375000Y-96045000D01*
G75*
G02*
X199625000Y-95795000I250000J0D01*
G01*
X200300000Y-95795000D01*
G75*
G02*
X200550000Y-96045000I0J-250000D01*
G01*
X200550000Y-96995000D01*
G75*
G02*
X200300000Y-97245000I-250000J0D01*
G01*
X199625000Y-97245000D01*
G75*
G02*
X199375000Y-96995000I0J250000D01*
G01*
G37*
G36*
G01*
X225845001Y-95870000D02*
X224154999Y-95870000D01*
G75*
G02*
X223905000Y-95620001I0J249999D01*
G01*
X223905000Y-94379999D01*
G75*
G02*
X224154999Y-94130000I249999J0D01*
G01*
X225845001Y-94130000D01*
G75*
G02*
X226095000Y-94379999I0J-249999D01*
G01*
X226095000Y-95620001D01*
G75*
G02*
X225845001Y-95870000I-249999J0D01*
G01*
G37*
D14*
X225000000Y-92460000D03*
X225000000Y-89920000D03*
X225000000Y-87380000D03*
X225000000Y-84840000D03*
X225000000Y-82300000D03*
X225000000Y-79760000D03*
X225000000Y-77220000D03*
X225000000Y-74680000D03*
X225000000Y-72140000D03*
D15*
X142000000Y-87000000D03*
D16*
X142000000Y-84460000D03*
X142000000Y-89540000D03*
G36*
G01*
X257280000Y-110514999D02*
X257280000Y-112205001D01*
G75*
G02*
X257030001Y-112455000I-249999J0D01*
G01*
X255789999Y-112455000D01*
G75*
G02*
X255540000Y-112205001I0J249999D01*
G01*
X255540000Y-110514999D01*
G75*
G02*
X255789999Y-110265000I249999J0D01*
G01*
X257030001Y-110265000D01*
G75*
G02*
X257280000Y-110514999I0J-249999D01*
G01*
G37*
D17*
X253870000Y-111360000D03*
X251330000Y-111360000D03*
G36*
G01*
X259820000Y-64154999D02*
X259820000Y-65845001D01*
G75*
G02*
X259570001Y-66095000I-249999J0D01*
G01*
X258329999Y-66095000D01*
G75*
G02*
X258080000Y-65845001I0J249999D01*
G01*
X258080000Y-64154999D01*
G75*
G02*
X258329999Y-63905000I249999J0D01*
G01*
X259570001Y-63905000D01*
G75*
G02*
X259820000Y-64154999I0J-249999D01*
G01*
G37*
X256410000Y-65000000D03*
X253870000Y-65000000D03*
X251330000Y-65000000D03*
X248790000Y-65000000D03*
D14*
X182500000Y-94800000D03*
X182500000Y-97340000D03*
X182500000Y-99880000D03*
X182500000Y-102420000D03*
X182500000Y-104960000D03*
G36*
G01*
X183345001Y-108370000D02*
X181654999Y-108370000D01*
G75*
G02*
X181405000Y-108120001I0J249999D01*
G01*
X181405000Y-106879999D01*
G75*
G02*
X181654999Y-106630000I249999J0D01*
G01*
X183345001Y-106630000D01*
G75*
G02*
X183595000Y-106879999I0J-249999D01*
G01*
X183595000Y-108120001D01*
G75*
G02*
X183345001Y-108370000I-249999J0D01*
G01*
G37*
D18*
X162920000Y-101000000D03*
X165460000Y-101000000D03*
D19*
X168000000Y-101000000D03*
D20*
X165460000Y-117660000D03*
G36*
G01*
X168237500Y-98400000D02*
X167762500Y-98400000D01*
G75*
G02*
X167525000Y-98162500I0J237500D01*
G01*
X167525000Y-97662500D01*
G75*
G02*
X167762500Y-97425000I237500J0D01*
G01*
X168237500Y-97425000D01*
G75*
G02*
X168475000Y-97662500I0J-237500D01*
G01*
X168475000Y-98162500D01*
G75*
G02*
X168237500Y-98400000I-237500J0D01*
G01*
G37*
G36*
G01*
X168237500Y-96575000D02*
X167762500Y-96575000D01*
G75*
G02*
X167525000Y-96337500I0J237500D01*
G01*
X167525000Y-95837500D01*
G75*
G02*
X167762500Y-95600000I237500J0D01*
G01*
X168237500Y-95600000D01*
G75*
G02*
X168475000Y-95837500I0J-237500D01*
G01*
X168475000Y-96337500D01*
G75*
G02*
X168237500Y-96575000I-237500J0D01*
G01*
G37*
G36*
G01*
X164237500Y-76575000D02*
X163762500Y-76575000D01*
G75*
G02*
X163525000Y-76337500I0J237500D01*
G01*
X163525000Y-75837500D01*
G75*
G02*
X163762500Y-75600000I237500J0D01*
G01*
X164237500Y-75600000D01*
G75*
G02*
X164475000Y-75837500I0J-237500D01*
G01*
X164475000Y-76337500D01*
G75*
G02*
X164237500Y-76575000I-237500J0D01*
G01*
G37*
G36*
G01*
X164237500Y-78400000D02*
X163762500Y-78400000D01*
G75*
G02*
X163525000Y-78162500I0J237500D01*
G01*
X163525000Y-77662500D01*
G75*
G02*
X163762500Y-77425000I237500J0D01*
G01*
X164237500Y-77425000D01*
G75*
G02*
X164475000Y-77662500I0J-237500D01*
G01*
X164475000Y-78162500D01*
G75*
G02*
X164237500Y-78400000I-237500J0D01*
G01*
G37*
D21*
X164000000Y-88000000D03*
X154000000Y-85500000D03*
X164000000Y-83000000D03*
D22*
X159000000Y-85650000D03*
D23*
X196850000Y-60960000D03*
X196850000Y-63500000D03*
D24*
X196850000Y-66040000D03*
D23*
X196850000Y-68580000D03*
X196850000Y-71120000D03*
X196850000Y-73660000D03*
X196850000Y-76200000D03*
D24*
X196850000Y-78740000D03*
D23*
X196850000Y-81280000D03*
X196850000Y-83820000D03*
X196850000Y-86360000D03*
X196850000Y-88900000D03*
D24*
X196850000Y-91440000D03*
D23*
X196850000Y-93980000D03*
X196850000Y-96520000D03*
X196850000Y-99060000D03*
X196850000Y-101600000D03*
D24*
X196850000Y-104140000D03*
D23*
X196850000Y-106680000D03*
X196850000Y-109220000D03*
X214630000Y-109220000D03*
X214630000Y-106680000D03*
D24*
X214630000Y-104140000D03*
D23*
X214630000Y-101600000D03*
X214630000Y-99060000D03*
X214630000Y-96520000D03*
X214630000Y-93980000D03*
D24*
X214630000Y-91440000D03*
D23*
X214630000Y-88900000D03*
X214630000Y-86360000D03*
X214630000Y-83820000D03*
X214630000Y-81280000D03*
D24*
X214630000Y-78740000D03*
D23*
X214630000Y-76200000D03*
X214630000Y-73660000D03*
X214630000Y-71120000D03*
X214630000Y-68580000D03*
D24*
X214630000Y-66040000D03*
D23*
X214630000Y-63500000D03*
X214630000Y-60960000D03*
D25*
X203015000Y-61090000D03*
X208465000Y-61090000D03*
D26*
X203315000Y-64120000D03*
X208165000Y-64120000D03*
D23*
X203200000Y-108990000D03*
D24*
X205740000Y-108990000D03*
D23*
X208280000Y-108990000D03*
D27*
X275000000Y-120000000D03*
D28*
X277400000Y-120000000D03*
X276697056Y-121697056D03*
X275000000Y-122400000D03*
X273302944Y-121697056D03*
X272600000Y-120000000D03*
X273302944Y-118302944D03*
X275000000Y-117600000D03*
X276697056Y-118302944D03*
X146697056Y-52802944D03*
X145000000Y-52100000D03*
X143302944Y-52802944D03*
X142600000Y-54500000D03*
X143302944Y-56197056D03*
X145000000Y-56900000D03*
X146697056Y-56197056D03*
X147400000Y-54500000D03*
D27*
X145000000Y-54500000D03*
X275000000Y-55000000D03*
D28*
X277400000Y-55000000D03*
X276697056Y-56697056D03*
X275000000Y-57400000D03*
X273302944Y-56697056D03*
X272600000Y-55000000D03*
X273302944Y-53302944D03*
X275000000Y-52600000D03*
X276697056Y-53302944D03*
X146697056Y-118302944D03*
X145000000Y-117600000D03*
X143302944Y-118302944D03*
X142600000Y-120000000D03*
X143302944Y-121697056D03*
X145000000Y-122400000D03*
X146697056Y-121697056D03*
X147400000Y-120000000D03*
D27*
X145000000Y-120000000D03*
D28*
X236697056Y-118302944D03*
X235000000Y-117600000D03*
X233302944Y-118302944D03*
X232600000Y-120000000D03*
X233302944Y-121697056D03*
X235000000Y-122400000D03*
X236697056Y-121697056D03*
X237400000Y-120000000D03*
D27*
X235000000Y-120000000D03*
X222500000Y-55000000D03*
D28*
X224900000Y-55000000D03*
X224197056Y-56697056D03*
X222500000Y-57400000D03*
X220802944Y-56697056D03*
X220100000Y-55000000D03*
X220802944Y-53302944D03*
X222500000Y-52600000D03*
X224197056Y-53302944D03*
X224197056Y-118302944D03*
X222500000Y-117600000D03*
X220802944Y-118302944D03*
X220100000Y-120000000D03*
X220802944Y-121697056D03*
X222500000Y-122400000D03*
X224197056Y-121697056D03*
X224900000Y-120000000D03*
D27*
X222500000Y-120000000D03*
X235000000Y-55000000D03*
D28*
X237400000Y-55000000D03*
X236697056Y-56697056D03*
X235000000Y-57400000D03*
X233302944Y-56697056D03*
X232600000Y-55000000D03*
X233302944Y-53302944D03*
X235000000Y-52600000D03*
X236697056Y-53302944D03*
G36*
G01*
X145154999Y-64130000D02*
X146845001Y-64130000D01*
G75*
G02*
X147095000Y-64379999I0J-249999D01*
G01*
X147095000Y-65620001D01*
G75*
G02*
X146845001Y-65870000I-249999J0D01*
G01*
X145154999Y-65870000D01*
G75*
G02*
X144905000Y-65620001I0J249999D01*
G01*
X144905000Y-64379999D01*
G75*
G02*
X145154999Y-64130000I249999J0D01*
G01*
G37*
D14*
X146000000Y-67540000D03*
X146000000Y-70080000D03*
X146000000Y-72620000D03*
X146000000Y-75160000D03*
D20*
X166540000Y-56340000D03*
D19*
X164000000Y-73000000D03*
D18*
X166540000Y-73000000D03*
X169080000Y-73000000D03*
D29*
X141873000Y-123000000D02*
X141875440Y-123024776D01*
X141882667Y-123048601D01*
X141894403Y-123070557D01*
X141910197Y-123089803D01*
X141929443Y-123105597D01*
X141951399Y-123117333D01*
X141975224Y-123124560D01*
X142000000Y-123127000D01*
X278000000Y-123127000D01*
X278024776Y-123124560D01*
X278048601Y-123117333D01*
X278070557Y-123105597D01*
X278089803Y-123089803D01*
X278105597Y-123070557D01*
X278117333Y-123048601D01*
X278124560Y-123024776D01*
X278127000Y-123000000D01*
X278127000Y-52127000D01*
X279873000Y-52127000D01*
X279873000Y-124873000D01*
X140127000Y-124873000D01*
X140127000Y-52127000D01*
X141873000Y-52127000D01*
X141873000Y-123000000D01*
D30*
G36*
X141873000Y-123000000D02*
G01*
X141875440Y-123024776D01*
X141882667Y-123048601D01*
X141894403Y-123070557D01*
X141910197Y-123089803D01*
X141929443Y-123105597D01*
X141951399Y-123117333D01*
X141975224Y-123124560D01*
X142000000Y-123127000D01*
X278000000Y-123127000D01*
X278024776Y-123124560D01*
X278048601Y-123117333D01*
X278070557Y-123105597D01*
X278089803Y-123089803D01*
X278105597Y-123070557D01*
X278117333Y-123048601D01*
X278124560Y-123024776D01*
X278127000Y-123000000D01*
X278127000Y-52127000D01*
X279873000Y-52127000D01*
X279873000Y-124873000D01*
X140127000Y-124873000D01*
X140127000Y-52127000D01*
X141873000Y-52127000D01*
X141873000Y-123000000D01*
G37*
D29*
X279873000Y-51873000D02*
X140127000Y-51873000D01*
X140127000Y-50127000D01*
X279873000Y-50127000D01*
X279873000Y-51873000D01*
D30*
G36*
X279873000Y-51873000D02*
G01*
X140127000Y-51873000D01*
X140127000Y-50127000D01*
X279873000Y-50127000D01*
X279873000Y-51873000D01*
G37*
M02*
