G04 #@! TF.GenerationSoftware,KiCad,Pcbnew,(6.0.0)*
G04 #@! TF.CreationDate,2022-07-21T12:24:26+02:00*
G04 #@! TF.ProjectId,AWG,4157472e-6b69-4636-9164-5f7063625858,rev?*
G04 #@! TF.SameCoordinates,Original*
G04 #@! TF.FileFunction,Legend,Bot*
G04 #@! TF.FilePolarity,Positive*
%FSLAX46Y46*%
G04 Gerber Fmt 4.6, Leading zero omitted, Abs format (unit mm)*
G04 Created by KiCad (PCBNEW (6.0.0)) date 2022-07-21 12:24:26*
%MOMM*%
%LPD*%
G01*
G04 APERTURE LIST*
G04 Aperture macros list*
%AMRoundRect*
0 Rectangle with rounded corners*
0 $1 Rounding radius*
0 $2 $3 $4 $5 $6 $7 $8 $9 X,Y pos of 4 corners*
0 Add a 4 corners polygon primitive as box body*
4,1,4,$2,$3,$4,$5,$6,$7,$8,$9,$2,$3,0*
0 Add four circle primitives for the rounded corners*
1,1,$1+$1,$2,$3*
1,1,$1+$1,$4,$5*
1,1,$1+$1,$6,$7*
1,1,$1+$1,$8,$9*
0 Add four rect primitives between the rounded corners*
20,1,$1+$1,$2,$3,$4,$5,0*
20,1,$1+$1,$4,$5,$6,$7,0*
20,1,$1+$1,$6,$7,$8,$9,0*
20,1,$1+$1,$8,$9,$2,$3,0*%
G04 Aperture macros list end*
%ADD10C,0.150000*%
%ADD11C,0.120000*%
%ADD12R,1.600000X1.600000*%
%ADD13C,1.600000*%
%ADD14RoundRect,0.249999X0.845001X-0.620001X0.845001X0.620001X-0.845001X0.620001X-0.845001X-0.620001X0*%
%ADD15O,2.190000X1.740000*%
%ADD16RoundRect,0.249999X0.620001X0.845001X-0.620001X0.845001X-0.620001X-0.845001X0.620001X-0.845001X0*%
%ADD17O,1.740000X2.190000*%
%ADD18O,3.500000X3.500000*%
%ADD19R,1.905000X2.000000*%
%ADD20O,1.905000X2.000000*%
%ADD21C,4.000000*%
%ADD22C,2.340000*%
%ADD23O,1.800000X1.800000*%
%ADD24O,1.500000X1.500000*%
%ADD25O,1.700000X1.700000*%
%ADD26R,1.700000X1.700000*%
%ADD27C,0.800000*%
%ADD28C,6.400000*%
%ADD29RoundRect,0.249999X-0.845001X0.620001X-0.845001X-0.620001X0.845001X-0.620001X0.845001X0.620001X0*%
%ADD30RoundRect,0.250000X0.475000X-0.337500X0.475000X0.337500X-0.475000X0.337500X-0.475000X-0.337500X0*%
%ADD31RoundRect,0.250000X-0.475000X0.337500X-0.475000X-0.337500X0.475000X-0.337500X0.475000X0.337500X0*%
%ADD32RoundRect,0.250000X-0.337500X-0.475000X0.337500X-0.475000X0.337500X0.475000X-0.337500X0.475000X0*%
%ADD33RoundRect,0.250000X0.337500X0.475000X-0.337500X0.475000X-0.337500X-0.475000X0.337500X-0.475000X0*%
%ADD34R,4.000000X1.400000*%
%ADD35R,4.000000X1.500000*%
%ADD36RoundRect,0.237500X0.237500X-0.250000X0.237500X0.250000X-0.237500X0.250000X-0.237500X-0.250000X0*%
%ADD37RoundRect,0.250000X1.075000X-0.400000X1.075000X0.400000X-1.075000X0.400000X-1.075000X-0.400000X0*%
G04 APERTURE END LIST*
D10*
X214127142Y-69683333D02*
X214174761Y-69635714D01*
X214222380Y-69492857D01*
X214222380Y-69397619D01*
X214174761Y-69254761D01*
X214079523Y-69159523D01*
X213984285Y-69111904D01*
X213793809Y-69064285D01*
X213650952Y-69064285D01*
X213460476Y-69111904D01*
X213365238Y-69159523D01*
X213270000Y-69254761D01*
X213222380Y-69397619D01*
X213222380Y-69492857D01*
X213270000Y-69635714D01*
X213317619Y-69683333D01*
X213555714Y-70540476D02*
X214222380Y-70540476D01*
X213174761Y-70302380D02*
X213889047Y-70064285D01*
X213889047Y-70683333D01*
X210767142Y-64603333D02*
X210814761Y-64555714D01*
X210862380Y-64412857D01*
X210862380Y-64317619D01*
X210814761Y-64174761D01*
X210719523Y-64079523D01*
X210624285Y-64031904D01*
X210433809Y-63984285D01*
X210290952Y-63984285D01*
X210100476Y-64031904D01*
X210005238Y-64079523D01*
X209910000Y-64174761D01*
X209862380Y-64317619D01*
X209862380Y-64412857D01*
X209910000Y-64555714D01*
X209957619Y-64603333D01*
X209862380Y-65508095D02*
X209862380Y-65031904D01*
X210338571Y-64984285D01*
X210290952Y-65031904D01*
X210243333Y-65127142D01*
X210243333Y-65365238D01*
X210290952Y-65460476D01*
X210338571Y-65508095D01*
X210433809Y-65555714D01*
X210671904Y-65555714D01*
X210767142Y-65508095D01*
X210814761Y-65460476D01*
X210862380Y-65365238D01*
X210862380Y-65127142D01*
X210814761Y-65031904D01*
X210767142Y-64984285D01*
X248077738Y-93077142D02*
X248125357Y-93124761D01*
X248268214Y-93172380D01*
X248363452Y-93172380D01*
X248506309Y-93124761D01*
X248601547Y-93029523D01*
X248649166Y-92934285D01*
X248696785Y-92743809D01*
X248696785Y-92600952D01*
X248649166Y-92410476D01*
X248601547Y-92315238D01*
X248506309Y-92220000D01*
X248363452Y-92172380D01*
X248268214Y-92172380D01*
X248125357Y-92220000D01*
X248077738Y-92267619D01*
X247125357Y-93172380D02*
X247696785Y-93172380D01*
X247411071Y-93172380D02*
X247411071Y-92172380D01*
X247506309Y-92315238D01*
X247601547Y-92410476D01*
X247696785Y-92458095D01*
X246506309Y-92172380D02*
X246411071Y-92172380D01*
X246315833Y-92220000D01*
X246268214Y-92267619D01*
X246220595Y-92362857D01*
X246172976Y-92553333D01*
X246172976Y-92791428D01*
X246220595Y-92981904D01*
X246268214Y-93077142D01*
X246315833Y-93124761D01*
X246411071Y-93172380D01*
X246506309Y-93172380D01*
X246601547Y-93124761D01*
X246649166Y-93077142D01*
X246696785Y-92981904D01*
X246744404Y-92791428D01*
X246744404Y-92553333D01*
X246696785Y-92362857D01*
X246649166Y-92267619D01*
X246601547Y-92220000D01*
X246506309Y-92172380D01*
X245553928Y-92172380D02*
X245458690Y-92172380D01*
X245363452Y-92220000D01*
X245315833Y-92267619D01*
X245268214Y-92362857D01*
X245220595Y-92553333D01*
X245220595Y-92791428D01*
X245268214Y-92981904D01*
X245315833Y-93077142D01*
X245363452Y-93124761D01*
X245458690Y-93172380D01*
X245553928Y-93172380D01*
X245649166Y-93124761D01*
X245696785Y-93077142D01*
X245744404Y-92981904D01*
X245792023Y-92791428D01*
X245792023Y-92553333D01*
X245744404Y-92362857D01*
X245696785Y-92267619D01*
X245649166Y-92220000D01*
X245553928Y-92172380D01*
X244887261Y-92172380D02*
X244268214Y-92172380D01*
X244601547Y-92553333D01*
X244458690Y-92553333D01*
X244363452Y-92600952D01*
X244315833Y-92648571D01*
X244268214Y-92743809D01*
X244268214Y-92981904D01*
X244315833Y-93077142D01*
X244363452Y-93124761D01*
X244458690Y-93172380D01*
X244744404Y-93172380D01*
X244839642Y-93124761D01*
X244887261Y-93077142D01*
X264122738Y-95617142D02*
X264170357Y-95664761D01*
X264313214Y-95712380D01*
X264408452Y-95712380D01*
X264551309Y-95664761D01*
X264646547Y-95569523D01*
X264694166Y-95474285D01*
X264741785Y-95283809D01*
X264741785Y-95140952D01*
X264694166Y-94950476D01*
X264646547Y-94855238D01*
X264551309Y-94760000D01*
X264408452Y-94712380D01*
X264313214Y-94712380D01*
X264170357Y-94760000D01*
X264122738Y-94807619D01*
X263170357Y-95712380D02*
X263741785Y-95712380D01*
X263456071Y-95712380D02*
X263456071Y-94712380D01*
X263551309Y-94855238D01*
X263646547Y-94950476D01*
X263741785Y-94998095D01*
X262551309Y-94712380D02*
X262456071Y-94712380D01*
X262360833Y-94760000D01*
X262313214Y-94807619D01*
X262265595Y-94902857D01*
X262217976Y-95093333D01*
X262217976Y-95331428D01*
X262265595Y-95521904D01*
X262313214Y-95617142D01*
X262360833Y-95664761D01*
X262456071Y-95712380D01*
X262551309Y-95712380D01*
X262646547Y-95664761D01*
X262694166Y-95617142D01*
X262741785Y-95521904D01*
X262789404Y-95331428D01*
X262789404Y-95093333D01*
X262741785Y-94902857D01*
X262694166Y-94807619D01*
X262646547Y-94760000D01*
X262551309Y-94712380D01*
X261598928Y-94712380D02*
X261503690Y-94712380D01*
X261408452Y-94760000D01*
X261360833Y-94807619D01*
X261313214Y-94902857D01*
X261265595Y-95093333D01*
X261265595Y-95331428D01*
X261313214Y-95521904D01*
X261360833Y-95617142D01*
X261408452Y-95664761D01*
X261503690Y-95712380D01*
X261598928Y-95712380D01*
X261694166Y-95664761D01*
X261741785Y-95617142D01*
X261789404Y-95521904D01*
X261837023Y-95331428D01*
X261837023Y-95093333D01*
X261789404Y-94902857D01*
X261741785Y-94807619D01*
X261694166Y-94760000D01*
X261598928Y-94712380D01*
X260408452Y-95045714D02*
X260408452Y-95712380D01*
X260646547Y-94664761D02*
X260884642Y-95379047D01*
X260265595Y-95379047D01*
X247845238Y-70217142D02*
X247892857Y-70264761D01*
X248035714Y-70312380D01*
X248130952Y-70312380D01*
X248273809Y-70264761D01*
X248369047Y-70169523D01*
X248416666Y-70074285D01*
X248464285Y-69883809D01*
X248464285Y-69740952D01*
X248416666Y-69550476D01*
X248369047Y-69455238D01*
X248273809Y-69360000D01*
X248130952Y-69312380D01*
X248035714Y-69312380D01*
X247892857Y-69360000D01*
X247845238Y-69407619D01*
X246892857Y-70312380D02*
X247464285Y-70312380D01*
X247178571Y-70312380D02*
X247178571Y-69312380D01*
X247273809Y-69455238D01*
X247369047Y-69550476D01*
X247464285Y-69598095D01*
X246273809Y-69312380D02*
X246178571Y-69312380D01*
X246083333Y-69360000D01*
X246035714Y-69407619D01*
X245988095Y-69502857D01*
X245940476Y-69693333D01*
X245940476Y-69931428D01*
X245988095Y-70121904D01*
X246035714Y-70217142D01*
X246083333Y-70264761D01*
X246178571Y-70312380D01*
X246273809Y-70312380D01*
X246369047Y-70264761D01*
X246416666Y-70217142D01*
X246464285Y-70121904D01*
X246511904Y-69931428D01*
X246511904Y-69693333D01*
X246464285Y-69502857D01*
X246416666Y-69407619D01*
X246369047Y-69360000D01*
X246273809Y-69312380D01*
X245321428Y-69312380D02*
X245226190Y-69312380D01*
X245130952Y-69360000D01*
X245083333Y-69407619D01*
X245035714Y-69502857D01*
X244988095Y-69693333D01*
X244988095Y-69931428D01*
X245035714Y-70121904D01*
X245083333Y-70217142D01*
X245130952Y-70264761D01*
X245226190Y-70312380D01*
X245321428Y-70312380D01*
X245416666Y-70264761D01*
X245464285Y-70217142D01*
X245511904Y-70121904D01*
X245559523Y-69931428D01*
X245559523Y-69693333D01*
X245511904Y-69502857D01*
X245464285Y-69407619D01*
X245416666Y-69360000D01*
X245321428Y-69312380D01*
X244654761Y-69312380D02*
X243988095Y-69312380D01*
X244416666Y-70312380D01*
X264355238Y-72757142D02*
X264402857Y-72804761D01*
X264545714Y-72852380D01*
X264640952Y-72852380D01*
X264783809Y-72804761D01*
X264879047Y-72709523D01*
X264926666Y-72614285D01*
X264974285Y-72423809D01*
X264974285Y-72280952D01*
X264926666Y-72090476D01*
X264879047Y-71995238D01*
X264783809Y-71900000D01*
X264640952Y-71852380D01*
X264545714Y-71852380D01*
X264402857Y-71900000D01*
X264355238Y-71947619D01*
X263402857Y-72852380D02*
X263974285Y-72852380D01*
X263688571Y-72852380D02*
X263688571Y-71852380D01*
X263783809Y-71995238D01*
X263879047Y-72090476D01*
X263974285Y-72138095D01*
X262783809Y-71852380D02*
X262688571Y-71852380D01*
X262593333Y-71900000D01*
X262545714Y-71947619D01*
X262498095Y-72042857D01*
X262450476Y-72233333D01*
X262450476Y-72471428D01*
X262498095Y-72661904D01*
X262545714Y-72757142D01*
X262593333Y-72804761D01*
X262688571Y-72852380D01*
X262783809Y-72852380D01*
X262879047Y-72804761D01*
X262926666Y-72757142D01*
X262974285Y-72661904D01*
X263021904Y-72471428D01*
X263021904Y-72233333D01*
X262974285Y-72042857D01*
X262926666Y-71947619D01*
X262879047Y-71900000D01*
X262783809Y-71852380D01*
X261831428Y-71852380D02*
X261736190Y-71852380D01*
X261640952Y-71900000D01*
X261593333Y-71947619D01*
X261545714Y-72042857D01*
X261498095Y-72233333D01*
X261498095Y-72471428D01*
X261545714Y-72661904D01*
X261593333Y-72757142D01*
X261640952Y-72804761D01*
X261736190Y-72852380D01*
X261831428Y-72852380D01*
X261926666Y-72804761D01*
X261974285Y-72757142D01*
X262021904Y-72661904D01*
X262069523Y-72471428D01*
X262069523Y-72233333D01*
X262021904Y-72042857D01*
X261974285Y-71947619D01*
X261926666Y-71900000D01*
X261831428Y-71852380D01*
X260926666Y-72280952D02*
X261021904Y-72233333D01*
X261069523Y-72185714D01*
X261117142Y-72090476D01*
X261117142Y-72042857D01*
X261069523Y-71947619D01*
X261021904Y-71900000D01*
X260926666Y-71852380D01*
X260736190Y-71852380D01*
X260640952Y-71900000D01*
X260593333Y-71947619D01*
X260545714Y-72042857D01*
X260545714Y-72090476D01*
X260593333Y-72185714D01*
X260640952Y-72233333D01*
X260736190Y-72280952D01*
X260926666Y-72280952D01*
X261021904Y-72328571D01*
X261069523Y-72376190D01*
X261117142Y-72471428D01*
X261117142Y-72661904D01*
X261069523Y-72757142D01*
X261021904Y-72804761D01*
X260926666Y-72852380D01*
X260736190Y-72852380D01*
X260640952Y-72804761D01*
X260593333Y-72757142D01*
X260545714Y-72661904D01*
X260545714Y-72471428D01*
X260593333Y-72376190D01*
X260640952Y-72328571D01*
X260736190Y-72280952D01*
X197595238Y-111677142D02*
X197642857Y-111724761D01*
X197785714Y-111772380D01*
X197880952Y-111772380D01*
X198023809Y-111724761D01*
X198119047Y-111629523D01*
X198166666Y-111534285D01*
X198214285Y-111343809D01*
X198214285Y-111200952D01*
X198166666Y-111010476D01*
X198119047Y-110915238D01*
X198023809Y-110820000D01*
X197880952Y-110772380D01*
X197785714Y-110772380D01*
X197642857Y-110820000D01*
X197595238Y-110867619D01*
X196642857Y-111772380D02*
X197214285Y-111772380D01*
X196928571Y-111772380D02*
X196928571Y-110772380D01*
X197023809Y-110915238D01*
X197119047Y-111010476D01*
X197214285Y-111058095D01*
X196023809Y-110772380D02*
X195928571Y-110772380D01*
X195833333Y-110820000D01*
X195785714Y-110867619D01*
X195738095Y-110962857D01*
X195690476Y-111153333D01*
X195690476Y-111391428D01*
X195738095Y-111581904D01*
X195785714Y-111677142D01*
X195833333Y-111724761D01*
X195928571Y-111772380D01*
X196023809Y-111772380D01*
X196119047Y-111724761D01*
X196166666Y-111677142D01*
X196214285Y-111581904D01*
X196261904Y-111391428D01*
X196261904Y-111153333D01*
X196214285Y-110962857D01*
X196166666Y-110867619D01*
X196119047Y-110820000D01*
X196023809Y-110772380D01*
X194738095Y-111772380D02*
X195309523Y-111772380D01*
X195023809Y-111772380D02*
X195023809Y-110772380D01*
X195119047Y-110915238D01*
X195214285Y-111010476D01*
X195309523Y-111058095D01*
X193785714Y-111772380D02*
X194357142Y-111772380D01*
X194071428Y-111772380D02*
X194071428Y-110772380D01*
X194166666Y-110915238D01*
X194261904Y-111010476D01*
X194357142Y-111058095D01*
X205395238Y-107157142D02*
X205442857Y-107204761D01*
X205585714Y-107252380D01*
X205680952Y-107252380D01*
X205823809Y-107204761D01*
X205919047Y-107109523D01*
X205966666Y-107014285D01*
X206014285Y-106823809D01*
X206014285Y-106680952D01*
X205966666Y-106490476D01*
X205919047Y-106395238D01*
X205823809Y-106300000D01*
X205680952Y-106252380D01*
X205585714Y-106252380D01*
X205442857Y-106300000D01*
X205395238Y-106347619D01*
X204442857Y-107252380D02*
X205014285Y-107252380D01*
X204728571Y-107252380D02*
X204728571Y-106252380D01*
X204823809Y-106395238D01*
X204919047Y-106490476D01*
X205014285Y-106538095D01*
X203823809Y-106252380D02*
X203728571Y-106252380D01*
X203633333Y-106300000D01*
X203585714Y-106347619D01*
X203538095Y-106442857D01*
X203490476Y-106633333D01*
X203490476Y-106871428D01*
X203538095Y-107061904D01*
X203585714Y-107157142D01*
X203633333Y-107204761D01*
X203728571Y-107252380D01*
X203823809Y-107252380D01*
X203919047Y-107204761D01*
X203966666Y-107157142D01*
X204014285Y-107061904D01*
X204061904Y-106871428D01*
X204061904Y-106633333D01*
X204014285Y-106442857D01*
X203966666Y-106347619D01*
X203919047Y-106300000D01*
X203823809Y-106252380D01*
X202538095Y-107252380D02*
X203109523Y-107252380D01*
X202823809Y-107252380D02*
X202823809Y-106252380D01*
X202919047Y-106395238D01*
X203014285Y-106490476D01*
X203109523Y-106538095D01*
X202157142Y-106347619D02*
X202109523Y-106300000D01*
X202014285Y-106252380D01*
X201776190Y-106252380D01*
X201680952Y-106300000D01*
X201633333Y-106347619D01*
X201585714Y-106442857D01*
X201585714Y-106538095D01*
X201633333Y-106680952D01*
X202204761Y-107252380D01*
X201585714Y-107252380D01*
X205395238Y-103157142D02*
X205442857Y-103204761D01*
X205585714Y-103252380D01*
X205680952Y-103252380D01*
X205823809Y-103204761D01*
X205919047Y-103109523D01*
X205966666Y-103014285D01*
X206014285Y-102823809D01*
X206014285Y-102680952D01*
X205966666Y-102490476D01*
X205919047Y-102395238D01*
X205823809Y-102300000D01*
X205680952Y-102252380D01*
X205585714Y-102252380D01*
X205442857Y-102300000D01*
X205395238Y-102347619D01*
X204442857Y-103252380D02*
X205014285Y-103252380D01*
X204728571Y-103252380D02*
X204728571Y-102252380D01*
X204823809Y-102395238D01*
X204919047Y-102490476D01*
X205014285Y-102538095D01*
X203823809Y-102252380D02*
X203728571Y-102252380D01*
X203633333Y-102300000D01*
X203585714Y-102347619D01*
X203538095Y-102442857D01*
X203490476Y-102633333D01*
X203490476Y-102871428D01*
X203538095Y-103061904D01*
X203585714Y-103157142D01*
X203633333Y-103204761D01*
X203728571Y-103252380D01*
X203823809Y-103252380D01*
X203919047Y-103204761D01*
X203966666Y-103157142D01*
X204014285Y-103061904D01*
X204061904Y-102871428D01*
X204061904Y-102633333D01*
X204014285Y-102442857D01*
X203966666Y-102347619D01*
X203919047Y-102300000D01*
X203823809Y-102252380D01*
X202538095Y-103252380D02*
X203109523Y-103252380D01*
X202823809Y-103252380D02*
X202823809Y-102252380D01*
X202919047Y-102395238D01*
X203014285Y-102490476D01*
X203109523Y-102538095D01*
X202204761Y-102252380D02*
X201585714Y-102252380D01*
X201919047Y-102633333D01*
X201776190Y-102633333D01*
X201680952Y-102680952D01*
X201633333Y-102728571D01*
X201585714Y-102823809D01*
X201585714Y-103061904D01*
X201633333Y-103157142D01*
X201680952Y-103204761D01*
X201776190Y-103252380D01*
X202061904Y-103252380D01*
X202157142Y-103204761D01*
X202204761Y-103157142D01*
X207595238Y-99357142D02*
X207642857Y-99404761D01*
X207785714Y-99452380D01*
X207880952Y-99452380D01*
X208023809Y-99404761D01*
X208119047Y-99309523D01*
X208166666Y-99214285D01*
X208214285Y-99023809D01*
X208214285Y-98880952D01*
X208166666Y-98690476D01*
X208119047Y-98595238D01*
X208023809Y-98500000D01*
X207880952Y-98452380D01*
X207785714Y-98452380D01*
X207642857Y-98500000D01*
X207595238Y-98547619D01*
X206642857Y-99452380D02*
X207214285Y-99452380D01*
X206928571Y-99452380D02*
X206928571Y-98452380D01*
X207023809Y-98595238D01*
X207119047Y-98690476D01*
X207214285Y-98738095D01*
X206023809Y-98452380D02*
X205928571Y-98452380D01*
X205833333Y-98500000D01*
X205785714Y-98547619D01*
X205738095Y-98642857D01*
X205690476Y-98833333D01*
X205690476Y-99071428D01*
X205738095Y-99261904D01*
X205785714Y-99357142D01*
X205833333Y-99404761D01*
X205928571Y-99452380D01*
X206023809Y-99452380D01*
X206119047Y-99404761D01*
X206166666Y-99357142D01*
X206214285Y-99261904D01*
X206261904Y-99071428D01*
X206261904Y-98833333D01*
X206214285Y-98642857D01*
X206166666Y-98547619D01*
X206119047Y-98500000D01*
X206023809Y-98452380D01*
X204738095Y-99452380D02*
X205309523Y-99452380D01*
X205023809Y-99452380D02*
X205023809Y-98452380D01*
X205119047Y-98595238D01*
X205214285Y-98690476D01*
X205309523Y-98738095D01*
X203833333Y-98452380D02*
X204309523Y-98452380D01*
X204357142Y-98928571D01*
X204309523Y-98880952D01*
X204214285Y-98833333D01*
X203976190Y-98833333D01*
X203880952Y-98880952D01*
X203833333Y-98928571D01*
X203785714Y-99023809D01*
X203785714Y-99261904D01*
X203833333Y-99357142D01*
X203880952Y-99404761D01*
X203976190Y-99452380D01*
X204214285Y-99452380D01*
X204309523Y-99404761D01*
X204357142Y-99357142D01*
X144533333Y-81652380D02*
X144533333Y-82366666D01*
X144580952Y-82509523D01*
X144676190Y-82604761D01*
X144819047Y-82652380D01*
X144914285Y-82652380D01*
X143580952Y-81652380D02*
X144057142Y-81652380D01*
X144104761Y-82128571D01*
X144057142Y-82080952D01*
X143961904Y-82033333D01*
X143723809Y-82033333D01*
X143628571Y-82080952D01*
X143580952Y-82128571D01*
X143533333Y-82223809D01*
X143533333Y-82461904D01*
X143580952Y-82557142D01*
X143628571Y-82604761D01*
X143723809Y-82652380D01*
X143961904Y-82652380D01*
X144057142Y-82604761D01*
X144104761Y-82557142D01*
X174652380Y-85757142D02*
X174176190Y-85423809D01*
X174652380Y-85185714D02*
X173652380Y-85185714D01*
X173652380Y-85566666D01*
X173700000Y-85661904D01*
X173747619Y-85709523D01*
X173842857Y-85757142D01*
X173985714Y-85757142D01*
X174080952Y-85709523D01*
X174128571Y-85661904D01*
X174176190Y-85566666D01*
X174176190Y-85185714D01*
X173747619Y-86138095D02*
X173700000Y-86185714D01*
X173652380Y-86280952D01*
X173652380Y-86519047D01*
X173700000Y-86614285D01*
X173747619Y-86661904D01*
X173842857Y-86709523D01*
X173938095Y-86709523D01*
X174080952Y-86661904D01*
X174652380Y-86090476D01*
X174652380Y-86709523D01*
X174080952Y-87280952D02*
X174033333Y-87185714D01*
X173985714Y-87138095D01*
X173890476Y-87090476D01*
X173842857Y-87090476D01*
X173747619Y-87138095D01*
X173700000Y-87185714D01*
X173652380Y-87280952D01*
X173652380Y-87471428D01*
X173700000Y-87566666D01*
X173747619Y-87614285D01*
X173842857Y-87661904D01*
X173890476Y-87661904D01*
X173985714Y-87614285D01*
X174033333Y-87566666D01*
X174080952Y-87471428D01*
X174080952Y-87280952D01*
X174128571Y-87185714D01*
X174176190Y-87138095D01*
X174271428Y-87090476D01*
X174461904Y-87090476D01*
X174557142Y-87138095D01*
X174604761Y-87185714D01*
X174652380Y-87280952D01*
X174652380Y-87471428D01*
X174604761Y-87566666D01*
X174557142Y-87614285D01*
X174461904Y-87661904D01*
X174271428Y-87661904D01*
X174176190Y-87614285D01*
X174128571Y-87566666D01*
X174080952Y-87471428D01*
X170732380Y-96357142D02*
X170256190Y-96023809D01*
X170732380Y-95785714D02*
X169732380Y-95785714D01*
X169732380Y-96166666D01*
X169780000Y-96261904D01*
X169827619Y-96309523D01*
X169922857Y-96357142D01*
X170065714Y-96357142D01*
X170160952Y-96309523D01*
X170208571Y-96261904D01*
X170256190Y-96166666D01*
X170256190Y-95785714D01*
X169732380Y-96690476D02*
X169732380Y-97309523D01*
X170113333Y-96976190D01*
X170113333Y-97119047D01*
X170160952Y-97214285D01*
X170208571Y-97261904D01*
X170303809Y-97309523D01*
X170541904Y-97309523D01*
X170637142Y-97261904D01*
X170684761Y-97214285D01*
X170732380Y-97119047D01*
X170732380Y-96833333D01*
X170684761Y-96738095D01*
X170637142Y-96690476D01*
X169732380Y-97642857D02*
X169732380Y-98261904D01*
X170113333Y-97928571D01*
X170113333Y-98071428D01*
X170160952Y-98166666D01*
X170208571Y-98214285D01*
X170303809Y-98261904D01*
X170541904Y-98261904D01*
X170637142Y-98214285D01*
X170684761Y-98166666D01*
X170732380Y-98071428D01*
X170732380Y-97785714D01*
X170684761Y-97690476D01*
X170637142Y-97642857D01*
X207595238Y-96357142D02*
X207642857Y-96404761D01*
X207785714Y-96452380D01*
X207880952Y-96452380D01*
X208023809Y-96404761D01*
X208119047Y-96309523D01*
X208166666Y-96214285D01*
X208214285Y-96023809D01*
X208214285Y-95880952D01*
X208166666Y-95690476D01*
X208119047Y-95595238D01*
X208023809Y-95500000D01*
X207880952Y-95452380D01*
X207785714Y-95452380D01*
X207642857Y-95500000D01*
X207595238Y-95547619D01*
X206642857Y-96452380D02*
X207214285Y-96452380D01*
X206928571Y-96452380D02*
X206928571Y-95452380D01*
X207023809Y-95595238D01*
X207119047Y-95690476D01*
X207214285Y-95738095D01*
X206023809Y-95452380D02*
X205928571Y-95452380D01*
X205833333Y-95500000D01*
X205785714Y-95547619D01*
X205738095Y-95642857D01*
X205690476Y-95833333D01*
X205690476Y-96071428D01*
X205738095Y-96261904D01*
X205785714Y-96357142D01*
X205833333Y-96404761D01*
X205928571Y-96452380D01*
X206023809Y-96452380D01*
X206119047Y-96404761D01*
X206166666Y-96357142D01*
X206214285Y-96261904D01*
X206261904Y-96071428D01*
X206261904Y-95833333D01*
X206214285Y-95642857D01*
X206166666Y-95547619D01*
X206119047Y-95500000D01*
X206023809Y-95452380D01*
X204738095Y-96452380D02*
X205309523Y-96452380D01*
X205023809Y-96452380D02*
X205023809Y-95452380D01*
X205119047Y-95595238D01*
X205214285Y-95690476D01*
X205309523Y-95738095D01*
X204404761Y-95452380D02*
X203738095Y-95452380D01*
X204166666Y-96452380D01*
X166732380Y-76357142D02*
X166256190Y-76023809D01*
X166732380Y-75785714D02*
X165732380Y-75785714D01*
X165732380Y-76166666D01*
X165780000Y-76261904D01*
X165827619Y-76309523D01*
X165922857Y-76357142D01*
X166065714Y-76357142D01*
X166160952Y-76309523D01*
X166208571Y-76261904D01*
X166256190Y-76166666D01*
X166256190Y-75785714D01*
X165732380Y-76690476D02*
X165732380Y-77309523D01*
X166113333Y-76976190D01*
X166113333Y-77119047D01*
X166160952Y-77214285D01*
X166208571Y-77261904D01*
X166303809Y-77309523D01*
X166541904Y-77309523D01*
X166637142Y-77261904D01*
X166684761Y-77214285D01*
X166732380Y-77119047D01*
X166732380Y-76833333D01*
X166684761Y-76738095D01*
X166637142Y-76690476D01*
X166065714Y-78166666D02*
X166732380Y-78166666D01*
X165684761Y-77928571D02*
X166399047Y-77690476D01*
X166399047Y-78309523D01*
D11*
X212825000Y-70111252D02*
X212825000Y-69588748D01*
X211355000Y-70111252D02*
X211355000Y-69588748D01*
X212825000Y-64508748D02*
X212825000Y-65031252D01*
X211355000Y-64508748D02*
X211355000Y-65031252D01*
X246221248Y-91775000D02*
X246743752Y-91775000D01*
X246221248Y-90305000D02*
X246743752Y-90305000D01*
X262266248Y-92845000D02*
X262788752Y-92845000D01*
X262266248Y-94315000D02*
X262788752Y-94315000D01*
X245988748Y-67445000D02*
X246511252Y-67445000D01*
X245988748Y-68915000D02*
X246511252Y-68915000D01*
X262498748Y-69985000D02*
X263021252Y-69985000D01*
X262498748Y-71455000D02*
X263021252Y-71455000D01*
X196261252Y-112265000D02*
X195738748Y-112265000D01*
X196261252Y-113735000D02*
X195738748Y-113735000D01*
X199265000Y-107738748D02*
X199265000Y-108261252D01*
X200735000Y-107738748D02*
X200735000Y-108261252D01*
X200735000Y-102738748D02*
X200735000Y-103261252D01*
X199265000Y-102738748D02*
X199265000Y-103261252D01*
X200776248Y-98325000D02*
X201298752Y-98325000D01*
X200776248Y-99795000D02*
X201298752Y-99795000D01*
X173122500Y-87454724D02*
X173122500Y-86945276D01*
X172077500Y-87454724D02*
X172077500Y-86945276D01*
X166645000Y-97723737D02*
X166645000Y-96276263D01*
X169355000Y-97723737D02*
X169355000Y-96276263D01*
X200738748Y-97255000D02*
X201261252Y-97255000D01*
X200738748Y-95785000D02*
X201261252Y-95785000D01*
X162645000Y-77723737D02*
X162645000Y-76276263D01*
X165355000Y-77723737D02*
X165355000Y-76276263D01*
%LPC*%
D12*
X242440000Y-111360000D03*
X240840000Y-112030937D03*
D13*
X242440000Y-108860000D03*
X244040000Y-108189063D03*
D12*
X240840000Y-91710937D03*
X242440000Y-91040000D03*
D13*
X244040000Y-87869063D03*
X242440000Y-88540000D03*
D12*
X265300000Y-87230000D03*
X266900000Y-86559063D03*
D13*
X263700000Y-90400937D03*
X265300000Y-89730000D03*
D12*
X270000000Y-64370000D03*
X271600000Y-63699063D03*
D13*
X268400000Y-67540937D03*
X270000000Y-66870000D03*
D14*
X225000000Y-95000000D03*
D15*
X225000000Y-92460000D03*
X225000000Y-89920000D03*
X225000000Y-87380000D03*
X225000000Y-84840000D03*
X225000000Y-82300000D03*
X225000000Y-79760000D03*
X225000000Y-77220000D03*
X225000000Y-74680000D03*
X225000000Y-72140000D03*
D16*
X256410000Y-111360000D03*
D17*
X253870000Y-111360000D03*
X251330000Y-111360000D03*
D16*
X258950000Y-65000000D03*
D17*
X256410000Y-65000000D03*
X253870000Y-65000000D03*
X251330000Y-65000000D03*
X248790000Y-65000000D03*
D14*
X182500000Y-107500000D03*
D15*
X182500000Y-104960000D03*
X182500000Y-102420000D03*
X182500000Y-99880000D03*
X182500000Y-97340000D03*
X182500000Y-94800000D03*
D18*
X165460000Y-117660000D03*
D19*
X168000000Y-101000000D03*
D20*
X165460000Y-101000000D03*
X162920000Y-101000000D03*
D21*
X159000000Y-85650000D03*
D22*
X164000000Y-83000000D03*
X154000000Y-85500000D03*
X164000000Y-88000000D03*
D23*
X208465000Y-61090000D03*
D24*
X208165000Y-64120000D03*
D23*
X203015000Y-61090000D03*
D24*
X203315000Y-64120000D03*
D25*
X196850000Y-60960000D03*
X196850000Y-63500000D03*
D26*
X196850000Y-66040000D03*
D25*
X196850000Y-68580000D03*
X196850000Y-71120000D03*
X196850000Y-73660000D03*
X196850000Y-76200000D03*
D26*
X196850000Y-78740000D03*
D25*
X196850000Y-81280000D03*
X196850000Y-83820000D03*
X196850000Y-86360000D03*
X196850000Y-88900000D03*
D26*
X196850000Y-91440000D03*
D25*
X196850000Y-93980000D03*
X196850000Y-96520000D03*
X196850000Y-99060000D03*
X196850000Y-101600000D03*
D26*
X196850000Y-104140000D03*
D25*
X196850000Y-106680000D03*
X196850000Y-109220000D03*
X214630000Y-109220000D03*
X214630000Y-106680000D03*
D26*
X214630000Y-104140000D03*
D25*
X214630000Y-101600000D03*
X214630000Y-99060000D03*
X214630000Y-96520000D03*
X214630000Y-93980000D03*
D26*
X214630000Y-91440000D03*
D25*
X214630000Y-88900000D03*
X214630000Y-86360000D03*
X214630000Y-83820000D03*
X214630000Y-81280000D03*
D26*
X214630000Y-78740000D03*
D25*
X214630000Y-76200000D03*
X214630000Y-73660000D03*
X214630000Y-71120000D03*
X214630000Y-68580000D03*
D26*
X214630000Y-66040000D03*
D25*
X214630000Y-63500000D03*
X214630000Y-60960000D03*
X203200000Y-108990000D03*
D26*
X205740000Y-108990000D03*
D25*
X208280000Y-108990000D03*
D12*
X265300000Y-108820000D03*
X266900000Y-108149063D03*
D13*
X265300000Y-111320000D03*
X263700000Y-111990937D03*
D27*
X273302944Y-118302944D03*
X276697056Y-121697056D03*
X277400000Y-120000000D03*
X273302944Y-121697056D03*
X275000000Y-122400000D03*
D28*
X275000000Y-120000000D03*
D27*
X276697056Y-118302944D03*
X275000000Y-117600000D03*
X272600000Y-120000000D03*
X142600000Y-54500000D03*
X143302944Y-56197056D03*
X145000000Y-56900000D03*
X145000000Y-52100000D03*
X147400000Y-54500000D03*
D28*
X145000000Y-54500000D03*
D27*
X143302944Y-52802944D03*
X146697056Y-56197056D03*
X146697056Y-52802944D03*
X275000000Y-57400000D03*
X273302944Y-53302944D03*
X275000000Y-52600000D03*
X272600000Y-55000000D03*
X277400000Y-55000000D03*
D28*
X275000000Y-55000000D03*
D27*
X273302944Y-56697056D03*
X276697056Y-56697056D03*
X276697056Y-53302944D03*
X143302944Y-121697056D03*
X145000000Y-122400000D03*
X143302944Y-118302944D03*
X145000000Y-117600000D03*
X147400000Y-120000000D03*
X146697056Y-121697056D03*
X146697056Y-118302944D03*
D28*
X145000000Y-120000000D03*
D27*
X142600000Y-120000000D03*
D12*
X237500000Y-67500000D03*
X235900000Y-68170937D03*
D13*
X237500000Y-65000000D03*
X239100000Y-64329063D03*
D27*
X235000000Y-122400000D03*
X232600000Y-120000000D03*
X233302944Y-118302944D03*
X237400000Y-120000000D03*
X233302944Y-121697056D03*
X235000000Y-117600000D03*
X236697056Y-121697056D03*
D28*
X235000000Y-120000000D03*
D27*
X236697056Y-118302944D03*
X222500000Y-52600000D03*
X224900000Y-55000000D03*
D28*
X222500000Y-55000000D03*
D27*
X224197056Y-56697056D03*
X222500000Y-57400000D03*
X220802944Y-53302944D03*
X224197056Y-53302944D03*
X220100000Y-55000000D03*
X220802944Y-56697056D03*
X222500000Y-122400000D03*
X220802944Y-118302944D03*
X220100000Y-120000000D03*
D28*
X222500000Y-120000000D03*
D27*
X220802944Y-121697056D03*
X224197056Y-121697056D03*
X224197056Y-118302944D03*
X222500000Y-117600000D03*
X224900000Y-120000000D03*
X236697056Y-53302944D03*
X233302944Y-56697056D03*
D28*
X235000000Y-55000000D03*
D27*
X236697056Y-56697056D03*
X237400000Y-55000000D03*
X232600000Y-55000000D03*
X235000000Y-52600000D03*
X233302944Y-53302944D03*
X235000000Y-57400000D03*
D29*
X146000000Y-65000000D03*
D15*
X146000000Y-67540000D03*
X146000000Y-70080000D03*
X146000000Y-72620000D03*
X146000000Y-75160000D03*
D18*
X166540000Y-56340000D03*
D19*
X164000000Y-73000000D03*
D20*
X166540000Y-73000000D03*
X169080000Y-73000000D03*
D30*
X212090000Y-70887500D03*
X212090000Y-68812500D03*
D31*
X212090000Y-63732500D03*
X212090000Y-65807500D03*
D32*
X245445000Y-91040000D03*
X247520000Y-91040000D03*
X261490000Y-93580000D03*
X263565000Y-93580000D03*
X245212500Y-68180000D03*
X247287500Y-68180000D03*
X261722500Y-70720000D03*
X263797500Y-70720000D03*
D33*
X197037500Y-113000000D03*
X194962500Y-113000000D03*
D31*
X200000000Y-106962500D03*
X200000000Y-109037500D03*
X200000000Y-101962500D03*
X200000000Y-104037500D03*
D32*
X200000000Y-99060000D03*
X202075000Y-99060000D03*
D34*
X142000000Y-87000000D03*
D35*
X142000000Y-89540000D03*
X142000000Y-84460000D03*
D36*
X172600000Y-88112500D03*
X172600000Y-86287500D03*
D37*
X168000000Y-98550000D03*
X168000000Y-95450000D03*
D32*
X199962500Y-96520000D03*
X202037500Y-96520000D03*
D37*
X164000000Y-78550000D03*
X164000000Y-75450000D03*
G36*
X279942121Y-50020002D02*
G01*
X279988614Y-50073658D01*
X280000000Y-50126000D01*
X280000000Y-52128000D01*
X279979998Y-52196121D01*
X279926342Y-52242614D01*
X279874000Y-52254000D01*
X278126000Y-52254000D01*
X278057879Y-52233998D01*
X278011386Y-52180342D01*
X278000000Y-52128000D01*
X278000000Y-52018115D01*
X277995525Y-52002876D01*
X277994135Y-52001671D01*
X277986452Y-52000000D01*
X142018115Y-52000000D01*
X142002876Y-52004475D01*
X142001671Y-52005865D01*
X142000000Y-52013548D01*
X142000000Y-52128000D01*
X141979998Y-52196121D01*
X141926342Y-52242614D01*
X141874000Y-52254000D01*
X140126000Y-52254000D01*
X140057879Y-52233998D01*
X140011386Y-52180342D01*
X140000000Y-52128000D01*
X140000000Y-50126000D01*
X140020002Y-50057879D01*
X140073658Y-50011386D01*
X140126000Y-50000000D01*
X279874000Y-50000000D01*
X279942121Y-50020002D01*
G37*
G36*
X142003094Y-51746152D02*
G01*
X142018709Y-51746919D01*
X142031018Y-51748131D01*
X142039329Y-51749364D01*
X142103777Y-51779146D01*
X142141892Y-51839044D01*
X142141574Y-51910040D01*
X142102923Y-51969593D01*
X142038210Y-51998797D01*
X142020838Y-52000000D01*
X142018115Y-52000000D01*
X142002876Y-52004475D01*
X142001671Y-52005865D01*
X142000000Y-52013548D01*
X142000000Y-122981885D01*
X142004475Y-122997124D01*
X142005865Y-122998329D01*
X142013548Y-123000000D01*
X277981885Y-123000000D01*
X277997124Y-122995525D01*
X277998329Y-122994135D01*
X278000000Y-122986452D01*
X278000000Y-52018115D01*
X277995525Y-52002876D01*
X277994135Y-52001671D01*
X277986452Y-52000000D01*
X277979162Y-52000000D01*
X277911041Y-51979998D01*
X277864548Y-51926342D01*
X277854444Y-51856068D01*
X277883938Y-51791488D01*
X277943664Y-51753104D01*
X277960671Y-51749364D01*
X277968982Y-51748131D01*
X277981291Y-51746919D01*
X277996906Y-51746152D01*
X278003088Y-51746000D01*
X279874000Y-51746000D01*
X279942121Y-51766002D01*
X279988614Y-51819658D01*
X280000000Y-51872000D01*
X280000000Y-124874000D01*
X279979998Y-124942121D01*
X279926342Y-124988614D01*
X279874000Y-125000000D01*
X140126000Y-125000000D01*
X140057879Y-124979998D01*
X140011386Y-124926342D01*
X140000000Y-124874000D01*
X140000000Y-51872000D01*
X140020002Y-51803879D01*
X140073658Y-51757386D01*
X140126000Y-51746000D01*
X141996912Y-51746000D01*
X142003094Y-51746152D01*
G37*
M02*
