G04 #@! TF.GenerationSoftware,KiCad,Pcbnew,7.0.7*
G04 #@! TF.CreationDate,2023-12-01T19:11:22+01:00*
G04 #@! TF.ProjectId,AWG,4157472e-6b69-4636-9164-5f7063625858,rev?*
G04 #@! TF.SameCoordinates,Original*
G04 #@! TF.FileFunction,Legend,Bot*
G04 #@! TF.FilePolarity,Positive*
%FSLAX46Y46*%
G04 Gerber Fmt 4.6, Leading zero omitted, Abs format (unit mm)*
G04 Created by KiCad (PCBNEW 7.0.7) date 2023-12-01 19:11:22*
%MOMM*%
%LPD*%
G01*
G04 APERTURE LIST*
G04 Aperture macros list*
%AMRoundRect*
0 Rectangle with rounded corners*
0 $1 Rounding radius*
0 $2 $3 $4 $5 $6 $7 $8 $9 X,Y pos of 4 corners*
0 Add a 4 corners polygon primitive as box body*
4,1,4,$2,$3,$4,$5,$6,$7,$8,$9,$2,$3,0*
0 Add four circle primitives for the rounded corners*
1,1,$1+$1,$2,$3*
1,1,$1+$1,$4,$5*
1,1,$1+$1,$6,$7*
1,1,$1+$1,$8,$9*
0 Add four rect primitives between the rounded corners*
20,1,$1+$1,$2,$3,$4,$5,0*
20,1,$1+$1,$4,$5,$6,$7,0*
20,1,$1+$1,$6,$7,$8,$9,0*
20,1,$1+$1,$8,$9,$2,$3,0*%
G04 Aperture macros list end*
%ADD10C,0.150000*%
%ADD11C,0.120000*%
%ADD12R,1.600000X1.600000*%
%ADD13C,1.600000*%
%ADD14RoundRect,0.249999X0.845001X-0.620001X0.845001X0.620001X-0.845001X0.620001X-0.845001X-0.620001X0*%
%ADD15O,2.190000X1.740000*%
%ADD16RoundRect,0.249999X0.620001X0.845001X-0.620001X0.845001X-0.620001X-0.845001X0.620001X-0.845001X0*%
%ADD17O,1.740000X2.190000*%
%ADD18O,3.500000X3.500000*%
%ADD19R,1.905000X2.000000*%
%ADD20O,1.905000X2.000000*%
%ADD21C,4.000000*%
%ADD22C,2.340000*%
%ADD23O,1.800000X1.800000*%
%ADD24O,1.500000X1.500000*%
%ADD25O,1.700000X1.700000*%
%ADD26R,1.700000X1.700000*%
%ADD27C,0.800000*%
%ADD28C,6.400000*%
%ADD29RoundRect,0.249999X-0.845001X0.620001X-0.845001X-0.620001X0.845001X-0.620001X0.845001X0.620001X0*%
%ADD30RoundRect,0.250000X0.475000X-0.337500X0.475000X0.337500X-0.475000X0.337500X-0.475000X-0.337500X0*%
%ADD31RoundRect,0.250000X-0.475000X0.337500X-0.475000X-0.337500X0.475000X-0.337500X0.475000X0.337500X0*%
%ADD32RoundRect,0.250000X-0.337500X-0.475000X0.337500X-0.475000X0.337500X0.475000X-0.337500X0.475000X0*%
%ADD33RoundRect,0.250000X0.337500X0.475000X-0.337500X0.475000X-0.337500X-0.475000X0.337500X-0.475000X0*%
%ADD34R,4.000000X1.400000*%
%ADD35R,4.000000X1.500000*%
%ADD36RoundRect,0.237500X0.237500X-0.250000X0.237500X0.250000X-0.237500X0.250000X-0.237500X-0.250000X0*%
%ADD37RoundRect,0.250000X1.075000X-0.400000X1.075000X0.400000X-1.075000X0.400000X-1.075000X-0.400000X0*%
G04 APERTURE END LIST*
D10*
X214129580Y-69683333D02*
X214177200Y-69635714D01*
X214177200Y-69635714D02*
X214224819Y-69492857D01*
X214224819Y-69492857D02*
X214224819Y-69397619D01*
X214224819Y-69397619D02*
X214177200Y-69254762D01*
X214177200Y-69254762D02*
X214081961Y-69159524D01*
X214081961Y-69159524D02*
X213986723Y-69111905D01*
X213986723Y-69111905D02*
X213796247Y-69064286D01*
X213796247Y-69064286D02*
X213653390Y-69064286D01*
X213653390Y-69064286D02*
X213462914Y-69111905D01*
X213462914Y-69111905D02*
X213367676Y-69159524D01*
X213367676Y-69159524D02*
X213272438Y-69254762D01*
X213272438Y-69254762D02*
X213224819Y-69397619D01*
X213224819Y-69397619D02*
X213224819Y-69492857D01*
X213224819Y-69492857D02*
X213272438Y-69635714D01*
X213272438Y-69635714D02*
X213320057Y-69683333D01*
X213558152Y-70540476D02*
X214224819Y-70540476D01*
X213177200Y-70302381D02*
X213891485Y-70064286D01*
X213891485Y-70064286D02*
X213891485Y-70683333D01*
X210769580Y-64603333D02*
X210817200Y-64555714D01*
X210817200Y-64555714D02*
X210864819Y-64412857D01*
X210864819Y-64412857D02*
X210864819Y-64317619D01*
X210864819Y-64317619D02*
X210817200Y-64174762D01*
X210817200Y-64174762D02*
X210721961Y-64079524D01*
X210721961Y-64079524D02*
X210626723Y-64031905D01*
X210626723Y-64031905D02*
X210436247Y-63984286D01*
X210436247Y-63984286D02*
X210293390Y-63984286D01*
X210293390Y-63984286D02*
X210102914Y-64031905D01*
X210102914Y-64031905D02*
X210007676Y-64079524D01*
X210007676Y-64079524D02*
X209912438Y-64174762D01*
X209912438Y-64174762D02*
X209864819Y-64317619D01*
X209864819Y-64317619D02*
X209864819Y-64412857D01*
X209864819Y-64412857D02*
X209912438Y-64555714D01*
X209912438Y-64555714D02*
X209960057Y-64603333D01*
X209864819Y-65508095D02*
X209864819Y-65031905D01*
X209864819Y-65031905D02*
X210341009Y-64984286D01*
X210341009Y-64984286D02*
X210293390Y-65031905D01*
X210293390Y-65031905D02*
X210245771Y-65127143D01*
X210245771Y-65127143D02*
X210245771Y-65365238D01*
X210245771Y-65365238D02*
X210293390Y-65460476D01*
X210293390Y-65460476D02*
X210341009Y-65508095D01*
X210341009Y-65508095D02*
X210436247Y-65555714D01*
X210436247Y-65555714D02*
X210674342Y-65555714D01*
X210674342Y-65555714D02*
X210769580Y-65508095D01*
X210769580Y-65508095D02*
X210817200Y-65460476D01*
X210817200Y-65460476D02*
X210864819Y-65365238D01*
X210864819Y-65365238D02*
X210864819Y-65127143D01*
X210864819Y-65127143D02*
X210817200Y-65031905D01*
X210817200Y-65031905D02*
X210769580Y-64984286D01*
X248077738Y-93079580D02*
X248125357Y-93127200D01*
X248125357Y-93127200D02*
X248268214Y-93174819D01*
X248268214Y-93174819D02*
X248363452Y-93174819D01*
X248363452Y-93174819D02*
X248506309Y-93127200D01*
X248506309Y-93127200D02*
X248601547Y-93031961D01*
X248601547Y-93031961D02*
X248649166Y-92936723D01*
X248649166Y-92936723D02*
X248696785Y-92746247D01*
X248696785Y-92746247D02*
X248696785Y-92603390D01*
X248696785Y-92603390D02*
X248649166Y-92412914D01*
X248649166Y-92412914D02*
X248601547Y-92317676D01*
X248601547Y-92317676D02*
X248506309Y-92222438D01*
X248506309Y-92222438D02*
X248363452Y-92174819D01*
X248363452Y-92174819D02*
X248268214Y-92174819D01*
X248268214Y-92174819D02*
X248125357Y-92222438D01*
X248125357Y-92222438D02*
X248077738Y-92270057D01*
X247125357Y-93174819D02*
X247696785Y-93174819D01*
X247411071Y-93174819D02*
X247411071Y-92174819D01*
X247411071Y-92174819D02*
X247506309Y-92317676D01*
X247506309Y-92317676D02*
X247601547Y-92412914D01*
X247601547Y-92412914D02*
X247696785Y-92460533D01*
X246506309Y-92174819D02*
X246411071Y-92174819D01*
X246411071Y-92174819D02*
X246315833Y-92222438D01*
X246315833Y-92222438D02*
X246268214Y-92270057D01*
X246268214Y-92270057D02*
X246220595Y-92365295D01*
X246220595Y-92365295D02*
X246172976Y-92555771D01*
X246172976Y-92555771D02*
X246172976Y-92793866D01*
X246172976Y-92793866D02*
X246220595Y-92984342D01*
X246220595Y-92984342D02*
X246268214Y-93079580D01*
X246268214Y-93079580D02*
X246315833Y-93127200D01*
X246315833Y-93127200D02*
X246411071Y-93174819D01*
X246411071Y-93174819D02*
X246506309Y-93174819D01*
X246506309Y-93174819D02*
X246601547Y-93127200D01*
X246601547Y-93127200D02*
X246649166Y-93079580D01*
X246649166Y-93079580D02*
X246696785Y-92984342D01*
X246696785Y-92984342D02*
X246744404Y-92793866D01*
X246744404Y-92793866D02*
X246744404Y-92555771D01*
X246744404Y-92555771D02*
X246696785Y-92365295D01*
X246696785Y-92365295D02*
X246649166Y-92270057D01*
X246649166Y-92270057D02*
X246601547Y-92222438D01*
X246601547Y-92222438D02*
X246506309Y-92174819D01*
X245553928Y-92174819D02*
X245458690Y-92174819D01*
X245458690Y-92174819D02*
X245363452Y-92222438D01*
X245363452Y-92222438D02*
X245315833Y-92270057D01*
X245315833Y-92270057D02*
X245268214Y-92365295D01*
X245268214Y-92365295D02*
X245220595Y-92555771D01*
X245220595Y-92555771D02*
X245220595Y-92793866D01*
X245220595Y-92793866D02*
X245268214Y-92984342D01*
X245268214Y-92984342D02*
X245315833Y-93079580D01*
X245315833Y-93079580D02*
X245363452Y-93127200D01*
X245363452Y-93127200D02*
X245458690Y-93174819D01*
X245458690Y-93174819D02*
X245553928Y-93174819D01*
X245553928Y-93174819D02*
X245649166Y-93127200D01*
X245649166Y-93127200D02*
X245696785Y-93079580D01*
X245696785Y-93079580D02*
X245744404Y-92984342D01*
X245744404Y-92984342D02*
X245792023Y-92793866D01*
X245792023Y-92793866D02*
X245792023Y-92555771D01*
X245792023Y-92555771D02*
X245744404Y-92365295D01*
X245744404Y-92365295D02*
X245696785Y-92270057D01*
X245696785Y-92270057D02*
X245649166Y-92222438D01*
X245649166Y-92222438D02*
X245553928Y-92174819D01*
X244887261Y-92174819D02*
X244268214Y-92174819D01*
X244268214Y-92174819D02*
X244601547Y-92555771D01*
X244601547Y-92555771D02*
X244458690Y-92555771D01*
X244458690Y-92555771D02*
X244363452Y-92603390D01*
X244363452Y-92603390D02*
X244315833Y-92651009D01*
X244315833Y-92651009D02*
X244268214Y-92746247D01*
X244268214Y-92746247D02*
X244268214Y-92984342D01*
X244268214Y-92984342D02*
X244315833Y-93079580D01*
X244315833Y-93079580D02*
X244363452Y-93127200D01*
X244363452Y-93127200D02*
X244458690Y-93174819D01*
X244458690Y-93174819D02*
X244744404Y-93174819D01*
X244744404Y-93174819D02*
X244839642Y-93127200D01*
X244839642Y-93127200D02*
X244887261Y-93079580D01*
X264122738Y-95619580D02*
X264170357Y-95667200D01*
X264170357Y-95667200D02*
X264313214Y-95714819D01*
X264313214Y-95714819D02*
X264408452Y-95714819D01*
X264408452Y-95714819D02*
X264551309Y-95667200D01*
X264551309Y-95667200D02*
X264646547Y-95571961D01*
X264646547Y-95571961D02*
X264694166Y-95476723D01*
X264694166Y-95476723D02*
X264741785Y-95286247D01*
X264741785Y-95286247D02*
X264741785Y-95143390D01*
X264741785Y-95143390D02*
X264694166Y-94952914D01*
X264694166Y-94952914D02*
X264646547Y-94857676D01*
X264646547Y-94857676D02*
X264551309Y-94762438D01*
X264551309Y-94762438D02*
X264408452Y-94714819D01*
X264408452Y-94714819D02*
X264313214Y-94714819D01*
X264313214Y-94714819D02*
X264170357Y-94762438D01*
X264170357Y-94762438D02*
X264122738Y-94810057D01*
X263170357Y-95714819D02*
X263741785Y-95714819D01*
X263456071Y-95714819D02*
X263456071Y-94714819D01*
X263456071Y-94714819D02*
X263551309Y-94857676D01*
X263551309Y-94857676D02*
X263646547Y-94952914D01*
X263646547Y-94952914D02*
X263741785Y-95000533D01*
X262551309Y-94714819D02*
X262456071Y-94714819D01*
X262456071Y-94714819D02*
X262360833Y-94762438D01*
X262360833Y-94762438D02*
X262313214Y-94810057D01*
X262313214Y-94810057D02*
X262265595Y-94905295D01*
X262265595Y-94905295D02*
X262217976Y-95095771D01*
X262217976Y-95095771D02*
X262217976Y-95333866D01*
X262217976Y-95333866D02*
X262265595Y-95524342D01*
X262265595Y-95524342D02*
X262313214Y-95619580D01*
X262313214Y-95619580D02*
X262360833Y-95667200D01*
X262360833Y-95667200D02*
X262456071Y-95714819D01*
X262456071Y-95714819D02*
X262551309Y-95714819D01*
X262551309Y-95714819D02*
X262646547Y-95667200D01*
X262646547Y-95667200D02*
X262694166Y-95619580D01*
X262694166Y-95619580D02*
X262741785Y-95524342D01*
X262741785Y-95524342D02*
X262789404Y-95333866D01*
X262789404Y-95333866D02*
X262789404Y-95095771D01*
X262789404Y-95095771D02*
X262741785Y-94905295D01*
X262741785Y-94905295D02*
X262694166Y-94810057D01*
X262694166Y-94810057D02*
X262646547Y-94762438D01*
X262646547Y-94762438D02*
X262551309Y-94714819D01*
X261598928Y-94714819D02*
X261503690Y-94714819D01*
X261503690Y-94714819D02*
X261408452Y-94762438D01*
X261408452Y-94762438D02*
X261360833Y-94810057D01*
X261360833Y-94810057D02*
X261313214Y-94905295D01*
X261313214Y-94905295D02*
X261265595Y-95095771D01*
X261265595Y-95095771D02*
X261265595Y-95333866D01*
X261265595Y-95333866D02*
X261313214Y-95524342D01*
X261313214Y-95524342D02*
X261360833Y-95619580D01*
X261360833Y-95619580D02*
X261408452Y-95667200D01*
X261408452Y-95667200D02*
X261503690Y-95714819D01*
X261503690Y-95714819D02*
X261598928Y-95714819D01*
X261598928Y-95714819D02*
X261694166Y-95667200D01*
X261694166Y-95667200D02*
X261741785Y-95619580D01*
X261741785Y-95619580D02*
X261789404Y-95524342D01*
X261789404Y-95524342D02*
X261837023Y-95333866D01*
X261837023Y-95333866D02*
X261837023Y-95095771D01*
X261837023Y-95095771D02*
X261789404Y-94905295D01*
X261789404Y-94905295D02*
X261741785Y-94810057D01*
X261741785Y-94810057D02*
X261694166Y-94762438D01*
X261694166Y-94762438D02*
X261598928Y-94714819D01*
X260408452Y-95048152D02*
X260408452Y-95714819D01*
X260646547Y-94667200D02*
X260884642Y-95381485D01*
X260884642Y-95381485D02*
X260265595Y-95381485D01*
X247845238Y-70219580D02*
X247892857Y-70267200D01*
X247892857Y-70267200D02*
X248035714Y-70314819D01*
X248035714Y-70314819D02*
X248130952Y-70314819D01*
X248130952Y-70314819D02*
X248273809Y-70267200D01*
X248273809Y-70267200D02*
X248369047Y-70171961D01*
X248369047Y-70171961D02*
X248416666Y-70076723D01*
X248416666Y-70076723D02*
X248464285Y-69886247D01*
X248464285Y-69886247D02*
X248464285Y-69743390D01*
X248464285Y-69743390D02*
X248416666Y-69552914D01*
X248416666Y-69552914D02*
X248369047Y-69457676D01*
X248369047Y-69457676D02*
X248273809Y-69362438D01*
X248273809Y-69362438D02*
X248130952Y-69314819D01*
X248130952Y-69314819D02*
X248035714Y-69314819D01*
X248035714Y-69314819D02*
X247892857Y-69362438D01*
X247892857Y-69362438D02*
X247845238Y-69410057D01*
X246892857Y-70314819D02*
X247464285Y-70314819D01*
X247178571Y-70314819D02*
X247178571Y-69314819D01*
X247178571Y-69314819D02*
X247273809Y-69457676D01*
X247273809Y-69457676D02*
X247369047Y-69552914D01*
X247369047Y-69552914D02*
X247464285Y-69600533D01*
X246273809Y-69314819D02*
X246178571Y-69314819D01*
X246178571Y-69314819D02*
X246083333Y-69362438D01*
X246083333Y-69362438D02*
X246035714Y-69410057D01*
X246035714Y-69410057D02*
X245988095Y-69505295D01*
X245988095Y-69505295D02*
X245940476Y-69695771D01*
X245940476Y-69695771D02*
X245940476Y-69933866D01*
X245940476Y-69933866D02*
X245988095Y-70124342D01*
X245988095Y-70124342D02*
X246035714Y-70219580D01*
X246035714Y-70219580D02*
X246083333Y-70267200D01*
X246083333Y-70267200D02*
X246178571Y-70314819D01*
X246178571Y-70314819D02*
X246273809Y-70314819D01*
X246273809Y-70314819D02*
X246369047Y-70267200D01*
X246369047Y-70267200D02*
X246416666Y-70219580D01*
X246416666Y-70219580D02*
X246464285Y-70124342D01*
X246464285Y-70124342D02*
X246511904Y-69933866D01*
X246511904Y-69933866D02*
X246511904Y-69695771D01*
X246511904Y-69695771D02*
X246464285Y-69505295D01*
X246464285Y-69505295D02*
X246416666Y-69410057D01*
X246416666Y-69410057D02*
X246369047Y-69362438D01*
X246369047Y-69362438D02*
X246273809Y-69314819D01*
X245321428Y-69314819D02*
X245226190Y-69314819D01*
X245226190Y-69314819D02*
X245130952Y-69362438D01*
X245130952Y-69362438D02*
X245083333Y-69410057D01*
X245083333Y-69410057D02*
X245035714Y-69505295D01*
X245035714Y-69505295D02*
X244988095Y-69695771D01*
X244988095Y-69695771D02*
X244988095Y-69933866D01*
X244988095Y-69933866D02*
X245035714Y-70124342D01*
X245035714Y-70124342D02*
X245083333Y-70219580D01*
X245083333Y-70219580D02*
X245130952Y-70267200D01*
X245130952Y-70267200D02*
X245226190Y-70314819D01*
X245226190Y-70314819D02*
X245321428Y-70314819D01*
X245321428Y-70314819D02*
X245416666Y-70267200D01*
X245416666Y-70267200D02*
X245464285Y-70219580D01*
X245464285Y-70219580D02*
X245511904Y-70124342D01*
X245511904Y-70124342D02*
X245559523Y-69933866D01*
X245559523Y-69933866D02*
X245559523Y-69695771D01*
X245559523Y-69695771D02*
X245511904Y-69505295D01*
X245511904Y-69505295D02*
X245464285Y-69410057D01*
X245464285Y-69410057D02*
X245416666Y-69362438D01*
X245416666Y-69362438D02*
X245321428Y-69314819D01*
X244654761Y-69314819D02*
X243988095Y-69314819D01*
X243988095Y-69314819D02*
X244416666Y-70314819D01*
X264355238Y-72759580D02*
X264402857Y-72807200D01*
X264402857Y-72807200D02*
X264545714Y-72854819D01*
X264545714Y-72854819D02*
X264640952Y-72854819D01*
X264640952Y-72854819D02*
X264783809Y-72807200D01*
X264783809Y-72807200D02*
X264879047Y-72711961D01*
X264879047Y-72711961D02*
X264926666Y-72616723D01*
X264926666Y-72616723D02*
X264974285Y-72426247D01*
X264974285Y-72426247D02*
X264974285Y-72283390D01*
X264974285Y-72283390D02*
X264926666Y-72092914D01*
X264926666Y-72092914D02*
X264879047Y-71997676D01*
X264879047Y-71997676D02*
X264783809Y-71902438D01*
X264783809Y-71902438D02*
X264640952Y-71854819D01*
X264640952Y-71854819D02*
X264545714Y-71854819D01*
X264545714Y-71854819D02*
X264402857Y-71902438D01*
X264402857Y-71902438D02*
X264355238Y-71950057D01*
X263402857Y-72854819D02*
X263974285Y-72854819D01*
X263688571Y-72854819D02*
X263688571Y-71854819D01*
X263688571Y-71854819D02*
X263783809Y-71997676D01*
X263783809Y-71997676D02*
X263879047Y-72092914D01*
X263879047Y-72092914D02*
X263974285Y-72140533D01*
X262783809Y-71854819D02*
X262688571Y-71854819D01*
X262688571Y-71854819D02*
X262593333Y-71902438D01*
X262593333Y-71902438D02*
X262545714Y-71950057D01*
X262545714Y-71950057D02*
X262498095Y-72045295D01*
X262498095Y-72045295D02*
X262450476Y-72235771D01*
X262450476Y-72235771D02*
X262450476Y-72473866D01*
X262450476Y-72473866D02*
X262498095Y-72664342D01*
X262498095Y-72664342D02*
X262545714Y-72759580D01*
X262545714Y-72759580D02*
X262593333Y-72807200D01*
X262593333Y-72807200D02*
X262688571Y-72854819D01*
X262688571Y-72854819D02*
X262783809Y-72854819D01*
X262783809Y-72854819D02*
X262879047Y-72807200D01*
X262879047Y-72807200D02*
X262926666Y-72759580D01*
X262926666Y-72759580D02*
X262974285Y-72664342D01*
X262974285Y-72664342D02*
X263021904Y-72473866D01*
X263021904Y-72473866D02*
X263021904Y-72235771D01*
X263021904Y-72235771D02*
X262974285Y-72045295D01*
X262974285Y-72045295D02*
X262926666Y-71950057D01*
X262926666Y-71950057D02*
X262879047Y-71902438D01*
X262879047Y-71902438D02*
X262783809Y-71854819D01*
X261831428Y-71854819D02*
X261736190Y-71854819D01*
X261736190Y-71854819D02*
X261640952Y-71902438D01*
X261640952Y-71902438D02*
X261593333Y-71950057D01*
X261593333Y-71950057D02*
X261545714Y-72045295D01*
X261545714Y-72045295D02*
X261498095Y-72235771D01*
X261498095Y-72235771D02*
X261498095Y-72473866D01*
X261498095Y-72473866D02*
X261545714Y-72664342D01*
X261545714Y-72664342D02*
X261593333Y-72759580D01*
X261593333Y-72759580D02*
X261640952Y-72807200D01*
X261640952Y-72807200D02*
X261736190Y-72854819D01*
X261736190Y-72854819D02*
X261831428Y-72854819D01*
X261831428Y-72854819D02*
X261926666Y-72807200D01*
X261926666Y-72807200D02*
X261974285Y-72759580D01*
X261974285Y-72759580D02*
X262021904Y-72664342D01*
X262021904Y-72664342D02*
X262069523Y-72473866D01*
X262069523Y-72473866D02*
X262069523Y-72235771D01*
X262069523Y-72235771D02*
X262021904Y-72045295D01*
X262021904Y-72045295D02*
X261974285Y-71950057D01*
X261974285Y-71950057D02*
X261926666Y-71902438D01*
X261926666Y-71902438D02*
X261831428Y-71854819D01*
X260926666Y-72283390D02*
X261021904Y-72235771D01*
X261021904Y-72235771D02*
X261069523Y-72188152D01*
X261069523Y-72188152D02*
X261117142Y-72092914D01*
X261117142Y-72092914D02*
X261117142Y-72045295D01*
X261117142Y-72045295D02*
X261069523Y-71950057D01*
X261069523Y-71950057D02*
X261021904Y-71902438D01*
X261021904Y-71902438D02*
X260926666Y-71854819D01*
X260926666Y-71854819D02*
X260736190Y-71854819D01*
X260736190Y-71854819D02*
X260640952Y-71902438D01*
X260640952Y-71902438D02*
X260593333Y-71950057D01*
X260593333Y-71950057D02*
X260545714Y-72045295D01*
X260545714Y-72045295D02*
X260545714Y-72092914D01*
X260545714Y-72092914D02*
X260593333Y-72188152D01*
X260593333Y-72188152D02*
X260640952Y-72235771D01*
X260640952Y-72235771D02*
X260736190Y-72283390D01*
X260736190Y-72283390D02*
X260926666Y-72283390D01*
X260926666Y-72283390D02*
X261021904Y-72331009D01*
X261021904Y-72331009D02*
X261069523Y-72378628D01*
X261069523Y-72378628D02*
X261117142Y-72473866D01*
X261117142Y-72473866D02*
X261117142Y-72664342D01*
X261117142Y-72664342D02*
X261069523Y-72759580D01*
X261069523Y-72759580D02*
X261021904Y-72807200D01*
X261021904Y-72807200D02*
X260926666Y-72854819D01*
X260926666Y-72854819D02*
X260736190Y-72854819D01*
X260736190Y-72854819D02*
X260640952Y-72807200D01*
X260640952Y-72807200D02*
X260593333Y-72759580D01*
X260593333Y-72759580D02*
X260545714Y-72664342D01*
X260545714Y-72664342D02*
X260545714Y-72473866D01*
X260545714Y-72473866D02*
X260593333Y-72378628D01*
X260593333Y-72378628D02*
X260640952Y-72331009D01*
X260640952Y-72331009D02*
X260736190Y-72283390D01*
X197595238Y-111679580D02*
X197642857Y-111727200D01*
X197642857Y-111727200D02*
X197785714Y-111774819D01*
X197785714Y-111774819D02*
X197880952Y-111774819D01*
X197880952Y-111774819D02*
X198023809Y-111727200D01*
X198023809Y-111727200D02*
X198119047Y-111631961D01*
X198119047Y-111631961D02*
X198166666Y-111536723D01*
X198166666Y-111536723D02*
X198214285Y-111346247D01*
X198214285Y-111346247D02*
X198214285Y-111203390D01*
X198214285Y-111203390D02*
X198166666Y-111012914D01*
X198166666Y-111012914D02*
X198119047Y-110917676D01*
X198119047Y-110917676D02*
X198023809Y-110822438D01*
X198023809Y-110822438D02*
X197880952Y-110774819D01*
X197880952Y-110774819D02*
X197785714Y-110774819D01*
X197785714Y-110774819D02*
X197642857Y-110822438D01*
X197642857Y-110822438D02*
X197595238Y-110870057D01*
X196642857Y-111774819D02*
X197214285Y-111774819D01*
X196928571Y-111774819D02*
X196928571Y-110774819D01*
X196928571Y-110774819D02*
X197023809Y-110917676D01*
X197023809Y-110917676D02*
X197119047Y-111012914D01*
X197119047Y-111012914D02*
X197214285Y-111060533D01*
X196023809Y-110774819D02*
X195928571Y-110774819D01*
X195928571Y-110774819D02*
X195833333Y-110822438D01*
X195833333Y-110822438D02*
X195785714Y-110870057D01*
X195785714Y-110870057D02*
X195738095Y-110965295D01*
X195738095Y-110965295D02*
X195690476Y-111155771D01*
X195690476Y-111155771D02*
X195690476Y-111393866D01*
X195690476Y-111393866D02*
X195738095Y-111584342D01*
X195738095Y-111584342D02*
X195785714Y-111679580D01*
X195785714Y-111679580D02*
X195833333Y-111727200D01*
X195833333Y-111727200D02*
X195928571Y-111774819D01*
X195928571Y-111774819D02*
X196023809Y-111774819D01*
X196023809Y-111774819D02*
X196119047Y-111727200D01*
X196119047Y-111727200D02*
X196166666Y-111679580D01*
X196166666Y-111679580D02*
X196214285Y-111584342D01*
X196214285Y-111584342D02*
X196261904Y-111393866D01*
X196261904Y-111393866D02*
X196261904Y-111155771D01*
X196261904Y-111155771D02*
X196214285Y-110965295D01*
X196214285Y-110965295D02*
X196166666Y-110870057D01*
X196166666Y-110870057D02*
X196119047Y-110822438D01*
X196119047Y-110822438D02*
X196023809Y-110774819D01*
X194738095Y-111774819D02*
X195309523Y-111774819D01*
X195023809Y-111774819D02*
X195023809Y-110774819D01*
X195023809Y-110774819D02*
X195119047Y-110917676D01*
X195119047Y-110917676D02*
X195214285Y-111012914D01*
X195214285Y-111012914D02*
X195309523Y-111060533D01*
X193785714Y-111774819D02*
X194357142Y-111774819D01*
X194071428Y-111774819D02*
X194071428Y-110774819D01*
X194071428Y-110774819D02*
X194166666Y-110917676D01*
X194166666Y-110917676D02*
X194261904Y-111012914D01*
X194261904Y-111012914D02*
X194357142Y-111060533D01*
X205395238Y-107159580D02*
X205442857Y-107207200D01*
X205442857Y-107207200D02*
X205585714Y-107254819D01*
X205585714Y-107254819D02*
X205680952Y-107254819D01*
X205680952Y-107254819D02*
X205823809Y-107207200D01*
X205823809Y-107207200D02*
X205919047Y-107111961D01*
X205919047Y-107111961D02*
X205966666Y-107016723D01*
X205966666Y-107016723D02*
X206014285Y-106826247D01*
X206014285Y-106826247D02*
X206014285Y-106683390D01*
X206014285Y-106683390D02*
X205966666Y-106492914D01*
X205966666Y-106492914D02*
X205919047Y-106397676D01*
X205919047Y-106397676D02*
X205823809Y-106302438D01*
X205823809Y-106302438D02*
X205680952Y-106254819D01*
X205680952Y-106254819D02*
X205585714Y-106254819D01*
X205585714Y-106254819D02*
X205442857Y-106302438D01*
X205442857Y-106302438D02*
X205395238Y-106350057D01*
X204442857Y-107254819D02*
X205014285Y-107254819D01*
X204728571Y-107254819D02*
X204728571Y-106254819D01*
X204728571Y-106254819D02*
X204823809Y-106397676D01*
X204823809Y-106397676D02*
X204919047Y-106492914D01*
X204919047Y-106492914D02*
X205014285Y-106540533D01*
X203823809Y-106254819D02*
X203728571Y-106254819D01*
X203728571Y-106254819D02*
X203633333Y-106302438D01*
X203633333Y-106302438D02*
X203585714Y-106350057D01*
X203585714Y-106350057D02*
X203538095Y-106445295D01*
X203538095Y-106445295D02*
X203490476Y-106635771D01*
X203490476Y-106635771D02*
X203490476Y-106873866D01*
X203490476Y-106873866D02*
X203538095Y-107064342D01*
X203538095Y-107064342D02*
X203585714Y-107159580D01*
X203585714Y-107159580D02*
X203633333Y-107207200D01*
X203633333Y-107207200D02*
X203728571Y-107254819D01*
X203728571Y-107254819D02*
X203823809Y-107254819D01*
X203823809Y-107254819D02*
X203919047Y-107207200D01*
X203919047Y-107207200D02*
X203966666Y-107159580D01*
X203966666Y-107159580D02*
X204014285Y-107064342D01*
X204014285Y-107064342D02*
X204061904Y-106873866D01*
X204061904Y-106873866D02*
X204061904Y-106635771D01*
X204061904Y-106635771D02*
X204014285Y-106445295D01*
X204014285Y-106445295D02*
X203966666Y-106350057D01*
X203966666Y-106350057D02*
X203919047Y-106302438D01*
X203919047Y-106302438D02*
X203823809Y-106254819D01*
X202538095Y-107254819D02*
X203109523Y-107254819D01*
X202823809Y-107254819D02*
X202823809Y-106254819D01*
X202823809Y-106254819D02*
X202919047Y-106397676D01*
X202919047Y-106397676D02*
X203014285Y-106492914D01*
X203014285Y-106492914D02*
X203109523Y-106540533D01*
X202157142Y-106350057D02*
X202109523Y-106302438D01*
X202109523Y-106302438D02*
X202014285Y-106254819D01*
X202014285Y-106254819D02*
X201776190Y-106254819D01*
X201776190Y-106254819D02*
X201680952Y-106302438D01*
X201680952Y-106302438D02*
X201633333Y-106350057D01*
X201633333Y-106350057D02*
X201585714Y-106445295D01*
X201585714Y-106445295D02*
X201585714Y-106540533D01*
X201585714Y-106540533D02*
X201633333Y-106683390D01*
X201633333Y-106683390D02*
X202204761Y-107254819D01*
X202204761Y-107254819D02*
X201585714Y-107254819D01*
X205395238Y-103159580D02*
X205442857Y-103207200D01*
X205442857Y-103207200D02*
X205585714Y-103254819D01*
X205585714Y-103254819D02*
X205680952Y-103254819D01*
X205680952Y-103254819D02*
X205823809Y-103207200D01*
X205823809Y-103207200D02*
X205919047Y-103111961D01*
X205919047Y-103111961D02*
X205966666Y-103016723D01*
X205966666Y-103016723D02*
X206014285Y-102826247D01*
X206014285Y-102826247D02*
X206014285Y-102683390D01*
X206014285Y-102683390D02*
X205966666Y-102492914D01*
X205966666Y-102492914D02*
X205919047Y-102397676D01*
X205919047Y-102397676D02*
X205823809Y-102302438D01*
X205823809Y-102302438D02*
X205680952Y-102254819D01*
X205680952Y-102254819D02*
X205585714Y-102254819D01*
X205585714Y-102254819D02*
X205442857Y-102302438D01*
X205442857Y-102302438D02*
X205395238Y-102350057D01*
X204442857Y-103254819D02*
X205014285Y-103254819D01*
X204728571Y-103254819D02*
X204728571Y-102254819D01*
X204728571Y-102254819D02*
X204823809Y-102397676D01*
X204823809Y-102397676D02*
X204919047Y-102492914D01*
X204919047Y-102492914D02*
X205014285Y-102540533D01*
X203823809Y-102254819D02*
X203728571Y-102254819D01*
X203728571Y-102254819D02*
X203633333Y-102302438D01*
X203633333Y-102302438D02*
X203585714Y-102350057D01*
X203585714Y-102350057D02*
X203538095Y-102445295D01*
X203538095Y-102445295D02*
X203490476Y-102635771D01*
X203490476Y-102635771D02*
X203490476Y-102873866D01*
X203490476Y-102873866D02*
X203538095Y-103064342D01*
X203538095Y-103064342D02*
X203585714Y-103159580D01*
X203585714Y-103159580D02*
X203633333Y-103207200D01*
X203633333Y-103207200D02*
X203728571Y-103254819D01*
X203728571Y-103254819D02*
X203823809Y-103254819D01*
X203823809Y-103254819D02*
X203919047Y-103207200D01*
X203919047Y-103207200D02*
X203966666Y-103159580D01*
X203966666Y-103159580D02*
X204014285Y-103064342D01*
X204014285Y-103064342D02*
X204061904Y-102873866D01*
X204061904Y-102873866D02*
X204061904Y-102635771D01*
X204061904Y-102635771D02*
X204014285Y-102445295D01*
X204014285Y-102445295D02*
X203966666Y-102350057D01*
X203966666Y-102350057D02*
X203919047Y-102302438D01*
X203919047Y-102302438D02*
X203823809Y-102254819D01*
X202538095Y-103254819D02*
X203109523Y-103254819D01*
X202823809Y-103254819D02*
X202823809Y-102254819D01*
X202823809Y-102254819D02*
X202919047Y-102397676D01*
X202919047Y-102397676D02*
X203014285Y-102492914D01*
X203014285Y-102492914D02*
X203109523Y-102540533D01*
X202204761Y-102254819D02*
X201585714Y-102254819D01*
X201585714Y-102254819D02*
X201919047Y-102635771D01*
X201919047Y-102635771D02*
X201776190Y-102635771D01*
X201776190Y-102635771D02*
X201680952Y-102683390D01*
X201680952Y-102683390D02*
X201633333Y-102731009D01*
X201633333Y-102731009D02*
X201585714Y-102826247D01*
X201585714Y-102826247D02*
X201585714Y-103064342D01*
X201585714Y-103064342D02*
X201633333Y-103159580D01*
X201633333Y-103159580D02*
X201680952Y-103207200D01*
X201680952Y-103207200D02*
X201776190Y-103254819D01*
X201776190Y-103254819D02*
X202061904Y-103254819D01*
X202061904Y-103254819D02*
X202157142Y-103207200D01*
X202157142Y-103207200D02*
X202204761Y-103159580D01*
X207595238Y-99359580D02*
X207642857Y-99407200D01*
X207642857Y-99407200D02*
X207785714Y-99454819D01*
X207785714Y-99454819D02*
X207880952Y-99454819D01*
X207880952Y-99454819D02*
X208023809Y-99407200D01*
X208023809Y-99407200D02*
X208119047Y-99311961D01*
X208119047Y-99311961D02*
X208166666Y-99216723D01*
X208166666Y-99216723D02*
X208214285Y-99026247D01*
X208214285Y-99026247D02*
X208214285Y-98883390D01*
X208214285Y-98883390D02*
X208166666Y-98692914D01*
X208166666Y-98692914D02*
X208119047Y-98597676D01*
X208119047Y-98597676D02*
X208023809Y-98502438D01*
X208023809Y-98502438D02*
X207880952Y-98454819D01*
X207880952Y-98454819D02*
X207785714Y-98454819D01*
X207785714Y-98454819D02*
X207642857Y-98502438D01*
X207642857Y-98502438D02*
X207595238Y-98550057D01*
X206642857Y-99454819D02*
X207214285Y-99454819D01*
X206928571Y-99454819D02*
X206928571Y-98454819D01*
X206928571Y-98454819D02*
X207023809Y-98597676D01*
X207023809Y-98597676D02*
X207119047Y-98692914D01*
X207119047Y-98692914D02*
X207214285Y-98740533D01*
X206023809Y-98454819D02*
X205928571Y-98454819D01*
X205928571Y-98454819D02*
X205833333Y-98502438D01*
X205833333Y-98502438D02*
X205785714Y-98550057D01*
X205785714Y-98550057D02*
X205738095Y-98645295D01*
X205738095Y-98645295D02*
X205690476Y-98835771D01*
X205690476Y-98835771D02*
X205690476Y-99073866D01*
X205690476Y-99073866D02*
X205738095Y-99264342D01*
X205738095Y-99264342D02*
X205785714Y-99359580D01*
X205785714Y-99359580D02*
X205833333Y-99407200D01*
X205833333Y-99407200D02*
X205928571Y-99454819D01*
X205928571Y-99454819D02*
X206023809Y-99454819D01*
X206023809Y-99454819D02*
X206119047Y-99407200D01*
X206119047Y-99407200D02*
X206166666Y-99359580D01*
X206166666Y-99359580D02*
X206214285Y-99264342D01*
X206214285Y-99264342D02*
X206261904Y-99073866D01*
X206261904Y-99073866D02*
X206261904Y-98835771D01*
X206261904Y-98835771D02*
X206214285Y-98645295D01*
X206214285Y-98645295D02*
X206166666Y-98550057D01*
X206166666Y-98550057D02*
X206119047Y-98502438D01*
X206119047Y-98502438D02*
X206023809Y-98454819D01*
X204738095Y-99454819D02*
X205309523Y-99454819D01*
X205023809Y-99454819D02*
X205023809Y-98454819D01*
X205023809Y-98454819D02*
X205119047Y-98597676D01*
X205119047Y-98597676D02*
X205214285Y-98692914D01*
X205214285Y-98692914D02*
X205309523Y-98740533D01*
X203833333Y-98454819D02*
X204309523Y-98454819D01*
X204309523Y-98454819D02*
X204357142Y-98931009D01*
X204357142Y-98931009D02*
X204309523Y-98883390D01*
X204309523Y-98883390D02*
X204214285Y-98835771D01*
X204214285Y-98835771D02*
X203976190Y-98835771D01*
X203976190Y-98835771D02*
X203880952Y-98883390D01*
X203880952Y-98883390D02*
X203833333Y-98931009D01*
X203833333Y-98931009D02*
X203785714Y-99026247D01*
X203785714Y-99026247D02*
X203785714Y-99264342D01*
X203785714Y-99264342D02*
X203833333Y-99359580D01*
X203833333Y-99359580D02*
X203880952Y-99407200D01*
X203880952Y-99407200D02*
X203976190Y-99454819D01*
X203976190Y-99454819D02*
X204214285Y-99454819D01*
X204214285Y-99454819D02*
X204309523Y-99407200D01*
X204309523Y-99407200D02*
X204357142Y-99359580D01*
X144533333Y-81654819D02*
X144533333Y-82369104D01*
X144533333Y-82369104D02*
X144580952Y-82511961D01*
X144580952Y-82511961D02*
X144676190Y-82607200D01*
X144676190Y-82607200D02*
X144819047Y-82654819D01*
X144819047Y-82654819D02*
X144914285Y-82654819D01*
X143580952Y-81654819D02*
X144057142Y-81654819D01*
X144057142Y-81654819D02*
X144104761Y-82131009D01*
X144104761Y-82131009D02*
X144057142Y-82083390D01*
X144057142Y-82083390D02*
X143961904Y-82035771D01*
X143961904Y-82035771D02*
X143723809Y-82035771D01*
X143723809Y-82035771D02*
X143628571Y-82083390D01*
X143628571Y-82083390D02*
X143580952Y-82131009D01*
X143580952Y-82131009D02*
X143533333Y-82226247D01*
X143533333Y-82226247D02*
X143533333Y-82464342D01*
X143533333Y-82464342D02*
X143580952Y-82559580D01*
X143580952Y-82559580D02*
X143628571Y-82607200D01*
X143628571Y-82607200D02*
X143723809Y-82654819D01*
X143723809Y-82654819D02*
X143961904Y-82654819D01*
X143961904Y-82654819D02*
X144057142Y-82607200D01*
X144057142Y-82607200D02*
X144104761Y-82559580D01*
X174654819Y-85757142D02*
X174178628Y-85423809D01*
X174654819Y-85185714D02*
X173654819Y-85185714D01*
X173654819Y-85185714D02*
X173654819Y-85566666D01*
X173654819Y-85566666D02*
X173702438Y-85661904D01*
X173702438Y-85661904D02*
X173750057Y-85709523D01*
X173750057Y-85709523D02*
X173845295Y-85757142D01*
X173845295Y-85757142D02*
X173988152Y-85757142D01*
X173988152Y-85757142D02*
X174083390Y-85709523D01*
X174083390Y-85709523D02*
X174131009Y-85661904D01*
X174131009Y-85661904D02*
X174178628Y-85566666D01*
X174178628Y-85566666D02*
X174178628Y-85185714D01*
X173750057Y-86138095D02*
X173702438Y-86185714D01*
X173702438Y-86185714D02*
X173654819Y-86280952D01*
X173654819Y-86280952D02*
X173654819Y-86519047D01*
X173654819Y-86519047D02*
X173702438Y-86614285D01*
X173702438Y-86614285D02*
X173750057Y-86661904D01*
X173750057Y-86661904D02*
X173845295Y-86709523D01*
X173845295Y-86709523D02*
X173940533Y-86709523D01*
X173940533Y-86709523D02*
X174083390Y-86661904D01*
X174083390Y-86661904D02*
X174654819Y-86090476D01*
X174654819Y-86090476D02*
X174654819Y-86709523D01*
X174083390Y-87280952D02*
X174035771Y-87185714D01*
X174035771Y-87185714D02*
X173988152Y-87138095D01*
X173988152Y-87138095D02*
X173892914Y-87090476D01*
X173892914Y-87090476D02*
X173845295Y-87090476D01*
X173845295Y-87090476D02*
X173750057Y-87138095D01*
X173750057Y-87138095D02*
X173702438Y-87185714D01*
X173702438Y-87185714D02*
X173654819Y-87280952D01*
X173654819Y-87280952D02*
X173654819Y-87471428D01*
X173654819Y-87471428D02*
X173702438Y-87566666D01*
X173702438Y-87566666D02*
X173750057Y-87614285D01*
X173750057Y-87614285D02*
X173845295Y-87661904D01*
X173845295Y-87661904D02*
X173892914Y-87661904D01*
X173892914Y-87661904D02*
X173988152Y-87614285D01*
X173988152Y-87614285D02*
X174035771Y-87566666D01*
X174035771Y-87566666D02*
X174083390Y-87471428D01*
X174083390Y-87471428D02*
X174083390Y-87280952D01*
X174083390Y-87280952D02*
X174131009Y-87185714D01*
X174131009Y-87185714D02*
X174178628Y-87138095D01*
X174178628Y-87138095D02*
X174273866Y-87090476D01*
X174273866Y-87090476D02*
X174464342Y-87090476D01*
X174464342Y-87090476D02*
X174559580Y-87138095D01*
X174559580Y-87138095D02*
X174607200Y-87185714D01*
X174607200Y-87185714D02*
X174654819Y-87280952D01*
X174654819Y-87280952D02*
X174654819Y-87471428D01*
X174654819Y-87471428D02*
X174607200Y-87566666D01*
X174607200Y-87566666D02*
X174559580Y-87614285D01*
X174559580Y-87614285D02*
X174464342Y-87661904D01*
X174464342Y-87661904D02*
X174273866Y-87661904D01*
X174273866Y-87661904D02*
X174178628Y-87614285D01*
X174178628Y-87614285D02*
X174131009Y-87566666D01*
X174131009Y-87566666D02*
X174083390Y-87471428D01*
X170734819Y-96357142D02*
X170258628Y-96023809D01*
X170734819Y-95785714D02*
X169734819Y-95785714D01*
X169734819Y-95785714D02*
X169734819Y-96166666D01*
X169734819Y-96166666D02*
X169782438Y-96261904D01*
X169782438Y-96261904D02*
X169830057Y-96309523D01*
X169830057Y-96309523D02*
X169925295Y-96357142D01*
X169925295Y-96357142D02*
X170068152Y-96357142D01*
X170068152Y-96357142D02*
X170163390Y-96309523D01*
X170163390Y-96309523D02*
X170211009Y-96261904D01*
X170211009Y-96261904D02*
X170258628Y-96166666D01*
X170258628Y-96166666D02*
X170258628Y-95785714D01*
X169734819Y-96690476D02*
X169734819Y-97309523D01*
X169734819Y-97309523D02*
X170115771Y-96976190D01*
X170115771Y-96976190D02*
X170115771Y-97119047D01*
X170115771Y-97119047D02*
X170163390Y-97214285D01*
X170163390Y-97214285D02*
X170211009Y-97261904D01*
X170211009Y-97261904D02*
X170306247Y-97309523D01*
X170306247Y-97309523D02*
X170544342Y-97309523D01*
X170544342Y-97309523D02*
X170639580Y-97261904D01*
X170639580Y-97261904D02*
X170687200Y-97214285D01*
X170687200Y-97214285D02*
X170734819Y-97119047D01*
X170734819Y-97119047D02*
X170734819Y-96833333D01*
X170734819Y-96833333D02*
X170687200Y-96738095D01*
X170687200Y-96738095D02*
X170639580Y-96690476D01*
X169734819Y-97642857D02*
X169734819Y-98261904D01*
X169734819Y-98261904D02*
X170115771Y-97928571D01*
X170115771Y-97928571D02*
X170115771Y-98071428D01*
X170115771Y-98071428D02*
X170163390Y-98166666D01*
X170163390Y-98166666D02*
X170211009Y-98214285D01*
X170211009Y-98214285D02*
X170306247Y-98261904D01*
X170306247Y-98261904D02*
X170544342Y-98261904D01*
X170544342Y-98261904D02*
X170639580Y-98214285D01*
X170639580Y-98214285D02*
X170687200Y-98166666D01*
X170687200Y-98166666D02*
X170734819Y-98071428D01*
X170734819Y-98071428D02*
X170734819Y-97785714D01*
X170734819Y-97785714D02*
X170687200Y-97690476D01*
X170687200Y-97690476D02*
X170639580Y-97642857D01*
X207595238Y-96359580D02*
X207642857Y-96407200D01*
X207642857Y-96407200D02*
X207785714Y-96454819D01*
X207785714Y-96454819D02*
X207880952Y-96454819D01*
X207880952Y-96454819D02*
X208023809Y-96407200D01*
X208023809Y-96407200D02*
X208119047Y-96311961D01*
X208119047Y-96311961D02*
X208166666Y-96216723D01*
X208166666Y-96216723D02*
X208214285Y-96026247D01*
X208214285Y-96026247D02*
X208214285Y-95883390D01*
X208214285Y-95883390D02*
X208166666Y-95692914D01*
X208166666Y-95692914D02*
X208119047Y-95597676D01*
X208119047Y-95597676D02*
X208023809Y-95502438D01*
X208023809Y-95502438D02*
X207880952Y-95454819D01*
X207880952Y-95454819D02*
X207785714Y-95454819D01*
X207785714Y-95454819D02*
X207642857Y-95502438D01*
X207642857Y-95502438D02*
X207595238Y-95550057D01*
X206642857Y-96454819D02*
X207214285Y-96454819D01*
X206928571Y-96454819D02*
X206928571Y-95454819D01*
X206928571Y-95454819D02*
X207023809Y-95597676D01*
X207023809Y-95597676D02*
X207119047Y-95692914D01*
X207119047Y-95692914D02*
X207214285Y-95740533D01*
X206023809Y-95454819D02*
X205928571Y-95454819D01*
X205928571Y-95454819D02*
X205833333Y-95502438D01*
X205833333Y-95502438D02*
X205785714Y-95550057D01*
X205785714Y-95550057D02*
X205738095Y-95645295D01*
X205738095Y-95645295D02*
X205690476Y-95835771D01*
X205690476Y-95835771D02*
X205690476Y-96073866D01*
X205690476Y-96073866D02*
X205738095Y-96264342D01*
X205738095Y-96264342D02*
X205785714Y-96359580D01*
X205785714Y-96359580D02*
X205833333Y-96407200D01*
X205833333Y-96407200D02*
X205928571Y-96454819D01*
X205928571Y-96454819D02*
X206023809Y-96454819D01*
X206023809Y-96454819D02*
X206119047Y-96407200D01*
X206119047Y-96407200D02*
X206166666Y-96359580D01*
X206166666Y-96359580D02*
X206214285Y-96264342D01*
X206214285Y-96264342D02*
X206261904Y-96073866D01*
X206261904Y-96073866D02*
X206261904Y-95835771D01*
X206261904Y-95835771D02*
X206214285Y-95645295D01*
X206214285Y-95645295D02*
X206166666Y-95550057D01*
X206166666Y-95550057D02*
X206119047Y-95502438D01*
X206119047Y-95502438D02*
X206023809Y-95454819D01*
X204738095Y-96454819D02*
X205309523Y-96454819D01*
X205023809Y-96454819D02*
X205023809Y-95454819D01*
X205023809Y-95454819D02*
X205119047Y-95597676D01*
X205119047Y-95597676D02*
X205214285Y-95692914D01*
X205214285Y-95692914D02*
X205309523Y-95740533D01*
X204404761Y-95454819D02*
X203738095Y-95454819D01*
X203738095Y-95454819D02*
X204166666Y-96454819D01*
X166734819Y-76357142D02*
X166258628Y-76023809D01*
X166734819Y-75785714D02*
X165734819Y-75785714D01*
X165734819Y-75785714D02*
X165734819Y-76166666D01*
X165734819Y-76166666D02*
X165782438Y-76261904D01*
X165782438Y-76261904D02*
X165830057Y-76309523D01*
X165830057Y-76309523D02*
X165925295Y-76357142D01*
X165925295Y-76357142D02*
X166068152Y-76357142D01*
X166068152Y-76357142D02*
X166163390Y-76309523D01*
X166163390Y-76309523D02*
X166211009Y-76261904D01*
X166211009Y-76261904D02*
X166258628Y-76166666D01*
X166258628Y-76166666D02*
X166258628Y-75785714D01*
X165734819Y-76690476D02*
X165734819Y-77309523D01*
X165734819Y-77309523D02*
X166115771Y-76976190D01*
X166115771Y-76976190D02*
X166115771Y-77119047D01*
X166115771Y-77119047D02*
X166163390Y-77214285D01*
X166163390Y-77214285D02*
X166211009Y-77261904D01*
X166211009Y-77261904D02*
X166306247Y-77309523D01*
X166306247Y-77309523D02*
X166544342Y-77309523D01*
X166544342Y-77309523D02*
X166639580Y-77261904D01*
X166639580Y-77261904D02*
X166687200Y-77214285D01*
X166687200Y-77214285D02*
X166734819Y-77119047D01*
X166734819Y-77119047D02*
X166734819Y-76833333D01*
X166734819Y-76833333D02*
X166687200Y-76738095D01*
X166687200Y-76738095D02*
X166639580Y-76690476D01*
X166068152Y-78166666D02*
X166734819Y-78166666D01*
X165687200Y-77928571D02*
X166401485Y-77690476D01*
X166401485Y-77690476D02*
X166401485Y-78309523D01*
D11*
X212825000Y-70111252D02*
X212825000Y-69588748D01*
X211355000Y-70111252D02*
X211355000Y-69588748D01*
X212825000Y-64508748D02*
X212825000Y-65031252D01*
X211355000Y-64508748D02*
X211355000Y-65031252D01*
X246221248Y-91775000D02*
X246743752Y-91775000D01*
X246221248Y-90305000D02*
X246743752Y-90305000D01*
X262266248Y-92845000D02*
X262788752Y-92845000D01*
X262266248Y-94315000D02*
X262788752Y-94315000D01*
X245988748Y-67445000D02*
X246511252Y-67445000D01*
X245988748Y-68915000D02*
X246511252Y-68915000D01*
X262498748Y-69985000D02*
X263021252Y-69985000D01*
X262498748Y-71455000D02*
X263021252Y-71455000D01*
X196261252Y-112265000D02*
X195738748Y-112265000D01*
X196261252Y-113735000D02*
X195738748Y-113735000D01*
X199265000Y-107738748D02*
X199265000Y-108261252D01*
X200735000Y-107738748D02*
X200735000Y-108261252D01*
X200735000Y-102738748D02*
X200735000Y-103261252D01*
X199265000Y-102738748D02*
X199265000Y-103261252D01*
X200776248Y-98325000D02*
X201298752Y-98325000D01*
X200776248Y-99795000D02*
X201298752Y-99795000D01*
X173122500Y-87454724D02*
X173122500Y-86945276D01*
X172077500Y-87454724D02*
X172077500Y-86945276D01*
X166645000Y-97723737D02*
X166645000Y-96276263D01*
X169355000Y-97723737D02*
X169355000Y-96276263D01*
X200738748Y-97255000D02*
X201261252Y-97255000D01*
X200738748Y-95785000D02*
X201261252Y-95785000D01*
X162645000Y-77723737D02*
X162645000Y-76276263D01*
X165355000Y-77723737D02*
X165355000Y-76276263D01*
%LPC*%
D12*
X242440000Y-111360000D03*
X240840000Y-112030937D03*
D13*
X242440000Y-108860000D03*
X244040000Y-108189063D03*
D12*
X240840000Y-91710937D03*
X242440000Y-91040000D03*
D13*
X244040000Y-87869063D03*
X242440000Y-88540000D03*
D12*
X265300000Y-87230000D03*
X266900000Y-86559063D03*
D13*
X263700000Y-90400937D03*
X265300000Y-89730000D03*
D12*
X270000000Y-64370000D03*
X271600000Y-63699063D03*
D13*
X268400000Y-67540937D03*
X270000000Y-66870000D03*
D14*
X225000000Y-95000000D03*
D15*
X225000000Y-92460000D03*
X225000000Y-89920000D03*
X225000000Y-87380000D03*
X225000000Y-84840000D03*
X225000000Y-82300000D03*
X225000000Y-79760000D03*
X225000000Y-77220000D03*
X225000000Y-74680000D03*
X225000000Y-72140000D03*
D16*
X256410000Y-111360000D03*
D17*
X253870000Y-111360000D03*
X251330000Y-111360000D03*
D16*
X258950000Y-65000000D03*
D17*
X256410000Y-65000000D03*
X253870000Y-65000000D03*
X251330000Y-65000000D03*
X248790000Y-65000000D03*
D14*
X182500000Y-107500000D03*
D15*
X182500000Y-104960000D03*
X182500000Y-102420000D03*
X182500000Y-99880000D03*
X182500000Y-97340000D03*
X182500000Y-94800000D03*
D18*
X165460000Y-117660000D03*
D19*
X168000000Y-101000000D03*
D20*
X165460000Y-101000000D03*
X162920000Y-101000000D03*
D21*
X159000000Y-85650000D03*
D22*
X164000000Y-83000000D03*
X154000000Y-85500000D03*
X164000000Y-88000000D03*
D23*
X208465000Y-61090000D03*
D24*
X208165000Y-64120000D03*
D23*
X203015000Y-61090000D03*
D24*
X203315000Y-64120000D03*
D25*
X196850000Y-60960000D03*
X196850000Y-63500000D03*
D26*
X196850000Y-66040000D03*
D25*
X196850000Y-68580000D03*
X196850000Y-71120000D03*
X196850000Y-73660000D03*
X196850000Y-76200000D03*
D26*
X196850000Y-78740000D03*
D25*
X196850000Y-81280000D03*
X196850000Y-83820000D03*
X196850000Y-86360000D03*
X196850000Y-88900000D03*
D26*
X196850000Y-91440000D03*
D25*
X196850000Y-93980000D03*
X196850000Y-96520000D03*
X196850000Y-99060000D03*
X196850000Y-101600000D03*
D26*
X196850000Y-104140000D03*
D25*
X196850000Y-106680000D03*
X196850000Y-109220000D03*
X214630000Y-109220000D03*
X214630000Y-106680000D03*
D26*
X214630000Y-104140000D03*
D25*
X214630000Y-101600000D03*
X214630000Y-99060000D03*
X214630000Y-96520000D03*
X214630000Y-93980000D03*
D26*
X214630000Y-91440000D03*
D25*
X214630000Y-88900000D03*
X214630000Y-86360000D03*
X214630000Y-83820000D03*
X214630000Y-81280000D03*
D26*
X214630000Y-78740000D03*
D25*
X214630000Y-76200000D03*
X214630000Y-73660000D03*
X214630000Y-71120000D03*
X214630000Y-68580000D03*
D26*
X214630000Y-66040000D03*
D25*
X214630000Y-63500000D03*
X214630000Y-60960000D03*
X203200000Y-108990000D03*
D26*
X205740000Y-108990000D03*
D25*
X208280000Y-108990000D03*
D12*
X265300000Y-108820000D03*
X266900000Y-108149063D03*
D13*
X265300000Y-111320000D03*
X263700000Y-111990937D03*
D27*
X273302944Y-118302944D03*
X276697056Y-121697056D03*
X277400000Y-120000000D03*
X273302944Y-121697056D03*
X275000000Y-122400000D03*
D28*
X275000000Y-120000000D03*
D27*
X276697056Y-118302944D03*
X275000000Y-117600000D03*
X272600000Y-120000000D03*
X142600000Y-54500000D03*
X143302944Y-56197056D03*
X145000000Y-56900000D03*
X145000000Y-52100000D03*
X147400000Y-54500000D03*
D28*
X145000000Y-54500000D03*
D27*
X143302944Y-52802944D03*
X146697056Y-56197056D03*
X146697056Y-52802944D03*
X275000000Y-57400000D03*
X273302944Y-53302944D03*
X275000000Y-52600000D03*
X272600000Y-55000000D03*
X277400000Y-55000000D03*
D28*
X275000000Y-55000000D03*
D27*
X273302944Y-56697056D03*
X276697056Y-56697056D03*
X276697056Y-53302944D03*
X143302944Y-121697056D03*
X145000000Y-122400000D03*
X143302944Y-118302944D03*
X145000000Y-117600000D03*
X147400000Y-120000000D03*
X146697056Y-121697056D03*
X146697056Y-118302944D03*
D28*
X145000000Y-120000000D03*
D27*
X142600000Y-120000000D03*
D12*
X237500000Y-67500000D03*
X235900000Y-68170937D03*
D13*
X237500000Y-65000000D03*
X239100000Y-64329063D03*
D27*
X235000000Y-122400000D03*
X232600000Y-120000000D03*
X233302944Y-118302944D03*
X237400000Y-120000000D03*
X233302944Y-121697056D03*
X235000000Y-117600000D03*
X236697056Y-121697056D03*
D28*
X235000000Y-120000000D03*
D27*
X236697056Y-118302944D03*
X222500000Y-52600000D03*
X224900000Y-55000000D03*
D28*
X222500000Y-55000000D03*
D27*
X224197056Y-56697056D03*
X222500000Y-57400000D03*
X220802944Y-53302944D03*
X224197056Y-53302944D03*
X220100000Y-55000000D03*
X220802944Y-56697056D03*
X222500000Y-122400000D03*
X220802944Y-118302944D03*
X220100000Y-120000000D03*
D28*
X222500000Y-120000000D03*
D27*
X220802944Y-121697056D03*
X224197056Y-121697056D03*
X224197056Y-118302944D03*
X222500000Y-117600000D03*
X224900000Y-120000000D03*
X236697056Y-53302944D03*
X233302944Y-56697056D03*
D28*
X235000000Y-55000000D03*
D27*
X236697056Y-56697056D03*
X237400000Y-55000000D03*
X232600000Y-55000000D03*
X235000000Y-52600000D03*
X233302944Y-53302944D03*
X235000000Y-57400000D03*
D29*
X146000000Y-65000000D03*
D15*
X146000000Y-67540000D03*
X146000000Y-70080000D03*
X146000000Y-72620000D03*
X146000000Y-75160000D03*
D18*
X166540000Y-56340000D03*
D19*
X164000000Y-73000000D03*
D20*
X166540000Y-73000000D03*
X169080000Y-73000000D03*
D30*
X212090000Y-70887500D03*
X212090000Y-68812500D03*
D31*
X212090000Y-63732500D03*
X212090000Y-65807500D03*
D32*
X245445000Y-91040000D03*
X247520000Y-91040000D03*
X261490000Y-93580000D03*
X263565000Y-93580000D03*
X245212500Y-68180000D03*
X247287500Y-68180000D03*
X261722500Y-70720000D03*
X263797500Y-70720000D03*
D33*
X197037500Y-113000000D03*
X194962500Y-113000000D03*
D31*
X200000000Y-106962500D03*
X200000000Y-109037500D03*
X200000000Y-101962500D03*
X200000000Y-104037500D03*
D32*
X200000000Y-99060000D03*
X202075000Y-99060000D03*
D34*
X142000000Y-87000000D03*
D35*
X142000000Y-89540000D03*
X142000000Y-84460000D03*
D36*
X172600000Y-88112500D03*
X172600000Y-86287500D03*
D37*
X168000000Y-98550000D03*
X168000000Y-95450000D03*
D32*
X199962500Y-96520000D03*
X202037500Y-96520000D03*
D37*
X164000000Y-78550000D03*
X164000000Y-75450000D03*
G36*
X279942121Y-50020002D02*
G01*
X279988614Y-50073658D01*
X280000000Y-50126000D01*
X280000000Y-52128000D01*
X279979998Y-52196121D01*
X279926342Y-52242614D01*
X279874000Y-52254000D01*
X278126000Y-52254000D01*
X278057879Y-52233998D01*
X278011386Y-52180342D01*
X278000000Y-52128000D01*
X278000000Y-52000000D01*
X142000000Y-52000000D01*
X142000000Y-52128000D01*
X141979998Y-52196121D01*
X141926342Y-52242614D01*
X141874000Y-52254000D01*
X140126000Y-52254000D01*
X140057879Y-52233998D01*
X140011386Y-52180342D01*
X140000000Y-52128000D01*
X140000000Y-50126000D01*
X140020002Y-50057879D01*
X140073658Y-50011386D01*
X140126000Y-50000000D01*
X279874000Y-50000000D01*
X279942121Y-50020002D01*
G37*
G36*
X142001550Y-51746076D02*
G01*
X142021798Y-51747071D01*
X142027955Y-51747677D01*
X142039326Y-51749364D01*
X142103775Y-51779145D01*
X142141891Y-51839042D01*
X142141574Y-51910038D01*
X142102924Y-51969592D01*
X142038212Y-51998796D01*
X142020838Y-52000000D01*
X142000000Y-52000000D01*
X142000000Y-123000000D01*
X278000000Y-123000000D01*
X278000000Y-52000000D01*
X277979162Y-52000000D01*
X277911041Y-51979998D01*
X277864548Y-51926342D01*
X277854444Y-51856068D01*
X277883938Y-51791488D01*
X277943664Y-51753104D01*
X277960671Y-51749364D01*
X277972043Y-51747677D01*
X277978201Y-51747071D01*
X277998451Y-51746076D01*
X278001542Y-51746000D01*
X279874000Y-51746000D01*
X279942121Y-51766002D01*
X279988614Y-51819658D01*
X280000000Y-51872000D01*
X280000000Y-124874000D01*
X279979998Y-124942121D01*
X279926342Y-124988614D01*
X279874000Y-125000000D01*
X140126000Y-125000000D01*
X140057879Y-124979998D01*
X140011386Y-124926342D01*
X140000000Y-124874000D01*
X140000000Y-51872000D01*
X140020002Y-51803879D01*
X140073658Y-51757386D01*
X140126000Y-51746000D01*
X141998458Y-51746000D01*
X142001550Y-51746076D01*
G37*
%LPD*%
M02*
