%FSLAX45Y45*%
G04 Gerber Fmt 4.5, Leading zero omitted, Abs format (unit mm)*
G04 Created by KiCad (PCBNEW (5.1.12)-1) date 2021-12-12 15:42:07*
%MOMM*%
%LPD*%
G01*
G04 APERTURE LIST*
%TA.AperFunction,Profile*%
%ADD10C,0.050000*%
%TD*%
%ADD11C,0.200000*%
%ADD12C,0.300000*%
G04 APERTURE END LIST*
D10*
X14000000Y-12500000D02*
X14000000Y-5000000D01*
X28000000Y-12500000D02*
X14000000Y-12500000D01*
X28000000Y-5000000D02*
X28000000Y-12500000D01*
X14000000Y-5000000D02*
X28000000Y-5000000D01*
D11*
X16100000Y-9240000D02*
X16140000Y-9280000D01*
X16140000Y-9240000D02*
X16100000Y-9280000D01*
X16260000Y-9240000D02*
X16300000Y-9280000D01*
X16300000Y-9240000D02*
X16260000Y-9280000D01*
X16440000Y-9240000D02*
X16480000Y-9280000D01*
X16480000Y-9240000D02*
X16440000Y-9280000D01*
X16805000Y-8155000D02*
X16845000Y-8195000D01*
X16845000Y-8155000D02*
X16805000Y-8195000D01*
X16955000Y-8155000D02*
X16995000Y-8195000D01*
X16995000Y-8155000D02*
X16955000Y-8195000D01*
X17060000Y-9240000D02*
X17100000Y-9280000D01*
X17100000Y-9240000D02*
X17060000Y-9280000D01*
X17130000Y-8155000D02*
X17170000Y-8195000D01*
X17170000Y-8155000D02*
X17130000Y-8195000D01*
X17240000Y-9240000D02*
X17280000Y-9280000D01*
X17280000Y-9240000D02*
X17240000Y-9280000D01*
X17255000Y-8155000D02*
X17295000Y-8195000D01*
X17295000Y-8155000D02*
X17255000Y-8195000D01*
X17405000Y-8155000D02*
X17445000Y-8195000D01*
X17445000Y-8155000D02*
X17405000Y-8195000D01*
X17420000Y-9240000D02*
X17460000Y-9280000D01*
X17460000Y-9240000D02*
X17420000Y-9280000D01*
X18140000Y-5920000D02*
X18180000Y-5960000D01*
X18180000Y-5920000D02*
X18140000Y-5960000D01*
X18140000Y-6100000D02*
X18180000Y-6140000D01*
X18180000Y-6100000D02*
X18140000Y-6140000D01*
X18140000Y-6260000D02*
X18180000Y-6300000D01*
X18180000Y-6260000D02*
X18140000Y-6300000D01*
X18260000Y-5820000D02*
X18300000Y-5860000D01*
X18300000Y-5820000D02*
X18260000Y-5860000D01*
X18380000Y-5720000D02*
X18420000Y-5760000D01*
X18420000Y-5720000D02*
X18380000Y-5760000D01*
X19080000Y-5719999D02*
X19120000Y-5759999D01*
X19120000Y-5719999D02*
X19080000Y-5759999D01*
X19280000Y-5720000D02*
X19320000Y-5760000D01*
X19320000Y-5720000D02*
X19280000Y-5760000D01*
X19480000Y-5720000D02*
X19520000Y-5760000D01*
X19520000Y-5720000D02*
X19480000Y-5760000D01*
X19700000Y-5720001D02*
X19740000Y-5760001D01*
X19740000Y-5720001D02*
X19700000Y-5760001D01*
X19900000Y-5720000D02*
X19940000Y-5760000D01*
X19940000Y-5720000D02*
X19900000Y-5760000D01*
X20080000Y-5720000D02*
X20120000Y-5760000D01*
X20120000Y-5720000D02*
X20080000Y-5760000D01*
X20280000Y-5720000D02*
X20320000Y-5760000D01*
X20320000Y-5720000D02*
X20280000Y-5760000D01*
X20480000Y-5720000D02*
X20520000Y-5760000D01*
X20520000Y-5720000D02*
X20480000Y-5760000D01*
X21180001Y-5720000D02*
X21220001Y-5760000D01*
X21220001Y-5720000D02*
X21180001Y-5760000D01*
X21280000Y-5780000D02*
X21320000Y-5820000D01*
X21320000Y-5780000D02*
X21280000Y-5820000D01*
X21380000Y-5880000D02*
X21420000Y-5920000D01*
X21420000Y-5880000D02*
X21380000Y-5920000D01*
X21840000Y-10240000D02*
X21880000Y-10280000D01*
X21880000Y-10240000D02*
X21840000Y-10280000D01*
X21920000Y-10140000D02*
X21960000Y-10180000D01*
X21960000Y-10140000D02*
X21920000Y-10180000D01*
X22020000Y-10060000D02*
X22060000Y-10100000D01*
X22060000Y-10060000D02*
X22020000Y-10100000D01*
X22055000Y-10680000D02*
X22095000Y-10720000D01*
X22095000Y-10680000D02*
X22055000Y-10720000D01*
X22155000Y-10580000D02*
X22195000Y-10620000D01*
X22195000Y-10580000D02*
X22155000Y-10620000D01*
X22255000Y-10480000D02*
X22295000Y-10520000D01*
X22295000Y-10480000D02*
X22255000Y-10520000D01*
X22330000Y-10380000D02*
X22370000Y-10420000D01*
X22370000Y-10380000D02*
X22330000Y-10420000D01*
X22430000Y-10305000D02*
X22470000Y-10345000D01*
X22470000Y-10305000D02*
X22430000Y-10345000D01*
X14285000Y-5450000D02*
G75*
G03*
X14285000Y-5450000I-25000J0D01*
G01*
X14285000Y-12000000D02*
G75*
G03*
X14285000Y-12000000I-25000J0D01*
G01*
X14355294Y-5280294D02*
G75*
G03*
X14355294Y-5280294I-25000J0D01*
G01*
X14355294Y-5619706D02*
G75*
G03*
X14355294Y-5619706I-25000J0D01*
G01*
X14355294Y-11830294D02*
G75*
G03*
X14355294Y-11830294I-25000J0D01*
G01*
X14355294Y-12169706D02*
G75*
G03*
X14355294Y-12169706I-25000J0D01*
G01*
X14525000Y-5210000D02*
G75*
G03*
X14525000Y-5210000I-25000J0D01*
G01*
X14525000Y-5690000D02*
G75*
G03*
X14525000Y-5690000I-25000J0D01*
G01*
X14525000Y-11760000D02*
G75*
G03*
X14525000Y-11760000I-25000J0D01*
G01*
X14525000Y-12240000D02*
G75*
G03*
X14525000Y-12240000I-25000J0D01*
G01*
X14694706Y-5280294D02*
G75*
G03*
X14694706Y-5280294I-25000J0D01*
G01*
X14694706Y-5619706D02*
G75*
G03*
X14694706Y-5619706I-25000J0D01*
G01*
X14694706Y-11830294D02*
G75*
G03*
X14694706Y-11830294I-25000J0D01*
G01*
X14694706Y-12169706D02*
G75*
G03*
X14694706Y-12169706I-25000J0D01*
G01*
X14765000Y-5450000D02*
G75*
G03*
X14765000Y-5450000I-25000J0D01*
G01*
X14765000Y-12000000D02*
G75*
G03*
X14765000Y-12000000I-25000J0D01*
G01*
X22035000Y-5500000D02*
G75*
G03*
X22035000Y-5500000I-25000J0D01*
G01*
X22035000Y-12000000D02*
G75*
G03*
X22035000Y-12000000I-25000J0D01*
G01*
X22105294Y-5330294D02*
G75*
G03*
X22105294Y-5330294I-25000J0D01*
G01*
X22105294Y-5669706D02*
G75*
G03*
X22105294Y-5669706I-25000J0D01*
G01*
X22105294Y-11830294D02*
G75*
G03*
X22105294Y-11830294I-25000J0D01*
G01*
X22105294Y-12169706D02*
G75*
G03*
X22105294Y-12169706I-25000J0D01*
G01*
X22275000Y-5260000D02*
G75*
G03*
X22275000Y-5260000I-25000J0D01*
G01*
X22275000Y-5740000D02*
G75*
G03*
X22275000Y-5740000I-25000J0D01*
G01*
X22275000Y-11760000D02*
G75*
G03*
X22275000Y-11760000I-25000J0D01*
G01*
X22275000Y-12240000D02*
G75*
G03*
X22275000Y-12240000I-25000J0D01*
G01*
X22444706Y-5330294D02*
G75*
G03*
X22444706Y-5330294I-25000J0D01*
G01*
X22444706Y-5669706D02*
G75*
G03*
X22444706Y-5669706I-25000J0D01*
G01*
X22444706Y-11830294D02*
G75*
G03*
X22444706Y-11830294I-25000J0D01*
G01*
X22444706Y-12169706D02*
G75*
G03*
X22444706Y-12169706I-25000J0D01*
G01*
X22515000Y-5500000D02*
G75*
G03*
X22515000Y-5500000I-25000J0D01*
G01*
X22515000Y-12000000D02*
G75*
G03*
X22515000Y-12000000I-25000J0D01*
G01*
X23285000Y-5500000D02*
G75*
G03*
X23285000Y-5500000I-25000J0D01*
G01*
X23285000Y-12000000D02*
G75*
G03*
X23285000Y-12000000I-25000J0D01*
G01*
X23355294Y-5330294D02*
G75*
G03*
X23355294Y-5330294I-25000J0D01*
G01*
X23355294Y-5669706D02*
G75*
G03*
X23355294Y-5669706I-25000J0D01*
G01*
X23355294Y-11830294D02*
G75*
G03*
X23355294Y-11830294I-25000J0D01*
G01*
X23355294Y-12169706D02*
G75*
G03*
X23355294Y-12169706I-25000J0D01*
G01*
X23525000Y-5260000D02*
G75*
G03*
X23525000Y-5260000I-25000J0D01*
G01*
X23525000Y-5740000D02*
G75*
G03*
X23525000Y-5740000I-25000J0D01*
G01*
X23525000Y-11760000D02*
G75*
G03*
X23525000Y-11760000I-25000J0D01*
G01*
X23525000Y-12240000D02*
G75*
G03*
X23525000Y-12240000I-25000J0D01*
G01*
X23694706Y-5330294D02*
G75*
G03*
X23694706Y-5330294I-25000J0D01*
G01*
X23694706Y-5669706D02*
G75*
G03*
X23694706Y-5669706I-25000J0D01*
G01*
X23694706Y-11830294D02*
G75*
G03*
X23694706Y-11830294I-25000J0D01*
G01*
X23694706Y-12169706D02*
G75*
G03*
X23694706Y-12169706I-25000J0D01*
G01*
X23765000Y-5500000D02*
G75*
G03*
X23765000Y-5500000I-25000J0D01*
G01*
X23765000Y-12000000D02*
G75*
G03*
X23765000Y-12000000I-25000J0D01*
G01*
X27285000Y-5500000D02*
G75*
G03*
X27285000Y-5500000I-25000J0D01*
G01*
X27285000Y-12000000D02*
G75*
G03*
X27285000Y-12000000I-25000J0D01*
G01*
X27355294Y-5330294D02*
G75*
G03*
X27355294Y-5330294I-25000J0D01*
G01*
X27355294Y-5669706D02*
G75*
G03*
X27355294Y-5669706I-25000J0D01*
G01*
X27355294Y-11830294D02*
G75*
G03*
X27355294Y-11830294I-25000J0D01*
G01*
X27355294Y-12169706D02*
G75*
G03*
X27355294Y-12169706I-25000J0D01*
G01*
X27525000Y-5260000D02*
G75*
G03*
X27525000Y-5260000I-25000J0D01*
G01*
X27525000Y-5740000D02*
G75*
G03*
X27525000Y-5740000I-25000J0D01*
G01*
X27525000Y-11760000D02*
G75*
G03*
X27525000Y-11760000I-25000J0D01*
G01*
X27525000Y-12240000D02*
G75*
G03*
X27525000Y-12240000I-25000J0D01*
G01*
X27694706Y-5330294D02*
G75*
G03*
X27694706Y-5330294I-25000J0D01*
G01*
X27694706Y-5669706D02*
G75*
G03*
X27694706Y-5669706I-25000J0D01*
G01*
X27694706Y-11830294D02*
G75*
G03*
X27694706Y-11830294I-25000J0D01*
G01*
X27694706Y-12169706D02*
G75*
G03*
X27694706Y-12169706I-25000J0D01*
G01*
X27765000Y-5500000D02*
G75*
G03*
X27765000Y-5500000I-25000J0D01*
G01*
X27765000Y-12000000D02*
G75*
G03*
X27765000Y-12000000I-25000J0D01*
G01*
X23590000Y-6777094D02*
X23590000Y-6857094D01*
X23550000Y-6817094D02*
X23630000Y-6817094D01*
X23750000Y-6460000D02*
X23750000Y-6540000D01*
X23710000Y-6500000D02*
X23790000Y-6500000D01*
X23750000Y-6710000D02*
X23750000Y-6790000D01*
X23710000Y-6750000D02*
X23790000Y-6750000D01*
X23910000Y-6392906D02*
X23910000Y-6472906D01*
X23870000Y-6432906D02*
X23950000Y-6432906D01*
X24084000Y-9131094D02*
X24084000Y-9211094D01*
X24044000Y-9171094D02*
X24124000Y-9171094D01*
X24084000Y-11163094D02*
X24084000Y-11243094D01*
X24044000Y-11203094D02*
X24124000Y-11203094D01*
X24244000Y-8814000D02*
X24244000Y-8894000D01*
X24204000Y-8854000D02*
X24284000Y-8854000D01*
X24244000Y-9064000D02*
X24244000Y-9144000D01*
X24204000Y-9104000D02*
X24284000Y-9104000D01*
X24244000Y-10846000D02*
X24244000Y-10926000D01*
X24204000Y-10886000D02*
X24284000Y-10886000D01*
X24244000Y-11096000D02*
X24244000Y-11176000D01*
X24204000Y-11136000D02*
X24284000Y-11136000D01*
X24404000Y-8746906D02*
X24404000Y-8826906D01*
X24364000Y-8786906D02*
X24444000Y-8786906D01*
X24404000Y-10778906D02*
X24404000Y-10858906D01*
X24364000Y-10818906D02*
X24444000Y-10818906D01*
X26370000Y-9000094D02*
X26370000Y-9080094D01*
X26330000Y-9040094D02*
X26410000Y-9040094D01*
X26370000Y-11159094D02*
X26370000Y-11239094D01*
X26330000Y-11199094D02*
X26410000Y-11199094D01*
X26530000Y-8683000D02*
X26530000Y-8763000D01*
X26490000Y-8723000D02*
X26570000Y-8723000D01*
X26530000Y-8933000D02*
X26530000Y-9013000D01*
X26490000Y-8973000D02*
X26570000Y-8973000D01*
X26530000Y-10842000D02*
X26530000Y-10922000D01*
X26490000Y-10882000D02*
X26570000Y-10882000D01*
X26530000Y-11092000D02*
X26530000Y-11172000D01*
X26490000Y-11132000D02*
X26570000Y-11132000D01*
X26690000Y-8615906D02*
X26690000Y-8695906D01*
X26650000Y-8655906D02*
X26730000Y-8655906D01*
X26690000Y-10774906D02*
X26690000Y-10854906D01*
X26650000Y-10814906D02*
X26730000Y-10814906D01*
X26840000Y-6714094D02*
X26840000Y-6794094D01*
X26800000Y-6754094D02*
X26880000Y-6754094D01*
X27000000Y-6397000D02*
X27000000Y-6477000D01*
X26960000Y-6437000D02*
X27040000Y-6437000D01*
X27000000Y-6647000D02*
X27000000Y-6727000D01*
X26960000Y-6687000D02*
X27040000Y-6687000D01*
X27160000Y-6329906D02*
X27160000Y-6409906D01*
X27120000Y-6369906D02*
X27200000Y-6369906D01*
X19721063Y-6132063D02*
X19721063Y-6059937D01*
X19648937Y-6059937D01*
X19648937Y-6132063D01*
X19721063Y-6132063D01*
X19721063Y-6386063D02*
X19721063Y-6313937D01*
X19648937Y-6313937D01*
X19648937Y-6386063D01*
X19721063Y-6386063D01*
X19721063Y-6640063D02*
X19721063Y-6567937D01*
X19648937Y-6567937D01*
X19648937Y-6640063D01*
X19721063Y-6640063D01*
X19721063Y-6894063D02*
X19721063Y-6821937D01*
X19648937Y-6821937D01*
X19648937Y-6894063D01*
X19721063Y-6894063D01*
X19721063Y-7148063D02*
X19721063Y-7075937D01*
X19648937Y-7075937D01*
X19648937Y-7148063D01*
X19721063Y-7148063D01*
X19721063Y-7402063D02*
X19721063Y-7329937D01*
X19648937Y-7329937D01*
X19648937Y-7402063D01*
X19721063Y-7402063D01*
X19721063Y-7656063D02*
X19721063Y-7583937D01*
X19648937Y-7583937D01*
X19648937Y-7656063D01*
X19721063Y-7656063D01*
X19721063Y-7910063D02*
X19721063Y-7837937D01*
X19648937Y-7837937D01*
X19648937Y-7910063D01*
X19721063Y-7910063D01*
X19721063Y-8164063D02*
X19721063Y-8091937D01*
X19648937Y-8091937D01*
X19648937Y-8164063D01*
X19721063Y-8164063D01*
X19721063Y-8418063D02*
X19721063Y-8345937D01*
X19648937Y-8345937D01*
X19648937Y-8418063D01*
X19721063Y-8418063D01*
X19721063Y-8672063D02*
X19721063Y-8599937D01*
X19648937Y-8599937D01*
X19648937Y-8672063D01*
X19721063Y-8672063D01*
X19721063Y-8926063D02*
X19721063Y-8853937D01*
X19648937Y-8853937D01*
X19648937Y-8926063D01*
X19721063Y-8926063D01*
X19721063Y-9180063D02*
X19721063Y-9107937D01*
X19648937Y-9107937D01*
X19648937Y-9180063D01*
X19721063Y-9180063D01*
X19721063Y-9434063D02*
X19721063Y-9361937D01*
X19648937Y-9361937D01*
X19648937Y-9434063D01*
X19721063Y-9434063D01*
X19721063Y-9688063D02*
X19721063Y-9615937D01*
X19648937Y-9615937D01*
X19648937Y-9688063D01*
X19721063Y-9688063D01*
X19721063Y-9942063D02*
X19721063Y-9869937D01*
X19648937Y-9869937D01*
X19648937Y-9942063D01*
X19721063Y-9942063D01*
X19721063Y-10196063D02*
X19721063Y-10123937D01*
X19648937Y-10123937D01*
X19648937Y-10196063D01*
X19721063Y-10196063D01*
X19721063Y-10450063D02*
X19721063Y-10377937D01*
X19648937Y-10377937D01*
X19648937Y-10450063D01*
X19721063Y-10450063D01*
X19721063Y-10704063D02*
X19721063Y-10631937D01*
X19648937Y-10631937D01*
X19648937Y-10704063D01*
X19721063Y-10704063D01*
X19721063Y-10958063D02*
X19721063Y-10885937D01*
X19648937Y-10885937D01*
X19648937Y-10958063D01*
X19721063Y-10958063D01*
X20356063Y-10935063D02*
X20356063Y-10862937D01*
X20283937Y-10862937D01*
X20283937Y-10935063D01*
X20356063Y-10935063D01*
X20610063Y-10935063D02*
X20610063Y-10862937D01*
X20537937Y-10862937D01*
X20537937Y-10935063D01*
X20610063Y-10935063D01*
X20864063Y-10935063D02*
X20864063Y-10862937D01*
X20791937Y-10862937D01*
X20791937Y-10935063D01*
X20864063Y-10935063D01*
X21499063Y-6132063D02*
X21499063Y-6059937D01*
X21426937Y-6059937D01*
X21426937Y-6132063D01*
X21499063Y-6132063D01*
X21499063Y-6386063D02*
X21499063Y-6313937D01*
X21426937Y-6313937D01*
X21426937Y-6386063D01*
X21499063Y-6386063D01*
X21499063Y-6640063D02*
X21499063Y-6567937D01*
X21426937Y-6567937D01*
X21426937Y-6640063D01*
X21499063Y-6640063D01*
X21499063Y-6894063D02*
X21499063Y-6821937D01*
X21426937Y-6821937D01*
X21426937Y-6894063D01*
X21499063Y-6894063D01*
X21499063Y-7148063D02*
X21499063Y-7075937D01*
X21426937Y-7075937D01*
X21426937Y-7148063D01*
X21499063Y-7148063D01*
X21499063Y-7402063D02*
X21499063Y-7329937D01*
X21426937Y-7329937D01*
X21426937Y-7402063D01*
X21499063Y-7402063D01*
X21499063Y-7656063D02*
X21499063Y-7583937D01*
X21426937Y-7583937D01*
X21426937Y-7656063D01*
X21499063Y-7656063D01*
X21499063Y-7910063D02*
X21499063Y-7837937D01*
X21426937Y-7837937D01*
X21426937Y-7910063D01*
X21499063Y-7910063D01*
X21499063Y-8164063D02*
X21499063Y-8091937D01*
X21426937Y-8091937D01*
X21426937Y-8164063D01*
X21499063Y-8164063D01*
X21499063Y-8418063D02*
X21499063Y-8345937D01*
X21426937Y-8345937D01*
X21426937Y-8418063D01*
X21499063Y-8418063D01*
X21499063Y-8672063D02*
X21499063Y-8599937D01*
X21426937Y-8599937D01*
X21426937Y-8672063D01*
X21499063Y-8672063D01*
X21499063Y-8926063D02*
X21499063Y-8853937D01*
X21426937Y-8853937D01*
X21426937Y-8926063D01*
X21499063Y-8926063D01*
X21499063Y-9180063D02*
X21499063Y-9107937D01*
X21426937Y-9107937D01*
X21426937Y-9180063D01*
X21499063Y-9180063D01*
X21499063Y-9434063D02*
X21499063Y-9361937D01*
X21426937Y-9361937D01*
X21426937Y-9434063D01*
X21499063Y-9434063D01*
X21499063Y-9688063D02*
X21499063Y-9615937D01*
X21426937Y-9615937D01*
X21426937Y-9688063D01*
X21499063Y-9688063D01*
X21499063Y-9942063D02*
X21499063Y-9869937D01*
X21426937Y-9869937D01*
X21426937Y-9942063D01*
X21499063Y-9942063D01*
X21499063Y-10196063D02*
X21499063Y-10123937D01*
X21426937Y-10123937D01*
X21426937Y-10196063D01*
X21499063Y-10196063D01*
X21499063Y-10450063D02*
X21499063Y-10377937D01*
X21426937Y-10377937D01*
X21426937Y-10450063D01*
X21499063Y-10450063D01*
X21499063Y-10704063D02*
X21499063Y-10631937D01*
X21426937Y-10631937D01*
X21426937Y-10704063D01*
X21499063Y-10704063D01*
X21499063Y-10958063D02*
X21499063Y-10885937D01*
X21426937Y-10885937D01*
X21426937Y-10958063D01*
X21499063Y-10958063D01*
X16292000Y-10155000D02*
X16347000Y-10100000D01*
X16292000Y-10045000D01*
X16237000Y-10100000D01*
X16292000Y-10155000D01*
X16400000Y-7355000D02*
X16455000Y-7300000D01*
X16400000Y-7245000D01*
X16345000Y-7300000D01*
X16400000Y-7355000D01*
X16546000Y-10155000D02*
X16601000Y-10100000D01*
X16546000Y-10045000D01*
X16491000Y-10100000D01*
X16546000Y-10155000D01*
X16654000Y-7355000D02*
X16709000Y-7300000D01*
X16654000Y-7245000D01*
X16599000Y-7300000D01*
X16654000Y-7355000D01*
X16800000Y-10155000D02*
X16855000Y-10100000D01*
X16800000Y-10045000D01*
X16745000Y-10100000D01*
X16800000Y-10155000D01*
X16908000Y-7355000D02*
X16963000Y-7300000D01*
X16908000Y-7245000D01*
X16853000Y-7300000D01*
X16908000Y-7355000D01*
X14540500Y-6440500D02*
X14659500Y-6559500D01*
X14659500Y-6440500D02*
X14540500Y-6559500D01*
X14659500Y-6500000D02*
G75*
G03*
X14659500Y-6500000I-59500J0D01*
G01*
X14540500Y-6694500D02*
X14659500Y-6813500D01*
X14659500Y-6694500D02*
X14540500Y-6813500D01*
X14659500Y-6754000D02*
G75*
G03*
X14659500Y-6754000I-59500J0D01*
G01*
X14540500Y-6948500D02*
X14659500Y-7067500D01*
X14659500Y-6948500D02*
X14540500Y-7067500D01*
X14659500Y-7008000D02*
G75*
G03*
X14659500Y-7008000I-59500J0D01*
G01*
X14540500Y-7202500D02*
X14659500Y-7321500D01*
X14659500Y-7202500D02*
X14540500Y-7321500D01*
X14659500Y-7262000D02*
G75*
G03*
X14659500Y-7262000I-59500J0D01*
G01*
X14540500Y-7456500D02*
X14659500Y-7575500D01*
X14659500Y-7456500D02*
X14540500Y-7575500D01*
X14659500Y-7516000D02*
G75*
G03*
X14659500Y-7516000I-59500J0D01*
G01*
X18190500Y-9420500D02*
X18309500Y-9539500D01*
X18309500Y-9420500D02*
X18190500Y-9539500D01*
X18309500Y-9480000D02*
G75*
G03*
X18309500Y-9480000I-59500J0D01*
G01*
X18190500Y-9674500D02*
X18309500Y-9793500D01*
X18309500Y-9674500D02*
X18190500Y-9793500D01*
X18309500Y-9734000D02*
G75*
G03*
X18309500Y-9734000I-59500J0D01*
G01*
X18190500Y-9928500D02*
X18309500Y-10047500D01*
X18309500Y-9928500D02*
X18190500Y-10047500D01*
X18309500Y-9988000D02*
G75*
G03*
X18309500Y-9988000I-59500J0D01*
G01*
X18190500Y-10182500D02*
X18309500Y-10301500D01*
X18309500Y-10182500D02*
X18190500Y-10301500D01*
X18309500Y-10242000D02*
G75*
G03*
X18309500Y-10242000I-59500J0D01*
G01*
X18190500Y-10436500D02*
X18309500Y-10555500D01*
X18309500Y-10436500D02*
X18190500Y-10555500D01*
X18309500Y-10496000D02*
G75*
G03*
X18309500Y-10496000I-59500J0D01*
G01*
X18190500Y-10690500D02*
X18309500Y-10809500D01*
X18309500Y-10690500D02*
X18190500Y-10809500D01*
X18309500Y-10750000D02*
G75*
G03*
X18309500Y-10750000I-59500J0D01*
G01*
X22440500Y-7154500D02*
X22559500Y-7273500D01*
X22559500Y-7154500D02*
X22440500Y-7273500D01*
X22559500Y-7214000D02*
G75*
G03*
X22559500Y-7214000I-59500J0D01*
G01*
X22440500Y-7408500D02*
X22559500Y-7527500D01*
X22559500Y-7408500D02*
X22440500Y-7527500D01*
X22559500Y-7468000D02*
G75*
G03*
X22559500Y-7468000I-59500J0D01*
G01*
X22440500Y-7662500D02*
X22559500Y-7781500D01*
X22559500Y-7662500D02*
X22440500Y-7781500D01*
X22559500Y-7722000D02*
G75*
G03*
X22559500Y-7722000I-59500J0D01*
G01*
X22440500Y-7916500D02*
X22559500Y-8035500D01*
X22559500Y-7916500D02*
X22440500Y-8035500D01*
X22559500Y-7976000D02*
G75*
G03*
X22559500Y-7976000I-59500J0D01*
G01*
X22440500Y-8170500D02*
X22559500Y-8289500D01*
X22559500Y-8170500D02*
X22440500Y-8289500D01*
X22559500Y-8230000D02*
G75*
G03*
X22559500Y-8230000I-59500J0D01*
G01*
X22440500Y-8424500D02*
X22559500Y-8543500D01*
X22559500Y-8424500D02*
X22440500Y-8543500D01*
X22559500Y-8484000D02*
G75*
G03*
X22559500Y-8484000I-59500J0D01*
G01*
X22440500Y-8678500D02*
X22559500Y-8797500D01*
X22559500Y-8678500D02*
X22440500Y-8797500D01*
X22559500Y-8738000D02*
G75*
G03*
X22559500Y-8738000I-59500J0D01*
G01*
X22440500Y-8932500D02*
X22559500Y-9051500D01*
X22559500Y-8932500D02*
X22440500Y-9051500D01*
X22559500Y-8992000D02*
G75*
G03*
X22559500Y-8992000I-59500J0D01*
G01*
X22440500Y-9186500D02*
X22559500Y-9305500D01*
X22559500Y-9186500D02*
X22440500Y-9305500D01*
X22559500Y-9246000D02*
G75*
G03*
X22559500Y-9246000I-59500J0D01*
G01*
X22440500Y-9440500D02*
X22559500Y-9559500D01*
X22559500Y-9440500D02*
X22440500Y-9559500D01*
X22559500Y-9500000D02*
G75*
G03*
X22559500Y-9500000I-59500J0D01*
G01*
X24819500Y-6440500D02*
X24938500Y-6559500D01*
X24938500Y-6440500D02*
X24819500Y-6559500D01*
X24938500Y-6500000D02*
G75*
G03*
X24938500Y-6500000I-59500J0D01*
G01*
X25073500Y-6440500D02*
X25192500Y-6559500D01*
X25192500Y-6440500D02*
X25073500Y-6559500D01*
X25192500Y-6500000D02*
G75*
G03*
X25192500Y-6500000I-59500J0D01*
G01*
X25073500Y-11076500D02*
X25192500Y-11195500D01*
X25192500Y-11076500D02*
X25073500Y-11195500D01*
X25192500Y-11136000D02*
G75*
G03*
X25192500Y-11136000I-59500J0D01*
G01*
X25327500Y-6440500D02*
X25446500Y-6559500D01*
X25446500Y-6440500D02*
X25327500Y-6559500D01*
X25446500Y-6500000D02*
G75*
G03*
X25446500Y-6500000I-59500J0D01*
G01*
X25327500Y-11076500D02*
X25446500Y-11195500D01*
X25446500Y-11076500D02*
X25327500Y-11195500D01*
X25446500Y-11136000D02*
G75*
G03*
X25446500Y-11136000I-59500J0D01*
G01*
X25581500Y-6440500D02*
X25700500Y-6559500D01*
X25700500Y-6440500D02*
X25581500Y-6559500D01*
X25700500Y-6500000D02*
G75*
G03*
X25700500Y-6500000I-59500J0D01*
G01*
X25581500Y-11076500D02*
X25700500Y-11195500D01*
X25700500Y-11076500D02*
X25581500Y-11195500D01*
X25700500Y-11136000D02*
G75*
G03*
X25700500Y-11136000I-59500J0D01*
G01*
X25835500Y-6440500D02*
X25954500Y-6559500D01*
X25954500Y-6440500D02*
X25835500Y-6559500D01*
X25954500Y-6500000D02*
G75*
G03*
X25954500Y-6500000I-59500J0D01*
G01*
X15335000Y-8485000D02*
X15465000Y-8615000D01*
X15465000Y-8485000D02*
X15335000Y-8615000D01*
X15400000Y-8485000D02*
X15400000Y-8615000D01*
X15335000Y-8550000D02*
X15465000Y-8550000D01*
X16335000Y-8235000D02*
X16465000Y-8365000D01*
X16465000Y-8235000D02*
X16335000Y-8365000D01*
X16400000Y-8235000D02*
X16400000Y-8365000D01*
X16335000Y-8300000D02*
X16465000Y-8300000D01*
X16335000Y-8735000D02*
X16465000Y-8865000D01*
X16465000Y-8735000D02*
X16335000Y-8865000D01*
X16400000Y-8735000D02*
X16400000Y-8865000D01*
X16335000Y-8800000D02*
X16465000Y-8800000D01*
X14340000Y-5290000D02*
X14660000Y-5610000D01*
X14660000Y-5290000D02*
X14340000Y-5610000D01*
X14613138Y-5563138D02*
X14613138Y-5336862D01*
X14386862Y-5336862D01*
X14386862Y-5563138D01*
X14613138Y-5563138D01*
X14340000Y-11840000D02*
X14660000Y-12160000D01*
X14660000Y-11840000D02*
X14340000Y-12160000D01*
X14613138Y-12113138D02*
X14613138Y-11886862D01*
X14386862Y-11886862D01*
X14386862Y-12113138D01*
X14613138Y-12113138D01*
X22090000Y-5340000D02*
X22410000Y-5660000D01*
X22410000Y-5340000D02*
X22090000Y-5660000D01*
X22363138Y-5613138D02*
X22363138Y-5386862D01*
X22136862Y-5386862D01*
X22136862Y-5613138D01*
X22363138Y-5613138D01*
X22090000Y-11840000D02*
X22410000Y-12160000D01*
X22410000Y-11840000D02*
X22090000Y-12160000D01*
X22363138Y-12113138D02*
X22363138Y-11886862D01*
X22136862Y-11886862D01*
X22136862Y-12113138D01*
X22363138Y-12113138D01*
X23340000Y-5340000D02*
X23660000Y-5660000D01*
X23660000Y-5340000D02*
X23340000Y-5660000D01*
X23613138Y-5613138D02*
X23613138Y-5386862D01*
X23386862Y-5386862D01*
X23386862Y-5613138D01*
X23613138Y-5613138D01*
X23340000Y-11840000D02*
X23660000Y-12160000D01*
X23660000Y-11840000D02*
X23340000Y-12160000D01*
X23613138Y-12113138D02*
X23613138Y-11886862D01*
X23386862Y-11886862D01*
X23386862Y-12113138D01*
X23613138Y-12113138D01*
X27340000Y-5340000D02*
X27660000Y-5660000D01*
X27660000Y-5340000D02*
X27340000Y-5660000D01*
X27613138Y-5613138D02*
X27613138Y-5386862D01*
X27386862Y-5386862D01*
X27386862Y-5613138D01*
X27613138Y-5613138D01*
X27340000Y-11840000D02*
X27660000Y-12160000D01*
X27660000Y-11840000D02*
X27340000Y-12160000D01*
X27613138Y-12113138D02*
X27613138Y-11886862D01*
X27386862Y-11886862D01*
X27386862Y-12113138D01*
X27613138Y-12113138D01*
D12*
X14283928Y-12968214D02*
X14283928Y-12668214D01*
X14355357Y-12668214D01*
X14398214Y-12682500D01*
X14426786Y-12711071D01*
X14441071Y-12739643D01*
X14455357Y-12796786D01*
X14455357Y-12839643D01*
X14441071Y-12896786D01*
X14426786Y-12925357D01*
X14398214Y-12953929D01*
X14355357Y-12968214D01*
X14283928Y-12968214D01*
X14583928Y-12968214D02*
X14583928Y-12768214D01*
X14583928Y-12825357D02*
X14598214Y-12796786D01*
X14612500Y-12782500D01*
X14641071Y-12768214D01*
X14669643Y-12768214D01*
X14769643Y-12968214D02*
X14769643Y-12768214D01*
X14769643Y-12668214D02*
X14755357Y-12682500D01*
X14769643Y-12696786D01*
X14783928Y-12682500D01*
X14769643Y-12668214D01*
X14769643Y-12696786D01*
X14955357Y-12968214D02*
X14926786Y-12953929D01*
X14912500Y-12925357D01*
X14912500Y-12668214D01*
X15112500Y-12968214D02*
X15083928Y-12953929D01*
X15069643Y-12925357D01*
X15069643Y-12668214D01*
X15455357Y-12968214D02*
X15455357Y-12668214D01*
X15555357Y-12882500D01*
X15655357Y-12668214D01*
X15655357Y-12968214D01*
X15926786Y-12968214D02*
X15926786Y-12811071D01*
X15912500Y-12782500D01*
X15883928Y-12768214D01*
X15826786Y-12768214D01*
X15798214Y-12782500D01*
X15926786Y-12953929D02*
X15898214Y-12968214D01*
X15826786Y-12968214D01*
X15798214Y-12953929D01*
X15783928Y-12925357D01*
X15783928Y-12896786D01*
X15798214Y-12868214D01*
X15826786Y-12853929D01*
X15898214Y-12853929D01*
X15926786Y-12839643D01*
X16069643Y-12768214D02*
X16069643Y-13068214D01*
X16069643Y-12782500D02*
X16098214Y-12768214D01*
X16155357Y-12768214D01*
X16183928Y-12782500D01*
X16198214Y-12796786D01*
X16212500Y-12825357D01*
X16212500Y-12911071D01*
X16198214Y-12939643D01*
X16183928Y-12953929D01*
X16155357Y-12968214D01*
X16098214Y-12968214D01*
X16069643Y-12953929D01*
X16341071Y-12939643D02*
X16355357Y-12953929D01*
X16341071Y-12968214D01*
X16326786Y-12953929D01*
X16341071Y-12939643D01*
X16341071Y-12968214D01*
X16341071Y-12782500D02*
X16355357Y-12796786D01*
X16341071Y-12811071D01*
X16326786Y-12796786D01*
X16341071Y-12782500D01*
X16341071Y-12811071D01*
X13957500Y-13442500D02*
X13997500Y-13482500D01*
X13997500Y-13442500D02*
X13957500Y-13482500D01*
X14341071Y-13298214D02*
X14369643Y-13298214D01*
X14398214Y-13312500D01*
X14412500Y-13326786D01*
X14426786Y-13355357D01*
X14441071Y-13412500D01*
X14441071Y-13483929D01*
X14426786Y-13541071D01*
X14412500Y-13569643D01*
X14398214Y-13583929D01*
X14369643Y-13598214D01*
X14341071Y-13598214D01*
X14312500Y-13583929D01*
X14298214Y-13569643D01*
X14283928Y-13541071D01*
X14269643Y-13483929D01*
X14269643Y-13412500D01*
X14283928Y-13355357D01*
X14298214Y-13326786D01*
X14312500Y-13312500D01*
X14341071Y-13298214D01*
X14569643Y-13569643D02*
X14583928Y-13583929D01*
X14569643Y-13598214D01*
X14555357Y-13583929D01*
X14569643Y-13569643D01*
X14569643Y-13598214D01*
X14841071Y-13398214D02*
X14841071Y-13598214D01*
X14769643Y-13283929D02*
X14698214Y-13498214D01*
X14883928Y-13498214D01*
X15055357Y-13298214D02*
X15083928Y-13298214D01*
X15112500Y-13312500D01*
X15126786Y-13326786D01*
X15141071Y-13355357D01*
X15155357Y-13412500D01*
X15155357Y-13483929D01*
X15141071Y-13541071D01*
X15126786Y-13569643D01*
X15112500Y-13583929D01*
X15083928Y-13598214D01*
X15055357Y-13598214D01*
X15026786Y-13583929D01*
X15012500Y-13569643D01*
X14998214Y-13541071D01*
X14983928Y-13483929D01*
X14983928Y-13412500D01*
X14998214Y-13355357D01*
X15012500Y-13326786D01*
X15026786Y-13312500D01*
X15055357Y-13298214D01*
X15341071Y-13298214D02*
X15369643Y-13298214D01*
X15398214Y-13312500D01*
X15412500Y-13326786D01*
X15426786Y-13355357D01*
X15441071Y-13412500D01*
X15441071Y-13483929D01*
X15426786Y-13541071D01*
X15412500Y-13569643D01*
X15398214Y-13583929D01*
X15369643Y-13598214D01*
X15341071Y-13598214D01*
X15312500Y-13583929D01*
X15298214Y-13569643D01*
X15283928Y-13541071D01*
X15269643Y-13483929D01*
X15269643Y-13412500D01*
X15283928Y-13355357D01*
X15298214Y-13326786D01*
X15312500Y-13312500D01*
X15341071Y-13298214D01*
X15569643Y-13598214D02*
X15569643Y-13398214D01*
X15569643Y-13426786D02*
X15583928Y-13412500D01*
X15612500Y-13398214D01*
X15655357Y-13398214D01*
X15683928Y-13412500D01*
X15698214Y-13441071D01*
X15698214Y-13598214D01*
X15698214Y-13441071D02*
X15712500Y-13412500D01*
X15741071Y-13398214D01*
X15783928Y-13398214D01*
X15812500Y-13412500D01*
X15826786Y-13441071D01*
X15826786Y-13598214D01*
X15969643Y-13598214D02*
X15969643Y-13398214D01*
X15969643Y-13426786D02*
X15983928Y-13412500D01*
X16012500Y-13398214D01*
X16055357Y-13398214D01*
X16083928Y-13412500D01*
X16098214Y-13441071D01*
X16098214Y-13598214D01*
X16098214Y-13441071D02*
X16112500Y-13412500D01*
X16141071Y-13398214D01*
X16183928Y-13398214D01*
X16212500Y-13412500D01*
X16226786Y-13441071D01*
X16226786Y-13598214D01*
X16812500Y-13283929D02*
X16555357Y-13669643D01*
X17198214Y-13298214D02*
X17226786Y-13298214D01*
X17255357Y-13312500D01*
X17269643Y-13326786D01*
X17283928Y-13355357D01*
X17298214Y-13412500D01*
X17298214Y-13483929D01*
X17283928Y-13541071D01*
X17269643Y-13569643D01*
X17255357Y-13583929D01*
X17226786Y-13598214D01*
X17198214Y-13598214D01*
X17169643Y-13583929D01*
X17155357Y-13569643D01*
X17141071Y-13541071D01*
X17126786Y-13483929D01*
X17126786Y-13412500D01*
X17141071Y-13355357D01*
X17155357Y-13326786D01*
X17169643Y-13312500D01*
X17198214Y-13298214D01*
X17426786Y-13569643D02*
X17441071Y-13583929D01*
X17426786Y-13598214D01*
X17412500Y-13583929D01*
X17426786Y-13569643D01*
X17426786Y-13598214D01*
X17626786Y-13298214D02*
X17655357Y-13298214D01*
X17683928Y-13312500D01*
X17698214Y-13326786D01*
X17712500Y-13355357D01*
X17726786Y-13412500D01*
X17726786Y-13483929D01*
X17712500Y-13541071D01*
X17698214Y-13569643D01*
X17683928Y-13583929D01*
X17655357Y-13598214D01*
X17626786Y-13598214D01*
X17598214Y-13583929D01*
X17583928Y-13569643D01*
X17569643Y-13541071D01*
X17555357Y-13483929D01*
X17555357Y-13412500D01*
X17569643Y-13355357D01*
X17583928Y-13326786D01*
X17598214Y-13312500D01*
X17626786Y-13298214D01*
X18012500Y-13598214D02*
X17841071Y-13598214D01*
X17926786Y-13598214D02*
X17926786Y-13298214D01*
X17898214Y-13341071D01*
X17869643Y-13369643D01*
X17841071Y-13383929D01*
X18283928Y-13298214D02*
X18141071Y-13298214D01*
X18126786Y-13441071D01*
X18141071Y-13426786D01*
X18169643Y-13412500D01*
X18241071Y-13412500D01*
X18269643Y-13426786D01*
X18283928Y-13441071D01*
X18298214Y-13469643D01*
X18298214Y-13541071D01*
X18283928Y-13569643D01*
X18269643Y-13583929D01*
X18241071Y-13598214D01*
X18169643Y-13598214D01*
X18141071Y-13583929D01*
X18126786Y-13569643D01*
X18398214Y-13298214D02*
X18598214Y-13298214D01*
X18469643Y-13598214D01*
X18698214Y-13298214D02*
X18698214Y-13355357D01*
X18812500Y-13298214D02*
X18812500Y-13355357D01*
X19255357Y-13712500D02*
X19241071Y-13698214D01*
X19212500Y-13655357D01*
X19198214Y-13626786D01*
X19183928Y-13583929D01*
X19169643Y-13512500D01*
X19169643Y-13455357D01*
X19183928Y-13383929D01*
X19198214Y-13341071D01*
X19212500Y-13312500D01*
X19241071Y-13269643D01*
X19255357Y-13255357D01*
X19341071Y-13298214D02*
X19526786Y-13298214D01*
X19426786Y-13412500D01*
X19469643Y-13412500D01*
X19498214Y-13426786D01*
X19512500Y-13441071D01*
X19526786Y-13469643D01*
X19526786Y-13541071D01*
X19512500Y-13569643D01*
X19498214Y-13583929D01*
X19469643Y-13598214D01*
X19383928Y-13598214D01*
X19355357Y-13583929D01*
X19341071Y-13569643D01*
X19798214Y-13298214D02*
X19655357Y-13298214D01*
X19641071Y-13441071D01*
X19655357Y-13426786D01*
X19683928Y-13412500D01*
X19755357Y-13412500D01*
X19783928Y-13426786D01*
X19798214Y-13441071D01*
X19812500Y-13469643D01*
X19812500Y-13541071D01*
X19798214Y-13569643D01*
X19783928Y-13583929D01*
X19755357Y-13598214D01*
X19683928Y-13598214D01*
X19655357Y-13583929D01*
X19641071Y-13569643D01*
X20169643Y-13598214D02*
X20169643Y-13298214D01*
X20298214Y-13598214D02*
X20298214Y-13441071D01*
X20283928Y-13412500D01*
X20255357Y-13398214D01*
X20212500Y-13398214D01*
X20183928Y-13412500D01*
X20169643Y-13426786D01*
X20483928Y-13598214D02*
X20455357Y-13583929D01*
X20441071Y-13569643D01*
X20426786Y-13541071D01*
X20426786Y-13455357D01*
X20441071Y-13426786D01*
X20455357Y-13412500D01*
X20483928Y-13398214D01*
X20526786Y-13398214D01*
X20555357Y-13412500D01*
X20569643Y-13426786D01*
X20583928Y-13455357D01*
X20583928Y-13541071D01*
X20569643Y-13569643D01*
X20555357Y-13583929D01*
X20526786Y-13598214D01*
X20483928Y-13598214D01*
X20755357Y-13598214D02*
X20726786Y-13583929D01*
X20712500Y-13555357D01*
X20712500Y-13298214D01*
X20983928Y-13583929D02*
X20955357Y-13598214D01*
X20898214Y-13598214D01*
X20869643Y-13583929D01*
X20855357Y-13555357D01*
X20855357Y-13441071D01*
X20869643Y-13412500D01*
X20898214Y-13398214D01*
X20955357Y-13398214D01*
X20983928Y-13412500D01*
X20998214Y-13441071D01*
X20998214Y-13469643D01*
X20855357Y-13498214D01*
X21112500Y-13583929D02*
X21141071Y-13598214D01*
X21198214Y-13598214D01*
X21226786Y-13583929D01*
X21241071Y-13555357D01*
X21241071Y-13541071D01*
X21226786Y-13512500D01*
X21198214Y-13498214D01*
X21155357Y-13498214D01*
X21126786Y-13483929D01*
X21112500Y-13455357D01*
X21112500Y-13441071D01*
X21126786Y-13412500D01*
X21155357Y-13398214D01*
X21198214Y-13398214D01*
X21226786Y-13412500D01*
X21341071Y-13712500D02*
X21355357Y-13698214D01*
X21383928Y-13655357D01*
X21398214Y-13626786D01*
X21412500Y-13583929D01*
X21426786Y-13512500D01*
X21426786Y-13455357D01*
X21412500Y-13383929D01*
X21398214Y-13341071D01*
X21383928Y-13312500D01*
X21355357Y-13269643D01*
X21341071Y-13255357D01*
X13997500Y-13858500D02*
G75*
G03*
X13997500Y-13858500I-25000J0D01*
G01*
X14341071Y-13694214D02*
X14369643Y-13694214D01*
X14398214Y-13708500D01*
X14412500Y-13722786D01*
X14426786Y-13751357D01*
X14441071Y-13808500D01*
X14441071Y-13879929D01*
X14426786Y-13937071D01*
X14412500Y-13965643D01*
X14398214Y-13979929D01*
X14369643Y-13994214D01*
X14341071Y-13994214D01*
X14312500Y-13979929D01*
X14298214Y-13965643D01*
X14283928Y-13937071D01*
X14269643Y-13879929D01*
X14269643Y-13808500D01*
X14283928Y-13751357D01*
X14298214Y-13722786D01*
X14312500Y-13708500D01*
X14341071Y-13694214D01*
X14569643Y-13965643D02*
X14583928Y-13979929D01*
X14569643Y-13994214D01*
X14555357Y-13979929D01*
X14569643Y-13965643D01*
X14569643Y-13994214D01*
X14855357Y-13694214D02*
X14712500Y-13694214D01*
X14698214Y-13837071D01*
X14712500Y-13822786D01*
X14741071Y-13808500D01*
X14812500Y-13808500D01*
X14841071Y-13822786D01*
X14855357Y-13837071D01*
X14869643Y-13865643D01*
X14869643Y-13937071D01*
X14855357Y-13965643D01*
X14841071Y-13979929D01*
X14812500Y-13994214D01*
X14741071Y-13994214D01*
X14712500Y-13979929D01*
X14698214Y-13965643D01*
X15055357Y-13694214D02*
X15083928Y-13694214D01*
X15112500Y-13708500D01*
X15126786Y-13722786D01*
X15141071Y-13751357D01*
X15155357Y-13808500D01*
X15155357Y-13879929D01*
X15141071Y-13937071D01*
X15126786Y-13965643D01*
X15112500Y-13979929D01*
X15083928Y-13994214D01*
X15055357Y-13994214D01*
X15026786Y-13979929D01*
X15012500Y-13965643D01*
X14998214Y-13937071D01*
X14983928Y-13879929D01*
X14983928Y-13808500D01*
X14998214Y-13751357D01*
X15012500Y-13722786D01*
X15026786Y-13708500D01*
X15055357Y-13694214D01*
X15341071Y-13694214D02*
X15369643Y-13694214D01*
X15398214Y-13708500D01*
X15412500Y-13722786D01*
X15426786Y-13751357D01*
X15441071Y-13808500D01*
X15441071Y-13879929D01*
X15426786Y-13937071D01*
X15412500Y-13965643D01*
X15398214Y-13979929D01*
X15369643Y-13994214D01*
X15341071Y-13994214D01*
X15312500Y-13979929D01*
X15298214Y-13965643D01*
X15283928Y-13937071D01*
X15269643Y-13879929D01*
X15269643Y-13808500D01*
X15283928Y-13751357D01*
X15298214Y-13722786D01*
X15312500Y-13708500D01*
X15341071Y-13694214D01*
X15569643Y-13994214D02*
X15569643Y-13794214D01*
X15569643Y-13822786D02*
X15583928Y-13808500D01*
X15612500Y-13794214D01*
X15655357Y-13794214D01*
X15683928Y-13808500D01*
X15698214Y-13837071D01*
X15698214Y-13994214D01*
X15698214Y-13837071D02*
X15712500Y-13808500D01*
X15741071Y-13794214D01*
X15783928Y-13794214D01*
X15812500Y-13808500D01*
X15826786Y-13837071D01*
X15826786Y-13994214D01*
X15969643Y-13994214D02*
X15969643Y-13794214D01*
X15969643Y-13822786D02*
X15983928Y-13808500D01*
X16012500Y-13794214D01*
X16055357Y-13794214D01*
X16083928Y-13808500D01*
X16098214Y-13837071D01*
X16098214Y-13994214D01*
X16098214Y-13837071D02*
X16112500Y-13808500D01*
X16141071Y-13794214D01*
X16183928Y-13794214D01*
X16212500Y-13808500D01*
X16226786Y-13837071D01*
X16226786Y-13994214D01*
X16812500Y-13679929D02*
X16555357Y-14065643D01*
X17198214Y-13694214D02*
X17226786Y-13694214D01*
X17255357Y-13708500D01*
X17269643Y-13722786D01*
X17283928Y-13751357D01*
X17298214Y-13808500D01*
X17298214Y-13879929D01*
X17283928Y-13937071D01*
X17269643Y-13965643D01*
X17255357Y-13979929D01*
X17226786Y-13994214D01*
X17198214Y-13994214D01*
X17169643Y-13979929D01*
X17155357Y-13965643D01*
X17141071Y-13937071D01*
X17126786Y-13879929D01*
X17126786Y-13808500D01*
X17141071Y-13751357D01*
X17155357Y-13722786D01*
X17169643Y-13708500D01*
X17198214Y-13694214D01*
X17426786Y-13965643D02*
X17441071Y-13979929D01*
X17426786Y-13994214D01*
X17412500Y-13979929D01*
X17426786Y-13965643D01*
X17426786Y-13994214D01*
X17626786Y-13694214D02*
X17655357Y-13694214D01*
X17683928Y-13708500D01*
X17698214Y-13722786D01*
X17712500Y-13751357D01*
X17726786Y-13808500D01*
X17726786Y-13879929D01*
X17712500Y-13937071D01*
X17698214Y-13965643D01*
X17683928Y-13979929D01*
X17655357Y-13994214D01*
X17626786Y-13994214D01*
X17598214Y-13979929D01*
X17583928Y-13965643D01*
X17569643Y-13937071D01*
X17555357Y-13879929D01*
X17555357Y-13808500D01*
X17569643Y-13751357D01*
X17583928Y-13722786D01*
X17598214Y-13708500D01*
X17626786Y-13694214D01*
X18012500Y-13994214D02*
X17841071Y-13994214D01*
X17926786Y-13994214D02*
X17926786Y-13694214D01*
X17898214Y-13737071D01*
X17869643Y-13765643D01*
X17841071Y-13779929D01*
X18155357Y-13994214D02*
X18212500Y-13994214D01*
X18241071Y-13979929D01*
X18255357Y-13965643D01*
X18283928Y-13922786D01*
X18298214Y-13865643D01*
X18298214Y-13751357D01*
X18283928Y-13722786D01*
X18269643Y-13708500D01*
X18241071Y-13694214D01*
X18183928Y-13694214D01*
X18155357Y-13708500D01*
X18141071Y-13722786D01*
X18126786Y-13751357D01*
X18126786Y-13822786D01*
X18141071Y-13851357D01*
X18155357Y-13865643D01*
X18183928Y-13879929D01*
X18241071Y-13879929D01*
X18269643Y-13865643D01*
X18283928Y-13851357D01*
X18298214Y-13822786D01*
X18398214Y-13694214D02*
X18598214Y-13694214D01*
X18469643Y-13994214D01*
X18698214Y-13694214D02*
X18698214Y-13751357D01*
X18812500Y-13694214D02*
X18812500Y-13751357D01*
X19255357Y-14108500D02*
X19241071Y-14094214D01*
X19212500Y-14051357D01*
X19198214Y-14022786D01*
X19183928Y-13979929D01*
X19169643Y-13908500D01*
X19169643Y-13851357D01*
X19183928Y-13779929D01*
X19198214Y-13737071D01*
X19212500Y-13708500D01*
X19241071Y-13665643D01*
X19255357Y-13651357D01*
X19498214Y-13694214D02*
X19441071Y-13694214D01*
X19412500Y-13708500D01*
X19398214Y-13722786D01*
X19369643Y-13765643D01*
X19355357Y-13822786D01*
X19355357Y-13937071D01*
X19369643Y-13965643D01*
X19383928Y-13979929D01*
X19412500Y-13994214D01*
X19469643Y-13994214D01*
X19498214Y-13979929D01*
X19512500Y-13965643D01*
X19526786Y-13937071D01*
X19526786Y-13865643D01*
X19512500Y-13837071D01*
X19498214Y-13822786D01*
X19469643Y-13808500D01*
X19412500Y-13808500D01*
X19383928Y-13822786D01*
X19369643Y-13837071D01*
X19355357Y-13865643D01*
X19783928Y-13794214D02*
X19783928Y-13994214D01*
X19712500Y-13679929D02*
X19641071Y-13894214D01*
X19826786Y-13894214D01*
X20169643Y-13994214D02*
X20169643Y-13694214D01*
X20298214Y-13994214D02*
X20298214Y-13837071D01*
X20283928Y-13808500D01*
X20255357Y-13794214D01*
X20212500Y-13794214D01*
X20183928Y-13808500D01*
X20169643Y-13822786D01*
X20483928Y-13994214D02*
X20455357Y-13979929D01*
X20441071Y-13965643D01*
X20426786Y-13937071D01*
X20426786Y-13851357D01*
X20441071Y-13822786D01*
X20455357Y-13808500D01*
X20483928Y-13794214D01*
X20526786Y-13794214D01*
X20555357Y-13808500D01*
X20569643Y-13822786D01*
X20583928Y-13851357D01*
X20583928Y-13937071D01*
X20569643Y-13965643D01*
X20555357Y-13979929D01*
X20526786Y-13994214D01*
X20483928Y-13994214D01*
X20755357Y-13994214D02*
X20726786Y-13979929D01*
X20712500Y-13951357D01*
X20712500Y-13694214D01*
X20983928Y-13979929D02*
X20955357Y-13994214D01*
X20898214Y-13994214D01*
X20869643Y-13979929D01*
X20855357Y-13951357D01*
X20855357Y-13837071D01*
X20869643Y-13808500D01*
X20898214Y-13794214D01*
X20955357Y-13794214D01*
X20983928Y-13808500D01*
X20998214Y-13837071D01*
X20998214Y-13865643D01*
X20855357Y-13894214D01*
X21112500Y-13979929D02*
X21141071Y-13994214D01*
X21198214Y-13994214D01*
X21226786Y-13979929D01*
X21241071Y-13951357D01*
X21241071Y-13937071D01*
X21226786Y-13908500D01*
X21198214Y-13894214D01*
X21155357Y-13894214D01*
X21126786Y-13879929D01*
X21112500Y-13851357D01*
X21112500Y-13837071D01*
X21126786Y-13808500D01*
X21155357Y-13794214D01*
X21198214Y-13794214D01*
X21226786Y-13808500D01*
X21341071Y-14108500D02*
X21355357Y-14094214D01*
X21383928Y-14051357D01*
X21398214Y-14022786D01*
X21412500Y-13979929D01*
X21426786Y-13908500D01*
X21426786Y-13851357D01*
X21412500Y-13779929D01*
X21398214Y-13737071D01*
X21383928Y-13708500D01*
X21355357Y-13665643D01*
X21341071Y-13651357D01*
X13957500Y-14214500D02*
X13957500Y-14294500D01*
X13917500Y-14254500D02*
X13997500Y-14254500D01*
X14341071Y-14090214D02*
X14369643Y-14090214D01*
X14398214Y-14104500D01*
X14412500Y-14118786D01*
X14426786Y-14147357D01*
X14441071Y-14204500D01*
X14441071Y-14275929D01*
X14426786Y-14333071D01*
X14412500Y-14361643D01*
X14398214Y-14375929D01*
X14369643Y-14390214D01*
X14341071Y-14390214D01*
X14312500Y-14375929D01*
X14298214Y-14361643D01*
X14283928Y-14333071D01*
X14269643Y-14275929D01*
X14269643Y-14204500D01*
X14283928Y-14147357D01*
X14298214Y-14118786D01*
X14312500Y-14104500D01*
X14341071Y-14090214D01*
X14569643Y-14361643D02*
X14583928Y-14375929D01*
X14569643Y-14390214D01*
X14555357Y-14375929D01*
X14569643Y-14361643D01*
X14569643Y-14390214D01*
X14755357Y-14218786D02*
X14726786Y-14204500D01*
X14712500Y-14190214D01*
X14698214Y-14161643D01*
X14698214Y-14147357D01*
X14712500Y-14118786D01*
X14726786Y-14104500D01*
X14755357Y-14090214D01*
X14812500Y-14090214D01*
X14841071Y-14104500D01*
X14855357Y-14118786D01*
X14869643Y-14147357D01*
X14869643Y-14161643D01*
X14855357Y-14190214D01*
X14841071Y-14204500D01*
X14812500Y-14218786D01*
X14755357Y-14218786D01*
X14726786Y-14233071D01*
X14712500Y-14247357D01*
X14698214Y-14275929D01*
X14698214Y-14333071D01*
X14712500Y-14361643D01*
X14726786Y-14375929D01*
X14755357Y-14390214D01*
X14812500Y-14390214D01*
X14841071Y-14375929D01*
X14855357Y-14361643D01*
X14869643Y-14333071D01*
X14869643Y-14275929D01*
X14855357Y-14247357D01*
X14841071Y-14233071D01*
X14812500Y-14218786D01*
X15055357Y-14090214D02*
X15083928Y-14090214D01*
X15112500Y-14104500D01*
X15126786Y-14118786D01*
X15141071Y-14147357D01*
X15155357Y-14204500D01*
X15155357Y-14275929D01*
X15141071Y-14333071D01*
X15126786Y-14361643D01*
X15112500Y-14375929D01*
X15083928Y-14390214D01*
X15055357Y-14390214D01*
X15026786Y-14375929D01*
X15012500Y-14361643D01*
X14998214Y-14333071D01*
X14983928Y-14275929D01*
X14983928Y-14204500D01*
X14998214Y-14147357D01*
X15012500Y-14118786D01*
X15026786Y-14104500D01*
X15055357Y-14090214D01*
X15341071Y-14090214D02*
X15369643Y-14090214D01*
X15398214Y-14104500D01*
X15412500Y-14118786D01*
X15426786Y-14147357D01*
X15441071Y-14204500D01*
X15441071Y-14275929D01*
X15426786Y-14333071D01*
X15412500Y-14361643D01*
X15398214Y-14375929D01*
X15369643Y-14390214D01*
X15341071Y-14390214D01*
X15312500Y-14375929D01*
X15298214Y-14361643D01*
X15283928Y-14333071D01*
X15269643Y-14275929D01*
X15269643Y-14204500D01*
X15283928Y-14147357D01*
X15298214Y-14118786D01*
X15312500Y-14104500D01*
X15341071Y-14090214D01*
X15569643Y-14390214D02*
X15569643Y-14190214D01*
X15569643Y-14218786D02*
X15583928Y-14204500D01*
X15612500Y-14190214D01*
X15655357Y-14190214D01*
X15683928Y-14204500D01*
X15698214Y-14233071D01*
X15698214Y-14390214D01*
X15698214Y-14233071D02*
X15712500Y-14204500D01*
X15741071Y-14190214D01*
X15783928Y-14190214D01*
X15812500Y-14204500D01*
X15826786Y-14233071D01*
X15826786Y-14390214D01*
X15969643Y-14390214D02*
X15969643Y-14190214D01*
X15969643Y-14218786D02*
X15983928Y-14204500D01*
X16012500Y-14190214D01*
X16055357Y-14190214D01*
X16083928Y-14204500D01*
X16098214Y-14233071D01*
X16098214Y-14390214D01*
X16098214Y-14233071D02*
X16112500Y-14204500D01*
X16141071Y-14190214D01*
X16183928Y-14190214D01*
X16212500Y-14204500D01*
X16226786Y-14233071D01*
X16226786Y-14390214D01*
X16812500Y-14075929D02*
X16555357Y-14461643D01*
X17198214Y-14090214D02*
X17226786Y-14090214D01*
X17255357Y-14104500D01*
X17269643Y-14118786D01*
X17283928Y-14147357D01*
X17298214Y-14204500D01*
X17298214Y-14275929D01*
X17283928Y-14333071D01*
X17269643Y-14361643D01*
X17255357Y-14375929D01*
X17226786Y-14390214D01*
X17198214Y-14390214D01*
X17169643Y-14375929D01*
X17155357Y-14361643D01*
X17141071Y-14333071D01*
X17126786Y-14275929D01*
X17126786Y-14204500D01*
X17141071Y-14147357D01*
X17155357Y-14118786D01*
X17169643Y-14104500D01*
X17198214Y-14090214D01*
X17426786Y-14361643D02*
X17441071Y-14375929D01*
X17426786Y-14390214D01*
X17412500Y-14375929D01*
X17426786Y-14361643D01*
X17426786Y-14390214D01*
X17626786Y-14090214D02*
X17655357Y-14090214D01*
X17683928Y-14104500D01*
X17698214Y-14118786D01*
X17712500Y-14147357D01*
X17726786Y-14204500D01*
X17726786Y-14275929D01*
X17712500Y-14333071D01*
X17698214Y-14361643D01*
X17683928Y-14375929D01*
X17655357Y-14390214D01*
X17626786Y-14390214D01*
X17598214Y-14375929D01*
X17583928Y-14361643D01*
X17569643Y-14333071D01*
X17555357Y-14275929D01*
X17555357Y-14204500D01*
X17569643Y-14147357D01*
X17583928Y-14118786D01*
X17598214Y-14104500D01*
X17626786Y-14090214D01*
X17826786Y-14090214D02*
X18012500Y-14090214D01*
X17912500Y-14204500D01*
X17955357Y-14204500D01*
X17983928Y-14218786D01*
X17998214Y-14233071D01*
X18012500Y-14261643D01*
X18012500Y-14333071D01*
X17998214Y-14361643D01*
X17983928Y-14375929D01*
X17955357Y-14390214D01*
X17869643Y-14390214D01*
X17841071Y-14375929D01*
X17826786Y-14361643D01*
X18298214Y-14390214D02*
X18126786Y-14390214D01*
X18212500Y-14390214D02*
X18212500Y-14090214D01*
X18183928Y-14133071D01*
X18155357Y-14161643D01*
X18126786Y-14175929D01*
X18569643Y-14090214D02*
X18426786Y-14090214D01*
X18412500Y-14233071D01*
X18426786Y-14218786D01*
X18455357Y-14204500D01*
X18526786Y-14204500D01*
X18555357Y-14218786D01*
X18569643Y-14233071D01*
X18583928Y-14261643D01*
X18583928Y-14333071D01*
X18569643Y-14361643D01*
X18555357Y-14375929D01*
X18526786Y-14390214D01*
X18455357Y-14390214D01*
X18426786Y-14375929D01*
X18412500Y-14361643D01*
X18698214Y-14090214D02*
X18698214Y-14147357D01*
X18812500Y-14090214D02*
X18812500Y-14147357D01*
X19255357Y-14504500D02*
X19241071Y-14490214D01*
X19212500Y-14447357D01*
X19198214Y-14418786D01*
X19183928Y-14375929D01*
X19169643Y-14304500D01*
X19169643Y-14247357D01*
X19183928Y-14175929D01*
X19198214Y-14133071D01*
X19212500Y-14104500D01*
X19241071Y-14061643D01*
X19255357Y-14047357D01*
X19355357Y-14118786D02*
X19369643Y-14104500D01*
X19398214Y-14090214D01*
X19469643Y-14090214D01*
X19498214Y-14104500D01*
X19512500Y-14118786D01*
X19526786Y-14147357D01*
X19526786Y-14175929D01*
X19512500Y-14218786D01*
X19341071Y-14390214D01*
X19526786Y-14390214D01*
X19783928Y-14190214D02*
X19783928Y-14390214D01*
X19712500Y-14075929D02*
X19641071Y-14290214D01*
X19826786Y-14290214D01*
X20169643Y-14390214D02*
X20169643Y-14090214D01*
X20298214Y-14390214D02*
X20298214Y-14233071D01*
X20283928Y-14204500D01*
X20255357Y-14190214D01*
X20212500Y-14190214D01*
X20183928Y-14204500D01*
X20169643Y-14218786D01*
X20483928Y-14390214D02*
X20455357Y-14375929D01*
X20441071Y-14361643D01*
X20426786Y-14333071D01*
X20426786Y-14247357D01*
X20441071Y-14218786D01*
X20455357Y-14204500D01*
X20483928Y-14190214D01*
X20526786Y-14190214D01*
X20555357Y-14204500D01*
X20569643Y-14218786D01*
X20583928Y-14247357D01*
X20583928Y-14333071D01*
X20569643Y-14361643D01*
X20555357Y-14375929D01*
X20526786Y-14390214D01*
X20483928Y-14390214D01*
X20755357Y-14390214D02*
X20726786Y-14375929D01*
X20712500Y-14347357D01*
X20712500Y-14090214D01*
X20983928Y-14375929D02*
X20955357Y-14390214D01*
X20898214Y-14390214D01*
X20869643Y-14375929D01*
X20855357Y-14347357D01*
X20855357Y-14233071D01*
X20869643Y-14204500D01*
X20898214Y-14190214D01*
X20955357Y-14190214D01*
X20983928Y-14204500D01*
X20998214Y-14233071D01*
X20998214Y-14261643D01*
X20855357Y-14290214D01*
X21112500Y-14375929D02*
X21141071Y-14390214D01*
X21198214Y-14390214D01*
X21226786Y-14375929D01*
X21241071Y-14347357D01*
X21241071Y-14333071D01*
X21226786Y-14304500D01*
X21198214Y-14290214D01*
X21155357Y-14290214D01*
X21126786Y-14275929D01*
X21112500Y-14247357D01*
X21112500Y-14233071D01*
X21126786Y-14204500D01*
X21155357Y-14190214D01*
X21198214Y-14190214D01*
X21226786Y-14204500D01*
X21341071Y-14504500D02*
X21355357Y-14490214D01*
X21383928Y-14447357D01*
X21398214Y-14418786D01*
X21412500Y-14375929D01*
X21426786Y-14304500D01*
X21426786Y-14247357D01*
X21412500Y-14175929D01*
X21398214Y-14133071D01*
X21383928Y-14104500D01*
X21355357Y-14061643D01*
X21341071Y-14047357D01*
X13982563Y-14686563D02*
X13982563Y-14614437D01*
X13910437Y-14614437D01*
X13910437Y-14686563D01*
X13982563Y-14686563D01*
X14441071Y-14786214D02*
X14269643Y-14786214D01*
X14355357Y-14786214D02*
X14355357Y-14486214D01*
X14326786Y-14529071D01*
X14298214Y-14557643D01*
X14269643Y-14571929D01*
X14569643Y-14757643D02*
X14583928Y-14771929D01*
X14569643Y-14786214D01*
X14555357Y-14771929D01*
X14569643Y-14757643D01*
X14569643Y-14786214D01*
X14769643Y-14486214D02*
X14798214Y-14486214D01*
X14826786Y-14500500D01*
X14841071Y-14514786D01*
X14855357Y-14543357D01*
X14869643Y-14600500D01*
X14869643Y-14671929D01*
X14855357Y-14729071D01*
X14841071Y-14757643D01*
X14826786Y-14771929D01*
X14798214Y-14786214D01*
X14769643Y-14786214D01*
X14741071Y-14771929D01*
X14726786Y-14757643D01*
X14712500Y-14729071D01*
X14698214Y-14671929D01*
X14698214Y-14600500D01*
X14712500Y-14543357D01*
X14726786Y-14514786D01*
X14741071Y-14500500D01*
X14769643Y-14486214D01*
X14983928Y-14514786D02*
X14998214Y-14500500D01*
X15026786Y-14486214D01*
X15098214Y-14486214D01*
X15126786Y-14500500D01*
X15141071Y-14514786D01*
X15155357Y-14543357D01*
X15155357Y-14571929D01*
X15141071Y-14614786D01*
X14969643Y-14786214D01*
X15155357Y-14786214D01*
X15341071Y-14486214D02*
X15369643Y-14486214D01*
X15398214Y-14500500D01*
X15412500Y-14514786D01*
X15426786Y-14543357D01*
X15441071Y-14600500D01*
X15441071Y-14671929D01*
X15426786Y-14729071D01*
X15412500Y-14757643D01*
X15398214Y-14771929D01*
X15369643Y-14786214D01*
X15341071Y-14786214D01*
X15312500Y-14771929D01*
X15298214Y-14757643D01*
X15283928Y-14729071D01*
X15269643Y-14671929D01*
X15269643Y-14600500D01*
X15283928Y-14543357D01*
X15298214Y-14514786D01*
X15312500Y-14500500D01*
X15341071Y-14486214D01*
X15569643Y-14786214D02*
X15569643Y-14586214D01*
X15569643Y-14614786D02*
X15583928Y-14600500D01*
X15612500Y-14586214D01*
X15655357Y-14586214D01*
X15683928Y-14600500D01*
X15698214Y-14629071D01*
X15698214Y-14786214D01*
X15698214Y-14629071D02*
X15712500Y-14600500D01*
X15741071Y-14586214D01*
X15783928Y-14586214D01*
X15812500Y-14600500D01*
X15826786Y-14629071D01*
X15826786Y-14786214D01*
X15969643Y-14786214D02*
X15969643Y-14586214D01*
X15969643Y-14614786D02*
X15983928Y-14600500D01*
X16012500Y-14586214D01*
X16055357Y-14586214D01*
X16083928Y-14600500D01*
X16098214Y-14629071D01*
X16098214Y-14786214D01*
X16098214Y-14629071D02*
X16112500Y-14600500D01*
X16141071Y-14586214D01*
X16183928Y-14586214D01*
X16212500Y-14600500D01*
X16226786Y-14629071D01*
X16226786Y-14786214D01*
X16812500Y-14471929D02*
X16555357Y-14857643D01*
X17198214Y-14486214D02*
X17226786Y-14486214D01*
X17255357Y-14500500D01*
X17269643Y-14514786D01*
X17283928Y-14543357D01*
X17298214Y-14600500D01*
X17298214Y-14671929D01*
X17283928Y-14729071D01*
X17269643Y-14757643D01*
X17255357Y-14771929D01*
X17226786Y-14786214D01*
X17198214Y-14786214D01*
X17169643Y-14771929D01*
X17155357Y-14757643D01*
X17141071Y-14729071D01*
X17126786Y-14671929D01*
X17126786Y-14600500D01*
X17141071Y-14543357D01*
X17155357Y-14514786D01*
X17169643Y-14500500D01*
X17198214Y-14486214D01*
X17426786Y-14757643D02*
X17441071Y-14771929D01*
X17426786Y-14786214D01*
X17412500Y-14771929D01*
X17426786Y-14757643D01*
X17426786Y-14786214D01*
X17626786Y-14486214D02*
X17655357Y-14486214D01*
X17683928Y-14500500D01*
X17698214Y-14514786D01*
X17712500Y-14543357D01*
X17726786Y-14600500D01*
X17726786Y-14671929D01*
X17712500Y-14729071D01*
X17698214Y-14757643D01*
X17683928Y-14771929D01*
X17655357Y-14786214D01*
X17626786Y-14786214D01*
X17598214Y-14771929D01*
X17583928Y-14757643D01*
X17569643Y-14729071D01*
X17555357Y-14671929D01*
X17555357Y-14600500D01*
X17569643Y-14543357D01*
X17583928Y-14514786D01*
X17598214Y-14500500D01*
X17626786Y-14486214D01*
X17983928Y-14586214D02*
X17983928Y-14786214D01*
X17912500Y-14471929D02*
X17841071Y-14686214D01*
X18026786Y-14686214D01*
X18198214Y-14486214D02*
X18226786Y-14486214D01*
X18255357Y-14500500D01*
X18269643Y-14514786D01*
X18283928Y-14543357D01*
X18298214Y-14600500D01*
X18298214Y-14671929D01*
X18283928Y-14729071D01*
X18269643Y-14757643D01*
X18255357Y-14771929D01*
X18226786Y-14786214D01*
X18198214Y-14786214D01*
X18169643Y-14771929D01*
X18155357Y-14757643D01*
X18141071Y-14729071D01*
X18126786Y-14671929D01*
X18126786Y-14600500D01*
X18141071Y-14543357D01*
X18155357Y-14514786D01*
X18169643Y-14500500D01*
X18198214Y-14486214D01*
X18412500Y-14514786D02*
X18426786Y-14500500D01*
X18455357Y-14486214D01*
X18526786Y-14486214D01*
X18555357Y-14500500D01*
X18569643Y-14514786D01*
X18583928Y-14543357D01*
X18583928Y-14571929D01*
X18569643Y-14614786D01*
X18398214Y-14786214D01*
X18583928Y-14786214D01*
X18698214Y-14486214D02*
X18698214Y-14543357D01*
X18812500Y-14486214D02*
X18812500Y-14543357D01*
X19255357Y-14900500D02*
X19241071Y-14886214D01*
X19212500Y-14843357D01*
X19198214Y-14814786D01*
X19183928Y-14771929D01*
X19169643Y-14700500D01*
X19169643Y-14643357D01*
X19183928Y-14571929D01*
X19198214Y-14529071D01*
X19212500Y-14500500D01*
X19241071Y-14457643D01*
X19255357Y-14443357D01*
X19498214Y-14586214D02*
X19498214Y-14786214D01*
X19426786Y-14471929D02*
X19355357Y-14686214D01*
X19541071Y-14686214D01*
X19626786Y-14486214D02*
X19812500Y-14486214D01*
X19712500Y-14600500D01*
X19755357Y-14600500D01*
X19783928Y-14614786D01*
X19798214Y-14629071D01*
X19812500Y-14657643D01*
X19812500Y-14729071D01*
X19798214Y-14757643D01*
X19783928Y-14771929D01*
X19755357Y-14786214D01*
X19669643Y-14786214D01*
X19641071Y-14771929D01*
X19626786Y-14757643D01*
X20169643Y-14786214D02*
X20169643Y-14486214D01*
X20298214Y-14786214D02*
X20298214Y-14629071D01*
X20283928Y-14600500D01*
X20255357Y-14586214D01*
X20212500Y-14586214D01*
X20183928Y-14600500D01*
X20169643Y-14614786D01*
X20483928Y-14786214D02*
X20455357Y-14771929D01*
X20441071Y-14757643D01*
X20426786Y-14729071D01*
X20426786Y-14643357D01*
X20441071Y-14614786D01*
X20455357Y-14600500D01*
X20483928Y-14586214D01*
X20526786Y-14586214D01*
X20555357Y-14600500D01*
X20569643Y-14614786D01*
X20583928Y-14643357D01*
X20583928Y-14729071D01*
X20569643Y-14757643D01*
X20555357Y-14771929D01*
X20526786Y-14786214D01*
X20483928Y-14786214D01*
X20755357Y-14786214D02*
X20726786Y-14771929D01*
X20712500Y-14743357D01*
X20712500Y-14486214D01*
X20983928Y-14771929D02*
X20955357Y-14786214D01*
X20898214Y-14786214D01*
X20869643Y-14771929D01*
X20855357Y-14743357D01*
X20855357Y-14629071D01*
X20869643Y-14600500D01*
X20898214Y-14586214D01*
X20955357Y-14586214D01*
X20983928Y-14600500D01*
X20998214Y-14629071D01*
X20998214Y-14657643D01*
X20855357Y-14686214D01*
X21112500Y-14771929D02*
X21141071Y-14786214D01*
X21198214Y-14786214D01*
X21226786Y-14771929D01*
X21241071Y-14743357D01*
X21241071Y-14729071D01*
X21226786Y-14700500D01*
X21198214Y-14686214D01*
X21155357Y-14686214D01*
X21126786Y-14671929D01*
X21112500Y-14643357D01*
X21112500Y-14629071D01*
X21126786Y-14600500D01*
X21155357Y-14586214D01*
X21198214Y-14586214D01*
X21226786Y-14600500D01*
X21341071Y-14900500D02*
X21355357Y-14886214D01*
X21383928Y-14843357D01*
X21398214Y-14814786D01*
X21412500Y-14771929D01*
X21426786Y-14700500D01*
X21426786Y-14643357D01*
X21412500Y-14571929D01*
X21398214Y-14529071D01*
X21383928Y-14500500D01*
X21355357Y-14457643D01*
X21341071Y-14443357D01*
X13942500Y-15101500D02*
X13997500Y-15046500D01*
X13942500Y-14991500D01*
X13887500Y-15046500D01*
X13942500Y-15101500D01*
X14441071Y-15182214D02*
X14269643Y-15182214D01*
X14355357Y-15182214D02*
X14355357Y-14882214D01*
X14326786Y-14925071D01*
X14298214Y-14953643D01*
X14269643Y-14967929D01*
X14569643Y-15153643D02*
X14583928Y-15167929D01*
X14569643Y-15182214D01*
X14555357Y-15167929D01*
X14569643Y-15153643D01*
X14569643Y-15182214D01*
X14869643Y-15182214D02*
X14698214Y-15182214D01*
X14783928Y-15182214D02*
X14783928Y-14882214D01*
X14755357Y-14925071D01*
X14726786Y-14953643D01*
X14698214Y-14967929D01*
X15055357Y-14882214D02*
X15083928Y-14882214D01*
X15112500Y-14896500D01*
X15126786Y-14910786D01*
X15141071Y-14939357D01*
X15155357Y-14996500D01*
X15155357Y-15067929D01*
X15141071Y-15125071D01*
X15126786Y-15153643D01*
X15112500Y-15167929D01*
X15083928Y-15182214D01*
X15055357Y-15182214D01*
X15026786Y-15167929D01*
X15012500Y-15153643D01*
X14998214Y-15125071D01*
X14983928Y-15067929D01*
X14983928Y-14996500D01*
X14998214Y-14939357D01*
X15012500Y-14910786D01*
X15026786Y-14896500D01*
X15055357Y-14882214D01*
X15341071Y-14882214D02*
X15369643Y-14882214D01*
X15398214Y-14896500D01*
X15412500Y-14910786D01*
X15426786Y-14939357D01*
X15441071Y-14996500D01*
X15441071Y-15067929D01*
X15426786Y-15125071D01*
X15412500Y-15153643D01*
X15398214Y-15167929D01*
X15369643Y-15182214D01*
X15341071Y-15182214D01*
X15312500Y-15167929D01*
X15298214Y-15153643D01*
X15283928Y-15125071D01*
X15269643Y-15067929D01*
X15269643Y-14996500D01*
X15283928Y-14939357D01*
X15298214Y-14910786D01*
X15312500Y-14896500D01*
X15341071Y-14882214D01*
X15569643Y-15182214D02*
X15569643Y-14982214D01*
X15569643Y-15010786D02*
X15583928Y-14996500D01*
X15612500Y-14982214D01*
X15655357Y-14982214D01*
X15683928Y-14996500D01*
X15698214Y-15025071D01*
X15698214Y-15182214D01*
X15698214Y-15025071D02*
X15712500Y-14996500D01*
X15741071Y-14982214D01*
X15783928Y-14982214D01*
X15812500Y-14996500D01*
X15826786Y-15025071D01*
X15826786Y-15182214D01*
X15969643Y-15182214D02*
X15969643Y-14982214D01*
X15969643Y-15010786D02*
X15983928Y-14996500D01*
X16012500Y-14982214D01*
X16055357Y-14982214D01*
X16083928Y-14996500D01*
X16098214Y-15025071D01*
X16098214Y-15182214D01*
X16098214Y-15025071D02*
X16112500Y-14996500D01*
X16141071Y-14982214D01*
X16183928Y-14982214D01*
X16212500Y-14996500D01*
X16226786Y-15025071D01*
X16226786Y-15182214D01*
X16812500Y-14867929D02*
X16555357Y-15253643D01*
X17198214Y-14882214D02*
X17226786Y-14882214D01*
X17255357Y-14896500D01*
X17269643Y-14910786D01*
X17283928Y-14939357D01*
X17298214Y-14996500D01*
X17298214Y-15067929D01*
X17283928Y-15125071D01*
X17269643Y-15153643D01*
X17255357Y-15167929D01*
X17226786Y-15182214D01*
X17198214Y-15182214D01*
X17169643Y-15167929D01*
X17155357Y-15153643D01*
X17141071Y-15125071D01*
X17126786Y-15067929D01*
X17126786Y-14996500D01*
X17141071Y-14939357D01*
X17155357Y-14910786D01*
X17169643Y-14896500D01*
X17198214Y-14882214D01*
X17426786Y-15153643D02*
X17441071Y-15167929D01*
X17426786Y-15182214D01*
X17412500Y-15167929D01*
X17426786Y-15153643D01*
X17426786Y-15182214D01*
X17626786Y-14882214D02*
X17655357Y-14882214D01*
X17683928Y-14896500D01*
X17698214Y-14910786D01*
X17712500Y-14939357D01*
X17726786Y-14996500D01*
X17726786Y-15067929D01*
X17712500Y-15125071D01*
X17698214Y-15153643D01*
X17683928Y-15167929D01*
X17655357Y-15182214D01*
X17626786Y-15182214D01*
X17598214Y-15167929D01*
X17583928Y-15153643D01*
X17569643Y-15125071D01*
X17555357Y-15067929D01*
X17555357Y-14996500D01*
X17569643Y-14939357D01*
X17583928Y-14910786D01*
X17598214Y-14896500D01*
X17626786Y-14882214D01*
X17983928Y-14982214D02*
X17983928Y-15182214D01*
X17912500Y-14867929D02*
X17841071Y-15082214D01*
X18026786Y-15082214D01*
X18112500Y-14882214D02*
X18298214Y-14882214D01*
X18198214Y-14996500D01*
X18241071Y-14996500D01*
X18269643Y-15010786D01*
X18283928Y-15025071D01*
X18298214Y-15053643D01*
X18298214Y-15125071D01*
X18283928Y-15153643D01*
X18269643Y-15167929D01*
X18241071Y-15182214D01*
X18155357Y-15182214D01*
X18126786Y-15167929D01*
X18112500Y-15153643D01*
X18398214Y-14882214D02*
X18583928Y-14882214D01*
X18483928Y-14996500D01*
X18526786Y-14996500D01*
X18555357Y-15010786D01*
X18569643Y-15025071D01*
X18583928Y-15053643D01*
X18583928Y-15125071D01*
X18569643Y-15153643D01*
X18555357Y-15167929D01*
X18526786Y-15182214D01*
X18441071Y-15182214D01*
X18412500Y-15167929D01*
X18398214Y-15153643D01*
X18698214Y-14882214D02*
X18698214Y-14939357D01*
X18812500Y-14882214D02*
X18812500Y-14939357D01*
X19255357Y-15296500D02*
X19241071Y-15282214D01*
X19212500Y-15239357D01*
X19198214Y-15210786D01*
X19183928Y-15167929D01*
X19169643Y-15096500D01*
X19169643Y-15039357D01*
X19183928Y-14967929D01*
X19198214Y-14925071D01*
X19212500Y-14896500D01*
X19241071Y-14853643D01*
X19255357Y-14839357D01*
X19498214Y-14882214D02*
X19441071Y-14882214D01*
X19412500Y-14896500D01*
X19398214Y-14910786D01*
X19369643Y-14953643D01*
X19355357Y-15010786D01*
X19355357Y-15125071D01*
X19369643Y-15153643D01*
X19383928Y-15167929D01*
X19412500Y-15182214D01*
X19469643Y-15182214D01*
X19498214Y-15167929D01*
X19512500Y-15153643D01*
X19526786Y-15125071D01*
X19526786Y-15053643D01*
X19512500Y-15025071D01*
X19498214Y-15010786D01*
X19469643Y-14996500D01*
X19412500Y-14996500D01*
X19383928Y-15010786D01*
X19369643Y-15025071D01*
X19355357Y-15053643D01*
X19883928Y-15182214D02*
X19883928Y-14882214D01*
X20012500Y-15182214D02*
X20012500Y-15025071D01*
X19998214Y-14996500D01*
X19969643Y-14982214D01*
X19926786Y-14982214D01*
X19898214Y-14996500D01*
X19883928Y-15010786D01*
X20198214Y-15182214D02*
X20169643Y-15167929D01*
X20155357Y-15153643D01*
X20141071Y-15125071D01*
X20141071Y-15039357D01*
X20155357Y-15010786D01*
X20169643Y-14996500D01*
X20198214Y-14982214D01*
X20241071Y-14982214D01*
X20269643Y-14996500D01*
X20283928Y-15010786D01*
X20298214Y-15039357D01*
X20298214Y-15125071D01*
X20283928Y-15153643D01*
X20269643Y-15167929D01*
X20241071Y-15182214D01*
X20198214Y-15182214D01*
X20469643Y-15182214D02*
X20441071Y-15167929D01*
X20426786Y-15139357D01*
X20426786Y-14882214D01*
X20698214Y-15167929D02*
X20669643Y-15182214D01*
X20612500Y-15182214D01*
X20583928Y-15167929D01*
X20569643Y-15139357D01*
X20569643Y-15025071D01*
X20583928Y-14996500D01*
X20612500Y-14982214D01*
X20669643Y-14982214D01*
X20698214Y-14996500D01*
X20712500Y-15025071D01*
X20712500Y-15053643D01*
X20569643Y-15082214D01*
X20826786Y-15167929D02*
X20855357Y-15182214D01*
X20912500Y-15182214D01*
X20941071Y-15167929D01*
X20955357Y-15139357D01*
X20955357Y-15125071D01*
X20941071Y-15096500D01*
X20912500Y-15082214D01*
X20869643Y-15082214D01*
X20841071Y-15067929D01*
X20826786Y-15039357D01*
X20826786Y-15025071D01*
X20841071Y-14996500D01*
X20869643Y-14982214D01*
X20912500Y-14982214D01*
X20941071Y-14996500D01*
X21055357Y-15296500D02*
X21069643Y-15282214D01*
X21098214Y-15239357D01*
X21112500Y-15210786D01*
X21126786Y-15167929D01*
X21141071Y-15096500D01*
X21141071Y-15039357D01*
X21126786Y-14967929D01*
X21112500Y-14925071D01*
X21098214Y-14896500D01*
X21069643Y-14853643D01*
X21055357Y-14839357D01*
X13878500Y-15383000D02*
X13997500Y-15502000D01*
X13997500Y-15383000D02*
X13878500Y-15502000D01*
X13997500Y-15442500D02*
G75*
G03*
X13997500Y-15442500I-59500J0D01*
G01*
X14441071Y-15578214D02*
X14269643Y-15578214D01*
X14355357Y-15578214D02*
X14355357Y-15278214D01*
X14326786Y-15321071D01*
X14298214Y-15349643D01*
X14269643Y-15363929D01*
X14569643Y-15549643D02*
X14583928Y-15563929D01*
X14569643Y-15578214D01*
X14555357Y-15563929D01*
X14569643Y-15549643D01*
X14569643Y-15578214D01*
X14869643Y-15578214D02*
X14698214Y-15578214D01*
X14783928Y-15578214D02*
X14783928Y-15278214D01*
X14755357Y-15321071D01*
X14726786Y-15349643D01*
X14698214Y-15363929D01*
X15012500Y-15578214D02*
X15069643Y-15578214D01*
X15098214Y-15563929D01*
X15112500Y-15549643D01*
X15141071Y-15506786D01*
X15155357Y-15449643D01*
X15155357Y-15335357D01*
X15141071Y-15306786D01*
X15126786Y-15292500D01*
X15098214Y-15278214D01*
X15041071Y-15278214D01*
X15012500Y-15292500D01*
X14998214Y-15306786D01*
X14983928Y-15335357D01*
X14983928Y-15406786D01*
X14998214Y-15435357D01*
X15012500Y-15449643D01*
X15041071Y-15463929D01*
X15098214Y-15463929D01*
X15126786Y-15449643D01*
X15141071Y-15435357D01*
X15155357Y-15406786D01*
X15341071Y-15278214D02*
X15369643Y-15278214D01*
X15398214Y-15292500D01*
X15412500Y-15306786D01*
X15426786Y-15335357D01*
X15441071Y-15392500D01*
X15441071Y-15463929D01*
X15426786Y-15521071D01*
X15412500Y-15549643D01*
X15398214Y-15563929D01*
X15369643Y-15578214D01*
X15341071Y-15578214D01*
X15312500Y-15563929D01*
X15298214Y-15549643D01*
X15283928Y-15521071D01*
X15269643Y-15463929D01*
X15269643Y-15392500D01*
X15283928Y-15335357D01*
X15298214Y-15306786D01*
X15312500Y-15292500D01*
X15341071Y-15278214D01*
X15569643Y-15578214D02*
X15569643Y-15378214D01*
X15569643Y-15406786D02*
X15583928Y-15392500D01*
X15612500Y-15378214D01*
X15655357Y-15378214D01*
X15683928Y-15392500D01*
X15698214Y-15421071D01*
X15698214Y-15578214D01*
X15698214Y-15421071D02*
X15712500Y-15392500D01*
X15741071Y-15378214D01*
X15783928Y-15378214D01*
X15812500Y-15392500D01*
X15826786Y-15421071D01*
X15826786Y-15578214D01*
X15969643Y-15578214D02*
X15969643Y-15378214D01*
X15969643Y-15406786D02*
X15983928Y-15392500D01*
X16012500Y-15378214D01*
X16055357Y-15378214D01*
X16083928Y-15392500D01*
X16098214Y-15421071D01*
X16098214Y-15578214D01*
X16098214Y-15421071D02*
X16112500Y-15392500D01*
X16141071Y-15378214D01*
X16183928Y-15378214D01*
X16212500Y-15392500D01*
X16226786Y-15421071D01*
X16226786Y-15578214D01*
X16812500Y-15263929D02*
X16555357Y-15649643D01*
X17198214Y-15278214D02*
X17226786Y-15278214D01*
X17255357Y-15292500D01*
X17269643Y-15306786D01*
X17283928Y-15335357D01*
X17298214Y-15392500D01*
X17298214Y-15463929D01*
X17283928Y-15521071D01*
X17269643Y-15549643D01*
X17255357Y-15563929D01*
X17226786Y-15578214D01*
X17198214Y-15578214D01*
X17169643Y-15563929D01*
X17155357Y-15549643D01*
X17141071Y-15521071D01*
X17126786Y-15463929D01*
X17126786Y-15392500D01*
X17141071Y-15335357D01*
X17155357Y-15306786D01*
X17169643Y-15292500D01*
X17198214Y-15278214D01*
X17426786Y-15549643D02*
X17441071Y-15563929D01*
X17426786Y-15578214D01*
X17412500Y-15563929D01*
X17426786Y-15549643D01*
X17426786Y-15578214D01*
X17626786Y-15278214D02*
X17655357Y-15278214D01*
X17683928Y-15292500D01*
X17698214Y-15306786D01*
X17712500Y-15335357D01*
X17726786Y-15392500D01*
X17726786Y-15463929D01*
X17712500Y-15521071D01*
X17698214Y-15549643D01*
X17683928Y-15563929D01*
X17655357Y-15578214D01*
X17626786Y-15578214D01*
X17598214Y-15563929D01*
X17583928Y-15549643D01*
X17569643Y-15521071D01*
X17555357Y-15463929D01*
X17555357Y-15392500D01*
X17569643Y-15335357D01*
X17583928Y-15306786D01*
X17598214Y-15292500D01*
X17626786Y-15278214D01*
X17983928Y-15378214D02*
X17983928Y-15578214D01*
X17912500Y-15263929D02*
X17841071Y-15478214D01*
X18026786Y-15478214D01*
X18269643Y-15278214D02*
X18212500Y-15278214D01*
X18183928Y-15292500D01*
X18169643Y-15306786D01*
X18141071Y-15349643D01*
X18126786Y-15406786D01*
X18126786Y-15521071D01*
X18141071Y-15549643D01*
X18155357Y-15563929D01*
X18183928Y-15578214D01*
X18241071Y-15578214D01*
X18269643Y-15563929D01*
X18283928Y-15549643D01*
X18298214Y-15521071D01*
X18298214Y-15449643D01*
X18283928Y-15421071D01*
X18269643Y-15406786D01*
X18241071Y-15392500D01*
X18183928Y-15392500D01*
X18155357Y-15406786D01*
X18141071Y-15421071D01*
X18126786Y-15449643D01*
X18441071Y-15578214D02*
X18498214Y-15578214D01*
X18526786Y-15563929D01*
X18541071Y-15549643D01*
X18569643Y-15506786D01*
X18583928Y-15449643D01*
X18583928Y-15335357D01*
X18569643Y-15306786D01*
X18555357Y-15292500D01*
X18526786Y-15278214D01*
X18469643Y-15278214D01*
X18441071Y-15292500D01*
X18426786Y-15306786D01*
X18412500Y-15335357D01*
X18412500Y-15406786D01*
X18426786Y-15435357D01*
X18441071Y-15449643D01*
X18469643Y-15463929D01*
X18526786Y-15463929D01*
X18555357Y-15449643D01*
X18569643Y-15435357D01*
X18583928Y-15406786D01*
X18698214Y-15278214D02*
X18698214Y-15335357D01*
X18812500Y-15278214D02*
X18812500Y-15335357D01*
X19255357Y-15692500D02*
X19241071Y-15678214D01*
X19212500Y-15635357D01*
X19198214Y-15606786D01*
X19183928Y-15563929D01*
X19169643Y-15492500D01*
X19169643Y-15435357D01*
X19183928Y-15363929D01*
X19198214Y-15321071D01*
X19212500Y-15292500D01*
X19241071Y-15249643D01*
X19255357Y-15235357D01*
X19355357Y-15306786D02*
X19369643Y-15292500D01*
X19398214Y-15278214D01*
X19469643Y-15278214D01*
X19498214Y-15292500D01*
X19512500Y-15306786D01*
X19526786Y-15335357D01*
X19526786Y-15363929D01*
X19512500Y-15406786D01*
X19341071Y-15578214D01*
X19526786Y-15578214D01*
X19669643Y-15578214D02*
X19726786Y-15578214D01*
X19755357Y-15563929D01*
X19769643Y-15549643D01*
X19798214Y-15506786D01*
X19812500Y-15449643D01*
X19812500Y-15335357D01*
X19798214Y-15306786D01*
X19783928Y-15292500D01*
X19755357Y-15278214D01*
X19698214Y-15278214D01*
X19669643Y-15292500D01*
X19655357Y-15306786D01*
X19641071Y-15335357D01*
X19641071Y-15406786D01*
X19655357Y-15435357D01*
X19669643Y-15449643D01*
X19698214Y-15463929D01*
X19755357Y-15463929D01*
X19783928Y-15449643D01*
X19798214Y-15435357D01*
X19812500Y-15406786D01*
X20169643Y-15578214D02*
X20169643Y-15278214D01*
X20298214Y-15578214D02*
X20298214Y-15421071D01*
X20283928Y-15392500D01*
X20255357Y-15378214D01*
X20212500Y-15378214D01*
X20183928Y-15392500D01*
X20169643Y-15406786D01*
X20483928Y-15578214D02*
X20455357Y-15563929D01*
X20441071Y-15549643D01*
X20426786Y-15521071D01*
X20426786Y-15435357D01*
X20441071Y-15406786D01*
X20455357Y-15392500D01*
X20483928Y-15378214D01*
X20526786Y-15378214D01*
X20555357Y-15392500D01*
X20569643Y-15406786D01*
X20583928Y-15435357D01*
X20583928Y-15521071D01*
X20569643Y-15549643D01*
X20555357Y-15563929D01*
X20526786Y-15578214D01*
X20483928Y-15578214D01*
X20755357Y-15578214D02*
X20726786Y-15563929D01*
X20712500Y-15535357D01*
X20712500Y-15278214D01*
X20983928Y-15563929D02*
X20955357Y-15578214D01*
X20898214Y-15578214D01*
X20869643Y-15563929D01*
X20855357Y-15535357D01*
X20855357Y-15421071D01*
X20869643Y-15392500D01*
X20898214Y-15378214D01*
X20955357Y-15378214D01*
X20983928Y-15392500D01*
X20998214Y-15421071D01*
X20998214Y-15449643D01*
X20855357Y-15478214D01*
X21112500Y-15563929D02*
X21141071Y-15578214D01*
X21198214Y-15578214D01*
X21226786Y-15563929D01*
X21241071Y-15535357D01*
X21241071Y-15521071D01*
X21226786Y-15492500D01*
X21198214Y-15478214D01*
X21155357Y-15478214D01*
X21126786Y-15463929D01*
X21112500Y-15435357D01*
X21112500Y-15421071D01*
X21126786Y-15392500D01*
X21155357Y-15378214D01*
X21198214Y-15378214D01*
X21226786Y-15392500D01*
X21341071Y-15692500D02*
X21355357Y-15678214D01*
X21383928Y-15635357D01*
X21398214Y-15606786D01*
X21412500Y-15563929D01*
X21426786Y-15492500D01*
X21426786Y-15435357D01*
X21412500Y-15363929D01*
X21398214Y-15321071D01*
X21383928Y-15292500D01*
X21355357Y-15249643D01*
X21341071Y-15235357D01*
X13867500Y-15773500D02*
X13997500Y-15903500D01*
X13997500Y-15773500D02*
X13867500Y-15903500D01*
X13932500Y-15773500D02*
X13932500Y-15903500D01*
X13867500Y-15838500D02*
X13997500Y-15838500D01*
X14441071Y-15974214D02*
X14269643Y-15974214D01*
X14355357Y-15974214D02*
X14355357Y-15674214D01*
X14326786Y-15717071D01*
X14298214Y-15745643D01*
X14269643Y-15759929D01*
X14569643Y-15945643D02*
X14583928Y-15959929D01*
X14569643Y-15974214D01*
X14555357Y-15959929D01*
X14569643Y-15945643D01*
X14569643Y-15974214D01*
X14683928Y-15674214D02*
X14869643Y-15674214D01*
X14769643Y-15788500D01*
X14812500Y-15788500D01*
X14841071Y-15802786D01*
X14855357Y-15817071D01*
X14869643Y-15845643D01*
X14869643Y-15917071D01*
X14855357Y-15945643D01*
X14841071Y-15959929D01*
X14812500Y-15974214D01*
X14726786Y-15974214D01*
X14698214Y-15959929D01*
X14683928Y-15945643D01*
X15055357Y-15674214D02*
X15083928Y-15674214D01*
X15112500Y-15688500D01*
X15126786Y-15702786D01*
X15141071Y-15731357D01*
X15155357Y-15788500D01*
X15155357Y-15859929D01*
X15141071Y-15917071D01*
X15126786Y-15945643D01*
X15112500Y-15959929D01*
X15083928Y-15974214D01*
X15055357Y-15974214D01*
X15026786Y-15959929D01*
X15012500Y-15945643D01*
X14998214Y-15917071D01*
X14983928Y-15859929D01*
X14983928Y-15788500D01*
X14998214Y-15731357D01*
X15012500Y-15702786D01*
X15026786Y-15688500D01*
X15055357Y-15674214D01*
X15341071Y-15674214D02*
X15369643Y-15674214D01*
X15398214Y-15688500D01*
X15412500Y-15702786D01*
X15426786Y-15731357D01*
X15441071Y-15788500D01*
X15441071Y-15859929D01*
X15426786Y-15917071D01*
X15412500Y-15945643D01*
X15398214Y-15959929D01*
X15369643Y-15974214D01*
X15341071Y-15974214D01*
X15312500Y-15959929D01*
X15298214Y-15945643D01*
X15283928Y-15917071D01*
X15269643Y-15859929D01*
X15269643Y-15788500D01*
X15283928Y-15731357D01*
X15298214Y-15702786D01*
X15312500Y-15688500D01*
X15341071Y-15674214D01*
X15569643Y-15974214D02*
X15569643Y-15774214D01*
X15569643Y-15802786D02*
X15583928Y-15788500D01*
X15612500Y-15774214D01*
X15655357Y-15774214D01*
X15683928Y-15788500D01*
X15698214Y-15817071D01*
X15698214Y-15974214D01*
X15698214Y-15817071D02*
X15712500Y-15788500D01*
X15741071Y-15774214D01*
X15783928Y-15774214D01*
X15812500Y-15788500D01*
X15826786Y-15817071D01*
X15826786Y-15974214D01*
X15969643Y-15974214D02*
X15969643Y-15774214D01*
X15969643Y-15802786D02*
X15983928Y-15788500D01*
X16012500Y-15774214D01*
X16055357Y-15774214D01*
X16083928Y-15788500D01*
X16098214Y-15817071D01*
X16098214Y-15974214D01*
X16098214Y-15817071D02*
X16112500Y-15788500D01*
X16141071Y-15774214D01*
X16183928Y-15774214D01*
X16212500Y-15788500D01*
X16226786Y-15817071D01*
X16226786Y-15974214D01*
X16812500Y-15659929D02*
X16555357Y-16045643D01*
X17198214Y-15674214D02*
X17226786Y-15674214D01*
X17255357Y-15688500D01*
X17269643Y-15702786D01*
X17283928Y-15731357D01*
X17298214Y-15788500D01*
X17298214Y-15859929D01*
X17283928Y-15917071D01*
X17269643Y-15945643D01*
X17255357Y-15959929D01*
X17226786Y-15974214D01*
X17198214Y-15974214D01*
X17169643Y-15959929D01*
X17155357Y-15945643D01*
X17141071Y-15917071D01*
X17126786Y-15859929D01*
X17126786Y-15788500D01*
X17141071Y-15731357D01*
X17155357Y-15702786D01*
X17169643Y-15688500D01*
X17198214Y-15674214D01*
X17426786Y-15945643D02*
X17441071Y-15959929D01*
X17426786Y-15974214D01*
X17412500Y-15959929D01*
X17426786Y-15945643D01*
X17426786Y-15974214D01*
X17626786Y-15674214D02*
X17655357Y-15674214D01*
X17683928Y-15688500D01*
X17698214Y-15702786D01*
X17712500Y-15731357D01*
X17726786Y-15788500D01*
X17726786Y-15859929D01*
X17712500Y-15917071D01*
X17698214Y-15945643D01*
X17683928Y-15959929D01*
X17655357Y-15974214D01*
X17626786Y-15974214D01*
X17598214Y-15959929D01*
X17583928Y-15945643D01*
X17569643Y-15917071D01*
X17555357Y-15859929D01*
X17555357Y-15788500D01*
X17569643Y-15731357D01*
X17583928Y-15702786D01*
X17598214Y-15688500D01*
X17626786Y-15674214D01*
X17998214Y-15674214D02*
X17855357Y-15674214D01*
X17841071Y-15817071D01*
X17855357Y-15802786D01*
X17883928Y-15788500D01*
X17955357Y-15788500D01*
X17983928Y-15802786D01*
X17998214Y-15817071D01*
X18012500Y-15845643D01*
X18012500Y-15917071D01*
X17998214Y-15945643D01*
X17983928Y-15959929D01*
X17955357Y-15974214D01*
X17883928Y-15974214D01*
X17855357Y-15959929D01*
X17841071Y-15945643D01*
X18298214Y-15974214D02*
X18126786Y-15974214D01*
X18212500Y-15974214D02*
X18212500Y-15674214D01*
X18183928Y-15717071D01*
X18155357Y-15745643D01*
X18126786Y-15759929D01*
X18412500Y-15702786D02*
X18426786Y-15688500D01*
X18455357Y-15674214D01*
X18526786Y-15674214D01*
X18555357Y-15688500D01*
X18569643Y-15702786D01*
X18583928Y-15731357D01*
X18583928Y-15759929D01*
X18569643Y-15802786D01*
X18398214Y-15974214D01*
X18583928Y-15974214D01*
X18698214Y-15674214D02*
X18698214Y-15731357D01*
X18812500Y-15674214D02*
X18812500Y-15731357D01*
X19255357Y-16088500D02*
X19241071Y-16074214D01*
X19212500Y-16031357D01*
X19198214Y-16002786D01*
X19183928Y-15959929D01*
X19169643Y-15888500D01*
X19169643Y-15831357D01*
X19183928Y-15759929D01*
X19198214Y-15717071D01*
X19212500Y-15688500D01*
X19241071Y-15645643D01*
X19255357Y-15631357D01*
X19341071Y-15674214D02*
X19526786Y-15674214D01*
X19426786Y-15788500D01*
X19469643Y-15788500D01*
X19498214Y-15802786D01*
X19512500Y-15817071D01*
X19526786Y-15845643D01*
X19526786Y-15917071D01*
X19512500Y-15945643D01*
X19498214Y-15959929D01*
X19469643Y-15974214D01*
X19383928Y-15974214D01*
X19355357Y-15959929D01*
X19341071Y-15945643D01*
X19883928Y-15974214D02*
X19883928Y-15674214D01*
X20012500Y-15974214D02*
X20012500Y-15817071D01*
X19998214Y-15788500D01*
X19969643Y-15774214D01*
X19926786Y-15774214D01*
X19898214Y-15788500D01*
X19883928Y-15802786D01*
X20198214Y-15974214D02*
X20169643Y-15959929D01*
X20155357Y-15945643D01*
X20141071Y-15917071D01*
X20141071Y-15831357D01*
X20155357Y-15802786D01*
X20169643Y-15788500D01*
X20198214Y-15774214D01*
X20241071Y-15774214D01*
X20269643Y-15788500D01*
X20283928Y-15802786D01*
X20298214Y-15831357D01*
X20298214Y-15917071D01*
X20283928Y-15945643D01*
X20269643Y-15959929D01*
X20241071Y-15974214D01*
X20198214Y-15974214D01*
X20469643Y-15974214D02*
X20441071Y-15959929D01*
X20426786Y-15931357D01*
X20426786Y-15674214D01*
X20698214Y-15959929D02*
X20669643Y-15974214D01*
X20612500Y-15974214D01*
X20583928Y-15959929D01*
X20569643Y-15931357D01*
X20569643Y-15817071D01*
X20583928Y-15788500D01*
X20612500Y-15774214D01*
X20669643Y-15774214D01*
X20698214Y-15788500D01*
X20712500Y-15817071D01*
X20712500Y-15845643D01*
X20569643Y-15874214D01*
X20826786Y-15959929D02*
X20855357Y-15974214D01*
X20912500Y-15974214D01*
X20941071Y-15959929D01*
X20955357Y-15931357D01*
X20955357Y-15917071D01*
X20941071Y-15888500D01*
X20912500Y-15874214D01*
X20869643Y-15874214D01*
X20841071Y-15859929D01*
X20826786Y-15831357D01*
X20826786Y-15817071D01*
X20841071Y-15788500D01*
X20869643Y-15774214D01*
X20912500Y-15774214D01*
X20941071Y-15788500D01*
X21055357Y-16088500D02*
X21069643Y-16074214D01*
X21098214Y-16031357D01*
X21112500Y-16002786D01*
X21126786Y-15959929D01*
X21141071Y-15888500D01*
X21141071Y-15831357D01*
X21126786Y-15759929D01*
X21112500Y-15717071D01*
X21098214Y-15688500D01*
X21069643Y-15645643D01*
X21055357Y-15631357D01*
X13677500Y-16074500D02*
X13997500Y-16394500D01*
X13997500Y-16074500D02*
X13677500Y-16394500D01*
X13950638Y-16347638D02*
X13950638Y-16121362D01*
X13724362Y-16121362D01*
X13724362Y-16347638D01*
X13950638Y-16347638D01*
X14255357Y-16070214D02*
X14441071Y-16070214D01*
X14341071Y-16184500D01*
X14383928Y-16184500D01*
X14412500Y-16198786D01*
X14426786Y-16213071D01*
X14441071Y-16241643D01*
X14441071Y-16313071D01*
X14426786Y-16341643D01*
X14412500Y-16355929D01*
X14383928Y-16370214D01*
X14298214Y-16370214D01*
X14269643Y-16355929D01*
X14255357Y-16341643D01*
X14569643Y-16341643D02*
X14583928Y-16355929D01*
X14569643Y-16370214D01*
X14555357Y-16355929D01*
X14569643Y-16341643D01*
X14569643Y-16370214D01*
X14698214Y-16098786D02*
X14712500Y-16084500D01*
X14741071Y-16070214D01*
X14812500Y-16070214D01*
X14841071Y-16084500D01*
X14855357Y-16098786D01*
X14869643Y-16127357D01*
X14869643Y-16155929D01*
X14855357Y-16198786D01*
X14683928Y-16370214D01*
X14869643Y-16370214D01*
X15055357Y-16070214D02*
X15083928Y-16070214D01*
X15112500Y-16084500D01*
X15126786Y-16098786D01*
X15141071Y-16127357D01*
X15155357Y-16184500D01*
X15155357Y-16255929D01*
X15141071Y-16313071D01*
X15126786Y-16341643D01*
X15112500Y-16355929D01*
X15083928Y-16370214D01*
X15055357Y-16370214D01*
X15026786Y-16355929D01*
X15012500Y-16341643D01*
X14998214Y-16313071D01*
X14983928Y-16255929D01*
X14983928Y-16184500D01*
X14998214Y-16127357D01*
X15012500Y-16098786D01*
X15026786Y-16084500D01*
X15055357Y-16070214D01*
X15341071Y-16070214D02*
X15369643Y-16070214D01*
X15398214Y-16084500D01*
X15412500Y-16098786D01*
X15426786Y-16127357D01*
X15441071Y-16184500D01*
X15441071Y-16255929D01*
X15426786Y-16313071D01*
X15412500Y-16341643D01*
X15398214Y-16355929D01*
X15369643Y-16370214D01*
X15341071Y-16370214D01*
X15312500Y-16355929D01*
X15298214Y-16341643D01*
X15283928Y-16313071D01*
X15269643Y-16255929D01*
X15269643Y-16184500D01*
X15283928Y-16127357D01*
X15298214Y-16098786D01*
X15312500Y-16084500D01*
X15341071Y-16070214D01*
X15569643Y-16370214D02*
X15569643Y-16170214D01*
X15569643Y-16198786D02*
X15583928Y-16184500D01*
X15612500Y-16170214D01*
X15655357Y-16170214D01*
X15683928Y-16184500D01*
X15698214Y-16213071D01*
X15698214Y-16370214D01*
X15698214Y-16213071D02*
X15712500Y-16184500D01*
X15741071Y-16170214D01*
X15783928Y-16170214D01*
X15812500Y-16184500D01*
X15826786Y-16213071D01*
X15826786Y-16370214D01*
X15969643Y-16370214D02*
X15969643Y-16170214D01*
X15969643Y-16198786D02*
X15983928Y-16184500D01*
X16012500Y-16170214D01*
X16055357Y-16170214D01*
X16083928Y-16184500D01*
X16098214Y-16213071D01*
X16098214Y-16370214D01*
X16098214Y-16213071D02*
X16112500Y-16184500D01*
X16141071Y-16170214D01*
X16183928Y-16170214D01*
X16212500Y-16184500D01*
X16226786Y-16213071D01*
X16226786Y-16370214D01*
X16812500Y-16055929D02*
X16555357Y-16441643D01*
X17198214Y-16070214D02*
X17226786Y-16070214D01*
X17255357Y-16084500D01*
X17269643Y-16098786D01*
X17283928Y-16127357D01*
X17298214Y-16184500D01*
X17298214Y-16255929D01*
X17283928Y-16313071D01*
X17269643Y-16341643D01*
X17255357Y-16355929D01*
X17226786Y-16370214D01*
X17198214Y-16370214D01*
X17169643Y-16355929D01*
X17155357Y-16341643D01*
X17141071Y-16313071D01*
X17126786Y-16255929D01*
X17126786Y-16184500D01*
X17141071Y-16127357D01*
X17155357Y-16098786D01*
X17169643Y-16084500D01*
X17198214Y-16070214D01*
X17426786Y-16341643D02*
X17441071Y-16355929D01*
X17426786Y-16370214D01*
X17412500Y-16355929D01*
X17426786Y-16341643D01*
X17426786Y-16370214D01*
X17726786Y-16370214D02*
X17555357Y-16370214D01*
X17641071Y-16370214D02*
X17641071Y-16070214D01*
X17612500Y-16113071D01*
X17583928Y-16141643D01*
X17555357Y-16155929D01*
X17841071Y-16098786D02*
X17855357Y-16084500D01*
X17883928Y-16070214D01*
X17955357Y-16070214D01*
X17983928Y-16084500D01*
X17998214Y-16098786D01*
X18012500Y-16127357D01*
X18012500Y-16155929D01*
X17998214Y-16198786D01*
X17826786Y-16370214D01*
X18012500Y-16370214D01*
X18269643Y-16070214D02*
X18212500Y-16070214D01*
X18183928Y-16084500D01*
X18169643Y-16098786D01*
X18141071Y-16141643D01*
X18126786Y-16198786D01*
X18126786Y-16313071D01*
X18141071Y-16341643D01*
X18155357Y-16355929D01*
X18183928Y-16370214D01*
X18241071Y-16370214D01*
X18269643Y-16355929D01*
X18283928Y-16341643D01*
X18298214Y-16313071D01*
X18298214Y-16241643D01*
X18283928Y-16213071D01*
X18269643Y-16198786D01*
X18241071Y-16184500D01*
X18183928Y-16184500D01*
X18155357Y-16198786D01*
X18141071Y-16213071D01*
X18126786Y-16241643D01*
X18483928Y-16070214D02*
X18512500Y-16070214D01*
X18541071Y-16084500D01*
X18555357Y-16098786D01*
X18569643Y-16127357D01*
X18583928Y-16184500D01*
X18583928Y-16255929D01*
X18569643Y-16313071D01*
X18555357Y-16341643D01*
X18541071Y-16355929D01*
X18512500Y-16370214D01*
X18483928Y-16370214D01*
X18455357Y-16355929D01*
X18441071Y-16341643D01*
X18426786Y-16313071D01*
X18412500Y-16255929D01*
X18412500Y-16184500D01*
X18426786Y-16127357D01*
X18441071Y-16098786D01*
X18455357Y-16084500D01*
X18483928Y-16070214D01*
X18698214Y-16070214D02*
X18698214Y-16127357D01*
X18812500Y-16070214D02*
X18812500Y-16127357D01*
X19255357Y-16484500D02*
X19241071Y-16470214D01*
X19212500Y-16427357D01*
X19198214Y-16398786D01*
X19183928Y-16355929D01*
X19169643Y-16284500D01*
X19169643Y-16227357D01*
X19183928Y-16155929D01*
X19198214Y-16113071D01*
X19212500Y-16084500D01*
X19241071Y-16041643D01*
X19255357Y-16027357D01*
X19412500Y-16198786D02*
X19383928Y-16184500D01*
X19369643Y-16170214D01*
X19355357Y-16141643D01*
X19355357Y-16127357D01*
X19369643Y-16098786D01*
X19383928Y-16084500D01*
X19412500Y-16070214D01*
X19469643Y-16070214D01*
X19498214Y-16084500D01*
X19512500Y-16098786D01*
X19526786Y-16127357D01*
X19526786Y-16141643D01*
X19512500Y-16170214D01*
X19498214Y-16184500D01*
X19469643Y-16198786D01*
X19412500Y-16198786D01*
X19383928Y-16213071D01*
X19369643Y-16227357D01*
X19355357Y-16255929D01*
X19355357Y-16313071D01*
X19369643Y-16341643D01*
X19383928Y-16355929D01*
X19412500Y-16370214D01*
X19469643Y-16370214D01*
X19498214Y-16355929D01*
X19512500Y-16341643D01*
X19526786Y-16313071D01*
X19526786Y-16255929D01*
X19512500Y-16227357D01*
X19498214Y-16213071D01*
X19469643Y-16198786D01*
X19883928Y-16370214D02*
X19883928Y-16070214D01*
X20012500Y-16370214D02*
X20012500Y-16213071D01*
X19998214Y-16184500D01*
X19969643Y-16170214D01*
X19926786Y-16170214D01*
X19898214Y-16184500D01*
X19883928Y-16198786D01*
X20198214Y-16370214D02*
X20169643Y-16355929D01*
X20155357Y-16341643D01*
X20141071Y-16313071D01*
X20141071Y-16227357D01*
X20155357Y-16198786D01*
X20169643Y-16184500D01*
X20198214Y-16170214D01*
X20241071Y-16170214D01*
X20269643Y-16184500D01*
X20283928Y-16198786D01*
X20298214Y-16227357D01*
X20298214Y-16313071D01*
X20283928Y-16341643D01*
X20269643Y-16355929D01*
X20241071Y-16370214D01*
X20198214Y-16370214D01*
X20469643Y-16370214D02*
X20441071Y-16355929D01*
X20426786Y-16327357D01*
X20426786Y-16070214D01*
X20698214Y-16355929D02*
X20669643Y-16370214D01*
X20612500Y-16370214D01*
X20583928Y-16355929D01*
X20569643Y-16327357D01*
X20569643Y-16213071D01*
X20583928Y-16184500D01*
X20612500Y-16170214D01*
X20669643Y-16170214D01*
X20698214Y-16184500D01*
X20712500Y-16213071D01*
X20712500Y-16241643D01*
X20569643Y-16270214D01*
X20826786Y-16355929D02*
X20855357Y-16370214D01*
X20912500Y-16370214D01*
X20941071Y-16355929D01*
X20955357Y-16327357D01*
X20955357Y-16313071D01*
X20941071Y-16284500D01*
X20912500Y-16270214D01*
X20869643Y-16270214D01*
X20841071Y-16255929D01*
X20826786Y-16227357D01*
X20826786Y-16213071D01*
X20841071Y-16184500D01*
X20869643Y-16170214D01*
X20912500Y-16170214D01*
X20941071Y-16184500D01*
X21055357Y-16484500D02*
X21069643Y-16470214D01*
X21098214Y-16427357D01*
X21112500Y-16398786D01*
X21126786Y-16355929D01*
X21141071Y-16284500D01*
X21141071Y-16227357D01*
X21126786Y-16155929D01*
X21112500Y-16113071D01*
X21098214Y-16084500D01*
X21069643Y-16041643D01*
X21055357Y-16027357D01*
M02*
