G04 #@! TF.GenerationSoftware,KiCad,Pcbnew,(6.0.0)*
G04 #@! TF.CreationDate,2022-07-21T12:24:26+02:00*
G04 #@! TF.ProjectId,AWG,4157472e-6b69-4636-9164-5f7063625858,rev?*
G04 #@! TF.SameCoordinates,Original*
G04 #@! TF.FileFunction,Paste,Top*
G04 #@! TF.FilePolarity,Positive*
%FSLAX46Y46*%
G04 Gerber Fmt 4.6, Leading zero omitted, Abs format (unit mm)*
G04 Created by KiCad (PCBNEW (6.0.0)) date 2022-07-21 12:24:26*
%MOMM*%
%LPD*%
G01*
G04 APERTURE LIST*
G04 Aperture macros list*
%AMRoundRect*
0 Rectangle with rounded corners*
0 $1 Rounding radius*
0 $2 $3 $4 $5 $6 $7 $8 $9 X,Y pos of 4 corners*
0 Add a 4 corners polygon primitive as box body*
4,1,4,$2,$3,$4,$5,$6,$7,$8,$9,$2,$3,0*
0 Add four circle primitives for the rounded corners*
1,1,$1+$1,$2,$3*
1,1,$1+$1,$4,$5*
1,1,$1+$1,$6,$7*
1,1,$1+$1,$8,$9*
0 Add four rect primitives between the rounded corners*
20,1,$1+$1,$2,$3,$4,$5,0*
20,1,$1+$1,$4,$5,$6,$7,0*
20,1,$1+$1,$6,$7,$8,$9,0*
20,1,$1+$1,$8,$9,$2,$3,0*%
G04 Aperture macros list end*
%ADD10RoundRect,0.250000X-0.475000X0.337500X-0.475000X-0.337500X0.475000X-0.337500X0.475000X0.337500X0*%
%ADD11RoundRect,0.237500X0.250000X0.237500X-0.250000X0.237500X-0.250000X-0.237500X0.250000X-0.237500X0*%
%ADD12RoundRect,0.237500X0.237500X-0.250000X0.237500X0.250000X-0.237500X0.250000X-0.237500X-0.250000X0*%
%ADD13RoundRect,0.237500X-0.237500X0.250000X-0.237500X-0.250000X0.237500X-0.250000X0.237500X0.250000X0*%
%ADD14RoundRect,0.150000X0.725000X0.150000X-0.725000X0.150000X-0.725000X-0.150000X0.725000X-0.150000X0*%
%ADD15R,3.050000X2.750000*%
%ADD16R,2.200000X1.200000*%
%ADD17R,2.200000X1.500000*%
%ADD18RoundRect,0.237500X-0.250000X-0.237500X0.250000X-0.237500X0.250000X0.237500X-0.250000X0.237500X0*%
%ADD19RoundRect,0.249998X-1.450002X0.537502X-1.450002X-0.537502X1.450002X-0.537502X1.450002X0.537502X0*%
%ADD20R,4.000000X1.500000*%
G04 APERTURE END LIST*
D10*
X225000000Y-98962500D03*
X225000000Y-101037500D03*
D11*
X191412500Y-73660000D03*
X189587500Y-73660000D03*
X191412500Y-71120000D03*
X189587500Y-71120000D03*
X191412500Y-68580000D03*
X189587500Y-68580000D03*
D12*
X186690000Y-89812500D03*
X186690000Y-87987500D03*
X186690000Y-86002500D03*
X186690000Y-84177500D03*
X186690000Y-82192500D03*
X186690000Y-80367500D03*
X186690000Y-78382500D03*
X186690000Y-76557500D03*
X186690000Y-74572500D03*
X186690000Y-72747500D03*
X186690000Y-70762500D03*
X186690000Y-68937500D03*
X186690000Y-66952500D03*
X186690000Y-65127500D03*
X186690000Y-63142500D03*
X186690000Y-61317500D03*
D13*
X189000000Y-59175000D03*
X189000000Y-61000000D03*
D12*
X191000000Y-60912500D03*
X191000000Y-59087500D03*
X179400000Y-82512500D03*
X179400000Y-80687500D03*
D13*
X177680000Y-87947500D03*
X177680000Y-89772500D03*
X167500000Y-86587500D03*
X167500000Y-88412500D03*
D11*
X171512500Y-77000000D03*
X169687500Y-77000000D03*
X192682500Y-99060000D03*
X190857500Y-99060000D03*
X192682500Y-101600000D03*
X190857500Y-101600000D03*
X192682500Y-106680000D03*
X190857500Y-106680000D03*
X192682500Y-109220000D03*
X190857500Y-109220000D03*
D14*
X175175000Y-89495000D03*
X175175000Y-88225000D03*
X175175000Y-86955000D03*
X175175000Y-85685000D03*
X170025000Y-85685000D03*
X170025000Y-86955000D03*
X170025000Y-88225000D03*
X170025000Y-89495000D03*
D15*
X245825000Y-101455000D03*
X245825000Y-98405000D03*
X242475000Y-98405000D03*
X242475000Y-101455000D03*
D16*
X250450000Y-102210000D03*
X250450000Y-97650000D03*
D15*
X245825000Y-79865000D03*
X245825000Y-76815000D03*
X242475000Y-76815000D03*
X242475000Y-79865000D03*
D16*
X250450000Y-80620000D03*
X250450000Y-76060000D03*
D15*
X266535000Y-98405000D03*
X263185000Y-98405000D03*
X266535000Y-101455000D03*
X263185000Y-101455000D03*
D16*
X258560000Y-97650000D03*
X258560000Y-102210000D03*
D15*
X263625000Y-78595000D03*
X266975000Y-75545000D03*
X266975000Y-78595000D03*
X263625000Y-75545000D03*
D16*
X259000000Y-74790000D03*
X259000000Y-79350000D03*
D13*
X193000000Y-59087500D03*
X193000000Y-60912500D03*
D11*
X191770000Y-63500000D03*
X189945000Y-63500000D03*
X191412500Y-76200000D03*
X189587500Y-76200000D03*
X191770000Y-81280000D03*
X189945000Y-81280000D03*
X191412500Y-83820000D03*
X189587500Y-83820000D03*
X191412500Y-86360000D03*
X189587500Y-86360000D03*
X191770000Y-88900000D03*
X189945000Y-88900000D03*
X192682500Y-96520000D03*
X190857500Y-96520000D03*
D10*
X176000000Y-81962500D03*
X176000000Y-84037500D03*
D17*
X171050000Y-95000000D03*
X173950000Y-95000000D03*
X173950000Y-80000000D03*
X171050000Y-80000000D03*
D18*
X171887500Y-98000000D03*
X173712500Y-98000000D03*
D19*
X182600000Y-81062500D03*
X182600000Y-85337500D03*
D10*
X179800000Y-87562500D03*
X179800000Y-89637500D03*
D20*
X142000000Y-84460000D03*
X142000000Y-89540000D03*
M02*
