M48
; DRILL file {KiCad (5.1.12)-1} date 12/12/21 15:41:27
; FORMAT={-:-/ absolute / metric / decimal}
; #@! TF.CreationDate,2021-12-12T15:41:27+01:00
; #@! TF.GenerationSoftware,Kicad,Pcbnew,(5.1.12)-1
; #@! TF.FileFunction,Plated,1,2,PTH
FMAT,2
METRIC
T1C0.400
T2C0.500
T3C0.800
T4C1.020
T5C1.100
T6C1.190
T7C1.300
T8C3.200
%
G90
G05
T1
X161.2Y-92.6
X162.8Y-92.6
X164.6Y-92.6
X168.25Y-81.75
X169.75Y-81.75
X170.8Y-92.6
X171.5Y-81.75
X172.6Y-92.6
X172.75Y-81.75
X174.25Y-81.75
X174.4Y-92.6
X181.6Y-59.4
X181.6Y-61.2
X181.6Y-62.8
X182.8Y-58.4
X184.0Y-57.4
X191.0Y-57.4
X193.0Y-57.4
X195.0Y-57.4
X197.2Y-57.4
X199.2Y-57.4
X201.0Y-57.4
X203.0Y-57.4
X205.0Y-57.4
X212.0Y-57.4
X213.0Y-58.0
X214.0Y-59.0
X218.6Y-102.6
X219.4Y-101.6
X220.4Y-100.8
X220.75Y-107.0
X221.75Y-106.0
X222.75Y-105.0
X223.5Y-104.0
X224.5Y-103.25
T2
X142.6Y-54.5
X142.6Y-120.0
X143.303Y-52.803
X143.303Y-56.197
X143.303Y-118.303
X143.303Y-121.697
X145.0Y-52.1
X145.0Y-56.9
X145.0Y-117.6
X145.0Y-122.4
X146.697Y-52.803
X146.697Y-56.197
X146.697Y-118.303
X146.697Y-121.697
X147.4Y-54.5
X147.4Y-120.0
X220.1Y-55.0
X220.1Y-120.0
X220.803Y-53.303
X220.803Y-56.697
X220.803Y-118.303
X220.803Y-121.697
X222.5Y-52.6
X222.5Y-57.4
X222.5Y-117.6
X222.5Y-122.4
X224.197Y-53.303
X224.197Y-56.697
X224.197Y-118.303
X224.197Y-121.697
X224.9Y-55.0
X224.9Y-120.0
X232.6Y-55.0
X232.6Y-120.0
X233.303Y-53.303
X233.303Y-56.697
X233.303Y-118.303
X233.303Y-121.697
X235.0Y-52.6
X235.0Y-57.4
X235.0Y-117.6
X235.0Y-122.4
X236.697Y-53.303
X236.697Y-56.697
X236.697Y-118.303
X236.697Y-121.697
X237.4Y-55.0
X237.4Y-120.0
X272.6Y-55.0
X272.6Y-120.0
X273.303Y-53.303
X273.303Y-56.697
X273.303Y-118.303
X273.303Y-121.697
X275.0Y-52.6
X275.0Y-57.4
X275.0Y-117.6
X275.0Y-122.4
X276.697Y-53.303
X276.697Y-56.697
X276.697Y-118.303
X276.697Y-121.697
X277.4Y-55.0
X277.4Y-120.0
T3
X235.9Y-68.171
X237.5Y-65.0
X237.5Y-67.5
X239.1Y-64.329
X240.84Y-91.711
X240.84Y-112.031
X242.44Y-88.54
X242.44Y-91.04
X242.44Y-108.86
X242.44Y-111.36
X244.04Y-87.869
X244.04Y-108.189
X263.7Y-90.401
X263.7Y-111.991
X265.3Y-87.23
X265.3Y-89.73
X265.3Y-108.82
X265.3Y-111.32
X266.9Y-86.559
X266.9Y-108.149
X268.4Y-67.541
X270.0Y-64.37
X270.0Y-66.87
X271.6Y-63.699
T4
X196.85Y-60.96
X196.85Y-63.5
X196.85Y-66.04
X196.85Y-68.58
X196.85Y-71.12
X196.85Y-73.66
X196.85Y-76.2
X196.85Y-78.74
X196.85Y-81.28
X196.85Y-83.82
X196.85Y-86.36
X196.85Y-88.9
X196.85Y-91.44
X196.85Y-93.98
X196.85Y-96.52
X196.85Y-99.06
X196.85Y-101.6
X196.85Y-104.14
X196.85Y-106.68
X196.85Y-109.22
X203.2Y-108.99
X205.74Y-108.99
X208.28Y-108.99
X214.63Y-60.96
X214.63Y-63.5
X214.63Y-66.04
X214.63Y-68.58
X214.63Y-71.12
X214.63Y-73.66
X214.63Y-76.2
X214.63Y-78.74
X214.63Y-81.28
X214.63Y-83.82
X214.63Y-86.36
X214.63Y-88.9
X214.63Y-91.44
X214.63Y-93.98
X214.63Y-96.52
X214.63Y-99.06
X214.63Y-101.6
X214.63Y-104.14
X214.63Y-106.68
X214.63Y-109.22
T5
X162.92Y-101.0
X164.0Y-73.0
X165.46Y-101.0
X166.54Y-73.0
X168.0Y-101.0
X169.08Y-73.0
T6
X146.0Y-65.0
X146.0Y-67.54
X146.0Y-70.08
X146.0Y-72.62
X146.0Y-75.16
X182.5Y-94.8
X182.5Y-97.34
X182.5Y-99.88
X182.5Y-102.42
X182.5Y-104.96
X182.5Y-107.5
X225.0Y-72.14
X225.0Y-74.68
X225.0Y-77.22
X225.0Y-79.76
X225.0Y-82.3
X225.0Y-84.84
X225.0Y-87.38
X225.0Y-89.92
X225.0Y-92.46
X225.0Y-95.0
X248.79Y-65.0
X251.33Y-65.0
X251.33Y-111.36
X253.87Y-65.0
X253.87Y-111.36
X256.41Y-65.0
X256.41Y-111.36
X258.95Y-65.0
T7
X154.0Y-85.5
X164.0Y-83.0
X164.0Y-88.0
T8
X145.0Y-54.5
X145.0Y-120.0
X222.5Y-55.0
X222.5Y-120.0
X235.0Y-55.0
X235.0Y-120.0
X275.0Y-55.0
X275.0Y-120.0
T0
M30
