G04 #@! TF.GenerationSoftware,KiCad,Pcbnew,(5.1.12)-1*
G04 #@! TF.CreationDate,2021-12-19T16:56:21+01:00*
G04 #@! TF.ProjectId,AWG,4157472e-6b69-4636-9164-5f7063625858,rev?*
G04 #@! TF.SameCoordinates,Original*
G04 #@! TF.FileFunction,Legend,Bot*
G04 #@! TF.FilePolarity,Positive*
%FSLAX46Y46*%
G04 Gerber Fmt 4.6, Leading zero omitted, Abs format (unit mm)*
G04 Created by KiCad (PCBNEW (5.1.12)-1) date 2021-12-19 16:56:21*
%MOMM*%
%LPD*%
G01*
G04 APERTURE LIST*
%ADD10C,0.010000*%
%ADD11C,0.120000*%
%ADD12C,0.150000*%
%ADD13C,1.600000*%
%ADD14R,1.600000X1.600000*%
%ADD15O,2.190000X1.740000*%
%ADD16R,4.000000X1.400000*%
%ADD17R,4.000000X1.500000*%
%ADD18O,1.740000X2.190000*%
%ADD19O,1.905000X2.000000*%
%ADD20R,1.905000X2.000000*%
%ADD21O,3.500000X3.500000*%
%ADD22C,2.340000*%
%ADD23C,4.000000*%
%ADD24O,1.700000X1.700000*%
%ADD25R,1.700000X1.700000*%
%ADD26O,1.800000X1.800000*%
%ADD27O,1.500000X1.500000*%
%ADD28C,6.400000*%
%ADD29C,0.800000*%
%ADD30C,0.254000*%
%ADD31C,0.100000*%
G04 APERTURE END LIST*
D10*
G36*
X204757652Y-79896090D02*
G01*
X204757222Y-79817546D01*
X204756058Y-79760702D01*
X204753793Y-79721895D01*
X204750060Y-79697462D01*
X204744494Y-79683738D01*
X204736727Y-79677060D01*
X204726395Y-79673764D01*
X204725057Y-79673444D01*
X204700921Y-79668438D01*
X204653299Y-79659171D01*
X204587259Y-79646608D01*
X204507872Y-79631713D01*
X204420204Y-79615449D01*
X204417125Y-79614881D01*
X204331211Y-79598590D01*
X204255304Y-79583348D01*
X204193955Y-79570139D01*
X204151718Y-79559946D01*
X204133145Y-79553752D01*
X204132816Y-79553457D01*
X204123747Y-79535212D01*
X204108633Y-79497595D01*
X204090738Y-79448729D01*
X204090642Y-79448457D01*
X204067507Y-79386907D01*
X204038035Y-79314343D01*
X204008403Y-79245943D01*
X204006938Y-79242706D01*
X203956374Y-79131298D01*
X204124840Y-78884601D01*
X204176197Y-78808923D01*
X204222111Y-78740369D01*
X204259970Y-78682912D01*
X204287163Y-78640524D01*
X204301079Y-78617175D01*
X204302111Y-78614958D01*
X204297516Y-78597990D01*
X204275345Y-78566299D01*
X204234553Y-78518648D01*
X204174095Y-78453802D01*
X204109773Y-78387603D01*
X204046388Y-78323786D01*
X203988549Y-78266671D01*
X203939825Y-78219695D01*
X203903790Y-78186297D01*
X203884016Y-78169915D01*
X203882998Y-78169306D01*
X203869428Y-78167495D01*
X203847267Y-78174317D01*
X203813522Y-78191460D01*
X203765200Y-78220607D01*
X203699308Y-78263445D01*
X203614483Y-78320552D01*
X203539823Y-78371234D01*
X203472860Y-78416539D01*
X203417484Y-78453850D01*
X203377580Y-78480548D01*
X203357038Y-78494015D01*
X203355644Y-78494863D01*
X203335962Y-78493219D01*
X203297707Y-78480755D01*
X203248111Y-78459952D01*
X203232272Y-78452538D01*
X203161710Y-78420186D01*
X203081647Y-78385672D01*
X203012371Y-78357635D01*
X202960955Y-78337432D01*
X202921881Y-78321385D01*
X202901459Y-78312112D01*
X202899886Y-78310959D01*
X202897279Y-78293904D01*
X202890137Y-78253702D01*
X202879477Y-78195698D01*
X202866315Y-78125237D01*
X202851667Y-78047665D01*
X202836551Y-77968328D01*
X202821982Y-77892569D01*
X202808978Y-77825736D01*
X202798555Y-77773172D01*
X202791730Y-77740224D01*
X202789801Y-77732143D01*
X202785038Y-77723795D01*
X202774282Y-77717494D01*
X202753902Y-77712955D01*
X202720266Y-77709896D01*
X202669745Y-77708033D01*
X202598708Y-77707082D01*
X202503524Y-77706760D01*
X202464508Y-77706743D01*
X202147201Y-77706743D01*
X202132161Y-77782943D01*
X202124005Y-77825337D01*
X202112101Y-77888600D01*
X202097884Y-77965038D01*
X202082790Y-78046957D01*
X202078645Y-78069600D01*
X202063947Y-78145194D01*
X202049495Y-78211047D01*
X202036625Y-78261634D01*
X202026678Y-78291426D01*
X202023713Y-78296388D01*
X202002717Y-78308574D01*
X201962033Y-78326047D01*
X201909678Y-78345423D01*
X201898400Y-78349266D01*
X201828477Y-78374661D01*
X201749582Y-78406183D01*
X201678734Y-78437031D01*
X201678405Y-78437183D01*
X201567267Y-78488553D01*
X201318747Y-78319601D01*
X201070228Y-78150648D01*
X200852942Y-78367571D01*
X200788274Y-78433181D01*
X200731267Y-78493021D01*
X200684967Y-78543733D01*
X200652416Y-78581954D01*
X200636657Y-78604325D01*
X200635657Y-78607534D01*
X200643531Y-78626374D01*
X200665422Y-78664820D01*
X200698733Y-78718670D01*
X200740869Y-78783724D01*
X200788057Y-78854060D01*
X200836190Y-78925445D01*
X200878072Y-78989092D01*
X200911129Y-79040959D01*
X200932782Y-79077005D01*
X200940457Y-79093133D01*
X200933963Y-79112811D01*
X200916850Y-79150125D01*
X200892674Y-79197379D01*
X200889987Y-79202388D01*
X200858073Y-79266023D01*
X200842421Y-79309659D01*
X200842255Y-79336798D01*
X200856796Y-79350943D01*
X200857000Y-79351025D01*
X200874221Y-79358095D01*
X200915101Y-79374958D01*
X200976475Y-79400305D01*
X201055181Y-79432829D01*
X201148053Y-79471222D01*
X201251928Y-79514178D01*
X201352498Y-79555778D01*
X201463484Y-79601496D01*
X201566297Y-79643474D01*
X201657785Y-79680452D01*
X201734799Y-79711173D01*
X201794185Y-79734378D01*
X201832791Y-79748810D01*
X201847200Y-79753257D01*
X201863728Y-79742104D01*
X201890070Y-79712931D01*
X201919113Y-79674029D01*
X202010961Y-79563243D01*
X202116241Y-79476649D01*
X202232734Y-79415284D01*
X202358224Y-79380185D01*
X202490493Y-79372392D01*
X202551543Y-79378057D01*
X202678205Y-79408922D01*
X202790059Y-79462080D01*
X202885999Y-79534233D01*
X202964924Y-79622083D01*
X203025730Y-79722335D01*
X203067313Y-79831690D01*
X203088572Y-79946853D01*
X203088401Y-80064525D01*
X203065699Y-80181410D01*
X203019362Y-80294211D01*
X202948287Y-80399631D01*
X202908089Y-80443632D01*
X202804871Y-80528021D01*
X202692075Y-80586778D01*
X202572990Y-80620296D01*
X202450905Y-80628965D01*
X202329107Y-80613177D01*
X202210884Y-80573322D01*
X202099525Y-80509793D01*
X201998316Y-80422979D01*
X201919113Y-80325971D01*
X201888838Y-80285563D01*
X201862781Y-80257018D01*
X201847175Y-80246743D01*
X201830157Y-80252123D01*
X201789500Y-80267425D01*
X201728358Y-80291388D01*
X201649881Y-80322756D01*
X201557220Y-80360268D01*
X201453528Y-80402667D01*
X201352474Y-80444337D01*
X201241393Y-80490310D01*
X201138459Y-80532893D01*
X201046835Y-80570779D01*
X200969684Y-80602660D01*
X200910169Y-80627229D01*
X200871456Y-80643180D01*
X200857000Y-80649090D01*
X200842315Y-80663052D01*
X200842358Y-80690060D01*
X200857901Y-80733587D01*
X200889716Y-80797110D01*
X200889987Y-80797612D01*
X200914677Y-80845440D01*
X200932662Y-80884103D01*
X200940386Y-80905905D01*
X200940457Y-80906867D01*
X200932622Y-80923279D01*
X200910835Y-80959513D01*
X200877672Y-81011526D01*
X200835709Y-81075275D01*
X200788057Y-81145940D01*
X200739809Y-81217884D01*
X200697849Y-81282726D01*
X200664773Y-81336265D01*
X200643179Y-81374303D01*
X200635657Y-81392467D01*
X200645543Y-81409192D01*
X200673174Y-81442820D01*
X200715505Y-81489990D01*
X200769495Y-81547342D01*
X200832101Y-81611516D01*
X200853017Y-81632503D01*
X201070377Y-81849501D01*
X201312780Y-81684332D01*
X201387219Y-81634136D01*
X201454028Y-81590081D01*
X201509335Y-81554638D01*
X201549271Y-81530281D01*
X201569964Y-81519478D01*
X201571437Y-81519162D01*
X201590942Y-81524857D01*
X201630178Y-81540174D01*
X201682570Y-81562463D01*
X201717645Y-81578107D01*
X201784799Y-81607359D01*
X201852642Y-81634906D01*
X201909966Y-81656263D01*
X201927428Y-81662065D01*
X201974062Y-81678548D01*
X202010095Y-81694660D01*
X202023713Y-81703510D01*
X202032048Y-81723040D01*
X202043863Y-81765666D01*
X202057819Y-81825855D01*
X202072578Y-81898078D01*
X202078645Y-81930400D01*
X202093727Y-82012478D01*
X202108331Y-82091205D01*
X202121020Y-82158891D01*
X202130358Y-82207840D01*
X202132161Y-82217057D01*
X202147201Y-82293257D01*
X202464508Y-82293257D01*
X202568846Y-82293086D01*
X202647787Y-82292384D01*
X202704962Y-82290866D01*
X202744001Y-82288251D01*
X202768535Y-82284254D01*
X202782195Y-82278591D01*
X202788611Y-82270980D01*
X202789801Y-82267857D01*
X202794020Y-82249022D01*
X202802438Y-82207412D01*
X202814039Y-82148370D01*
X202827805Y-82077243D01*
X202842720Y-81999375D01*
X202857768Y-81920113D01*
X202871931Y-81844802D01*
X202884194Y-81778787D01*
X202893539Y-81727413D01*
X202898950Y-81696025D01*
X202899886Y-81689041D01*
X202912404Y-81682715D01*
X202945754Y-81668710D01*
X202993623Y-81649645D01*
X203012371Y-81642366D01*
X203084805Y-81613004D01*
X203164830Y-81578429D01*
X203232272Y-81547463D01*
X203283841Y-81524677D01*
X203326215Y-81509518D01*
X203352166Y-81504458D01*
X203355644Y-81505264D01*
X203372064Y-81515959D01*
X203408583Y-81540380D01*
X203461313Y-81575905D01*
X203526365Y-81619913D01*
X203599849Y-81669783D01*
X203614355Y-81679644D01*
X203700296Y-81737508D01*
X203765739Y-81780044D01*
X203813696Y-81808946D01*
X203847180Y-81825910D01*
X203869205Y-81832633D01*
X203882783Y-81830810D01*
X203882869Y-81830764D01*
X203900703Y-81816414D01*
X203935183Y-81784677D01*
X203982732Y-81738990D01*
X204039778Y-81682796D01*
X204102745Y-81619532D01*
X204109773Y-81612398D01*
X204186980Y-81532670D01*
X204243670Y-81471143D01*
X204280890Y-81426579D01*
X204299685Y-81397743D01*
X204302111Y-81385042D01*
X204291529Y-81366506D01*
X204267084Y-81328039D01*
X204231388Y-81273614D01*
X204187053Y-81207202D01*
X204136689Y-81132775D01*
X204124840Y-81115399D01*
X203956374Y-80868703D01*
X204006938Y-80757294D01*
X204036405Y-80689543D01*
X204066041Y-80616817D01*
X204089670Y-80554297D01*
X204090642Y-80551543D01*
X204108543Y-80502640D01*
X204123680Y-80464943D01*
X204132790Y-80446575D01*
X204132816Y-80446544D01*
X204149283Y-80440715D01*
X204189781Y-80430808D01*
X204249758Y-80417805D01*
X204324660Y-80402691D01*
X204409936Y-80386448D01*
X204417125Y-80385119D01*
X204504986Y-80368825D01*
X204584740Y-80353867D01*
X204651319Y-80341209D01*
X204699653Y-80331814D01*
X204724675Y-80326646D01*
X204725057Y-80326556D01*
X204735701Y-80323411D01*
X204743738Y-80317296D01*
X204749533Y-80304547D01*
X204753453Y-80281500D01*
X204755865Y-80244491D01*
X204757135Y-80189856D01*
X204757629Y-80113933D01*
X204757714Y-80013056D01*
X204757714Y-80000000D01*
X204757652Y-79896090D01*
G37*
X204757652Y-79896090D02*
X204757222Y-79817546D01*
X204756058Y-79760702D01*
X204753793Y-79721895D01*
X204750060Y-79697462D01*
X204744494Y-79683738D01*
X204736727Y-79677060D01*
X204726395Y-79673764D01*
X204725057Y-79673444D01*
X204700921Y-79668438D01*
X204653299Y-79659171D01*
X204587259Y-79646608D01*
X204507872Y-79631713D01*
X204420204Y-79615449D01*
X204417125Y-79614881D01*
X204331211Y-79598590D01*
X204255304Y-79583348D01*
X204193955Y-79570139D01*
X204151718Y-79559946D01*
X204133145Y-79553752D01*
X204132816Y-79553457D01*
X204123747Y-79535212D01*
X204108633Y-79497595D01*
X204090738Y-79448729D01*
X204090642Y-79448457D01*
X204067507Y-79386907D01*
X204038035Y-79314343D01*
X204008403Y-79245943D01*
X204006938Y-79242706D01*
X203956374Y-79131298D01*
X204124840Y-78884601D01*
X204176197Y-78808923D01*
X204222111Y-78740369D01*
X204259970Y-78682912D01*
X204287163Y-78640524D01*
X204301079Y-78617175D01*
X204302111Y-78614958D01*
X204297516Y-78597990D01*
X204275345Y-78566299D01*
X204234553Y-78518648D01*
X204174095Y-78453802D01*
X204109773Y-78387603D01*
X204046388Y-78323786D01*
X203988549Y-78266671D01*
X203939825Y-78219695D01*
X203903790Y-78186297D01*
X203884016Y-78169915D01*
X203882998Y-78169306D01*
X203869428Y-78167495D01*
X203847267Y-78174317D01*
X203813522Y-78191460D01*
X203765200Y-78220607D01*
X203699308Y-78263445D01*
X203614483Y-78320552D01*
X203539823Y-78371234D01*
X203472860Y-78416539D01*
X203417484Y-78453850D01*
X203377580Y-78480548D01*
X203357038Y-78494015D01*
X203355644Y-78494863D01*
X203335962Y-78493219D01*
X203297707Y-78480755D01*
X203248111Y-78459952D01*
X203232272Y-78452538D01*
X203161710Y-78420186D01*
X203081647Y-78385672D01*
X203012371Y-78357635D01*
X202960955Y-78337432D01*
X202921881Y-78321385D01*
X202901459Y-78312112D01*
X202899886Y-78310959D01*
X202897279Y-78293904D01*
X202890137Y-78253702D01*
X202879477Y-78195698D01*
X202866315Y-78125237D01*
X202851667Y-78047665D01*
X202836551Y-77968328D01*
X202821982Y-77892569D01*
X202808978Y-77825736D01*
X202798555Y-77773172D01*
X202791730Y-77740224D01*
X202789801Y-77732143D01*
X202785038Y-77723795D01*
X202774282Y-77717494D01*
X202753902Y-77712955D01*
X202720266Y-77709896D01*
X202669745Y-77708033D01*
X202598708Y-77707082D01*
X202503524Y-77706760D01*
X202464508Y-77706743D01*
X202147201Y-77706743D01*
X202132161Y-77782943D01*
X202124005Y-77825337D01*
X202112101Y-77888600D01*
X202097884Y-77965038D01*
X202082790Y-78046957D01*
X202078645Y-78069600D01*
X202063947Y-78145194D01*
X202049495Y-78211047D01*
X202036625Y-78261634D01*
X202026678Y-78291426D01*
X202023713Y-78296388D01*
X202002717Y-78308574D01*
X201962033Y-78326047D01*
X201909678Y-78345423D01*
X201898400Y-78349266D01*
X201828477Y-78374661D01*
X201749582Y-78406183D01*
X201678734Y-78437031D01*
X201678405Y-78437183D01*
X201567267Y-78488553D01*
X201318747Y-78319601D01*
X201070228Y-78150648D01*
X200852942Y-78367571D01*
X200788274Y-78433181D01*
X200731267Y-78493021D01*
X200684967Y-78543733D01*
X200652416Y-78581954D01*
X200636657Y-78604325D01*
X200635657Y-78607534D01*
X200643531Y-78626374D01*
X200665422Y-78664820D01*
X200698733Y-78718670D01*
X200740869Y-78783724D01*
X200788057Y-78854060D01*
X200836190Y-78925445D01*
X200878072Y-78989092D01*
X200911129Y-79040959D01*
X200932782Y-79077005D01*
X200940457Y-79093133D01*
X200933963Y-79112811D01*
X200916850Y-79150125D01*
X200892674Y-79197379D01*
X200889987Y-79202388D01*
X200858073Y-79266023D01*
X200842421Y-79309659D01*
X200842255Y-79336798D01*
X200856796Y-79350943D01*
X200857000Y-79351025D01*
X200874221Y-79358095D01*
X200915101Y-79374958D01*
X200976475Y-79400305D01*
X201055181Y-79432829D01*
X201148053Y-79471222D01*
X201251928Y-79514178D01*
X201352498Y-79555778D01*
X201463484Y-79601496D01*
X201566297Y-79643474D01*
X201657785Y-79680452D01*
X201734799Y-79711173D01*
X201794185Y-79734378D01*
X201832791Y-79748810D01*
X201847200Y-79753257D01*
X201863728Y-79742104D01*
X201890070Y-79712931D01*
X201919113Y-79674029D01*
X202010961Y-79563243D01*
X202116241Y-79476649D01*
X202232734Y-79415284D01*
X202358224Y-79380185D01*
X202490493Y-79372392D01*
X202551543Y-79378057D01*
X202678205Y-79408922D01*
X202790059Y-79462080D01*
X202885999Y-79534233D01*
X202964924Y-79622083D01*
X203025730Y-79722335D01*
X203067313Y-79831690D01*
X203088572Y-79946853D01*
X203088401Y-80064525D01*
X203065699Y-80181410D01*
X203019362Y-80294211D01*
X202948287Y-80399631D01*
X202908089Y-80443632D01*
X202804871Y-80528021D01*
X202692075Y-80586778D01*
X202572990Y-80620296D01*
X202450905Y-80628965D01*
X202329107Y-80613177D01*
X202210884Y-80573322D01*
X202099525Y-80509793D01*
X201998316Y-80422979D01*
X201919113Y-80325971D01*
X201888838Y-80285563D01*
X201862781Y-80257018D01*
X201847175Y-80246743D01*
X201830157Y-80252123D01*
X201789500Y-80267425D01*
X201728358Y-80291388D01*
X201649881Y-80322756D01*
X201557220Y-80360268D01*
X201453528Y-80402667D01*
X201352474Y-80444337D01*
X201241393Y-80490310D01*
X201138459Y-80532893D01*
X201046835Y-80570779D01*
X200969684Y-80602660D01*
X200910169Y-80627229D01*
X200871456Y-80643180D01*
X200857000Y-80649090D01*
X200842315Y-80663052D01*
X200842358Y-80690060D01*
X200857901Y-80733587D01*
X200889716Y-80797110D01*
X200889987Y-80797612D01*
X200914677Y-80845440D01*
X200932662Y-80884103D01*
X200940386Y-80905905D01*
X200940457Y-80906867D01*
X200932622Y-80923279D01*
X200910835Y-80959513D01*
X200877672Y-81011526D01*
X200835709Y-81075275D01*
X200788057Y-81145940D01*
X200739809Y-81217884D01*
X200697849Y-81282726D01*
X200664773Y-81336265D01*
X200643179Y-81374303D01*
X200635657Y-81392467D01*
X200645543Y-81409192D01*
X200673174Y-81442820D01*
X200715505Y-81489990D01*
X200769495Y-81547342D01*
X200832101Y-81611516D01*
X200853017Y-81632503D01*
X201070377Y-81849501D01*
X201312780Y-81684332D01*
X201387219Y-81634136D01*
X201454028Y-81590081D01*
X201509335Y-81554638D01*
X201549271Y-81530281D01*
X201569964Y-81519478D01*
X201571437Y-81519162D01*
X201590942Y-81524857D01*
X201630178Y-81540174D01*
X201682570Y-81562463D01*
X201717645Y-81578107D01*
X201784799Y-81607359D01*
X201852642Y-81634906D01*
X201909966Y-81656263D01*
X201927428Y-81662065D01*
X201974062Y-81678548D01*
X202010095Y-81694660D01*
X202023713Y-81703510D01*
X202032048Y-81723040D01*
X202043863Y-81765666D01*
X202057819Y-81825855D01*
X202072578Y-81898078D01*
X202078645Y-81930400D01*
X202093727Y-82012478D01*
X202108331Y-82091205D01*
X202121020Y-82158891D01*
X202130358Y-82207840D01*
X202132161Y-82217057D01*
X202147201Y-82293257D01*
X202464508Y-82293257D01*
X202568846Y-82293086D01*
X202647787Y-82292384D01*
X202704962Y-82290866D01*
X202744001Y-82288251D01*
X202768535Y-82284254D01*
X202782195Y-82278591D01*
X202788611Y-82270980D01*
X202789801Y-82267857D01*
X202794020Y-82249022D01*
X202802438Y-82207412D01*
X202814039Y-82148370D01*
X202827805Y-82077243D01*
X202842720Y-81999375D01*
X202857768Y-81920113D01*
X202871931Y-81844802D01*
X202884194Y-81778787D01*
X202893539Y-81727413D01*
X202898950Y-81696025D01*
X202899886Y-81689041D01*
X202912404Y-81682715D01*
X202945754Y-81668710D01*
X202993623Y-81649645D01*
X203012371Y-81642366D01*
X203084805Y-81613004D01*
X203164830Y-81578429D01*
X203232272Y-81547463D01*
X203283841Y-81524677D01*
X203326215Y-81509518D01*
X203352166Y-81504458D01*
X203355644Y-81505264D01*
X203372064Y-81515959D01*
X203408583Y-81540380D01*
X203461313Y-81575905D01*
X203526365Y-81619913D01*
X203599849Y-81669783D01*
X203614355Y-81679644D01*
X203700296Y-81737508D01*
X203765739Y-81780044D01*
X203813696Y-81808946D01*
X203847180Y-81825910D01*
X203869205Y-81832633D01*
X203882783Y-81830810D01*
X203882869Y-81830764D01*
X203900703Y-81816414D01*
X203935183Y-81784677D01*
X203982732Y-81738990D01*
X204039778Y-81682796D01*
X204102745Y-81619532D01*
X204109773Y-81612398D01*
X204186980Y-81532670D01*
X204243670Y-81471143D01*
X204280890Y-81426579D01*
X204299685Y-81397743D01*
X204302111Y-81385042D01*
X204291529Y-81366506D01*
X204267084Y-81328039D01*
X204231388Y-81273614D01*
X204187053Y-81207202D01*
X204136689Y-81132775D01*
X204124840Y-81115399D01*
X203956374Y-80868703D01*
X204006938Y-80757294D01*
X204036405Y-80689543D01*
X204066041Y-80616817D01*
X204089670Y-80554297D01*
X204090642Y-80551543D01*
X204108543Y-80502640D01*
X204123680Y-80464943D01*
X204132790Y-80446575D01*
X204132816Y-80446544D01*
X204149283Y-80440715D01*
X204189781Y-80430808D01*
X204249758Y-80417805D01*
X204324660Y-80402691D01*
X204409936Y-80386448D01*
X204417125Y-80385119D01*
X204504986Y-80368825D01*
X204584740Y-80353867D01*
X204651319Y-80341209D01*
X204699653Y-80331814D01*
X204724675Y-80326646D01*
X204725057Y-80326556D01*
X204735701Y-80323411D01*
X204743738Y-80317296D01*
X204749533Y-80304547D01*
X204753453Y-80281500D01*
X204755865Y-80244491D01*
X204757135Y-80189856D01*
X204757629Y-80113933D01*
X204757714Y-80013056D01*
X204757714Y-80000000D01*
X204757652Y-79896090D01*
G36*
X200033034Y-76846405D02*
G01*
X199995503Y-76788979D01*
X199961904Y-76761281D01*
X199900936Y-76739338D01*
X199852692Y-76737595D01*
X199788184Y-76741543D01*
X199723066Y-76890314D01*
X199689798Y-76962651D01*
X199663036Y-77009916D01*
X199639856Y-77034493D01*
X199617333Y-77038763D01*
X199592545Y-77025111D01*
X199576114Y-77010057D01*
X199549765Y-76966254D01*
X199547919Y-76918611D01*
X199568454Y-76874855D01*
X199609248Y-76842711D01*
X199623653Y-76836962D01*
X199668644Y-76809424D01*
X199687818Y-76777742D01*
X199704221Y-76734286D01*
X199642034Y-76734286D01*
X199599717Y-76738128D01*
X199564031Y-76753177D01*
X199523057Y-76784720D01*
X199517733Y-76789408D01*
X199481280Y-76824494D01*
X199461717Y-76854653D01*
X199452717Y-76892385D01*
X199449770Y-76923665D01*
X199449035Y-76979615D01*
X199458340Y-77019445D01*
X199472154Y-77044292D01*
X199502533Y-77083344D01*
X199535387Y-77110375D01*
X199576706Y-77127483D01*
X199632479Y-77136762D01*
X199708695Y-77140307D01*
X199747378Y-77140590D01*
X199793753Y-77139628D01*
X199793753Y-77051993D01*
X199768874Y-77050977D01*
X199764800Y-77048444D01*
X199770335Y-77031726D01*
X199784983Y-76995751D01*
X199805810Y-76947669D01*
X199810286Y-76937614D01*
X199841186Y-76876848D01*
X199868343Y-76843368D01*
X199893780Y-76836010D01*
X199919519Y-76853609D01*
X199930891Y-76868144D01*
X199953636Y-76920590D01*
X199949878Y-76969678D01*
X199922116Y-77010773D01*
X199872848Y-77039242D01*
X199833743Y-77048369D01*
X199793753Y-77051993D01*
X199793753Y-77139628D01*
X199837751Y-77138715D01*
X199904616Y-77131804D01*
X199953305Y-77118116D01*
X199989151Y-77095904D01*
X200017487Y-77063426D01*
X200026645Y-77049267D01*
X200050493Y-76984947D01*
X200051994Y-76914527D01*
X200033034Y-76846405D01*
G37*
X200033034Y-76846405D02*
X199995503Y-76788979D01*
X199961904Y-76761281D01*
X199900936Y-76739338D01*
X199852692Y-76737595D01*
X199788184Y-76741543D01*
X199723066Y-76890314D01*
X199689798Y-76962651D01*
X199663036Y-77009916D01*
X199639856Y-77034493D01*
X199617333Y-77038763D01*
X199592545Y-77025111D01*
X199576114Y-77010057D01*
X199549765Y-76966254D01*
X199547919Y-76918611D01*
X199568454Y-76874855D01*
X199609248Y-76842711D01*
X199623653Y-76836962D01*
X199668644Y-76809424D01*
X199687818Y-76777742D01*
X199704221Y-76734286D01*
X199642034Y-76734286D01*
X199599717Y-76738128D01*
X199564031Y-76753177D01*
X199523057Y-76784720D01*
X199517733Y-76789408D01*
X199481280Y-76824494D01*
X199461717Y-76854653D01*
X199452717Y-76892385D01*
X199449770Y-76923665D01*
X199449035Y-76979615D01*
X199458340Y-77019445D01*
X199472154Y-77044292D01*
X199502533Y-77083344D01*
X199535387Y-77110375D01*
X199576706Y-77127483D01*
X199632479Y-77136762D01*
X199708695Y-77140307D01*
X199747378Y-77140590D01*
X199793753Y-77139628D01*
X199793753Y-77051993D01*
X199768874Y-77050977D01*
X199764800Y-77048444D01*
X199770335Y-77031726D01*
X199784983Y-76995751D01*
X199805810Y-76947669D01*
X199810286Y-76937614D01*
X199841186Y-76876848D01*
X199868343Y-76843368D01*
X199893780Y-76836010D01*
X199919519Y-76853609D01*
X199930891Y-76868144D01*
X199953636Y-76920590D01*
X199949878Y-76969678D01*
X199922116Y-77010773D01*
X199872848Y-77039242D01*
X199833743Y-77048369D01*
X199793753Y-77051993D01*
X199793753Y-77139628D01*
X199837751Y-77138715D01*
X199904616Y-77131804D01*
X199953305Y-77118116D01*
X199989151Y-77095904D01*
X200017487Y-77063426D01*
X200026645Y-77049267D01*
X200050493Y-76984947D01*
X200051994Y-76914527D01*
X200033034Y-76846405D01*
G36*
X200041248Y-77347400D02*
G01*
X200033666Y-77330052D01*
X200000872Y-77288644D01*
X199953453Y-77253235D01*
X199902849Y-77231336D01*
X199877902Y-77227771D01*
X199843073Y-77239721D01*
X199824643Y-77265933D01*
X199813484Y-77294036D01*
X199811428Y-77306905D01*
X199826351Y-77313171D01*
X199858825Y-77325544D01*
X199873498Y-77330972D01*
X199924256Y-77361410D01*
X199949573Y-77405480D01*
X199948794Y-77461990D01*
X199947797Y-77466175D01*
X199933493Y-77496345D01*
X199905607Y-77518524D01*
X199860713Y-77533673D01*
X199795385Y-77542750D01*
X199706196Y-77546714D01*
X199658739Y-77547086D01*
X199583929Y-77547270D01*
X199532931Y-77548478D01*
X199500529Y-77551691D01*
X199481505Y-77557891D01*
X199470644Y-77568060D01*
X199462728Y-77583181D01*
X199462330Y-77584054D01*
X199450019Y-77613172D01*
X199445486Y-77627597D01*
X199459191Y-77629814D01*
X199497075Y-77631711D01*
X199554285Y-77633153D01*
X199625973Y-77634002D01*
X199678435Y-77634171D01*
X199779953Y-77633308D01*
X199856968Y-77629930D01*
X199913977Y-77622858D01*
X199955474Y-77610912D01*
X199985957Y-77592910D01*
X200009920Y-77567673D01*
X200026645Y-77542753D01*
X200048903Y-77482829D01*
X200053924Y-77413089D01*
X200041248Y-77347400D01*
G37*
X200041248Y-77347400D02*
X200033666Y-77330052D01*
X200000872Y-77288644D01*
X199953453Y-77253235D01*
X199902849Y-77231336D01*
X199877902Y-77227771D01*
X199843073Y-77239721D01*
X199824643Y-77265933D01*
X199813484Y-77294036D01*
X199811428Y-77306905D01*
X199826351Y-77313171D01*
X199858825Y-77325544D01*
X199873498Y-77330972D01*
X199924256Y-77361410D01*
X199949573Y-77405480D01*
X199948794Y-77461990D01*
X199947797Y-77466175D01*
X199933493Y-77496345D01*
X199905607Y-77518524D01*
X199860713Y-77533673D01*
X199795385Y-77542750D01*
X199706196Y-77546714D01*
X199658739Y-77547086D01*
X199583929Y-77547270D01*
X199532931Y-77548478D01*
X199500529Y-77551691D01*
X199481505Y-77557891D01*
X199470644Y-77568060D01*
X199462728Y-77583181D01*
X199462330Y-77584054D01*
X199450019Y-77613172D01*
X199445486Y-77627597D01*
X199459191Y-77629814D01*
X199497075Y-77631711D01*
X199554285Y-77633153D01*
X199625973Y-77634002D01*
X199678435Y-77634171D01*
X199779953Y-77633308D01*
X199856968Y-77629930D01*
X199913977Y-77622858D01*
X199955474Y-77610912D01*
X199985957Y-77592910D01*
X200009920Y-77567673D01*
X200026645Y-77542753D01*
X200048903Y-77482829D01*
X200053924Y-77413089D01*
X200041248Y-77347400D01*
G36*
X200043665Y-77855124D02*
G01*
X200024656Y-77813333D01*
X200001622Y-77780531D01*
X199975867Y-77756497D01*
X199942642Y-77739903D01*
X199897200Y-77729423D01*
X199834793Y-77723729D01*
X199750673Y-77721493D01*
X199695279Y-77721257D01*
X199479174Y-77721257D01*
X199462330Y-77758226D01*
X199450019Y-77787344D01*
X199445486Y-77801769D01*
X199458975Y-77804528D01*
X199495347Y-77806718D01*
X199548458Y-77808058D01*
X199590628Y-77808343D01*
X199651553Y-77809566D01*
X199699885Y-77812864D01*
X199729482Y-77817679D01*
X199735771Y-77821504D01*
X199729348Y-77847217D01*
X199712875Y-77887582D01*
X199690542Y-77934321D01*
X199666543Y-77979155D01*
X199645070Y-78013807D01*
X199630315Y-78029998D01*
X199630155Y-78030062D01*
X199602848Y-78028670D01*
X199576781Y-78016182D01*
X199555608Y-77994257D01*
X199548526Y-77962257D01*
X199549351Y-77934908D01*
X199549958Y-77896174D01*
X199540884Y-77875842D01*
X199516908Y-77863631D01*
X199512387Y-77862091D01*
X199478194Y-77856797D01*
X199457432Y-77870953D01*
X199447538Y-77907852D01*
X199445708Y-77947711D01*
X199459273Y-78019438D01*
X199478645Y-78056568D01*
X199524155Y-78102424D01*
X199580017Y-78126744D01*
X199639043Y-78128927D01*
X199694047Y-78108371D01*
X199728514Y-78077451D01*
X199747811Y-78046580D01*
X199772241Y-77998058D01*
X199797015Y-77941515D01*
X199800801Y-77932090D01*
X199828209Y-77869981D01*
X199852366Y-77834178D01*
X199876381Y-77822663D01*
X199903365Y-77833420D01*
X199924457Y-77851886D01*
X199950428Y-77895531D01*
X199952376Y-77943554D01*
X199932363Y-77987594D01*
X199892449Y-78019291D01*
X199882152Y-78023451D01*
X199844276Y-78047673D01*
X199816158Y-78083035D01*
X199793083Y-78127657D01*
X199858515Y-78127657D01*
X199898494Y-78125031D01*
X199930003Y-78113770D01*
X199963622Y-78088801D01*
X199989516Y-78064831D01*
X200026183Y-78027559D01*
X200045879Y-77998599D01*
X200053780Y-77967495D01*
X200055086Y-77932287D01*
X200043665Y-77855124D01*
G37*
X200043665Y-77855124D02*
X200024656Y-77813333D01*
X200001622Y-77780531D01*
X199975867Y-77756497D01*
X199942642Y-77739903D01*
X199897200Y-77729423D01*
X199834793Y-77723729D01*
X199750673Y-77721493D01*
X199695279Y-77721257D01*
X199479174Y-77721257D01*
X199462330Y-77758226D01*
X199450019Y-77787344D01*
X199445486Y-77801769D01*
X199458975Y-77804528D01*
X199495347Y-77806718D01*
X199548458Y-77808058D01*
X199590628Y-77808343D01*
X199651553Y-77809566D01*
X199699885Y-77812864D01*
X199729482Y-77817679D01*
X199735771Y-77821504D01*
X199729348Y-77847217D01*
X199712875Y-77887582D01*
X199690542Y-77934321D01*
X199666543Y-77979155D01*
X199645070Y-78013807D01*
X199630315Y-78029998D01*
X199630155Y-78030062D01*
X199602848Y-78028670D01*
X199576781Y-78016182D01*
X199555608Y-77994257D01*
X199548526Y-77962257D01*
X199549351Y-77934908D01*
X199549958Y-77896174D01*
X199540884Y-77875842D01*
X199516908Y-77863631D01*
X199512387Y-77862091D01*
X199478194Y-77856797D01*
X199457432Y-77870953D01*
X199447538Y-77907852D01*
X199445708Y-77947711D01*
X199459273Y-78019438D01*
X199478645Y-78056568D01*
X199524155Y-78102424D01*
X199580017Y-78126744D01*
X199639043Y-78128927D01*
X199694047Y-78108371D01*
X199728514Y-78077451D01*
X199747811Y-78046580D01*
X199772241Y-77998058D01*
X199797015Y-77941515D01*
X199800801Y-77932090D01*
X199828209Y-77869981D01*
X199852366Y-77834178D01*
X199876381Y-77822663D01*
X199903365Y-77833420D01*
X199924457Y-77851886D01*
X199950428Y-77895531D01*
X199952376Y-77943554D01*
X199932363Y-77987594D01*
X199892449Y-78019291D01*
X199882152Y-78023451D01*
X199844276Y-78047673D01*
X199816158Y-78083035D01*
X199793083Y-78127657D01*
X199858515Y-78127657D01*
X199898494Y-78125031D01*
X199930003Y-78113770D01*
X199963622Y-78088801D01*
X199989516Y-78064831D01*
X200026183Y-78027559D01*
X200045879Y-77998599D01*
X200053780Y-77967495D01*
X200055086Y-77932287D01*
X200043665Y-77855124D01*
G36*
X200041337Y-78220167D02*
G01*
X200003150Y-78217952D01*
X199945114Y-78216216D01*
X199871820Y-78215101D01*
X199794945Y-78214743D01*
X199534804Y-78214743D01*
X199488873Y-78260674D01*
X199460571Y-78292325D01*
X199449107Y-78320110D01*
X199449832Y-78358085D01*
X199451679Y-78373160D01*
X199457052Y-78420274D01*
X199460131Y-78459244D01*
X199460415Y-78468743D01*
X199458555Y-78500767D01*
X199453886Y-78546568D01*
X199451679Y-78564326D01*
X199448265Y-78607943D01*
X199455680Y-78637255D01*
X199478573Y-78666320D01*
X199488873Y-78676812D01*
X199534804Y-78722743D01*
X200021398Y-78722743D01*
X200038242Y-78685774D01*
X200050718Y-78653941D01*
X200055086Y-78635317D01*
X200041282Y-78630542D01*
X200002714Y-78626079D01*
X199943644Y-78622225D01*
X199868337Y-78619278D01*
X199804714Y-78617857D01*
X199554343Y-78613886D01*
X199549444Y-78579241D01*
X199552869Y-78547732D01*
X199563959Y-78532292D01*
X199584692Y-78527977D01*
X199628855Y-78524292D01*
X199690854Y-78521531D01*
X199765091Y-78519988D01*
X199803294Y-78519765D01*
X200023217Y-78519543D01*
X200039151Y-78473834D01*
X200049985Y-78441482D01*
X200055038Y-78423885D01*
X200055086Y-78423377D01*
X200041352Y-78421612D01*
X200003270Y-78419671D01*
X199945518Y-78417718D01*
X199872773Y-78415916D01*
X199804714Y-78414657D01*
X199554343Y-78410686D01*
X199554343Y-78323600D01*
X199782760Y-78319604D01*
X200011178Y-78315608D01*
X200033132Y-78273153D01*
X200048207Y-78241808D01*
X200055049Y-78223256D01*
X200055086Y-78222721D01*
X200041337Y-78220167D01*
G37*
X200041337Y-78220167D02*
X200003150Y-78217952D01*
X199945114Y-78216216D01*
X199871820Y-78215101D01*
X199794945Y-78214743D01*
X199534804Y-78214743D01*
X199488873Y-78260674D01*
X199460571Y-78292325D01*
X199449107Y-78320110D01*
X199449832Y-78358085D01*
X199451679Y-78373160D01*
X199457052Y-78420274D01*
X199460131Y-78459244D01*
X199460415Y-78468743D01*
X199458555Y-78500767D01*
X199453886Y-78546568D01*
X199451679Y-78564326D01*
X199448265Y-78607943D01*
X199455680Y-78637255D01*
X199478573Y-78666320D01*
X199488873Y-78676812D01*
X199534804Y-78722743D01*
X200021398Y-78722743D01*
X200038242Y-78685774D01*
X200050718Y-78653941D01*
X200055086Y-78635317D01*
X200041282Y-78630542D01*
X200002714Y-78626079D01*
X199943644Y-78622225D01*
X199868337Y-78619278D01*
X199804714Y-78617857D01*
X199554343Y-78613886D01*
X199549444Y-78579241D01*
X199552869Y-78547732D01*
X199563959Y-78532292D01*
X199584692Y-78527977D01*
X199628855Y-78524292D01*
X199690854Y-78521531D01*
X199765091Y-78519988D01*
X199803294Y-78519765D01*
X200023217Y-78519543D01*
X200039151Y-78473834D01*
X200049985Y-78441482D01*
X200055038Y-78423885D01*
X200055086Y-78423377D01*
X200041352Y-78421612D01*
X200003270Y-78419671D01*
X199945518Y-78417718D01*
X199872773Y-78415916D01*
X199804714Y-78414657D01*
X199554343Y-78410686D01*
X199554343Y-78323600D01*
X199782760Y-78319604D01*
X200011178Y-78315608D01*
X200033132Y-78273153D01*
X200048207Y-78241808D01*
X200055049Y-78223256D01*
X200055086Y-78222721D01*
X200041337Y-78220167D01*
G36*
X199934642Y-78809883D02*
G01*
X199826163Y-78810067D01*
X199742713Y-78810781D01*
X199680296Y-78812325D01*
X199634915Y-78814999D01*
X199602571Y-78819106D01*
X199579267Y-78824945D01*
X199561005Y-78832818D01*
X199550582Y-78838779D01*
X199494055Y-78888145D01*
X199458623Y-78950736D01*
X199445910Y-79019987D01*
X199457537Y-79089332D01*
X199478432Y-79130625D01*
X199514578Y-79173975D01*
X199558724Y-79203519D01*
X199616538Y-79221345D01*
X199693687Y-79229537D01*
X199750286Y-79230698D01*
X199754353Y-79230542D01*
X199754353Y-79129143D01*
X199689450Y-79128524D01*
X199646486Y-79125686D01*
X199618378Y-79119160D01*
X199598047Y-79107477D01*
X199582712Y-79093517D01*
X199553110Y-79046635D01*
X199550581Y-78996299D01*
X199575295Y-78948724D01*
X199578644Y-78945021D01*
X199596065Y-78929217D01*
X199616791Y-78919307D01*
X199647638Y-78913942D01*
X199695423Y-78911772D01*
X199748252Y-78911429D01*
X199814619Y-78912173D01*
X199858894Y-78915252D01*
X199887991Y-78921939D01*
X199908827Y-78933504D01*
X199919893Y-78942987D01*
X199947802Y-78987040D01*
X199951157Y-79037776D01*
X199929841Y-79086204D01*
X199921927Y-79095550D01*
X199904353Y-79111460D01*
X199883413Y-79121390D01*
X199852218Y-79126722D01*
X199803878Y-79128837D01*
X199754353Y-79129143D01*
X199754353Y-79230542D01*
X199841432Y-79227190D01*
X199909914Y-79215274D01*
X199961400Y-79192865D01*
X200001557Y-79157876D01*
X200022139Y-79130625D01*
X200044375Y-79081093D01*
X200054696Y-79023684D01*
X200051933Y-78970318D01*
X200040788Y-78940457D01*
X200037617Y-78928739D01*
X200049443Y-78920963D01*
X200081134Y-78915535D01*
X200129407Y-78911429D01*
X200183171Y-78906933D01*
X200215518Y-78900687D01*
X200234015Y-78889324D01*
X200246230Y-78869472D01*
X200251638Y-78857000D01*
X200271399Y-78809829D01*
X199934642Y-78809883D01*
G37*
X199934642Y-78809883D02*
X199826163Y-78810067D01*
X199742713Y-78810781D01*
X199680296Y-78812325D01*
X199634915Y-78814999D01*
X199602571Y-78819106D01*
X199579267Y-78824945D01*
X199561005Y-78832818D01*
X199550582Y-78838779D01*
X199494055Y-78888145D01*
X199458623Y-78950736D01*
X199445910Y-79019987D01*
X199457537Y-79089332D01*
X199478432Y-79130625D01*
X199514578Y-79173975D01*
X199558724Y-79203519D01*
X199616538Y-79221345D01*
X199693687Y-79229537D01*
X199750286Y-79230698D01*
X199754353Y-79230542D01*
X199754353Y-79129143D01*
X199689450Y-79128524D01*
X199646486Y-79125686D01*
X199618378Y-79119160D01*
X199598047Y-79107477D01*
X199582712Y-79093517D01*
X199553110Y-79046635D01*
X199550581Y-78996299D01*
X199575295Y-78948724D01*
X199578644Y-78945021D01*
X199596065Y-78929217D01*
X199616791Y-78919307D01*
X199647638Y-78913942D01*
X199695423Y-78911772D01*
X199748252Y-78911429D01*
X199814619Y-78912173D01*
X199858894Y-78915252D01*
X199887991Y-78921939D01*
X199908827Y-78933504D01*
X199919893Y-78942987D01*
X199947802Y-78987040D01*
X199951157Y-79037776D01*
X199929841Y-79086204D01*
X199921927Y-79095550D01*
X199904353Y-79111460D01*
X199883413Y-79121390D01*
X199852218Y-79126722D01*
X199803878Y-79128837D01*
X199754353Y-79129143D01*
X199754353Y-79230542D01*
X199841432Y-79227190D01*
X199909914Y-79215274D01*
X199961400Y-79192865D01*
X200001557Y-79157876D01*
X200022139Y-79130625D01*
X200044375Y-79081093D01*
X200054696Y-79023684D01*
X200051933Y-78970318D01*
X200040788Y-78940457D01*
X200037617Y-78928739D01*
X200049443Y-78920963D01*
X200081134Y-78915535D01*
X200129407Y-78911429D01*
X200183171Y-78906933D01*
X200215518Y-78900687D01*
X200234015Y-78889324D01*
X200246230Y-78869472D01*
X200251638Y-78857000D01*
X200271399Y-78809829D01*
X199934642Y-78809883D01*
G36*
X200050245Y-79470074D02*
G01*
X200025916Y-79404142D01*
X199982883Y-79350727D01*
X199952591Y-79329836D01*
X199897006Y-79307061D01*
X199856814Y-79307534D01*
X199829783Y-79331438D01*
X199825187Y-79340283D01*
X199810856Y-79378470D01*
X199814528Y-79397972D01*
X199838593Y-79404578D01*
X199851886Y-79404914D01*
X199900790Y-79417008D01*
X199935001Y-79448529D01*
X199951524Y-79492341D01*
X199947366Y-79541305D01*
X199925773Y-79581106D01*
X199913456Y-79594550D01*
X199898513Y-79604079D01*
X199875925Y-79610515D01*
X199840672Y-79614683D01*
X199787734Y-79617403D01*
X199712093Y-79619498D01*
X199688143Y-79620040D01*
X199606210Y-79622019D01*
X199548545Y-79624269D01*
X199510392Y-79627643D01*
X199486996Y-79632994D01*
X199473602Y-79641176D01*
X199465455Y-79653041D01*
X199461856Y-79660638D01*
X199449548Y-79692898D01*
X199445486Y-79711889D01*
X199459052Y-79718164D01*
X199500066Y-79721994D01*
X199569001Y-79723400D01*
X199666331Y-79722402D01*
X199681343Y-79722092D01*
X199770141Y-79719899D01*
X199834981Y-79717307D01*
X199880933Y-79713618D01*
X199913065Y-79708136D01*
X199936447Y-79700165D01*
X199956148Y-79689007D01*
X199964590Y-79683170D01*
X200001943Y-79649704D01*
X200030997Y-79612273D01*
X200033533Y-79607691D01*
X200053557Y-79540574D01*
X200050245Y-79470074D01*
G37*
X200050245Y-79470074D02*
X200025916Y-79404142D01*
X199982883Y-79350727D01*
X199952591Y-79329836D01*
X199897006Y-79307061D01*
X199856814Y-79307534D01*
X199829783Y-79331438D01*
X199825187Y-79340283D01*
X199810856Y-79378470D01*
X199814528Y-79397972D01*
X199838593Y-79404578D01*
X199851886Y-79404914D01*
X199900790Y-79417008D01*
X199935001Y-79448529D01*
X199951524Y-79492341D01*
X199947366Y-79541305D01*
X199925773Y-79581106D01*
X199913456Y-79594550D01*
X199898513Y-79604079D01*
X199875925Y-79610515D01*
X199840672Y-79614683D01*
X199787734Y-79617403D01*
X199712093Y-79619498D01*
X199688143Y-79620040D01*
X199606210Y-79622019D01*
X199548545Y-79624269D01*
X199510392Y-79627643D01*
X199486996Y-79632994D01*
X199473602Y-79641176D01*
X199465455Y-79653041D01*
X199461856Y-79660638D01*
X199449548Y-79692898D01*
X199445486Y-79711889D01*
X199459052Y-79718164D01*
X199500066Y-79721994D01*
X199569001Y-79723400D01*
X199666331Y-79722402D01*
X199681343Y-79722092D01*
X199770141Y-79719899D01*
X199834981Y-79717307D01*
X199880933Y-79713618D01*
X199913065Y-79708136D01*
X199936447Y-79700165D01*
X199956148Y-79689007D01*
X199964590Y-79683170D01*
X200001943Y-79649704D01*
X200030997Y-79612273D01*
X200033533Y-79607691D01*
X200053557Y-79540574D01*
X200050245Y-79470074D01*
G36*
X200049032Y-79960256D02*
G01*
X200027913Y-79903384D01*
X200027507Y-79902733D01*
X200001620Y-79867560D01*
X199971367Y-79841593D01*
X199931942Y-79823330D01*
X199878538Y-79811268D01*
X199806349Y-79803904D01*
X199710568Y-79799736D01*
X199696922Y-79799371D01*
X199491158Y-79794124D01*
X199468322Y-79838284D01*
X199452890Y-79870237D01*
X199445577Y-79889530D01*
X199445486Y-79890422D01*
X199458978Y-79893761D01*
X199495374Y-79896413D01*
X199548548Y-79898044D01*
X199591607Y-79898400D01*
X199661359Y-79898408D01*
X199705163Y-79901597D01*
X199726056Y-79912712D01*
X199727075Y-79936499D01*
X199711259Y-79977704D01*
X199682185Y-80039914D01*
X199658037Y-80085659D01*
X199637087Y-80109187D01*
X199614253Y-80116104D01*
X199613123Y-80116114D01*
X199573788Y-80104701D01*
X199552538Y-80070908D01*
X199549461Y-80019191D01*
X199549994Y-79981939D01*
X199539265Y-79962297D01*
X199513495Y-79950048D01*
X199480663Y-79942998D01*
X199462034Y-79953158D01*
X199459368Y-79956983D01*
X199448660Y-79992999D01*
X199447144Y-80043434D01*
X199454241Y-80095374D01*
X199467212Y-80132178D01*
X199510415Y-80183062D01*
X199570554Y-80211986D01*
X199617538Y-80217714D01*
X199659918Y-80213343D01*
X199694512Y-80197525D01*
X199725237Y-80166203D01*
X199756010Y-80115322D01*
X199790748Y-80040824D01*
X199792712Y-80036286D01*
X199823713Y-79969179D01*
X199849138Y-79927768D01*
X199871986Y-79910019D01*
X199895255Y-79913893D01*
X199921944Y-79937357D01*
X199928086Y-79944373D01*
X199951900Y-79991370D01*
X199950897Y-80040067D01*
X199927549Y-80082478D01*
X199884325Y-80110616D01*
X199875840Y-80113231D01*
X199834692Y-80138692D01*
X199814872Y-80170999D01*
X199795230Y-80217714D01*
X199846050Y-80217714D01*
X199919918Y-80203504D01*
X199987673Y-80161325D01*
X200010339Y-80139376D01*
X200039431Y-80089483D01*
X200052600Y-80026033D01*
X200049032Y-79960256D01*
G37*
X200049032Y-79960256D02*
X200027913Y-79903384D01*
X200027507Y-79902733D01*
X200001620Y-79867560D01*
X199971367Y-79841593D01*
X199931942Y-79823330D01*
X199878538Y-79811268D01*
X199806349Y-79803904D01*
X199710568Y-79799736D01*
X199696922Y-79799371D01*
X199491158Y-79794124D01*
X199468322Y-79838284D01*
X199452890Y-79870237D01*
X199445577Y-79889530D01*
X199445486Y-79890422D01*
X199458978Y-79893761D01*
X199495374Y-79896413D01*
X199548548Y-79898044D01*
X199591607Y-79898400D01*
X199661359Y-79898408D01*
X199705163Y-79901597D01*
X199726056Y-79912712D01*
X199727075Y-79936499D01*
X199711259Y-79977704D01*
X199682185Y-80039914D01*
X199658037Y-80085659D01*
X199637087Y-80109187D01*
X199614253Y-80116104D01*
X199613123Y-80116114D01*
X199573788Y-80104701D01*
X199552538Y-80070908D01*
X199549461Y-80019191D01*
X199549994Y-79981939D01*
X199539265Y-79962297D01*
X199513495Y-79950048D01*
X199480663Y-79942998D01*
X199462034Y-79953158D01*
X199459368Y-79956983D01*
X199448660Y-79992999D01*
X199447144Y-80043434D01*
X199454241Y-80095374D01*
X199467212Y-80132178D01*
X199510415Y-80183062D01*
X199570554Y-80211986D01*
X199617538Y-80217714D01*
X199659918Y-80213343D01*
X199694512Y-80197525D01*
X199725237Y-80166203D01*
X199756010Y-80115322D01*
X199790748Y-80040824D01*
X199792712Y-80036286D01*
X199823713Y-79969179D01*
X199849138Y-79927768D01*
X199871986Y-79910019D01*
X199895255Y-79913893D01*
X199921944Y-79937357D01*
X199928086Y-79944373D01*
X199951900Y-79991370D01*
X199950897Y-80040067D01*
X199927549Y-80082478D01*
X199884325Y-80110616D01*
X199875840Y-80113231D01*
X199834692Y-80138692D01*
X199814872Y-80170999D01*
X199795230Y-80217714D01*
X199846050Y-80217714D01*
X199919918Y-80203504D01*
X199987673Y-80161325D01*
X200010339Y-80139376D01*
X200039431Y-80089483D01*
X200052600Y-80026033D01*
X200049032Y-79960256D01*
G36*
X200148711Y-80624114D02*
G01*
X200089387Y-80619861D01*
X200054428Y-80614975D01*
X200039180Y-80608205D01*
X200038985Y-80598298D01*
X200040805Y-80595086D01*
X200053985Y-80552356D01*
X200053215Y-80496773D01*
X200039667Y-80440263D01*
X200022139Y-80404918D01*
X199994139Y-80368679D01*
X199962451Y-80342187D01*
X199922187Y-80324001D01*
X199868457Y-80312678D01*
X199796374Y-80306778D01*
X199701049Y-80304857D01*
X199682763Y-80304823D01*
X199477354Y-80304800D01*
X199461420Y-80350509D01*
X199450580Y-80382973D01*
X199445532Y-80400785D01*
X199445486Y-80401309D01*
X199459172Y-80403063D01*
X199496924Y-80404556D01*
X199553776Y-80405674D01*
X199624766Y-80406303D01*
X199667927Y-80406400D01*
X199753027Y-80406602D01*
X199814019Y-80407642D01*
X199855823Y-80410169D01*
X199883358Y-80414836D01*
X199901544Y-80422293D01*
X199915302Y-80433189D01*
X199921927Y-80439993D01*
X199948625Y-80486728D01*
X199950625Y-80537728D01*
X199928045Y-80583999D01*
X199919893Y-80592556D01*
X199904564Y-80605107D01*
X199886382Y-80613812D01*
X199860091Y-80619369D01*
X199820438Y-80622474D01*
X199762168Y-80623824D01*
X199681827Y-80624114D01*
X199477354Y-80624114D01*
X199461420Y-80669823D01*
X199450580Y-80702287D01*
X199445532Y-80720099D01*
X199445486Y-80720623D01*
X199459377Y-80721963D01*
X199498561Y-80723172D01*
X199559300Y-80724199D01*
X199637859Y-80724998D01*
X199730502Y-80725519D01*
X199833491Y-80725714D01*
X200230658Y-80725714D01*
X200250556Y-80678543D01*
X200270453Y-80631371D01*
X200148711Y-80624114D01*
G37*
X200148711Y-80624114D02*
X200089387Y-80619861D01*
X200054428Y-80614975D01*
X200039180Y-80608205D01*
X200038985Y-80598298D01*
X200040805Y-80595086D01*
X200053985Y-80552356D01*
X200053215Y-80496773D01*
X200039667Y-80440263D01*
X200022139Y-80404918D01*
X199994139Y-80368679D01*
X199962451Y-80342187D01*
X199922187Y-80324001D01*
X199868457Y-80312678D01*
X199796374Y-80306778D01*
X199701049Y-80304857D01*
X199682763Y-80304823D01*
X199477354Y-80304800D01*
X199461420Y-80350509D01*
X199450580Y-80382973D01*
X199445532Y-80400785D01*
X199445486Y-80401309D01*
X199459172Y-80403063D01*
X199496924Y-80404556D01*
X199553776Y-80405674D01*
X199624766Y-80406303D01*
X199667927Y-80406400D01*
X199753027Y-80406602D01*
X199814019Y-80407642D01*
X199855823Y-80410169D01*
X199883358Y-80414836D01*
X199901544Y-80422293D01*
X199915302Y-80433189D01*
X199921927Y-80439993D01*
X199948625Y-80486728D01*
X199950625Y-80537728D01*
X199928045Y-80583999D01*
X199919893Y-80592556D01*
X199904564Y-80605107D01*
X199886382Y-80613812D01*
X199860091Y-80619369D01*
X199820438Y-80622474D01*
X199762168Y-80623824D01*
X199681827Y-80624114D01*
X199477354Y-80624114D01*
X199461420Y-80669823D01*
X199450580Y-80702287D01*
X199445532Y-80720099D01*
X199445486Y-80720623D01*
X199459377Y-80721963D01*
X199498561Y-80723172D01*
X199559300Y-80724199D01*
X199637859Y-80724998D01*
X199730502Y-80725519D01*
X199833491Y-80725714D01*
X200230658Y-80725714D01*
X200250556Y-80678543D01*
X200270453Y-80631371D01*
X200148711Y-80624114D01*
G36*
X200068761Y-81831697D02*
G01*
X200030265Y-81774473D01*
X199974665Y-81730251D01*
X199903914Y-81703833D01*
X199851838Y-81698490D01*
X199830107Y-81699097D01*
X199813469Y-81704178D01*
X199798563Y-81718145D01*
X199782027Y-81745411D01*
X199760502Y-81790388D01*
X199730626Y-81857489D01*
X199730476Y-81857829D01*
X199702187Y-81919593D01*
X199677067Y-81970241D01*
X199657821Y-82004596D01*
X199647152Y-82017482D01*
X199647066Y-82017486D01*
X199623834Y-82006128D01*
X199598226Y-81979569D01*
X199579779Y-81949077D01*
X199576114Y-81933630D01*
X199588788Y-81891485D01*
X199620529Y-81855192D01*
X199655428Y-81837483D01*
X199681155Y-81820448D01*
X199710454Y-81787078D01*
X199735765Y-81747851D01*
X199749529Y-81713244D01*
X199750286Y-81706007D01*
X199737840Y-81697861D01*
X199706028Y-81697370D01*
X199663134Y-81703357D01*
X199617442Y-81714643D01*
X199577239Y-81730050D01*
X199575678Y-81730829D01*
X199510938Y-81777196D01*
X199466903Y-81837289D01*
X199445289Y-81905535D01*
X199447815Y-81976362D01*
X199476196Y-82044196D01*
X199478192Y-82047212D01*
X199526552Y-82100573D01*
X199589648Y-82135660D01*
X199672613Y-82155078D01*
X199695922Y-82157684D01*
X199805945Y-82162299D01*
X199857252Y-82156767D01*
X199857252Y-82017486D01*
X199825247Y-82015676D01*
X199815907Y-82005778D01*
X199822895Y-81981102D01*
X199839413Y-81942205D01*
X199860119Y-81898725D01*
X199860667Y-81897644D01*
X199880051Y-81860791D01*
X199892987Y-81846000D01*
X199906549Y-81849647D01*
X199924368Y-81865005D01*
X199950155Y-81904077D01*
X199952050Y-81946154D01*
X199933283Y-81983897D01*
X199897085Y-82009966D01*
X199857252Y-82017486D01*
X199857252Y-82156767D01*
X199893973Y-82152806D01*
X199963788Y-82128450D01*
X200012698Y-82094544D01*
X200062122Y-82033347D01*
X200086641Y-81965937D01*
X200088203Y-81897120D01*
X200068761Y-81831697D01*
G37*
X200068761Y-81831697D02*
X200030265Y-81774473D01*
X199974665Y-81730251D01*
X199903914Y-81703833D01*
X199851838Y-81698490D01*
X199830107Y-81699097D01*
X199813469Y-81704178D01*
X199798563Y-81718145D01*
X199782027Y-81745411D01*
X199760502Y-81790388D01*
X199730626Y-81857489D01*
X199730476Y-81857829D01*
X199702187Y-81919593D01*
X199677067Y-81970241D01*
X199657821Y-82004596D01*
X199647152Y-82017482D01*
X199647066Y-82017486D01*
X199623834Y-82006128D01*
X199598226Y-81979569D01*
X199579779Y-81949077D01*
X199576114Y-81933630D01*
X199588788Y-81891485D01*
X199620529Y-81855192D01*
X199655428Y-81837483D01*
X199681155Y-81820448D01*
X199710454Y-81787078D01*
X199735765Y-81747851D01*
X199749529Y-81713244D01*
X199750286Y-81706007D01*
X199737840Y-81697861D01*
X199706028Y-81697370D01*
X199663134Y-81703357D01*
X199617442Y-81714643D01*
X199577239Y-81730050D01*
X199575678Y-81730829D01*
X199510938Y-81777196D01*
X199466903Y-81837289D01*
X199445289Y-81905535D01*
X199447815Y-81976362D01*
X199476196Y-82044196D01*
X199478192Y-82047212D01*
X199526552Y-82100573D01*
X199589648Y-82135660D01*
X199672613Y-82155078D01*
X199695922Y-82157684D01*
X199805945Y-82162299D01*
X199857252Y-82156767D01*
X199857252Y-82017486D01*
X199825247Y-82015676D01*
X199815907Y-82005778D01*
X199822895Y-81981102D01*
X199839413Y-81942205D01*
X199860119Y-81898725D01*
X199860667Y-81897644D01*
X199880051Y-81860791D01*
X199892987Y-81846000D01*
X199906549Y-81849647D01*
X199924368Y-81865005D01*
X199950155Y-81904077D01*
X199952050Y-81946154D01*
X199933283Y-81983897D01*
X199897085Y-82009966D01*
X199857252Y-82017486D01*
X199857252Y-82156767D01*
X199893973Y-82152806D01*
X199963788Y-82128450D01*
X200012698Y-82094544D01*
X200062122Y-82033347D01*
X200086641Y-81965937D01*
X200088203Y-81897120D01*
X200068761Y-81831697D01*
G36*
X200078038Y-82958885D02*
G01*
X200042267Y-82890855D01*
X199984699Y-82840649D01*
X199947688Y-82822815D01*
X199892118Y-82808937D01*
X199821904Y-82801833D01*
X199745273Y-82801160D01*
X199670448Y-82806573D01*
X199605658Y-82817730D01*
X199559127Y-82834286D01*
X199551113Y-82839374D01*
X199491293Y-82899645D01*
X199455465Y-82971231D01*
X199444980Y-83048908D01*
X199461190Y-83127452D01*
X199470908Y-83149311D01*
X199500857Y-83191878D01*
X199540567Y-83229237D01*
X199545603Y-83232768D01*
X199569876Y-83247119D01*
X199595822Y-83256606D01*
X199629978Y-83262210D01*
X199678881Y-83264914D01*
X199749065Y-83265701D01*
X199764800Y-83265714D01*
X199769808Y-83265678D01*
X199769808Y-83120571D01*
X199703570Y-83119727D01*
X199659614Y-83116404D01*
X199631221Y-83109417D01*
X199611675Y-83097584D01*
X199605143Y-83091543D01*
X199580320Y-83056814D01*
X199581452Y-83023097D01*
X199602984Y-82989005D01*
X199625971Y-82968671D01*
X199659522Y-82956629D01*
X199712431Y-82949866D01*
X199718601Y-82949402D01*
X199814487Y-82948248D01*
X199885701Y-82960312D01*
X199931806Y-82985430D01*
X199952365Y-83023440D01*
X199953486Y-83037008D01*
X199947848Y-83072636D01*
X199928314Y-83097006D01*
X199890958Y-83111907D01*
X199831850Y-83119125D01*
X199769808Y-83120571D01*
X199769808Y-83265678D01*
X199839587Y-83265174D01*
X199891841Y-83262904D01*
X199928051Y-83257932D01*
X199954701Y-83249287D01*
X199978278Y-83235995D01*
X199982662Y-83233057D01*
X200041751Y-83183687D01*
X200076053Y-83129891D01*
X200089669Y-83064398D01*
X200090335Y-83042158D01*
X200078038Y-82958885D01*
G37*
X200078038Y-82958885D02*
X200042267Y-82890855D01*
X199984699Y-82840649D01*
X199947688Y-82822815D01*
X199892118Y-82808937D01*
X199821904Y-82801833D01*
X199745273Y-82801160D01*
X199670448Y-82806573D01*
X199605658Y-82817730D01*
X199559127Y-82834286D01*
X199551113Y-82839374D01*
X199491293Y-82899645D01*
X199455465Y-82971231D01*
X199444980Y-83048908D01*
X199461190Y-83127452D01*
X199470908Y-83149311D01*
X199500857Y-83191878D01*
X199540567Y-83229237D01*
X199545603Y-83232768D01*
X199569876Y-83247119D01*
X199595822Y-83256606D01*
X199629978Y-83262210D01*
X199678881Y-83264914D01*
X199749065Y-83265701D01*
X199764800Y-83265714D01*
X199769808Y-83265678D01*
X199769808Y-83120571D01*
X199703570Y-83119727D01*
X199659614Y-83116404D01*
X199631221Y-83109417D01*
X199611675Y-83097584D01*
X199605143Y-83091543D01*
X199580320Y-83056814D01*
X199581452Y-83023097D01*
X199602984Y-82989005D01*
X199625971Y-82968671D01*
X199659522Y-82956629D01*
X199712431Y-82949866D01*
X199718601Y-82949402D01*
X199814487Y-82948248D01*
X199885701Y-82960312D01*
X199931806Y-82985430D01*
X199952365Y-83023440D01*
X199953486Y-83037008D01*
X199947848Y-83072636D01*
X199928314Y-83097006D01*
X199890958Y-83111907D01*
X199831850Y-83119125D01*
X199769808Y-83120571D01*
X199769808Y-83265678D01*
X199839587Y-83265174D01*
X199891841Y-83262904D01*
X199928051Y-83257932D01*
X199954701Y-83249287D01*
X199978278Y-83235995D01*
X199982662Y-83233057D01*
X200041751Y-83183687D01*
X200076053Y-83129891D01*
X200089669Y-83064398D01*
X200090335Y-83042158D01*
X200078038Y-82958885D01*
G36*
X200072220Y-81283907D02*
G01*
X200045277Y-81237328D01*
X200018534Y-81204943D01*
X199990516Y-81181258D01*
X199956252Y-81164941D01*
X199910773Y-81154661D01*
X199849108Y-81149086D01*
X199766289Y-81146884D01*
X199706754Y-81146629D01*
X199487609Y-81146629D01*
X199459956Y-81208314D01*
X199432303Y-81270000D01*
X199672330Y-81277257D01*
X199761972Y-81280256D01*
X199827038Y-81283402D01*
X199871974Y-81287299D01*
X199901230Y-81292553D01*
X199919252Y-81299769D01*
X199930489Y-81309550D01*
X199932921Y-81312688D01*
X199951917Y-81360239D01*
X199944400Y-81408303D01*
X199924457Y-81436914D01*
X199910325Y-81448553D01*
X199891780Y-81456609D01*
X199863666Y-81461729D01*
X199820827Y-81464559D01*
X199758105Y-81465744D01*
X199692739Y-81465943D01*
X199610732Y-81465982D01*
X199552684Y-81467386D01*
X199513535Y-81472086D01*
X199488220Y-81482013D01*
X199471677Y-81499097D01*
X199458844Y-81525268D01*
X199445509Y-81560225D01*
X199430993Y-81598404D01*
X199688611Y-81593859D01*
X199781481Y-81592029D01*
X199850111Y-81589888D01*
X199899289Y-81586819D01*
X199933802Y-81582206D01*
X199958438Y-81575432D01*
X199977984Y-81565881D01*
X199995230Y-81554366D01*
X200050320Y-81498810D01*
X200082178Y-81431020D01*
X200089809Y-81357287D01*
X200072220Y-81283907D01*
G37*
X200072220Y-81283907D02*
X200045277Y-81237328D01*
X200018534Y-81204943D01*
X199990516Y-81181258D01*
X199956252Y-81164941D01*
X199910773Y-81154661D01*
X199849108Y-81149086D01*
X199766289Y-81146884D01*
X199706754Y-81146629D01*
X199487609Y-81146629D01*
X199459956Y-81208314D01*
X199432303Y-81270000D01*
X199672330Y-81277257D01*
X199761972Y-81280256D01*
X199827038Y-81283402D01*
X199871974Y-81287299D01*
X199901230Y-81292553D01*
X199919252Y-81299769D01*
X199930489Y-81309550D01*
X199932921Y-81312688D01*
X199951917Y-81360239D01*
X199944400Y-81408303D01*
X199924457Y-81436914D01*
X199910325Y-81448553D01*
X199891780Y-81456609D01*
X199863666Y-81461729D01*
X199820827Y-81464559D01*
X199758105Y-81465744D01*
X199692739Y-81465943D01*
X199610732Y-81465982D01*
X199552684Y-81467386D01*
X199513535Y-81472086D01*
X199488220Y-81482013D01*
X199471677Y-81499097D01*
X199458844Y-81525268D01*
X199445509Y-81560225D01*
X199430993Y-81598404D01*
X199688611Y-81593859D01*
X199781481Y-81592029D01*
X199850111Y-81589888D01*
X199899289Y-81586819D01*
X199933802Y-81582206D01*
X199958438Y-81575432D01*
X199977984Y-81565881D01*
X199995230Y-81554366D01*
X200050320Y-81498810D01*
X200082178Y-81431020D01*
X200089809Y-81357287D01*
X200072220Y-81283907D01*
G36*
X200080082Y-82400256D02*
G01*
X200052432Y-82344799D01*
X200001520Y-82295852D01*
X199982662Y-82282371D01*
X199957985Y-82267686D01*
X199931184Y-82258158D01*
X199895413Y-82252707D01*
X199843831Y-82250253D01*
X199775733Y-82249714D01*
X199682412Y-82252148D01*
X199612343Y-82260606D01*
X199560069Y-82276826D01*
X199520131Y-82302546D01*
X199487071Y-82339503D01*
X199485114Y-82342218D01*
X199465092Y-82378640D01*
X199455185Y-82422498D01*
X199452743Y-82478276D01*
X199452743Y-82568952D01*
X199364717Y-82568990D01*
X199315692Y-82569834D01*
X199286935Y-82574976D01*
X199269689Y-82588413D01*
X199255192Y-82614142D01*
X199252231Y-82620321D01*
X199238352Y-82649236D01*
X199229586Y-82671624D01*
X199228829Y-82688271D01*
X199238977Y-82699964D01*
X199262927Y-82707490D01*
X199303574Y-82711634D01*
X199363814Y-82713185D01*
X199446545Y-82712929D01*
X199554661Y-82711651D01*
X199587000Y-82711252D01*
X199698476Y-82709815D01*
X199771397Y-82708528D01*
X199771397Y-82569029D01*
X199709501Y-82568245D01*
X199669003Y-82564760D01*
X199642292Y-82556876D01*
X199621756Y-82542895D01*
X199611740Y-82533403D01*
X199582433Y-82494596D01*
X199580048Y-82460237D01*
X199604250Y-82424784D01*
X199605143Y-82423886D01*
X199623847Y-82409461D01*
X199649268Y-82400687D01*
X199688416Y-82396261D01*
X199748303Y-82394882D01*
X199761570Y-82394857D01*
X199844099Y-82398188D01*
X199901309Y-82409031D01*
X199936234Y-82428660D01*
X199951906Y-82458350D01*
X199953486Y-82475509D01*
X199946074Y-82516234D01*
X199921670Y-82544168D01*
X199877020Y-82560983D01*
X199808870Y-82568350D01*
X199771397Y-82569029D01*
X199771397Y-82708528D01*
X199784755Y-82708292D01*
X199849667Y-82706323D01*
X199897042Y-82703550D01*
X199930710Y-82699612D01*
X199954502Y-82694151D01*
X199972247Y-82686808D01*
X199987776Y-82677223D01*
X199993619Y-82673113D01*
X200048815Y-82618595D01*
X200080110Y-82549664D01*
X200088835Y-82469928D01*
X200080082Y-82400256D01*
G37*
X200080082Y-82400256D02*
X200052432Y-82344799D01*
X200001520Y-82295852D01*
X199982662Y-82282371D01*
X199957985Y-82267686D01*
X199931184Y-82258158D01*
X199895413Y-82252707D01*
X199843831Y-82250253D01*
X199775733Y-82249714D01*
X199682412Y-82252148D01*
X199612343Y-82260606D01*
X199560069Y-82276826D01*
X199520131Y-82302546D01*
X199487071Y-82339503D01*
X199485114Y-82342218D01*
X199465092Y-82378640D01*
X199455185Y-82422498D01*
X199452743Y-82478276D01*
X199452743Y-82568952D01*
X199364717Y-82568990D01*
X199315692Y-82569834D01*
X199286935Y-82574976D01*
X199269689Y-82588413D01*
X199255192Y-82614142D01*
X199252231Y-82620321D01*
X199238352Y-82649236D01*
X199229586Y-82671624D01*
X199228829Y-82688271D01*
X199238977Y-82699964D01*
X199262927Y-82707490D01*
X199303574Y-82711634D01*
X199363814Y-82713185D01*
X199446545Y-82712929D01*
X199554661Y-82711651D01*
X199587000Y-82711252D01*
X199698476Y-82709815D01*
X199771397Y-82708528D01*
X199771397Y-82569029D01*
X199709501Y-82568245D01*
X199669003Y-82564760D01*
X199642292Y-82556876D01*
X199621756Y-82542895D01*
X199611740Y-82533403D01*
X199582433Y-82494596D01*
X199580048Y-82460237D01*
X199604250Y-82424784D01*
X199605143Y-82423886D01*
X199623847Y-82409461D01*
X199649268Y-82400687D01*
X199688416Y-82396261D01*
X199748303Y-82394882D01*
X199761570Y-82394857D01*
X199844099Y-82398188D01*
X199901309Y-82409031D01*
X199936234Y-82428660D01*
X199951906Y-82458350D01*
X199953486Y-82475509D01*
X199946074Y-82516234D01*
X199921670Y-82544168D01*
X199877020Y-82560983D01*
X199808870Y-82568350D01*
X199771397Y-82569029D01*
X199771397Y-82708528D01*
X199784755Y-82708292D01*
X199849667Y-82706323D01*
X199897042Y-82703550D01*
X199930710Y-82699612D01*
X199954502Y-82694151D01*
X199972247Y-82686808D01*
X199987776Y-82677223D01*
X199993619Y-82673113D01*
X200048815Y-82618595D01*
X200080110Y-82549664D01*
X200088835Y-82469928D01*
X200080082Y-82400256D01*
G36*
X207725467Y-73771177D02*
G01*
X207703224Y-73739798D01*
X207675515Y-73712089D01*
X207366080Y-73712089D01*
X207274201Y-73712162D01*
X207202160Y-73712505D01*
X207147220Y-73713308D01*
X207106640Y-73714759D01*
X207077683Y-73717048D01*
X207057609Y-73720364D01*
X207043679Y-73724895D01*
X207033155Y-73730831D01*
X207026900Y-73735486D01*
X207002327Y-73766217D01*
X206999659Y-73801504D01*
X207014729Y-73833755D01*
X207023626Y-73844412D01*
X207035443Y-73851536D01*
X207054474Y-73855833D01*
X207085008Y-73858009D01*
X207131338Y-73858772D01*
X207167129Y-73858845D01*
X207301955Y-73858845D01*
X207301955Y-74355556D01*
X207179300Y-74355556D01*
X207123213Y-74356069D01*
X207084667Y-74358124D01*
X207058639Y-74362492D01*
X207040103Y-74369944D01*
X207026900Y-74378953D01*
X207002396Y-74409856D01*
X206999494Y-74444804D01*
X207016911Y-74478262D01*
X207026041Y-74487396D01*
X207038145Y-74493848D01*
X207056999Y-74498103D01*
X207086380Y-74500648D01*
X207130063Y-74501971D01*
X207191825Y-74502557D01*
X207206000Y-74502625D01*
X207322369Y-74503109D01*
X207418273Y-74503359D01*
X207495823Y-74503277D01*
X207557131Y-74502769D01*
X207604310Y-74501738D01*
X207639470Y-74500087D01*
X207664724Y-74497721D01*
X207682183Y-74494543D01*
X207693959Y-74490456D01*
X207702165Y-74485366D01*
X207708355Y-74479734D01*
X207728156Y-74447872D01*
X207725467Y-74414643D01*
X207703224Y-74383265D01*
X207688874Y-74370567D01*
X207673022Y-74362474D01*
X207650446Y-74357958D01*
X207615922Y-74355994D01*
X207564224Y-74355556D01*
X207448711Y-74355556D01*
X207448711Y-73858845D01*
X207567244Y-73858845D01*
X207621852Y-73858338D01*
X207658725Y-73856302D01*
X207682693Y-73851965D01*
X207698585Y-73844553D01*
X207708355Y-73836267D01*
X207728156Y-73804406D01*
X207725467Y-73771177D01*
G37*
X207725467Y-73771177D02*
X207703224Y-73739798D01*
X207675515Y-73712089D01*
X207366080Y-73712089D01*
X207274201Y-73712162D01*
X207202160Y-73712505D01*
X207147220Y-73713308D01*
X207106640Y-73714759D01*
X207077683Y-73717048D01*
X207057609Y-73720364D01*
X207043679Y-73724895D01*
X207033155Y-73730831D01*
X207026900Y-73735486D01*
X207002327Y-73766217D01*
X206999659Y-73801504D01*
X207014729Y-73833755D01*
X207023626Y-73844412D01*
X207035443Y-73851536D01*
X207054474Y-73855833D01*
X207085008Y-73858009D01*
X207131338Y-73858772D01*
X207167129Y-73858845D01*
X207301955Y-73858845D01*
X207301955Y-74355556D01*
X207179300Y-74355556D01*
X207123213Y-74356069D01*
X207084667Y-74358124D01*
X207058639Y-74362492D01*
X207040103Y-74369944D01*
X207026900Y-74378953D01*
X207002396Y-74409856D01*
X206999494Y-74444804D01*
X207016911Y-74478262D01*
X207026041Y-74487396D01*
X207038145Y-74493848D01*
X207056999Y-74498103D01*
X207086380Y-74500648D01*
X207130063Y-74501971D01*
X207191825Y-74502557D01*
X207206000Y-74502625D01*
X207322369Y-74503109D01*
X207418273Y-74503359D01*
X207495823Y-74503277D01*
X207557131Y-74502769D01*
X207604310Y-74501738D01*
X207639470Y-74500087D01*
X207664724Y-74497721D01*
X207682183Y-74494543D01*
X207693959Y-74490456D01*
X207702165Y-74485366D01*
X207708355Y-74479734D01*
X207728156Y-74447872D01*
X207725467Y-74414643D01*
X207703224Y-74383265D01*
X207688874Y-74370567D01*
X207673022Y-74362474D01*
X207650446Y-74357958D01*
X207615922Y-74355994D01*
X207564224Y-74355556D01*
X207448711Y-74355556D01*
X207448711Y-73858845D01*
X207567244Y-73858845D01*
X207621852Y-73858338D01*
X207658725Y-73856302D01*
X207682693Y-73851965D01*
X207698585Y-73844553D01*
X207708355Y-73836267D01*
X207728156Y-73804406D01*
X207725467Y-73771177D01*
G36*
X207730837Y-75036935D02*
G01*
X207730458Y-74958228D01*
X207729667Y-74897137D01*
X207728330Y-74851183D01*
X207726317Y-74817886D01*
X207723494Y-74794764D01*
X207719731Y-74779338D01*
X207714895Y-74769129D01*
X207711178Y-74764187D01*
X207678642Y-74738543D01*
X207644862Y-74735441D01*
X207614174Y-74751289D01*
X207601911Y-74761652D01*
X207593550Y-74772804D01*
X207588343Y-74788965D01*
X207585543Y-74814358D01*
X207584404Y-74853202D01*
X207584179Y-74909720D01*
X207584178Y-74920820D01*
X207584178Y-75066756D01*
X207313244Y-75066756D01*
X207227846Y-75066852D01*
X207162136Y-75067289D01*
X207113226Y-75068288D01*
X207078227Y-75070072D01*
X207054251Y-75072863D01*
X207038407Y-75076883D01*
X207027809Y-75082355D01*
X207019733Y-75089334D01*
X206999888Y-75122266D01*
X207001452Y-75156646D01*
X207024094Y-75187824D01*
X207026900Y-75190114D01*
X207037508Y-75197571D01*
X207049919Y-75203253D01*
X207067150Y-75207399D01*
X207092216Y-75210250D01*
X207128133Y-75212046D01*
X207177917Y-75213028D01*
X207244583Y-75213436D01*
X207320411Y-75213511D01*
X207584178Y-75213511D01*
X207584178Y-75352873D01*
X207584582Y-75412678D01*
X207586160Y-75454082D01*
X207589453Y-75481252D01*
X207595008Y-75498354D01*
X207603369Y-75509557D01*
X207604822Y-75510917D01*
X207638061Y-75527275D01*
X207675638Y-75525828D01*
X207708355Y-75507022D01*
X207714702Y-75499750D01*
X207719734Y-75490373D01*
X207723604Y-75476391D01*
X207726463Y-75455304D01*
X207728465Y-75424611D01*
X207729761Y-75381811D01*
X207730502Y-75324405D01*
X207730842Y-75249890D01*
X207730932Y-75155767D01*
X207730933Y-75135740D01*
X207730837Y-75036935D01*
G37*
X207730837Y-75036935D02*
X207730458Y-74958228D01*
X207729667Y-74897137D01*
X207728330Y-74851183D01*
X207726317Y-74817886D01*
X207723494Y-74794764D01*
X207719731Y-74779338D01*
X207714895Y-74769129D01*
X207711178Y-74764187D01*
X207678642Y-74738543D01*
X207644862Y-74735441D01*
X207614174Y-74751289D01*
X207601911Y-74761652D01*
X207593550Y-74772804D01*
X207588343Y-74788965D01*
X207585543Y-74814358D01*
X207584404Y-74853202D01*
X207584179Y-74909720D01*
X207584178Y-74920820D01*
X207584178Y-75066756D01*
X207313244Y-75066756D01*
X207227846Y-75066852D01*
X207162136Y-75067289D01*
X207113226Y-75068288D01*
X207078227Y-75070072D01*
X207054251Y-75072863D01*
X207038407Y-75076883D01*
X207027809Y-75082355D01*
X207019733Y-75089334D01*
X206999888Y-75122266D01*
X207001452Y-75156646D01*
X207024094Y-75187824D01*
X207026900Y-75190114D01*
X207037508Y-75197571D01*
X207049919Y-75203253D01*
X207067150Y-75207399D01*
X207092216Y-75210250D01*
X207128133Y-75212046D01*
X207177917Y-75213028D01*
X207244583Y-75213436D01*
X207320411Y-75213511D01*
X207584178Y-75213511D01*
X207584178Y-75352873D01*
X207584582Y-75412678D01*
X207586160Y-75454082D01*
X207589453Y-75481252D01*
X207595008Y-75498354D01*
X207603369Y-75509557D01*
X207604822Y-75510917D01*
X207638061Y-75527275D01*
X207675638Y-75525828D01*
X207708355Y-75507022D01*
X207714702Y-75499750D01*
X207719734Y-75490373D01*
X207723604Y-75476391D01*
X207726463Y-75455304D01*
X207728465Y-75424611D01*
X207729761Y-75381811D01*
X207730502Y-75324405D01*
X207730842Y-75249890D01*
X207730932Y-75155767D01*
X207730933Y-75135740D01*
X207730837Y-75036935D01*
G36*
X207724123Y-75811386D02*
G01*
X207709353Y-75787673D01*
X207687773Y-75761022D01*
X207366227Y-75761022D01*
X207272170Y-75761107D01*
X207198068Y-75761471D01*
X207141296Y-75762276D01*
X207099232Y-75763687D01*
X207069252Y-75765867D01*
X207048733Y-75768979D01*
X207035051Y-75773186D01*
X207025584Y-75778652D01*
X207020918Y-75782528D01*
X207000425Y-75813966D01*
X207001261Y-75849767D01*
X207018736Y-75881127D01*
X207040316Y-75907778D01*
X207687773Y-75907778D01*
X207709353Y-75881127D01*
X207725051Y-75855406D01*
X207730933Y-75834400D01*
X207724123Y-75811386D01*
G37*
X207724123Y-75811386D02*
X207709353Y-75787673D01*
X207687773Y-75761022D01*
X207366227Y-75761022D01*
X207272170Y-75761107D01*
X207198068Y-75761471D01*
X207141296Y-75762276D01*
X207099232Y-75763687D01*
X207069252Y-75765867D01*
X207048733Y-75768979D01*
X207035051Y-75773186D01*
X207025584Y-75778652D01*
X207020918Y-75782528D01*
X207000425Y-75813966D01*
X207001261Y-75849767D01*
X207018736Y-75881127D01*
X207040316Y-75907778D01*
X207687773Y-75907778D01*
X207709353Y-75881127D01*
X207725051Y-75855406D01*
X207730933Y-75834400D01*
X207724123Y-75811386D01*
G36*
X207728966Y-76255335D02*
G01*
X207721965Y-76235745D01*
X207721623Y-76234990D01*
X207701322Y-76208387D01*
X207680439Y-76193730D01*
X207670648Y-76190862D01*
X207657639Y-76191004D01*
X207639105Y-76195039D01*
X207612743Y-76203854D01*
X207576248Y-76218331D01*
X207527313Y-76239355D01*
X207463635Y-76267812D01*
X207382907Y-76304585D01*
X207338784Y-76324825D01*
X207260015Y-76361375D01*
X207187577Y-76395685D01*
X207124120Y-76426448D01*
X207072292Y-76452352D01*
X207034741Y-76472090D01*
X207014116Y-76484350D01*
X207011267Y-76486776D01*
X206998698Y-76517817D01*
X207000381Y-76552879D01*
X207015668Y-76581000D01*
X207016911Y-76582146D01*
X207033846Y-76593332D01*
X207066830Y-76612096D01*
X207111620Y-76636125D01*
X207163968Y-76663103D01*
X207183258Y-76672799D01*
X207329850Y-76745986D01*
X207170607Y-76825760D01*
X207115585Y-76854233D01*
X207067868Y-76880650D01*
X207031107Y-76902852D01*
X207008956Y-76918681D01*
X207004259Y-76924046D01*
X206997898Y-76965743D01*
X207011267Y-77000151D01*
X207025554Y-77010272D01*
X207057308Y-77027786D01*
X207103403Y-77051265D01*
X207160715Y-77079280D01*
X207226120Y-77110401D01*
X207296493Y-77143201D01*
X207368709Y-77176250D01*
X207439645Y-77208119D01*
X207506175Y-77237381D01*
X207565174Y-77262605D01*
X207613519Y-77282364D01*
X207648085Y-77295228D01*
X207665747Y-77299769D01*
X207666387Y-77299723D01*
X207688612Y-77288674D01*
X207711247Y-77266590D01*
X207712232Y-77265290D01*
X207727575Y-77238147D01*
X207727426Y-77213042D01*
X207724534Y-77203632D01*
X207718282Y-77192166D01*
X207705986Y-77179990D01*
X207685092Y-77165643D01*
X207653051Y-77147664D01*
X207607312Y-77124593D01*
X207545323Y-77094970D01*
X207488102Y-77068255D01*
X207421774Y-77037520D01*
X207362126Y-77009979D01*
X207312275Y-76987062D01*
X207275336Y-76970202D01*
X207254427Y-76960827D01*
X207251155Y-76959460D01*
X207256503Y-76953311D01*
X207278891Y-76939178D01*
X207315054Y-76918943D01*
X207361723Y-76894485D01*
X207380978Y-76884752D01*
X207445996Y-76851783D01*
X207493346Y-76826357D01*
X207525781Y-76806388D01*
X207546054Y-76789790D01*
X207556918Y-76774476D01*
X207561125Y-76758360D01*
X207561600Y-76747857D01*
X207559958Y-76729330D01*
X207553169Y-76713096D01*
X207538434Y-76696965D01*
X207512956Y-76678749D01*
X207473939Y-76656261D01*
X207418586Y-76627311D01*
X207387097Y-76611338D01*
X207336913Y-76585430D01*
X207295296Y-76562833D01*
X207265758Y-76545542D01*
X207251811Y-76535550D01*
X207251230Y-76534191D01*
X207262207Y-76527739D01*
X207290710Y-76513292D01*
X207333756Y-76492297D01*
X207388362Y-76466203D01*
X207451546Y-76436454D01*
X207482929Y-76421820D01*
X207563922Y-76383750D01*
X207626244Y-76353095D01*
X207671929Y-76328263D01*
X207703011Y-76307663D01*
X207721522Y-76289702D01*
X207729496Y-76272790D01*
X207728966Y-76255335D01*
G37*
X207728966Y-76255335D02*
X207721965Y-76235745D01*
X207721623Y-76234990D01*
X207701322Y-76208387D01*
X207680439Y-76193730D01*
X207670648Y-76190862D01*
X207657639Y-76191004D01*
X207639105Y-76195039D01*
X207612743Y-76203854D01*
X207576248Y-76218331D01*
X207527313Y-76239355D01*
X207463635Y-76267812D01*
X207382907Y-76304585D01*
X207338784Y-76324825D01*
X207260015Y-76361375D01*
X207187577Y-76395685D01*
X207124120Y-76426448D01*
X207072292Y-76452352D01*
X207034741Y-76472090D01*
X207014116Y-76484350D01*
X207011267Y-76486776D01*
X206998698Y-76517817D01*
X207000381Y-76552879D01*
X207015668Y-76581000D01*
X207016911Y-76582146D01*
X207033846Y-76593332D01*
X207066830Y-76612096D01*
X207111620Y-76636125D01*
X207163968Y-76663103D01*
X207183258Y-76672799D01*
X207329850Y-76745986D01*
X207170607Y-76825760D01*
X207115585Y-76854233D01*
X207067868Y-76880650D01*
X207031107Y-76902852D01*
X207008956Y-76918681D01*
X207004259Y-76924046D01*
X206997898Y-76965743D01*
X207011267Y-77000151D01*
X207025554Y-77010272D01*
X207057308Y-77027786D01*
X207103403Y-77051265D01*
X207160715Y-77079280D01*
X207226120Y-77110401D01*
X207296493Y-77143201D01*
X207368709Y-77176250D01*
X207439645Y-77208119D01*
X207506175Y-77237381D01*
X207565174Y-77262605D01*
X207613519Y-77282364D01*
X207648085Y-77295228D01*
X207665747Y-77299769D01*
X207666387Y-77299723D01*
X207688612Y-77288674D01*
X207711247Y-77266590D01*
X207712232Y-77265290D01*
X207727575Y-77238147D01*
X207727426Y-77213042D01*
X207724534Y-77203632D01*
X207718282Y-77192166D01*
X207705986Y-77179990D01*
X207685092Y-77165643D01*
X207653051Y-77147664D01*
X207607312Y-77124593D01*
X207545323Y-77094970D01*
X207488102Y-77068255D01*
X207421774Y-77037520D01*
X207362126Y-77009979D01*
X207312275Y-76987062D01*
X207275336Y-76970202D01*
X207254427Y-76960827D01*
X207251155Y-76959460D01*
X207256503Y-76953311D01*
X207278891Y-76939178D01*
X207315054Y-76918943D01*
X207361723Y-76894485D01*
X207380978Y-76884752D01*
X207445996Y-76851783D01*
X207493346Y-76826357D01*
X207525781Y-76806388D01*
X207546054Y-76789790D01*
X207556918Y-76774476D01*
X207561125Y-76758360D01*
X207561600Y-76747857D01*
X207559958Y-76729330D01*
X207553169Y-76713096D01*
X207538434Y-76696965D01*
X207512956Y-76678749D01*
X207473939Y-76656261D01*
X207418586Y-76627311D01*
X207387097Y-76611338D01*
X207336913Y-76585430D01*
X207295296Y-76562833D01*
X207265758Y-76545542D01*
X207251811Y-76535550D01*
X207251230Y-76534191D01*
X207262207Y-76527739D01*
X207290710Y-76513292D01*
X207333756Y-76492297D01*
X207388362Y-76466203D01*
X207451546Y-76436454D01*
X207482929Y-76421820D01*
X207563922Y-76383750D01*
X207626244Y-76353095D01*
X207671929Y-76328263D01*
X207703011Y-76307663D01*
X207721522Y-76289702D01*
X207729496Y-76272790D01*
X207728966Y-76255335D01*
G36*
X207730725Y-78981691D02*
G01*
X207726364Y-78852712D01*
X207713139Y-78743009D01*
X207690259Y-78650774D01*
X207656930Y-78574198D01*
X207612362Y-78511473D01*
X207555764Y-78460788D01*
X207486342Y-78420337D01*
X207484649Y-78419541D01*
X207422517Y-78395399D01*
X207367491Y-78386797D01*
X207312113Y-78393769D01*
X207248927Y-78416346D01*
X207239311Y-78420628D01*
X207183034Y-78449828D01*
X207139549Y-78482644D01*
X207102583Y-78524998D01*
X207065865Y-78582810D01*
X207063948Y-78586169D01*
X207039773Y-78636496D01*
X207021718Y-78693379D01*
X207009161Y-78760473D01*
X207001478Y-78841435D01*
X206998047Y-78939918D01*
X206997749Y-78974714D01*
X206997155Y-79140406D01*
X207026900Y-79163803D01*
X207036681Y-79170743D01*
X207048103Y-79176158D01*
X207063905Y-79180235D01*
X207086825Y-79183163D01*
X207119604Y-79185133D01*
X207143911Y-79185775D01*
X207143911Y-79029156D01*
X207143911Y-78935274D01*
X207145517Y-78880336D01*
X207149745Y-78823940D01*
X207155708Y-78777655D01*
X207156210Y-78774861D01*
X207178264Y-78692652D01*
X207211400Y-78628886D01*
X207257153Y-78581548D01*
X207317061Y-78548618D01*
X207332939Y-78542892D01*
X207357667Y-78537279D01*
X207382098Y-78539709D01*
X207414600Y-78551533D01*
X207430566Y-78558660D01*
X207472994Y-78582000D01*
X207502760Y-78610120D01*
X207523489Y-78641060D01*
X207550463Y-78703034D01*
X207570002Y-78782349D01*
X207581254Y-78874747D01*
X207583730Y-78941667D01*
X207584178Y-79029156D01*
X207143911Y-79029156D01*
X207143911Y-79185775D01*
X207164979Y-79186332D01*
X207225689Y-79186950D01*
X207304474Y-79187175D01*
X207366080Y-79187200D01*
X207675515Y-79187200D01*
X207703224Y-79159491D01*
X207714456Y-79147194D01*
X207722147Y-79133897D01*
X207726960Y-79115328D01*
X207729554Y-79087214D01*
X207730590Y-79045283D01*
X207730730Y-78985263D01*
X207730725Y-78981691D01*
G37*
X207730725Y-78981691D02*
X207726364Y-78852712D01*
X207713139Y-78743009D01*
X207690259Y-78650774D01*
X207656930Y-78574198D01*
X207612362Y-78511473D01*
X207555764Y-78460788D01*
X207486342Y-78420337D01*
X207484649Y-78419541D01*
X207422517Y-78395399D01*
X207367491Y-78386797D01*
X207312113Y-78393769D01*
X207248927Y-78416346D01*
X207239311Y-78420628D01*
X207183034Y-78449828D01*
X207139549Y-78482644D01*
X207102583Y-78524998D01*
X207065865Y-78582810D01*
X207063948Y-78586169D01*
X207039773Y-78636496D01*
X207021718Y-78693379D01*
X207009161Y-78760473D01*
X207001478Y-78841435D01*
X206998047Y-78939918D01*
X206997749Y-78974714D01*
X206997155Y-79140406D01*
X207026900Y-79163803D01*
X207036681Y-79170743D01*
X207048103Y-79176158D01*
X207063905Y-79180235D01*
X207086825Y-79183163D01*
X207119604Y-79185133D01*
X207143911Y-79185775D01*
X207143911Y-79029156D01*
X207143911Y-78935274D01*
X207145517Y-78880336D01*
X207149745Y-78823940D01*
X207155708Y-78777655D01*
X207156210Y-78774861D01*
X207178264Y-78692652D01*
X207211400Y-78628886D01*
X207257153Y-78581548D01*
X207317061Y-78548618D01*
X207332939Y-78542892D01*
X207357667Y-78537279D01*
X207382098Y-78539709D01*
X207414600Y-78551533D01*
X207430566Y-78558660D01*
X207472994Y-78582000D01*
X207502760Y-78610120D01*
X207523489Y-78641060D01*
X207550463Y-78703034D01*
X207570002Y-78782349D01*
X207581254Y-78874747D01*
X207583730Y-78941667D01*
X207584178Y-79029156D01*
X207143911Y-79029156D01*
X207143911Y-79185775D01*
X207164979Y-79186332D01*
X207225689Y-79186950D01*
X207304474Y-79187175D01*
X207366080Y-79187200D01*
X207675515Y-79187200D01*
X207703224Y-79159491D01*
X207714456Y-79147194D01*
X207722147Y-79133897D01*
X207726960Y-79115328D01*
X207729554Y-79087214D01*
X207730590Y-79045283D01*
X207730730Y-78985263D01*
X207730725Y-78981691D01*
G36*
X207730740Y-79769657D02*
G01*
X207729826Y-79693299D01*
X207727689Y-79634783D01*
X207723825Y-79591745D01*
X207717733Y-79561817D01*
X207708910Y-79542632D01*
X207696854Y-79531824D01*
X207681061Y-79527027D01*
X207661030Y-79525873D01*
X207658665Y-79525867D01*
X207636008Y-79526869D01*
X207618497Y-79531604D01*
X207605426Y-79542667D01*
X207596087Y-79562652D01*
X207589773Y-79594154D01*
X207585778Y-79639768D01*
X207583394Y-79702087D01*
X207581914Y-79783707D01*
X207581586Y-79808723D01*
X207578533Y-80050800D01*
X207513622Y-80054186D01*
X207448711Y-80057571D01*
X207448711Y-79889424D01*
X207448469Y-79823734D01*
X207447444Y-79776828D01*
X207445189Y-79744917D01*
X207441258Y-79724209D01*
X207435202Y-79710916D01*
X207426576Y-79701245D01*
X207426507Y-79701183D01*
X207392888Y-79683644D01*
X207356552Y-79684278D01*
X207325577Y-79702686D01*
X207322393Y-79706329D01*
X207314188Y-79719259D01*
X207308479Y-79736976D01*
X207304838Y-79763430D01*
X207302833Y-79802568D01*
X207302036Y-79858338D01*
X207301955Y-79894006D01*
X207301955Y-80056445D01*
X207143911Y-80056445D01*
X207143911Y-79809839D01*
X207143769Y-79728420D01*
X207143186Y-79666590D01*
X207141932Y-79621363D01*
X207139773Y-79589752D01*
X207136477Y-79568769D01*
X207131811Y-79555427D01*
X207125543Y-79546739D01*
X207123267Y-79544550D01*
X207091720Y-79528386D01*
X207055832Y-79527203D01*
X207024715Y-79540464D01*
X207014729Y-79550957D01*
X207009231Y-79561871D01*
X207004978Y-79578783D01*
X207001820Y-79604367D01*
X206999608Y-79641299D01*
X206998194Y-79692254D01*
X206997428Y-79759906D01*
X206997162Y-79846931D01*
X206997155Y-79866606D01*
X206997213Y-79955089D01*
X206997533Y-80023773D01*
X206998333Y-80075436D01*
X206999833Y-80112855D01*
X207002251Y-80138810D01*
X207005806Y-80156078D01*
X207010718Y-80167438D01*
X207017205Y-80175668D01*
X207021862Y-80180183D01*
X207030111Y-80186979D01*
X207040331Y-80192288D01*
X207055200Y-80196294D01*
X207077398Y-80199179D01*
X207109607Y-80201126D01*
X207154504Y-80202319D01*
X207214772Y-80202939D01*
X207293089Y-80203171D01*
X207359006Y-80203200D01*
X207451372Y-80203129D01*
X207523883Y-80202792D01*
X207579263Y-80202002D01*
X207620235Y-80200574D01*
X207649522Y-80198321D01*
X207669847Y-80195057D01*
X207683934Y-80190596D01*
X207694505Y-80184752D01*
X207701189Y-80179803D01*
X207730933Y-80156406D01*
X207730933Y-79866226D01*
X207730740Y-79769657D01*
G37*
X207730740Y-79769657D02*
X207729826Y-79693299D01*
X207727689Y-79634783D01*
X207723825Y-79591745D01*
X207717733Y-79561817D01*
X207708910Y-79542632D01*
X207696854Y-79531824D01*
X207681061Y-79527027D01*
X207661030Y-79525873D01*
X207658665Y-79525867D01*
X207636008Y-79526869D01*
X207618497Y-79531604D01*
X207605426Y-79542667D01*
X207596087Y-79562652D01*
X207589773Y-79594154D01*
X207585778Y-79639768D01*
X207583394Y-79702087D01*
X207581914Y-79783707D01*
X207581586Y-79808723D01*
X207578533Y-80050800D01*
X207513622Y-80054186D01*
X207448711Y-80057571D01*
X207448711Y-79889424D01*
X207448469Y-79823734D01*
X207447444Y-79776828D01*
X207445189Y-79744917D01*
X207441258Y-79724209D01*
X207435202Y-79710916D01*
X207426576Y-79701245D01*
X207426507Y-79701183D01*
X207392888Y-79683644D01*
X207356552Y-79684278D01*
X207325577Y-79702686D01*
X207322393Y-79706329D01*
X207314188Y-79719259D01*
X207308479Y-79736976D01*
X207304838Y-79763430D01*
X207302833Y-79802568D01*
X207302036Y-79858338D01*
X207301955Y-79894006D01*
X207301955Y-80056445D01*
X207143911Y-80056445D01*
X207143911Y-79809839D01*
X207143769Y-79728420D01*
X207143186Y-79666590D01*
X207141932Y-79621363D01*
X207139773Y-79589752D01*
X207136477Y-79568769D01*
X207131811Y-79555427D01*
X207125543Y-79546739D01*
X207123267Y-79544550D01*
X207091720Y-79528386D01*
X207055832Y-79527203D01*
X207024715Y-79540464D01*
X207014729Y-79550957D01*
X207009231Y-79561871D01*
X207004978Y-79578783D01*
X207001820Y-79604367D01*
X206999608Y-79641299D01*
X206998194Y-79692254D01*
X206997428Y-79759906D01*
X206997162Y-79846931D01*
X206997155Y-79866606D01*
X206997213Y-79955089D01*
X206997533Y-80023773D01*
X206998333Y-80075436D01*
X206999833Y-80112855D01*
X207002251Y-80138810D01*
X207005806Y-80156078D01*
X207010718Y-80167438D01*
X207017205Y-80175668D01*
X207021862Y-80180183D01*
X207030111Y-80186979D01*
X207040331Y-80192288D01*
X207055200Y-80196294D01*
X207077398Y-80199179D01*
X207109607Y-80201126D01*
X207154504Y-80202319D01*
X207214772Y-80202939D01*
X207293089Y-80203171D01*
X207359006Y-80203200D01*
X207451372Y-80203129D01*
X207523883Y-80202792D01*
X207579263Y-80202002D01*
X207620235Y-80200574D01*
X207649522Y-80198321D01*
X207669847Y-80195057D01*
X207683934Y-80190596D01*
X207694505Y-80184752D01*
X207701189Y-80179803D01*
X207730933Y-80156406D01*
X207730933Y-79866226D01*
X207730740Y-79769657D01*
G36*
X207726552Y-81300114D02*
G01*
X207712727Y-81276548D01*
X207690119Y-81245735D01*
X207657662Y-81206078D01*
X207614292Y-81155980D01*
X207558942Y-81093843D01*
X207490549Y-81018072D01*
X207411916Y-80931334D01*
X207248122Y-80750711D01*
X207467971Y-80745067D01*
X207543649Y-80743029D01*
X207600006Y-80741063D01*
X207640294Y-80738734D01*
X207667765Y-80735606D01*
X207685671Y-80731245D01*
X207697263Y-80725216D01*
X207705792Y-80717084D01*
X207709377Y-80712772D01*
X207728330Y-80678241D01*
X207725559Y-80645383D01*
X207709367Y-80619318D01*
X207687801Y-80592667D01*
X207372849Y-80589352D01*
X207280221Y-80588435D01*
X207207456Y-80587968D01*
X207151839Y-80588113D01*
X207110658Y-80589032D01*
X207081197Y-80590887D01*
X207060745Y-80593839D01*
X207046587Y-80598050D01*
X207036009Y-80603682D01*
X207027526Y-80609927D01*
X207011793Y-80623439D01*
X207001364Y-80636883D01*
X206997361Y-80652124D01*
X207000906Y-80671026D01*
X207013121Y-80695455D01*
X207035129Y-80727273D01*
X207068051Y-80768348D01*
X207113009Y-80820542D01*
X207171125Y-80885722D01*
X207237901Y-80959556D01*
X207478542Y-81224845D01*
X207259411Y-81230489D01*
X207183872Y-81232531D01*
X207127646Y-81234502D01*
X207087476Y-81236839D01*
X207060104Y-81239981D01*
X207042272Y-81244364D01*
X207030721Y-81250424D01*
X207022193Y-81258600D01*
X207018718Y-81262784D01*
X206999628Y-81299765D01*
X207002507Y-81334708D01*
X207026900Y-81365136D01*
X207036714Y-81372097D01*
X207048174Y-81377523D01*
X207064032Y-81381603D01*
X207087037Y-81384529D01*
X207119938Y-81386492D01*
X207165484Y-81387683D01*
X207226427Y-81388292D01*
X207305514Y-81388511D01*
X207364044Y-81388534D01*
X207455593Y-81388460D01*
X207527313Y-81388113D01*
X207581955Y-81387301D01*
X207622268Y-81385833D01*
X207651002Y-81383519D01*
X207670907Y-81380167D01*
X207684732Y-81375588D01*
X207695228Y-81369589D01*
X207701189Y-81365136D01*
X207715309Y-81353850D01*
X207725971Y-81343301D01*
X207732108Y-81331893D01*
X207732657Y-81318030D01*
X207726552Y-81300114D01*
G37*
X207726552Y-81300114D02*
X207712727Y-81276548D01*
X207690119Y-81245735D01*
X207657662Y-81206078D01*
X207614292Y-81155980D01*
X207558942Y-81093843D01*
X207490549Y-81018072D01*
X207411916Y-80931334D01*
X207248122Y-80750711D01*
X207467971Y-80745067D01*
X207543649Y-80743029D01*
X207600006Y-80741063D01*
X207640294Y-80738734D01*
X207667765Y-80735606D01*
X207685671Y-80731245D01*
X207697263Y-80725216D01*
X207705792Y-80717084D01*
X207709377Y-80712772D01*
X207728330Y-80678241D01*
X207725559Y-80645383D01*
X207709367Y-80619318D01*
X207687801Y-80592667D01*
X207372849Y-80589352D01*
X207280221Y-80588435D01*
X207207456Y-80587968D01*
X207151839Y-80588113D01*
X207110658Y-80589032D01*
X207081197Y-80590887D01*
X207060745Y-80593839D01*
X207046587Y-80598050D01*
X207036009Y-80603682D01*
X207027526Y-80609927D01*
X207011793Y-80623439D01*
X207001364Y-80636883D01*
X206997361Y-80652124D01*
X207000906Y-80671026D01*
X207013121Y-80695455D01*
X207035129Y-80727273D01*
X207068051Y-80768348D01*
X207113009Y-80820542D01*
X207171125Y-80885722D01*
X207237901Y-80959556D01*
X207478542Y-81224845D01*
X207259411Y-81230489D01*
X207183872Y-81232531D01*
X207127646Y-81234502D01*
X207087476Y-81236839D01*
X207060104Y-81239981D01*
X207042272Y-81244364D01*
X207030721Y-81250424D01*
X207022193Y-81258600D01*
X207018718Y-81262784D01*
X206999628Y-81299765D01*
X207002507Y-81334708D01*
X207026900Y-81365136D01*
X207036714Y-81372097D01*
X207048174Y-81377523D01*
X207064032Y-81381603D01*
X207087037Y-81384529D01*
X207119938Y-81386492D01*
X207165484Y-81387683D01*
X207226427Y-81388292D01*
X207305514Y-81388511D01*
X207364044Y-81388534D01*
X207455593Y-81388460D01*
X207527313Y-81388113D01*
X207581955Y-81387301D01*
X207622268Y-81385833D01*
X207651002Y-81383519D01*
X207670907Y-81380167D01*
X207684732Y-81375588D01*
X207695228Y-81369589D01*
X207701189Y-81365136D01*
X207715309Y-81353850D01*
X207725971Y-81343301D01*
X207732108Y-81331893D01*
X207732657Y-81318030D01*
X207726552Y-81300114D01*
G36*
X207725401Y-81950081D02*
G01*
X207713905Y-81881565D01*
X207696033Y-81828943D01*
X207672501Y-81794708D01*
X207659076Y-81785379D01*
X207627852Y-81775893D01*
X207599605Y-81782277D01*
X207572818Y-81802430D01*
X207560287Y-81833745D01*
X207561304Y-81879183D01*
X207568094Y-81914326D01*
X207581029Y-81992419D01*
X207582258Y-82072226D01*
X207571759Y-82161555D01*
X207567310Y-82186229D01*
X207543892Y-82269291D01*
X207509055Y-82334273D01*
X207463396Y-82380461D01*
X207407506Y-82407145D01*
X207378612Y-82412663D01*
X207319988Y-82409051D01*
X207268121Y-82385729D01*
X207224022Y-82344824D01*
X207188701Y-82288459D01*
X207163171Y-82218760D01*
X207148441Y-82137852D01*
X207145522Y-82047860D01*
X207155425Y-81950910D01*
X207156359Y-81945436D01*
X207163541Y-81906875D01*
X207170479Y-81885494D01*
X207180773Y-81876227D01*
X207198024Y-81874006D01*
X207207159Y-81873956D01*
X207245511Y-81873956D01*
X207245511Y-81942431D01*
X207249653Y-82002900D01*
X207262853Y-82044165D01*
X207286270Y-82068175D01*
X207321064Y-82076877D01*
X207325606Y-82076983D01*
X207355346Y-82071892D01*
X207376581Y-82054433D01*
X207390634Y-82021939D01*
X207398827Y-81971743D01*
X207401839Y-81923123D01*
X207403567Y-81852456D01*
X207400930Y-81801198D01*
X207391200Y-81766239D01*
X207371647Y-81744470D01*
X207339544Y-81732780D01*
X207292162Y-81728060D01*
X207229929Y-81727200D01*
X207160465Y-81728609D01*
X207113214Y-81732848D01*
X207087988Y-81739936D01*
X207086012Y-81741311D01*
X207054492Y-81780228D01*
X207029530Y-81837286D01*
X207011660Y-81908869D01*
X207001414Y-81991358D01*
X206999327Y-82081139D01*
X207005932Y-82174592D01*
X207014044Y-82229556D01*
X207038446Y-82315766D01*
X207078338Y-82395892D01*
X207130113Y-82462977D01*
X207140461Y-82473173D01*
X207183965Y-82506302D01*
X207237882Y-82536194D01*
X207294408Y-82559357D01*
X207345741Y-82572298D01*
X207365456Y-82573858D01*
X207406581Y-82567218D01*
X207457748Y-82549568D01*
X207511606Y-82524297D01*
X207560805Y-82494789D01*
X207593666Y-82468719D01*
X207642548Y-82407765D01*
X207681455Y-82328969D01*
X207709506Y-82235157D01*
X207725821Y-82129150D01*
X207729808Y-82032000D01*
X207725401Y-81950081D01*
G37*
X207725401Y-81950081D02*
X207713905Y-81881565D01*
X207696033Y-81828943D01*
X207672501Y-81794708D01*
X207659076Y-81785379D01*
X207627852Y-81775893D01*
X207599605Y-81782277D01*
X207572818Y-81802430D01*
X207560287Y-81833745D01*
X207561304Y-81879183D01*
X207568094Y-81914326D01*
X207581029Y-81992419D01*
X207582258Y-82072226D01*
X207571759Y-82161555D01*
X207567310Y-82186229D01*
X207543892Y-82269291D01*
X207509055Y-82334273D01*
X207463396Y-82380461D01*
X207407506Y-82407145D01*
X207378612Y-82412663D01*
X207319988Y-82409051D01*
X207268121Y-82385729D01*
X207224022Y-82344824D01*
X207188701Y-82288459D01*
X207163171Y-82218760D01*
X207148441Y-82137852D01*
X207145522Y-82047860D01*
X207155425Y-81950910D01*
X207156359Y-81945436D01*
X207163541Y-81906875D01*
X207170479Y-81885494D01*
X207180773Y-81876227D01*
X207198024Y-81874006D01*
X207207159Y-81873956D01*
X207245511Y-81873956D01*
X207245511Y-81942431D01*
X207249653Y-82002900D01*
X207262853Y-82044165D01*
X207286270Y-82068175D01*
X207321064Y-82076877D01*
X207325606Y-82076983D01*
X207355346Y-82071892D01*
X207376581Y-82054433D01*
X207390634Y-82021939D01*
X207398827Y-81971743D01*
X207401839Y-81923123D01*
X207403567Y-81852456D01*
X207400930Y-81801198D01*
X207391200Y-81766239D01*
X207371647Y-81744470D01*
X207339544Y-81732780D01*
X207292162Y-81728060D01*
X207229929Y-81727200D01*
X207160465Y-81728609D01*
X207113214Y-81732848D01*
X207087988Y-81739936D01*
X207086012Y-81741311D01*
X207054492Y-81780228D01*
X207029530Y-81837286D01*
X207011660Y-81908869D01*
X207001414Y-81991358D01*
X206999327Y-82081139D01*
X207005932Y-82174592D01*
X207014044Y-82229556D01*
X207038446Y-82315766D01*
X207078338Y-82395892D01*
X207130113Y-82462977D01*
X207140461Y-82473173D01*
X207183965Y-82506302D01*
X207237882Y-82536194D01*
X207294408Y-82559357D01*
X207345741Y-82572298D01*
X207365456Y-82573858D01*
X207406581Y-82567218D01*
X207457748Y-82549568D01*
X207511606Y-82524297D01*
X207560805Y-82494789D01*
X207593666Y-82468719D01*
X207642548Y-82407765D01*
X207681455Y-82328969D01*
X207709506Y-82235157D01*
X207725821Y-82129150D01*
X207729808Y-82032000D01*
X207725401Y-81950081D01*
G36*
X207708355Y-82923822D02*
G01*
X207700782Y-82917242D01*
X207691013Y-82912079D01*
X207676429Y-82908164D01*
X207654415Y-82905324D01*
X207622352Y-82903387D01*
X207577625Y-82902183D01*
X207517615Y-82901539D01*
X207439706Y-82901284D01*
X207364044Y-82901245D01*
X207270198Y-82901314D01*
X207196311Y-82901638D01*
X207139768Y-82902386D01*
X207097951Y-82903732D01*
X207068243Y-82905846D01*
X207048027Y-82908900D01*
X207034686Y-82913066D01*
X207025602Y-82918516D01*
X207019733Y-82923822D01*
X207000053Y-82956826D01*
X207001819Y-82991991D01*
X207023283Y-83023455D01*
X207031663Y-83030684D01*
X207041386Y-83036334D01*
X207055139Y-83040599D01*
X207075611Y-83043673D01*
X207105488Y-83045752D01*
X207147459Y-83047030D01*
X207204211Y-83047701D01*
X207278433Y-83047959D01*
X207362463Y-83048000D01*
X207675515Y-83048000D01*
X207703224Y-83020291D01*
X207726537Y-82986137D01*
X207727377Y-82953006D01*
X207708355Y-82923822D01*
G37*
X207708355Y-82923822D02*
X207700782Y-82917242D01*
X207691013Y-82912079D01*
X207676429Y-82908164D01*
X207654415Y-82905324D01*
X207622352Y-82903387D01*
X207577625Y-82902183D01*
X207517615Y-82901539D01*
X207439706Y-82901284D01*
X207364044Y-82901245D01*
X207270198Y-82901314D01*
X207196311Y-82901638D01*
X207139768Y-82902386D01*
X207097951Y-82903732D01*
X207068243Y-82905846D01*
X207048027Y-82908900D01*
X207034686Y-82913066D01*
X207025602Y-82918516D01*
X207019733Y-82923822D01*
X207000053Y-82956826D01*
X207001819Y-82991991D01*
X207023283Y-83023455D01*
X207031663Y-83030684D01*
X207041386Y-83036334D01*
X207055139Y-83040599D01*
X207075611Y-83043673D01*
X207105488Y-83045752D01*
X207147459Y-83047030D01*
X207204211Y-83047701D01*
X207278433Y-83047959D01*
X207362463Y-83048000D01*
X207675515Y-83048000D01*
X207703224Y-83020291D01*
X207726537Y-82986137D01*
X207727377Y-82953006D01*
X207708355Y-82923822D01*
G36*
X207729649Y-83691703D02*
G01*
X207724419Y-83616888D01*
X207716250Y-83547306D01*
X207705450Y-83487002D01*
X207692327Y-83440020D01*
X207677187Y-83410406D01*
X207672731Y-83405860D01*
X207638150Y-83390054D01*
X207602649Y-83394847D01*
X207572275Y-83419364D01*
X207571404Y-83420534D01*
X207562046Y-83434954D01*
X207557124Y-83450008D01*
X207556527Y-83471005D01*
X207560139Y-83503257D01*
X207567846Y-83552073D01*
X207568495Y-83556000D01*
X207577431Y-83628739D01*
X207581839Y-83707217D01*
X207581881Y-83785927D01*
X207577721Y-83859361D01*
X207569521Y-83922011D01*
X207557443Y-83968370D01*
X207556229Y-83971416D01*
X207537385Y-84005048D01*
X207518315Y-84016864D01*
X207499561Y-84007614D01*
X207481663Y-83978047D01*
X207465163Y-83928911D01*
X207450604Y-83860957D01*
X207443594Y-83815645D01*
X207430111Y-83721456D01*
X207417786Y-83646544D01*
X207405551Y-83587717D01*
X207392339Y-83541785D01*
X207377083Y-83505555D01*
X207358715Y-83475838D01*
X207336169Y-83449442D01*
X207314029Y-83428230D01*
X207283181Y-83403065D01*
X207256655Y-83390681D01*
X207223974Y-83386808D01*
X207212005Y-83386667D01*
X207172288Y-83389576D01*
X207142741Y-83401202D01*
X207116514Y-83421323D01*
X207076424Y-83462216D01*
X207045851Y-83507817D01*
X207023797Y-83561513D01*
X207009265Y-83626692D01*
X207001259Y-83706744D01*
X206998782Y-83805057D01*
X206998823Y-83821289D01*
X207000182Y-83886849D01*
X207003270Y-83951866D01*
X207007644Y-84009252D01*
X207012860Y-84051922D01*
X207013459Y-84055372D01*
X207023509Y-84097796D01*
X207036204Y-84133780D01*
X207047810Y-84154150D01*
X207078428Y-84173107D01*
X207114082Y-84174427D01*
X207145856Y-84158085D01*
X207149449Y-84154429D01*
X207160124Y-84139315D01*
X207164724Y-84120415D01*
X207163941Y-84091162D01*
X207159873Y-84055651D01*
X207156238Y-84015970D01*
X207153172Y-83960345D01*
X207150947Y-83895406D01*
X207149836Y-83827785D01*
X207149763Y-83810000D01*
X207150036Y-83742128D01*
X207151354Y-83692454D01*
X207154173Y-83656610D01*
X207158950Y-83630224D01*
X207166143Y-83608926D01*
X207172133Y-83596126D01*
X207188767Y-83568000D01*
X207203832Y-83550068D01*
X207208103Y-83547447D01*
X207225737Y-83552976D01*
X207242808Y-83579260D01*
X207258542Y-83624478D01*
X207272162Y-83686808D01*
X207275196Y-83705171D01*
X207290262Y-83801090D01*
X207302854Y-83877641D01*
X207313889Y-83937780D01*
X207324280Y-83984460D01*
X207334944Y-84020637D01*
X207346795Y-84049265D01*
X207360749Y-84073298D01*
X207377719Y-84095692D01*
X207398622Y-84119402D01*
X207405951Y-84127380D01*
X207433301Y-84155353D01*
X207454971Y-84170160D01*
X207479768Y-84175952D01*
X207511017Y-84176889D01*
X207572295Y-84166575D01*
X207624360Y-84135752D01*
X207667042Y-84084595D01*
X207700175Y-84013283D01*
X207715036Y-83962400D01*
X207724634Y-83907100D01*
X207730064Y-83840853D01*
X207731633Y-83767706D01*
X207729649Y-83691703D01*
G37*
X207729649Y-83691703D02*
X207724419Y-83616888D01*
X207716250Y-83547306D01*
X207705450Y-83487002D01*
X207692327Y-83440020D01*
X207677187Y-83410406D01*
X207672731Y-83405860D01*
X207638150Y-83390054D01*
X207602649Y-83394847D01*
X207572275Y-83419364D01*
X207571404Y-83420534D01*
X207562046Y-83434954D01*
X207557124Y-83450008D01*
X207556527Y-83471005D01*
X207560139Y-83503257D01*
X207567846Y-83552073D01*
X207568495Y-83556000D01*
X207577431Y-83628739D01*
X207581839Y-83707217D01*
X207581881Y-83785927D01*
X207577721Y-83859361D01*
X207569521Y-83922011D01*
X207557443Y-83968370D01*
X207556229Y-83971416D01*
X207537385Y-84005048D01*
X207518315Y-84016864D01*
X207499561Y-84007614D01*
X207481663Y-83978047D01*
X207465163Y-83928911D01*
X207450604Y-83860957D01*
X207443594Y-83815645D01*
X207430111Y-83721456D01*
X207417786Y-83646544D01*
X207405551Y-83587717D01*
X207392339Y-83541785D01*
X207377083Y-83505555D01*
X207358715Y-83475838D01*
X207336169Y-83449442D01*
X207314029Y-83428230D01*
X207283181Y-83403065D01*
X207256655Y-83390681D01*
X207223974Y-83386808D01*
X207212005Y-83386667D01*
X207172288Y-83389576D01*
X207142741Y-83401202D01*
X207116514Y-83421323D01*
X207076424Y-83462216D01*
X207045851Y-83507817D01*
X207023797Y-83561513D01*
X207009265Y-83626692D01*
X207001259Y-83706744D01*
X206998782Y-83805057D01*
X206998823Y-83821289D01*
X207000182Y-83886849D01*
X207003270Y-83951866D01*
X207007644Y-84009252D01*
X207012860Y-84051922D01*
X207013459Y-84055372D01*
X207023509Y-84097796D01*
X207036204Y-84133780D01*
X207047810Y-84154150D01*
X207078428Y-84173107D01*
X207114082Y-84174427D01*
X207145856Y-84158085D01*
X207149449Y-84154429D01*
X207160124Y-84139315D01*
X207164724Y-84120415D01*
X207163941Y-84091162D01*
X207159873Y-84055651D01*
X207156238Y-84015970D01*
X207153172Y-83960345D01*
X207150947Y-83895406D01*
X207149836Y-83827785D01*
X207149763Y-83810000D01*
X207150036Y-83742128D01*
X207151354Y-83692454D01*
X207154173Y-83656610D01*
X207158950Y-83630224D01*
X207166143Y-83608926D01*
X207172133Y-83596126D01*
X207188767Y-83568000D01*
X207203832Y-83550068D01*
X207208103Y-83547447D01*
X207225737Y-83552976D01*
X207242808Y-83579260D01*
X207258542Y-83624478D01*
X207272162Y-83686808D01*
X207275196Y-83705171D01*
X207290262Y-83801090D01*
X207302854Y-83877641D01*
X207313889Y-83937780D01*
X207324280Y-83984460D01*
X207334944Y-84020637D01*
X207346795Y-84049265D01*
X207360749Y-84073298D01*
X207377719Y-84095692D01*
X207398622Y-84119402D01*
X207405951Y-84127380D01*
X207433301Y-84155353D01*
X207454971Y-84170160D01*
X207479768Y-84175952D01*
X207511017Y-84176889D01*
X207572295Y-84166575D01*
X207624360Y-84135752D01*
X207667042Y-84084595D01*
X207700175Y-84013283D01*
X207715036Y-83962400D01*
X207724634Y-83907100D01*
X207730064Y-83840853D01*
X207731633Y-83767706D01*
X207729649Y-83691703D01*
G36*
X207730854Y-84712794D02*
G01*
X207730482Y-84643386D01*
X207729615Y-84590997D01*
X207728054Y-84552847D01*
X207725597Y-84526159D01*
X207722043Y-84508153D01*
X207717190Y-84496049D01*
X207710839Y-84487069D01*
X207707916Y-84483818D01*
X207676858Y-84464043D01*
X207641172Y-84460482D01*
X207609490Y-84473491D01*
X207603087Y-84479506D01*
X207596879Y-84489235D01*
X207592090Y-84504901D01*
X207588486Y-84529408D01*
X207585836Y-84565661D01*
X207583905Y-84616565D01*
X207582461Y-84685026D01*
X207581582Y-84747617D01*
X207578533Y-84995334D01*
X207513622Y-84998719D01*
X207448711Y-85002105D01*
X207448711Y-84833958D01*
X207448081Y-84760959D01*
X207445447Y-84707517D01*
X207439691Y-84670628D01*
X207429696Y-84647288D01*
X207414344Y-84634494D01*
X207392518Y-84629242D01*
X207372262Y-84628445D01*
X207347408Y-84630923D01*
X207329094Y-84640277D01*
X207316363Y-84659383D01*
X207308259Y-84691118D01*
X207303824Y-84738359D01*
X207302101Y-84803983D01*
X207301955Y-84839801D01*
X207301955Y-85000978D01*
X207143911Y-85000978D01*
X207143911Y-84752622D01*
X207143798Y-84671213D01*
X207143288Y-84609342D01*
X207142130Y-84563968D01*
X207140070Y-84532054D01*
X207136854Y-84510559D01*
X207132228Y-84496443D01*
X207125941Y-84486668D01*
X207121333Y-84481689D01*
X207094440Y-84464610D01*
X207070533Y-84459111D01*
X207041333Y-84466963D01*
X207019733Y-84481689D01*
X207012934Y-84489546D01*
X207007654Y-84499688D01*
X207003702Y-84514844D01*
X207000887Y-84537741D01*
X206999018Y-84571109D01*
X206997902Y-84617675D01*
X206997349Y-84680167D01*
X206997167Y-84761314D01*
X206997155Y-84803422D01*
X206997235Y-84893598D01*
X206997602Y-84963924D01*
X206998448Y-85017129D01*
X206999964Y-85055940D01*
X207002341Y-85083087D01*
X207005771Y-85101298D01*
X207010446Y-85113300D01*
X207016556Y-85121822D01*
X207019733Y-85125156D01*
X207027330Y-85131755D01*
X207037130Y-85136927D01*
X207051761Y-85140846D01*
X207073848Y-85143684D01*
X207106018Y-85145615D01*
X207150897Y-85146812D01*
X207211111Y-85147448D01*
X207289287Y-85147697D01*
X207362077Y-85147734D01*
X207455293Y-85147700D01*
X207528569Y-85147465D01*
X207584542Y-85146830D01*
X207625849Y-85145594D01*
X207655128Y-85143556D01*
X207675016Y-85140517D01*
X207688150Y-85136277D01*
X207697168Y-85130635D01*
X207704707Y-85123391D01*
X207706388Y-85121606D01*
X207713828Y-85112945D01*
X207719591Y-85102882D01*
X207723888Y-85088625D01*
X207726936Y-85067383D01*
X207728949Y-85036364D01*
X207730140Y-84992777D01*
X207730725Y-84933831D01*
X207730917Y-84856734D01*
X207730933Y-84802001D01*
X207730854Y-84712794D01*
G37*
X207730854Y-84712794D02*
X207730482Y-84643386D01*
X207729615Y-84590997D01*
X207728054Y-84552847D01*
X207725597Y-84526159D01*
X207722043Y-84508153D01*
X207717190Y-84496049D01*
X207710839Y-84487069D01*
X207707916Y-84483818D01*
X207676858Y-84464043D01*
X207641172Y-84460482D01*
X207609490Y-84473491D01*
X207603087Y-84479506D01*
X207596879Y-84489235D01*
X207592090Y-84504901D01*
X207588486Y-84529408D01*
X207585836Y-84565661D01*
X207583905Y-84616565D01*
X207582461Y-84685026D01*
X207581582Y-84747617D01*
X207578533Y-84995334D01*
X207513622Y-84998719D01*
X207448711Y-85002105D01*
X207448711Y-84833958D01*
X207448081Y-84760959D01*
X207445447Y-84707517D01*
X207439691Y-84670628D01*
X207429696Y-84647288D01*
X207414344Y-84634494D01*
X207392518Y-84629242D01*
X207372262Y-84628445D01*
X207347408Y-84630923D01*
X207329094Y-84640277D01*
X207316363Y-84659383D01*
X207308259Y-84691118D01*
X207303824Y-84738359D01*
X207302101Y-84803983D01*
X207301955Y-84839801D01*
X207301955Y-85000978D01*
X207143911Y-85000978D01*
X207143911Y-84752622D01*
X207143798Y-84671213D01*
X207143288Y-84609342D01*
X207142130Y-84563968D01*
X207140070Y-84532054D01*
X207136854Y-84510559D01*
X207132228Y-84496443D01*
X207125941Y-84486668D01*
X207121333Y-84481689D01*
X207094440Y-84464610D01*
X207070533Y-84459111D01*
X207041333Y-84466963D01*
X207019733Y-84481689D01*
X207012934Y-84489546D01*
X207007654Y-84499688D01*
X207003702Y-84514844D01*
X207000887Y-84537741D01*
X206999018Y-84571109D01*
X206997902Y-84617675D01*
X206997349Y-84680167D01*
X206997167Y-84761314D01*
X206997155Y-84803422D01*
X206997235Y-84893598D01*
X206997602Y-84963924D01*
X206998448Y-85017129D01*
X206999964Y-85055940D01*
X207002341Y-85083087D01*
X207005771Y-85101298D01*
X207010446Y-85113300D01*
X207016556Y-85121822D01*
X207019733Y-85125156D01*
X207027330Y-85131755D01*
X207037130Y-85136927D01*
X207051761Y-85140846D01*
X207073848Y-85143684D01*
X207106018Y-85145615D01*
X207150897Y-85146812D01*
X207211111Y-85147448D01*
X207289287Y-85147697D01*
X207362077Y-85147734D01*
X207455293Y-85147700D01*
X207528569Y-85147465D01*
X207584542Y-85146830D01*
X207625849Y-85145594D01*
X207655128Y-85143556D01*
X207675016Y-85140517D01*
X207688150Y-85136277D01*
X207697168Y-85130635D01*
X207704707Y-85123391D01*
X207706388Y-85121606D01*
X207713828Y-85112945D01*
X207719591Y-85102882D01*
X207723888Y-85088625D01*
X207726936Y-85067383D01*
X207728949Y-85036364D01*
X207730140Y-84992777D01*
X207730725Y-84933831D01*
X207730917Y-84856734D01*
X207730933Y-84802001D01*
X207730854Y-84712794D01*
G36*
X207730934Y-86121371D02*
G01*
X207730533Y-86081889D01*
X207727741Y-85966200D01*
X207719450Y-85869311D01*
X207704768Y-85787919D01*
X207682807Y-85718723D01*
X207652678Y-85658420D01*
X207613490Y-85603708D01*
X207596468Y-85584167D01*
X207556637Y-85551750D01*
X207502587Y-85522520D01*
X207442677Y-85499991D01*
X207385261Y-85487679D01*
X207364044Y-85486400D01*
X207305231Y-85494417D01*
X207240987Y-85515899D01*
X207180179Y-85546999D01*
X207131670Y-85583866D01*
X207125818Y-85589854D01*
X207084679Y-85640579D01*
X207052565Y-85696125D01*
X207028635Y-85759696D01*
X207012047Y-85834494D01*
X207001959Y-85923722D01*
X206997531Y-86030582D01*
X206997155Y-86079528D01*
X206997455Y-86141762D01*
X206998708Y-86185528D01*
X207001446Y-86214931D01*
X207006199Y-86234079D01*
X207013499Y-86247077D01*
X207019733Y-86254045D01*
X207027306Y-86260626D01*
X207037076Y-86265788D01*
X207051660Y-86269703D01*
X207073674Y-86272543D01*
X207105736Y-86274480D01*
X207150464Y-86275684D01*
X207210474Y-86276328D01*
X207288383Y-86276583D01*
X207364044Y-86276622D01*
X207464959Y-86276870D01*
X207545573Y-86276817D01*
X207584178Y-86275857D01*
X207584178Y-86129867D01*
X207143911Y-86129867D01*
X207143996Y-86036734D01*
X207145604Y-85980693D01*
X207149744Y-85921999D01*
X207155536Y-85873028D01*
X207155774Y-85871538D01*
X207174910Y-85792392D01*
X207204713Y-85731002D01*
X207247122Y-85684305D01*
X207293039Y-85654635D01*
X207343974Y-85636353D01*
X207391800Y-85637771D01*
X207443067Y-85658988D01*
X207496101Y-85700489D01*
X207535400Y-85757998D01*
X207561669Y-85832750D01*
X207570965Y-85882708D01*
X207577493Y-85939416D01*
X207582218Y-85999519D01*
X207584183Y-86050639D01*
X207584192Y-86053667D01*
X207584178Y-86129867D01*
X207584178Y-86275857D01*
X207608149Y-86275260D01*
X207654945Y-86270998D01*
X207688222Y-86262830D01*
X207710241Y-86249556D01*
X207723261Y-86229974D01*
X207729543Y-86202883D01*
X207731347Y-86167082D01*
X207730934Y-86121371D01*
G37*
X207730934Y-86121371D02*
X207730533Y-86081889D01*
X207727741Y-85966200D01*
X207719450Y-85869311D01*
X207704768Y-85787919D01*
X207682807Y-85718723D01*
X207652678Y-85658420D01*
X207613490Y-85603708D01*
X207596468Y-85584167D01*
X207556637Y-85551750D01*
X207502587Y-85522520D01*
X207442677Y-85499991D01*
X207385261Y-85487679D01*
X207364044Y-85486400D01*
X207305231Y-85494417D01*
X207240987Y-85515899D01*
X207180179Y-85546999D01*
X207131670Y-85583866D01*
X207125818Y-85589854D01*
X207084679Y-85640579D01*
X207052565Y-85696125D01*
X207028635Y-85759696D01*
X207012047Y-85834494D01*
X207001959Y-85923722D01*
X206997531Y-86030582D01*
X206997155Y-86079528D01*
X206997455Y-86141762D01*
X206998708Y-86185528D01*
X207001446Y-86214931D01*
X207006199Y-86234079D01*
X207013499Y-86247077D01*
X207019733Y-86254045D01*
X207027306Y-86260626D01*
X207037076Y-86265788D01*
X207051660Y-86269703D01*
X207073674Y-86272543D01*
X207105736Y-86274480D01*
X207150464Y-86275684D01*
X207210474Y-86276328D01*
X207288383Y-86276583D01*
X207364044Y-86276622D01*
X207464959Y-86276870D01*
X207545573Y-86276817D01*
X207584178Y-86275857D01*
X207584178Y-86129867D01*
X207143911Y-86129867D01*
X207143996Y-86036734D01*
X207145604Y-85980693D01*
X207149744Y-85921999D01*
X207155536Y-85873028D01*
X207155774Y-85871538D01*
X207174910Y-85792392D01*
X207204713Y-85731002D01*
X207247122Y-85684305D01*
X207293039Y-85654635D01*
X207343974Y-85636353D01*
X207391800Y-85637771D01*
X207443067Y-85658988D01*
X207496101Y-85700489D01*
X207535400Y-85757998D01*
X207561669Y-85832750D01*
X207570965Y-85882708D01*
X207577493Y-85939416D01*
X207582218Y-85999519D01*
X207584183Y-86050639D01*
X207584192Y-86053667D01*
X207584178Y-86129867D01*
X207584178Y-86275857D01*
X207608149Y-86275260D01*
X207654945Y-86270998D01*
X207688222Y-86262830D01*
X207710241Y-86249556D01*
X207723261Y-86229974D01*
X207729543Y-86202883D01*
X207731347Y-86167082D01*
X207730934Y-86121371D01*
G36*
X212973429Y-82273043D02*
G01*
X212949191Y-82176768D01*
X212906359Y-82090184D01*
X212846581Y-82015373D01*
X212771506Y-81954418D01*
X212682780Y-81909399D01*
X212586470Y-81883136D01*
X212489205Y-81877286D01*
X212395346Y-81892140D01*
X212307489Y-81925840D01*
X212228230Y-81976528D01*
X212160164Y-82042345D01*
X212105888Y-82121434D01*
X212067998Y-82211934D01*
X212055574Y-82263200D01*
X212048053Y-82307698D01*
X212045081Y-82341999D01*
X212046906Y-82374960D01*
X212053775Y-82415434D01*
X212060750Y-82448531D01*
X212092259Y-82541947D01*
X212143383Y-82625619D01*
X212212571Y-82697665D01*
X212298272Y-82756200D01*
X212325511Y-82770148D01*
X212361878Y-82786586D01*
X212392418Y-82796894D01*
X212424550Y-82802460D01*
X212465693Y-82804669D01*
X212511778Y-82804948D01*
X212596135Y-82800861D01*
X212665414Y-82787446D01*
X212726039Y-82762256D01*
X212784433Y-82722846D01*
X212828698Y-82684298D01*
X212894516Y-82612406D01*
X212939947Y-82537313D01*
X212967150Y-82454562D01*
X212977424Y-82376928D01*
X212973429Y-82273043D01*
G37*
X212973429Y-82273043D02*
X212949191Y-82176768D01*
X212906359Y-82090184D01*
X212846581Y-82015373D01*
X212771506Y-81954418D01*
X212682780Y-81909399D01*
X212586470Y-81883136D01*
X212489205Y-81877286D01*
X212395346Y-81892140D01*
X212307489Y-81925840D01*
X212228230Y-81976528D01*
X212160164Y-82042345D01*
X212105888Y-82121434D01*
X212067998Y-82211934D01*
X212055574Y-82263200D01*
X212048053Y-82307698D01*
X212045081Y-82341999D01*
X212046906Y-82374960D01*
X212053775Y-82415434D01*
X212060750Y-82448531D01*
X212092259Y-82541947D01*
X212143383Y-82625619D01*
X212212571Y-82697665D01*
X212298272Y-82756200D01*
X212325511Y-82770148D01*
X212361878Y-82786586D01*
X212392418Y-82796894D01*
X212424550Y-82802460D01*
X212465693Y-82804669D01*
X212511778Y-82804948D01*
X212596135Y-82800861D01*
X212665414Y-82787446D01*
X212726039Y-82762256D01*
X212784433Y-82722846D01*
X212828698Y-82684298D01*
X212894516Y-82612406D01*
X212939947Y-82537313D01*
X212967150Y-82454562D01*
X212977424Y-82376928D01*
X212973429Y-82273043D01*
G36*
X210527755Y-73813493D02*
G01*
X210293338Y-73813474D01*
X210080397Y-73813448D01*
X209887832Y-73813375D01*
X209714541Y-73813218D01*
X209559424Y-73812936D01*
X209421380Y-73812491D01*
X209299308Y-73811844D01*
X209192106Y-73810955D01*
X209098674Y-73809787D01*
X209017910Y-73808299D01*
X208948714Y-73806454D01*
X208889985Y-73804211D01*
X208840621Y-73801531D01*
X208799522Y-73798377D01*
X208765587Y-73794708D01*
X208737714Y-73790487D01*
X208714802Y-73785673D01*
X208695751Y-73780227D01*
X208679460Y-73774112D01*
X208664827Y-73767288D01*
X208650751Y-73759715D01*
X208636132Y-73751355D01*
X208627026Y-73746161D01*
X208566311Y-73711896D01*
X208566311Y-74570045D01*
X208662267Y-74570045D01*
X208705630Y-74570776D01*
X208738795Y-74572728D01*
X208756576Y-74575537D01*
X208758222Y-74576779D01*
X208751338Y-74588201D01*
X208733495Y-74610916D01*
X208714121Y-74633615D01*
X208673386Y-74688200D01*
X208632383Y-74757679D01*
X208594877Y-74834730D01*
X208564636Y-74912035D01*
X208554988Y-74942887D01*
X208540422Y-75011384D01*
X208530461Y-75094236D01*
X208525417Y-75183629D01*
X208525604Y-75271752D01*
X208531334Y-75350793D01*
X208537142Y-75388489D01*
X208575203Y-75526586D01*
X208632927Y-75653887D01*
X208709789Y-75769708D01*
X208805261Y-75873363D01*
X208918821Y-75964167D01*
X209029619Y-76030969D01*
X209146375Y-76085836D01*
X209265724Y-76127837D01*
X209391717Y-76157833D01*
X209528406Y-76176689D01*
X209679842Y-76185268D01*
X209757289Y-76185994D01*
X209814066Y-76183900D01*
X209814066Y-75354783D01*
X209720998Y-75354576D01*
X209633308Y-75351663D01*
X209556228Y-75346000D01*
X209494991Y-75337545D01*
X209482650Y-75334962D01*
X209375367Y-75303160D01*
X209288342Y-75261502D01*
X209221358Y-75209637D01*
X209174195Y-75147219D01*
X209146635Y-75073900D01*
X209138459Y-74989331D01*
X209149449Y-74893165D01*
X209165171Y-74829689D01*
X209183361Y-74780546D01*
X209209209Y-74726417D01*
X209232911Y-74685756D01*
X209279279Y-74615200D01*
X210429470Y-74615200D01*
X210473038Y-74682608D01*
X210513960Y-74761133D01*
X210540611Y-74845319D01*
X210552535Y-74930443D01*
X210549278Y-75011784D01*
X210530385Y-75084620D01*
X210514816Y-75116574D01*
X210471819Y-75174499D01*
X210415047Y-75223456D01*
X210342425Y-75264610D01*
X210251879Y-75299126D01*
X210141334Y-75328167D01*
X210135467Y-75329448D01*
X210073212Y-75339619D01*
X209995406Y-75347261D01*
X209907280Y-75352330D01*
X209814066Y-75354783D01*
X209814066Y-76183900D01*
X209970105Y-76178143D01*
X210165941Y-76156198D01*
X210344668Y-76120214D01*
X210506155Y-76070241D01*
X210650274Y-76006332D01*
X210776894Y-75928538D01*
X210885885Y-75836911D01*
X210977117Y-75731503D01*
X211008068Y-75686338D01*
X211064215Y-75585389D01*
X211103826Y-75482099D01*
X211127986Y-75372011D01*
X211137781Y-75250670D01*
X211136735Y-75158164D01*
X211125769Y-75028510D01*
X211103954Y-74915916D01*
X211070286Y-74817125D01*
X211023764Y-74728879D01*
X210989552Y-74680014D01*
X210967638Y-74650647D01*
X210952667Y-74628957D01*
X210948267Y-74620747D01*
X210959096Y-74619132D01*
X210989749Y-74617841D01*
X211037474Y-74616862D01*
X211099521Y-74616183D01*
X211173138Y-74615790D01*
X211255573Y-74615670D01*
X211344075Y-74615812D01*
X211435893Y-74616203D01*
X211528276Y-74616829D01*
X211618472Y-74617680D01*
X211703729Y-74618740D01*
X211781297Y-74619999D01*
X211848424Y-74621444D01*
X211902359Y-74623062D01*
X211940350Y-74624839D01*
X211947333Y-74625331D01*
X212017749Y-74632908D01*
X212072898Y-74644469D01*
X212120019Y-74662208D01*
X212166353Y-74688318D01*
X212175933Y-74694585D01*
X212212622Y-74719017D01*
X212212622Y-73813689D01*
X210527755Y-73813493D01*
G37*
X210527755Y-73813493D02*
X210293338Y-73813474D01*
X210080397Y-73813448D01*
X209887832Y-73813375D01*
X209714541Y-73813218D01*
X209559424Y-73812936D01*
X209421380Y-73812491D01*
X209299308Y-73811844D01*
X209192106Y-73810955D01*
X209098674Y-73809787D01*
X209017910Y-73808299D01*
X208948714Y-73806454D01*
X208889985Y-73804211D01*
X208840621Y-73801531D01*
X208799522Y-73798377D01*
X208765587Y-73794708D01*
X208737714Y-73790487D01*
X208714802Y-73785673D01*
X208695751Y-73780227D01*
X208679460Y-73774112D01*
X208664827Y-73767288D01*
X208650751Y-73759715D01*
X208636132Y-73751355D01*
X208627026Y-73746161D01*
X208566311Y-73711896D01*
X208566311Y-74570045D01*
X208662267Y-74570045D01*
X208705630Y-74570776D01*
X208738795Y-74572728D01*
X208756576Y-74575537D01*
X208758222Y-74576779D01*
X208751338Y-74588201D01*
X208733495Y-74610916D01*
X208714121Y-74633615D01*
X208673386Y-74688200D01*
X208632383Y-74757679D01*
X208594877Y-74834730D01*
X208564636Y-74912035D01*
X208554988Y-74942887D01*
X208540422Y-75011384D01*
X208530461Y-75094236D01*
X208525417Y-75183629D01*
X208525604Y-75271752D01*
X208531334Y-75350793D01*
X208537142Y-75388489D01*
X208575203Y-75526586D01*
X208632927Y-75653887D01*
X208709789Y-75769708D01*
X208805261Y-75873363D01*
X208918821Y-75964167D01*
X209029619Y-76030969D01*
X209146375Y-76085836D01*
X209265724Y-76127837D01*
X209391717Y-76157833D01*
X209528406Y-76176689D01*
X209679842Y-76185268D01*
X209757289Y-76185994D01*
X209814066Y-76183900D01*
X209814066Y-75354783D01*
X209720998Y-75354576D01*
X209633308Y-75351663D01*
X209556228Y-75346000D01*
X209494991Y-75337545D01*
X209482650Y-75334962D01*
X209375367Y-75303160D01*
X209288342Y-75261502D01*
X209221358Y-75209637D01*
X209174195Y-75147219D01*
X209146635Y-75073900D01*
X209138459Y-74989331D01*
X209149449Y-74893165D01*
X209165171Y-74829689D01*
X209183361Y-74780546D01*
X209209209Y-74726417D01*
X209232911Y-74685756D01*
X209279279Y-74615200D01*
X210429470Y-74615200D01*
X210473038Y-74682608D01*
X210513960Y-74761133D01*
X210540611Y-74845319D01*
X210552535Y-74930443D01*
X210549278Y-75011784D01*
X210530385Y-75084620D01*
X210514816Y-75116574D01*
X210471819Y-75174499D01*
X210415047Y-75223456D01*
X210342425Y-75264610D01*
X210251879Y-75299126D01*
X210141334Y-75328167D01*
X210135467Y-75329448D01*
X210073212Y-75339619D01*
X209995406Y-75347261D01*
X209907280Y-75352330D01*
X209814066Y-75354783D01*
X209814066Y-76183900D01*
X209970105Y-76178143D01*
X210165941Y-76156198D01*
X210344668Y-76120214D01*
X210506155Y-76070241D01*
X210650274Y-76006332D01*
X210776894Y-75928538D01*
X210885885Y-75836911D01*
X210977117Y-75731503D01*
X211008068Y-75686338D01*
X211064215Y-75585389D01*
X211103826Y-75482099D01*
X211127986Y-75372011D01*
X211137781Y-75250670D01*
X211136735Y-75158164D01*
X211125769Y-75028510D01*
X211103954Y-74915916D01*
X211070286Y-74817125D01*
X211023764Y-74728879D01*
X210989552Y-74680014D01*
X210967638Y-74650647D01*
X210952667Y-74628957D01*
X210948267Y-74620747D01*
X210959096Y-74619132D01*
X210989749Y-74617841D01*
X211037474Y-74616862D01*
X211099521Y-74616183D01*
X211173138Y-74615790D01*
X211255573Y-74615670D01*
X211344075Y-74615812D01*
X211435893Y-74616203D01*
X211528276Y-74616829D01*
X211618472Y-74617680D01*
X211703729Y-74618740D01*
X211781297Y-74619999D01*
X211848424Y-74621444D01*
X211902359Y-74623062D01*
X211940350Y-74624839D01*
X211947333Y-74625331D01*
X212017749Y-74632908D01*
X212072898Y-74644469D01*
X212120019Y-74662208D01*
X212166353Y-74688318D01*
X212175933Y-74694585D01*
X212212622Y-74719017D01*
X212212622Y-73813689D01*
X210527755Y-73813493D01*
G36*
X211133448Y-77326426D02*
G01*
X211113433Y-77174508D01*
X211079798Y-77039244D01*
X211032275Y-76919761D01*
X210970595Y-76815185D01*
X210907035Y-76737576D01*
X210832901Y-76668735D01*
X210753129Y-76614994D01*
X210660909Y-76572090D01*
X210617839Y-76556616D01*
X210578858Y-76543756D01*
X210542711Y-76532554D01*
X210507566Y-76522880D01*
X210471590Y-76514604D01*
X210432950Y-76507597D01*
X210389815Y-76501728D01*
X210340351Y-76496869D01*
X210282727Y-76492890D01*
X210215109Y-76489660D01*
X210135666Y-76487051D01*
X210042564Y-76484933D01*
X209933973Y-76483176D01*
X209808058Y-76481651D01*
X209662988Y-76480228D01*
X209520222Y-76478975D01*
X209364032Y-76477649D01*
X209228761Y-76476444D01*
X209112754Y-76475234D01*
X209014355Y-76473894D01*
X208931907Y-76472300D01*
X208863754Y-76470325D01*
X208808240Y-76467844D01*
X208763708Y-76464731D01*
X208728502Y-76460862D01*
X208700966Y-76456111D01*
X208679444Y-76450352D01*
X208662278Y-76443461D01*
X208647814Y-76435311D01*
X208634394Y-76425777D01*
X208620362Y-76414734D01*
X208614929Y-76410434D01*
X208592090Y-76394614D01*
X208576537Y-76387578D01*
X208576078Y-76387556D01*
X208573879Y-76398433D01*
X208571853Y-76429418D01*
X208570058Y-76478043D01*
X208568549Y-76541837D01*
X208567384Y-76618331D01*
X208566620Y-76705056D01*
X208566314Y-76799543D01*
X208566311Y-76810450D01*
X208566311Y-77233343D01*
X208662378Y-77236605D01*
X208758444Y-77239867D01*
X208707457Y-77301956D01*
X208639943Y-77399286D01*
X208585251Y-77509187D01*
X208555022Y-77595651D01*
X208540334Y-77664722D01*
X208530341Y-77748075D01*
X208525354Y-77837841D01*
X208525687Y-77926155D01*
X208531649Y-78005149D01*
X208537362Y-78041378D01*
X208575224Y-78181397D01*
X208630068Y-78307822D01*
X208701076Y-78419740D01*
X208787432Y-78516238D01*
X208888321Y-78596400D01*
X209002924Y-78659313D01*
X209129016Y-78703688D01*
X209185599Y-78716022D01*
X209247798Y-78723632D01*
X209322637Y-78727261D01*
X209356533Y-78727755D01*
X209359718Y-78727690D01*
X209359718Y-77967752D01*
X209284667Y-77958459D01*
X209220840Y-77930272D01*
X209165202Y-77881803D01*
X209160789Y-77876746D01*
X209125963Y-77828452D01*
X209103380Y-77776743D01*
X209091460Y-77716011D01*
X209088617Y-77640648D01*
X209089022Y-77622541D01*
X209091675Y-77568722D01*
X209097091Y-77528692D01*
X209107255Y-77493676D01*
X209124150Y-77454897D01*
X209129328Y-77444255D01*
X209165156Y-77383604D01*
X209207788Y-77336785D01*
X209223027Y-77324048D01*
X209279538Y-77279378D01*
X209475414Y-77279378D01*
X209554061Y-77279914D01*
X209612012Y-77281604D01*
X209651125Y-77284572D01*
X209673259Y-77288943D01*
X209679726Y-77293028D01*
X209682889Y-77308953D01*
X209685512Y-77342736D01*
X209687345Y-77389660D01*
X209688143Y-77445007D01*
X209688158Y-77453894D01*
X209682904Y-77574670D01*
X209666737Y-77677340D01*
X209639039Y-77763894D01*
X209599192Y-77836319D01*
X209552242Y-77891249D01*
X209494355Y-77935796D01*
X209431307Y-77960520D01*
X209359718Y-77967752D01*
X209359718Y-78727690D01*
X209450288Y-78725822D01*
X209529188Y-78717478D01*
X209600410Y-78701232D01*
X209671136Y-78675595D01*
X209723507Y-78651599D01*
X209818804Y-78592980D01*
X209906830Y-78514883D01*
X209985983Y-78419685D01*
X210054660Y-78309762D01*
X210111259Y-78187490D01*
X210154179Y-78055245D01*
X210169118Y-77990578D01*
X210191223Y-77854396D01*
X210205806Y-77705951D01*
X210212187Y-77554495D01*
X210210555Y-77427936D01*
X210203776Y-77266050D01*
X210262755Y-77273470D01*
X210361908Y-77292762D01*
X210442628Y-77323896D01*
X210505534Y-77367731D01*
X210551244Y-77425129D01*
X210580378Y-77496952D01*
X210593553Y-77584059D01*
X210591389Y-77687314D01*
X210587388Y-77725289D01*
X210562220Y-77866480D01*
X210521186Y-78003293D01*
X210483185Y-78097822D01*
X210463810Y-78142982D01*
X210448240Y-78181415D01*
X210438595Y-78207766D01*
X210436548Y-78215454D01*
X210445626Y-78225198D01*
X210474595Y-78241917D01*
X210523783Y-78265768D01*
X210593516Y-78296907D01*
X210684121Y-78335493D01*
X210699911Y-78342090D01*
X210772228Y-78372147D01*
X210837575Y-78399126D01*
X210893094Y-78421864D01*
X210935928Y-78439194D01*
X210963219Y-78449952D01*
X210972058Y-78453059D01*
X210976813Y-78443060D01*
X210982090Y-78416783D01*
X210985769Y-78388511D01*
X210990526Y-78358354D01*
X210999972Y-78310567D01*
X211013180Y-78249388D01*
X211029224Y-78179054D01*
X211047180Y-78103806D01*
X211054203Y-78075245D01*
X211079791Y-77970184D01*
X211099853Y-77882520D01*
X211115031Y-77807932D01*
X211125965Y-77742097D01*
X211133296Y-77680693D01*
X211137665Y-77619398D01*
X211139713Y-77553890D01*
X211140111Y-77495872D01*
X211133448Y-77326426D01*
G37*
X211133448Y-77326426D02*
X211113433Y-77174508D01*
X211079798Y-77039244D01*
X211032275Y-76919761D01*
X210970595Y-76815185D01*
X210907035Y-76737576D01*
X210832901Y-76668735D01*
X210753129Y-76614994D01*
X210660909Y-76572090D01*
X210617839Y-76556616D01*
X210578858Y-76543756D01*
X210542711Y-76532554D01*
X210507566Y-76522880D01*
X210471590Y-76514604D01*
X210432950Y-76507597D01*
X210389815Y-76501728D01*
X210340351Y-76496869D01*
X210282727Y-76492890D01*
X210215109Y-76489660D01*
X210135666Y-76487051D01*
X210042564Y-76484933D01*
X209933973Y-76483176D01*
X209808058Y-76481651D01*
X209662988Y-76480228D01*
X209520222Y-76478975D01*
X209364032Y-76477649D01*
X209228761Y-76476444D01*
X209112754Y-76475234D01*
X209014355Y-76473894D01*
X208931907Y-76472300D01*
X208863754Y-76470325D01*
X208808240Y-76467844D01*
X208763708Y-76464731D01*
X208728502Y-76460862D01*
X208700966Y-76456111D01*
X208679444Y-76450352D01*
X208662278Y-76443461D01*
X208647814Y-76435311D01*
X208634394Y-76425777D01*
X208620362Y-76414734D01*
X208614929Y-76410434D01*
X208592090Y-76394614D01*
X208576537Y-76387578D01*
X208576078Y-76387556D01*
X208573879Y-76398433D01*
X208571853Y-76429418D01*
X208570058Y-76478043D01*
X208568549Y-76541837D01*
X208567384Y-76618331D01*
X208566620Y-76705056D01*
X208566314Y-76799543D01*
X208566311Y-76810450D01*
X208566311Y-77233343D01*
X208662378Y-77236605D01*
X208758444Y-77239867D01*
X208707457Y-77301956D01*
X208639943Y-77399286D01*
X208585251Y-77509187D01*
X208555022Y-77595651D01*
X208540334Y-77664722D01*
X208530341Y-77748075D01*
X208525354Y-77837841D01*
X208525687Y-77926155D01*
X208531649Y-78005149D01*
X208537362Y-78041378D01*
X208575224Y-78181397D01*
X208630068Y-78307822D01*
X208701076Y-78419740D01*
X208787432Y-78516238D01*
X208888321Y-78596400D01*
X209002924Y-78659313D01*
X209129016Y-78703688D01*
X209185599Y-78716022D01*
X209247798Y-78723632D01*
X209322637Y-78727261D01*
X209356533Y-78727755D01*
X209359718Y-78727690D01*
X209359718Y-77967752D01*
X209284667Y-77958459D01*
X209220840Y-77930272D01*
X209165202Y-77881803D01*
X209160789Y-77876746D01*
X209125963Y-77828452D01*
X209103380Y-77776743D01*
X209091460Y-77716011D01*
X209088617Y-77640648D01*
X209089022Y-77622541D01*
X209091675Y-77568722D01*
X209097091Y-77528692D01*
X209107255Y-77493676D01*
X209124150Y-77454897D01*
X209129328Y-77444255D01*
X209165156Y-77383604D01*
X209207788Y-77336785D01*
X209223027Y-77324048D01*
X209279538Y-77279378D01*
X209475414Y-77279378D01*
X209554061Y-77279914D01*
X209612012Y-77281604D01*
X209651125Y-77284572D01*
X209673259Y-77288943D01*
X209679726Y-77293028D01*
X209682889Y-77308953D01*
X209685512Y-77342736D01*
X209687345Y-77389660D01*
X209688143Y-77445007D01*
X209688158Y-77453894D01*
X209682904Y-77574670D01*
X209666737Y-77677340D01*
X209639039Y-77763894D01*
X209599192Y-77836319D01*
X209552242Y-77891249D01*
X209494355Y-77935796D01*
X209431307Y-77960520D01*
X209359718Y-77967752D01*
X209359718Y-78727690D01*
X209450288Y-78725822D01*
X209529188Y-78717478D01*
X209600410Y-78701232D01*
X209671136Y-78675595D01*
X209723507Y-78651599D01*
X209818804Y-78592980D01*
X209906830Y-78514883D01*
X209985983Y-78419685D01*
X210054660Y-78309762D01*
X210111259Y-78187490D01*
X210154179Y-78055245D01*
X210169118Y-77990578D01*
X210191223Y-77854396D01*
X210205806Y-77705951D01*
X210212187Y-77554495D01*
X210210555Y-77427936D01*
X210203776Y-77266050D01*
X210262755Y-77273470D01*
X210361908Y-77292762D01*
X210442628Y-77323896D01*
X210505534Y-77367731D01*
X210551244Y-77425129D01*
X210580378Y-77496952D01*
X210593553Y-77584059D01*
X210591389Y-77687314D01*
X210587388Y-77725289D01*
X210562220Y-77866480D01*
X210521186Y-78003293D01*
X210483185Y-78097822D01*
X210463810Y-78142982D01*
X210448240Y-78181415D01*
X210438595Y-78207766D01*
X210436548Y-78215454D01*
X210445626Y-78225198D01*
X210474595Y-78241917D01*
X210523783Y-78265768D01*
X210593516Y-78296907D01*
X210684121Y-78335493D01*
X210699911Y-78342090D01*
X210772228Y-78372147D01*
X210837575Y-78399126D01*
X210893094Y-78421864D01*
X210935928Y-78439194D01*
X210963219Y-78449952D01*
X210972058Y-78453059D01*
X210976813Y-78443060D01*
X210982090Y-78416783D01*
X210985769Y-78388511D01*
X210990526Y-78358354D01*
X210999972Y-78310567D01*
X211013180Y-78249388D01*
X211029224Y-78179054D01*
X211047180Y-78103806D01*
X211054203Y-78075245D01*
X211079791Y-77970184D01*
X211099853Y-77882520D01*
X211115031Y-77807932D01*
X211125965Y-77742097D01*
X211133296Y-77680693D01*
X211137665Y-77619398D01*
X211139713Y-77553890D01*
X211140111Y-77495872D01*
X211133448Y-77326426D01*
G36*
X212050929Y-79671571D02*
G01*
X212029755Y-79511430D01*
X211989615Y-79347490D01*
X211930111Y-79177687D01*
X211850846Y-78999957D01*
X211845301Y-78988690D01*
X211817275Y-78930995D01*
X211793198Y-78879448D01*
X211774751Y-78837809D01*
X211763614Y-78809838D01*
X211761067Y-78800267D01*
X211756059Y-78781050D01*
X211751853Y-78776439D01*
X211741420Y-78781542D01*
X211715132Y-78797582D01*
X211675743Y-78822712D01*
X211626009Y-78855086D01*
X211568685Y-78892857D01*
X211506524Y-78934178D01*
X211442282Y-78977202D01*
X211378715Y-79020083D01*
X211318575Y-79060974D01*
X211264620Y-79098029D01*
X211219603Y-79129400D01*
X211186279Y-79153241D01*
X211167403Y-79167706D01*
X211165213Y-79169691D01*
X211169862Y-79179809D01*
X211187038Y-79202150D01*
X211213560Y-79232720D01*
X211228036Y-79248464D01*
X211303318Y-79344953D01*
X211358759Y-79451664D01*
X211393859Y-79567168D01*
X211408120Y-79690038D01*
X211406949Y-79759439D01*
X211389788Y-79880577D01*
X211353906Y-79989795D01*
X211299041Y-80087418D01*
X211224930Y-80173772D01*
X211131312Y-80249185D01*
X211017924Y-80313982D01*
X210931333Y-80351399D01*
X210795634Y-80395252D01*
X210648150Y-80427572D01*
X210492686Y-80448443D01*
X210333044Y-80457949D01*
X210173027Y-80456173D01*
X210016439Y-80443197D01*
X209867082Y-80419106D01*
X209728760Y-80383982D01*
X209605276Y-80337908D01*
X209571022Y-80321627D01*
X209456936Y-80253380D01*
X209360443Y-80172921D01*
X209282330Y-80081430D01*
X209223383Y-79980089D01*
X209184388Y-79870080D01*
X209166132Y-79752585D01*
X209164789Y-79711117D01*
X209175710Y-79589559D01*
X209208526Y-79469122D01*
X209262561Y-79351334D01*
X209337135Y-79237723D01*
X209415461Y-79146315D01*
X209459992Y-79099785D01*
X209162729Y-78918517D01*
X209088567Y-78873420D01*
X209020354Y-78832181D01*
X208960541Y-78796265D01*
X208911580Y-78767134D01*
X208875921Y-78746250D01*
X208856016Y-78735076D01*
X208852921Y-78733625D01*
X208843282Y-78741854D01*
X208826001Y-78767433D01*
X208802717Y-78807127D01*
X208775066Y-78857703D01*
X208744685Y-78915926D01*
X208713210Y-78978563D01*
X208682278Y-79042379D01*
X208653527Y-79104140D01*
X208628592Y-79160612D01*
X208609111Y-79208562D01*
X208600682Y-79232014D01*
X208562867Y-79365779D01*
X208537864Y-79503673D01*
X208524860Y-79651378D01*
X208522532Y-79778167D01*
X208523627Y-79846122D01*
X208525725Y-79911723D01*
X208528566Y-79969153D01*
X208531894Y-80012597D01*
X208533578Y-80026702D01*
X208562413Y-80165716D01*
X208607532Y-80307243D01*
X208666250Y-80444725D01*
X208735880Y-80571606D01*
X208788559Y-80649111D01*
X208896761Y-80776519D01*
X209023329Y-80894822D01*
X209165134Y-81001828D01*
X209319049Y-81095348D01*
X209481947Y-81173190D01*
X209599244Y-81217044D01*
X209782872Y-81267292D01*
X209977419Y-81300791D01*
X210178675Y-81317551D01*
X210382432Y-81317584D01*
X210584479Y-81300899D01*
X210780608Y-81267507D01*
X210966609Y-81217420D01*
X210978197Y-81213603D01*
X211140250Y-81150719D01*
X211288168Y-81073972D01*
X211426135Y-80980758D01*
X211558339Y-80868473D01*
X211603601Y-80824608D01*
X211727543Y-80688466D01*
X211830085Y-80548509D01*
X211912344Y-80402589D01*
X211975436Y-80248558D01*
X212020477Y-80084268D01*
X212037967Y-79988711D01*
X212053534Y-79829977D01*
X212050929Y-79671571D01*
G37*
X212050929Y-79671571D02*
X212029755Y-79511430D01*
X211989615Y-79347490D01*
X211930111Y-79177687D01*
X211850846Y-78999957D01*
X211845301Y-78988690D01*
X211817275Y-78930995D01*
X211793198Y-78879448D01*
X211774751Y-78837809D01*
X211763614Y-78809838D01*
X211761067Y-78800267D01*
X211756059Y-78781050D01*
X211751853Y-78776439D01*
X211741420Y-78781542D01*
X211715132Y-78797582D01*
X211675743Y-78822712D01*
X211626009Y-78855086D01*
X211568685Y-78892857D01*
X211506524Y-78934178D01*
X211442282Y-78977202D01*
X211378715Y-79020083D01*
X211318575Y-79060974D01*
X211264620Y-79098029D01*
X211219603Y-79129400D01*
X211186279Y-79153241D01*
X211167403Y-79167706D01*
X211165213Y-79169691D01*
X211169862Y-79179809D01*
X211187038Y-79202150D01*
X211213560Y-79232720D01*
X211228036Y-79248464D01*
X211303318Y-79344953D01*
X211358759Y-79451664D01*
X211393859Y-79567168D01*
X211408120Y-79690038D01*
X211406949Y-79759439D01*
X211389788Y-79880577D01*
X211353906Y-79989795D01*
X211299041Y-80087418D01*
X211224930Y-80173772D01*
X211131312Y-80249185D01*
X211017924Y-80313982D01*
X210931333Y-80351399D01*
X210795634Y-80395252D01*
X210648150Y-80427572D01*
X210492686Y-80448443D01*
X210333044Y-80457949D01*
X210173027Y-80456173D01*
X210016439Y-80443197D01*
X209867082Y-80419106D01*
X209728760Y-80383982D01*
X209605276Y-80337908D01*
X209571022Y-80321627D01*
X209456936Y-80253380D01*
X209360443Y-80172921D01*
X209282330Y-80081430D01*
X209223383Y-79980089D01*
X209184388Y-79870080D01*
X209166132Y-79752585D01*
X209164789Y-79711117D01*
X209175710Y-79589559D01*
X209208526Y-79469122D01*
X209262561Y-79351334D01*
X209337135Y-79237723D01*
X209415461Y-79146315D01*
X209459992Y-79099785D01*
X209162729Y-78918517D01*
X209088567Y-78873420D01*
X209020354Y-78832181D01*
X208960541Y-78796265D01*
X208911580Y-78767134D01*
X208875921Y-78746250D01*
X208856016Y-78735076D01*
X208852921Y-78733625D01*
X208843282Y-78741854D01*
X208826001Y-78767433D01*
X208802717Y-78807127D01*
X208775066Y-78857703D01*
X208744685Y-78915926D01*
X208713210Y-78978563D01*
X208682278Y-79042379D01*
X208653527Y-79104140D01*
X208628592Y-79160612D01*
X208609111Y-79208562D01*
X208600682Y-79232014D01*
X208562867Y-79365779D01*
X208537864Y-79503673D01*
X208524860Y-79651378D01*
X208522532Y-79778167D01*
X208523627Y-79846122D01*
X208525725Y-79911723D01*
X208528566Y-79969153D01*
X208531894Y-80012597D01*
X208533578Y-80026702D01*
X208562413Y-80165716D01*
X208607532Y-80307243D01*
X208666250Y-80444725D01*
X208735880Y-80571606D01*
X208788559Y-80649111D01*
X208896761Y-80776519D01*
X209023329Y-80894822D01*
X209165134Y-81001828D01*
X209319049Y-81095348D01*
X209481947Y-81173190D01*
X209599244Y-81217044D01*
X209782872Y-81267292D01*
X209977419Y-81300791D01*
X210178675Y-81317551D01*
X210382432Y-81317584D01*
X210584479Y-81300899D01*
X210780608Y-81267507D01*
X210966609Y-81217420D01*
X210978197Y-81213603D01*
X211140250Y-81150719D01*
X211288168Y-81073972D01*
X211426135Y-80980758D01*
X211558339Y-80868473D01*
X211603601Y-80824608D01*
X211727543Y-80688466D01*
X211830085Y-80548509D01*
X211912344Y-80402589D01*
X211975436Y-80248558D01*
X212020477Y-80084268D01*
X212037967Y-79988711D01*
X212053534Y-79829977D01*
X212050929Y-79671571D01*
G36*
X212510946Y-82946400D02*
G01*
X212397007Y-82935535D01*
X212289384Y-82903918D01*
X212190385Y-82853015D01*
X212102316Y-82784293D01*
X212027484Y-82699219D01*
X211969616Y-82602232D01*
X211929995Y-82495964D01*
X211911427Y-82388950D01*
X211912566Y-82283300D01*
X211932070Y-82181125D01*
X211968594Y-82084534D01*
X212020795Y-81995638D01*
X212087327Y-81916546D01*
X212166848Y-81849369D01*
X212258013Y-81796217D01*
X212359477Y-81759199D01*
X212469898Y-81740427D01*
X212519794Y-81738489D01*
X212607733Y-81738489D01*
X212607733Y-81686560D01*
X212604889Y-81650253D01*
X212593089Y-81623355D01*
X212569351Y-81596249D01*
X212530969Y-81557867D01*
X210339398Y-81557867D01*
X210077261Y-81557876D01*
X209836759Y-81557908D01*
X209616952Y-81557972D01*
X209416899Y-81558076D01*
X209235656Y-81558227D01*
X209072284Y-81558434D01*
X208925840Y-81558706D01*
X208795383Y-81559050D01*
X208679971Y-81559474D01*
X208578662Y-81559987D01*
X208490516Y-81560597D01*
X208414590Y-81561312D01*
X208349943Y-81562140D01*
X208295633Y-81563089D01*
X208250720Y-81564167D01*
X208214260Y-81565383D01*
X208185313Y-81566745D01*
X208162937Y-81568261D01*
X208146191Y-81569938D01*
X208134132Y-81571786D01*
X208125820Y-81573813D01*
X208120313Y-81576025D01*
X208118463Y-81577108D01*
X208111451Y-81581271D01*
X208105004Y-81584805D01*
X208099100Y-81588635D01*
X208093714Y-81593682D01*
X208088822Y-81600871D01*
X208084402Y-81611123D01*
X208080428Y-81625364D01*
X208076879Y-81644514D01*
X208073730Y-81669499D01*
X208070958Y-81701240D01*
X208068539Y-81740662D01*
X208066449Y-81788686D01*
X208064665Y-81846237D01*
X208063163Y-81914237D01*
X208061920Y-81993610D01*
X208060911Y-82085279D01*
X208060115Y-82190166D01*
X208059506Y-82309196D01*
X208059061Y-82443290D01*
X208058757Y-82593373D01*
X208058570Y-82760367D01*
X208058476Y-82945196D01*
X208058452Y-83148783D01*
X208058475Y-83372050D01*
X208058520Y-83615922D01*
X208058563Y-83881321D01*
X208058568Y-83919704D01*
X208058611Y-84186682D01*
X208058682Y-84432002D01*
X208058787Y-84656583D01*
X208058934Y-84861345D01*
X208059131Y-85047206D01*
X208059384Y-85215088D01*
X208059700Y-85365908D01*
X208060087Y-85500587D01*
X208060553Y-85620044D01*
X208061103Y-85725199D01*
X208061747Y-85816971D01*
X208062489Y-85896279D01*
X208063339Y-85964043D01*
X208064303Y-86021182D01*
X208065389Y-86068617D01*
X208066603Y-86107266D01*
X208067953Y-86138049D01*
X208069445Y-86161885D01*
X208071089Y-86179694D01*
X208072889Y-86192395D01*
X208074855Y-86200908D01*
X208076523Y-86205266D01*
X208080094Y-86213728D01*
X208082730Y-86221497D01*
X208085366Y-86228602D01*
X208088938Y-86235073D01*
X208094379Y-86240939D01*
X208102625Y-86246229D01*
X208114610Y-86250974D01*
X208131269Y-86255202D01*
X208153537Y-86258943D01*
X208182348Y-86262227D01*
X208218637Y-86265083D01*
X208263339Y-86267540D01*
X208317389Y-86269629D01*
X208381721Y-86271378D01*
X208457270Y-86272817D01*
X208544970Y-86273976D01*
X208645757Y-86274883D01*
X208760566Y-86275569D01*
X208890330Y-86276063D01*
X209035985Y-86276395D01*
X209198465Y-86276593D01*
X209378705Y-86276687D01*
X209577640Y-86276708D01*
X209796204Y-86276685D01*
X210035332Y-86276646D01*
X210295960Y-86276622D01*
X210338111Y-86276622D01*
X210601008Y-86276636D01*
X210842268Y-86276661D01*
X211062835Y-86276671D01*
X211263648Y-86276642D01*
X211445651Y-86276548D01*
X211609784Y-86276362D01*
X211756989Y-86276059D01*
X211888208Y-86275614D01*
X211998133Y-86275034D01*
X211998133Y-85972197D01*
X211940289Y-85932407D01*
X211924521Y-85921236D01*
X211910559Y-85911166D01*
X211897216Y-85902138D01*
X211883307Y-85894097D01*
X211867644Y-85886986D01*
X211849042Y-85880747D01*
X211826314Y-85875325D01*
X211798273Y-85870662D01*
X211763733Y-85866701D01*
X211721508Y-85863385D01*
X211670411Y-85860659D01*
X211609256Y-85858464D01*
X211536856Y-85856745D01*
X211452025Y-85855444D01*
X211353578Y-85854505D01*
X211240326Y-85853870D01*
X211111084Y-85853484D01*
X210964666Y-85853288D01*
X210799884Y-85853227D01*
X210615553Y-85853243D01*
X210410487Y-85853280D01*
X210287867Y-85853289D01*
X210070918Y-85853265D01*
X209875358Y-85853231D01*
X209700001Y-85853243D01*
X209543659Y-85853358D01*
X209405143Y-85853630D01*
X209283266Y-85854118D01*
X209176840Y-85854876D01*
X209084678Y-85855962D01*
X209005591Y-85857431D01*
X208938392Y-85859340D01*
X208881893Y-85861744D01*
X208834907Y-85864701D01*
X208796245Y-85868266D01*
X208764720Y-85872495D01*
X208739145Y-85877446D01*
X208718330Y-85883173D01*
X208701089Y-85889733D01*
X208686235Y-85897183D01*
X208672578Y-85905579D01*
X208658931Y-85914976D01*
X208644107Y-85925432D01*
X208635217Y-85931523D01*
X208577600Y-85970296D01*
X208577600Y-85438732D01*
X208577635Y-85315483D01*
X208577785Y-85212987D01*
X208578122Y-85129420D01*
X208578714Y-85062956D01*
X208579633Y-85011771D01*
X208580949Y-84974041D01*
X208582731Y-84947940D01*
X208585049Y-84931644D01*
X208587974Y-84923328D01*
X208591576Y-84921168D01*
X208595925Y-84923339D01*
X208597355Y-84924535D01*
X208634427Y-84949685D01*
X208687228Y-84975583D01*
X208749230Y-84999192D01*
X208775643Y-85007461D01*
X208793584Y-85012078D01*
X208814645Y-85015979D01*
X208840911Y-85019248D01*
X208874468Y-85021966D01*
X208917401Y-85024215D01*
X208971796Y-85026077D01*
X209039738Y-85027636D01*
X209123312Y-85028972D01*
X209224605Y-85030169D01*
X209345700Y-85031308D01*
X209390400Y-85031685D01*
X209515551Y-85032702D01*
X209619918Y-85033460D01*
X209705293Y-85033903D01*
X209773467Y-85033970D01*
X209826235Y-85033605D01*
X209865386Y-85032748D01*
X209892715Y-85031341D01*
X209910014Y-85029325D01*
X209919074Y-85026643D01*
X209921688Y-85023236D01*
X209919649Y-85019044D01*
X209915333Y-85014571D01*
X209902398Y-85004216D01*
X209873324Y-84982158D01*
X209830241Y-84949957D01*
X209775282Y-84909174D01*
X209710577Y-84861370D01*
X209638258Y-84808105D01*
X209560456Y-84750940D01*
X209479302Y-84691437D01*
X209396928Y-84631155D01*
X209315464Y-84571655D01*
X209237043Y-84514498D01*
X209163796Y-84461245D01*
X209097853Y-84413457D01*
X209041346Y-84372693D01*
X208996407Y-84340516D01*
X208965166Y-84318485D01*
X208958534Y-84313917D01*
X208921631Y-84290996D01*
X208873641Y-84264188D01*
X208824103Y-84238789D01*
X208817423Y-84235568D01*
X208769228Y-84213890D01*
X208731666Y-84201304D01*
X208695840Y-84195574D01*
X208653800Y-84194456D01*
X208577600Y-84195090D01*
X208577600Y-83040651D01*
X208671331Y-83131815D01*
X208721225Y-83178612D01*
X208777705Y-83228899D01*
X208831974Y-83274944D01*
X208857327Y-83295369D01*
X208896872Y-83325807D01*
X208950084Y-83365862D01*
X209015333Y-83414361D01*
X209090989Y-83470135D01*
X209175423Y-83532011D01*
X209267006Y-83598819D01*
X209364108Y-83669387D01*
X209465099Y-83742545D01*
X209568350Y-83817121D01*
X209672232Y-83891944D01*
X209775115Y-83965843D01*
X209875369Y-84037646D01*
X209971364Y-84106184D01*
X210061473Y-84170284D01*
X210144064Y-84228775D01*
X210217508Y-84280486D01*
X210280176Y-84324247D01*
X210330439Y-84358885D01*
X210366666Y-84383230D01*
X210387229Y-84396111D01*
X210391332Y-84397869D01*
X210402658Y-84389910D01*
X210429838Y-84369115D01*
X210471171Y-84336847D01*
X210524956Y-84294470D01*
X210589494Y-84243347D01*
X210663082Y-84184841D01*
X210744022Y-84120314D01*
X210830612Y-84051131D01*
X210921152Y-83978653D01*
X211013940Y-83904246D01*
X211088298Y-83844517D01*
X211088298Y-82833511D01*
X211075341Y-82827602D01*
X211053092Y-82813272D01*
X211051609Y-82812225D01*
X211021456Y-82793438D01*
X210984625Y-82773791D01*
X210976489Y-82769892D01*
X210968060Y-82766356D01*
X210957941Y-82763230D01*
X210944740Y-82760486D01*
X210927062Y-82758092D01*
X210903516Y-82756019D01*
X210872707Y-82754235D01*
X210833243Y-82752712D01*
X210783731Y-82751419D01*
X210722777Y-82750326D01*
X210648989Y-82749403D01*
X210560972Y-82748619D01*
X210457335Y-82747945D01*
X210336684Y-82747350D01*
X210197626Y-82746805D01*
X210038768Y-82746279D01*
X209859911Y-82745745D01*
X209674793Y-82745206D01*
X209510855Y-82744772D01*
X209366697Y-82744509D01*
X209240921Y-82744484D01*
X209132129Y-82744765D01*
X209038923Y-82745419D01*
X208959903Y-82746514D01*
X208893672Y-82748118D01*
X208838830Y-82750297D01*
X208793979Y-82753119D01*
X208757722Y-82756651D01*
X208728659Y-82760961D01*
X208705391Y-82766117D01*
X208686521Y-82772185D01*
X208670649Y-82779233D01*
X208656378Y-82787329D01*
X208642309Y-82796540D01*
X208629842Y-82805040D01*
X208603548Y-82822176D01*
X208585963Y-82832322D01*
X208582743Y-82833511D01*
X208581666Y-82822604D01*
X208580665Y-82791411D01*
X208579765Y-82742223D01*
X208578990Y-82677333D01*
X208578363Y-82599030D01*
X208577909Y-82509607D01*
X208577651Y-82411356D01*
X208577600Y-82342445D01*
X208577820Y-82237452D01*
X208578452Y-82140610D01*
X208579451Y-82054107D01*
X208580773Y-81980132D01*
X208582374Y-81920874D01*
X208584209Y-81878520D01*
X208586235Y-81855260D01*
X208587507Y-81851378D01*
X208602409Y-81859076D01*
X208610440Y-81867074D01*
X208627566Y-81880246D01*
X208657817Y-81897485D01*
X208682378Y-81909407D01*
X208741289Y-81936045D01*
X209918155Y-81939120D01*
X211095022Y-81942195D01*
X211095022Y-82387853D01*
X211094858Y-82485670D01*
X211094389Y-82576064D01*
X211093653Y-82656630D01*
X211092684Y-82724962D01*
X211091520Y-82778656D01*
X211090197Y-82815305D01*
X211088751Y-82832504D01*
X211088298Y-82833511D01*
X211088298Y-83844517D01*
X211107278Y-83829270D01*
X211199463Y-83755090D01*
X211288796Y-83683069D01*
X211373576Y-83614569D01*
X211452102Y-83550955D01*
X211522674Y-83493588D01*
X211583591Y-83443833D01*
X211633153Y-83403052D01*
X211653822Y-83385888D01*
X211754484Y-83299596D01*
X211837741Y-83222997D01*
X211905562Y-83154183D01*
X211959911Y-83091248D01*
X211967278Y-83081867D01*
X211997883Y-83042356D01*
X211998133Y-84174116D01*
X211950156Y-84168827D01*
X211892812Y-84172130D01*
X211824537Y-84193661D01*
X211744788Y-84233635D01*
X211672505Y-84278943D01*
X211649860Y-84295161D01*
X211612304Y-84323214D01*
X211561979Y-84361430D01*
X211501027Y-84408137D01*
X211431589Y-84461661D01*
X211355806Y-84520331D01*
X211275820Y-84582475D01*
X211193772Y-84646421D01*
X211111804Y-84710495D01*
X211032057Y-84773027D01*
X210956673Y-84832343D01*
X210887793Y-84886771D01*
X210827558Y-84934639D01*
X210778111Y-84974275D01*
X210741592Y-85004006D01*
X210720142Y-85022161D01*
X210716844Y-85025220D01*
X210724851Y-85028079D01*
X210755145Y-85030293D01*
X210807444Y-85031857D01*
X210881469Y-85032767D01*
X210976937Y-85033020D01*
X211093566Y-85032613D01*
X211213555Y-85031704D01*
X211345667Y-85030382D01*
X211457406Y-85028857D01*
X211550975Y-85026881D01*
X211628581Y-85024206D01*
X211692426Y-85020582D01*
X211744717Y-85015761D01*
X211787656Y-85009494D01*
X211823449Y-85001532D01*
X211854300Y-84991627D01*
X211882414Y-84979531D01*
X211909995Y-84964993D01*
X211935034Y-84950311D01*
X211998133Y-84912314D01*
X211998133Y-85972197D01*
X211998133Y-86275034D01*
X212004383Y-86275001D01*
X212106456Y-86274195D01*
X212195367Y-86273170D01*
X212272059Y-86271900D01*
X212337473Y-86270360D01*
X212392551Y-86268524D01*
X212438235Y-86266367D01*
X212475466Y-86263863D01*
X212505187Y-86260987D01*
X212528338Y-86257713D01*
X212545861Y-86254015D01*
X212558699Y-86249869D01*
X212567792Y-86245247D01*
X212574082Y-86240126D01*
X212578512Y-86234478D01*
X212582022Y-86228279D01*
X212585555Y-86221504D01*
X212589124Y-86215508D01*
X212591700Y-86210275D01*
X212594028Y-86202099D01*
X212596122Y-86189886D01*
X212597993Y-86172541D01*
X212599653Y-86148969D01*
X212601116Y-86118077D01*
X212602392Y-86078768D01*
X212603496Y-86029950D01*
X212604439Y-85970527D01*
X212605233Y-85899404D01*
X212605891Y-85815488D01*
X212606425Y-85717683D01*
X212606847Y-85604894D01*
X212607171Y-85476029D01*
X212607408Y-85329991D01*
X212607570Y-85165686D01*
X212607670Y-84982020D01*
X212607720Y-84777897D01*
X212607733Y-84566753D01*
X212607733Y-82946400D01*
X212510946Y-82946400D01*
G37*
X212510946Y-82946400D02*
X212397007Y-82935535D01*
X212289384Y-82903918D01*
X212190385Y-82853015D01*
X212102316Y-82784293D01*
X212027484Y-82699219D01*
X211969616Y-82602232D01*
X211929995Y-82495964D01*
X211911427Y-82388950D01*
X211912566Y-82283300D01*
X211932070Y-82181125D01*
X211968594Y-82084534D01*
X212020795Y-81995638D01*
X212087327Y-81916546D01*
X212166848Y-81849369D01*
X212258013Y-81796217D01*
X212359477Y-81759199D01*
X212469898Y-81740427D01*
X212519794Y-81738489D01*
X212607733Y-81738489D01*
X212607733Y-81686560D01*
X212604889Y-81650253D01*
X212593089Y-81623355D01*
X212569351Y-81596249D01*
X212530969Y-81557867D01*
X210339398Y-81557867D01*
X210077261Y-81557876D01*
X209836759Y-81557908D01*
X209616952Y-81557972D01*
X209416899Y-81558076D01*
X209235656Y-81558227D01*
X209072284Y-81558434D01*
X208925840Y-81558706D01*
X208795383Y-81559050D01*
X208679971Y-81559474D01*
X208578662Y-81559987D01*
X208490516Y-81560597D01*
X208414590Y-81561312D01*
X208349943Y-81562140D01*
X208295633Y-81563089D01*
X208250720Y-81564167D01*
X208214260Y-81565383D01*
X208185313Y-81566745D01*
X208162937Y-81568261D01*
X208146191Y-81569938D01*
X208134132Y-81571786D01*
X208125820Y-81573813D01*
X208120313Y-81576025D01*
X208118463Y-81577108D01*
X208111451Y-81581271D01*
X208105004Y-81584805D01*
X208099100Y-81588635D01*
X208093714Y-81593682D01*
X208088822Y-81600871D01*
X208084402Y-81611123D01*
X208080428Y-81625364D01*
X208076879Y-81644514D01*
X208073730Y-81669499D01*
X208070958Y-81701240D01*
X208068539Y-81740662D01*
X208066449Y-81788686D01*
X208064665Y-81846237D01*
X208063163Y-81914237D01*
X208061920Y-81993610D01*
X208060911Y-82085279D01*
X208060115Y-82190166D01*
X208059506Y-82309196D01*
X208059061Y-82443290D01*
X208058757Y-82593373D01*
X208058570Y-82760367D01*
X208058476Y-82945196D01*
X208058452Y-83148783D01*
X208058475Y-83372050D01*
X208058520Y-83615922D01*
X208058563Y-83881321D01*
X208058568Y-83919704D01*
X208058611Y-84186682D01*
X208058682Y-84432002D01*
X208058787Y-84656583D01*
X208058934Y-84861345D01*
X208059131Y-85047206D01*
X208059384Y-85215088D01*
X208059700Y-85365908D01*
X208060087Y-85500587D01*
X208060553Y-85620044D01*
X208061103Y-85725199D01*
X208061747Y-85816971D01*
X208062489Y-85896279D01*
X208063339Y-85964043D01*
X208064303Y-86021182D01*
X208065389Y-86068617D01*
X208066603Y-86107266D01*
X208067953Y-86138049D01*
X208069445Y-86161885D01*
X208071089Y-86179694D01*
X208072889Y-86192395D01*
X208074855Y-86200908D01*
X208076523Y-86205266D01*
X208080094Y-86213728D01*
X208082730Y-86221497D01*
X208085366Y-86228602D01*
X208088938Y-86235073D01*
X208094379Y-86240939D01*
X208102625Y-86246229D01*
X208114610Y-86250974D01*
X208131269Y-86255202D01*
X208153537Y-86258943D01*
X208182348Y-86262227D01*
X208218637Y-86265083D01*
X208263339Y-86267540D01*
X208317389Y-86269629D01*
X208381721Y-86271378D01*
X208457270Y-86272817D01*
X208544970Y-86273976D01*
X208645757Y-86274883D01*
X208760566Y-86275569D01*
X208890330Y-86276063D01*
X209035985Y-86276395D01*
X209198465Y-86276593D01*
X209378705Y-86276687D01*
X209577640Y-86276708D01*
X209796204Y-86276685D01*
X210035332Y-86276646D01*
X210295960Y-86276622D01*
X210338111Y-86276622D01*
X210601008Y-86276636D01*
X210842268Y-86276661D01*
X211062835Y-86276671D01*
X211263648Y-86276642D01*
X211445651Y-86276548D01*
X211609784Y-86276362D01*
X211756989Y-86276059D01*
X211888208Y-86275614D01*
X211998133Y-86275034D01*
X211998133Y-85972197D01*
X211940289Y-85932407D01*
X211924521Y-85921236D01*
X211910559Y-85911166D01*
X211897216Y-85902138D01*
X211883307Y-85894097D01*
X211867644Y-85886986D01*
X211849042Y-85880747D01*
X211826314Y-85875325D01*
X211798273Y-85870662D01*
X211763733Y-85866701D01*
X211721508Y-85863385D01*
X211670411Y-85860659D01*
X211609256Y-85858464D01*
X211536856Y-85856745D01*
X211452025Y-85855444D01*
X211353578Y-85854505D01*
X211240326Y-85853870D01*
X211111084Y-85853484D01*
X210964666Y-85853288D01*
X210799884Y-85853227D01*
X210615553Y-85853243D01*
X210410487Y-85853280D01*
X210287867Y-85853289D01*
X210070918Y-85853265D01*
X209875358Y-85853231D01*
X209700001Y-85853243D01*
X209543659Y-85853358D01*
X209405143Y-85853630D01*
X209283266Y-85854118D01*
X209176840Y-85854876D01*
X209084678Y-85855962D01*
X209005591Y-85857431D01*
X208938392Y-85859340D01*
X208881893Y-85861744D01*
X208834907Y-85864701D01*
X208796245Y-85868266D01*
X208764720Y-85872495D01*
X208739145Y-85877446D01*
X208718330Y-85883173D01*
X208701089Y-85889733D01*
X208686235Y-85897183D01*
X208672578Y-85905579D01*
X208658931Y-85914976D01*
X208644107Y-85925432D01*
X208635217Y-85931523D01*
X208577600Y-85970296D01*
X208577600Y-85438732D01*
X208577635Y-85315483D01*
X208577785Y-85212987D01*
X208578122Y-85129420D01*
X208578714Y-85062956D01*
X208579633Y-85011771D01*
X208580949Y-84974041D01*
X208582731Y-84947940D01*
X208585049Y-84931644D01*
X208587974Y-84923328D01*
X208591576Y-84921168D01*
X208595925Y-84923339D01*
X208597355Y-84924535D01*
X208634427Y-84949685D01*
X208687228Y-84975583D01*
X208749230Y-84999192D01*
X208775643Y-85007461D01*
X208793584Y-85012078D01*
X208814645Y-85015979D01*
X208840911Y-85019248D01*
X208874468Y-85021966D01*
X208917401Y-85024215D01*
X208971796Y-85026077D01*
X209039738Y-85027636D01*
X209123312Y-85028972D01*
X209224605Y-85030169D01*
X209345700Y-85031308D01*
X209390400Y-85031685D01*
X209515551Y-85032702D01*
X209619918Y-85033460D01*
X209705293Y-85033903D01*
X209773467Y-85033970D01*
X209826235Y-85033605D01*
X209865386Y-85032748D01*
X209892715Y-85031341D01*
X209910014Y-85029325D01*
X209919074Y-85026643D01*
X209921688Y-85023236D01*
X209919649Y-85019044D01*
X209915333Y-85014571D01*
X209902398Y-85004216D01*
X209873324Y-84982158D01*
X209830241Y-84949957D01*
X209775282Y-84909174D01*
X209710577Y-84861370D01*
X209638258Y-84808105D01*
X209560456Y-84750940D01*
X209479302Y-84691437D01*
X209396928Y-84631155D01*
X209315464Y-84571655D01*
X209237043Y-84514498D01*
X209163796Y-84461245D01*
X209097853Y-84413457D01*
X209041346Y-84372693D01*
X208996407Y-84340516D01*
X208965166Y-84318485D01*
X208958534Y-84313917D01*
X208921631Y-84290996D01*
X208873641Y-84264188D01*
X208824103Y-84238789D01*
X208817423Y-84235568D01*
X208769228Y-84213890D01*
X208731666Y-84201304D01*
X208695840Y-84195574D01*
X208653800Y-84194456D01*
X208577600Y-84195090D01*
X208577600Y-83040651D01*
X208671331Y-83131815D01*
X208721225Y-83178612D01*
X208777705Y-83228899D01*
X208831974Y-83274944D01*
X208857327Y-83295369D01*
X208896872Y-83325807D01*
X208950084Y-83365862D01*
X209015333Y-83414361D01*
X209090989Y-83470135D01*
X209175423Y-83532011D01*
X209267006Y-83598819D01*
X209364108Y-83669387D01*
X209465099Y-83742545D01*
X209568350Y-83817121D01*
X209672232Y-83891944D01*
X209775115Y-83965843D01*
X209875369Y-84037646D01*
X209971364Y-84106184D01*
X210061473Y-84170284D01*
X210144064Y-84228775D01*
X210217508Y-84280486D01*
X210280176Y-84324247D01*
X210330439Y-84358885D01*
X210366666Y-84383230D01*
X210387229Y-84396111D01*
X210391332Y-84397869D01*
X210402658Y-84389910D01*
X210429838Y-84369115D01*
X210471171Y-84336847D01*
X210524956Y-84294470D01*
X210589494Y-84243347D01*
X210663082Y-84184841D01*
X210744022Y-84120314D01*
X210830612Y-84051131D01*
X210921152Y-83978653D01*
X211013940Y-83904246D01*
X211088298Y-83844517D01*
X211088298Y-82833511D01*
X211075341Y-82827602D01*
X211053092Y-82813272D01*
X211051609Y-82812225D01*
X211021456Y-82793438D01*
X210984625Y-82773791D01*
X210976489Y-82769892D01*
X210968060Y-82766356D01*
X210957941Y-82763230D01*
X210944740Y-82760486D01*
X210927062Y-82758092D01*
X210903516Y-82756019D01*
X210872707Y-82754235D01*
X210833243Y-82752712D01*
X210783731Y-82751419D01*
X210722777Y-82750326D01*
X210648989Y-82749403D01*
X210560972Y-82748619D01*
X210457335Y-82747945D01*
X210336684Y-82747350D01*
X210197626Y-82746805D01*
X210038768Y-82746279D01*
X209859911Y-82745745D01*
X209674793Y-82745206D01*
X209510855Y-82744772D01*
X209366697Y-82744509D01*
X209240921Y-82744484D01*
X209132129Y-82744765D01*
X209038923Y-82745419D01*
X208959903Y-82746514D01*
X208893672Y-82748118D01*
X208838830Y-82750297D01*
X208793979Y-82753119D01*
X208757722Y-82756651D01*
X208728659Y-82760961D01*
X208705391Y-82766117D01*
X208686521Y-82772185D01*
X208670649Y-82779233D01*
X208656378Y-82787329D01*
X208642309Y-82796540D01*
X208629842Y-82805040D01*
X208603548Y-82822176D01*
X208585963Y-82832322D01*
X208582743Y-82833511D01*
X208581666Y-82822604D01*
X208580665Y-82791411D01*
X208579765Y-82742223D01*
X208578990Y-82677333D01*
X208578363Y-82599030D01*
X208577909Y-82509607D01*
X208577651Y-82411356D01*
X208577600Y-82342445D01*
X208577820Y-82237452D01*
X208578452Y-82140610D01*
X208579451Y-82054107D01*
X208580773Y-81980132D01*
X208582374Y-81920874D01*
X208584209Y-81878520D01*
X208586235Y-81855260D01*
X208587507Y-81851378D01*
X208602409Y-81859076D01*
X208610440Y-81867074D01*
X208627566Y-81880246D01*
X208657817Y-81897485D01*
X208682378Y-81909407D01*
X208741289Y-81936045D01*
X209918155Y-81939120D01*
X211095022Y-81942195D01*
X211095022Y-82387853D01*
X211094858Y-82485670D01*
X211094389Y-82576064D01*
X211093653Y-82656630D01*
X211092684Y-82724962D01*
X211091520Y-82778656D01*
X211090197Y-82815305D01*
X211088751Y-82832504D01*
X211088298Y-82833511D01*
X211088298Y-83844517D01*
X211107278Y-83829270D01*
X211199463Y-83755090D01*
X211288796Y-83683069D01*
X211373576Y-83614569D01*
X211452102Y-83550955D01*
X211522674Y-83493588D01*
X211583591Y-83443833D01*
X211633153Y-83403052D01*
X211653822Y-83385888D01*
X211754484Y-83299596D01*
X211837741Y-83222997D01*
X211905562Y-83154183D01*
X211959911Y-83091248D01*
X211967278Y-83081867D01*
X211997883Y-83042356D01*
X211998133Y-84174116D01*
X211950156Y-84168827D01*
X211892812Y-84172130D01*
X211824537Y-84193661D01*
X211744788Y-84233635D01*
X211672505Y-84278943D01*
X211649860Y-84295161D01*
X211612304Y-84323214D01*
X211561979Y-84361430D01*
X211501027Y-84408137D01*
X211431589Y-84461661D01*
X211355806Y-84520331D01*
X211275820Y-84582475D01*
X211193772Y-84646421D01*
X211111804Y-84710495D01*
X211032057Y-84773027D01*
X210956673Y-84832343D01*
X210887793Y-84886771D01*
X210827558Y-84934639D01*
X210778111Y-84974275D01*
X210741592Y-85004006D01*
X210720142Y-85022161D01*
X210716844Y-85025220D01*
X210724851Y-85028079D01*
X210755145Y-85030293D01*
X210807444Y-85031857D01*
X210881469Y-85032767D01*
X210976937Y-85033020D01*
X211093566Y-85032613D01*
X211213555Y-85031704D01*
X211345667Y-85030382D01*
X211457406Y-85028857D01*
X211550975Y-85026881D01*
X211628581Y-85024206D01*
X211692426Y-85020582D01*
X211744717Y-85015761D01*
X211787656Y-85009494D01*
X211823449Y-85001532D01*
X211854300Y-84991627D01*
X211882414Y-84979531D01*
X211909995Y-84964993D01*
X211935034Y-84950311D01*
X211998133Y-84912314D01*
X211998133Y-85972197D01*
X211998133Y-86275034D01*
X212004383Y-86275001D01*
X212106456Y-86274195D01*
X212195367Y-86273170D01*
X212272059Y-86271900D01*
X212337473Y-86270360D01*
X212392551Y-86268524D01*
X212438235Y-86266367D01*
X212475466Y-86263863D01*
X212505187Y-86260987D01*
X212528338Y-86257713D01*
X212545861Y-86254015D01*
X212558699Y-86249869D01*
X212567792Y-86245247D01*
X212574082Y-86240126D01*
X212578512Y-86234478D01*
X212582022Y-86228279D01*
X212585555Y-86221504D01*
X212589124Y-86215508D01*
X212591700Y-86210275D01*
X212594028Y-86202099D01*
X212596122Y-86189886D01*
X212597993Y-86172541D01*
X212599653Y-86148969D01*
X212601116Y-86118077D01*
X212602392Y-86078768D01*
X212603496Y-86029950D01*
X212604439Y-85970527D01*
X212605233Y-85899404D01*
X212605891Y-85815488D01*
X212606425Y-85717683D01*
X212606847Y-85604894D01*
X212607171Y-85476029D01*
X212607408Y-85329991D01*
X212607570Y-85165686D01*
X212607670Y-84982020D01*
X212607720Y-84777897D01*
X212607733Y-84566753D01*
X212607733Y-82946400D01*
X212510946Y-82946400D01*
D11*
X211355000Y-70111252D02*
X211355000Y-69588748D01*
X212825000Y-70111252D02*
X212825000Y-69588748D01*
X211355000Y-64508748D02*
X211355000Y-65031252D01*
X212825000Y-64508748D02*
X212825000Y-65031252D01*
X246221248Y-91775000D02*
X246743752Y-91775000D01*
X246221248Y-90305000D02*
X246743752Y-90305000D01*
X262266248Y-92845000D02*
X262788752Y-92845000D01*
X262266248Y-94315000D02*
X262788752Y-94315000D01*
X245988748Y-67445000D02*
X246511252Y-67445000D01*
X245988748Y-68915000D02*
X246511252Y-68915000D01*
X262498748Y-71455000D02*
X263021252Y-71455000D01*
X262498748Y-69985000D02*
X263021252Y-69985000D01*
X196261252Y-113735000D02*
X195738748Y-113735000D01*
X196261252Y-112265000D02*
X195738748Y-112265000D01*
X199265000Y-107738748D02*
X199265000Y-108261252D01*
X200735000Y-107738748D02*
X200735000Y-108261252D01*
X200735000Y-102738748D02*
X200735000Y-103261252D01*
X199265000Y-102738748D02*
X199265000Y-103261252D01*
X200776248Y-99795000D02*
X201298752Y-99795000D01*
X200776248Y-98325000D02*
X201298752Y-98325000D01*
X200738748Y-97255000D02*
X201261252Y-97255000D01*
X200738748Y-95785000D02*
X201261252Y-95785000D01*
X172077500Y-87454724D02*
X172077500Y-86945276D01*
X173122500Y-87454724D02*
X173122500Y-86945276D01*
X167477500Y-97254724D02*
X167477500Y-96745276D01*
X168522500Y-97254724D02*
X168522500Y-96745276D01*
X164522500Y-77254724D02*
X164522500Y-76745276D01*
X163477500Y-77254724D02*
X163477500Y-76745276D01*
D12*
X214127142Y-69683333D02*
X214174761Y-69635714D01*
X214222380Y-69492857D01*
X214222380Y-69397619D01*
X214174761Y-69254761D01*
X214079523Y-69159523D01*
X213984285Y-69111904D01*
X213793809Y-69064285D01*
X213650952Y-69064285D01*
X213460476Y-69111904D01*
X213365238Y-69159523D01*
X213270000Y-69254761D01*
X213222380Y-69397619D01*
X213222380Y-69492857D01*
X213270000Y-69635714D01*
X213317619Y-69683333D01*
X213555714Y-70540476D02*
X214222380Y-70540476D01*
X213174761Y-70302380D02*
X213889047Y-70064285D01*
X213889047Y-70683333D01*
X210767142Y-64603333D02*
X210814761Y-64555714D01*
X210862380Y-64412857D01*
X210862380Y-64317619D01*
X210814761Y-64174761D01*
X210719523Y-64079523D01*
X210624285Y-64031904D01*
X210433809Y-63984285D01*
X210290952Y-63984285D01*
X210100476Y-64031904D01*
X210005238Y-64079523D01*
X209910000Y-64174761D01*
X209862380Y-64317619D01*
X209862380Y-64412857D01*
X209910000Y-64555714D01*
X209957619Y-64603333D01*
X209862380Y-65508095D02*
X209862380Y-65031904D01*
X210338571Y-64984285D01*
X210290952Y-65031904D01*
X210243333Y-65127142D01*
X210243333Y-65365238D01*
X210290952Y-65460476D01*
X210338571Y-65508095D01*
X210433809Y-65555714D01*
X210671904Y-65555714D01*
X210767142Y-65508095D01*
X210814761Y-65460476D01*
X210862380Y-65365238D01*
X210862380Y-65127142D01*
X210814761Y-65031904D01*
X210767142Y-64984285D01*
X248077738Y-93077142D02*
X248125357Y-93124761D01*
X248268214Y-93172380D01*
X248363452Y-93172380D01*
X248506309Y-93124761D01*
X248601547Y-93029523D01*
X248649166Y-92934285D01*
X248696785Y-92743809D01*
X248696785Y-92600952D01*
X248649166Y-92410476D01*
X248601547Y-92315238D01*
X248506309Y-92220000D01*
X248363452Y-92172380D01*
X248268214Y-92172380D01*
X248125357Y-92220000D01*
X248077738Y-92267619D01*
X247125357Y-93172380D02*
X247696785Y-93172380D01*
X247411071Y-93172380D02*
X247411071Y-92172380D01*
X247506309Y-92315238D01*
X247601547Y-92410476D01*
X247696785Y-92458095D01*
X246506309Y-92172380D02*
X246411071Y-92172380D01*
X246315833Y-92220000D01*
X246268214Y-92267619D01*
X246220595Y-92362857D01*
X246172976Y-92553333D01*
X246172976Y-92791428D01*
X246220595Y-92981904D01*
X246268214Y-93077142D01*
X246315833Y-93124761D01*
X246411071Y-93172380D01*
X246506309Y-93172380D01*
X246601547Y-93124761D01*
X246649166Y-93077142D01*
X246696785Y-92981904D01*
X246744404Y-92791428D01*
X246744404Y-92553333D01*
X246696785Y-92362857D01*
X246649166Y-92267619D01*
X246601547Y-92220000D01*
X246506309Y-92172380D01*
X245553928Y-92172380D02*
X245458690Y-92172380D01*
X245363452Y-92220000D01*
X245315833Y-92267619D01*
X245268214Y-92362857D01*
X245220595Y-92553333D01*
X245220595Y-92791428D01*
X245268214Y-92981904D01*
X245315833Y-93077142D01*
X245363452Y-93124761D01*
X245458690Y-93172380D01*
X245553928Y-93172380D01*
X245649166Y-93124761D01*
X245696785Y-93077142D01*
X245744404Y-92981904D01*
X245792023Y-92791428D01*
X245792023Y-92553333D01*
X245744404Y-92362857D01*
X245696785Y-92267619D01*
X245649166Y-92220000D01*
X245553928Y-92172380D01*
X244887261Y-92172380D02*
X244268214Y-92172380D01*
X244601547Y-92553333D01*
X244458690Y-92553333D01*
X244363452Y-92600952D01*
X244315833Y-92648571D01*
X244268214Y-92743809D01*
X244268214Y-92981904D01*
X244315833Y-93077142D01*
X244363452Y-93124761D01*
X244458690Y-93172380D01*
X244744404Y-93172380D01*
X244839642Y-93124761D01*
X244887261Y-93077142D01*
X264122738Y-95617142D02*
X264170357Y-95664761D01*
X264313214Y-95712380D01*
X264408452Y-95712380D01*
X264551309Y-95664761D01*
X264646547Y-95569523D01*
X264694166Y-95474285D01*
X264741785Y-95283809D01*
X264741785Y-95140952D01*
X264694166Y-94950476D01*
X264646547Y-94855238D01*
X264551309Y-94760000D01*
X264408452Y-94712380D01*
X264313214Y-94712380D01*
X264170357Y-94760000D01*
X264122738Y-94807619D01*
X263170357Y-95712380D02*
X263741785Y-95712380D01*
X263456071Y-95712380D02*
X263456071Y-94712380D01*
X263551309Y-94855238D01*
X263646547Y-94950476D01*
X263741785Y-94998095D01*
X262551309Y-94712380D02*
X262456071Y-94712380D01*
X262360833Y-94760000D01*
X262313214Y-94807619D01*
X262265595Y-94902857D01*
X262217976Y-95093333D01*
X262217976Y-95331428D01*
X262265595Y-95521904D01*
X262313214Y-95617142D01*
X262360833Y-95664761D01*
X262456071Y-95712380D01*
X262551309Y-95712380D01*
X262646547Y-95664761D01*
X262694166Y-95617142D01*
X262741785Y-95521904D01*
X262789404Y-95331428D01*
X262789404Y-95093333D01*
X262741785Y-94902857D01*
X262694166Y-94807619D01*
X262646547Y-94760000D01*
X262551309Y-94712380D01*
X261598928Y-94712380D02*
X261503690Y-94712380D01*
X261408452Y-94760000D01*
X261360833Y-94807619D01*
X261313214Y-94902857D01*
X261265595Y-95093333D01*
X261265595Y-95331428D01*
X261313214Y-95521904D01*
X261360833Y-95617142D01*
X261408452Y-95664761D01*
X261503690Y-95712380D01*
X261598928Y-95712380D01*
X261694166Y-95664761D01*
X261741785Y-95617142D01*
X261789404Y-95521904D01*
X261837023Y-95331428D01*
X261837023Y-95093333D01*
X261789404Y-94902857D01*
X261741785Y-94807619D01*
X261694166Y-94760000D01*
X261598928Y-94712380D01*
X260408452Y-95045714D02*
X260408452Y-95712380D01*
X260646547Y-94664761D02*
X260884642Y-95379047D01*
X260265595Y-95379047D01*
X247845238Y-70217142D02*
X247892857Y-70264761D01*
X248035714Y-70312380D01*
X248130952Y-70312380D01*
X248273809Y-70264761D01*
X248369047Y-70169523D01*
X248416666Y-70074285D01*
X248464285Y-69883809D01*
X248464285Y-69740952D01*
X248416666Y-69550476D01*
X248369047Y-69455238D01*
X248273809Y-69360000D01*
X248130952Y-69312380D01*
X248035714Y-69312380D01*
X247892857Y-69360000D01*
X247845238Y-69407619D01*
X246892857Y-70312380D02*
X247464285Y-70312380D01*
X247178571Y-70312380D02*
X247178571Y-69312380D01*
X247273809Y-69455238D01*
X247369047Y-69550476D01*
X247464285Y-69598095D01*
X246273809Y-69312380D02*
X246178571Y-69312380D01*
X246083333Y-69360000D01*
X246035714Y-69407619D01*
X245988095Y-69502857D01*
X245940476Y-69693333D01*
X245940476Y-69931428D01*
X245988095Y-70121904D01*
X246035714Y-70217142D01*
X246083333Y-70264761D01*
X246178571Y-70312380D01*
X246273809Y-70312380D01*
X246369047Y-70264761D01*
X246416666Y-70217142D01*
X246464285Y-70121904D01*
X246511904Y-69931428D01*
X246511904Y-69693333D01*
X246464285Y-69502857D01*
X246416666Y-69407619D01*
X246369047Y-69360000D01*
X246273809Y-69312380D01*
X245321428Y-69312380D02*
X245226190Y-69312380D01*
X245130952Y-69360000D01*
X245083333Y-69407619D01*
X245035714Y-69502857D01*
X244988095Y-69693333D01*
X244988095Y-69931428D01*
X245035714Y-70121904D01*
X245083333Y-70217142D01*
X245130952Y-70264761D01*
X245226190Y-70312380D01*
X245321428Y-70312380D01*
X245416666Y-70264761D01*
X245464285Y-70217142D01*
X245511904Y-70121904D01*
X245559523Y-69931428D01*
X245559523Y-69693333D01*
X245511904Y-69502857D01*
X245464285Y-69407619D01*
X245416666Y-69360000D01*
X245321428Y-69312380D01*
X244654761Y-69312380D02*
X243988095Y-69312380D01*
X244416666Y-70312380D01*
X264355238Y-72757142D02*
X264402857Y-72804761D01*
X264545714Y-72852380D01*
X264640952Y-72852380D01*
X264783809Y-72804761D01*
X264879047Y-72709523D01*
X264926666Y-72614285D01*
X264974285Y-72423809D01*
X264974285Y-72280952D01*
X264926666Y-72090476D01*
X264879047Y-71995238D01*
X264783809Y-71900000D01*
X264640952Y-71852380D01*
X264545714Y-71852380D01*
X264402857Y-71900000D01*
X264355238Y-71947619D01*
X263402857Y-72852380D02*
X263974285Y-72852380D01*
X263688571Y-72852380D02*
X263688571Y-71852380D01*
X263783809Y-71995238D01*
X263879047Y-72090476D01*
X263974285Y-72138095D01*
X262783809Y-71852380D02*
X262688571Y-71852380D01*
X262593333Y-71900000D01*
X262545714Y-71947619D01*
X262498095Y-72042857D01*
X262450476Y-72233333D01*
X262450476Y-72471428D01*
X262498095Y-72661904D01*
X262545714Y-72757142D01*
X262593333Y-72804761D01*
X262688571Y-72852380D01*
X262783809Y-72852380D01*
X262879047Y-72804761D01*
X262926666Y-72757142D01*
X262974285Y-72661904D01*
X263021904Y-72471428D01*
X263021904Y-72233333D01*
X262974285Y-72042857D01*
X262926666Y-71947619D01*
X262879047Y-71900000D01*
X262783809Y-71852380D01*
X261831428Y-71852380D02*
X261736190Y-71852380D01*
X261640952Y-71900000D01*
X261593333Y-71947619D01*
X261545714Y-72042857D01*
X261498095Y-72233333D01*
X261498095Y-72471428D01*
X261545714Y-72661904D01*
X261593333Y-72757142D01*
X261640952Y-72804761D01*
X261736190Y-72852380D01*
X261831428Y-72852380D01*
X261926666Y-72804761D01*
X261974285Y-72757142D01*
X262021904Y-72661904D01*
X262069523Y-72471428D01*
X262069523Y-72233333D01*
X262021904Y-72042857D01*
X261974285Y-71947619D01*
X261926666Y-71900000D01*
X261831428Y-71852380D01*
X260926666Y-72280952D02*
X261021904Y-72233333D01*
X261069523Y-72185714D01*
X261117142Y-72090476D01*
X261117142Y-72042857D01*
X261069523Y-71947619D01*
X261021904Y-71900000D01*
X260926666Y-71852380D01*
X260736190Y-71852380D01*
X260640952Y-71900000D01*
X260593333Y-71947619D01*
X260545714Y-72042857D01*
X260545714Y-72090476D01*
X260593333Y-72185714D01*
X260640952Y-72233333D01*
X260736190Y-72280952D01*
X260926666Y-72280952D01*
X261021904Y-72328571D01*
X261069523Y-72376190D01*
X261117142Y-72471428D01*
X261117142Y-72661904D01*
X261069523Y-72757142D01*
X261021904Y-72804761D01*
X260926666Y-72852380D01*
X260736190Y-72852380D01*
X260640952Y-72804761D01*
X260593333Y-72757142D01*
X260545714Y-72661904D01*
X260545714Y-72471428D01*
X260593333Y-72376190D01*
X260640952Y-72328571D01*
X260736190Y-72280952D01*
X197595238Y-111677142D02*
X197642857Y-111724761D01*
X197785714Y-111772380D01*
X197880952Y-111772380D01*
X198023809Y-111724761D01*
X198119047Y-111629523D01*
X198166666Y-111534285D01*
X198214285Y-111343809D01*
X198214285Y-111200952D01*
X198166666Y-111010476D01*
X198119047Y-110915238D01*
X198023809Y-110820000D01*
X197880952Y-110772380D01*
X197785714Y-110772380D01*
X197642857Y-110820000D01*
X197595238Y-110867619D01*
X196642857Y-111772380D02*
X197214285Y-111772380D01*
X196928571Y-111772380D02*
X196928571Y-110772380D01*
X197023809Y-110915238D01*
X197119047Y-111010476D01*
X197214285Y-111058095D01*
X196023809Y-110772380D02*
X195928571Y-110772380D01*
X195833333Y-110820000D01*
X195785714Y-110867619D01*
X195738095Y-110962857D01*
X195690476Y-111153333D01*
X195690476Y-111391428D01*
X195738095Y-111581904D01*
X195785714Y-111677142D01*
X195833333Y-111724761D01*
X195928571Y-111772380D01*
X196023809Y-111772380D01*
X196119047Y-111724761D01*
X196166666Y-111677142D01*
X196214285Y-111581904D01*
X196261904Y-111391428D01*
X196261904Y-111153333D01*
X196214285Y-110962857D01*
X196166666Y-110867619D01*
X196119047Y-110820000D01*
X196023809Y-110772380D01*
X194738095Y-111772380D02*
X195309523Y-111772380D01*
X195023809Y-111772380D02*
X195023809Y-110772380D01*
X195119047Y-110915238D01*
X195214285Y-111010476D01*
X195309523Y-111058095D01*
X193785714Y-111772380D02*
X194357142Y-111772380D01*
X194071428Y-111772380D02*
X194071428Y-110772380D01*
X194166666Y-110915238D01*
X194261904Y-111010476D01*
X194357142Y-111058095D01*
X205395238Y-107157142D02*
X205442857Y-107204761D01*
X205585714Y-107252380D01*
X205680952Y-107252380D01*
X205823809Y-107204761D01*
X205919047Y-107109523D01*
X205966666Y-107014285D01*
X206014285Y-106823809D01*
X206014285Y-106680952D01*
X205966666Y-106490476D01*
X205919047Y-106395238D01*
X205823809Y-106300000D01*
X205680952Y-106252380D01*
X205585714Y-106252380D01*
X205442857Y-106300000D01*
X205395238Y-106347619D01*
X204442857Y-107252380D02*
X205014285Y-107252380D01*
X204728571Y-107252380D02*
X204728571Y-106252380D01*
X204823809Y-106395238D01*
X204919047Y-106490476D01*
X205014285Y-106538095D01*
X203823809Y-106252380D02*
X203728571Y-106252380D01*
X203633333Y-106300000D01*
X203585714Y-106347619D01*
X203538095Y-106442857D01*
X203490476Y-106633333D01*
X203490476Y-106871428D01*
X203538095Y-107061904D01*
X203585714Y-107157142D01*
X203633333Y-107204761D01*
X203728571Y-107252380D01*
X203823809Y-107252380D01*
X203919047Y-107204761D01*
X203966666Y-107157142D01*
X204014285Y-107061904D01*
X204061904Y-106871428D01*
X204061904Y-106633333D01*
X204014285Y-106442857D01*
X203966666Y-106347619D01*
X203919047Y-106300000D01*
X203823809Y-106252380D01*
X202538095Y-107252380D02*
X203109523Y-107252380D01*
X202823809Y-107252380D02*
X202823809Y-106252380D01*
X202919047Y-106395238D01*
X203014285Y-106490476D01*
X203109523Y-106538095D01*
X202157142Y-106347619D02*
X202109523Y-106300000D01*
X202014285Y-106252380D01*
X201776190Y-106252380D01*
X201680952Y-106300000D01*
X201633333Y-106347619D01*
X201585714Y-106442857D01*
X201585714Y-106538095D01*
X201633333Y-106680952D01*
X202204761Y-107252380D01*
X201585714Y-107252380D01*
X205395238Y-103157142D02*
X205442857Y-103204761D01*
X205585714Y-103252380D01*
X205680952Y-103252380D01*
X205823809Y-103204761D01*
X205919047Y-103109523D01*
X205966666Y-103014285D01*
X206014285Y-102823809D01*
X206014285Y-102680952D01*
X205966666Y-102490476D01*
X205919047Y-102395238D01*
X205823809Y-102300000D01*
X205680952Y-102252380D01*
X205585714Y-102252380D01*
X205442857Y-102300000D01*
X205395238Y-102347619D01*
X204442857Y-103252380D02*
X205014285Y-103252380D01*
X204728571Y-103252380D02*
X204728571Y-102252380D01*
X204823809Y-102395238D01*
X204919047Y-102490476D01*
X205014285Y-102538095D01*
X203823809Y-102252380D02*
X203728571Y-102252380D01*
X203633333Y-102300000D01*
X203585714Y-102347619D01*
X203538095Y-102442857D01*
X203490476Y-102633333D01*
X203490476Y-102871428D01*
X203538095Y-103061904D01*
X203585714Y-103157142D01*
X203633333Y-103204761D01*
X203728571Y-103252380D01*
X203823809Y-103252380D01*
X203919047Y-103204761D01*
X203966666Y-103157142D01*
X204014285Y-103061904D01*
X204061904Y-102871428D01*
X204061904Y-102633333D01*
X204014285Y-102442857D01*
X203966666Y-102347619D01*
X203919047Y-102300000D01*
X203823809Y-102252380D01*
X202538095Y-103252380D02*
X203109523Y-103252380D01*
X202823809Y-103252380D02*
X202823809Y-102252380D01*
X202919047Y-102395238D01*
X203014285Y-102490476D01*
X203109523Y-102538095D01*
X202204761Y-102252380D02*
X201585714Y-102252380D01*
X201919047Y-102633333D01*
X201776190Y-102633333D01*
X201680952Y-102680952D01*
X201633333Y-102728571D01*
X201585714Y-102823809D01*
X201585714Y-103061904D01*
X201633333Y-103157142D01*
X201680952Y-103204761D01*
X201776190Y-103252380D01*
X202061904Y-103252380D01*
X202157142Y-103204761D01*
X202204761Y-103157142D01*
X207595238Y-99357142D02*
X207642857Y-99404761D01*
X207785714Y-99452380D01*
X207880952Y-99452380D01*
X208023809Y-99404761D01*
X208119047Y-99309523D01*
X208166666Y-99214285D01*
X208214285Y-99023809D01*
X208214285Y-98880952D01*
X208166666Y-98690476D01*
X208119047Y-98595238D01*
X208023809Y-98500000D01*
X207880952Y-98452380D01*
X207785714Y-98452380D01*
X207642857Y-98500000D01*
X207595238Y-98547619D01*
X206642857Y-99452380D02*
X207214285Y-99452380D01*
X206928571Y-99452380D02*
X206928571Y-98452380D01*
X207023809Y-98595238D01*
X207119047Y-98690476D01*
X207214285Y-98738095D01*
X206023809Y-98452380D02*
X205928571Y-98452380D01*
X205833333Y-98500000D01*
X205785714Y-98547619D01*
X205738095Y-98642857D01*
X205690476Y-98833333D01*
X205690476Y-99071428D01*
X205738095Y-99261904D01*
X205785714Y-99357142D01*
X205833333Y-99404761D01*
X205928571Y-99452380D01*
X206023809Y-99452380D01*
X206119047Y-99404761D01*
X206166666Y-99357142D01*
X206214285Y-99261904D01*
X206261904Y-99071428D01*
X206261904Y-98833333D01*
X206214285Y-98642857D01*
X206166666Y-98547619D01*
X206119047Y-98500000D01*
X206023809Y-98452380D01*
X204738095Y-99452380D02*
X205309523Y-99452380D01*
X205023809Y-99452380D02*
X205023809Y-98452380D01*
X205119047Y-98595238D01*
X205214285Y-98690476D01*
X205309523Y-98738095D01*
X203833333Y-98452380D02*
X204309523Y-98452380D01*
X204357142Y-98928571D01*
X204309523Y-98880952D01*
X204214285Y-98833333D01*
X203976190Y-98833333D01*
X203880952Y-98880952D01*
X203833333Y-98928571D01*
X203785714Y-99023809D01*
X203785714Y-99261904D01*
X203833333Y-99357142D01*
X203880952Y-99404761D01*
X203976190Y-99452380D01*
X204214285Y-99452380D01*
X204309523Y-99404761D01*
X204357142Y-99357142D01*
X207595238Y-96357142D02*
X207642857Y-96404761D01*
X207785714Y-96452380D01*
X207880952Y-96452380D01*
X208023809Y-96404761D01*
X208119047Y-96309523D01*
X208166666Y-96214285D01*
X208214285Y-96023809D01*
X208214285Y-95880952D01*
X208166666Y-95690476D01*
X208119047Y-95595238D01*
X208023809Y-95500000D01*
X207880952Y-95452380D01*
X207785714Y-95452380D01*
X207642857Y-95500000D01*
X207595238Y-95547619D01*
X206642857Y-96452380D02*
X207214285Y-96452380D01*
X206928571Y-96452380D02*
X206928571Y-95452380D01*
X207023809Y-95595238D01*
X207119047Y-95690476D01*
X207214285Y-95738095D01*
X206023809Y-95452380D02*
X205928571Y-95452380D01*
X205833333Y-95500000D01*
X205785714Y-95547619D01*
X205738095Y-95642857D01*
X205690476Y-95833333D01*
X205690476Y-96071428D01*
X205738095Y-96261904D01*
X205785714Y-96357142D01*
X205833333Y-96404761D01*
X205928571Y-96452380D01*
X206023809Y-96452380D01*
X206119047Y-96404761D01*
X206166666Y-96357142D01*
X206214285Y-96261904D01*
X206261904Y-96071428D01*
X206261904Y-95833333D01*
X206214285Y-95642857D01*
X206166666Y-95547619D01*
X206119047Y-95500000D01*
X206023809Y-95452380D01*
X204738095Y-96452380D02*
X205309523Y-96452380D01*
X205023809Y-96452380D02*
X205023809Y-95452380D01*
X205119047Y-95595238D01*
X205214285Y-95690476D01*
X205309523Y-95738095D01*
X204404761Y-95452380D02*
X203738095Y-95452380D01*
X204166666Y-96452380D01*
X144533333Y-81652380D02*
X144533333Y-82366666D01*
X144580952Y-82509523D01*
X144676190Y-82604761D01*
X144819047Y-82652380D01*
X144914285Y-82652380D01*
X143580952Y-81652380D02*
X144057142Y-81652380D01*
X144104761Y-82128571D01*
X144057142Y-82080952D01*
X143961904Y-82033333D01*
X143723809Y-82033333D01*
X143628571Y-82080952D01*
X143580952Y-82128571D01*
X143533333Y-82223809D01*
X143533333Y-82461904D01*
X143580952Y-82557142D01*
X143628571Y-82604761D01*
X143723809Y-82652380D01*
X143961904Y-82652380D01*
X144057142Y-82604761D01*
X144104761Y-82557142D01*
X174652380Y-85757142D02*
X174176190Y-85423809D01*
X174652380Y-85185714D02*
X173652380Y-85185714D01*
X173652380Y-85566666D01*
X173700000Y-85661904D01*
X173747619Y-85709523D01*
X173842857Y-85757142D01*
X173985714Y-85757142D01*
X174080952Y-85709523D01*
X174128571Y-85661904D01*
X174176190Y-85566666D01*
X174176190Y-85185714D01*
X173747619Y-86138095D02*
X173700000Y-86185714D01*
X173652380Y-86280952D01*
X173652380Y-86519047D01*
X173700000Y-86614285D01*
X173747619Y-86661904D01*
X173842857Y-86709523D01*
X173938095Y-86709523D01*
X174080952Y-86661904D01*
X174652380Y-86090476D01*
X174652380Y-86709523D01*
X174080952Y-87280952D02*
X174033333Y-87185714D01*
X173985714Y-87138095D01*
X173890476Y-87090476D01*
X173842857Y-87090476D01*
X173747619Y-87138095D01*
X173700000Y-87185714D01*
X173652380Y-87280952D01*
X173652380Y-87471428D01*
X173700000Y-87566666D01*
X173747619Y-87614285D01*
X173842857Y-87661904D01*
X173890476Y-87661904D01*
X173985714Y-87614285D01*
X174033333Y-87566666D01*
X174080952Y-87471428D01*
X174080952Y-87280952D01*
X174128571Y-87185714D01*
X174176190Y-87138095D01*
X174271428Y-87090476D01*
X174461904Y-87090476D01*
X174557142Y-87138095D01*
X174604761Y-87185714D01*
X174652380Y-87280952D01*
X174652380Y-87471428D01*
X174604761Y-87566666D01*
X174557142Y-87614285D01*
X174461904Y-87661904D01*
X174271428Y-87661904D01*
X174176190Y-87614285D01*
X174128571Y-87566666D01*
X174080952Y-87471428D01*
X169882380Y-96357142D02*
X169406190Y-96023809D01*
X169882380Y-95785714D02*
X168882380Y-95785714D01*
X168882380Y-96166666D01*
X168930000Y-96261904D01*
X168977619Y-96309523D01*
X169072857Y-96357142D01*
X169215714Y-96357142D01*
X169310952Y-96309523D01*
X169358571Y-96261904D01*
X169406190Y-96166666D01*
X169406190Y-95785714D01*
X168882380Y-96690476D02*
X168882380Y-97309523D01*
X169263333Y-96976190D01*
X169263333Y-97119047D01*
X169310952Y-97214285D01*
X169358571Y-97261904D01*
X169453809Y-97309523D01*
X169691904Y-97309523D01*
X169787142Y-97261904D01*
X169834761Y-97214285D01*
X169882380Y-97119047D01*
X169882380Y-96833333D01*
X169834761Y-96738095D01*
X169787142Y-96690476D01*
X168882380Y-97642857D02*
X168882380Y-98261904D01*
X169263333Y-97928571D01*
X169263333Y-98071428D01*
X169310952Y-98166666D01*
X169358571Y-98214285D01*
X169453809Y-98261904D01*
X169691904Y-98261904D01*
X169787142Y-98214285D01*
X169834761Y-98166666D01*
X169882380Y-98071428D01*
X169882380Y-97785714D01*
X169834761Y-97690476D01*
X169787142Y-97642857D01*
X165882380Y-76357142D02*
X165406190Y-76023809D01*
X165882380Y-75785714D02*
X164882380Y-75785714D01*
X164882380Y-76166666D01*
X164930000Y-76261904D01*
X164977619Y-76309523D01*
X165072857Y-76357142D01*
X165215714Y-76357142D01*
X165310952Y-76309523D01*
X165358571Y-76261904D01*
X165406190Y-76166666D01*
X165406190Y-75785714D01*
X164882380Y-76690476D02*
X164882380Y-77309523D01*
X165263333Y-76976190D01*
X165263333Y-77119047D01*
X165310952Y-77214285D01*
X165358571Y-77261904D01*
X165453809Y-77309523D01*
X165691904Y-77309523D01*
X165787142Y-77261904D01*
X165834761Y-77214285D01*
X165882380Y-77119047D01*
X165882380Y-76833333D01*
X165834761Y-76738095D01*
X165787142Y-76690476D01*
X165215714Y-78166666D02*
X165882380Y-78166666D01*
X164834761Y-77928571D02*
X165549047Y-77690476D01*
X165549047Y-78309523D01*
%LPC*%
G36*
G01*
X212565000Y-71475000D02*
X211615000Y-71475000D01*
G75*
G02*
X211365000Y-71225000I0J250000D01*
G01*
X211365000Y-70550000D01*
G75*
G02*
X211615000Y-70300000I250000J0D01*
G01*
X212565000Y-70300000D01*
G75*
G02*
X212815000Y-70550000I0J-250000D01*
G01*
X212815000Y-71225000D01*
G75*
G02*
X212565000Y-71475000I-250000J0D01*
G01*
G37*
G36*
G01*
X212565000Y-69400000D02*
X211615000Y-69400000D01*
G75*
G02*
X211365000Y-69150000I0J250000D01*
G01*
X211365000Y-68475000D01*
G75*
G02*
X211615000Y-68225000I250000J0D01*
G01*
X212565000Y-68225000D01*
G75*
G02*
X212815000Y-68475000I0J-250000D01*
G01*
X212815000Y-69150000D01*
G75*
G02*
X212565000Y-69400000I-250000J0D01*
G01*
G37*
G36*
G01*
X211615000Y-65220000D02*
X212565000Y-65220000D01*
G75*
G02*
X212815000Y-65470000I0J-250000D01*
G01*
X212815000Y-66145000D01*
G75*
G02*
X212565000Y-66395000I-250000J0D01*
G01*
X211615000Y-66395000D01*
G75*
G02*
X211365000Y-66145000I0J250000D01*
G01*
X211365000Y-65470000D01*
G75*
G02*
X211615000Y-65220000I250000J0D01*
G01*
G37*
G36*
G01*
X211615000Y-63145000D02*
X212565000Y-63145000D01*
G75*
G02*
X212815000Y-63395000I0J-250000D01*
G01*
X212815000Y-64070000D01*
G75*
G02*
X212565000Y-64320000I-250000J0D01*
G01*
X211615000Y-64320000D01*
G75*
G02*
X211365000Y-64070000I0J250000D01*
G01*
X211365000Y-63395000D01*
G75*
G02*
X211615000Y-63145000I250000J0D01*
G01*
G37*
D13*
X244040000Y-108189063D03*
D14*
X240840000Y-112030937D03*
D13*
X242440000Y-108860000D03*
D14*
X242440000Y-111360000D03*
D13*
X263700000Y-111990937D03*
D14*
X266900000Y-108149063D03*
D13*
X265300000Y-111320000D03*
D14*
X265300000Y-108820000D03*
G36*
G01*
X246932500Y-91515000D02*
X246932500Y-90565000D01*
G75*
G02*
X247182500Y-90315000I250000J0D01*
G01*
X247857500Y-90315000D01*
G75*
G02*
X248107500Y-90565000I0J-250000D01*
G01*
X248107500Y-91515000D01*
G75*
G02*
X247857500Y-91765000I-250000J0D01*
G01*
X247182500Y-91765000D01*
G75*
G02*
X246932500Y-91515000I0J250000D01*
G01*
G37*
G36*
G01*
X244857500Y-91515000D02*
X244857500Y-90565000D01*
G75*
G02*
X245107500Y-90315000I250000J0D01*
G01*
X245782500Y-90315000D01*
G75*
G02*
X246032500Y-90565000I0J-250000D01*
G01*
X246032500Y-91515000D01*
G75*
G02*
X245782500Y-91765000I-250000J0D01*
G01*
X245107500Y-91765000D01*
G75*
G02*
X244857500Y-91515000I0J250000D01*
G01*
G37*
G36*
G01*
X260902500Y-94055000D02*
X260902500Y-93105000D01*
G75*
G02*
X261152500Y-92855000I250000J0D01*
G01*
X261827500Y-92855000D01*
G75*
G02*
X262077500Y-93105000I0J-250000D01*
G01*
X262077500Y-94055000D01*
G75*
G02*
X261827500Y-94305000I-250000J0D01*
G01*
X261152500Y-94305000D01*
G75*
G02*
X260902500Y-94055000I0J250000D01*
G01*
G37*
G36*
G01*
X262977500Y-94055000D02*
X262977500Y-93105000D01*
G75*
G02*
X263227500Y-92855000I250000J0D01*
G01*
X263902500Y-92855000D01*
G75*
G02*
X264152500Y-93105000I0J-250000D01*
G01*
X264152500Y-94055000D01*
G75*
G02*
X263902500Y-94305000I-250000J0D01*
G01*
X263227500Y-94305000D01*
G75*
G02*
X262977500Y-94055000I0J250000D01*
G01*
G37*
X242440000Y-91040000D03*
D13*
X242440000Y-88540000D03*
D14*
X240840000Y-91710937D03*
D13*
X244040000Y-87869063D03*
D14*
X265300000Y-87230000D03*
D13*
X265300000Y-89730000D03*
D14*
X266900000Y-86559063D03*
D13*
X263700000Y-90400937D03*
G36*
G01*
X244625000Y-68655000D02*
X244625000Y-67705000D01*
G75*
G02*
X244875000Y-67455000I250000J0D01*
G01*
X245550000Y-67455000D01*
G75*
G02*
X245800000Y-67705000I0J-250000D01*
G01*
X245800000Y-68655000D01*
G75*
G02*
X245550000Y-68905000I-250000J0D01*
G01*
X244875000Y-68905000D01*
G75*
G02*
X244625000Y-68655000I0J250000D01*
G01*
G37*
G36*
G01*
X246700000Y-68655000D02*
X246700000Y-67705000D01*
G75*
G02*
X246950000Y-67455000I250000J0D01*
G01*
X247625000Y-67455000D01*
G75*
G02*
X247875000Y-67705000I0J-250000D01*
G01*
X247875000Y-68655000D01*
G75*
G02*
X247625000Y-68905000I-250000J0D01*
G01*
X246950000Y-68905000D01*
G75*
G02*
X246700000Y-68655000I0J250000D01*
G01*
G37*
G36*
G01*
X263210000Y-71195000D02*
X263210000Y-70245000D01*
G75*
G02*
X263460000Y-69995000I250000J0D01*
G01*
X264135000Y-69995000D01*
G75*
G02*
X264385000Y-70245000I0J-250000D01*
G01*
X264385000Y-71195000D01*
G75*
G02*
X264135000Y-71445000I-250000J0D01*
G01*
X263460000Y-71445000D01*
G75*
G02*
X263210000Y-71195000I0J250000D01*
G01*
G37*
G36*
G01*
X261135000Y-71195000D02*
X261135000Y-70245000D01*
G75*
G02*
X261385000Y-69995000I250000J0D01*
G01*
X262060000Y-69995000D01*
G75*
G02*
X262310000Y-70245000I0J-250000D01*
G01*
X262310000Y-71195000D01*
G75*
G02*
X262060000Y-71445000I-250000J0D01*
G01*
X261385000Y-71445000D01*
G75*
G02*
X261135000Y-71195000I0J250000D01*
G01*
G37*
X239100000Y-64329063D03*
D14*
X235900000Y-68170937D03*
D13*
X237500000Y-65000000D03*
D14*
X237500000Y-67500000D03*
X270000000Y-64370000D03*
D13*
X270000000Y-66870000D03*
D14*
X271600000Y-63699063D03*
D13*
X268400000Y-67540937D03*
G36*
G01*
X197625000Y-112525000D02*
X197625000Y-113475000D01*
G75*
G02*
X197375000Y-113725000I-250000J0D01*
G01*
X196700000Y-113725000D01*
G75*
G02*
X196450000Y-113475000I0J250000D01*
G01*
X196450000Y-112525000D01*
G75*
G02*
X196700000Y-112275000I250000J0D01*
G01*
X197375000Y-112275000D01*
G75*
G02*
X197625000Y-112525000I0J-250000D01*
G01*
G37*
G36*
G01*
X195550000Y-112525000D02*
X195550000Y-113475000D01*
G75*
G02*
X195300000Y-113725000I-250000J0D01*
G01*
X194625000Y-113725000D01*
G75*
G02*
X194375000Y-113475000I0J250000D01*
G01*
X194375000Y-112525000D01*
G75*
G02*
X194625000Y-112275000I250000J0D01*
G01*
X195300000Y-112275000D01*
G75*
G02*
X195550000Y-112525000I0J-250000D01*
G01*
G37*
G36*
G01*
X199525000Y-108450000D02*
X200475000Y-108450000D01*
G75*
G02*
X200725000Y-108700000I0J-250000D01*
G01*
X200725000Y-109375000D01*
G75*
G02*
X200475000Y-109625000I-250000J0D01*
G01*
X199525000Y-109625000D01*
G75*
G02*
X199275000Y-109375000I0J250000D01*
G01*
X199275000Y-108700000D01*
G75*
G02*
X199525000Y-108450000I250000J0D01*
G01*
G37*
G36*
G01*
X199525000Y-106375000D02*
X200475000Y-106375000D01*
G75*
G02*
X200725000Y-106625000I0J-250000D01*
G01*
X200725000Y-107300000D01*
G75*
G02*
X200475000Y-107550000I-250000J0D01*
G01*
X199525000Y-107550000D01*
G75*
G02*
X199275000Y-107300000I0J250000D01*
G01*
X199275000Y-106625000D01*
G75*
G02*
X199525000Y-106375000I250000J0D01*
G01*
G37*
G36*
G01*
X199525000Y-101375000D02*
X200475000Y-101375000D01*
G75*
G02*
X200725000Y-101625000I0J-250000D01*
G01*
X200725000Y-102300000D01*
G75*
G02*
X200475000Y-102550000I-250000J0D01*
G01*
X199525000Y-102550000D01*
G75*
G02*
X199275000Y-102300000I0J250000D01*
G01*
X199275000Y-101625000D01*
G75*
G02*
X199525000Y-101375000I250000J0D01*
G01*
G37*
G36*
G01*
X199525000Y-103450000D02*
X200475000Y-103450000D01*
G75*
G02*
X200725000Y-103700000I0J-250000D01*
G01*
X200725000Y-104375000D01*
G75*
G02*
X200475000Y-104625000I-250000J0D01*
G01*
X199525000Y-104625000D01*
G75*
G02*
X199275000Y-104375000I0J250000D01*
G01*
X199275000Y-103700000D01*
G75*
G02*
X199525000Y-103450000I250000J0D01*
G01*
G37*
G36*
G01*
X201487500Y-99535000D02*
X201487500Y-98585000D01*
G75*
G02*
X201737500Y-98335000I250000J0D01*
G01*
X202412500Y-98335000D01*
G75*
G02*
X202662500Y-98585000I0J-250000D01*
G01*
X202662500Y-99535000D01*
G75*
G02*
X202412500Y-99785000I-250000J0D01*
G01*
X201737500Y-99785000D01*
G75*
G02*
X201487500Y-99535000I0J250000D01*
G01*
G37*
G36*
G01*
X199412500Y-99535000D02*
X199412500Y-98585000D01*
G75*
G02*
X199662500Y-98335000I250000J0D01*
G01*
X200337500Y-98335000D01*
G75*
G02*
X200587500Y-98585000I0J-250000D01*
G01*
X200587500Y-99535000D01*
G75*
G02*
X200337500Y-99785000I-250000J0D01*
G01*
X199662500Y-99785000D01*
G75*
G02*
X199412500Y-99535000I0J250000D01*
G01*
G37*
G36*
G01*
X201450000Y-96995000D02*
X201450000Y-96045000D01*
G75*
G02*
X201700000Y-95795000I250000J0D01*
G01*
X202375000Y-95795000D01*
G75*
G02*
X202625000Y-96045000I0J-250000D01*
G01*
X202625000Y-96995000D01*
G75*
G02*
X202375000Y-97245000I-250000J0D01*
G01*
X201700000Y-97245000D01*
G75*
G02*
X201450000Y-96995000I0J250000D01*
G01*
G37*
G36*
G01*
X199375000Y-96995000D02*
X199375000Y-96045000D01*
G75*
G02*
X199625000Y-95795000I250000J0D01*
G01*
X200300000Y-95795000D01*
G75*
G02*
X200550000Y-96045000I0J-250000D01*
G01*
X200550000Y-96995000D01*
G75*
G02*
X200300000Y-97245000I-250000J0D01*
G01*
X199625000Y-97245000D01*
G75*
G02*
X199375000Y-96995000I0J250000D01*
G01*
G37*
G36*
G01*
X225845001Y-95870000D02*
X224154999Y-95870000D01*
G75*
G02*
X223905000Y-95620001I0J249999D01*
G01*
X223905000Y-94379999D01*
G75*
G02*
X224154999Y-94130000I249999J0D01*
G01*
X225845001Y-94130000D01*
G75*
G02*
X226095000Y-94379999I0J-249999D01*
G01*
X226095000Y-95620001D01*
G75*
G02*
X225845001Y-95870000I-249999J0D01*
G01*
G37*
D15*
X225000000Y-92460000D03*
X225000000Y-89920000D03*
X225000000Y-87380000D03*
X225000000Y-84840000D03*
X225000000Y-82300000D03*
X225000000Y-79760000D03*
X225000000Y-77220000D03*
X225000000Y-74680000D03*
X225000000Y-72140000D03*
D16*
X142000000Y-87000000D03*
D17*
X142000000Y-84460000D03*
X142000000Y-89540000D03*
G36*
G01*
X257280000Y-110514999D02*
X257280000Y-112205001D01*
G75*
G02*
X257030001Y-112455000I-249999J0D01*
G01*
X255789999Y-112455000D01*
G75*
G02*
X255540000Y-112205001I0J249999D01*
G01*
X255540000Y-110514999D01*
G75*
G02*
X255789999Y-110265000I249999J0D01*
G01*
X257030001Y-110265000D01*
G75*
G02*
X257280000Y-110514999I0J-249999D01*
G01*
G37*
D18*
X253870000Y-111360000D03*
X251330000Y-111360000D03*
G36*
G01*
X259820000Y-64154999D02*
X259820000Y-65845001D01*
G75*
G02*
X259570001Y-66095000I-249999J0D01*
G01*
X258329999Y-66095000D01*
G75*
G02*
X258080000Y-65845001I0J249999D01*
G01*
X258080000Y-64154999D01*
G75*
G02*
X258329999Y-63905000I249999J0D01*
G01*
X259570001Y-63905000D01*
G75*
G02*
X259820000Y-64154999I0J-249999D01*
G01*
G37*
X256410000Y-65000000D03*
X253870000Y-65000000D03*
X251330000Y-65000000D03*
X248790000Y-65000000D03*
D15*
X182500000Y-94800000D03*
X182500000Y-97340000D03*
X182500000Y-99880000D03*
X182500000Y-102420000D03*
X182500000Y-104960000D03*
G36*
G01*
X183345001Y-108370000D02*
X181654999Y-108370000D01*
G75*
G02*
X181405000Y-108120001I0J249999D01*
G01*
X181405000Y-106879999D01*
G75*
G02*
X181654999Y-106630000I249999J0D01*
G01*
X183345001Y-106630000D01*
G75*
G02*
X183595000Y-106879999I0J-249999D01*
G01*
X183595000Y-108120001D01*
G75*
G02*
X183345001Y-108370000I-249999J0D01*
G01*
G37*
D19*
X162920000Y-101000000D03*
X165460000Y-101000000D03*
D20*
X168000000Y-101000000D03*
D21*
X165460000Y-117660000D03*
G36*
G01*
X172837500Y-88600000D02*
X172362500Y-88600000D01*
G75*
G02*
X172125000Y-88362500I0J237500D01*
G01*
X172125000Y-87862500D01*
G75*
G02*
X172362500Y-87625000I237500J0D01*
G01*
X172837500Y-87625000D01*
G75*
G02*
X173075000Y-87862500I0J-237500D01*
G01*
X173075000Y-88362500D01*
G75*
G02*
X172837500Y-88600000I-237500J0D01*
G01*
G37*
G36*
G01*
X172837500Y-86775000D02*
X172362500Y-86775000D01*
G75*
G02*
X172125000Y-86537500I0J237500D01*
G01*
X172125000Y-86037500D01*
G75*
G02*
X172362500Y-85800000I237500J0D01*
G01*
X172837500Y-85800000D01*
G75*
G02*
X173075000Y-86037500I0J-237500D01*
G01*
X173075000Y-86537500D01*
G75*
G02*
X172837500Y-86775000I-237500J0D01*
G01*
G37*
G36*
G01*
X168237500Y-98400000D02*
X167762500Y-98400000D01*
G75*
G02*
X167525000Y-98162500I0J237500D01*
G01*
X167525000Y-97662500D01*
G75*
G02*
X167762500Y-97425000I237500J0D01*
G01*
X168237500Y-97425000D01*
G75*
G02*
X168475000Y-97662500I0J-237500D01*
G01*
X168475000Y-98162500D01*
G75*
G02*
X168237500Y-98400000I-237500J0D01*
G01*
G37*
G36*
G01*
X168237500Y-96575000D02*
X167762500Y-96575000D01*
G75*
G02*
X167525000Y-96337500I0J237500D01*
G01*
X167525000Y-95837500D01*
G75*
G02*
X167762500Y-95600000I237500J0D01*
G01*
X168237500Y-95600000D01*
G75*
G02*
X168475000Y-95837500I0J-237500D01*
G01*
X168475000Y-96337500D01*
G75*
G02*
X168237500Y-96575000I-237500J0D01*
G01*
G37*
G36*
G01*
X164237500Y-76575000D02*
X163762500Y-76575000D01*
G75*
G02*
X163525000Y-76337500I0J237500D01*
G01*
X163525000Y-75837500D01*
G75*
G02*
X163762500Y-75600000I237500J0D01*
G01*
X164237500Y-75600000D01*
G75*
G02*
X164475000Y-75837500I0J-237500D01*
G01*
X164475000Y-76337500D01*
G75*
G02*
X164237500Y-76575000I-237500J0D01*
G01*
G37*
G36*
G01*
X164237500Y-78400000D02*
X163762500Y-78400000D01*
G75*
G02*
X163525000Y-78162500I0J237500D01*
G01*
X163525000Y-77662500D01*
G75*
G02*
X163762500Y-77425000I237500J0D01*
G01*
X164237500Y-77425000D01*
G75*
G02*
X164475000Y-77662500I0J-237500D01*
G01*
X164475000Y-78162500D01*
G75*
G02*
X164237500Y-78400000I-237500J0D01*
G01*
G37*
D22*
X164000000Y-88000000D03*
X154000000Y-85500000D03*
X164000000Y-83000000D03*
D23*
X159000000Y-85650000D03*
D24*
X196850000Y-60960000D03*
X196850000Y-63500000D03*
D25*
X196850000Y-66040000D03*
D24*
X196850000Y-68580000D03*
X196850000Y-71120000D03*
X196850000Y-73660000D03*
X196850000Y-76200000D03*
D25*
X196850000Y-78740000D03*
D24*
X196850000Y-81280000D03*
X196850000Y-83820000D03*
X196850000Y-86360000D03*
X196850000Y-88900000D03*
D25*
X196850000Y-91440000D03*
D24*
X196850000Y-93980000D03*
X196850000Y-96520000D03*
X196850000Y-99060000D03*
X196850000Y-101600000D03*
D25*
X196850000Y-104140000D03*
D24*
X196850000Y-106680000D03*
X196850000Y-109220000D03*
X214630000Y-109220000D03*
X214630000Y-106680000D03*
D25*
X214630000Y-104140000D03*
D24*
X214630000Y-101600000D03*
X214630000Y-99060000D03*
X214630000Y-96520000D03*
X214630000Y-93980000D03*
D25*
X214630000Y-91440000D03*
D24*
X214630000Y-88900000D03*
X214630000Y-86360000D03*
X214630000Y-83820000D03*
X214630000Y-81280000D03*
D25*
X214630000Y-78740000D03*
D24*
X214630000Y-76200000D03*
X214630000Y-73660000D03*
X214630000Y-71120000D03*
X214630000Y-68580000D03*
D25*
X214630000Y-66040000D03*
D24*
X214630000Y-63500000D03*
X214630000Y-60960000D03*
D26*
X203015000Y-61090000D03*
X208465000Y-61090000D03*
D27*
X203315000Y-64120000D03*
X208165000Y-64120000D03*
D24*
X203200000Y-108990000D03*
D25*
X205740000Y-108990000D03*
D24*
X208280000Y-108990000D03*
D28*
X275000000Y-120000000D03*
D29*
X277400000Y-120000000D03*
X276697056Y-121697056D03*
X275000000Y-122400000D03*
X273302944Y-121697056D03*
X272600000Y-120000000D03*
X273302944Y-118302944D03*
X275000000Y-117600000D03*
X276697056Y-118302944D03*
X146697056Y-52802944D03*
X145000000Y-52100000D03*
X143302944Y-52802944D03*
X142600000Y-54500000D03*
X143302944Y-56197056D03*
X145000000Y-56900000D03*
X146697056Y-56197056D03*
X147400000Y-54500000D03*
D28*
X145000000Y-54500000D03*
X275000000Y-55000000D03*
D29*
X277400000Y-55000000D03*
X276697056Y-56697056D03*
X275000000Y-57400000D03*
X273302944Y-56697056D03*
X272600000Y-55000000D03*
X273302944Y-53302944D03*
X275000000Y-52600000D03*
X276697056Y-53302944D03*
X146697056Y-118302944D03*
X145000000Y-117600000D03*
X143302944Y-118302944D03*
X142600000Y-120000000D03*
X143302944Y-121697056D03*
X145000000Y-122400000D03*
X146697056Y-121697056D03*
X147400000Y-120000000D03*
D28*
X145000000Y-120000000D03*
D29*
X236697056Y-118302944D03*
X235000000Y-117600000D03*
X233302944Y-118302944D03*
X232600000Y-120000000D03*
X233302944Y-121697056D03*
X235000000Y-122400000D03*
X236697056Y-121697056D03*
X237400000Y-120000000D03*
D28*
X235000000Y-120000000D03*
X222500000Y-55000000D03*
D29*
X224900000Y-55000000D03*
X224197056Y-56697056D03*
X222500000Y-57400000D03*
X220802944Y-56697056D03*
X220100000Y-55000000D03*
X220802944Y-53302944D03*
X222500000Y-52600000D03*
X224197056Y-53302944D03*
X224197056Y-118302944D03*
X222500000Y-117600000D03*
X220802944Y-118302944D03*
X220100000Y-120000000D03*
X220802944Y-121697056D03*
X222500000Y-122400000D03*
X224197056Y-121697056D03*
X224900000Y-120000000D03*
D28*
X222500000Y-120000000D03*
X235000000Y-55000000D03*
D29*
X237400000Y-55000000D03*
X236697056Y-56697056D03*
X235000000Y-57400000D03*
X233302944Y-56697056D03*
X232600000Y-55000000D03*
X233302944Y-53302944D03*
X235000000Y-52600000D03*
X236697056Y-53302944D03*
G36*
G01*
X145154999Y-64130000D02*
X146845001Y-64130000D01*
G75*
G02*
X147095000Y-64379999I0J-249999D01*
G01*
X147095000Y-65620001D01*
G75*
G02*
X146845001Y-65870000I-249999J0D01*
G01*
X145154999Y-65870000D01*
G75*
G02*
X144905000Y-65620001I0J249999D01*
G01*
X144905000Y-64379999D01*
G75*
G02*
X145154999Y-64130000I249999J0D01*
G01*
G37*
D15*
X146000000Y-67540000D03*
X146000000Y-70080000D03*
X146000000Y-72620000D03*
X146000000Y-75160000D03*
D21*
X166540000Y-56340000D03*
D20*
X164000000Y-73000000D03*
D19*
X166540000Y-73000000D03*
X169080000Y-73000000D03*
D30*
X141873000Y-123000000D02*
X141875440Y-123024776D01*
X141882667Y-123048601D01*
X141894403Y-123070557D01*
X141910197Y-123089803D01*
X141929443Y-123105597D01*
X141951399Y-123117333D01*
X141975224Y-123124560D01*
X142000000Y-123127000D01*
X278000000Y-123127000D01*
X278024776Y-123124560D01*
X278048601Y-123117333D01*
X278070557Y-123105597D01*
X278089803Y-123089803D01*
X278105597Y-123070557D01*
X278117333Y-123048601D01*
X278124560Y-123024776D01*
X278127000Y-123000000D01*
X278127000Y-52127000D01*
X279873000Y-52127000D01*
X279873000Y-124873000D01*
X140127000Y-124873000D01*
X140127000Y-52127000D01*
X141873000Y-52127000D01*
X141873000Y-123000000D01*
D31*
G36*
X141873000Y-123000000D02*
G01*
X141875440Y-123024776D01*
X141882667Y-123048601D01*
X141894403Y-123070557D01*
X141910197Y-123089803D01*
X141929443Y-123105597D01*
X141951399Y-123117333D01*
X141975224Y-123124560D01*
X142000000Y-123127000D01*
X278000000Y-123127000D01*
X278024776Y-123124560D01*
X278048601Y-123117333D01*
X278070557Y-123105597D01*
X278089803Y-123089803D01*
X278105597Y-123070557D01*
X278117333Y-123048601D01*
X278124560Y-123024776D01*
X278127000Y-123000000D01*
X278127000Y-52127000D01*
X279873000Y-52127000D01*
X279873000Y-124873000D01*
X140127000Y-124873000D01*
X140127000Y-52127000D01*
X141873000Y-52127000D01*
X141873000Y-123000000D01*
G37*
D30*
X279873000Y-51873000D02*
X140127000Y-51873000D01*
X140127000Y-50127000D01*
X279873000Y-50127000D01*
X279873000Y-51873000D01*
D31*
G36*
X279873000Y-51873000D02*
G01*
X140127000Y-51873000D01*
X140127000Y-50127000D01*
X279873000Y-50127000D01*
X279873000Y-51873000D01*
G37*
M02*
