G04 #@! TF.GenerationSoftware,KiCad,Pcbnew,(6.0.0)*
G04 #@! TF.CreationDate,2022-07-21T12:24:26+02:00*
G04 #@! TF.ProjectId,AWG,4157472e-6b69-4636-9164-5f7063625858,rev?*
G04 #@! TF.SameCoordinates,Original*
G04 #@! TF.FileFunction,Soldermask,Bot*
G04 #@! TF.FilePolarity,Negative*
%FSLAX46Y46*%
G04 Gerber Fmt 4.6, Leading zero omitted, Abs format (unit mm)*
G04 Created by KiCad (PCBNEW (6.0.0)) date 2022-07-21 12:24:26*
%MOMM*%
%LPD*%
G01*
G04 APERTURE LIST*
G04 Aperture macros list*
%AMRoundRect*
0 Rectangle with rounded corners*
0 $1 Rounding radius*
0 $2 $3 $4 $5 $6 $7 $8 $9 X,Y pos of 4 corners*
0 Add a 4 corners polygon primitive as box body*
4,1,4,$2,$3,$4,$5,$6,$7,$8,$9,$2,$3,0*
0 Add four circle primitives for the rounded corners*
1,1,$1+$1,$2,$3*
1,1,$1+$1,$4,$5*
1,1,$1+$1,$6,$7*
1,1,$1+$1,$8,$9*
0 Add four rect primitives between the rounded corners*
20,1,$1+$1,$2,$3,$4,$5,0*
20,1,$1+$1,$4,$5,$6,$7,0*
20,1,$1+$1,$6,$7,$8,$9,0*
20,1,$1+$1,$8,$9,$2,$3,0*%
G04 Aperture macros list end*
%ADD10R,1.600000X1.600000*%
%ADD11C,1.600000*%
%ADD12RoundRect,0.249999X0.845001X-0.620001X0.845001X0.620001X-0.845001X0.620001X-0.845001X-0.620001X0*%
%ADD13O,2.190000X1.740000*%
%ADD14RoundRect,0.249999X0.620001X0.845001X-0.620001X0.845001X-0.620001X-0.845001X0.620001X-0.845001X0*%
%ADD15O,1.740000X2.190000*%
%ADD16O,3.500000X3.500000*%
%ADD17R,1.905000X2.000000*%
%ADD18O,1.905000X2.000000*%
%ADD19C,4.000000*%
%ADD20C,2.340000*%
%ADD21O,1.800000X1.800000*%
%ADD22O,1.500000X1.500000*%
%ADD23O,1.700000X1.700000*%
%ADD24R,1.700000X1.700000*%
%ADD25C,0.800000*%
%ADD26C,6.400000*%
%ADD27RoundRect,0.249999X-0.845001X0.620001X-0.845001X-0.620001X0.845001X-0.620001X0.845001X0.620001X0*%
%ADD28RoundRect,0.250000X0.475000X-0.337500X0.475000X0.337500X-0.475000X0.337500X-0.475000X-0.337500X0*%
%ADD29RoundRect,0.250000X-0.475000X0.337500X-0.475000X-0.337500X0.475000X-0.337500X0.475000X0.337500X0*%
%ADD30RoundRect,0.250000X-0.337500X-0.475000X0.337500X-0.475000X0.337500X0.475000X-0.337500X0.475000X0*%
%ADD31RoundRect,0.250000X0.337500X0.475000X-0.337500X0.475000X-0.337500X-0.475000X0.337500X-0.475000X0*%
%ADD32R,4.000000X1.400000*%
%ADD33R,4.000000X1.500000*%
%ADD34RoundRect,0.237500X0.237500X-0.250000X0.237500X0.250000X-0.237500X0.250000X-0.237500X-0.250000X0*%
%ADD35RoundRect,0.250000X1.075000X-0.400000X1.075000X0.400000X-1.075000X0.400000X-1.075000X-0.400000X0*%
G04 APERTURE END LIST*
D10*
X242440000Y-111360000D03*
X240840000Y-112030937D03*
D11*
X242440000Y-108860000D03*
X244040000Y-108189063D03*
D10*
X240840000Y-91710937D03*
X242440000Y-91040000D03*
D11*
X244040000Y-87869063D03*
X242440000Y-88540000D03*
D10*
X265300000Y-87230000D03*
X266900000Y-86559063D03*
D11*
X263700000Y-90400937D03*
X265300000Y-89730000D03*
D10*
X270000000Y-64370000D03*
X271600000Y-63699063D03*
D11*
X268400000Y-67540937D03*
X270000000Y-66870000D03*
D12*
X225000000Y-95000000D03*
D13*
X225000000Y-92460000D03*
X225000000Y-89920000D03*
X225000000Y-87380000D03*
X225000000Y-84840000D03*
X225000000Y-82300000D03*
X225000000Y-79760000D03*
X225000000Y-77220000D03*
X225000000Y-74680000D03*
X225000000Y-72140000D03*
D14*
X256410000Y-111360000D03*
D15*
X253870000Y-111360000D03*
X251330000Y-111360000D03*
D14*
X258950000Y-65000000D03*
D15*
X256410000Y-65000000D03*
X253870000Y-65000000D03*
X251330000Y-65000000D03*
X248790000Y-65000000D03*
D12*
X182500000Y-107500000D03*
D13*
X182500000Y-104960000D03*
X182500000Y-102420000D03*
X182500000Y-99880000D03*
X182500000Y-97340000D03*
X182500000Y-94800000D03*
D16*
X165460000Y-117660000D03*
D17*
X168000000Y-101000000D03*
D18*
X165460000Y-101000000D03*
X162920000Y-101000000D03*
D19*
X159000000Y-85650000D03*
D20*
X164000000Y-83000000D03*
X154000000Y-85500000D03*
X164000000Y-88000000D03*
D21*
X208465000Y-61090000D03*
D22*
X208165000Y-64120000D03*
D21*
X203015000Y-61090000D03*
D22*
X203315000Y-64120000D03*
D23*
X196850000Y-60960000D03*
X196850000Y-63500000D03*
D24*
X196850000Y-66040000D03*
D23*
X196850000Y-68580000D03*
X196850000Y-71120000D03*
X196850000Y-73660000D03*
X196850000Y-76200000D03*
D24*
X196850000Y-78740000D03*
D23*
X196850000Y-81280000D03*
X196850000Y-83820000D03*
X196850000Y-86360000D03*
X196850000Y-88900000D03*
D24*
X196850000Y-91440000D03*
D23*
X196850000Y-93980000D03*
X196850000Y-96520000D03*
X196850000Y-99060000D03*
X196850000Y-101600000D03*
D24*
X196850000Y-104140000D03*
D23*
X196850000Y-106680000D03*
X196850000Y-109220000D03*
X214630000Y-109220000D03*
X214630000Y-106680000D03*
D24*
X214630000Y-104140000D03*
D23*
X214630000Y-101600000D03*
X214630000Y-99060000D03*
X214630000Y-96520000D03*
X214630000Y-93980000D03*
D24*
X214630000Y-91440000D03*
D23*
X214630000Y-88900000D03*
X214630000Y-86360000D03*
X214630000Y-83820000D03*
X214630000Y-81280000D03*
D24*
X214630000Y-78740000D03*
D23*
X214630000Y-76200000D03*
X214630000Y-73660000D03*
X214630000Y-71120000D03*
X214630000Y-68580000D03*
D24*
X214630000Y-66040000D03*
D23*
X214630000Y-63500000D03*
X214630000Y-60960000D03*
X203200000Y-108990000D03*
D24*
X205740000Y-108990000D03*
D23*
X208280000Y-108990000D03*
D10*
X265300000Y-108820000D03*
X266900000Y-108149063D03*
D11*
X265300000Y-111320000D03*
X263700000Y-111990937D03*
D25*
X273302944Y-118302944D03*
X276697056Y-121697056D03*
X277400000Y-120000000D03*
X273302944Y-121697056D03*
X275000000Y-122400000D03*
D26*
X275000000Y-120000000D03*
D25*
X276697056Y-118302944D03*
X275000000Y-117600000D03*
X272600000Y-120000000D03*
X142600000Y-54500000D03*
X143302944Y-56197056D03*
X145000000Y-56900000D03*
X145000000Y-52100000D03*
X147400000Y-54500000D03*
D26*
X145000000Y-54500000D03*
D25*
X143302944Y-52802944D03*
X146697056Y-56197056D03*
X146697056Y-52802944D03*
X275000000Y-57400000D03*
X273302944Y-53302944D03*
X275000000Y-52600000D03*
X272600000Y-55000000D03*
X277400000Y-55000000D03*
D26*
X275000000Y-55000000D03*
D25*
X273302944Y-56697056D03*
X276697056Y-56697056D03*
X276697056Y-53302944D03*
X143302944Y-121697056D03*
X145000000Y-122400000D03*
X143302944Y-118302944D03*
X145000000Y-117600000D03*
X147400000Y-120000000D03*
X146697056Y-121697056D03*
X146697056Y-118302944D03*
D26*
X145000000Y-120000000D03*
D25*
X142600000Y-120000000D03*
D10*
X237500000Y-67500000D03*
X235900000Y-68170937D03*
D11*
X237500000Y-65000000D03*
X239100000Y-64329063D03*
D25*
X235000000Y-122400000D03*
X232600000Y-120000000D03*
X233302944Y-118302944D03*
X237400000Y-120000000D03*
X233302944Y-121697056D03*
X235000000Y-117600000D03*
X236697056Y-121697056D03*
D26*
X235000000Y-120000000D03*
D25*
X236697056Y-118302944D03*
X222500000Y-52600000D03*
X224900000Y-55000000D03*
D26*
X222500000Y-55000000D03*
D25*
X224197056Y-56697056D03*
X222500000Y-57400000D03*
X220802944Y-53302944D03*
X224197056Y-53302944D03*
X220100000Y-55000000D03*
X220802944Y-56697056D03*
X222500000Y-122400000D03*
X220802944Y-118302944D03*
X220100000Y-120000000D03*
D26*
X222500000Y-120000000D03*
D25*
X220802944Y-121697056D03*
X224197056Y-121697056D03*
X224197056Y-118302944D03*
X222500000Y-117600000D03*
X224900000Y-120000000D03*
X236697056Y-53302944D03*
X233302944Y-56697056D03*
D26*
X235000000Y-55000000D03*
D25*
X236697056Y-56697056D03*
X237400000Y-55000000D03*
X232600000Y-55000000D03*
X235000000Y-52600000D03*
X233302944Y-53302944D03*
X235000000Y-57400000D03*
D27*
X146000000Y-65000000D03*
D13*
X146000000Y-67540000D03*
X146000000Y-70080000D03*
X146000000Y-72620000D03*
X146000000Y-75160000D03*
D16*
X166540000Y-56340000D03*
D17*
X164000000Y-73000000D03*
D18*
X166540000Y-73000000D03*
X169080000Y-73000000D03*
D28*
X212090000Y-70887500D03*
X212090000Y-68812500D03*
D29*
X212090000Y-63732500D03*
X212090000Y-65807500D03*
D30*
X245445000Y-91040000D03*
X247520000Y-91040000D03*
X261490000Y-93580000D03*
X263565000Y-93580000D03*
X245212500Y-68180000D03*
X247287500Y-68180000D03*
X261722500Y-70720000D03*
X263797500Y-70720000D03*
D31*
X197037500Y-113000000D03*
X194962500Y-113000000D03*
D29*
X200000000Y-106962500D03*
X200000000Y-109037500D03*
X200000000Y-101962500D03*
X200000000Y-104037500D03*
D30*
X200000000Y-99060000D03*
X202075000Y-99060000D03*
D32*
X142000000Y-87000000D03*
D33*
X142000000Y-89540000D03*
X142000000Y-84460000D03*
D34*
X172600000Y-88112500D03*
X172600000Y-86287500D03*
D35*
X168000000Y-98550000D03*
X168000000Y-95450000D03*
D30*
X199962500Y-96520000D03*
X202037500Y-96520000D03*
D35*
X164000000Y-78550000D03*
X164000000Y-75450000D03*
G36*
X279942121Y-50020002D02*
G01*
X279988614Y-50073658D01*
X280000000Y-50126000D01*
X280000000Y-52128000D01*
X279979998Y-52196121D01*
X279926342Y-52242614D01*
X279874000Y-52254000D01*
X278126000Y-52254000D01*
X278057879Y-52233998D01*
X278011386Y-52180342D01*
X278000000Y-52128000D01*
X278000000Y-52018115D01*
X277995525Y-52002876D01*
X277994135Y-52001671D01*
X277986452Y-52000000D01*
X142018115Y-52000000D01*
X142002876Y-52004475D01*
X142001671Y-52005865D01*
X142000000Y-52013548D01*
X142000000Y-52128000D01*
X141979998Y-52196121D01*
X141926342Y-52242614D01*
X141874000Y-52254000D01*
X140126000Y-52254000D01*
X140057879Y-52233998D01*
X140011386Y-52180342D01*
X140000000Y-52128000D01*
X140000000Y-50126000D01*
X140020002Y-50057879D01*
X140073658Y-50011386D01*
X140126000Y-50000000D01*
X279874000Y-50000000D01*
X279942121Y-50020002D01*
G37*
G36*
X142003094Y-51746152D02*
G01*
X142018709Y-51746919D01*
X142031018Y-51748131D01*
X142039329Y-51749364D01*
X142103777Y-51779146D01*
X142141892Y-51839044D01*
X142141574Y-51910040D01*
X142102923Y-51969593D01*
X142038210Y-51998797D01*
X142020838Y-52000000D01*
X142018115Y-52000000D01*
X142002876Y-52004475D01*
X142001671Y-52005865D01*
X142000000Y-52013548D01*
X142000000Y-122981885D01*
X142004475Y-122997124D01*
X142005865Y-122998329D01*
X142013548Y-123000000D01*
X277981885Y-123000000D01*
X277997124Y-122995525D01*
X277998329Y-122994135D01*
X278000000Y-122986452D01*
X278000000Y-52018115D01*
X277995525Y-52002876D01*
X277994135Y-52001671D01*
X277986452Y-52000000D01*
X277979162Y-52000000D01*
X277911041Y-51979998D01*
X277864548Y-51926342D01*
X277854444Y-51856068D01*
X277883938Y-51791488D01*
X277943664Y-51753104D01*
X277960671Y-51749364D01*
X277968982Y-51748131D01*
X277981291Y-51746919D01*
X277996906Y-51746152D01*
X278003088Y-51746000D01*
X279874000Y-51746000D01*
X279942121Y-51766002D01*
X279988614Y-51819658D01*
X280000000Y-51872000D01*
X280000000Y-124874000D01*
X279979998Y-124942121D01*
X279926342Y-124988614D01*
X279874000Y-125000000D01*
X140126000Y-125000000D01*
X140057879Y-124979998D01*
X140011386Y-124926342D01*
X140000000Y-124874000D01*
X140000000Y-51872000D01*
X140020002Y-51803879D01*
X140073658Y-51757386D01*
X140126000Y-51746000D01*
X141996912Y-51746000D01*
X142003094Y-51746152D01*
G37*
M02*
