G04 #@! TF.GenerationSoftware,KiCad,Pcbnew,(5.1.12)-1*
G04 #@! TF.CreationDate,2021-12-12T15:41:07+01:00*
G04 #@! TF.ProjectId,AWG,4157472e-6b69-4636-9164-5f7063625858,rev?*
G04 #@! TF.SameCoordinates,Original*
G04 #@! TF.FileFunction,Paste,Top*
G04 #@! TF.FilePolarity,Positive*
%FSLAX46Y46*%
G04 Gerber Fmt 4.6, Leading zero omitted, Abs format (unit mm)*
G04 Created by KiCad (PCBNEW (5.1.12)-1) date 2021-12-12 15:41:07*
%MOMM*%
%LPD*%
G01*
G04 APERTURE LIST*
%ADD10R,4.000000X1.500000*%
%ADD11R,3.050000X2.750000*%
%ADD12R,2.200000X1.200000*%
%ADD13R,2.200000X1.500000*%
G04 APERTURE END LIST*
G36*
G01*
X224525000Y-100450000D02*
X225475000Y-100450000D01*
G75*
G02*
X225725000Y-100700000I0J-250000D01*
G01*
X225725000Y-101375000D01*
G75*
G02*
X225475000Y-101625000I-250000J0D01*
G01*
X224525000Y-101625000D01*
G75*
G02*
X224275000Y-101375000I0J250000D01*
G01*
X224275000Y-100700000D01*
G75*
G02*
X224525000Y-100450000I250000J0D01*
G01*
G37*
G36*
G01*
X224525000Y-98375000D02*
X225475000Y-98375000D01*
G75*
G02*
X225725000Y-98625000I0J-250000D01*
G01*
X225725000Y-99300000D01*
G75*
G02*
X225475000Y-99550000I-250000J0D01*
G01*
X224525000Y-99550000D01*
G75*
G02*
X224275000Y-99300000I0J250000D01*
G01*
X224275000Y-98625000D01*
G75*
G02*
X224525000Y-98375000I250000J0D01*
G01*
G37*
G36*
G01*
X175525000Y-81375000D02*
X176475000Y-81375000D01*
G75*
G02*
X176725000Y-81625000I0J-250000D01*
G01*
X176725000Y-82300000D01*
G75*
G02*
X176475000Y-82550000I-250000J0D01*
G01*
X175525000Y-82550000D01*
G75*
G02*
X175275000Y-82300000I0J250000D01*
G01*
X175275000Y-81625000D01*
G75*
G02*
X175525000Y-81375000I250000J0D01*
G01*
G37*
G36*
G01*
X175525000Y-83450000D02*
X176475000Y-83450000D01*
G75*
G02*
X176725000Y-83700000I0J-250000D01*
G01*
X176725000Y-84375000D01*
G75*
G02*
X176475000Y-84625000I-250000J0D01*
G01*
X175525000Y-84625000D01*
G75*
G02*
X175275000Y-84375000I0J250000D01*
G01*
X175275000Y-83700000D01*
G75*
G02*
X175525000Y-83450000I250000J0D01*
G01*
G37*
D10*
X142000000Y-84460000D03*
X142000000Y-89540000D03*
G36*
G01*
X190432500Y-88662500D02*
X190432500Y-89137500D01*
G75*
G02*
X190195000Y-89375000I-237500J0D01*
G01*
X189695000Y-89375000D01*
G75*
G02*
X189457500Y-89137500I0J237500D01*
G01*
X189457500Y-88662500D01*
G75*
G02*
X189695000Y-88425000I237500J0D01*
G01*
X190195000Y-88425000D01*
G75*
G02*
X190432500Y-88662500I0J-237500D01*
G01*
G37*
G36*
G01*
X192257500Y-88662500D02*
X192257500Y-89137500D01*
G75*
G02*
X192020000Y-89375000I-237500J0D01*
G01*
X191520000Y-89375000D01*
G75*
G02*
X191282500Y-89137500I0J237500D01*
G01*
X191282500Y-88662500D01*
G75*
G02*
X191520000Y-88425000I237500J0D01*
G01*
X192020000Y-88425000D01*
G75*
G02*
X192257500Y-88662500I0J-237500D01*
G01*
G37*
G36*
G01*
X191900000Y-86122500D02*
X191900000Y-86597500D01*
G75*
G02*
X191662500Y-86835000I-237500J0D01*
G01*
X191162500Y-86835000D01*
G75*
G02*
X190925000Y-86597500I0J237500D01*
G01*
X190925000Y-86122500D01*
G75*
G02*
X191162500Y-85885000I237500J0D01*
G01*
X191662500Y-85885000D01*
G75*
G02*
X191900000Y-86122500I0J-237500D01*
G01*
G37*
G36*
G01*
X190075000Y-86122500D02*
X190075000Y-86597500D01*
G75*
G02*
X189837500Y-86835000I-237500J0D01*
G01*
X189337500Y-86835000D01*
G75*
G02*
X189100000Y-86597500I0J237500D01*
G01*
X189100000Y-86122500D01*
G75*
G02*
X189337500Y-85885000I237500J0D01*
G01*
X189837500Y-85885000D01*
G75*
G02*
X190075000Y-86122500I0J-237500D01*
G01*
G37*
G36*
G01*
X190075000Y-83582500D02*
X190075000Y-84057500D01*
G75*
G02*
X189837500Y-84295000I-237500J0D01*
G01*
X189337500Y-84295000D01*
G75*
G02*
X189100000Y-84057500I0J237500D01*
G01*
X189100000Y-83582500D01*
G75*
G02*
X189337500Y-83345000I237500J0D01*
G01*
X189837500Y-83345000D01*
G75*
G02*
X190075000Y-83582500I0J-237500D01*
G01*
G37*
G36*
G01*
X191900000Y-83582500D02*
X191900000Y-84057500D01*
G75*
G02*
X191662500Y-84295000I-237500J0D01*
G01*
X191162500Y-84295000D01*
G75*
G02*
X190925000Y-84057500I0J237500D01*
G01*
X190925000Y-83582500D01*
G75*
G02*
X191162500Y-83345000I237500J0D01*
G01*
X191662500Y-83345000D01*
G75*
G02*
X191900000Y-83582500I0J-237500D01*
G01*
G37*
G36*
G01*
X192257500Y-81042500D02*
X192257500Y-81517500D01*
G75*
G02*
X192020000Y-81755000I-237500J0D01*
G01*
X191520000Y-81755000D01*
G75*
G02*
X191282500Y-81517500I0J237500D01*
G01*
X191282500Y-81042500D01*
G75*
G02*
X191520000Y-80805000I237500J0D01*
G01*
X192020000Y-80805000D01*
G75*
G02*
X192257500Y-81042500I0J-237500D01*
G01*
G37*
G36*
G01*
X190432500Y-81042500D02*
X190432500Y-81517500D01*
G75*
G02*
X190195000Y-81755000I-237500J0D01*
G01*
X189695000Y-81755000D01*
G75*
G02*
X189457500Y-81517500I0J237500D01*
G01*
X189457500Y-81042500D01*
G75*
G02*
X189695000Y-80805000I237500J0D01*
G01*
X190195000Y-80805000D01*
G75*
G02*
X190432500Y-81042500I0J-237500D01*
G01*
G37*
G36*
G01*
X190075000Y-75962500D02*
X190075000Y-76437500D01*
G75*
G02*
X189837500Y-76675000I-237500J0D01*
G01*
X189337500Y-76675000D01*
G75*
G02*
X189100000Y-76437500I0J237500D01*
G01*
X189100000Y-75962500D01*
G75*
G02*
X189337500Y-75725000I237500J0D01*
G01*
X189837500Y-75725000D01*
G75*
G02*
X190075000Y-75962500I0J-237500D01*
G01*
G37*
G36*
G01*
X191900000Y-75962500D02*
X191900000Y-76437500D01*
G75*
G02*
X191662500Y-76675000I-237500J0D01*
G01*
X191162500Y-76675000D01*
G75*
G02*
X190925000Y-76437500I0J237500D01*
G01*
X190925000Y-75962500D01*
G75*
G02*
X191162500Y-75725000I237500J0D01*
G01*
X191662500Y-75725000D01*
G75*
G02*
X191900000Y-75962500I0J-237500D01*
G01*
G37*
G36*
G01*
X191900000Y-73422500D02*
X191900000Y-73897500D01*
G75*
G02*
X191662500Y-74135000I-237500J0D01*
G01*
X191162500Y-74135000D01*
G75*
G02*
X190925000Y-73897500I0J237500D01*
G01*
X190925000Y-73422500D01*
G75*
G02*
X191162500Y-73185000I237500J0D01*
G01*
X191662500Y-73185000D01*
G75*
G02*
X191900000Y-73422500I0J-237500D01*
G01*
G37*
G36*
G01*
X190075000Y-73422500D02*
X190075000Y-73897500D01*
G75*
G02*
X189837500Y-74135000I-237500J0D01*
G01*
X189337500Y-74135000D01*
G75*
G02*
X189100000Y-73897500I0J237500D01*
G01*
X189100000Y-73422500D01*
G75*
G02*
X189337500Y-73185000I237500J0D01*
G01*
X189837500Y-73185000D01*
G75*
G02*
X190075000Y-73422500I0J-237500D01*
G01*
G37*
G36*
G01*
X190075000Y-70882500D02*
X190075000Y-71357500D01*
G75*
G02*
X189837500Y-71595000I-237500J0D01*
G01*
X189337500Y-71595000D01*
G75*
G02*
X189100000Y-71357500I0J237500D01*
G01*
X189100000Y-70882500D01*
G75*
G02*
X189337500Y-70645000I237500J0D01*
G01*
X189837500Y-70645000D01*
G75*
G02*
X190075000Y-70882500I0J-237500D01*
G01*
G37*
G36*
G01*
X191900000Y-70882500D02*
X191900000Y-71357500D01*
G75*
G02*
X191662500Y-71595000I-237500J0D01*
G01*
X191162500Y-71595000D01*
G75*
G02*
X190925000Y-71357500I0J237500D01*
G01*
X190925000Y-70882500D01*
G75*
G02*
X191162500Y-70645000I237500J0D01*
G01*
X191662500Y-70645000D01*
G75*
G02*
X191900000Y-70882500I0J-237500D01*
G01*
G37*
G36*
G01*
X191900000Y-68342500D02*
X191900000Y-68817500D01*
G75*
G02*
X191662500Y-69055000I-237500J0D01*
G01*
X191162500Y-69055000D01*
G75*
G02*
X190925000Y-68817500I0J237500D01*
G01*
X190925000Y-68342500D01*
G75*
G02*
X191162500Y-68105000I237500J0D01*
G01*
X191662500Y-68105000D01*
G75*
G02*
X191900000Y-68342500I0J-237500D01*
G01*
G37*
G36*
G01*
X190075000Y-68342500D02*
X190075000Y-68817500D01*
G75*
G02*
X189837500Y-69055000I-237500J0D01*
G01*
X189337500Y-69055000D01*
G75*
G02*
X189100000Y-68817500I0J237500D01*
G01*
X189100000Y-68342500D01*
G75*
G02*
X189337500Y-68105000I237500J0D01*
G01*
X189837500Y-68105000D01*
G75*
G02*
X190075000Y-68342500I0J-237500D01*
G01*
G37*
G36*
G01*
X190432500Y-63262500D02*
X190432500Y-63737500D01*
G75*
G02*
X190195000Y-63975000I-237500J0D01*
G01*
X189695000Y-63975000D01*
G75*
G02*
X189457500Y-63737500I0J237500D01*
G01*
X189457500Y-63262500D01*
G75*
G02*
X189695000Y-63025000I237500J0D01*
G01*
X190195000Y-63025000D01*
G75*
G02*
X190432500Y-63262500I0J-237500D01*
G01*
G37*
G36*
G01*
X192257500Y-63262500D02*
X192257500Y-63737500D01*
G75*
G02*
X192020000Y-63975000I-237500J0D01*
G01*
X191520000Y-63975000D01*
G75*
G02*
X191282500Y-63737500I0J237500D01*
G01*
X191282500Y-63262500D01*
G75*
G02*
X191520000Y-63025000I237500J0D01*
G01*
X192020000Y-63025000D01*
G75*
G02*
X192257500Y-63262500I0J-237500D01*
G01*
G37*
G36*
G01*
X192762500Y-58600000D02*
X193237500Y-58600000D01*
G75*
G02*
X193475000Y-58837500I0J-237500D01*
G01*
X193475000Y-59337500D01*
G75*
G02*
X193237500Y-59575000I-237500J0D01*
G01*
X192762500Y-59575000D01*
G75*
G02*
X192525000Y-59337500I0J237500D01*
G01*
X192525000Y-58837500D01*
G75*
G02*
X192762500Y-58600000I237500J0D01*
G01*
G37*
G36*
G01*
X192762500Y-60425000D02*
X193237500Y-60425000D01*
G75*
G02*
X193475000Y-60662500I0J-237500D01*
G01*
X193475000Y-61162500D01*
G75*
G02*
X193237500Y-61400000I-237500J0D01*
G01*
X192762500Y-61400000D01*
G75*
G02*
X192525000Y-61162500I0J237500D01*
G01*
X192525000Y-60662500D01*
G75*
G02*
X192762500Y-60425000I237500J0D01*
G01*
G37*
G36*
G01*
X186927500Y-88475000D02*
X186452500Y-88475000D01*
G75*
G02*
X186215000Y-88237500I0J237500D01*
G01*
X186215000Y-87737500D01*
G75*
G02*
X186452500Y-87500000I237500J0D01*
G01*
X186927500Y-87500000D01*
G75*
G02*
X187165000Y-87737500I0J-237500D01*
G01*
X187165000Y-88237500D01*
G75*
G02*
X186927500Y-88475000I-237500J0D01*
G01*
G37*
G36*
G01*
X186927500Y-90300000D02*
X186452500Y-90300000D01*
G75*
G02*
X186215000Y-90062500I0J237500D01*
G01*
X186215000Y-89562500D01*
G75*
G02*
X186452500Y-89325000I237500J0D01*
G01*
X186927500Y-89325000D01*
G75*
G02*
X187165000Y-89562500I0J-237500D01*
G01*
X187165000Y-90062500D01*
G75*
G02*
X186927500Y-90300000I-237500J0D01*
G01*
G37*
G36*
G01*
X186927500Y-84665000D02*
X186452500Y-84665000D01*
G75*
G02*
X186215000Y-84427500I0J237500D01*
G01*
X186215000Y-83927500D01*
G75*
G02*
X186452500Y-83690000I237500J0D01*
G01*
X186927500Y-83690000D01*
G75*
G02*
X187165000Y-83927500I0J-237500D01*
G01*
X187165000Y-84427500D01*
G75*
G02*
X186927500Y-84665000I-237500J0D01*
G01*
G37*
G36*
G01*
X186927500Y-86490000D02*
X186452500Y-86490000D01*
G75*
G02*
X186215000Y-86252500I0J237500D01*
G01*
X186215000Y-85752500D01*
G75*
G02*
X186452500Y-85515000I237500J0D01*
G01*
X186927500Y-85515000D01*
G75*
G02*
X187165000Y-85752500I0J-237500D01*
G01*
X187165000Y-86252500D01*
G75*
G02*
X186927500Y-86490000I-237500J0D01*
G01*
G37*
G36*
G01*
X186927500Y-82680000D02*
X186452500Y-82680000D01*
G75*
G02*
X186215000Y-82442500I0J237500D01*
G01*
X186215000Y-81942500D01*
G75*
G02*
X186452500Y-81705000I237500J0D01*
G01*
X186927500Y-81705000D01*
G75*
G02*
X187165000Y-81942500I0J-237500D01*
G01*
X187165000Y-82442500D01*
G75*
G02*
X186927500Y-82680000I-237500J0D01*
G01*
G37*
G36*
G01*
X186927500Y-80855000D02*
X186452500Y-80855000D01*
G75*
G02*
X186215000Y-80617500I0J237500D01*
G01*
X186215000Y-80117500D01*
G75*
G02*
X186452500Y-79880000I237500J0D01*
G01*
X186927500Y-79880000D01*
G75*
G02*
X187165000Y-80117500I0J-237500D01*
G01*
X187165000Y-80617500D01*
G75*
G02*
X186927500Y-80855000I-237500J0D01*
G01*
G37*
G36*
G01*
X186927500Y-77045000D02*
X186452500Y-77045000D01*
G75*
G02*
X186215000Y-76807500I0J237500D01*
G01*
X186215000Y-76307500D01*
G75*
G02*
X186452500Y-76070000I237500J0D01*
G01*
X186927500Y-76070000D01*
G75*
G02*
X187165000Y-76307500I0J-237500D01*
G01*
X187165000Y-76807500D01*
G75*
G02*
X186927500Y-77045000I-237500J0D01*
G01*
G37*
G36*
G01*
X186927500Y-78870000D02*
X186452500Y-78870000D01*
G75*
G02*
X186215000Y-78632500I0J237500D01*
G01*
X186215000Y-78132500D01*
G75*
G02*
X186452500Y-77895000I237500J0D01*
G01*
X186927500Y-77895000D01*
G75*
G02*
X187165000Y-78132500I0J-237500D01*
G01*
X187165000Y-78632500D01*
G75*
G02*
X186927500Y-78870000I-237500J0D01*
G01*
G37*
G36*
G01*
X186927500Y-75060000D02*
X186452500Y-75060000D01*
G75*
G02*
X186215000Y-74822500I0J237500D01*
G01*
X186215000Y-74322500D01*
G75*
G02*
X186452500Y-74085000I237500J0D01*
G01*
X186927500Y-74085000D01*
G75*
G02*
X187165000Y-74322500I0J-237500D01*
G01*
X187165000Y-74822500D01*
G75*
G02*
X186927500Y-75060000I-237500J0D01*
G01*
G37*
G36*
G01*
X186927500Y-73235000D02*
X186452500Y-73235000D01*
G75*
G02*
X186215000Y-72997500I0J237500D01*
G01*
X186215000Y-72497500D01*
G75*
G02*
X186452500Y-72260000I237500J0D01*
G01*
X186927500Y-72260000D01*
G75*
G02*
X187165000Y-72497500I0J-237500D01*
G01*
X187165000Y-72997500D01*
G75*
G02*
X186927500Y-73235000I-237500J0D01*
G01*
G37*
G36*
G01*
X186927500Y-69425000D02*
X186452500Y-69425000D01*
G75*
G02*
X186215000Y-69187500I0J237500D01*
G01*
X186215000Y-68687500D01*
G75*
G02*
X186452500Y-68450000I237500J0D01*
G01*
X186927500Y-68450000D01*
G75*
G02*
X187165000Y-68687500I0J-237500D01*
G01*
X187165000Y-69187500D01*
G75*
G02*
X186927500Y-69425000I-237500J0D01*
G01*
G37*
G36*
G01*
X186927500Y-71250000D02*
X186452500Y-71250000D01*
G75*
G02*
X186215000Y-71012500I0J237500D01*
G01*
X186215000Y-70512500D01*
G75*
G02*
X186452500Y-70275000I237500J0D01*
G01*
X186927500Y-70275000D01*
G75*
G02*
X187165000Y-70512500I0J-237500D01*
G01*
X187165000Y-71012500D01*
G75*
G02*
X186927500Y-71250000I-237500J0D01*
G01*
G37*
G36*
G01*
X186927500Y-67440000D02*
X186452500Y-67440000D01*
G75*
G02*
X186215000Y-67202500I0J237500D01*
G01*
X186215000Y-66702500D01*
G75*
G02*
X186452500Y-66465000I237500J0D01*
G01*
X186927500Y-66465000D01*
G75*
G02*
X187165000Y-66702500I0J-237500D01*
G01*
X187165000Y-67202500D01*
G75*
G02*
X186927500Y-67440000I-237500J0D01*
G01*
G37*
G36*
G01*
X186927500Y-65615000D02*
X186452500Y-65615000D01*
G75*
G02*
X186215000Y-65377500I0J237500D01*
G01*
X186215000Y-64877500D01*
G75*
G02*
X186452500Y-64640000I237500J0D01*
G01*
X186927500Y-64640000D01*
G75*
G02*
X187165000Y-64877500I0J-237500D01*
G01*
X187165000Y-65377500D01*
G75*
G02*
X186927500Y-65615000I-237500J0D01*
G01*
G37*
G36*
G01*
X186927500Y-61805000D02*
X186452500Y-61805000D01*
G75*
G02*
X186215000Y-61567500I0J237500D01*
G01*
X186215000Y-61067500D01*
G75*
G02*
X186452500Y-60830000I237500J0D01*
G01*
X186927500Y-60830000D01*
G75*
G02*
X187165000Y-61067500I0J-237500D01*
G01*
X187165000Y-61567500D01*
G75*
G02*
X186927500Y-61805000I-237500J0D01*
G01*
G37*
G36*
G01*
X186927500Y-63630000D02*
X186452500Y-63630000D01*
G75*
G02*
X186215000Y-63392500I0J237500D01*
G01*
X186215000Y-62892500D01*
G75*
G02*
X186452500Y-62655000I237500J0D01*
G01*
X186927500Y-62655000D01*
G75*
G02*
X187165000Y-62892500I0J-237500D01*
G01*
X187165000Y-63392500D01*
G75*
G02*
X186927500Y-63630000I-237500J0D01*
G01*
G37*
G36*
G01*
X188762500Y-58687500D02*
X189237500Y-58687500D01*
G75*
G02*
X189475000Y-58925000I0J-237500D01*
G01*
X189475000Y-59425000D01*
G75*
G02*
X189237500Y-59662500I-237500J0D01*
G01*
X188762500Y-59662500D01*
G75*
G02*
X188525000Y-59425000I0J237500D01*
G01*
X188525000Y-58925000D01*
G75*
G02*
X188762500Y-58687500I237500J0D01*
G01*
G37*
G36*
G01*
X188762500Y-60512500D02*
X189237500Y-60512500D01*
G75*
G02*
X189475000Y-60750000I0J-237500D01*
G01*
X189475000Y-61250000D01*
G75*
G02*
X189237500Y-61487500I-237500J0D01*
G01*
X188762500Y-61487500D01*
G75*
G02*
X188525000Y-61250000I0J237500D01*
G01*
X188525000Y-60750000D01*
G75*
G02*
X188762500Y-60512500I237500J0D01*
G01*
G37*
G36*
G01*
X191237500Y-59575000D02*
X190762500Y-59575000D01*
G75*
G02*
X190525000Y-59337500I0J237500D01*
G01*
X190525000Y-58837500D01*
G75*
G02*
X190762500Y-58600000I237500J0D01*
G01*
X191237500Y-58600000D01*
G75*
G02*
X191475000Y-58837500I0J-237500D01*
G01*
X191475000Y-59337500D01*
G75*
G02*
X191237500Y-59575000I-237500J0D01*
G01*
G37*
G36*
G01*
X191237500Y-61400000D02*
X190762500Y-61400000D01*
G75*
G02*
X190525000Y-61162500I0J237500D01*
G01*
X190525000Y-60662500D01*
G75*
G02*
X190762500Y-60425000I237500J0D01*
G01*
X191237500Y-60425000D01*
G75*
G02*
X191475000Y-60662500I0J-237500D01*
G01*
X191475000Y-61162500D01*
G75*
G02*
X191237500Y-61400000I-237500J0D01*
G01*
G37*
G36*
G01*
X179637500Y-83000000D02*
X179162500Y-83000000D01*
G75*
G02*
X178925000Y-82762500I0J237500D01*
G01*
X178925000Y-82262500D01*
G75*
G02*
X179162500Y-82025000I237500J0D01*
G01*
X179637500Y-82025000D01*
G75*
G02*
X179875000Y-82262500I0J-237500D01*
G01*
X179875000Y-82762500D01*
G75*
G02*
X179637500Y-83000000I-237500J0D01*
G01*
G37*
G36*
G01*
X179637500Y-81175000D02*
X179162500Y-81175000D01*
G75*
G02*
X178925000Y-80937500I0J237500D01*
G01*
X178925000Y-80437500D01*
G75*
G02*
X179162500Y-80200000I237500J0D01*
G01*
X179637500Y-80200000D01*
G75*
G02*
X179875000Y-80437500I0J-237500D01*
G01*
X179875000Y-80937500D01*
G75*
G02*
X179637500Y-81175000I-237500J0D01*
G01*
G37*
G36*
G01*
X177442500Y-89285000D02*
X177917500Y-89285000D01*
G75*
G02*
X178155000Y-89522500I0J-237500D01*
G01*
X178155000Y-90022500D01*
G75*
G02*
X177917500Y-90260000I-237500J0D01*
G01*
X177442500Y-90260000D01*
G75*
G02*
X177205000Y-90022500I0J237500D01*
G01*
X177205000Y-89522500D01*
G75*
G02*
X177442500Y-89285000I237500J0D01*
G01*
G37*
G36*
G01*
X177442500Y-87460000D02*
X177917500Y-87460000D01*
G75*
G02*
X178155000Y-87697500I0J-237500D01*
G01*
X178155000Y-88197500D01*
G75*
G02*
X177917500Y-88435000I-237500J0D01*
G01*
X177442500Y-88435000D01*
G75*
G02*
X177205000Y-88197500I0J237500D01*
G01*
X177205000Y-87697500D01*
G75*
G02*
X177442500Y-87460000I237500J0D01*
G01*
G37*
G36*
G01*
X174000000Y-82762500D02*
X174000000Y-83237500D01*
G75*
G02*
X173762500Y-83475000I-237500J0D01*
G01*
X173262500Y-83475000D01*
G75*
G02*
X173025000Y-83237500I0J237500D01*
G01*
X173025000Y-82762500D01*
G75*
G02*
X173262500Y-82525000I237500J0D01*
G01*
X173762500Y-82525000D01*
G75*
G02*
X174000000Y-82762500I0J-237500D01*
G01*
G37*
G36*
G01*
X172175000Y-82762500D02*
X172175000Y-83237500D01*
G75*
G02*
X171937500Y-83475000I-237500J0D01*
G01*
X171437500Y-83475000D01*
G75*
G02*
X171200000Y-83237500I0J237500D01*
G01*
X171200000Y-82762500D01*
G75*
G02*
X171437500Y-82525000I237500J0D01*
G01*
X171937500Y-82525000D01*
G75*
G02*
X172175000Y-82762500I0J-237500D01*
G01*
G37*
G36*
G01*
X167262500Y-87925000D02*
X167737500Y-87925000D01*
G75*
G02*
X167975000Y-88162500I0J-237500D01*
G01*
X167975000Y-88662500D01*
G75*
G02*
X167737500Y-88900000I-237500J0D01*
G01*
X167262500Y-88900000D01*
G75*
G02*
X167025000Y-88662500I0J237500D01*
G01*
X167025000Y-88162500D01*
G75*
G02*
X167262500Y-87925000I237500J0D01*
G01*
G37*
G36*
G01*
X167262500Y-86100000D02*
X167737500Y-86100000D01*
G75*
G02*
X167975000Y-86337500I0J-237500D01*
G01*
X167975000Y-86837500D01*
G75*
G02*
X167737500Y-87075000I-237500J0D01*
G01*
X167262500Y-87075000D01*
G75*
G02*
X167025000Y-86837500I0J237500D01*
G01*
X167025000Y-86337500D01*
G75*
G02*
X167262500Y-86100000I237500J0D01*
G01*
G37*
G36*
G01*
X173225000Y-98237500D02*
X173225000Y-97762500D01*
G75*
G02*
X173462500Y-97525000I237500J0D01*
G01*
X173962500Y-97525000D01*
G75*
G02*
X174200000Y-97762500I0J-237500D01*
G01*
X174200000Y-98237500D01*
G75*
G02*
X173962500Y-98475000I-237500J0D01*
G01*
X173462500Y-98475000D01*
G75*
G02*
X173225000Y-98237500I0J237500D01*
G01*
G37*
G36*
G01*
X171400000Y-98237500D02*
X171400000Y-97762500D01*
G75*
G02*
X171637500Y-97525000I237500J0D01*
G01*
X172137500Y-97525000D01*
G75*
G02*
X172375000Y-97762500I0J-237500D01*
G01*
X172375000Y-98237500D01*
G75*
G02*
X172137500Y-98475000I-237500J0D01*
G01*
X171637500Y-98475000D01*
G75*
G02*
X171400000Y-98237500I0J237500D01*
G01*
G37*
G36*
G01*
X172000000Y-76762500D02*
X172000000Y-77237500D01*
G75*
G02*
X171762500Y-77475000I-237500J0D01*
G01*
X171262500Y-77475000D01*
G75*
G02*
X171025000Y-77237500I0J237500D01*
G01*
X171025000Y-76762500D01*
G75*
G02*
X171262500Y-76525000I237500J0D01*
G01*
X171762500Y-76525000D01*
G75*
G02*
X172000000Y-76762500I0J-237500D01*
G01*
G37*
G36*
G01*
X170175000Y-76762500D02*
X170175000Y-77237500D01*
G75*
G02*
X169937500Y-77475000I-237500J0D01*
G01*
X169437500Y-77475000D01*
G75*
G02*
X169200000Y-77237500I0J237500D01*
G01*
X169200000Y-76762500D01*
G75*
G02*
X169437500Y-76525000I237500J0D01*
G01*
X169937500Y-76525000D01*
G75*
G02*
X170175000Y-76762500I0J-237500D01*
G01*
G37*
G36*
G01*
X193170000Y-96282500D02*
X193170000Y-96757500D01*
G75*
G02*
X192932500Y-96995000I-237500J0D01*
G01*
X192432500Y-96995000D01*
G75*
G02*
X192195000Y-96757500I0J237500D01*
G01*
X192195000Y-96282500D01*
G75*
G02*
X192432500Y-96045000I237500J0D01*
G01*
X192932500Y-96045000D01*
G75*
G02*
X193170000Y-96282500I0J-237500D01*
G01*
G37*
G36*
G01*
X191345000Y-96282500D02*
X191345000Y-96757500D01*
G75*
G02*
X191107500Y-96995000I-237500J0D01*
G01*
X190607500Y-96995000D01*
G75*
G02*
X190370000Y-96757500I0J237500D01*
G01*
X190370000Y-96282500D01*
G75*
G02*
X190607500Y-96045000I237500J0D01*
G01*
X191107500Y-96045000D01*
G75*
G02*
X191345000Y-96282500I0J-237500D01*
G01*
G37*
G36*
G01*
X191345000Y-98822500D02*
X191345000Y-99297500D01*
G75*
G02*
X191107500Y-99535000I-237500J0D01*
G01*
X190607500Y-99535000D01*
G75*
G02*
X190370000Y-99297500I0J237500D01*
G01*
X190370000Y-98822500D01*
G75*
G02*
X190607500Y-98585000I237500J0D01*
G01*
X191107500Y-98585000D01*
G75*
G02*
X191345000Y-98822500I0J-237500D01*
G01*
G37*
G36*
G01*
X193170000Y-98822500D02*
X193170000Y-99297500D01*
G75*
G02*
X192932500Y-99535000I-237500J0D01*
G01*
X192432500Y-99535000D01*
G75*
G02*
X192195000Y-99297500I0J237500D01*
G01*
X192195000Y-98822500D01*
G75*
G02*
X192432500Y-98585000I237500J0D01*
G01*
X192932500Y-98585000D01*
G75*
G02*
X193170000Y-98822500I0J-237500D01*
G01*
G37*
G36*
G01*
X193170000Y-101362500D02*
X193170000Y-101837500D01*
G75*
G02*
X192932500Y-102075000I-237500J0D01*
G01*
X192432500Y-102075000D01*
G75*
G02*
X192195000Y-101837500I0J237500D01*
G01*
X192195000Y-101362500D01*
G75*
G02*
X192432500Y-101125000I237500J0D01*
G01*
X192932500Y-101125000D01*
G75*
G02*
X193170000Y-101362500I0J-237500D01*
G01*
G37*
G36*
G01*
X191345000Y-101362500D02*
X191345000Y-101837500D01*
G75*
G02*
X191107500Y-102075000I-237500J0D01*
G01*
X190607500Y-102075000D01*
G75*
G02*
X190370000Y-101837500I0J237500D01*
G01*
X190370000Y-101362500D01*
G75*
G02*
X190607500Y-101125000I237500J0D01*
G01*
X191107500Y-101125000D01*
G75*
G02*
X191345000Y-101362500I0J-237500D01*
G01*
G37*
G36*
G01*
X191345000Y-106442500D02*
X191345000Y-106917500D01*
G75*
G02*
X191107500Y-107155000I-237500J0D01*
G01*
X190607500Y-107155000D01*
G75*
G02*
X190370000Y-106917500I0J237500D01*
G01*
X190370000Y-106442500D01*
G75*
G02*
X190607500Y-106205000I237500J0D01*
G01*
X191107500Y-106205000D01*
G75*
G02*
X191345000Y-106442500I0J-237500D01*
G01*
G37*
G36*
G01*
X193170000Y-106442500D02*
X193170000Y-106917500D01*
G75*
G02*
X192932500Y-107155000I-237500J0D01*
G01*
X192432500Y-107155000D01*
G75*
G02*
X192195000Y-106917500I0J237500D01*
G01*
X192195000Y-106442500D01*
G75*
G02*
X192432500Y-106205000I237500J0D01*
G01*
X192932500Y-106205000D01*
G75*
G02*
X193170000Y-106442500I0J-237500D01*
G01*
G37*
G36*
G01*
X193170000Y-108982500D02*
X193170000Y-109457500D01*
G75*
G02*
X192932500Y-109695000I-237500J0D01*
G01*
X192432500Y-109695000D01*
G75*
G02*
X192195000Y-109457500I0J237500D01*
G01*
X192195000Y-108982500D01*
G75*
G02*
X192432500Y-108745000I237500J0D01*
G01*
X192932500Y-108745000D01*
G75*
G02*
X193170000Y-108982500I0J-237500D01*
G01*
G37*
G36*
G01*
X191345000Y-108982500D02*
X191345000Y-109457500D01*
G75*
G02*
X191107500Y-109695000I-237500J0D01*
G01*
X190607500Y-109695000D01*
G75*
G02*
X190370000Y-109457500I0J237500D01*
G01*
X190370000Y-108982500D01*
G75*
G02*
X190607500Y-108745000I237500J0D01*
G01*
X191107500Y-108745000D01*
G75*
G02*
X191345000Y-108982500I0J-237500D01*
G01*
G37*
G36*
G01*
X176050000Y-89345000D02*
X176050000Y-89645000D01*
G75*
G02*
X175900000Y-89795000I-150000J0D01*
G01*
X174450000Y-89795000D01*
G75*
G02*
X174300000Y-89645000I0J150000D01*
G01*
X174300000Y-89345000D01*
G75*
G02*
X174450000Y-89195000I150000J0D01*
G01*
X175900000Y-89195000D01*
G75*
G02*
X176050000Y-89345000I0J-150000D01*
G01*
G37*
G36*
G01*
X176050000Y-88075000D02*
X176050000Y-88375000D01*
G75*
G02*
X175900000Y-88525000I-150000J0D01*
G01*
X174450000Y-88525000D01*
G75*
G02*
X174300000Y-88375000I0J150000D01*
G01*
X174300000Y-88075000D01*
G75*
G02*
X174450000Y-87925000I150000J0D01*
G01*
X175900000Y-87925000D01*
G75*
G02*
X176050000Y-88075000I0J-150000D01*
G01*
G37*
G36*
G01*
X176050000Y-86805000D02*
X176050000Y-87105000D01*
G75*
G02*
X175900000Y-87255000I-150000J0D01*
G01*
X174450000Y-87255000D01*
G75*
G02*
X174300000Y-87105000I0J150000D01*
G01*
X174300000Y-86805000D01*
G75*
G02*
X174450000Y-86655000I150000J0D01*
G01*
X175900000Y-86655000D01*
G75*
G02*
X176050000Y-86805000I0J-150000D01*
G01*
G37*
G36*
G01*
X176050000Y-85535000D02*
X176050000Y-85835000D01*
G75*
G02*
X175900000Y-85985000I-150000J0D01*
G01*
X174450000Y-85985000D01*
G75*
G02*
X174300000Y-85835000I0J150000D01*
G01*
X174300000Y-85535000D01*
G75*
G02*
X174450000Y-85385000I150000J0D01*
G01*
X175900000Y-85385000D01*
G75*
G02*
X176050000Y-85535000I0J-150000D01*
G01*
G37*
G36*
G01*
X170900000Y-85535000D02*
X170900000Y-85835000D01*
G75*
G02*
X170750000Y-85985000I-150000J0D01*
G01*
X169300000Y-85985000D01*
G75*
G02*
X169150000Y-85835000I0J150000D01*
G01*
X169150000Y-85535000D01*
G75*
G02*
X169300000Y-85385000I150000J0D01*
G01*
X170750000Y-85385000D01*
G75*
G02*
X170900000Y-85535000I0J-150000D01*
G01*
G37*
G36*
G01*
X170900000Y-86805000D02*
X170900000Y-87105000D01*
G75*
G02*
X170750000Y-87255000I-150000J0D01*
G01*
X169300000Y-87255000D01*
G75*
G02*
X169150000Y-87105000I0J150000D01*
G01*
X169150000Y-86805000D01*
G75*
G02*
X169300000Y-86655000I150000J0D01*
G01*
X170750000Y-86655000D01*
G75*
G02*
X170900000Y-86805000I0J-150000D01*
G01*
G37*
G36*
G01*
X170900000Y-88075000D02*
X170900000Y-88375000D01*
G75*
G02*
X170750000Y-88525000I-150000J0D01*
G01*
X169300000Y-88525000D01*
G75*
G02*
X169150000Y-88375000I0J150000D01*
G01*
X169150000Y-88075000D01*
G75*
G02*
X169300000Y-87925000I150000J0D01*
G01*
X170750000Y-87925000D01*
G75*
G02*
X170900000Y-88075000I0J-150000D01*
G01*
G37*
G36*
G01*
X170900000Y-89345000D02*
X170900000Y-89645000D01*
G75*
G02*
X170750000Y-89795000I-150000J0D01*
G01*
X169300000Y-89795000D01*
G75*
G02*
X169150000Y-89645000I0J150000D01*
G01*
X169150000Y-89345000D01*
G75*
G02*
X169300000Y-89195000I150000J0D01*
G01*
X170750000Y-89195000D01*
G75*
G02*
X170900000Y-89345000I0J-150000D01*
G01*
G37*
D11*
X245825000Y-98405000D03*
X242475000Y-101455000D03*
X245825000Y-101455000D03*
X242475000Y-98405000D03*
D12*
X250450000Y-97650000D03*
X250450000Y-102210000D03*
X250450000Y-80620000D03*
X250450000Y-76060000D03*
D11*
X242475000Y-76815000D03*
X245825000Y-79865000D03*
X242475000Y-79865000D03*
X245825000Y-76815000D03*
X263185000Y-101455000D03*
X266535000Y-98405000D03*
X263185000Y-98405000D03*
X266535000Y-101455000D03*
D12*
X258560000Y-102210000D03*
X258560000Y-97650000D03*
X259000000Y-74790000D03*
X259000000Y-79350000D03*
D11*
X266975000Y-78595000D03*
X263625000Y-75545000D03*
X266975000Y-75545000D03*
X263625000Y-78595000D03*
D13*
X171050000Y-95000000D03*
X173950000Y-95000000D03*
X171050000Y-80000000D03*
X173950000Y-80000000D03*
G36*
G01*
X179325000Y-86975000D02*
X180275000Y-86975000D01*
G75*
G02*
X180525000Y-87225000I0J-250000D01*
G01*
X180525000Y-87900000D01*
G75*
G02*
X180275000Y-88150000I-250000J0D01*
G01*
X179325000Y-88150000D01*
G75*
G02*
X179075000Y-87900000I0J250000D01*
G01*
X179075000Y-87225000D01*
G75*
G02*
X179325000Y-86975000I250000J0D01*
G01*
G37*
G36*
G01*
X179325000Y-89050000D02*
X180275000Y-89050000D01*
G75*
G02*
X180525000Y-89300000I0J-250000D01*
G01*
X180525000Y-89975000D01*
G75*
G02*
X180275000Y-90225000I-250000J0D01*
G01*
X179325000Y-90225000D01*
G75*
G02*
X179075000Y-89975000I0J250000D01*
G01*
X179075000Y-89300000D01*
G75*
G02*
X179325000Y-89050000I250000J0D01*
G01*
G37*
G36*
G01*
X181149998Y-80275000D02*
X184050002Y-80275000D01*
G75*
G02*
X184300000Y-80524998I0J-249998D01*
G01*
X184300000Y-81600002D01*
G75*
G02*
X184050002Y-81850000I-249998J0D01*
G01*
X181149998Y-81850000D01*
G75*
G02*
X180900000Y-81600002I0J249998D01*
G01*
X180900000Y-80524998D01*
G75*
G02*
X181149998Y-80275000I249998J0D01*
G01*
G37*
G36*
G01*
X181149998Y-84550000D02*
X184050002Y-84550000D01*
G75*
G02*
X184300000Y-84799998I0J-249998D01*
G01*
X184300000Y-85875002D01*
G75*
G02*
X184050002Y-86125000I-249998J0D01*
G01*
X181149998Y-86125000D01*
G75*
G02*
X180900000Y-85875002I0J249998D01*
G01*
X180900000Y-84799998D01*
G75*
G02*
X181149998Y-84550000I249998J0D01*
G01*
G37*
M02*
