%TF.GenerationSoftware,KiCad,Pcbnew,7.0.7*%
%TF.CreationDate,2023-12-01T19:11:35+01:00*%
%TF.ProjectId,AWG,4157472e-6b69-4636-9164-5f7063625858,rev?*%
%TF.SameCoordinates,Original*%
%TF.FileFunction,Drillmap*%
%TF.FilePolarity,Positive*%
%FSLAX45Y45*%
G04 Gerber Fmt 4.5, Leading zero omitted, Abs format (unit mm)*
G04 Created by KiCad (PCBNEW 7.0.7) date 2023-12-01 19:11:35*
%MOMM*%
%LPD*%
G01*
G04 APERTURE LIST*
%ADD10C,0.050000*%
%ADD11C,0.200000*%
%ADD12C,0.150000*%
%ADD13C,0.180000*%
%ADD14C,0.350000*%
%ADD15C,0.400000*%
G04 APERTURE END LIST*
D10*
X14000000Y-12500000D02*
X14000000Y-5000000D01*
X14000000Y-5000000D02*
X28000000Y-5000000D01*
X28000000Y-5000000D02*
X28000000Y-12500000D01*
X28000000Y-12500000D02*
X14000000Y-12500000D01*
D11*
D12*
X20256500Y-6337000D02*
X20406500Y-6487000D01*
X20406500Y-6337000D02*
X20256500Y-6487000D01*
X20741500Y-6337000D02*
X20891500Y-6487000D01*
X20891500Y-6337000D02*
X20741500Y-6487000D01*
D13*
X20391500Y-6109000D02*
G75*
G03*
X20391500Y-6109000I-90000J0D01*
G01*
X20936500Y-6109000D02*
G75*
G03*
X20936500Y-6109000I-90000J0D01*
G01*
D14*
X16546000Y-11591000D02*
X16546000Y-11941000D01*
X16371000Y-11766000D02*
X16721000Y-11766000D01*
X16654000Y-5459000D02*
X16654000Y-5809000D01*
X16479000Y-5634000D02*
X16829000Y-5634000D01*
D15*
X16041423Y-8706423D02*
X16041423Y-8423577D01*
X15758577Y-8423577D01*
X15758577Y-8706423D01*
X16041423Y-8706423D01*
D11*
X14258277Y-12813984D02*
X14258277Y-12613984D01*
X14258277Y-12613984D02*
X14305896Y-12613984D01*
X14305896Y-12613984D02*
X14334467Y-12623508D01*
X14334467Y-12623508D02*
X14353515Y-12642555D01*
X14353515Y-12642555D02*
X14363039Y-12661603D01*
X14363039Y-12661603D02*
X14372562Y-12699698D01*
X14372562Y-12699698D02*
X14372562Y-12728269D01*
X14372562Y-12728269D02*
X14363039Y-12766365D01*
X14363039Y-12766365D02*
X14353515Y-12785412D01*
X14353515Y-12785412D02*
X14334467Y-12804460D01*
X14334467Y-12804460D02*
X14305896Y-12813984D01*
X14305896Y-12813984D02*
X14258277Y-12813984D01*
X14458277Y-12813984D02*
X14458277Y-12680650D01*
X14458277Y-12718746D02*
X14467801Y-12699698D01*
X14467801Y-12699698D02*
X14477324Y-12690174D01*
X14477324Y-12690174D02*
X14496372Y-12680650D01*
X14496372Y-12680650D02*
X14515420Y-12680650D01*
X14582086Y-12813984D02*
X14582086Y-12680650D01*
X14582086Y-12613984D02*
X14572562Y-12623508D01*
X14572562Y-12623508D02*
X14582086Y-12633031D01*
X14582086Y-12633031D02*
X14591610Y-12623508D01*
X14591610Y-12623508D02*
X14582086Y-12613984D01*
X14582086Y-12613984D02*
X14582086Y-12633031D01*
X14705896Y-12813984D02*
X14686848Y-12804460D01*
X14686848Y-12804460D02*
X14677324Y-12785412D01*
X14677324Y-12785412D02*
X14677324Y-12613984D01*
X14810658Y-12813984D02*
X14791610Y-12804460D01*
X14791610Y-12804460D02*
X14782086Y-12785412D01*
X14782086Y-12785412D02*
X14782086Y-12613984D01*
X15039229Y-12813984D02*
X15039229Y-12613984D01*
X15039229Y-12613984D02*
X15105896Y-12756841D01*
X15105896Y-12756841D02*
X15172562Y-12613984D01*
X15172562Y-12613984D02*
X15172562Y-12813984D01*
X15353515Y-12813984D02*
X15353515Y-12709222D01*
X15353515Y-12709222D02*
X15343991Y-12690174D01*
X15343991Y-12690174D02*
X15324943Y-12680650D01*
X15324943Y-12680650D02*
X15286848Y-12680650D01*
X15286848Y-12680650D02*
X15267801Y-12690174D01*
X15353515Y-12804460D02*
X15334467Y-12813984D01*
X15334467Y-12813984D02*
X15286848Y-12813984D01*
X15286848Y-12813984D02*
X15267801Y-12804460D01*
X15267801Y-12804460D02*
X15258277Y-12785412D01*
X15258277Y-12785412D02*
X15258277Y-12766365D01*
X15258277Y-12766365D02*
X15267801Y-12747317D01*
X15267801Y-12747317D02*
X15286848Y-12737793D01*
X15286848Y-12737793D02*
X15334467Y-12737793D01*
X15334467Y-12737793D02*
X15353515Y-12728269D01*
X15448753Y-12680650D02*
X15448753Y-12880650D01*
X15448753Y-12690174D02*
X15467801Y-12680650D01*
X15467801Y-12680650D02*
X15505896Y-12680650D01*
X15505896Y-12680650D02*
X15524943Y-12690174D01*
X15524943Y-12690174D02*
X15534467Y-12699698D01*
X15534467Y-12699698D02*
X15543991Y-12718746D01*
X15543991Y-12718746D02*
X15543991Y-12775888D01*
X15543991Y-12775888D02*
X15534467Y-12794936D01*
X15534467Y-12794936D02*
X15524943Y-12804460D01*
X15524943Y-12804460D02*
X15505896Y-12813984D01*
X15505896Y-12813984D02*
X15467801Y-12813984D01*
X15467801Y-12813984D02*
X15448753Y-12804460D01*
X15629705Y-12794936D02*
X15639229Y-12804460D01*
X15639229Y-12804460D02*
X15629705Y-12813984D01*
X15629705Y-12813984D02*
X15620182Y-12804460D01*
X15620182Y-12804460D02*
X15629705Y-12794936D01*
X15629705Y-12794936D02*
X15629705Y-12813984D01*
X15629705Y-12690174D02*
X15639229Y-12699698D01*
X15639229Y-12699698D02*
X15629705Y-12709222D01*
X15629705Y-12709222D02*
X15620182Y-12699698D01*
X15620182Y-12699698D02*
X15629705Y-12690174D01*
X15629705Y-12690174D02*
X15629705Y-12709222D01*
D12*
X13847500Y-13067500D02*
X13997500Y-13217500D01*
X13997500Y-13067500D02*
X13847500Y-13217500D01*
D11*
X14363039Y-13233984D02*
X14248753Y-13233984D01*
X14305896Y-13233984D02*
X14305896Y-13033984D01*
X14305896Y-13033984D02*
X14286848Y-13062555D01*
X14286848Y-13062555D02*
X14267801Y-13081603D01*
X14267801Y-13081603D02*
X14248753Y-13091127D01*
X14448753Y-13214936D02*
X14458277Y-13224460D01*
X14458277Y-13224460D02*
X14448753Y-13233984D01*
X14448753Y-13233984D02*
X14439229Y-13224460D01*
X14439229Y-13224460D02*
X14448753Y-13214936D01*
X14448753Y-13214936D02*
X14448753Y-13233984D01*
X14639229Y-13033984D02*
X14543991Y-13033984D01*
X14543991Y-13033984D02*
X14534467Y-13129222D01*
X14534467Y-13129222D02*
X14543991Y-13119698D01*
X14543991Y-13119698D02*
X14563039Y-13110174D01*
X14563039Y-13110174D02*
X14610658Y-13110174D01*
X14610658Y-13110174D02*
X14629705Y-13119698D01*
X14629705Y-13119698D02*
X14639229Y-13129222D01*
X14639229Y-13129222D02*
X14648753Y-13148269D01*
X14648753Y-13148269D02*
X14648753Y-13195888D01*
X14648753Y-13195888D02*
X14639229Y-13214936D01*
X14639229Y-13214936D02*
X14629705Y-13224460D01*
X14629705Y-13224460D02*
X14610658Y-13233984D01*
X14610658Y-13233984D02*
X14563039Y-13233984D01*
X14563039Y-13233984D02*
X14543991Y-13224460D01*
X14543991Y-13224460D02*
X14534467Y-13214936D01*
X14772562Y-13033984D02*
X14791610Y-13033984D01*
X14791610Y-13033984D02*
X14810658Y-13043508D01*
X14810658Y-13043508D02*
X14820182Y-13053031D01*
X14820182Y-13053031D02*
X14829705Y-13072079D01*
X14829705Y-13072079D02*
X14839229Y-13110174D01*
X14839229Y-13110174D02*
X14839229Y-13157793D01*
X14839229Y-13157793D02*
X14829705Y-13195888D01*
X14829705Y-13195888D02*
X14820182Y-13214936D01*
X14820182Y-13214936D02*
X14810658Y-13224460D01*
X14810658Y-13224460D02*
X14791610Y-13233984D01*
X14791610Y-13233984D02*
X14772562Y-13233984D01*
X14772562Y-13233984D02*
X14753515Y-13224460D01*
X14753515Y-13224460D02*
X14743991Y-13214936D01*
X14743991Y-13214936D02*
X14734467Y-13195888D01*
X14734467Y-13195888D02*
X14724943Y-13157793D01*
X14724943Y-13157793D02*
X14724943Y-13110174D01*
X14724943Y-13110174D02*
X14734467Y-13072079D01*
X14734467Y-13072079D02*
X14743991Y-13053031D01*
X14743991Y-13053031D02*
X14753515Y-13043508D01*
X14753515Y-13043508D02*
X14772562Y-13033984D01*
X14963039Y-13033984D02*
X14982086Y-13033984D01*
X14982086Y-13033984D02*
X15001134Y-13043508D01*
X15001134Y-13043508D02*
X15010658Y-13053031D01*
X15010658Y-13053031D02*
X15020182Y-13072079D01*
X15020182Y-13072079D02*
X15029705Y-13110174D01*
X15029705Y-13110174D02*
X15029705Y-13157793D01*
X15029705Y-13157793D02*
X15020182Y-13195888D01*
X15020182Y-13195888D02*
X15010658Y-13214936D01*
X15010658Y-13214936D02*
X15001134Y-13224460D01*
X15001134Y-13224460D02*
X14982086Y-13233984D01*
X14982086Y-13233984D02*
X14963039Y-13233984D01*
X14963039Y-13233984D02*
X14943991Y-13224460D01*
X14943991Y-13224460D02*
X14934467Y-13214936D01*
X14934467Y-13214936D02*
X14924943Y-13195888D01*
X14924943Y-13195888D02*
X14915420Y-13157793D01*
X14915420Y-13157793D02*
X14915420Y-13110174D01*
X14915420Y-13110174D02*
X14924943Y-13072079D01*
X14924943Y-13072079D02*
X14934467Y-13053031D01*
X14934467Y-13053031D02*
X14943991Y-13043508D01*
X14943991Y-13043508D02*
X14963039Y-13033984D01*
X15115420Y-13233984D02*
X15115420Y-13100650D01*
X15115420Y-13119698D02*
X15124943Y-13110174D01*
X15124943Y-13110174D02*
X15143991Y-13100650D01*
X15143991Y-13100650D02*
X15172563Y-13100650D01*
X15172563Y-13100650D02*
X15191610Y-13110174D01*
X15191610Y-13110174D02*
X15201134Y-13129222D01*
X15201134Y-13129222D02*
X15201134Y-13233984D01*
X15201134Y-13129222D02*
X15210658Y-13110174D01*
X15210658Y-13110174D02*
X15229705Y-13100650D01*
X15229705Y-13100650D02*
X15258277Y-13100650D01*
X15258277Y-13100650D02*
X15277324Y-13110174D01*
X15277324Y-13110174D02*
X15286848Y-13129222D01*
X15286848Y-13129222D02*
X15286848Y-13233984D01*
X15382086Y-13233984D02*
X15382086Y-13100650D01*
X15382086Y-13119698D02*
X15391610Y-13110174D01*
X15391610Y-13110174D02*
X15410658Y-13100650D01*
X15410658Y-13100650D02*
X15439229Y-13100650D01*
X15439229Y-13100650D02*
X15458277Y-13110174D01*
X15458277Y-13110174D02*
X15467801Y-13129222D01*
X15467801Y-13129222D02*
X15467801Y-13233984D01*
X15467801Y-13129222D02*
X15477324Y-13110174D01*
X15477324Y-13110174D02*
X15496372Y-13100650D01*
X15496372Y-13100650D02*
X15524943Y-13100650D01*
X15524943Y-13100650D02*
X15543991Y-13110174D01*
X15543991Y-13110174D02*
X15553515Y-13129222D01*
X15553515Y-13129222D02*
X15553515Y-13233984D01*
X15943991Y-13024460D02*
X15772563Y-13281603D01*
X16201134Y-13033984D02*
X16220182Y-13033984D01*
X16220182Y-13033984D02*
X16239229Y-13043508D01*
X16239229Y-13043508D02*
X16248753Y-13053031D01*
X16248753Y-13053031D02*
X16258277Y-13072079D01*
X16258277Y-13072079D02*
X16267801Y-13110174D01*
X16267801Y-13110174D02*
X16267801Y-13157793D01*
X16267801Y-13157793D02*
X16258277Y-13195888D01*
X16258277Y-13195888D02*
X16248753Y-13214936D01*
X16248753Y-13214936D02*
X16239229Y-13224460D01*
X16239229Y-13224460D02*
X16220182Y-13233984D01*
X16220182Y-13233984D02*
X16201134Y-13233984D01*
X16201134Y-13233984D02*
X16182086Y-13224460D01*
X16182086Y-13224460D02*
X16172563Y-13214936D01*
X16172563Y-13214936D02*
X16163039Y-13195888D01*
X16163039Y-13195888D02*
X16153515Y-13157793D01*
X16153515Y-13157793D02*
X16153515Y-13110174D01*
X16153515Y-13110174D02*
X16163039Y-13072079D01*
X16163039Y-13072079D02*
X16172563Y-13053031D01*
X16172563Y-13053031D02*
X16182086Y-13043508D01*
X16182086Y-13043508D02*
X16201134Y-13033984D01*
X16353515Y-13214936D02*
X16363039Y-13224460D01*
X16363039Y-13224460D02*
X16353515Y-13233984D01*
X16353515Y-13233984D02*
X16343991Y-13224460D01*
X16343991Y-13224460D02*
X16353515Y-13214936D01*
X16353515Y-13214936D02*
X16353515Y-13233984D01*
X16486848Y-13033984D02*
X16505896Y-13033984D01*
X16505896Y-13033984D02*
X16524944Y-13043508D01*
X16524944Y-13043508D02*
X16534467Y-13053031D01*
X16534467Y-13053031D02*
X16543991Y-13072079D01*
X16543991Y-13072079D02*
X16553515Y-13110174D01*
X16553515Y-13110174D02*
X16553515Y-13157793D01*
X16553515Y-13157793D02*
X16543991Y-13195888D01*
X16543991Y-13195888D02*
X16534467Y-13214936D01*
X16534467Y-13214936D02*
X16524944Y-13224460D01*
X16524944Y-13224460D02*
X16505896Y-13233984D01*
X16505896Y-13233984D02*
X16486848Y-13233984D01*
X16486848Y-13233984D02*
X16467801Y-13224460D01*
X16467801Y-13224460D02*
X16458277Y-13214936D01*
X16458277Y-13214936D02*
X16448753Y-13195888D01*
X16448753Y-13195888D02*
X16439229Y-13157793D01*
X16439229Y-13157793D02*
X16439229Y-13110174D01*
X16439229Y-13110174D02*
X16448753Y-13072079D01*
X16448753Y-13072079D02*
X16458277Y-13053031D01*
X16458277Y-13053031D02*
X16467801Y-13043508D01*
X16467801Y-13043508D02*
X16486848Y-13033984D01*
X16734467Y-13033984D02*
X16639229Y-13033984D01*
X16639229Y-13033984D02*
X16629706Y-13129222D01*
X16629706Y-13129222D02*
X16639229Y-13119698D01*
X16639229Y-13119698D02*
X16658277Y-13110174D01*
X16658277Y-13110174D02*
X16705896Y-13110174D01*
X16705896Y-13110174D02*
X16724944Y-13119698D01*
X16724944Y-13119698D02*
X16734467Y-13129222D01*
X16734467Y-13129222D02*
X16743991Y-13148269D01*
X16743991Y-13148269D02*
X16743991Y-13195888D01*
X16743991Y-13195888D02*
X16734467Y-13214936D01*
X16734467Y-13214936D02*
X16724944Y-13224460D01*
X16724944Y-13224460D02*
X16705896Y-13233984D01*
X16705896Y-13233984D02*
X16658277Y-13233984D01*
X16658277Y-13233984D02*
X16639229Y-13224460D01*
X16639229Y-13224460D02*
X16629706Y-13214936D01*
X16839229Y-13233984D02*
X16877325Y-13233984D01*
X16877325Y-13233984D02*
X16896372Y-13224460D01*
X16896372Y-13224460D02*
X16905896Y-13214936D01*
X16905896Y-13214936D02*
X16924944Y-13186365D01*
X16924944Y-13186365D02*
X16934468Y-13148269D01*
X16934468Y-13148269D02*
X16934468Y-13072079D01*
X16934468Y-13072079D02*
X16924944Y-13053031D01*
X16924944Y-13053031D02*
X16915420Y-13043508D01*
X16915420Y-13043508D02*
X16896372Y-13033984D01*
X16896372Y-13033984D02*
X16858277Y-13033984D01*
X16858277Y-13033984D02*
X16839229Y-13043508D01*
X16839229Y-13043508D02*
X16829706Y-13053031D01*
X16829706Y-13053031D02*
X16820182Y-13072079D01*
X16820182Y-13072079D02*
X16820182Y-13119698D01*
X16820182Y-13119698D02*
X16829706Y-13138746D01*
X16829706Y-13138746D02*
X16839229Y-13148269D01*
X16839229Y-13148269D02*
X16858277Y-13157793D01*
X16858277Y-13157793D02*
X16896372Y-13157793D01*
X16896372Y-13157793D02*
X16915420Y-13148269D01*
X16915420Y-13148269D02*
X16924944Y-13138746D01*
X16924944Y-13138746D02*
X16934468Y-13119698D01*
X17124944Y-13233984D02*
X17010658Y-13233984D01*
X17067801Y-13233984D02*
X17067801Y-13033984D01*
X17067801Y-13033984D02*
X17048753Y-13062555D01*
X17048753Y-13062555D02*
X17029706Y-13081603D01*
X17029706Y-13081603D02*
X17010658Y-13091127D01*
X17201134Y-13033984D02*
X17201134Y-13072079D01*
X17277325Y-13033984D02*
X17277325Y-13072079D01*
X17572563Y-13310174D02*
X17563039Y-13300650D01*
X17563039Y-13300650D02*
X17543991Y-13272079D01*
X17543991Y-13272079D02*
X17534468Y-13253031D01*
X17534468Y-13253031D02*
X17524944Y-13224460D01*
X17524944Y-13224460D02*
X17515420Y-13176841D01*
X17515420Y-13176841D02*
X17515420Y-13138746D01*
X17515420Y-13138746D02*
X17524944Y-13091127D01*
X17524944Y-13091127D02*
X17534468Y-13062555D01*
X17534468Y-13062555D02*
X17543991Y-13043508D01*
X17543991Y-13043508D02*
X17563039Y-13014936D01*
X17563039Y-13014936D02*
X17572563Y-13005412D01*
X17639230Y-13053031D02*
X17648753Y-13043508D01*
X17648753Y-13043508D02*
X17667801Y-13033984D01*
X17667801Y-13033984D02*
X17715420Y-13033984D01*
X17715420Y-13033984D02*
X17734468Y-13043508D01*
X17734468Y-13043508D02*
X17743991Y-13053031D01*
X17743991Y-13053031D02*
X17753515Y-13072079D01*
X17753515Y-13072079D02*
X17753515Y-13091127D01*
X17753515Y-13091127D02*
X17743991Y-13119698D01*
X17743991Y-13119698D02*
X17629706Y-13233984D01*
X17629706Y-13233984D02*
X17753515Y-13233984D01*
X17991611Y-13233984D02*
X17991611Y-13033984D01*
X18077325Y-13233984D02*
X18077325Y-13129222D01*
X18077325Y-13129222D02*
X18067801Y-13110174D01*
X18067801Y-13110174D02*
X18048753Y-13100650D01*
X18048753Y-13100650D02*
X18020182Y-13100650D01*
X18020182Y-13100650D02*
X18001134Y-13110174D01*
X18001134Y-13110174D02*
X17991611Y-13119698D01*
X18201134Y-13233984D02*
X18182087Y-13224460D01*
X18182087Y-13224460D02*
X18172563Y-13214936D01*
X18172563Y-13214936D02*
X18163039Y-13195888D01*
X18163039Y-13195888D02*
X18163039Y-13138746D01*
X18163039Y-13138746D02*
X18172563Y-13119698D01*
X18172563Y-13119698D02*
X18182087Y-13110174D01*
X18182087Y-13110174D02*
X18201134Y-13100650D01*
X18201134Y-13100650D02*
X18229706Y-13100650D01*
X18229706Y-13100650D02*
X18248753Y-13110174D01*
X18248753Y-13110174D02*
X18258277Y-13119698D01*
X18258277Y-13119698D02*
X18267801Y-13138746D01*
X18267801Y-13138746D02*
X18267801Y-13195888D01*
X18267801Y-13195888D02*
X18258277Y-13214936D01*
X18258277Y-13214936D02*
X18248753Y-13224460D01*
X18248753Y-13224460D02*
X18229706Y-13233984D01*
X18229706Y-13233984D02*
X18201134Y-13233984D01*
X18382087Y-13233984D02*
X18363039Y-13224460D01*
X18363039Y-13224460D02*
X18353515Y-13205412D01*
X18353515Y-13205412D02*
X18353515Y-13033984D01*
X18534468Y-13224460D02*
X18515420Y-13233984D01*
X18515420Y-13233984D02*
X18477325Y-13233984D01*
X18477325Y-13233984D02*
X18458277Y-13224460D01*
X18458277Y-13224460D02*
X18448753Y-13205412D01*
X18448753Y-13205412D02*
X18448753Y-13129222D01*
X18448753Y-13129222D02*
X18458277Y-13110174D01*
X18458277Y-13110174D02*
X18477325Y-13100650D01*
X18477325Y-13100650D02*
X18515420Y-13100650D01*
X18515420Y-13100650D02*
X18534468Y-13110174D01*
X18534468Y-13110174D02*
X18543992Y-13129222D01*
X18543992Y-13129222D02*
X18543992Y-13148269D01*
X18543992Y-13148269D02*
X18448753Y-13167317D01*
X18620182Y-13224460D02*
X18639230Y-13233984D01*
X18639230Y-13233984D02*
X18677325Y-13233984D01*
X18677325Y-13233984D02*
X18696373Y-13224460D01*
X18696373Y-13224460D02*
X18705896Y-13205412D01*
X18705896Y-13205412D02*
X18705896Y-13195888D01*
X18705896Y-13195888D02*
X18696373Y-13176841D01*
X18696373Y-13176841D02*
X18677325Y-13167317D01*
X18677325Y-13167317D02*
X18648753Y-13167317D01*
X18648753Y-13167317D02*
X18629706Y-13157793D01*
X18629706Y-13157793D02*
X18620182Y-13138746D01*
X18620182Y-13138746D02*
X18620182Y-13129222D01*
X18620182Y-13129222D02*
X18629706Y-13110174D01*
X18629706Y-13110174D02*
X18648753Y-13100650D01*
X18648753Y-13100650D02*
X18677325Y-13100650D01*
X18677325Y-13100650D02*
X18696373Y-13110174D01*
X18772563Y-13310174D02*
X18782087Y-13300650D01*
X18782087Y-13300650D02*
X18801134Y-13272079D01*
X18801134Y-13272079D02*
X18810658Y-13253031D01*
X18810658Y-13253031D02*
X18820182Y-13224460D01*
X18820182Y-13224460D02*
X18829706Y-13176841D01*
X18829706Y-13176841D02*
X18829706Y-13138746D01*
X18829706Y-13138746D02*
X18820182Y-13091127D01*
X18820182Y-13091127D02*
X18810658Y-13062555D01*
X18810658Y-13062555D02*
X18801134Y-13043508D01*
X18801134Y-13043508D02*
X18782087Y-13014936D01*
X18782087Y-13014936D02*
X18772563Y-13005412D01*
X19134468Y-13310174D02*
X19124944Y-13300650D01*
X19124944Y-13300650D02*
X19105896Y-13272079D01*
X19105896Y-13272079D02*
X19096373Y-13253031D01*
X19096373Y-13253031D02*
X19086849Y-13224460D01*
X19086849Y-13224460D02*
X19077325Y-13176841D01*
X19077325Y-13176841D02*
X19077325Y-13138746D01*
X19077325Y-13138746D02*
X19086849Y-13091127D01*
X19086849Y-13091127D02*
X19096373Y-13062555D01*
X19096373Y-13062555D02*
X19105896Y-13043508D01*
X19105896Y-13043508D02*
X19124944Y-13014936D01*
X19124944Y-13014936D02*
X19134468Y-13005412D01*
X19210658Y-13100650D02*
X19210658Y-13233984D01*
X19210658Y-13119698D02*
X19220182Y-13110174D01*
X19220182Y-13110174D02*
X19239230Y-13100650D01*
X19239230Y-13100650D02*
X19267801Y-13100650D01*
X19267801Y-13100650D02*
X19286849Y-13110174D01*
X19286849Y-13110174D02*
X19296373Y-13129222D01*
X19296373Y-13129222D02*
X19296373Y-13233984D01*
X19420182Y-13233984D02*
X19401134Y-13224460D01*
X19401134Y-13224460D02*
X19391611Y-13214936D01*
X19391611Y-13214936D02*
X19382087Y-13195888D01*
X19382087Y-13195888D02*
X19382087Y-13138746D01*
X19382087Y-13138746D02*
X19391611Y-13119698D01*
X19391611Y-13119698D02*
X19401134Y-13110174D01*
X19401134Y-13110174D02*
X19420182Y-13100650D01*
X19420182Y-13100650D02*
X19448754Y-13100650D01*
X19448754Y-13100650D02*
X19467801Y-13110174D01*
X19467801Y-13110174D02*
X19477325Y-13119698D01*
X19477325Y-13119698D02*
X19486849Y-13138746D01*
X19486849Y-13138746D02*
X19486849Y-13195888D01*
X19486849Y-13195888D02*
X19477325Y-13214936D01*
X19477325Y-13214936D02*
X19467801Y-13224460D01*
X19467801Y-13224460D02*
X19448754Y-13233984D01*
X19448754Y-13233984D02*
X19420182Y-13233984D01*
X19543992Y-13100650D02*
X19620182Y-13100650D01*
X19572563Y-13033984D02*
X19572563Y-13205412D01*
X19572563Y-13205412D02*
X19582087Y-13224460D01*
X19582087Y-13224460D02*
X19601134Y-13233984D01*
X19601134Y-13233984D02*
X19620182Y-13233984D01*
X19839230Y-13100650D02*
X19839230Y-13300650D01*
X19839230Y-13110174D02*
X19858277Y-13100650D01*
X19858277Y-13100650D02*
X19896373Y-13100650D01*
X19896373Y-13100650D02*
X19915420Y-13110174D01*
X19915420Y-13110174D02*
X19924944Y-13119698D01*
X19924944Y-13119698D02*
X19934468Y-13138746D01*
X19934468Y-13138746D02*
X19934468Y-13195888D01*
X19934468Y-13195888D02*
X19924944Y-13214936D01*
X19924944Y-13214936D02*
X19915420Y-13224460D01*
X19915420Y-13224460D02*
X19896373Y-13233984D01*
X19896373Y-13233984D02*
X19858277Y-13233984D01*
X19858277Y-13233984D02*
X19839230Y-13224460D01*
X20048754Y-13233984D02*
X20029706Y-13224460D01*
X20029706Y-13224460D02*
X20020182Y-13205412D01*
X20020182Y-13205412D02*
X20020182Y-13033984D01*
X20210658Y-13233984D02*
X20210658Y-13129222D01*
X20210658Y-13129222D02*
X20201135Y-13110174D01*
X20201135Y-13110174D02*
X20182087Y-13100650D01*
X20182087Y-13100650D02*
X20143992Y-13100650D01*
X20143992Y-13100650D02*
X20124944Y-13110174D01*
X20210658Y-13224460D02*
X20191611Y-13233984D01*
X20191611Y-13233984D02*
X20143992Y-13233984D01*
X20143992Y-13233984D02*
X20124944Y-13224460D01*
X20124944Y-13224460D02*
X20115420Y-13205412D01*
X20115420Y-13205412D02*
X20115420Y-13186365D01*
X20115420Y-13186365D02*
X20124944Y-13167317D01*
X20124944Y-13167317D02*
X20143992Y-13157793D01*
X20143992Y-13157793D02*
X20191611Y-13157793D01*
X20191611Y-13157793D02*
X20210658Y-13148269D01*
X20277325Y-13100650D02*
X20353515Y-13100650D01*
X20305896Y-13033984D02*
X20305896Y-13205412D01*
X20305896Y-13205412D02*
X20315420Y-13224460D01*
X20315420Y-13224460D02*
X20334468Y-13233984D01*
X20334468Y-13233984D02*
X20353515Y-13233984D01*
X20496373Y-13224460D02*
X20477325Y-13233984D01*
X20477325Y-13233984D02*
X20439230Y-13233984D01*
X20439230Y-13233984D02*
X20420182Y-13224460D01*
X20420182Y-13224460D02*
X20410658Y-13205412D01*
X20410658Y-13205412D02*
X20410658Y-13129222D01*
X20410658Y-13129222D02*
X20420182Y-13110174D01*
X20420182Y-13110174D02*
X20439230Y-13100650D01*
X20439230Y-13100650D02*
X20477325Y-13100650D01*
X20477325Y-13100650D02*
X20496373Y-13110174D01*
X20496373Y-13110174D02*
X20505896Y-13129222D01*
X20505896Y-13129222D02*
X20505896Y-13148269D01*
X20505896Y-13148269D02*
X20410658Y-13167317D01*
X20677325Y-13233984D02*
X20677325Y-13033984D01*
X20677325Y-13224460D02*
X20658277Y-13233984D01*
X20658277Y-13233984D02*
X20620182Y-13233984D01*
X20620182Y-13233984D02*
X20601135Y-13224460D01*
X20601135Y-13224460D02*
X20591611Y-13214936D01*
X20591611Y-13214936D02*
X20582087Y-13195888D01*
X20582087Y-13195888D02*
X20582087Y-13138746D01*
X20582087Y-13138746D02*
X20591611Y-13119698D01*
X20591611Y-13119698D02*
X20601135Y-13110174D01*
X20601135Y-13110174D02*
X20620182Y-13100650D01*
X20620182Y-13100650D02*
X20658277Y-13100650D01*
X20658277Y-13100650D02*
X20677325Y-13110174D01*
X20753516Y-13310174D02*
X20763039Y-13300650D01*
X20763039Y-13300650D02*
X20782087Y-13272079D01*
X20782087Y-13272079D02*
X20791611Y-13253031D01*
X20791611Y-13253031D02*
X20801135Y-13224460D01*
X20801135Y-13224460D02*
X20810658Y-13176841D01*
X20810658Y-13176841D02*
X20810658Y-13138746D01*
X20810658Y-13138746D02*
X20801135Y-13091127D01*
X20801135Y-13091127D02*
X20791611Y-13062555D01*
X20791611Y-13062555D02*
X20782087Y-13043508D01*
X20782087Y-13043508D02*
X20763039Y-13014936D01*
X20763039Y-13014936D02*
X20753516Y-13005412D01*
D13*
X13997500Y-13412500D02*
G75*
G03*
X13997500Y-13412500I-90000J0D01*
G01*
D11*
X14363039Y-13503984D02*
X14248753Y-13503984D01*
X14305896Y-13503984D02*
X14305896Y-13303984D01*
X14305896Y-13303984D02*
X14286848Y-13332555D01*
X14286848Y-13332555D02*
X14267801Y-13351603D01*
X14267801Y-13351603D02*
X14248753Y-13361127D01*
X14448753Y-13484936D02*
X14458277Y-13494460D01*
X14458277Y-13494460D02*
X14448753Y-13503984D01*
X14448753Y-13503984D02*
X14439229Y-13494460D01*
X14439229Y-13494460D02*
X14448753Y-13484936D01*
X14448753Y-13484936D02*
X14448753Y-13503984D01*
X14572562Y-13389698D02*
X14553515Y-13380174D01*
X14553515Y-13380174D02*
X14543991Y-13370650D01*
X14543991Y-13370650D02*
X14534467Y-13351603D01*
X14534467Y-13351603D02*
X14534467Y-13342079D01*
X14534467Y-13342079D02*
X14543991Y-13323031D01*
X14543991Y-13323031D02*
X14553515Y-13313508D01*
X14553515Y-13313508D02*
X14572562Y-13303984D01*
X14572562Y-13303984D02*
X14610658Y-13303984D01*
X14610658Y-13303984D02*
X14629705Y-13313508D01*
X14629705Y-13313508D02*
X14639229Y-13323031D01*
X14639229Y-13323031D02*
X14648753Y-13342079D01*
X14648753Y-13342079D02*
X14648753Y-13351603D01*
X14648753Y-13351603D02*
X14639229Y-13370650D01*
X14639229Y-13370650D02*
X14629705Y-13380174D01*
X14629705Y-13380174D02*
X14610658Y-13389698D01*
X14610658Y-13389698D02*
X14572562Y-13389698D01*
X14572562Y-13389698D02*
X14553515Y-13399222D01*
X14553515Y-13399222D02*
X14543991Y-13408746D01*
X14543991Y-13408746D02*
X14534467Y-13427793D01*
X14534467Y-13427793D02*
X14534467Y-13465888D01*
X14534467Y-13465888D02*
X14543991Y-13484936D01*
X14543991Y-13484936D02*
X14553515Y-13494460D01*
X14553515Y-13494460D02*
X14572562Y-13503984D01*
X14572562Y-13503984D02*
X14610658Y-13503984D01*
X14610658Y-13503984D02*
X14629705Y-13494460D01*
X14629705Y-13494460D02*
X14639229Y-13484936D01*
X14639229Y-13484936D02*
X14648753Y-13465888D01*
X14648753Y-13465888D02*
X14648753Y-13427793D01*
X14648753Y-13427793D02*
X14639229Y-13408746D01*
X14639229Y-13408746D02*
X14629705Y-13399222D01*
X14629705Y-13399222D02*
X14610658Y-13389698D01*
X14772562Y-13303984D02*
X14791610Y-13303984D01*
X14791610Y-13303984D02*
X14810658Y-13313508D01*
X14810658Y-13313508D02*
X14820182Y-13323031D01*
X14820182Y-13323031D02*
X14829705Y-13342079D01*
X14829705Y-13342079D02*
X14839229Y-13380174D01*
X14839229Y-13380174D02*
X14839229Y-13427793D01*
X14839229Y-13427793D02*
X14829705Y-13465888D01*
X14829705Y-13465888D02*
X14820182Y-13484936D01*
X14820182Y-13484936D02*
X14810658Y-13494460D01*
X14810658Y-13494460D02*
X14791610Y-13503984D01*
X14791610Y-13503984D02*
X14772562Y-13503984D01*
X14772562Y-13503984D02*
X14753515Y-13494460D01*
X14753515Y-13494460D02*
X14743991Y-13484936D01*
X14743991Y-13484936D02*
X14734467Y-13465888D01*
X14734467Y-13465888D02*
X14724943Y-13427793D01*
X14724943Y-13427793D02*
X14724943Y-13380174D01*
X14724943Y-13380174D02*
X14734467Y-13342079D01*
X14734467Y-13342079D02*
X14743991Y-13323031D01*
X14743991Y-13323031D02*
X14753515Y-13313508D01*
X14753515Y-13313508D02*
X14772562Y-13303984D01*
X14963039Y-13303984D02*
X14982086Y-13303984D01*
X14982086Y-13303984D02*
X15001134Y-13313508D01*
X15001134Y-13313508D02*
X15010658Y-13323031D01*
X15010658Y-13323031D02*
X15020182Y-13342079D01*
X15020182Y-13342079D02*
X15029705Y-13380174D01*
X15029705Y-13380174D02*
X15029705Y-13427793D01*
X15029705Y-13427793D02*
X15020182Y-13465888D01*
X15020182Y-13465888D02*
X15010658Y-13484936D01*
X15010658Y-13484936D02*
X15001134Y-13494460D01*
X15001134Y-13494460D02*
X14982086Y-13503984D01*
X14982086Y-13503984D02*
X14963039Y-13503984D01*
X14963039Y-13503984D02*
X14943991Y-13494460D01*
X14943991Y-13494460D02*
X14934467Y-13484936D01*
X14934467Y-13484936D02*
X14924943Y-13465888D01*
X14924943Y-13465888D02*
X14915420Y-13427793D01*
X14915420Y-13427793D02*
X14915420Y-13380174D01*
X14915420Y-13380174D02*
X14924943Y-13342079D01*
X14924943Y-13342079D02*
X14934467Y-13323031D01*
X14934467Y-13323031D02*
X14943991Y-13313508D01*
X14943991Y-13313508D02*
X14963039Y-13303984D01*
X15115420Y-13503984D02*
X15115420Y-13370650D01*
X15115420Y-13389698D02*
X15124943Y-13380174D01*
X15124943Y-13380174D02*
X15143991Y-13370650D01*
X15143991Y-13370650D02*
X15172563Y-13370650D01*
X15172563Y-13370650D02*
X15191610Y-13380174D01*
X15191610Y-13380174D02*
X15201134Y-13399222D01*
X15201134Y-13399222D02*
X15201134Y-13503984D01*
X15201134Y-13399222D02*
X15210658Y-13380174D01*
X15210658Y-13380174D02*
X15229705Y-13370650D01*
X15229705Y-13370650D02*
X15258277Y-13370650D01*
X15258277Y-13370650D02*
X15277324Y-13380174D01*
X15277324Y-13380174D02*
X15286848Y-13399222D01*
X15286848Y-13399222D02*
X15286848Y-13503984D01*
X15382086Y-13503984D02*
X15382086Y-13370650D01*
X15382086Y-13389698D02*
X15391610Y-13380174D01*
X15391610Y-13380174D02*
X15410658Y-13370650D01*
X15410658Y-13370650D02*
X15439229Y-13370650D01*
X15439229Y-13370650D02*
X15458277Y-13380174D01*
X15458277Y-13380174D02*
X15467801Y-13399222D01*
X15467801Y-13399222D02*
X15467801Y-13503984D01*
X15467801Y-13399222D02*
X15477324Y-13380174D01*
X15477324Y-13380174D02*
X15496372Y-13370650D01*
X15496372Y-13370650D02*
X15524943Y-13370650D01*
X15524943Y-13370650D02*
X15543991Y-13380174D01*
X15543991Y-13380174D02*
X15553515Y-13399222D01*
X15553515Y-13399222D02*
X15553515Y-13503984D01*
X15943991Y-13294460D02*
X15772563Y-13551603D01*
X16201134Y-13303984D02*
X16220182Y-13303984D01*
X16220182Y-13303984D02*
X16239229Y-13313508D01*
X16239229Y-13313508D02*
X16248753Y-13323031D01*
X16248753Y-13323031D02*
X16258277Y-13342079D01*
X16258277Y-13342079D02*
X16267801Y-13380174D01*
X16267801Y-13380174D02*
X16267801Y-13427793D01*
X16267801Y-13427793D02*
X16258277Y-13465888D01*
X16258277Y-13465888D02*
X16248753Y-13484936D01*
X16248753Y-13484936D02*
X16239229Y-13494460D01*
X16239229Y-13494460D02*
X16220182Y-13503984D01*
X16220182Y-13503984D02*
X16201134Y-13503984D01*
X16201134Y-13503984D02*
X16182086Y-13494460D01*
X16182086Y-13494460D02*
X16172563Y-13484936D01*
X16172563Y-13484936D02*
X16163039Y-13465888D01*
X16163039Y-13465888D02*
X16153515Y-13427793D01*
X16153515Y-13427793D02*
X16153515Y-13380174D01*
X16153515Y-13380174D02*
X16163039Y-13342079D01*
X16163039Y-13342079D02*
X16172563Y-13323031D01*
X16172563Y-13323031D02*
X16182086Y-13313508D01*
X16182086Y-13313508D02*
X16201134Y-13303984D01*
X16353515Y-13484936D02*
X16363039Y-13494460D01*
X16363039Y-13494460D02*
X16353515Y-13503984D01*
X16353515Y-13503984D02*
X16343991Y-13494460D01*
X16343991Y-13494460D02*
X16353515Y-13484936D01*
X16353515Y-13484936D02*
X16353515Y-13503984D01*
X16486848Y-13303984D02*
X16505896Y-13303984D01*
X16505896Y-13303984D02*
X16524944Y-13313508D01*
X16524944Y-13313508D02*
X16534467Y-13323031D01*
X16534467Y-13323031D02*
X16543991Y-13342079D01*
X16543991Y-13342079D02*
X16553515Y-13380174D01*
X16553515Y-13380174D02*
X16553515Y-13427793D01*
X16553515Y-13427793D02*
X16543991Y-13465888D01*
X16543991Y-13465888D02*
X16534467Y-13484936D01*
X16534467Y-13484936D02*
X16524944Y-13494460D01*
X16524944Y-13494460D02*
X16505896Y-13503984D01*
X16505896Y-13503984D02*
X16486848Y-13503984D01*
X16486848Y-13503984D02*
X16467801Y-13494460D01*
X16467801Y-13494460D02*
X16458277Y-13484936D01*
X16458277Y-13484936D02*
X16448753Y-13465888D01*
X16448753Y-13465888D02*
X16439229Y-13427793D01*
X16439229Y-13427793D02*
X16439229Y-13380174D01*
X16439229Y-13380174D02*
X16448753Y-13342079D01*
X16448753Y-13342079D02*
X16458277Y-13323031D01*
X16458277Y-13323031D02*
X16467801Y-13313508D01*
X16467801Y-13313508D02*
X16486848Y-13303984D01*
X16620182Y-13303984D02*
X16753515Y-13303984D01*
X16753515Y-13303984D02*
X16667801Y-13503984D01*
X16867801Y-13303984D02*
X16886849Y-13303984D01*
X16886849Y-13303984D02*
X16905896Y-13313508D01*
X16905896Y-13313508D02*
X16915420Y-13323031D01*
X16915420Y-13323031D02*
X16924944Y-13342079D01*
X16924944Y-13342079D02*
X16934468Y-13380174D01*
X16934468Y-13380174D02*
X16934468Y-13427793D01*
X16934468Y-13427793D02*
X16924944Y-13465888D01*
X16924944Y-13465888D02*
X16915420Y-13484936D01*
X16915420Y-13484936D02*
X16905896Y-13494460D01*
X16905896Y-13494460D02*
X16886849Y-13503984D01*
X16886849Y-13503984D02*
X16867801Y-13503984D01*
X16867801Y-13503984D02*
X16848753Y-13494460D01*
X16848753Y-13494460D02*
X16839229Y-13484936D01*
X16839229Y-13484936D02*
X16829706Y-13465888D01*
X16829706Y-13465888D02*
X16820182Y-13427793D01*
X16820182Y-13427793D02*
X16820182Y-13380174D01*
X16820182Y-13380174D02*
X16829706Y-13342079D01*
X16829706Y-13342079D02*
X16839229Y-13323031D01*
X16839229Y-13323031D02*
X16848753Y-13313508D01*
X16848753Y-13313508D02*
X16867801Y-13303984D01*
X17029706Y-13503984D02*
X17067801Y-13503984D01*
X17067801Y-13503984D02*
X17086849Y-13494460D01*
X17086849Y-13494460D02*
X17096372Y-13484936D01*
X17096372Y-13484936D02*
X17115420Y-13456365D01*
X17115420Y-13456365D02*
X17124944Y-13418269D01*
X17124944Y-13418269D02*
X17124944Y-13342079D01*
X17124944Y-13342079D02*
X17115420Y-13323031D01*
X17115420Y-13323031D02*
X17105896Y-13313508D01*
X17105896Y-13313508D02*
X17086849Y-13303984D01*
X17086849Y-13303984D02*
X17048753Y-13303984D01*
X17048753Y-13303984D02*
X17029706Y-13313508D01*
X17029706Y-13313508D02*
X17020182Y-13323031D01*
X17020182Y-13323031D02*
X17010658Y-13342079D01*
X17010658Y-13342079D02*
X17010658Y-13389698D01*
X17010658Y-13389698D02*
X17020182Y-13408746D01*
X17020182Y-13408746D02*
X17029706Y-13418269D01*
X17029706Y-13418269D02*
X17048753Y-13427793D01*
X17048753Y-13427793D02*
X17086849Y-13427793D01*
X17086849Y-13427793D02*
X17105896Y-13418269D01*
X17105896Y-13418269D02*
X17115420Y-13408746D01*
X17115420Y-13408746D02*
X17124944Y-13389698D01*
X17201134Y-13303984D02*
X17201134Y-13342079D01*
X17277325Y-13303984D02*
X17277325Y-13342079D01*
X17572563Y-13580174D02*
X17563039Y-13570650D01*
X17563039Y-13570650D02*
X17543991Y-13542079D01*
X17543991Y-13542079D02*
X17534468Y-13523031D01*
X17534468Y-13523031D02*
X17524944Y-13494460D01*
X17524944Y-13494460D02*
X17515420Y-13446841D01*
X17515420Y-13446841D02*
X17515420Y-13408746D01*
X17515420Y-13408746D02*
X17524944Y-13361127D01*
X17524944Y-13361127D02*
X17534468Y-13332555D01*
X17534468Y-13332555D02*
X17543991Y-13313508D01*
X17543991Y-13313508D02*
X17563039Y-13284936D01*
X17563039Y-13284936D02*
X17572563Y-13275412D01*
X17639230Y-13323031D02*
X17648753Y-13313508D01*
X17648753Y-13313508D02*
X17667801Y-13303984D01*
X17667801Y-13303984D02*
X17715420Y-13303984D01*
X17715420Y-13303984D02*
X17734468Y-13313508D01*
X17734468Y-13313508D02*
X17743991Y-13323031D01*
X17743991Y-13323031D02*
X17753515Y-13342079D01*
X17753515Y-13342079D02*
X17753515Y-13361127D01*
X17753515Y-13361127D02*
X17743991Y-13389698D01*
X17743991Y-13389698D02*
X17629706Y-13503984D01*
X17629706Y-13503984D02*
X17753515Y-13503984D01*
X17991611Y-13503984D02*
X17991611Y-13303984D01*
X18077325Y-13503984D02*
X18077325Y-13399222D01*
X18077325Y-13399222D02*
X18067801Y-13380174D01*
X18067801Y-13380174D02*
X18048753Y-13370650D01*
X18048753Y-13370650D02*
X18020182Y-13370650D01*
X18020182Y-13370650D02*
X18001134Y-13380174D01*
X18001134Y-13380174D02*
X17991611Y-13389698D01*
X18201134Y-13503984D02*
X18182087Y-13494460D01*
X18182087Y-13494460D02*
X18172563Y-13484936D01*
X18172563Y-13484936D02*
X18163039Y-13465888D01*
X18163039Y-13465888D02*
X18163039Y-13408746D01*
X18163039Y-13408746D02*
X18172563Y-13389698D01*
X18172563Y-13389698D02*
X18182087Y-13380174D01*
X18182087Y-13380174D02*
X18201134Y-13370650D01*
X18201134Y-13370650D02*
X18229706Y-13370650D01*
X18229706Y-13370650D02*
X18248753Y-13380174D01*
X18248753Y-13380174D02*
X18258277Y-13389698D01*
X18258277Y-13389698D02*
X18267801Y-13408746D01*
X18267801Y-13408746D02*
X18267801Y-13465888D01*
X18267801Y-13465888D02*
X18258277Y-13484936D01*
X18258277Y-13484936D02*
X18248753Y-13494460D01*
X18248753Y-13494460D02*
X18229706Y-13503984D01*
X18229706Y-13503984D02*
X18201134Y-13503984D01*
X18382087Y-13503984D02*
X18363039Y-13494460D01*
X18363039Y-13494460D02*
X18353515Y-13475412D01*
X18353515Y-13475412D02*
X18353515Y-13303984D01*
X18534468Y-13494460D02*
X18515420Y-13503984D01*
X18515420Y-13503984D02*
X18477325Y-13503984D01*
X18477325Y-13503984D02*
X18458277Y-13494460D01*
X18458277Y-13494460D02*
X18448753Y-13475412D01*
X18448753Y-13475412D02*
X18448753Y-13399222D01*
X18448753Y-13399222D02*
X18458277Y-13380174D01*
X18458277Y-13380174D02*
X18477325Y-13370650D01*
X18477325Y-13370650D02*
X18515420Y-13370650D01*
X18515420Y-13370650D02*
X18534468Y-13380174D01*
X18534468Y-13380174D02*
X18543992Y-13399222D01*
X18543992Y-13399222D02*
X18543992Y-13418269D01*
X18543992Y-13418269D02*
X18448753Y-13437317D01*
X18620182Y-13494460D02*
X18639230Y-13503984D01*
X18639230Y-13503984D02*
X18677325Y-13503984D01*
X18677325Y-13503984D02*
X18696373Y-13494460D01*
X18696373Y-13494460D02*
X18705896Y-13475412D01*
X18705896Y-13475412D02*
X18705896Y-13465888D01*
X18705896Y-13465888D02*
X18696373Y-13446841D01*
X18696373Y-13446841D02*
X18677325Y-13437317D01*
X18677325Y-13437317D02*
X18648753Y-13437317D01*
X18648753Y-13437317D02*
X18629706Y-13427793D01*
X18629706Y-13427793D02*
X18620182Y-13408746D01*
X18620182Y-13408746D02*
X18620182Y-13399222D01*
X18620182Y-13399222D02*
X18629706Y-13380174D01*
X18629706Y-13380174D02*
X18648753Y-13370650D01*
X18648753Y-13370650D02*
X18677325Y-13370650D01*
X18677325Y-13370650D02*
X18696373Y-13380174D01*
X18772563Y-13580174D02*
X18782087Y-13570650D01*
X18782087Y-13570650D02*
X18801134Y-13542079D01*
X18801134Y-13542079D02*
X18810658Y-13523031D01*
X18810658Y-13523031D02*
X18820182Y-13494460D01*
X18820182Y-13494460D02*
X18829706Y-13446841D01*
X18829706Y-13446841D02*
X18829706Y-13408746D01*
X18829706Y-13408746D02*
X18820182Y-13361127D01*
X18820182Y-13361127D02*
X18810658Y-13332555D01*
X18810658Y-13332555D02*
X18801134Y-13313508D01*
X18801134Y-13313508D02*
X18782087Y-13284936D01*
X18782087Y-13284936D02*
X18772563Y-13275412D01*
X19134468Y-13580174D02*
X19124944Y-13570650D01*
X19124944Y-13570650D02*
X19105896Y-13542079D01*
X19105896Y-13542079D02*
X19096373Y-13523031D01*
X19096373Y-13523031D02*
X19086849Y-13494460D01*
X19086849Y-13494460D02*
X19077325Y-13446841D01*
X19077325Y-13446841D02*
X19077325Y-13408746D01*
X19077325Y-13408746D02*
X19086849Y-13361127D01*
X19086849Y-13361127D02*
X19096373Y-13332555D01*
X19096373Y-13332555D02*
X19105896Y-13313508D01*
X19105896Y-13313508D02*
X19124944Y-13284936D01*
X19124944Y-13284936D02*
X19134468Y-13275412D01*
X19210658Y-13370650D02*
X19210658Y-13503984D01*
X19210658Y-13389698D02*
X19220182Y-13380174D01*
X19220182Y-13380174D02*
X19239230Y-13370650D01*
X19239230Y-13370650D02*
X19267801Y-13370650D01*
X19267801Y-13370650D02*
X19286849Y-13380174D01*
X19286849Y-13380174D02*
X19296373Y-13399222D01*
X19296373Y-13399222D02*
X19296373Y-13503984D01*
X19420182Y-13503984D02*
X19401134Y-13494460D01*
X19401134Y-13494460D02*
X19391611Y-13484936D01*
X19391611Y-13484936D02*
X19382087Y-13465888D01*
X19382087Y-13465888D02*
X19382087Y-13408746D01*
X19382087Y-13408746D02*
X19391611Y-13389698D01*
X19391611Y-13389698D02*
X19401134Y-13380174D01*
X19401134Y-13380174D02*
X19420182Y-13370650D01*
X19420182Y-13370650D02*
X19448754Y-13370650D01*
X19448754Y-13370650D02*
X19467801Y-13380174D01*
X19467801Y-13380174D02*
X19477325Y-13389698D01*
X19477325Y-13389698D02*
X19486849Y-13408746D01*
X19486849Y-13408746D02*
X19486849Y-13465888D01*
X19486849Y-13465888D02*
X19477325Y-13484936D01*
X19477325Y-13484936D02*
X19467801Y-13494460D01*
X19467801Y-13494460D02*
X19448754Y-13503984D01*
X19448754Y-13503984D02*
X19420182Y-13503984D01*
X19543992Y-13370650D02*
X19620182Y-13370650D01*
X19572563Y-13303984D02*
X19572563Y-13475412D01*
X19572563Y-13475412D02*
X19582087Y-13494460D01*
X19582087Y-13494460D02*
X19601134Y-13503984D01*
X19601134Y-13503984D02*
X19620182Y-13503984D01*
X19839230Y-13370650D02*
X19839230Y-13570650D01*
X19839230Y-13380174D02*
X19858277Y-13370650D01*
X19858277Y-13370650D02*
X19896373Y-13370650D01*
X19896373Y-13370650D02*
X19915420Y-13380174D01*
X19915420Y-13380174D02*
X19924944Y-13389698D01*
X19924944Y-13389698D02*
X19934468Y-13408746D01*
X19934468Y-13408746D02*
X19934468Y-13465888D01*
X19934468Y-13465888D02*
X19924944Y-13484936D01*
X19924944Y-13484936D02*
X19915420Y-13494460D01*
X19915420Y-13494460D02*
X19896373Y-13503984D01*
X19896373Y-13503984D02*
X19858277Y-13503984D01*
X19858277Y-13503984D02*
X19839230Y-13494460D01*
X20048754Y-13503984D02*
X20029706Y-13494460D01*
X20029706Y-13494460D02*
X20020182Y-13475412D01*
X20020182Y-13475412D02*
X20020182Y-13303984D01*
X20210658Y-13503984D02*
X20210658Y-13399222D01*
X20210658Y-13399222D02*
X20201135Y-13380174D01*
X20201135Y-13380174D02*
X20182087Y-13370650D01*
X20182087Y-13370650D02*
X20143992Y-13370650D01*
X20143992Y-13370650D02*
X20124944Y-13380174D01*
X20210658Y-13494460D02*
X20191611Y-13503984D01*
X20191611Y-13503984D02*
X20143992Y-13503984D01*
X20143992Y-13503984D02*
X20124944Y-13494460D01*
X20124944Y-13494460D02*
X20115420Y-13475412D01*
X20115420Y-13475412D02*
X20115420Y-13456365D01*
X20115420Y-13456365D02*
X20124944Y-13437317D01*
X20124944Y-13437317D02*
X20143992Y-13427793D01*
X20143992Y-13427793D02*
X20191611Y-13427793D01*
X20191611Y-13427793D02*
X20210658Y-13418269D01*
X20277325Y-13370650D02*
X20353515Y-13370650D01*
X20305896Y-13303984D02*
X20305896Y-13475412D01*
X20305896Y-13475412D02*
X20315420Y-13494460D01*
X20315420Y-13494460D02*
X20334468Y-13503984D01*
X20334468Y-13503984D02*
X20353515Y-13503984D01*
X20496373Y-13494460D02*
X20477325Y-13503984D01*
X20477325Y-13503984D02*
X20439230Y-13503984D01*
X20439230Y-13503984D02*
X20420182Y-13494460D01*
X20420182Y-13494460D02*
X20410658Y-13475412D01*
X20410658Y-13475412D02*
X20410658Y-13399222D01*
X20410658Y-13399222D02*
X20420182Y-13380174D01*
X20420182Y-13380174D02*
X20439230Y-13370650D01*
X20439230Y-13370650D02*
X20477325Y-13370650D01*
X20477325Y-13370650D02*
X20496373Y-13380174D01*
X20496373Y-13380174D02*
X20505896Y-13399222D01*
X20505896Y-13399222D02*
X20505896Y-13418269D01*
X20505896Y-13418269D02*
X20410658Y-13437317D01*
X20677325Y-13503984D02*
X20677325Y-13303984D01*
X20677325Y-13494460D02*
X20658277Y-13503984D01*
X20658277Y-13503984D02*
X20620182Y-13503984D01*
X20620182Y-13503984D02*
X20601135Y-13494460D01*
X20601135Y-13494460D02*
X20591611Y-13484936D01*
X20591611Y-13484936D02*
X20582087Y-13465888D01*
X20582087Y-13465888D02*
X20582087Y-13408746D01*
X20582087Y-13408746D02*
X20591611Y-13389698D01*
X20591611Y-13389698D02*
X20601135Y-13380174D01*
X20601135Y-13380174D02*
X20620182Y-13370650D01*
X20620182Y-13370650D02*
X20658277Y-13370650D01*
X20658277Y-13370650D02*
X20677325Y-13380174D01*
X20753516Y-13580174D02*
X20763039Y-13570650D01*
X20763039Y-13570650D02*
X20782087Y-13542079D01*
X20782087Y-13542079D02*
X20791611Y-13523031D01*
X20791611Y-13523031D02*
X20801135Y-13494460D01*
X20801135Y-13494460D02*
X20810658Y-13446841D01*
X20810658Y-13446841D02*
X20810658Y-13408746D01*
X20810658Y-13408746D02*
X20801135Y-13361127D01*
X20801135Y-13361127D02*
X20791611Y-13332555D01*
X20791611Y-13332555D02*
X20782087Y-13313508D01*
X20782087Y-13313508D02*
X20763039Y-13284936D01*
X20763039Y-13284936D02*
X20753516Y-13275412D01*
X13897500Y-13612500D02*
X13897500Y-13812500D01*
X13797500Y-13712500D02*
X13997500Y-13712500D01*
X14239229Y-13603984D02*
X14363039Y-13603984D01*
X14363039Y-13603984D02*
X14296372Y-13680174D01*
X14296372Y-13680174D02*
X14324943Y-13680174D01*
X14324943Y-13680174D02*
X14343991Y-13689698D01*
X14343991Y-13689698D02*
X14353515Y-13699222D01*
X14353515Y-13699222D02*
X14363039Y-13718269D01*
X14363039Y-13718269D02*
X14363039Y-13765888D01*
X14363039Y-13765888D02*
X14353515Y-13784936D01*
X14353515Y-13784936D02*
X14343991Y-13794460D01*
X14343991Y-13794460D02*
X14324943Y-13803984D01*
X14324943Y-13803984D02*
X14267801Y-13803984D01*
X14267801Y-13803984D02*
X14248753Y-13794460D01*
X14248753Y-13794460D02*
X14239229Y-13784936D01*
X14448753Y-13784936D02*
X14458277Y-13794460D01*
X14458277Y-13794460D02*
X14448753Y-13803984D01*
X14448753Y-13803984D02*
X14439229Y-13794460D01*
X14439229Y-13794460D02*
X14448753Y-13784936D01*
X14448753Y-13784936D02*
X14448753Y-13803984D01*
X14639229Y-13603984D02*
X14543991Y-13603984D01*
X14543991Y-13603984D02*
X14534467Y-13699222D01*
X14534467Y-13699222D02*
X14543991Y-13689698D01*
X14543991Y-13689698D02*
X14563039Y-13680174D01*
X14563039Y-13680174D02*
X14610658Y-13680174D01*
X14610658Y-13680174D02*
X14629705Y-13689698D01*
X14629705Y-13689698D02*
X14639229Y-13699222D01*
X14639229Y-13699222D02*
X14648753Y-13718269D01*
X14648753Y-13718269D02*
X14648753Y-13765888D01*
X14648753Y-13765888D02*
X14639229Y-13784936D01*
X14639229Y-13784936D02*
X14629705Y-13794460D01*
X14629705Y-13794460D02*
X14610658Y-13803984D01*
X14610658Y-13803984D02*
X14563039Y-13803984D01*
X14563039Y-13803984D02*
X14543991Y-13794460D01*
X14543991Y-13794460D02*
X14534467Y-13784936D01*
X14772562Y-13603984D02*
X14791610Y-13603984D01*
X14791610Y-13603984D02*
X14810658Y-13613508D01*
X14810658Y-13613508D02*
X14820182Y-13623031D01*
X14820182Y-13623031D02*
X14829705Y-13642079D01*
X14829705Y-13642079D02*
X14839229Y-13680174D01*
X14839229Y-13680174D02*
X14839229Y-13727793D01*
X14839229Y-13727793D02*
X14829705Y-13765888D01*
X14829705Y-13765888D02*
X14820182Y-13784936D01*
X14820182Y-13784936D02*
X14810658Y-13794460D01*
X14810658Y-13794460D02*
X14791610Y-13803984D01*
X14791610Y-13803984D02*
X14772562Y-13803984D01*
X14772562Y-13803984D02*
X14753515Y-13794460D01*
X14753515Y-13794460D02*
X14743991Y-13784936D01*
X14743991Y-13784936D02*
X14734467Y-13765888D01*
X14734467Y-13765888D02*
X14724943Y-13727793D01*
X14724943Y-13727793D02*
X14724943Y-13680174D01*
X14724943Y-13680174D02*
X14734467Y-13642079D01*
X14734467Y-13642079D02*
X14743991Y-13623031D01*
X14743991Y-13623031D02*
X14753515Y-13613508D01*
X14753515Y-13613508D02*
X14772562Y-13603984D01*
X14963039Y-13603984D02*
X14982086Y-13603984D01*
X14982086Y-13603984D02*
X15001134Y-13613508D01*
X15001134Y-13613508D02*
X15010658Y-13623031D01*
X15010658Y-13623031D02*
X15020182Y-13642079D01*
X15020182Y-13642079D02*
X15029705Y-13680174D01*
X15029705Y-13680174D02*
X15029705Y-13727793D01*
X15029705Y-13727793D02*
X15020182Y-13765888D01*
X15020182Y-13765888D02*
X15010658Y-13784936D01*
X15010658Y-13784936D02*
X15001134Y-13794460D01*
X15001134Y-13794460D02*
X14982086Y-13803984D01*
X14982086Y-13803984D02*
X14963039Y-13803984D01*
X14963039Y-13803984D02*
X14943991Y-13794460D01*
X14943991Y-13794460D02*
X14934467Y-13784936D01*
X14934467Y-13784936D02*
X14924943Y-13765888D01*
X14924943Y-13765888D02*
X14915420Y-13727793D01*
X14915420Y-13727793D02*
X14915420Y-13680174D01*
X14915420Y-13680174D02*
X14924943Y-13642079D01*
X14924943Y-13642079D02*
X14934467Y-13623031D01*
X14934467Y-13623031D02*
X14943991Y-13613508D01*
X14943991Y-13613508D02*
X14963039Y-13603984D01*
X15115420Y-13803984D02*
X15115420Y-13670650D01*
X15115420Y-13689698D02*
X15124943Y-13680174D01*
X15124943Y-13680174D02*
X15143991Y-13670650D01*
X15143991Y-13670650D02*
X15172563Y-13670650D01*
X15172563Y-13670650D02*
X15191610Y-13680174D01*
X15191610Y-13680174D02*
X15201134Y-13699222D01*
X15201134Y-13699222D02*
X15201134Y-13803984D01*
X15201134Y-13699222D02*
X15210658Y-13680174D01*
X15210658Y-13680174D02*
X15229705Y-13670650D01*
X15229705Y-13670650D02*
X15258277Y-13670650D01*
X15258277Y-13670650D02*
X15277324Y-13680174D01*
X15277324Y-13680174D02*
X15286848Y-13699222D01*
X15286848Y-13699222D02*
X15286848Y-13803984D01*
X15382086Y-13803984D02*
X15382086Y-13670650D01*
X15382086Y-13689698D02*
X15391610Y-13680174D01*
X15391610Y-13680174D02*
X15410658Y-13670650D01*
X15410658Y-13670650D02*
X15439229Y-13670650D01*
X15439229Y-13670650D02*
X15458277Y-13680174D01*
X15458277Y-13680174D02*
X15467801Y-13699222D01*
X15467801Y-13699222D02*
X15467801Y-13803984D01*
X15467801Y-13699222D02*
X15477324Y-13680174D01*
X15477324Y-13680174D02*
X15496372Y-13670650D01*
X15496372Y-13670650D02*
X15524943Y-13670650D01*
X15524943Y-13670650D02*
X15543991Y-13680174D01*
X15543991Y-13680174D02*
X15553515Y-13699222D01*
X15553515Y-13699222D02*
X15553515Y-13803984D01*
X15943991Y-13594460D02*
X15772563Y-13851603D01*
X16201134Y-13603984D02*
X16220182Y-13603984D01*
X16220182Y-13603984D02*
X16239229Y-13613508D01*
X16239229Y-13613508D02*
X16248753Y-13623031D01*
X16248753Y-13623031D02*
X16258277Y-13642079D01*
X16258277Y-13642079D02*
X16267801Y-13680174D01*
X16267801Y-13680174D02*
X16267801Y-13727793D01*
X16267801Y-13727793D02*
X16258277Y-13765888D01*
X16258277Y-13765888D02*
X16248753Y-13784936D01*
X16248753Y-13784936D02*
X16239229Y-13794460D01*
X16239229Y-13794460D02*
X16220182Y-13803984D01*
X16220182Y-13803984D02*
X16201134Y-13803984D01*
X16201134Y-13803984D02*
X16182086Y-13794460D01*
X16182086Y-13794460D02*
X16172563Y-13784936D01*
X16172563Y-13784936D02*
X16163039Y-13765888D01*
X16163039Y-13765888D02*
X16153515Y-13727793D01*
X16153515Y-13727793D02*
X16153515Y-13680174D01*
X16153515Y-13680174D02*
X16163039Y-13642079D01*
X16163039Y-13642079D02*
X16172563Y-13623031D01*
X16172563Y-13623031D02*
X16182086Y-13613508D01*
X16182086Y-13613508D02*
X16201134Y-13603984D01*
X16353515Y-13784936D02*
X16363039Y-13794460D01*
X16363039Y-13794460D02*
X16353515Y-13803984D01*
X16353515Y-13803984D02*
X16343991Y-13794460D01*
X16343991Y-13794460D02*
X16353515Y-13784936D01*
X16353515Y-13784936D02*
X16353515Y-13803984D01*
X16553515Y-13803984D02*
X16439229Y-13803984D01*
X16496372Y-13803984D02*
X16496372Y-13603984D01*
X16496372Y-13603984D02*
X16477325Y-13632555D01*
X16477325Y-13632555D02*
X16458277Y-13651603D01*
X16458277Y-13651603D02*
X16439229Y-13661127D01*
X16620182Y-13603984D02*
X16743991Y-13603984D01*
X16743991Y-13603984D02*
X16677325Y-13680174D01*
X16677325Y-13680174D02*
X16705896Y-13680174D01*
X16705896Y-13680174D02*
X16724944Y-13689698D01*
X16724944Y-13689698D02*
X16734467Y-13699222D01*
X16734467Y-13699222D02*
X16743991Y-13718269D01*
X16743991Y-13718269D02*
X16743991Y-13765888D01*
X16743991Y-13765888D02*
X16734467Y-13784936D01*
X16734467Y-13784936D02*
X16724944Y-13794460D01*
X16724944Y-13794460D02*
X16705896Y-13803984D01*
X16705896Y-13803984D02*
X16648753Y-13803984D01*
X16648753Y-13803984D02*
X16629706Y-13794460D01*
X16629706Y-13794460D02*
X16620182Y-13784936D01*
X16810658Y-13603984D02*
X16943991Y-13603984D01*
X16943991Y-13603984D02*
X16858277Y-13803984D01*
X17048753Y-13689698D02*
X17029706Y-13680174D01*
X17029706Y-13680174D02*
X17020182Y-13670650D01*
X17020182Y-13670650D02*
X17010658Y-13651603D01*
X17010658Y-13651603D02*
X17010658Y-13642079D01*
X17010658Y-13642079D02*
X17020182Y-13623031D01*
X17020182Y-13623031D02*
X17029706Y-13613508D01*
X17029706Y-13613508D02*
X17048753Y-13603984D01*
X17048753Y-13603984D02*
X17086849Y-13603984D01*
X17086849Y-13603984D02*
X17105896Y-13613508D01*
X17105896Y-13613508D02*
X17115420Y-13623031D01*
X17115420Y-13623031D02*
X17124944Y-13642079D01*
X17124944Y-13642079D02*
X17124944Y-13651603D01*
X17124944Y-13651603D02*
X17115420Y-13670650D01*
X17115420Y-13670650D02*
X17105896Y-13680174D01*
X17105896Y-13680174D02*
X17086849Y-13689698D01*
X17086849Y-13689698D02*
X17048753Y-13689698D01*
X17048753Y-13689698D02*
X17029706Y-13699222D01*
X17029706Y-13699222D02*
X17020182Y-13708746D01*
X17020182Y-13708746D02*
X17010658Y-13727793D01*
X17010658Y-13727793D02*
X17010658Y-13765888D01*
X17010658Y-13765888D02*
X17020182Y-13784936D01*
X17020182Y-13784936D02*
X17029706Y-13794460D01*
X17029706Y-13794460D02*
X17048753Y-13803984D01*
X17048753Y-13803984D02*
X17086849Y-13803984D01*
X17086849Y-13803984D02*
X17105896Y-13794460D01*
X17105896Y-13794460D02*
X17115420Y-13784936D01*
X17115420Y-13784936D02*
X17124944Y-13765888D01*
X17124944Y-13765888D02*
X17124944Y-13727793D01*
X17124944Y-13727793D02*
X17115420Y-13708746D01*
X17115420Y-13708746D02*
X17105896Y-13699222D01*
X17105896Y-13699222D02*
X17086849Y-13689698D01*
X17201134Y-13603984D02*
X17201134Y-13642079D01*
X17277325Y-13603984D02*
X17277325Y-13642079D01*
X17572563Y-13880174D02*
X17563039Y-13870650D01*
X17563039Y-13870650D02*
X17543991Y-13842079D01*
X17543991Y-13842079D02*
X17534468Y-13823031D01*
X17534468Y-13823031D02*
X17524944Y-13794460D01*
X17524944Y-13794460D02*
X17515420Y-13746841D01*
X17515420Y-13746841D02*
X17515420Y-13708746D01*
X17515420Y-13708746D02*
X17524944Y-13661127D01*
X17524944Y-13661127D02*
X17534468Y-13632555D01*
X17534468Y-13632555D02*
X17543991Y-13613508D01*
X17543991Y-13613508D02*
X17563039Y-13584936D01*
X17563039Y-13584936D02*
X17572563Y-13575412D01*
X17639230Y-13623031D02*
X17648753Y-13613508D01*
X17648753Y-13613508D02*
X17667801Y-13603984D01*
X17667801Y-13603984D02*
X17715420Y-13603984D01*
X17715420Y-13603984D02*
X17734468Y-13613508D01*
X17734468Y-13613508D02*
X17743991Y-13623031D01*
X17743991Y-13623031D02*
X17753515Y-13642079D01*
X17753515Y-13642079D02*
X17753515Y-13661127D01*
X17753515Y-13661127D02*
X17743991Y-13689698D01*
X17743991Y-13689698D02*
X17629706Y-13803984D01*
X17629706Y-13803984D02*
X17753515Y-13803984D01*
X17991611Y-13803984D02*
X17991611Y-13603984D01*
X18077325Y-13803984D02*
X18077325Y-13699222D01*
X18077325Y-13699222D02*
X18067801Y-13680174D01*
X18067801Y-13680174D02*
X18048753Y-13670650D01*
X18048753Y-13670650D02*
X18020182Y-13670650D01*
X18020182Y-13670650D02*
X18001134Y-13680174D01*
X18001134Y-13680174D02*
X17991611Y-13689698D01*
X18201134Y-13803984D02*
X18182087Y-13794460D01*
X18182087Y-13794460D02*
X18172563Y-13784936D01*
X18172563Y-13784936D02*
X18163039Y-13765888D01*
X18163039Y-13765888D02*
X18163039Y-13708746D01*
X18163039Y-13708746D02*
X18172563Y-13689698D01*
X18172563Y-13689698D02*
X18182087Y-13680174D01*
X18182087Y-13680174D02*
X18201134Y-13670650D01*
X18201134Y-13670650D02*
X18229706Y-13670650D01*
X18229706Y-13670650D02*
X18248753Y-13680174D01*
X18248753Y-13680174D02*
X18258277Y-13689698D01*
X18258277Y-13689698D02*
X18267801Y-13708746D01*
X18267801Y-13708746D02*
X18267801Y-13765888D01*
X18267801Y-13765888D02*
X18258277Y-13784936D01*
X18258277Y-13784936D02*
X18248753Y-13794460D01*
X18248753Y-13794460D02*
X18229706Y-13803984D01*
X18229706Y-13803984D02*
X18201134Y-13803984D01*
X18382087Y-13803984D02*
X18363039Y-13794460D01*
X18363039Y-13794460D02*
X18353515Y-13775412D01*
X18353515Y-13775412D02*
X18353515Y-13603984D01*
X18534468Y-13794460D02*
X18515420Y-13803984D01*
X18515420Y-13803984D02*
X18477325Y-13803984D01*
X18477325Y-13803984D02*
X18458277Y-13794460D01*
X18458277Y-13794460D02*
X18448753Y-13775412D01*
X18448753Y-13775412D02*
X18448753Y-13699222D01*
X18448753Y-13699222D02*
X18458277Y-13680174D01*
X18458277Y-13680174D02*
X18477325Y-13670650D01*
X18477325Y-13670650D02*
X18515420Y-13670650D01*
X18515420Y-13670650D02*
X18534468Y-13680174D01*
X18534468Y-13680174D02*
X18543992Y-13699222D01*
X18543992Y-13699222D02*
X18543992Y-13718269D01*
X18543992Y-13718269D02*
X18448753Y-13737317D01*
X18620182Y-13794460D02*
X18639230Y-13803984D01*
X18639230Y-13803984D02*
X18677325Y-13803984D01*
X18677325Y-13803984D02*
X18696373Y-13794460D01*
X18696373Y-13794460D02*
X18705896Y-13775412D01*
X18705896Y-13775412D02*
X18705896Y-13765888D01*
X18705896Y-13765888D02*
X18696373Y-13746841D01*
X18696373Y-13746841D02*
X18677325Y-13737317D01*
X18677325Y-13737317D02*
X18648753Y-13737317D01*
X18648753Y-13737317D02*
X18629706Y-13727793D01*
X18629706Y-13727793D02*
X18620182Y-13708746D01*
X18620182Y-13708746D02*
X18620182Y-13699222D01*
X18620182Y-13699222D02*
X18629706Y-13680174D01*
X18629706Y-13680174D02*
X18648753Y-13670650D01*
X18648753Y-13670650D02*
X18677325Y-13670650D01*
X18677325Y-13670650D02*
X18696373Y-13680174D01*
X18772563Y-13880174D02*
X18782087Y-13870650D01*
X18782087Y-13870650D02*
X18801134Y-13842079D01*
X18801134Y-13842079D02*
X18810658Y-13823031D01*
X18810658Y-13823031D02*
X18820182Y-13794460D01*
X18820182Y-13794460D02*
X18829706Y-13746841D01*
X18829706Y-13746841D02*
X18829706Y-13708746D01*
X18829706Y-13708746D02*
X18820182Y-13661127D01*
X18820182Y-13661127D02*
X18810658Y-13632555D01*
X18810658Y-13632555D02*
X18801134Y-13613508D01*
X18801134Y-13613508D02*
X18782087Y-13584936D01*
X18782087Y-13584936D02*
X18772563Y-13575412D01*
X19134468Y-13880174D02*
X19124944Y-13870650D01*
X19124944Y-13870650D02*
X19105896Y-13842079D01*
X19105896Y-13842079D02*
X19096373Y-13823031D01*
X19096373Y-13823031D02*
X19086849Y-13794460D01*
X19086849Y-13794460D02*
X19077325Y-13746841D01*
X19077325Y-13746841D02*
X19077325Y-13708746D01*
X19077325Y-13708746D02*
X19086849Y-13661127D01*
X19086849Y-13661127D02*
X19096373Y-13632555D01*
X19096373Y-13632555D02*
X19105896Y-13613508D01*
X19105896Y-13613508D02*
X19124944Y-13584936D01*
X19124944Y-13584936D02*
X19134468Y-13575412D01*
X19210658Y-13670650D02*
X19210658Y-13803984D01*
X19210658Y-13689698D02*
X19220182Y-13680174D01*
X19220182Y-13680174D02*
X19239230Y-13670650D01*
X19239230Y-13670650D02*
X19267801Y-13670650D01*
X19267801Y-13670650D02*
X19286849Y-13680174D01*
X19286849Y-13680174D02*
X19296373Y-13699222D01*
X19296373Y-13699222D02*
X19296373Y-13803984D01*
X19420182Y-13803984D02*
X19401134Y-13794460D01*
X19401134Y-13794460D02*
X19391611Y-13784936D01*
X19391611Y-13784936D02*
X19382087Y-13765888D01*
X19382087Y-13765888D02*
X19382087Y-13708746D01*
X19382087Y-13708746D02*
X19391611Y-13689698D01*
X19391611Y-13689698D02*
X19401134Y-13680174D01*
X19401134Y-13680174D02*
X19420182Y-13670650D01*
X19420182Y-13670650D02*
X19448754Y-13670650D01*
X19448754Y-13670650D02*
X19467801Y-13680174D01*
X19467801Y-13680174D02*
X19477325Y-13689698D01*
X19477325Y-13689698D02*
X19486849Y-13708746D01*
X19486849Y-13708746D02*
X19486849Y-13765888D01*
X19486849Y-13765888D02*
X19477325Y-13784936D01*
X19477325Y-13784936D02*
X19467801Y-13794460D01*
X19467801Y-13794460D02*
X19448754Y-13803984D01*
X19448754Y-13803984D02*
X19420182Y-13803984D01*
X19543992Y-13670650D02*
X19620182Y-13670650D01*
X19572563Y-13603984D02*
X19572563Y-13775412D01*
X19572563Y-13775412D02*
X19582087Y-13794460D01*
X19582087Y-13794460D02*
X19601134Y-13803984D01*
X19601134Y-13803984D02*
X19620182Y-13803984D01*
X19839230Y-13670650D02*
X19839230Y-13870650D01*
X19839230Y-13680174D02*
X19858277Y-13670650D01*
X19858277Y-13670650D02*
X19896373Y-13670650D01*
X19896373Y-13670650D02*
X19915420Y-13680174D01*
X19915420Y-13680174D02*
X19924944Y-13689698D01*
X19924944Y-13689698D02*
X19934468Y-13708746D01*
X19934468Y-13708746D02*
X19934468Y-13765888D01*
X19934468Y-13765888D02*
X19924944Y-13784936D01*
X19924944Y-13784936D02*
X19915420Y-13794460D01*
X19915420Y-13794460D02*
X19896373Y-13803984D01*
X19896373Y-13803984D02*
X19858277Y-13803984D01*
X19858277Y-13803984D02*
X19839230Y-13794460D01*
X20048754Y-13803984D02*
X20029706Y-13794460D01*
X20029706Y-13794460D02*
X20020182Y-13775412D01*
X20020182Y-13775412D02*
X20020182Y-13603984D01*
X20210658Y-13803984D02*
X20210658Y-13699222D01*
X20210658Y-13699222D02*
X20201135Y-13680174D01*
X20201135Y-13680174D02*
X20182087Y-13670650D01*
X20182087Y-13670650D02*
X20143992Y-13670650D01*
X20143992Y-13670650D02*
X20124944Y-13680174D01*
X20210658Y-13794460D02*
X20191611Y-13803984D01*
X20191611Y-13803984D02*
X20143992Y-13803984D01*
X20143992Y-13803984D02*
X20124944Y-13794460D01*
X20124944Y-13794460D02*
X20115420Y-13775412D01*
X20115420Y-13775412D02*
X20115420Y-13756365D01*
X20115420Y-13756365D02*
X20124944Y-13737317D01*
X20124944Y-13737317D02*
X20143992Y-13727793D01*
X20143992Y-13727793D02*
X20191611Y-13727793D01*
X20191611Y-13727793D02*
X20210658Y-13718269D01*
X20277325Y-13670650D02*
X20353515Y-13670650D01*
X20305896Y-13603984D02*
X20305896Y-13775412D01*
X20305896Y-13775412D02*
X20315420Y-13794460D01*
X20315420Y-13794460D02*
X20334468Y-13803984D01*
X20334468Y-13803984D02*
X20353515Y-13803984D01*
X20496373Y-13794460D02*
X20477325Y-13803984D01*
X20477325Y-13803984D02*
X20439230Y-13803984D01*
X20439230Y-13803984D02*
X20420182Y-13794460D01*
X20420182Y-13794460D02*
X20410658Y-13775412D01*
X20410658Y-13775412D02*
X20410658Y-13699222D01*
X20410658Y-13699222D02*
X20420182Y-13680174D01*
X20420182Y-13680174D02*
X20439230Y-13670650D01*
X20439230Y-13670650D02*
X20477325Y-13670650D01*
X20477325Y-13670650D02*
X20496373Y-13680174D01*
X20496373Y-13680174D02*
X20505896Y-13699222D01*
X20505896Y-13699222D02*
X20505896Y-13718269D01*
X20505896Y-13718269D02*
X20410658Y-13737317D01*
X20677325Y-13803984D02*
X20677325Y-13603984D01*
X20677325Y-13794460D02*
X20658277Y-13803984D01*
X20658277Y-13803984D02*
X20620182Y-13803984D01*
X20620182Y-13803984D02*
X20601135Y-13794460D01*
X20601135Y-13794460D02*
X20591611Y-13784936D01*
X20591611Y-13784936D02*
X20582087Y-13765888D01*
X20582087Y-13765888D02*
X20582087Y-13708746D01*
X20582087Y-13708746D02*
X20591611Y-13689698D01*
X20591611Y-13689698D02*
X20601135Y-13680174D01*
X20601135Y-13680174D02*
X20620182Y-13670650D01*
X20620182Y-13670650D02*
X20658277Y-13670650D01*
X20658277Y-13670650D02*
X20677325Y-13680174D01*
X20753516Y-13880174D02*
X20763039Y-13870650D01*
X20763039Y-13870650D02*
X20782087Y-13842079D01*
X20782087Y-13842079D02*
X20791611Y-13823031D01*
X20791611Y-13823031D02*
X20801135Y-13794460D01*
X20801135Y-13794460D02*
X20810658Y-13746841D01*
X20810658Y-13746841D02*
X20810658Y-13708746D01*
X20810658Y-13708746D02*
X20801135Y-13661127D01*
X20801135Y-13661127D02*
X20791611Y-13632555D01*
X20791611Y-13632555D02*
X20782087Y-13613508D01*
X20782087Y-13613508D02*
X20763039Y-13584936D01*
X20763039Y-13584936D02*
X20753516Y-13575412D01*
X13968211Y-14103211D02*
X13968211Y-13961789D01*
X13826789Y-13961789D01*
X13826789Y-14103211D01*
X13968211Y-14103211D01*
X14343991Y-13990650D02*
X14343991Y-14123984D01*
X14296372Y-13914460D02*
X14248753Y-14057317D01*
X14248753Y-14057317D02*
X14372562Y-14057317D01*
X14448753Y-14104936D02*
X14458277Y-14114460D01*
X14458277Y-14114460D02*
X14448753Y-14123984D01*
X14448753Y-14123984D02*
X14439229Y-14114460D01*
X14439229Y-14114460D02*
X14448753Y-14104936D01*
X14448753Y-14104936D02*
X14448753Y-14123984D01*
X14582086Y-13923984D02*
X14601134Y-13923984D01*
X14601134Y-13923984D02*
X14620182Y-13933508D01*
X14620182Y-13933508D02*
X14629705Y-13943031D01*
X14629705Y-13943031D02*
X14639229Y-13962079D01*
X14639229Y-13962079D02*
X14648753Y-14000174D01*
X14648753Y-14000174D02*
X14648753Y-14047793D01*
X14648753Y-14047793D02*
X14639229Y-14085888D01*
X14639229Y-14085888D02*
X14629705Y-14104936D01*
X14629705Y-14104936D02*
X14620182Y-14114460D01*
X14620182Y-14114460D02*
X14601134Y-14123984D01*
X14601134Y-14123984D02*
X14582086Y-14123984D01*
X14582086Y-14123984D02*
X14563039Y-14114460D01*
X14563039Y-14114460D02*
X14553515Y-14104936D01*
X14553515Y-14104936D02*
X14543991Y-14085888D01*
X14543991Y-14085888D02*
X14534467Y-14047793D01*
X14534467Y-14047793D02*
X14534467Y-14000174D01*
X14534467Y-14000174D02*
X14543991Y-13962079D01*
X14543991Y-13962079D02*
X14553515Y-13943031D01*
X14553515Y-13943031D02*
X14563039Y-13933508D01*
X14563039Y-13933508D02*
X14582086Y-13923984D01*
X14772562Y-13923984D02*
X14791610Y-13923984D01*
X14791610Y-13923984D02*
X14810658Y-13933508D01*
X14810658Y-13933508D02*
X14820182Y-13943031D01*
X14820182Y-13943031D02*
X14829705Y-13962079D01*
X14829705Y-13962079D02*
X14839229Y-14000174D01*
X14839229Y-14000174D02*
X14839229Y-14047793D01*
X14839229Y-14047793D02*
X14829705Y-14085888D01*
X14829705Y-14085888D02*
X14820182Y-14104936D01*
X14820182Y-14104936D02*
X14810658Y-14114460D01*
X14810658Y-14114460D02*
X14791610Y-14123984D01*
X14791610Y-14123984D02*
X14772562Y-14123984D01*
X14772562Y-14123984D02*
X14753515Y-14114460D01*
X14753515Y-14114460D02*
X14743991Y-14104936D01*
X14743991Y-14104936D02*
X14734467Y-14085888D01*
X14734467Y-14085888D02*
X14724943Y-14047793D01*
X14724943Y-14047793D02*
X14724943Y-14000174D01*
X14724943Y-14000174D02*
X14734467Y-13962079D01*
X14734467Y-13962079D02*
X14743991Y-13943031D01*
X14743991Y-13943031D02*
X14753515Y-13933508D01*
X14753515Y-13933508D02*
X14772562Y-13923984D01*
X14963039Y-13923984D02*
X14982086Y-13923984D01*
X14982086Y-13923984D02*
X15001134Y-13933508D01*
X15001134Y-13933508D02*
X15010658Y-13943031D01*
X15010658Y-13943031D02*
X15020182Y-13962079D01*
X15020182Y-13962079D02*
X15029705Y-14000174D01*
X15029705Y-14000174D02*
X15029705Y-14047793D01*
X15029705Y-14047793D02*
X15020182Y-14085888D01*
X15020182Y-14085888D02*
X15010658Y-14104936D01*
X15010658Y-14104936D02*
X15001134Y-14114460D01*
X15001134Y-14114460D02*
X14982086Y-14123984D01*
X14982086Y-14123984D02*
X14963039Y-14123984D01*
X14963039Y-14123984D02*
X14943991Y-14114460D01*
X14943991Y-14114460D02*
X14934467Y-14104936D01*
X14934467Y-14104936D02*
X14924943Y-14085888D01*
X14924943Y-14085888D02*
X14915420Y-14047793D01*
X14915420Y-14047793D02*
X14915420Y-14000174D01*
X14915420Y-14000174D02*
X14924943Y-13962079D01*
X14924943Y-13962079D02*
X14934467Y-13943031D01*
X14934467Y-13943031D02*
X14943991Y-13933508D01*
X14943991Y-13933508D02*
X14963039Y-13923984D01*
X15115420Y-14123984D02*
X15115420Y-13990650D01*
X15115420Y-14009698D02*
X15124943Y-14000174D01*
X15124943Y-14000174D02*
X15143991Y-13990650D01*
X15143991Y-13990650D02*
X15172563Y-13990650D01*
X15172563Y-13990650D02*
X15191610Y-14000174D01*
X15191610Y-14000174D02*
X15201134Y-14019222D01*
X15201134Y-14019222D02*
X15201134Y-14123984D01*
X15201134Y-14019222D02*
X15210658Y-14000174D01*
X15210658Y-14000174D02*
X15229705Y-13990650D01*
X15229705Y-13990650D02*
X15258277Y-13990650D01*
X15258277Y-13990650D02*
X15277324Y-14000174D01*
X15277324Y-14000174D02*
X15286848Y-14019222D01*
X15286848Y-14019222D02*
X15286848Y-14123984D01*
X15382086Y-14123984D02*
X15382086Y-13990650D01*
X15382086Y-14009698D02*
X15391610Y-14000174D01*
X15391610Y-14000174D02*
X15410658Y-13990650D01*
X15410658Y-13990650D02*
X15439229Y-13990650D01*
X15439229Y-13990650D02*
X15458277Y-14000174D01*
X15458277Y-14000174D02*
X15467801Y-14019222D01*
X15467801Y-14019222D02*
X15467801Y-14123984D01*
X15467801Y-14019222D02*
X15477324Y-14000174D01*
X15477324Y-14000174D02*
X15496372Y-13990650D01*
X15496372Y-13990650D02*
X15524943Y-13990650D01*
X15524943Y-13990650D02*
X15543991Y-14000174D01*
X15543991Y-14000174D02*
X15553515Y-14019222D01*
X15553515Y-14019222D02*
X15553515Y-14123984D01*
X15943991Y-13914460D02*
X15772563Y-14171603D01*
X16201134Y-13923984D02*
X16220182Y-13923984D01*
X16220182Y-13923984D02*
X16239229Y-13933508D01*
X16239229Y-13933508D02*
X16248753Y-13943031D01*
X16248753Y-13943031D02*
X16258277Y-13962079D01*
X16258277Y-13962079D02*
X16267801Y-14000174D01*
X16267801Y-14000174D02*
X16267801Y-14047793D01*
X16267801Y-14047793D02*
X16258277Y-14085888D01*
X16258277Y-14085888D02*
X16248753Y-14104936D01*
X16248753Y-14104936D02*
X16239229Y-14114460D01*
X16239229Y-14114460D02*
X16220182Y-14123984D01*
X16220182Y-14123984D02*
X16201134Y-14123984D01*
X16201134Y-14123984D02*
X16182086Y-14114460D01*
X16182086Y-14114460D02*
X16172563Y-14104936D01*
X16172563Y-14104936D02*
X16163039Y-14085888D01*
X16163039Y-14085888D02*
X16153515Y-14047793D01*
X16153515Y-14047793D02*
X16153515Y-14000174D01*
X16153515Y-14000174D02*
X16163039Y-13962079D01*
X16163039Y-13962079D02*
X16172563Y-13943031D01*
X16172563Y-13943031D02*
X16182086Y-13933508D01*
X16182086Y-13933508D02*
X16201134Y-13923984D01*
X16353515Y-14104936D02*
X16363039Y-14114460D01*
X16363039Y-14114460D02*
X16353515Y-14123984D01*
X16353515Y-14123984D02*
X16343991Y-14114460D01*
X16343991Y-14114460D02*
X16353515Y-14104936D01*
X16353515Y-14104936D02*
X16353515Y-14123984D01*
X16553515Y-14123984D02*
X16439229Y-14123984D01*
X16496372Y-14123984D02*
X16496372Y-13923984D01*
X16496372Y-13923984D02*
X16477325Y-13952555D01*
X16477325Y-13952555D02*
X16458277Y-13971603D01*
X16458277Y-13971603D02*
X16439229Y-13981127D01*
X16734467Y-13923984D02*
X16639229Y-13923984D01*
X16639229Y-13923984D02*
X16629706Y-14019222D01*
X16629706Y-14019222D02*
X16639229Y-14009698D01*
X16639229Y-14009698D02*
X16658277Y-14000174D01*
X16658277Y-14000174D02*
X16705896Y-14000174D01*
X16705896Y-14000174D02*
X16724944Y-14009698D01*
X16724944Y-14009698D02*
X16734467Y-14019222D01*
X16734467Y-14019222D02*
X16743991Y-14038269D01*
X16743991Y-14038269D02*
X16743991Y-14085888D01*
X16743991Y-14085888D02*
X16734467Y-14104936D01*
X16734467Y-14104936D02*
X16724944Y-14114460D01*
X16724944Y-14114460D02*
X16705896Y-14123984D01*
X16705896Y-14123984D02*
X16658277Y-14123984D01*
X16658277Y-14123984D02*
X16639229Y-14114460D01*
X16639229Y-14114460D02*
X16629706Y-14104936D01*
X16810658Y-13923984D02*
X16943991Y-13923984D01*
X16943991Y-13923984D02*
X16858277Y-14123984D01*
X17115420Y-13923984D02*
X17020182Y-13923984D01*
X17020182Y-13923984D02*
X17010658Y-14019222D01*
X17010658Y-14019222D02*
X17020182Y-14009698D01*
X17020182Y-14009698D02*
X17039229Y-14000174D01*
X17039229Y-14000174D02*
X17086849Y-14000174D01*
X17086849Y-14000174D02*
X17105896Y-14009698D01*
X17105896Y-14009698D02*
X17115420Y-14019222D01*
X17115420Y-14019222D02*
X17124944Y-14038269D01*
X17124944Y-14038269D02*
X17124944Y-14085888D01*
X17124944Y-14085888D02*
X17115420Y-14104936D01*
X17115420Y-14104936D02*
X17105896Y-14114460D01*
X17105896Y-14114460D02*
X17086849Y-14123984D01*
X17086849Y-14123984D02*
X17039229Y-14123984D01*
X17039229Y-14123984D02*
X17020182Y-14114460D01*
X17020182Y-14114460D02*
X17010658Y-14104936D01*
X17201134Y-13923984D02*
X17201134Y-13962079D01*
X17277325Y-13923984D02*
X17277325Y-13962079D01*
X17572563Y-14200174D02*
X17563039Y-14190650D01*
X17563039Y-14190650D02*
X17543991Y-14162079D01*
X17543991Y-14162079D02*
X17534468Y-14143031D01*
X17534468Y-14143031D02*
X17524944Y-14114460D01*
X17524944Y-14114460D02*
X17515420Y-14066841D01*
X17515420Y-14066841D02*
X17515420Y-14028746D01*
X17515420Y-14028746D02*
X17524944Y-13981127D01*
X17524944Y-13981127D02*
X17534468Y-13952555D01*
X17534468Y-13952555D02*
X17543991Y-13933508D01*
X17543991Y-13933508D02*
X17563039Y-13904936D01*
X17563039Y-13904936D02*
X17572563Y-13895412D01*
X17753515Y-14123984D02*
X17639230Y-14123984D01*
X17696372Y-14123984D02*
X17696372Y-13923984D01*
X17696372Y-13923984D02*
X17677325Y-13952555D01*
X17677325Y-13952555D02*
X17658277Y-13971603D01*
X17658277Y-13971603D02*
X17639230Y-13981127D01*
X17991611Y-14123984D02*
X17991611Y-13923984D01*
X18077325Y-14123984D02*
X18077325Y-14019222D01*
X18077325Y-14019222D02*
X18067801Y-14000174D01*
X18067801Y-14000174D02*
X18048753Y-13990650D01*
X18048753Y-13990650D02*
X18020182Y-13990650D01*
X18020182Y-13990650D02*
X18001134Y-14000174D01*
X18001134Y-14000174D02*
X17991611Y-14009698D01*
X18201134Y-14123984D02*
X18182087Y-14114460D01*
X18182087Y-14114460D02*
X18172563Y-14104936D01*
X18172563Y-14104936D02*
X18163039Y-14085888D01*
X18163039Y-14085888D02*
X18163039Y-14028746D01*
X18163039Y-14028746D02*
X18172563Y-14009698D01*
X18172563Y-14009698D02*
X18182087Y-14000174D01*
X18182087Y-14000174D02*
X18201134Y-13990650D01*
X18201134Y-13990650D02*
X18229706Y-13990650D01*
X18229706Y-13990650D02*
X18248753Y-14000174D01*
X18248753Y-14000174D02*
X18258277Y-14009698D01*
X18258277Y-14009698D02*
X18267801Y-14028746D01*
X18267801Y-14028746D02*
X18267801Y-14085888D01*
X18267801Y-14085888D02*
X18258277Y-14104936D01*
X18258277Y-14104936D02*
X18248753Y-14114460D01*
X18248753Y-14114460D02*
X18229706Y-14123984D01*
X18229706Y-14123984D02*
X18201134Y-14123984D01*
X18382087Y-14123984D02*
X18363039Y-14114460D01*
X18363039Y-14114460D02*
X18353515Y-14095412D01*
X18353515Y-14095412D02*
X18353515Y-13923984D01*
X18534468Y-14114460D02*
X18515420Y-14123984D01*
X18515420Y-14123984D02*
X18477325Y-14123984D01*
X18477325Y-14123984D02*
X18458277Y-14114460D01*
X18458277Y-14114460D02*
X18448753Y-14095412D01*
X18448753Y-14095412D02*
X18448753Y-14019222D01*
X18448753Y-14019222D02*
X18458277Y-14000174D01*
X18458277Y-14000174D02*
X18477325Y-13990650D01*
X18477325Y-13990650D02*
X18515420Y-13990650D01*
X18515420Y-13990650D02*
X18534468Y-14000174D01*
X18534468Y-14000174D02*
X18543992Y-14019222D01*
X18543992Y-14019222D02*
X18543992Y-14038269D01*
X18543992Y-14038269D02*
X18448753Y-14057317D01*
X18610658Y-14200174D02*
X18620182Y-14190650D01*
X18620182Y-14190650D02*
X18639230Y-14162079D01*
X18639230Y-14162079D02*
X18648753Y-14143031D01*
X18648753Y-14143031D02*
X18658277Y-14114460D01*
X18658277Y-14114460D02*
X18667801Y-14066841D01*
X18667801Y-14066841D02*
X18667801Y-14028746D01*
X18667801Y-14028746D02*
X18658277Y-13981127D01*
X18658277Y-13981127D02*
X18648753Y-13952555D01*
X18648753Y-13952555D02*
X18639230Y-13933508D01*
X18639230Y-13933508D02*
X18620182Y-13904936D01*
X18620182Y-13904936D02*
X18610658Y-13895412D01*
X18972563Y-14200174D02*
X18963039Y-14190650D01*
X18963039Y-14190650D02*
X18943992Y-14162079D01*
X18943992Y-14162079D02*
X18934468Y-14143031D01*
X18934468Y-14143031D02*
X18924944Y-14114460D01*
X18924944Y-14114460D02*
X18915420Y-14066841D01*
X18915420Y-14066841D02*
X18915420Y-14028746D01*
X18915420Y-14028746D02*
X18924944Y-13981127D01*
X18924944Y-13981127D02*
X18934468Y-13952555D01*
X18934468Y-13952555D02*
X18943992Y-13933508D01*
X18943992Y-13933508D02*
X18963039Y-13904936D01*
X18963039Y-13904936D02*
X18972563Y-13895412D01*
X19048753Y-13990650D02*
X19048753Y-14123984D01*
X19048753Y-14009698D02*
X19058277Y-14000174D01*
X19058277Y-14000174D02*
X19077325Y-13990650D01*
X19077325Y-13990650D02*
X19105896Y-13990650D01*
X19105896Y-13990650D02*
X19124944Y-14000174D01*
X19124944Y-14000174D02*
X19134468Y-14019222D01*
X19134468Y-14019222D02*
X19134468Y-14123984D01*
X19258277Y-14123984D02*
X19239230Y-14114460D01*
X19239230Y-14114460D02*
X19229706Y-14104936D01*
X19229706Y-14104936D02*
X19220182Y-14085888D01*
X19220182Y-14085888D02*
X19220182Y-14028746D01*
X19220182Y-14028746D02*
X19229706Y-14009698D01*
X19229706Y-14009698D02*
X19239230Y-14000174D01*
X19239230Y-14000174D02*
X19258277Y-13990650D01*
X19258277Y-13990650D02*
X19286849Y-13990650D01*
X19286849Y-13990650D02*
X19305896Y-14000174D01*
X19305896Y-14000174D02*
X19315420Y-14009698D01*
X19315420Y-14009698D02*
X19324944Y-14028746D01*
X19324944Y-14028746D02*
X19324944Y-14085888D01*
X19324944Y-14085888D02*
X19315420Y-14104936D01*
X19315420Y-14104936D02*
X19305896Y-14114460D01*
X19305896Y-14114460D02*
X19286849Y-14123984D01*
X19286849Y-14123984D02*
X19258277Y-14123984D01*
X19382087Y-13990650D02*
X19458277Y-13990650D01*
X19410658Y-13923984D02*
X19410658Y-14095412D01*
X19410658Y-14095412D02*
X19420182Y-14114460D01*
X19420182Y-14114460D02*
X19439230Y-14123984D01*
X19439230Y-14123984D02*
X19458277Y-14123984D01*
X19677325Y-13990650D02*
X19677325Y-14190650D01*
X19677325Y-14000174D02*
X19696373Y-13990650D01*
X19696373Y-13990650D02*
X19734468Y-13990650D01*
X19734468Y-13990650D02*
X19753515Y-14000174D01*
X19753515Y-14000174D02*
X19763039Y-14009698D01*
X19763039Y-14009698D02*
X19772563Y-14028746D01*
X19772563Y-14028746D02*
X19772563Y-14085888D01*
X19772563Y-14085888D02*
X19763039Y-14104936D01*
X19763039Y-14104936D02*
X19753515Y-14114460D01*
X19753515Y-14114460D02*
X19734468Y-14123984D01*
X19734468Y-14123984D02*
X19696373Y-14123984D01*
X19696373Y-14123984D02*
X19677325Y-14114460D01*
X19886849Y-14123984D02*
X19867801Y-14114460D01*
X19867801Y-14114460D02*
X19858277Y-14095412D01*
X19858277Y-14095412D02*
X19858277Y-13923984D01*
X20048754Y-14123984D02*
X20048754Y-14019222D01*
X20048754Y-14019222D02*
X20039230Y-14000174D01*
X20039230Y-14000174D02*
X20020182Y-13990650D01*
X20020182Y-13990650D02*
X19982087Y-13990650D01*
X19982087Y-13990650D02*
X19963039Y-14000174D01*
X20048754Y-14114460D02*
X20029706Y-14123984D01*
X20029706Y-14123984D02*
X19982087Y-14123984D01*
X19982087Y-14123984D02*
X19963039Y-14114460D01*
X19963039Y-14114460D02*
X19953515Y-14095412D01*
X19953515Y-14095412D02*
X19953515Y-14076365D01*
X19953515Y-14076365D02*
X19963039Y-14057317D01*
X19963039Y-14057317D02*
X19982087Y-14047793D01*
X19982087Y-14047793D02*
X20029706Y-14047793D01*
X20029706Y-14047793D02*
X20048754Y-14038269D01*
X20115420Y-13990650D02*
X20191611Y-13990650D01*
X20143992Y-13923984D02*
X20143992Y-14095412D01*
X20143992Y-14095412D02*
X20153515Y-14114460D01*
X20153515Y-14114460D02*
X20172563Y-14123984D01*
X20172563Y-14123984D02*
X20191611Y-14123984D01*
X20334468Y-14114460D02*
X20315420Y-14123984D01*
X20315420Y-14123984D02*
X20277325Y-14123984D01*
X20277325Y-14123984D02*
X20258277Y-14114460D01*
X20258277Y-14114460D02*
X20248754Y-14095412D01*
X20248754Y-14095412D02*
X20248754Y-14019222D01*
X20248754Y-14019222D02*
X20258277Y-14000174D01*
X20258277Y-14000174D02*
X20277325Y-13990650D01*
X20277325Y-13990650D02*
X20315420Y-13990650D01*
X20315420Y-13990650D02*
X20334468Y-14000174D01*
X20334468Y-14000174D02*
X20343992Y-14019222D01*
X20343992Y-14019222D02*
X20343992Y-14038269D01*
X20343992Y-14038269D02*
X20248754Y-14057317D01*
X20515420Y-14123984D02*
X20515420Y-13923984D01*
X20515420Y-14114460D02*
X20496373Y-14123984D01*
X20496373Y-14123984D02*
X20458277Y-14123984D01*
X20458277Y-14123984D02*
X20439230Y-14114460D01*
X20439230Y-14114460D02*
X20429706Y-14104936D01*
X20429706Y-14104936D02*
X20420182Y-14085888D01*
X20420182Y-14085888D02*
X20420182Y-14028746D01*
X20420182Y-14028746D02*
X20429706Y-14009698D01*
X20429706Y-14009698D02*
X20439230Y-14000174D01*
X20439230Y-14000174D02*
X20458277Y-13990650D01*
X20458277Y-13990650D02*
X20496373Y-13990650D01*
X20496373Y-13990650D02*
X20515420Y-14000174D01*
X20591611Y-14200174D02*
X20601135Y-14190650D01*
X20601135Y-14190650D02*
X20620182Y-14162079D01*
X20620182Y-14162079D02*
X20629706Y-14143031D01*
X20629706Y-14143031D02*
X20639230Y-14114460D01*
X20639230Y-14114460D02*
X20648754Y-14066841D01*
X20648754Y-14066841D02*
X20648754Y-14028746D01*
X20648754Y-14028746D02*
X20639230Y-13981127D01*
X20639230Y-13981127D02*
X20629706Y-13952555D01*
X20629706Y-13952555D02*
X20620182Y-13933508D01*
X20620182Y-13933508D02*
X20601135Y-13904936D01*
X20601135Y-13904936D02*
X20591611Y-13895412D01*
M02*
